<svg width="20" height="20" viewBox="0 0 20 20" fill="none" xmlns="http://www.w3.org/2000/svg">
<g clip-path="url(#clip0_1_10524)">
<path d="M18.3275 9.2333V9.99997C18.3265 11.797 17.7448 13.5455 16.6692 14.9848C15.5936 16.4241 14.0817 17.477 12.359 17.9866C10.6363 18.4961 8.79513 18.4349 7.11005 17.8121C5.42496 17.1894 3.98626 16.0384 3.00851 14.5309C2.03077 13.0233 1.56636 11.24 1.68456 9.4469C1.80276 7.65377 2.49723 5.94691 3.66439 4.58086C4.83156 3.21482 6.40888 2.26279 8.16112 1.86676C9.91336 1.47073 11.7466 1.65192 13.3875 2.3833" stroke="#5079FF" stroke-width="2" stroke-linecap="round" stroke-linejoin="round"/>
<path d="M18.3272 3.33337L9.99671 11.675L7.49756 9.17504" stroke="#5079FF" stroke-width="2" stroke-linecap="round" stroke-linejoin="round"/>
</g>
<defs>
<clipPath id="clip0_1_10524">
<rect width="19.9932" height="20" fill="white"/>
</clipPath>
</defs>
</svg>
