<svg width="110" height="41" viewBox="0 0 110 41" fill="none" xmlns="http://www.w3.org/2000/svg">
<rect opacity="0.2" x="60" y="0.293427" width="50" height="39.9849" rx="3" fill="#7787B8"/>
<rect opacity="0.2" y="0.293427" width="50" height="39.9849" rx="3" fill="#7787B8"/>
<g clip-path="url(#clip0_1_6815)">
<path d="M78.2368 12.1986C78.2368 12.0172 78.3233 11.8561 78.4534 11.7352L79.5366 10.7279C79.6666 10.607 79.8616 10.5264 80.0349 10.5264C80.2082 10.5264 80.4032 10.607 80.5332 10.7279L90.6291 20.1159C90.759 20.2367 90.8457 20.418 90.8457 20.5792C90.8457 20.7404 90.759 20.9217 90.6291 21.0426L80.5332 30.4305C80.4032 30.5514 80.2082 30.6319 80.0349 30.6319C79.8616 30.6319 79.6666 30.5514 79.5366 30.4305L78.4534 29.4232C78.3233 29.3023 78.2368 29.1211 78.2368 28.9598C78.2368 28.7987 78.3233 28.6173 78.4534 28.4965L86.9677 20.5792L78.4534 12.6619C78.3233 12.541 78.2368 12.3597 78.2368 12.1986Z" fill="white"/>
</g>
<g clip-path="url(#clip1_1_6815)">
<path d="M31.7632 12.1986C31.7632 12.0172 31.6767 11.8561 31.5466 11.7352L30.4634 10.7279C30.3334 10.607 30.1384 10.5264 29.9651 10.5264C29.7918 10.5264 29.5968 10.607 29.4668 10.7279L19.3709 20.1159C19.241 20.2367 19.1543 20.418 19.1543 20.5792C19.1543 20.7404 19.241 20.9217 19.3709 21.0426L29.4668 30.4305C29.5968 30.5514 29.7918 30.6319 29.9651 30.6319C30.1384 30.6319 30.3334 30.5514 30.4634 30.4305L31.5466 29.4232C31.6767 29.3023 31.7632 29.1211 31.7632 28.9598C31.7632 28.7987 31.6767 28.6173 31.5466 28.4965L23.0323 20.5792L31.5466 12.6619C31.6767 12.541 31.7632 12.3597 31.7632 12.1986Z" fill="#999999"/>
</g>
<defs>
<clipPath id="clip0_1_6815">
<rect width="14.2353" height="20.4574" fill="white" transform="matrix(-1 0 0 1 92 10.5221)"/>
</clipPath>
<clipPath id="clip1_1_6815">
<rect width="14.2353" height="20.4574" fill="white" transform="translate(18 10.5221)"/>
</clipPath>
</defs>
</svg>
