<svg width="13" height="16" viewBox="0 0 13 16" fill="none" xmlns="http://www.w3.org/2000/svg">
<path fill-rule="evenodd" clip-rule="evenodd" d="M1.90392 1.94113C3.1229 0.698244 4.77618 0 6.50007 0C8.22396 0 9.87724 0.698244 11.0962 1.94113C12.3152 3.18401 13 4.86972 13 6.62742C13 8.38512 12.3152 10.0708 11.0962 11.3137L6.50007 16L1.90392 11.3137C1.30031 10.6983 0.821493 9.96772 0.494816 9.16365C0.168139 8.35957 0 7.49775 0 6.62742C0 5.75708 0.168139 4.89527 0.494816 4.09119C0.821493 3.28711 1.30031 2.55652 1.90392 1.94113ZM6.50007 8.52087C6.99258 8.52087 7.46493 8.32138 7.81319 7.96629C8.16145 7.6112 8.3571 7.12959 8.3571 6.62742C8.3571 6.12524 8.16145 5.64364 7.81319 5.28855C7.46493 4.93345 6.99258 4.73397 6.50007 4.73397C6.00755 4.73397 5.53521 4.93345 5.18695 5.28855C4.83869 5.64364 4.64304 6.12524 4.64304 6.62742C4.64304 7.12959 4.83869 7.6112 5.18695 7.96629C5.53521 8.32138 6.00755 8.52087 6.50007 8.52087Z" fill="#5079FF"/>
</svg>
