<svg width="150" height="150" viewBox="0 0 150 150" fill="none" xmlns="http://www.w3.org/2000/svg">
<path d="M141.999 136.453L138.701 135.155C124.436 129.5 107.932 126.336 96.6061 124.68C85.5489 123.053 77.2672 122.516 74.6558 122.397L73.7306 122.367L71.8505 122.426V122.367C68.8362 122.382 62.4048 122.531 54.1231 123.471C39.8128 125.083 26.771 128.201 15.3556 132.723L12.2667 133.946L14.7736 120.427L7.99902 110.832L17.1761 107.206L18.9816 99.4316L19.8471 99.0735C19.9814 99.0138 23.324 97.6111 29.0839 95.8503C33.8589 94.4029 41.1857 92.4481 50.0046 91.0156C49.5868 90.4038 49.1839 89.7771 48.781 89.1503L20.9961 70.841L22.0407 69.304C22.2197 69.0503 25.9204 63.6485 32.1727 59.2615C30.2627 59.0526 29.3972 57.9483 29.1137 57.4857C28.3527 56.3218 28.1736 54.9788 28.5765 53.6359L13.177 38.2363C11.2222 37.4305 10.5507 35.9682 10.1776 34.0432C9.96873 32.9987 10.3269 31.8944 11.252 30.7753C12.8636 28.8056 16.4747 26.612 19.0861 26.612C20.8767 26.612 22.3242 27.5372 23.0703 29.1637C23.2941 29.6561 23.4284 30.1336 23.4881 30.5216L32.9785 39.5196C32.7398 36.8933 32.5607 34.2223 32.4712 31.5512C32.4563 31.1483 32.4563 30.7454 32.4712 30.4918C32.4712 30.4171 32.4712 30.3425 32.4712 30.2978V28.9249L33.7843 28.537C35.7988 27.9401 37.8282 27.388 39.7681 26.8657C42.6779 26.0748 45.4683 25.3138 48.1841 24.4334C48.2289 22.7472 48.4975 21.5684 48.5124 21.5087L49.0943 19.0465L54.2574 22.1802C58.6295 20.3448 62.9718 18.1363 67.1799 16.0025C68.7168 15.2116 70.3135 14.4058 71.8952 13.6298C73.1487 13.0031 74.5514 12.5853 76.3271 13.6597C81.9676 17.1067 87.7872 20.0165 93.6217 22.3145L98.9787 19.0615L99.5607 21.5236C99.5756 21.5833 99.8591 22.792 99.889 24.5379C104.037 25.8659 108.29 26.9105 112.543 27.6566C112.991 27.7312 113.393 27.8655 113.841 28.0147C114.065 28.0893 114.319 28.1639 114.602 28.2535L116.05 28.6862L115.915 30.1933C115.766 31.8198 115.632 33.4762 115.497 35.0878C115.214 38.6541 114.915 42.3399 114.393 45.9659C113.841 49.786 113.14 53.5165 112.334 57.0828C116.527 59.3361 119.855 62.3205 121.989 64.514C124.54 67.1403 125.958 69.2443 126.017 69.3189L127.062 70.8559L124.078 72.8256L124.316 73.1241L123.973 72.8853L99.3966 89.1056C98.934 89.8367 98.4714 90.553 97.9939 91.2543C107.663 92.9107 116.109 95.2087 121.69 96.9098C128.345 98.9541 132.389 100.581 132.553 100.64L133.434 100.998L141.999 136.453ZM120.213 67.9312L121.809 69.9307L121.884 69.886C121.436 69.3338 120.884 68.6624 120.213 67.9312ZM18.1908 31.0737C18.2057 31.0886 18.2206 31.1036 18.2355 31.1185L18.9816 30.2829L18.1908 31.0737ZM17.9073 30.6111C17.952 30.7753 18.0416 30.9245 18.1609 31.0439L18.9667 30.2978C18.9369 30.2978 18.907 30.2978 18.8772 30.3127L17.9073 30.6111ZM44.3044 81.2118L40.5291 79.3167L44.0358 76.9889L44.7222 78.0185L45.0057 77.4514L44.7222 78.0185L46.0652 80.0479L44.3044 81.2118ZM102.888 80.6149L102.068 80.0628L104.112 77.0038L104.933 77.5559L102.888 80.6149ZM34.0977 67.9013L33.9485 67.782L36.2763 64.9468L36.4255 65.0661L34.0977 67.9013Z" fill="#AAAAAA"/>
<path d="M34.3074 30.2974C34.3074 30.5063 34.2925 30.9987 34.3074 31.4912C34.7998 45.4284 37.2918 58.9328 42.231 71.8553C48.4983 88.2696 58.2871 101.565 72.7168 110.623C73.7912 111.294 74.4925 111.22 75.5072 110.578C86.1018 103.908 94.3836 94.8054 100.576 83.4796C106.993 71.7658 110.664 59.0224 112.603 45.682C113.35 40.4892 113.633 35.2217 114.111 29.999C113.23 29.7453 112.738 29.5513 112.23 29.4618C99.1288 27.1489 86.8927 22.2694 75.3729 15.2261C74.3582 14.5994 73.7016 14.7785 72.7168 15.2709C66.2108 18.4941 59.7793 22.0008 53.0644 24.6569C47.0807 27.0146 40.7687 28.4023 34.3074 30.2974Z" fill="#AAAAAA"/>
<path d="M120.601 69.7668L103.918 79.0781L98.9193 75.7505L100.038 74.2583L95.9199 70.5129L103.396 74.2583L115.11 64.6187C117.244 66.0362 119.213 67.7523 120.601 69.7668Z" fill="#AAAAAA"/>
<path d="M112.827 63.2324L103.024 72.0214L95.2939 69.3355L103.397 59.3079C103.397 59.3079 108.097 60.5762 112.827 63.2324Z" fill="#AAAAAA"/>
<path d="M100.189 55.3083C100.293 56.144 100.025 56.6812 100.025 56.6812L84.3268 75.0055L82.0885 70.1409L77.2239 72.7522V70.887L74.2395 72.3792H73.8664L70.882 70.887V72.7522L66.0025 70.1409L63.7642 75.0055L48.0662 56.6812C48.0662 56.6812 47.7976 56.144 47.9021 55.3083C51.8862 61.5905 58.2281 66.1716 58.2281 66.1716C57.6163 63.7841 57.3925 61.3965 57.4372 59.0985L60.3918 61.2026C65.4653 69.0814 74.0604 71.4242 74.0604 71.4242C74.0604 71.4242 82.6406 69.0665 87.729 61.2026L90.6836 59.0985C90.7283 61.3965 90.5045 63.7841 89.8927 66.1716C89.8778 66.1716 96.2047 61.5905 100.189 55.3083Z" fill="#AAAAAA"/>
<path d="M95.6219 44.2361L99.7106 48.3247C99.5613 48.8321 99.3673 49.4737 99.1137 50.2049C98.86 50.9361 98.5317 51.7419 98.1288 52.5477C97.2484 54.3234 95.98 56.129 94.1745 57.1735C94.1745 57.1735 94.1297 56.9646 94.0402 56.5915C93.8014 55.5768 93.2195 53.3385 92.2943 50.6227C92.1302 50.1154 91.9362 49.608 91.7422 49.0708C92.8613 48.28 94.4878 47.1906 95.6219 44.2361Z" fill="#AAAAAA"/>
<path d="M98.9651 81.839L75.3584 95.0301V90.3296L87.3259 83.9728L75.3584 87.7183V81.1376L87.6989 78.7501L94.4288 70.4087V80.2423L98.9651 81.839Z" fill="#AAAAAA"/>
<path d="M74.0445 38.8348L96.3381 24.45C96.3381 31.2842 91.3093 34.1642 91.3093 34.1642C82.6844 36.3279 74.0445 44.5947 74.0445 44.5947C74.0445 44.5947 65.4196 36.3279 56.7797 34.1642C56.7797 34.1642 51.751 31.2842 51.751 24.45L74.0445 38.8348Z" fill="#AAAAAA"/>
<path d="M94.548 42.4442C94.548 43.0709 93.5184 47.2192 91.7278 49.0397C90.34 45.3092 88.3852 41.0415 85.8037 37.9825C87.3108 37.1468 88.803 36.4455 90.1609 35.9829C91.1906 37.3408 94.548 41.8324 94.548 42.4442Z" fill="#AAAAAA"/>
<path d="M90.1615 54.1295C89.7287 55.2039 88.8931 57.1139 87.6098 59.1732C86.6996 60.6355 85.5506 62.1725 84.1777 63.5155C86.6399 59.203 88.6394 51.6375 88.6394 51.6375L86.9383 44.1765C88.1768 46.8476 89.4601 50.2796 90.1615 54.1295Z" fill="#AAAAAA"/>
<path d="M86.833 28.5823L74.0448 36.3268V29.1344C74.0448 31.2981 72.2541 32.0144 72.2541 32.0144L71.2693 34.6407L61.2715 28.5823C61.9281 26.5827 64.8528 19.7932 74.0597 19.7932C83.2666 19.7932 86.1615 26.5678 86.833 28.5823Z" fill="#AAAAAA"/>
<path d="M83.4469 46.1911C83.3723 46.2061 79.3135 46.788 77.5825 48.5339C77.5825 48.5339 79.3433 50.2947 81.1041 49.1159C82.8351 47.9669 83.417 46.2508 83.4469 46.1911ZM64.66 46.1911C64.6749 46.2508 65.2718 47.9669 67.0028 49.1308C68.7636 50.3096 70.5244 48.5488 70.5244 48.5488C68.7785 46.788 64.7346 46.2061 64.66 46.1911ZM84.2974 44.5945C84.2974 44.5945 86.9685 47.3551 86.3865 49.1308C86.3865 49.1308 76.4037 53.2344 74.0609 53.2344C71.7181 53.2344 61.7353 49.1308 61.7353 49.1308C61.1533 47.37 63.8244 44.6094 63.8244 44.5945C67.7936 45.9822 73.8221 48.5339 74.0609 51.4288C74.2847 48.5488 80.3282 45.9822 84.2974 44.5945Z" fill="#AAAAAA"/>
<path d="M68.2845 43.8771C68.1801 43.8174 64.6883 41.6984 64.3302 40.2809C64.181 39.684 64.0914 39.2662 64.0467 38.9976C69.1799 42.0864 74.0444 46.0408 74.0444 46.0408C74.0444 46.0408 78.909 42.0864 84.0422 38.9976C83.9974 39.2811 83.9079 39.684 83.7587 40.2809C83.4006 41.6984 79.9088 43.8174 79.8044 43.8771L85.43 41.2209C85.6538 41.6238 85.8925 42.0566 86.1313 42.549C77.8496 44.4143 74.0295 48.9207 74.0295 48.9207C74.0295 48.9207 70.2244 44.4292 61.9277 42.549C62.1814 42.0715 62.4052 41.6238 62.6291 41.2209L68.2845 43.8771Z" fill="#AAAAAA"/>
<path d="M86.8475 49.6821C86.3998 51.7563 84.6091 59.2024 81.0875 63.2164C76.984 67.9169 75.8051 67.9169 75.8051 67.9169H78.1479C78.1479 67.9169 75.8051 70.2596 74.0443 70.2596C72.2835 70.2596 69.9408 67.9169 69.9408 67.9169H72.2835C72.2835 67.9169 71.1047 67.9169 67.0011 63.2164C63.4944 59.2024 61.6889 51.7563 61.2412 49.6821C64.5539 51.9204 74.0443 54.4124 74.0443 54.4124C74.0443 54.4124 83.5348 51.9055 86.8475 49.6821Z" fill="#AAAAAA"/>
<path d="M83.4454 46.1914C83.4305 46.2511 82.8336 47.9671 81.1027 49.131C79.3419 50.3099 77.5811 48.5491 77.5811 48.5491C79.312 46.7883 83.3559 46.2063 83.4454 46.1914Z" fill="#AAAAAA"/>
<path d="M72.7317 90.3296V95.0301L49.125 81.839L53.6613 80.2423V70.4087L60.3911 78.7501L72.7317 81.1376V87.7183L60.7791 83.9728L72.7317 90.3296Z" fill="#AAAAAA"/>
<path d="M70.5235 48.532C70.5235 48.532 68.7627 50.2928 67.0019 49.114C65.271 47.95 64.6741 46.234 64.6592 46.1743C64.7338 46.2042 68.7777 46.7861 70.5235 48.532Z" fill="#AAAAAA"/>
<path d="M63.9281 63.5155C62.5552 62.1725 61.4062 60.6355 60.496 59.1732C59.2127 57.1289 58.3771 55.2039 57.9443 54.1295C58.6308 50.2796 59.929 46.8476 61.1675 44.1765L59.4664 51.6375C59.4664 51.6375 61.4659 59.1881 63.9281 63.5155Z" fill="#AAAAAA"/>
<path d="M57.9291 35.9829C59.287 36.4455 60.7792 37.1468 62.2863 37.9825C59.7048 41.0415 57.7351 45.2943 56.3623 49.0397C54.5716 47.2043 53.542 43.0709 53.542 42.4442C53.542 41.8324 56.9144 37.3408 57.9291 35.9829Z" fill="#AAAAAA"/>
<path d="M56.3326 49.1004C56.1386 49.6227 55.9596 50.1449 55.7805 50.6374C54.8554 53.3383 54.2734 55.5915 54.0346 56.6062C53.9451 56.9792 53.9003 57.1882 53.9003 57.1882C52.0948 56.1287 50.8264 54.338 49.946 52.5623C49.5431 51.7565 49.2148 50.9507 48.9611 50.2196C48.7075 49.4884 48.5135 48.8467 48.3643 48.3394L52.4529 44.2507C53.6168 47.1904 55.2284 48.2797 56.3326 49.1004Z" fill="#AAAAAA"/>
<path d="M44.6934 59.3079L52.7961 69.3355L45.0665 72.0214L35.2627 63.2324C40.0079 60.5762 44.6934 59.3079 44.6934 59.3079Z" fill="#AAAAAA"/>
<path d="M52.1693 70.5129L48.0509 74.2583L49.17 75.7505L44.1711 79.0781L27.4883 69.7668C28.8611 67.7523 30.8457 66.0362 32.9796 64.6187L44.6934 74.2583L52.1693 70.5129Z" fill="#AAAAAA"/>
<path d="M41.4255 53.0387L43.7682 56.0231C41.2016 56.5603 38.8141 57.5004 36.6653 58.6643L36.7101 58.6344L34.4121 56.1275C34.4121 56.1275 34.7852 50.1438 40.7689 52.3821L41.4255 53.0387Z" fill="#AAAAAA"/>
<path d="M35.5916 66.23L33.5771 67.7819L44.5299 77.0037L49.0812 74.7206L52.8266 70.244L50.5435 70.7066L44.8881 73.4373L41.6052 70.244L35.5916 66.23Z" fill="#AAAAAA"/>
<path d="M34.0392 48.6378C34.1287 48.6229 38.1577 47.5336 39.2768 48.6378C40.396 49.7569 39.6499 50.503 39.6499 50.503C39.6499 50.503 35.5314 49.7569 34.4122 53.1144C33.8153 54.905 33.6363 55.5318 33.6064 55.7258C33.2185 55.6511 30.7563 55.099 31.7859 51.9952L15.0732 35.2826C15.6552 33.9246 16.9833 32.2235 20.0572 31.6565L35.7552 46.9964C35.1882 47.3545 34.6062 47.8917 34.0392 48.6378Z" fill="#AAAAAA"/>
<path d="M19.0724 29.5671C19.9677 29.7461 19.6245 30.7907 19.6245 30.7907C18.4904 31.0443 15.8791 31.8949 14.1332 34.6704C13.6109 34.4764 12.835 34.0586 13.0887 33.3125C13.4766 32.1933 17.2071 29.194 19.0724 29.5671Z" fill="#AAAAAA"/>
<path d="M46.26 60.7705L43.7979 61.6807L50.3636 68.6941L47.0807 71.6188L53.5569 69.7088L46.26 60.7705Z" fill="#AAAAAA"/>
<path d="M112.574 66.23L114.588 67.7819L103.636 77.0037L99.0694 74.7206L95.3389 70.244L97.6219 70.7066L103.277 73.4373L106.56 70.244L112.574 66.23Z" fill="#AAAAAA"/>
<path d="M101.904 60.7705L104.366 61.6807L97.8007 68.6941L101.084 71.6188L94.6074 69.7088L101.904 60.7705Z" fill="#AAAAAA"/>
<path d="M115.036 64.4097L118.05 68.1551L115.409 70.4382L115.946 71.3484L111.484 75.2729L121.154 70.1547V68.6923L115.036 64.4097Z" fill="#AAAAAA"/>
<path d="M103.188 58.9351L109.844 63.1431L107.829 65.1426L108.292 65.6948L106.098 69.8878L114.037 63.0386L110.291 61.3972L103.188 58.9351Z" fill="#AAAAAA"/>
<path d="M86.0278 77.005L93.8618 70.5885L94.3393 69.4246L94.4438 70.111L94.6079 69.9767L94.4587 70.2453L95.9808 80.1087L99.8903 81.5562L98.1594 82.7499L94.6079 80.1087L92.877 73.0059L89.042 79.7357L79.1935 81.9292V84.7495L86.9231 84.1228L79.1935 89.6887V91.1361L89.8627 87.3161L74.0752 96.6125V79.094L86.0278 77.005Z" fill="#AAAAAA"/>
<path d="M74.0743 54.3828L64.4048 52.4579L65.4046 56.2033L69.2396 59.5757H66.3149C66.3149 59.5757 70.881 67.0516 73.7908 67.0516H74.0594V70.7075L71.1347 69.4242L67.8518 66.1414L64.1064 59.9338L60.9131 50.7269L61.1817 49.4436L64.375 50.7269L74.0743 54.3828Z" fill="#AAAAAA"/>
<path d="M73.8066 54.3818L83.4761 52.4718L82.4763 56.2172L78.6414 59.5896H81.5661C81.5661 59.5896 77 67.0655 74.0902 67.0655H73.8066V70.7214L76.7314 69.4381L80.0142 66.1553L83.7596 59.9477L86.953 50.7408L86.6844 49.4575L83.491 50.7408L73.8066 54.3818Z" fill="#AAAAAA"/>
<path d="M92.2353 76.7227L89.6836 80.7516L82.3867 82.393V83.4674L89.9522 81.9155C89.9522 81.9304 92.2353 80.4382 92.2353 76.7227Z" fill="#AAAAAA"/>
<path d="M94.3384 83.3019L87.3102 87.1219L84.6689 88.0322L87.9518 85.1224L93.2342 82.7498L94.3384 83.3019Z" fill="#AAAAAA"/>
<path d="M54.4668 65.1406L62.3158 71.1691L62.7635 70.244L61.2116 66.2299L71.1646 72.9001L66.5984 71.9898L63.9572 76.1829L54.4668 65.1406Z" fill="#AAAAAA"/>
<path d="M93.3245 65.1406L85.4904 71.1691L85.0278 70.244L86.5797 66.2299L76.6416 72.9001L81.1928 71.9898L83.849 76.1829L93.3245 65.1406Z" fill="#AAAAAA"/>
<path d="M33.1298 64.4097L30.1155 68.1551L32.7567 70.4382L32.2046 71.3484L36.6812 75.2729L27.0117 70.1547V68.6923L33.1298 64.4097Z" fill="#AAAAAA"/>
<path d="M60.6742 36.6853L56.9288 42.7884V45.5341L55.7052 48.3096L54.7352 47.3546L52.8252 52.2788L53.2878 57.2031L54.198 57.7552L57.9285 46.1757L61.4054 40.0577L63.1363 37.9537L60.6742 36.6853Z" fill="#AAAAAA"/>
<path d="M44.9772 58.9351L38.322 63.1431L40.3365 65.1426L39.8739 65.6948L42.0674 69.8878L34.1289 63.0386L37.8594 61.3972L44.9772 58.9351Z" fill="#AAAAAA"/>
<path d="M59.0339 35.9537L54.5573 42.5194L55.2885 47.9063L53.2889 44.6234L49.4539 48.533L50.8268 54.7406L47.4395 48.3539L52.0951 43.3401L53.8261 40.5049L57.3925 35.0435L59.0339 35.9537Z" fill="#AAAAAA"/>
<path d="M87.6701 36.6853L91.4156 42.7884V45.5341L92.6392 48.3096L93.6091 47.3546L95.5191 52.2788L95.0566 57.2031L94.1463 57.7552L90.4158 46.1757L86.939 40.0577L85.208 37.9537L87.6701 36.6853Z" fill="#AAAAAA"/>
<path d="M89.2207 35.9537L93.6973 42.5194L92.9661 47.9063L94.9657 44.6234L98.8007 48.533L97.4278 54.7406L100.815 48.3539L96.1595 43.3401L94.4285 40.5049L90.8621 35.0435L89.2207 35.9537Z" fill="#AAAAAA"/>
<path d="M62.1373 77.005L54.3032 70.5885L53.8257 69.4246L53.7212 70.111L53.5571 69.9767L53.7063 70.2453L52.1843 80.1087L48.2598 81.5562L50.0056 82.7499L53.5571 80.1087L55.2881 73.0059L59.123 79.7357L68.9716 81.9292V84.7495L61.2419 84.1228L68.9716 89.6887V91.1361L58.3023 87.3161L74.0749 96.6125V79.094L62.1373 77.005Z" fill="#AAAAAA"/>
<path d="M74.0745 37.6853L53.1836 24.8225L56.2874 31.3882C56.2874 31.3882 65.0466 34.492 66.9566 36.6855L74.0745 42.5201L81.1923 36.6855C83.1023 34.492 91.8615 31.3882 91.8615 31.3882L94.9653 24.8225L74.0745 37.6853Z" fill="#AAAAAA"/>
<path d="M17.0426 32.8662L32.1139 48.1762L34.1135 47.1765L33.0242 49.4595C33.0242 49.4595 35.2177 48.7283 36.307 48.9969C37.3963 49.2655 38.1275 50.7279 38.1275 50.7279L35.5758 51.9067L33.7553 56.2789L31.3827 55.7268L31.2037 52.5335L14.6104 35.0448L15.6997 33.672L17.0426 32.8662Z" fill="#AAAAAA"/>
<path d="M15.4318 30.3889C15.4318 30.3889 16.163 32.2094 16.7151 32.4929L14.4171 35.1341L13.0443 34.6715L12.4922 33.8508L13.865 31.3887L15.4318 30.3889Z" fill="#AAAAAA"/>
<path d="M62.3164 29.3901C62.3164 29.3901 63.2267 24.9732 64.7785 24.1077C64.7785 24.1077 63.1371 29.5841 67.5093 32.673C71.8814 35.7469 74.075 37.1944 74.075 37.1944L81.6405 32.091C81.6405 32.091 82.1926 30.4496 80.9988 28.6291C80.9988 28.6291 82.3716 28.5396 82.2821 26.8982C82.1926 25.2567 79.82 22.6603 78.4471 22.0933C78.4471 22.0933 83.2819 22.2872 86.4752 29.4051L74.075 38.0599L62.3164 29.3901Z" fill="#AAAAAA"/>
<path d="M66.584 39.6557C66.584 39.6557 66.5243 41.1181 67.3749 41.9239C68.2254 42.7148 70.4936 44.9232 70.4936 44.9232L66.5691 43.5206L66.3453 44.1771L61.2568 43.3863L61.4359 41.6702L63.7041 38.0591L66.584 39.6557Z" fill="#AAAAAA"/>
<path d="M81.4613 39.6557C81.4613 39.6557 81.521 41.1181 80.6705 41.9239C79.8199 42.7297 77.5518 44.9232 77.5518 44.9232L81.4763 43.5206L81.715 44.192L86.8034 43.4012L86.6244 41.6851L84.3413 38.0591L81.4613 39.6557Z" fill="#AAAAAA"/>
<path d="M36.2628 51.7268L41.0527 58.203L36.9492 59.4863L33.7559 56.293L35.0392 52.5475L36.2628 51.7268Z" fill="#AAAAAA"/>
<path d="M102.845 55.7415C102.845 55.7415 102.531 54.2792 101.621 52.7571C102.113 51.7424 102.531 50.6979 102.83 49.6235C102.83 49.6235 101.397 46.7435 100.308 46.7435C100.308 46.7435 100.293 46.8331 100.248 46.9972L96.2639 42.7295C96.2937 42.64 96.3236 42.5355 96.3534 42.446L91.4888 35.4923C100.099 31.7021 97.8009 21.958 97.8009 21.958L88.5641 27.5538C84.1173 18.3469 74.0599 18.0037 74.0599 18.0037C74.0599 18.0037 64.0173 18.3618 59.5556 27.5538L50.304 21.9431C50.304 21.9431 48.006 31.6872 56.616 35.4774L51.7514 42.4311C51.7813 42.5355 51.8111 42.625 51.8409 42.7146L47.8568 46.9823C47.812 46.8181 47.7971 46.7286 47.7971 46.7286C46.7227 46.7286 45.2752 49.6086 45.2752 49.6086C45.5737 50.6829 45.9915 51.7275 46.4839 52.7422C45.9467 53.6375 45.6184 54.5179 45.4394 55.085L42.5445 51.8618C42.634 50.7874 42.649 49.5489 42.261 48.9968C41.7536 48.2357 39.8436 46.072 37.5009 46.3257L21.7432 31.4037C21.7432 31.4037 21.6984 28.4491 19.087 28.4491C16.4757 28.4491 11.6111 31.8215 11.9841 33.6867C12.3572 35.552 12.9242 36.2086 14.1329 36.6264L14.1478 36.5965L30.7859 53.2346C30.2637 54.0852 29.8757 55.2939 30.6815 56.5025C30.6815 56.5025 31.4276 57.9948 34.4269 57.2486L35.9042 59.0841C28.2492 63.4711 23.5935 70.3353 23.5935 70.3353L74.0748 103.611L124.556 70.3353C124.526 70.3353 115.931 57.6217 102.845 55.7415ZM103.397 59.3079C103.397 59.3079 108.082 60.5912 112.827 63.2324L103.024 72.0215L95.294 69.3355L103.397 59.3079ZM99.7109 48.3253C99.5617 48.8326 99.3677 49.4743 99.114 50.2054C98.8603 50.9366 98.532 51.7424 98.1291 52.5482C97.2487 54.3239 95.9804 56.1295 94.1748 57.174C94.1748 57.174 94.13 56.9651 94.0405 56.5921C93.8017 55.5774 93.2198 53.3391 92.2946 50.6233C92.1305 50.1159 91.9365 49.6086 91.7425 49.0714C92.8467 48.2507 94.4732 47.1763 95.6073 44.2068L99.7109 48.3253ZM94.5479 42.446C94.5479 43.0727 93.5331 47.221 91.7276 49.0415C90.3398 45.311 88.385 41.0433 85.8035 37.9843C87.3107 37.1486 88.8029 36.4473 90.1608 35.9847C91.1904 37.3426 94.5479 41.8342 94.5479 42.446ZM78.1634 67.9179C78.1634 67.9179 75.8207 70.2607 74.0599 70.2607C72.2991 70.2607 69.9563 67.9179 69.9563 67.9179H72.2991C72.2991 67.9179 71.1202 67.9179 67.0167 63.2175C63.51 59.2034 61.7044 51.7573 61.2568 49.6832C64.5695 51.9215 74.0599 54.4135 74.0599 54.4135C74.0599 54.4135 83.5503 51.9215 86.863 49.6832C86.4153 51.7573 84.6247 59.2034 81.1031 63.2175C76.9995 67.9179 75.8207 67.9179 75.8207 67.9179H78.1634ZM64.3307 40.2823C64.1815 39.6854 64.0919 39.2676 64.0472 38.999C69.1804 42.0729 74.045 46.0422 74.045 46.0422C74.045 46.0422 78.9095 42.0879 84.0427 38.999C83.998 39.2825 83.9084 39.6854 83.7592 40.2823C83.4011 41.7148 79.8049 43.8785 79.8049 43.8785L85.4454 41.2224C85.6692 41.6253 85.908 42.058 86.1467 42.5504C77.865 44.4157 74.045 48.9221 74.045 48.9221C74.045 48.9221 70.2398 44.4306 61.9432 42.5504C62.1819 42.0729 62.4207 41.6253 62.6445 41.2224L68.285 43.8785C68.285 43.8785 64.6888 41.7148 64.3307 40.2823ZM86.3706 49.1311C86.3706 49.1311 76.3877 53.2346 74.045 53.2346C71.7022 53.2346 61.7193 49.1311 61.7193 49.1311C61.1374 47.3703 63.8084 44.6097 63.8084 44.6097C67.7777 45.9974 73.8062 48.5491 74.045 51.444C74.2837 48.5491 80.3271 45.9974 84.2815 44.6097C84.2964 44.5947 86.9675 47.3703 86.3706 49.1311ZM59.4661 51.638C59.4661 51.638 61.4657 59.2034 63.9278 63.5159C62.555 62.1729 61.406 60.636 60.4957 59.1736C59.2124 57.1293 58.3768 55.2043 57.9441 54.1299C58.6305 50.2801 59.9287 46.848 61.1672 44.1769L59.4661 51.638ZM88.6238 51.638L86.9376 44.1769C88.1761 46.848 89.4594 50.2801 90.1608 54.1299C89.728 55.2043 88.8924 57.1143 87.6091 59.1736C86.6989 60.636 85.5499 62.1729 84.177 63.5159C86.6242 59.1885 88.6238 51.638 88.6238 51.638ZM74.045 19.7794C83.2369 19.7794 86.1617 26.5689 86.8331 28.5685L74.045 36.313V29.1206C74.045 31.2843 72.2394 32.0005 72.2394 32.0005L71.2545 34.6268L61.2568 28.5685C61.9282 26.5689 64.853 19.7794 74.045 19.7794ZM51.7514 24.45L74.045 38.8348L96.3385 24.45C96.3385 31.2843 91.3098 34.1642 91.3098 34.1642C82.6848 36.3279 74.045 44.5948 74.045 44.5948C74.045 44.5948 65.42 36.3279 56.7801 34.1642C56.7801 34.1642 51.7514 31.2843 51.7514 24.45ZM57.9291 35.9847C59.287 36.4473 60.7792 37.1486 62.2864 37.9843C59.7049 41.0433 57.7352 45.2961 56.3623 49.0415C54.5717 47.2061 53.5421 43.0727 53.5421 42.446C53.5421 41.8342 56.9144 37.3426 57.9291 35.9847ZM52.4677 44.2366C53.6167 47.2061 55.2282 48.2805 56.3325 49.1012C56.1385 49.6235 55.9594 50.1458 55.7804 50.6531C54.8552 53.354 54.2732 55.6072 54.0345 56.6219C53.945 56.995 53.9002 57.2039 53.9002 57.2039C52.0946 56.1444 50.8262 54.3538 49.9458 52.578C49.5429 51.7723 49.2147 50.9665 48.961 50.2353C48.7073 49.5041 48.5133 48.8625 48.3641 48.3551L52.4677 44.2366ZM13.1033 33.3137C13.4764 32.1945 17.2218 29.1952 19.087 29.5682C19.9824 29.7473 19.6392 30.7919 19.6392 30.7919C18.5051 31.0455 15.8937 31.8961 14.1478 34.6716C13.6107 34.4925 12.8496 34.0747 13.1033 33.3137ZM33.6062 55.7415C33.2182 55.6669 30.7561 55.1148 31.7857 52.011L15.073 35.2983C15.655 33.9404 16.983 32.2393 20.057 31.6723L35.755 46.9972C35.1879 47.3703 34.6209 47.8925 34.0389 48.6386C34.0389 48.6386 38.1574 47.5195 39.2766 48.6386C40.3957 49.7578 39.6496 50.5039 39.6496 50.5039C39.6496 50.5039 35.5311 49.7578 34.412 53.1152C33.8151 54.9208 33.636 55.5475 33.6062 55.7415ZM34.412 56.1295C34.412 56.1295 34.785 50.1458 40.7688 52.3841L41.4254 53.0406L43.7681 56.025C41.2015 56.5622 38.814 57.5023 36.6503 58.6662L36.6951 58.6364L34.412 56.1295ZM44.6933 59.3079L52.796 69.3355L45.0663 72.0215L35.2625 63.2324C40.0078 60.5763 44.6933 59.3079 44.6933 59.3079ZM27.4882 69.7682C28.861 67.7538 30.8456 66.0377 32.9795 64.6201L44.6933 74.2598L52.1692 70.5143L48.0507 74.2598L49.1699 75.752L44.171 79.0796L27.4882 69.7682ZM72.7318 87.7195L60.7643 83.974L72.7318 90.3308V95.0164L49.1102 81.8402L53.6614 80.2286V70.395L60.3913 78.7215L72.7318 81.1239V87.7195ZM73.8659 72.3945L70.8815 70.9023V72.7676L66.002 70.1413L63.7637 75.0059L48.0657 56.6816C48.0657 56.6816 47.7971 56.1444 47.9015 55.3088C51.8857 61.591 58.2276 66.172 58.2276 66.172C57.6158 63.7845 57.3919 61.397 57.4367 59.099L60.3913 61.203C65.4648 69.0818 74.0599 71.4246 74.0599 71.4246C74.0599 71.4246 82.6401 69.0669 87.7285 61.203L90.6681 59.099C90.7129 61.397 90.4891 63.7845 89.8773 66.172C89.8773 66.172 96.2042 61.591 100.203 55.3088C100.308 56.1444 100.039 56.6816 100.039 56.6816L84.3262 75.0059L82.0879 70.1413L77.2234 72.7527V70.8874L74.2389 72.3796H73.8659V72.3945ZM75.3581 95.0313V90.3458L87.3256 83.989L75.3581 87.7344V81.1538L87.6986 78.7513L94.4285 70.4248V80.2584L98.9797 81.87L75.3581 95.0313ZM98.92 75.752L100.039 74.2598L95.9207 70.5143L103.397 74.2598L115.11 64.6201C117.244 66.0377 119.229 67.7538 120.602 69.7682L103.919 79.0796L98.92 75.752Z" fill="#AAAAAA"/>
<path d="M55.9297 76.7227L58.4814 80.7516L65.7782 82.393V83.4674L58.2128 81.9305C58.2128 81.9305 55.9297 80.4382 55.9297 76.7227Z" fill="#AAAAAA"/>
<path d="M53.8262 83.3019L60.8545 87.1219L63.4957 88.0322L60.2128 85.1224L54.9304 82.7498L53.8262 83.3019Z" fill="#AAAAAA"/>
<path d="M54.4531 27.4783L56.3035 31.3878L61.2576 33.3576C61.2427 33.3576 54.6919 34.417 54.4531 27.4783Z" fill="#AAAAAA"/>
<path d="M93.7117 27.4783L91.8613 31.3878L86.9072 33.3576C86.9221 33.3576 93.4729 34.417 93.7117 27.4783Z" fill="#AAAAAA"/>
<path d="M131.852 102.342C131.852 102.342 103.649 90.9117 73.7749 90.8967C73.76 90.8967 73.7451 90.8967 73.7302 90.8967C73.7152 90.8967 73.7003 90.8967 73.6854 90.8967C43.8114 90.9117 20.548 100.745 20.548 100.745L18.7424 108.55L10.8486 111.668L16.7279 119.995L14.6836 130.977C42.4088 119.995 71.9246 120.472 73.7003 120.502C73.7003 120.502 73.7152 120.502 73.7451 120.502C73.7749 120.502 73.7898 120.502 73.7898 120.502C75.5656 120.457 111.677 122.442 139.402 133.425L131.852 102.342Z" fill="#AAAAAA"/>
<path d="M24.6227 102.97C24.0706 105.626 23.5185 108.268 22.9664 110.924C21.0116 111.565 19.0717 112.237 17.1318 112.938C18.1465 114.43 19.1762 115.908 20.2207 117.385C20.8176 117.191 21.116 117.086 21.7129 116.893C21.1608 119.549 20.6087 122.19 20.0566 124.846C21.5935 124.354 23.1454 123.861 24.6973 123.399C25.2047 120.757 25.712 118.131 26.2044 115.49C27.6966 115.042 29.2038 114.624 30.7109 114.221C30.2483 116.848 29.8007 119.459 29.3381 122.085C30.89 121.668 32.4419 121.28 34.0087 120.907C35.1278 113.729 36.2619 106.552 37.3811 99.374C33.1133 100.404 28.8456 101.612 24.6227 102.97ZM31.7704 108.312C30.2931 108.715 28.8307 109.118 27.3684 109.551C27.4877 108.894 27.622 108.238 27.7414 107.581C29.1889 107.148 30.6512 106.746 32.1136 106.343C31.9942 106.999 31.8897 107.656 31.7704 108.312Z" fill="#AAAAAA"/>
<path d="M51.1848 102.42C51.3788 100.48 51.5578 98.5551 51.7518 96.6152C47.4244 97.2569 43.112 98.0477 38.8443 99.0177C38.1578 103.584 37.4714 108.135 36.785 112.701C39.7993 112.015 42.8284 111.403 45.8875 110.881C45.8128 111.522 45.7382 112.179 45.6636 112.821C42.5897 113.358 39.5307 113.97 36.5015 114.656C36.2031 116.611 35.9046 118.566 35.6211 120.52C40.2917 119.461 44.9772 118.58 49.7075 117.894C50.1402 113.373 50.5879 108.866 51.0206 104.345C48.0362 104.778 45.0817 105.3 42.1122 105.882C42.2017 105.24 42.2912 104.584 42.3659 103.942C45.2906 103.375 48.2302 102.868 51.1848 102.42Z" fill="#AAAAAA"/>
<path d="M67.6136 95.1518C67.539 97.7184 67.4644 100.285 67.3898 102.837C66.8974 102.852 66.39 102.881 65.8976 102.911C65.4201 102.941 64.9426 102.971 64.4651 103.001C64.3606 103.001 64.2562 103.016 64.1368 103.016C63.9279 103.031 63.7339 103.046 63.525 103.061C62.8237 103.105 62.1223 103.15 61.421 103.21C59.9288 103.329 58.4366 103.463 56.9444 103.613C56.9891 102.971 57.0339 102.329 57.0787 101.688C60.0332 101.374 62.9878 101.15 65.9573 100.986C66.017 99.0614 66.0916 97.1365 66.1513 95.2115C61.809 95.4503 57.4816 95.8382 53.1691 96.4202C52.7662 100.927 52.3484 105.433 51.9455 109.954C54.9896 109.552 58.0337 109.223 61.0927 108.985C61.0628 109.626 61.0181 110.268 60.9882 110.91C57.8994 111.163 54.8254 111.491 51.7664 111.894C51.5873 113.834 51.4232 115.759 51.2441 117.699C55.9446 117.072 60.6749 116.64 65.4201 116.386C65.5096 113.819 65.5992 111.253 65.6887 108.701C66.3005 108.671 66.5989 108.656 67.2107 108.626C67.1361 111.193 67.0615 113.76 66.9869 116.311C68.5686 116.252 70.1355 116.207 71.7172 116.177C71.747 113.61 71.762 111.059 71.7918 108.492C73.3139 108.477 74.8508 108.477 76.3729 108.492C76.4027 111.059 76.4176 113.61 76.4475 116.177C78.0292 116.207 79.596 116.252 81.1778 116.311C80.9838 109.268 80.7749 102.21 80.5809 95.1667C76.2684 94.9877 71.941 94.9877 67.6136 95.1518ZM71.8664 102.717C71.8664 102.076 71.8813 101.434 71.8813 100.792C73.3586 100.777 74.8359 100.777 76.3281 100.792C76.3281 101.434 76.343 102.076 76.343 102.717C74.8508 102.702 73.3586 102.702 71.8664 102.717Z" fill="#AAAAAA"/>
<path d="M86.7882 103.194C86.7583 102.552 86.7136 101.911 86.6837 101.269C89.6532 101.508 92.5929 101.821 95.5474 102.209C95.3684 100.269 95.2042 98.3443 95.0252 96.4045C90.7127 95.8374 86.3853 95.4346 82.043 95.1958C82.1922 99.6873 82.3563 104.164 82.5055 108.655C85.5646 108.82 88.6236 109.058 91.6677 109.372C91.7125 110.013 91.7572 110.655 91.802 111.297C88.728 110.983 85.6541 110.73 82.5652 110.566C82.6249 112.49 82.6995 114.415 82.7592 116.34C87.5044 116.594 92.2198 117.027 96.9352 117.653C96.5323 113.147 96.1145 108.641 95.7116 104.119C92.757 103.761 89.7726 103.448 86.7882 103.194Z" fill="#AAAAAA"/>
<path d="M101.665 105.061C101.59 104.419 101.516 103.763 101.441 103.121C104.396 103.644 107.335 104.225 110.245 104.882C109.947 102.927 109.648 100.972 109.365 99.0177C105.097 98.0477 100.799 97.242 96.457 96.6152C96.8898 101.137 97.3374 105.643 97.7702 110.164C100.829 110.612 103.858 111.134 106.888 111.731C106.977 112.373 107.067 113.029 107.141 113.671C104.097 113.059 101.023 112.537 97.9492 112.089C98.1432 114.029 98.3223 115.954 98.5163 117.894C103.247 118.58 107.947 119.461 112.603 120.52C111.916 115.954 111.23 111.403 110.543 106.837C107.604 106.18 104.649 105.583 101.665 105.061Z" fill="#AAAAAA"/>
<path d="M110.798 99.3601C111.917 106.538 113.051 113.715 114.17 120.893C115.737 121.266 117.289 121.669 118.841 122.071C117.587 114.864 116.334 107.657 115.066 100.434C113.648 100.061 112.23 99.7033 110.798 99.3601Z" fill="#AAAAAA"/>
<path d="M134.181 126.592C132.181 117.907 131.226 113.61 129.227 104.925C127.824 104.418 126.421 103.925 125.004 103.448C125.571 106.104 126.138 108.76 126.705 111.416C123.049 106.596 120.96 105.477 116.483 100.702C118.02 109.238 118.856 113.968 120.393 122.518C121.945 122.951 123.497 123.399 125.049 123.876C124.526 121.235 124.004 118.594 123.482 115.952C128.54 120.534 130.256 121.578 134.181 126.592Z" fill="#AAAAAA"/>
<path d="M128.749 115.878L128.286 113.729C127.779 113.58 127.272 113.43 126.779 113.281L128.749 115.878Z" fill="#AAAAAA"/>
<path d="M20.6538 116.117C20.8776 116.043 21.1015 115.968 21.3999 115.879L23.1607 115.311L21.5044 123.265C22.2654 123.026 23.0264 122.787 23.7874 122.564L25.3095 114.655L25.9362 114.476C27.4433 114.028 28.9654 113.61 30.4725 113.193L32.099 112.76L30.7262 120.639C31.5171 120.43 32.3079 120.236 33.1137 120.042L34.8447 109.029C29.6667 110.208 24.2799 111.715 18.9229 113.625C19.475 114.431 20.0569 115.282 20.6538 116.117Z" fill="#AAAAAA"/>
<path d="M38.0682 111.328C40.605 110.776 43.1566 110.268 45.6934 109.836L47.111 109.582L46.6335 113.745L45.8426 113.879C43.0522 114.372 40.217 114.924 37.4415 115.551L36.9043 119.147C40.8139 118.296 44.7831 117.565 48.7226 116.968L49.7522 106.314C46.2306 106.791 42.4702 107.418 38.5606 108.209L38.0682 111.328Z" fill="#AAAAAA"/>
<path d="M73.8964 104.671C73.8964 104.671 73.8815 104.671 73.8516 104.671C73.8218 104.671 73.8069 104.671 73.8069 104.671C72.9115 104.656 64.8089 104.522 53.4084 105.85L53.1547 108.73C55.7661 108.402 58.4222 108.133 61.0336 107.924L62.2572 107.82L62.0334 111.908L61.0933 111.983C58.3327 112.207 55.5273 112.505 52.7668 112.848L52.4385 116.459C56.4077 115.967 60.4069 115.594 64.391 115.37L64.6596 107.67L65.6445 107.626C66.2563 107.596 66.5547 107.581 67.1815 107.551L68.3305 107.506L68.1066 115.206C68.9572 115.176 69.8227 115.146 70.6732 115.131L70.7478 107.432L71.7924 107.417C73.3293 107.402 74.8812 107.402 76.4033 107.417L77.4478 107.432L77.5224 115.131C78.373 115.146 79.2385 115.176 80.089 115.206L79.8055 105.044C76.4331 104.746 74.2993 104.656 73.8964 104.671Z" fill="#AAAAAA"/>
<path d="M83.5499 107.655C86.2956 107.819 89.0562 108.043 91.7869 108.326L92.6822 108.416L92.9807 112.519L91.7123 112.385C89.0562 112.102 86.3702 111.893 83.6991 111.728L83.8185 115.34C87.7878 115.578 91.8018 115.936 95.7711 116.429L94.8907 106.67C90.5782 106.073 86.6985 105.64 83.4902 105.327L83.5499 107.655Z" fill="#AAAAAA"/>
<path d="M98.7558 109.222C101.531 109.64 104.337 110.132 107.097 110.685L107.843 110.834L108.395 115.027L106.933 114.728C104.352 114.221 101.74 113.758 99.1438 113.356L99.487 116.967C103.426 117.564 107.381 118.295 111.305 119.145L109.798 109.207C105.889 108.431 102.098 107.79 98.5469 107.238L98.7558 109.222Z" fill="#AAAAAA"/>
<path d="M115.125 120.026C115.916 120.22 116.707 120.414 117.513 120.623L115.737 110.461C115.006 110.297 114.275 110.133 113.559 109.984L115.125 120.026Z" fill="#AAAAAA"/>
<path d="M130.271 114.34C129.615 114.131 128.943 113.937 128.286 113.728L128.749 115.877L126.779 113.28C124.347 112.579 121.915 111.937 119.482 111.341C119.482 111.37 119.497 111.385 119.497 111.415C120.049 114.504 120.617 117.697 121.333 121.667C122.109 121.89 122.885 122.114 123.646 122.338L121.81 112.967L124.213 115.146C125.347 116.175 126.317 117.026 127.167 117.787C129.092 119.488 130.525 120.741 132.151 122.517C131.614 120.145 131.137 118.056 130.659 116.011C130.525 115.444 130.405 114.892 130.271 114.34Z" fill="#AAAAAA"/>
</svg>
