<svg width="100" height="100" viewBox="0 0 100 100" fill="none" xmlns="http://www.w3.org/2000/svg">
<path d="M46.1469 94.6675H46.0461H45.9453H44.8261V94.6575C35.7919 94.4659 28.5928 92.288 24.0757 90.463C18.9537 88.386 16.1104 86.3291 15.9994 86.2484L15.334 85.7544L19.6897 72.5963C19.8511 72.0922 20.0628 71.6183 20.3149 71.1545L19.7402 68.291C18.6008 62.6144 20.2342 55.4657 20.3552 54.9616C20.5669 53.9231 20.8392 52.8442 21.1618 51.7452C22.4827 47.2281 24.1161 43.931 26.0217 41.9246C25.0235 39.3232 24.4589 36.2883 24.3379 32.8803C24.1867 28.7766 24.8723 25.4594 25.7898 22.9085L24.3076 23.8966L28.1895 16.5664C30.811 11.6158 34.0779 9.82103 36.2557 9.17574L32.6562 6.09041L40.1477 6.61471C40.2183 6.61471 40.2989 6.61471 40.3897 6.6248L39.4116 5.3342L47.014 6.22149C55.3727 7.19951 58.0547 10.2848 61.1904 14.8725C64.7194 20.0349 64.1144 25.6409 63.7313 27.6575C63.9632 28.4137 64.1245 29.1598 64.2052 29.8757C65.5159 28.5447 66.8065 27.234 68.0769 25.9333L68.087 25.9232L72.9671 21.0532L73.0074 21.0129C73.0074 21.0129 73.0276 20.9927 73.0578 20.9625C73.1082 20.9121 73.1587 20.8516 73.2091 20.8012C73.2393 20.7709 73.2696 20.7407 73.2998 20.7104L73.32 20.6903L74.8324 19.1879C74.9332 19.0871 75.024 18.9964 75.1248 18.8955C75.2256 18.7947 75.3265 18.6939 75.4374 18.593C76.4053 17.6453 77.6858 17.615 78.6235 18.5325C80.3477 20.2164 81.8903 21.7389 83.3221 23.211C84.2598 24.1688 84.2497 25.4392 83.3019 26.3971C83.2011 26.508 83.0902 26.5988 82.9793 26.6895C83.1204 26.8004 83.2616 26.9315 83.4027 27.0827C84.3606 28.1616 84.3404 29.3816 83.3523 30.4201C83.2717 30.5109 83.191 30.5915 83.1104 30.6823C82.7171 31.0957 82.3138 31.5292 81.8399 31.9124C81.6181 32.104 80.2569 33.4954 79.5209 34.2415C79.2587 34.5037 79.0369 34.7356 78.8756 34.8969C78.7748 34.9977 78.6941 35.0885 78.6034 35.159L77.7161 36.0564C77.0103 36.7723 76.3347 37.4579 75.6491 38.1334C75.8508 38.6477 76.0222 39.172 76.1734 39.7064C76.8086 41.9145 76.244 43.8907 74.5702 45.4132C74.2678 45.6955 73.9149 45.998 73.5418 46.3005C74.298 47.1474 74.6812 48.1053 74.7013 49.1337C74.7215 49.1539 74.7417 49.1741 74.7719 49.1942C75.881 50.2025 76.3851 51.4729 76.2137 52.8644C76.2137 52.8946 76.2137 52.9148 76.2137 52.9148C76.2137 52.9148 76.2238 52.945 76.2742 53.0156C77.4136 54.5885 77.3833 56.2824 76.1835 57.7948C76.4557 58.7426 76.1028 59.7005 75.2155 60.3458C73.0074 61.9389 70.8094 63.1488 68.5508 64.0159C69.0751 65.9619 69.3776 67.6457 69.5087 68.4523C70.8598 69.5009 71.8882 70.9428 72.4226 72.5661L76.7784 85.7241L76.123 86.2081C76.002 86.2988 73.1687 88.3557 68.0467 90.4227C63.5296 92.2477 56.3305 94.4255 47.2964 94.6171V94.6272L46.1469 94.6675ZM21.6055 69.1077L21.3635 69.6522C21.4643 69.5312 21.5752 69.4203 21.6861 69.3094C21.666 69.2388 21.6357 69.1682 21.6055 69.1077Z" fill="#AAAAAA"/>
<path d="M46.1459 93.5478C64.2949 93.4873 75.4363 85.3404 75.4363 85.3404L71.3427 72.9588C70.2841 69.7626 67.229 67.6654 63.8714 67.8368L46.0552 68.714L28.2389 67.8368C24.8813 67.6754 21.8162 69.7727 20.7676 72.9588L16.6538 85.3304C16.6538 85.3304 27.7953 93.4772 45.9443 93.5377C45.9745 93.5377 46.0148 93.5377 46.0451 93.5377C46.0753 93.5478 46.1157 93.5478 46.1459 93.5478Z" fill="#AAAAAA"/>
<path d="M30.0538 60.949C30.7193 60.6566 31.7477 60.1927 32.9778 59.8499L35.075 54.8086V57.4502C36.6278 55.958 37.3134 52.5702 37.3134 52.5702C37.747 55.4034 36.8294 58.2266 36.3959 59.3458C39.2896 59.3458 42.5464 60.5557 45.1275 64.8611C45.9442 66.2222 46.4685 67.3717 46.7811 68.3497H66.0594C63.7 56.7646 59.1023 55.8471 56.7026 48.0632C56.2186 48.6782 55.8859 49.0614 55.8354 49.1118L54.3634 50.725L54.1415 48.6177C53.7382 49.011 53.1736 49.7369 52.609 50.604C52.246 51.1485 51.883 51.7434 51.5503 52.3484L51.52 52.3988L51.1167 53.1348L50.3 52.7718C49.8362 52.5601 49.0598 52.1568 48.1524 51.6829C48.0515 51.6325 47.9507 51.572 47.8499 51.5216C46.771 50.9469 44.9057 49.9688 43.5647 49.3639C43.6454 49.4546 43.7059 49.5353 43.7563 49.5857L44.6738 50.5032L46.2971 52.1265L42.8186 51.2292C39.088 50.2612 35.68 48.5774 33.8046 47.559V52.2475L31.9695 48.9505C31.8183 48.6782 31.4654 48.285 31.052 47.8414C30.2756 46.9843 29.2068 45.8046 28.2187 44.0603C26.6761 45.6736 25.2342 48.6278 24.0848 52.6105C23.7823 53.6591 23.5504 54.6472 23.379 55.5849C23.379 55.5849 22.2094 60.0012 22.4917 62.7941C22.4917 62.7941 22.895 62.3605 22.9555 62.7034C22.9454 63.6612 23.0261 64.7602 23.3286 65.8693L23.8529 63.9536C26.3635 69.8722 33.7844 69.9125 36.5673 69.6806C35.8816 68.5816 35.6094 67.6842 35.6094 67.6842C35.6094 67.6842 42.5968 72.1509 43.7059 71.8787C44.8251 71.5963 44.8251 69.3681 42.5867 64.0544C40.4088 58.7509 30.205 60.9187 30.0538 60.949Z" fill="#AAAAAA"/>
<path d="M40.9491 18.7331C40.9491 18.7331 40.9491 17.9466 40.6567 17.5534C40.6567 17.5534 43.3085 17.9466 46.2628 20.306C46.2628 20.306 42.4313 15.9805 39.1847 16.7669C39.1847 16.7669 39.4771 16.7669 39.7795 17.5534C39.7795 17.5534 36.2405 16.7669 35.6557 19.9128C35.6859 19.8422 37.7428 16.7972 40.9491 18.7331ZM36.8253 33.6052C36.8253 33.6052 36.0993 34.2 35.7363 34.7949C35.7363 34.7949 35.0104 33.0204 34.6373 30.6509C34.6373 30.6509 33.9114 33.9076 36.0993 37.1644L36.4623 35.6822C36.4623 35.6822 37.9243 39.2414 40.1123 40.4211C40.0619 40.3404 36.8253 35.3696 36.8253 33.6052ZM34.1937 16.4745L32.278 15.9906C32.2376 15.9805 32.1973 15.9704 32.157 15.9603C35.1717 11.8062 38.3881 11.8869 38.4284 11.8869L38.8519 11.907L39.1544 11.6045C39.9409 10.8181 40.082 10.0316 40.0619 9.51741C40.0619 9.44683 40.0518 9.37625 40.0417 9.30567C43.1774 9.54766 47.3315 11.0802 47.3315 11.0802C47.3315 11.0802 46.4543 9.22501 46.3838 8.92253C51.9898 10.0518 56.285 13.1775 58.6141 16.5854C59.5518 17.9567 60.1367 19.3985 60.4694 20.7597C59.9955 19.8422 59.2494 19.7413 59.2494 19.7413C59.3401 19.0255 59.5014 19.0154 59.5014 19.0154C57.6664 18.481 55.9321 22.5242 55.9321 22.5242C57.3437 20.2757 58.5234 20.0237 58.5234 20.0237C58.3923 20.3866 58.7049 20.8605 58.7049 20.8605C60.4795 19.7514 60.7618 23.9358 60.7618 23.9358C60.8021 23.6232 60.8324 23.3308 60.8424 23.0586C61.0643 25.6095 60.5904 27.495 60.5803 27.5353L60.5097 27.8277L60.6105 28.11C61.7297 31.2458 60.913 32.9901 59.9753 35.0167C59.3603 36.3477 58.715 37.7189 58.5537 39.5439C58.3016 42.3066 56.4665 45.1398 55.3171 46.6623C55.1255 46.5212 54.9339 46.4405 54.7424 46.4103C54.6617 46.3901 54.571 46.38 54.4802 46.38C53.4014 46.38 52.0704 47.6706 50.5177 50.2317C50.4471 50.3526 50.3664 50.4736 50.2959 50.5946C49.8926 50.393 49.3985 50.1308 48.8742 49.8485C48.8339 49.8283 48.8036 49.8082 48.7633 49.788C44.6999 47.6404 43.0161 46.864 42.0885 46.864C41.7759 46.864 41.5541 46.9447 41.3424 47.0959C40.9895 47.348 40.8181 47.7715 40.8987 48.2151C40.9088 48.2958 40.929 48.3764 40.9491 48.447C40.9592 48.4974 40.9693 48.5478 40.9794 48.5982C36.7749 47.1362 33.377 45.0289 33.3366 45.0088L31.8444 44.0711V45.765C31.1991 45.0189 30.4832 44.1013 29.8077 42.8712C29.5153 42.3368 29.233 41.752 28.9708 41.0967C28.144 39.0599 27.5088 36.3779 27.3777 32.7481C26.9946 22.3225 32.5804 17.7349 32.6309 17.6845L34.1937 16.4745ZM38.5494 22.625C39.7392 27.9286 42.9657 29.2091 45.9099 29.3906C46.4342 29.2998 47.4727 29.2595 47.2408 30.6812C46.7971 33.3329 47.0391 35.9847 48.2289 38.455C49.4691 41.0362 52.1914 42.0646 54.4298 40.048C55.7506 38.6264 56.0632 36.9426 55.7506 35.0873C55.6801 34.6941 55.4381 34.1295 55.7607 33.9076C56.2447 33.5648 56.4262 34.3714 56.9606 34.4521C57.5958 32.5364 57.747 30.5904 57.132 28.6444C56.9202 27.9891 57.0312 27.8681 57.6462 27.4748C59.1284 26.517 59.3603 24.9844 59.2998 23.9358L59.9451 24.8029C59.5418 22.7763 58.9267 22.5847 58.7049 22.5847C58.6545 22.5847 58.6242 22.5948 58.6242 22.5948C58.473 22.625 58.2915 22.7158 58.0898 22.8569C57.616 23.1796 55.6599 25.3272 55.307 25.4885C55.0751 24.7323 55.4582 22.8065 55.065 22.8973C54.8029 23.3611 54.1072 24.8029 53.6433 24.9037C51.5764 25.3373 49.1263 21.768 48.5818 21.3243C48.4003 21.8789 49.4892 23.1392 49.6102 23.5325C49.8522 24.3088 49.9934 25.2768 49.2372 25.6801C48.723 25.9624 47.0492 24.0971 46.6257 23.7745C44.7705 22.3326 42.7237 21.3647 40.4349 20.9714C40.4349 20.9714 37.6823 20.2959 37.4403 21.5462C37.1883 22.7964 37.4403 24.5508 37.4403 24.5508C37.4403 24.5508 37.6218 22.9678 38.5494 22.625Z" fill="#AAAAAA"/>
<path d="M40.6491 22.9365C40.2055 22.8054 39.9635 23.0272 39.9937 23.4305C40.4273 27.8064 44.6117 28.7441 46.1846 28.5727C47.4348 28.4316 47.7373 27.7359 47.0013 26.7074C46.6786 26.2436 45.7308 25.5781 44.652 24.9328C44.5814 25.7092 44.3193 26.5965 43.6538 27.4939C43.6538 27.4939 43.0387 28.1089 43.0387 26.2537C43.0387 26.2537 44.4402 25.3362 43.1194 25.1748C42.5346 25.1043 42.6959 24.5799 43.0488 24.0254C42.0204 23.491 41.0827 23.0675 40.6491 22.9365Z" fill="#AAAAAA"/>
<path d="M50.0149 28.4522C46.7682 30.6099 47.8269 33.6347 48.4117 36.5789C48.7142 38.3232 49.4099 40.0877 51.3257 40.1885C53.6951 40.3196 55.51 37.5771 54.2698 35.5908C53.9069 36.0848 53.2011 37.0528 53.2011 37.0528C51.4467 38.5753 49.7729 33.6045 49.7023 31.5274C49.6822 30.983 53.443 29.0672 55.5604 31.5678C55.8528 31.9509 56.1452 32.3341 56.4981 32.7979C57.0829 30.0453 56.1956 27.4742 54.2799 26.3046C51.6886 25.0543 49.7326 28.0287 50.0149 28.4522Z" fill="#AAAAAA"/>
<path d="M51.9008 31.8807C51.689 33.4032 52.0016 34.8148 52.546 36.2466C53.2821 35.934 53.3224 35.4601 53.1409 34.8854C52.8284 33.9175 53.3728 31.2354 52.7981 31.1245C52.2839 31.0136 51.9814 31.2959 51.9008 31.8807Z" fill="#AAAAAA"/>
<path d="M56.2355 25.8919C56.0541 26.0935 55.8222 26.2851 56.0742 26.6279C56.3162 26.9506 56.5481 27.1421 56.9917 27.0716C58.2521 26.88 58.8268 25.6499 58.3227 23.9963C57.8488 24.2685 57.4656 24.5811 57.1228 24.9239C57.2136 25.3373 57.2539 26.0532 56.7195 26.759C56.7195 26.759 56.4473 27.0312 56.4473 26.2044C56.4473 26.2044 57.0724 25.8011 56.4876 25.7205C56.4473 25.7205 56.417 25.7104 56.3969 25.6902C56.3465 25.7608 56.286 25.8213 56.2355 25.8919Z" fill="#AAAAAA"/>
<path d="M58.2539 45.8349L60.3007 45.4315L62.1761 43.4957C62.2064 43.4654 62.2366 43.4352 62.2568 43.4049L65.6849 39.8759C67.0057 38.5954 68.4274 37.3956 69.6172 35.9638C70.1617 35.3084 73.5898 32.0618 74.6787 31.0334C76.5844 29.2285 81.0107 25.1047 80.7082 24.5905C80.6477 24.4896 80.4662 24.288 80.2142 24.0359L58.7278 45.0081C58.5665 45.3106 58.4152 45.5828 58.2539 45.8349Z" fill="#AAAAAA"/>
<path d="M59.1001 46.6622C58.9085 46.7126 58.717 46.763 58.5254 46.8134C60.0176 50.2214 62.4476 53.4882 64.6053 57.3903C64.323 55.777 63.587 54.194 62.3871 52.6413C61.8326 51.9254 61.278 51.2196 60.7335 50.5037L62.7803 49.8584C62.9417 49.808 63.103 49.7576 63.2643 49.7072H63.2744C63.6475 49.5761 63.9903 49.4148 64.2625 49.1728C64.5347 48.9308 64.7364 48.5981 64.8271 48.1242C64.9078 47.6503 64.7162 46.2387 64.5146 46.0875C64.323 46.0774 62.5484 46.1681 61.0562 46.3294C61.0562 46.3294 60.8243 46.3597 60.4613 46.4101C60.1084 46.4605 59.6244 46.5412 59.1404 46.6622C59.1203 46.6723 59.09 46.6823 59.0799 46.6924L59.1001 46.6622Z" fill="#AAAAAA"/>
<path d="M59.2925 43.9197L79.9319 23.7743C79.1354 22.9879 77.9758 21.909 77.5927 21.4755C77.1894 21.0117 76.9676 21.0318 76.534 21.4654C73.7512 24.2583 70.9582 27.0411 68.1653 29.824C68.5585 30.7214 69.0627 32.0523 68.8812 32.5867C68.6493 33.2824 62.1661 39.8463 60.0487 41.9737C59.847 42.6493 59.5849 43.3047 59.2925 43.9197Z" fill="#AAAAAA"/>
<path d="M76.2218 21.7877L77.1393 22.6749C77.9056 23.4211 77.9157 24.6411 77.1595 25.3973L58.9399 43.5362L60.8859 36.4379L71.8761 24.9234L76.2218 21.7877Z" fill="#AAAAAA"/>
<path d="M60.2993 41.0556L68.0429 32.3139L67.3976 30.5897C66.47 31.5073 65.5524 32.4248 64.6248 33.3423C64.5038 33.4633 64.3828 33.5843 64.2618 33.7053C63.8283 34.1288 61.1564 37.204 61.1564 37.204C60.8438 37.9703 60.6018 38.7769 60.5211 39.7046C60.4808 40.1684 60.4001 40.612 60.2993 41.0556Z" fill="#AAAAAA"/>
<path d="M62.2756 44.9586C62.1748 45.2913 62.4268 45.1401 62.5781 45.1098C63.1125 45.009 63.6469 44.9183 64.1812 44.8275C64.8971 44.7065 65.4113 44.8678 65.6432 45.6543C65.8751 46.4307 66.0869 47.197 66.097 48.0943C66.5809 47.8523 67.8514 47.1365 67.7102 46.8138C67.5287 46.3903 67.3674 45.9568 67.1557 45.5434C66.8834 45.009 66.7221 44.4847 67.1859 43.7386C66.712 43.9201 66.4297 44.0209 66.1474 44.1217C66.1978 43.7789 66.47 43.5873 66.6918 43.3655C70.856 39.2013 75.0303 35.0472 79.1743 30.873C79.6684 30.3789 81.453 28.7959 80.7573 28.1204C79.9406 27.3238 79.9406 27.3238 79.1541 28.1103C73.659 33.5751 68.1639 39.0501 62.6789 44.515C62.5277 44.6561 62.326 44.7872 62.2756 44.9586Z" fill="#AAAAAA"/>
<path d="M64.3742 50.4227C63.5978 50.7151 63.4264 51.0377 63.8902 51.8343C65.0498 53.8307 66.1589 55.8674 67.1873 57.9444C67.5805 58.751 68.1653 57.8638 68.488 58.2973C67.1974 59.3661 66.8848 59.3459 66.0984 57.9444C66.0984 58.741 66.0984 59.3762 66.0984 60.0013C66.0782 60.0719 66.058 60.1525 66.048 60.2231C66.2496 60.6869 66.4311 61.1507 66.6025 61.6246C66.7538 61.5742 66.8848 61.4734 67.026 61.423C68.8812 60.7071 70.6558 59.8198 72.3497 58.7611C72.5816 58.62 72.8841 58.5292 73.0454 58.0553C72.017 58.3881 71.0692 58.5998 70.0811 58.5595C69.1333 57.9343 68.3367 57.1983 68.2964 55.9581C68.2863 55.575 67.9939 55.4036 67.762 55.212C66.9756 54.5768 67.0462 53.4878 66.5823 52.8224C66.0984 52.1267 65.1607 51.6931 65.0195 50.6949C64.9288 50.1706 64.7473 50.2815 64.3742 50.4227Z" fill="#AAAAAA"/>
<path d="M70.4959 47.3372C70.3043 47.196 65.8074 49.0714 66.2006 50.6342C66.3922 51.3904 66.8862 51.6324 67.592 51.6425C68.9028 51.6526 70.0422 51.1485 71.1008 50.4124C71.6756 49.9184 71.8772 48.9907 71.6252 48.5168C71.3529 48.0329 70.9395 47.6598 70.4959 47.3372Z" fill="#AAAAAA"/>
<path d="M68.8304 52.3077C68.8304 52.3077 67.56 52.8724 67.9733 53.6891C68.296 54.3041 68.7699 54.7881 69.5261 54.7175C70.8369 54.5965 72.0367 54.163 72.9946 53.2152C73.0349 53.2051 73.4685 52.2775 73.2365 51.8137C72.9845 51.2894 72.5207 50.9466 71.9863 50.8558C71.6636 50.7853 68.8909 52.2775 68.8304 52.3077Z" fill="#AAAAAA"/>
<path d="M69.163 42.2152C68.8908 42.558 68.2858 42.9311 68.5177 43.2739C69.4453 44.5947 73.0751 43.2033 71.4316 40.8238C71.119 40.36 70.8367 40.4104 70.5947 40.7935C70.1208 41.2775 69.6369 41.7413 69.163 42.2152Z" fill="#AAAAAA"/>
<path d="M73.4901 54.2743C72.9557 53.871 69.4065 55.3935 69.4872 56.0892C69.5679 56.7949 69.9409 57.289 70.6568 57.3495C71.7256 57.4402 72.6733 57.0672 73.5203 56.4219C74.1958 56.0589 74.0244 54.6776 73.4901 54.2743Z" fill="#AAAAAA"/>
<path d="M67.3863 30.2273C67.3863 30.2273 67.83 31.9515 67.7594 32.1733C67.6888 32.3951 59.6831 41.147 59.6831 41.147L60.883 36.4383L67.3863 30.2273Z" fill="#AAAAAA"/>
<path d="M78.1461 28.5031C78.1461 28.5031 79.114 28.8762 78.8216 29.7736C78.5192 30.6709 64.8369 43.829 64.8369 43.829C64.8369 43.829 65.2805 44.3533 66.1779 44.5751C67.0752 44.7969 67.902 44.2726 67.902 44.2726L68.3457 46.8941L66.0266 48.7594L65.4317 48.457L64.8369 45.0893L61.8423 45.533V44.6558L78.1461 28.5031Z" fill="#AAAAAA"/>
<path d="M31.4638 60.7172C31.4638 60.7172 34.1861 55.7968 33.2182 53.3971C32.2502 51.0075 29.2557 47.6399 27.7634 47.8617L29.1851 47.2668C29.1851 47.2668 27.8441 45.9964 27.0879 47.7104C26.3417 49.4346 24.6982 53.3165 24.6982 53.3165V49.3539L27.6928 43.0724L29.0338 43.516L31.2722 46.3594L32.4721 47.3273L33.44 46.3594L37.7756 48.749L42.4842 49.4951C42.4842 49.4951 42.6355 48.0734 43.2304 48.0734C43.8253 48.0734 50.2581 51.6629 50.2581 51.6629L53.2526 48.0734H54.8256L57.2958 47.3273L59.6854 52.7821C59.6854 52.7821 57.0337 51.4713 56.4287 50.2816C56.4287 50.2816 54.1903 51.7738 53.4341 53.7904V51.1688C53.4341 51.1688 51.6394 53.2661 51.3369 54.8289C51.3369 54.8289 48.2012 52.2074 47.3038 51.8343L48.6448 54.0021C48.6448 54.0021 46.6988 54.0727 43.4824 52.5098L44.2286 53.256C44.2286 53.256 39.8224 53.1854 38.7738 51.6831C38.7738 51.6831 39.1468 54.5264 38.3301 57.1378L38.1083 55.938C38.1083 55.938 38.0377 58.0352 36.9891 59.6787L35.9405 59.5275L33.7022 59.7493L31.7562 60.4248L31.4638 60.7172Z" fill="#AAAAAA"/>
<path d="M38.229 60.7265C38.229 60.7265 40.9312 61.7952 41.6067 64.6083L41.8588 64.1949L44.813 70.295L43.3712 63.6101L41.516 61.6339L38.229 60.7265Z" fill="#AAAAAA"/>
<path d="M62.1548 57.9438C62.1548 57.9438 63.4252 60.7972 63.274 64.0136L62.1548 62.8138C62.1548 62.8138 63.7983 66.1008 63.647 69.3172L67.0147 68.4904L65.22 61.6139L62.1548 57.9438Z" fill="#AAAAAA"/>
<path d="M22.6514 59.4472L22.9136 61.1814L23.4379 60.7377C23.4379 60.7377 23.5085 64.4785 25.9082 65.8195C28.3079 67.1605 30.2438 68.2091 32.7846 68.5116L32.1091 67.3924L36.4447 68.814L37.5638 70.0139L30.9899 70.6088L24.0328 67.1L23.206 66.7975L21.5625 62.7644L22.6514 59.4472Z" fill="#AAAAAA"/>
<path d="M68.9532 47.7912C68.9532 47.7912 69.9212 47.3475 70.2237 48.013C70.5261 48.6885 69.5481 49.6565 69.5481 49.6565L70.3749 49.1322C70.3749 49.1322 70.1531 49.959 68.6507 50.6244C67.1585 51.3 66.2611 50.322 66.4124 49.5758C66.5636 48.8297 65.7368 49.5052 65.7368 49.5052L65.8881 50.9975L66.4829 51.7436L67.7534 51.9654L69.4775 51.4411L71.5748 50.4732L72.0184 48.6079L71.4941 47.4887L70.6673 46.8131L69.1751 47.1156L68.9532 47.7912Z" fill="#AAAAAA"/>
<path d="M70.6729 50.9368C70.6729 50.9368 71.6409 50.4932 71.9434 51.1586C72.2459 51.8342 71.2678 52.8021 71.2678 52.8021L72.0946 52.2778C72.0946 52.2778 71.8728 53.1046 70.3705 53.77C68.8782 54.4456 67.9808 53.4676 68.1321 52.7214C68.2833 51.9753 67.4565 52.6509 67.4565 52.6509L67.6078 54.1431L68.2027 54.8892L69.4731 55.111L71.1972 54.5867L73.2945 53.6188L73.7381 51.7535L73.2138 50.6343L72.387 49.9588L71.3384 50.4024L70.6729 50.9368Z" fill="#AAAAAA"/>
<path d="M72.4698 53.7694C72.4698 53.7694 73.4378 53.3257 73.7403 53.9912C74.0427 54.6667 73.0647 55.6347 73.0647 55.6347L73.8915 55.1104C73.8915 55.1104 73.6697 55.9372 72.1673 56.6026C70.665 57.2681 69.7777 56.3001 69.929 55.554C70.0802 54.8079 69.2534 55.4834 69.2534 55.4834L69.4047 56.9757L69.9995 57.7218L71.27 57.9436L72.9941 57.4193L75.0913 56.4514L75.535 54.5861L75.0107 53.4669L74.1839 52.7913L73.1353 53.235L72.4698 53.7694Z" fill="#AAAAAA"/>
<path d="M63.72 45.5528C63.72 45.5528 64.1636 46.4502 63.72 47.5694C63.2763 48.6886 61.8547 48.9104 61.8547 48.9104H63.1957L59.9087 49.959L64.5468 57.9547L65.0711 56.3817L63.6494 52.5705L62.8226 51.1488L63.72 50.322L64.8392 49.2734L65.3635 47.1056L64.5367 45.8352L63.72 45.5528Z" fill="#AAAAAA"/>
<path d="M37.705 22.1513L36.8076 23.4923C36.8076 23.4923 35.9103 20.4978 37.2513 20.2759C38.5923 20.0541 40.387 20.2759 40.387 20.2759L40.014 19.6004C40.014 19.6004 42.6355 20.2759 44.279 21.5464L43.9765 20.8002C43.9765 20.8002 46.3661 22.3732 47.7878 24.0166C49.2094 25.6601 48.7557 23.573 48.7557 23.573L49.1288 23.7242C49.1288 23.7242 48.6045 22.6756 47.1828 21.254L47.7777 21.1834L46.7291 18.7131C46.7291 18.7131 48.8969 21.8488 50.2379 21.7077C51.5789 21.5665 51.6596 20.286 51.6596 20.286C51.6596 20.286 51.3571 22.9075 52.4863 23.1294C53.6055 23.3512 54.6541 20.4373 54.6541 20.4373C54.6541 20.4373 54.5029 22.6051 55.854 21.4859C55.854 21.4859 55.0272 25.4484 55.854 24.551C56.6808 23.6537 56.9732 22.9075 56.9732 22.9075V23.3512C56.9732 23.3512 57.8 21.9295 58.6167 21.8589L58.3949 22.1614C58.3949 22.1614 60.0383 21.7178 60.1896 24.9241L59.6653 24.178L58.8385 23.4318L55.4003 25.8215L54.2004 25.519L50.984 25.2165L49.1893 27.0818L44.6319 24.0166L42.5346 23.0487L39.772 22.4538L37.705 22.1513Z" fill="#AAAAAA"/>
<path d="M56.319 28.5023C56.319 28.5023 53.9293 24.9129 51.2372 27.5344C51.2372 27.5344 50.1181 28.6536 52.064 28.956C52.064 28.956 48.041 29.0266 47.7688 33.4429C47.4965 37.849 51.9128 40.9142 53.2538 39.795V40.3899L52.0539 40.6924L50.6323 40.3899L49.5131 39.8656L48.404 38.0003L47.436 34.6326V31.3457L47.9603 28.8048L51.7313 25.2859L53.5664 25.296L55.2098 26.4152L56.319 28.5023Z" fill="#AAAAAA"/>
<path d="M68.6587 42.2551C68.6587 42.2551 69.7073 42.3257 69.6266 42.9307L69.7779 42.5576C69.7779 42.5576 70.0804 43.3844 69.6266 43.8986L69.9997 44.0499L70.8265 43.6768L71.7238 43.0013L72.0263 42.1039L71.4315 40.0873L70.7559 40.3092L68.6587 42.2551Z" fill="#AAAAAA"/>
<path d="M34.5614 31.2245C34.5614 31.2245 33.5229 36.0541 35.0958 38.2925L35.3983 37.3246C35.3983 37.3246 37.2737 39.8654 39.8851 40.2788L36.8905 35.5298L35.3176 35.2274L35.0958 34.2594L34.5614 31.2245Z" fill="#AAAAAA"/>
<path d="M52.2857 30.9725C52.2857 30.9725 51.6101 33.8158 52.9612 36.4272L53.2637 36.276C53.2637 36.276 52.3664 34.7031 52.8201 30.7406L53.2637 30.9624L53.7074 36.0441L53.2637 36.639H52.3664L51.1665 32.374L52.2857 30.9725Z" fill="#AAAAAA"/>
<path d="M44.9556 28.8059C44.9556 28.8059 46.5991 29.1084 46.5285 30.7519C46.4579 32.3953 45.4093 33.817 45.7824 35.6823L46.226 34.6337C46.226 34.6337 46.226 38.9693 48.9181 40.6935C48.9181 40.6935 50.1179 41.6614 52.2051 41.6614L51.9026 42.1857C51.9026 42.1857 53.3948 41.8127 54.0704 40.1692L52.4975 40.391L50.9246 40.5422L49.1298 39.8364L48.1619 37.5577L47.3855 32.3953L47.7888 29.1084L47.0427 28.8059H44.9556Z" fill="#AAAAAA"/>
<path d="M35.7378 19.5292C35.7378 19.5292 35.9899 17.4421 38.0871 16.6959L37.4922 15.9498C37.4922 15.9498 42.4328 14.8911 45.4979 19.5292L41.9084 17.6639L40.638 17.2202L40.4162 17.6639H39.297L37.6535 18.0369L35.7378 19.5292Z" fill="#AAAAAA"/>
<path d="M56.5776 21.3243C56.5776 21.3243 57.8178 17.5936 59.9049 18.2692L60.3486 18.7128L59.9049 19.459L60.3486 19.6102L60.6511 20.5076V20.9512L59.8243 20.4269L59.1487 20.0538L58.9269 19.459L57.8077 20.1345L56.5776 21.3243Z" fill="#AAAAAA"/>
<path d="M39.4292 8.9218C39.4292 8.9218 47.4248 11.3921 48.6247 12.2088L47.7979 9.7385C47.7979 9.7385 54.9768 11.9063 58.2638 14.9009L54.0795 10.041L45.4789 7.65137L44.9546 8.39749L39.4292 8.9218Z" fill="#AAAAAA"/>
<path d="M49.5237 69.3183C49.5237 69.3183 47.9508 66.1019 50.1993 64.6803C50.1993 64.6803 49.9774 65.6482 50.4211 65.8801C50.8647 66.1019 51.016 63.7829 52.5183 63.4098C52.5183 63.4098 52.2158 64.4584 53.94 64.4584C55.6641 64.4584 57.6 65.3558 57.6 65.3558L56.8539 64.156C56.8539 64.156 59.546 64.156 60.2215 65.8801C60.8971 67.6043 61.1895 69.3183 61.1895 69.3183H49.5237Z" fill="#AAAAAA"/>
<path d="M40.1948 44.5035C40.1443 44.4531 40.104 44.4329 40.104 44.4329C40.104 44.4329 40.1343 44.4531 40.1948 44.5035Z" fill="#AAAAAA"/>
<path d="M55.1981 45.8446V45.2497C54.2302 45.0279 52.2036 46.4496 52.2036 46.4496L52.4254 45.3304C51.3768 45.774 49.8039 48.0931 49.8039 48.0931L49.5014 47.0445C48.9065 48.4661 48.0091 48.0931 48.0091 48.0931C44.9238 47.9519 40.8403 44.9977 40.1748 44.5036C40.3462 44.6548 40.6487 45.038 40.0841 45.5522C39.338 46.2278 37.4626 44.2112 37.4626 44.2112L37.765 45.5522C31.9372 43.8281 30.7374 38.5951 30.7374 38.5951L30.2937 40.6923C29.0031 39.4521 28.5696 35.3787 28.4183 32.9891C28.4183 32.9084 28.4082 32.8378 28.4082 32.7673C28.3578 31.6985 28.2973 27.0503 30.6668 23.5012L30.3643 25.9715C30.3643 25.9715 32.6027 18.722 34.4781 17.8952C36.3535 17.0684 33.8025 15.4249 33.8025 15.4249C33.8025 15.4249 35.7485 12.1379 37.6945 11.4624C37.6945 11.4624 34.6999 10.9381 33.5101 12.7328C32.3103 14.5275 31.1205 16.3223 31.1205 16.3223L31.423 17.2902L27.6823 23.4911L26.4824 33.7352H26.795L27.3798 38.0002L29.4266 44.0398L32.1691 46.9739L33.4395 46.0765L37.7751 48.4661L42.1813 49.3635L42.756 48.4863L46.043 49.3937L50.7012 51.1381L53.6958 47.7099L55.6418 47.8309L57.5878 43.5155L55.1981 45.8446Z" fill="#AAAAAA"/>
<path d="M22.2379 52.0565C23.1252 49.0317 24.7485 44.5146 27.3398 42.1955C26.3719 39.9269 25.5955 36.9122 25.4543 32.8287C25.2325 26.6983 26.8962 22.4132 28.5296 19.7211L27.3701 20.4974L29.1749 17.0794C32.3812 11.0196 36.5555 10.092 37.9973 9.96094C38.078 9.82986 38.1183 9.71895 38.1183 9.60804C38.1082 9.35597 37.8965 9.11399 37.836 9.05349L35.9606 7.45033L40.1147 7.74273C40.6188 7.72257 42.4841 8.15612 42.9479 8.18637L41.8792 6.7647L46.8802 7.3495C54.7246 8.26704 57.1848 11.0196 60.2601 15.5266C63.7689 20.6688 62.8614 26.3656 62.569 27.7469C63.2546 29.8038 63.2446 31.3969 62.932 32.7883C64.9788 30.7113 66.9348 28.725 68.8707 26.7588L73.7105 21.9292C73.7609 21.8889 73.8214 21.8384 73.8718 21.7779C73.9525 21.6973 74.023 21.6166 74.1037 21.536L75.606 20.0336C75.8077 19.832 76.0093 19.6404 76.211 19.4387C76.7252 18.9346 77.2999 18.8741 77.8242 19.3782C79.3971 20.9108 80.96 22.4636 82.5026 24.0365C82.9866 24.5305 83.0269 25.1053 82.4926 25.6497C82.1497 25.9925 81.575 26.3555 81.5649 26.7286C81.5549 27.1924 82.2002 27.4848 82.5531 27.878C83.1278 28.5233 83.1278 29.0577 82.5228 29.6929C82.059 30.1769 81.6154 30.681 81.1011 31.0944C80.8087 31.3364 77.8041 34.4217 77.7839 34.4217C77.5722 34.6335 77.3705 34.8351 77.1689 35.0368C76.3017 35.914 75.475 36.7509 74.6381 37.5776C74.3961 37.8196 74.3457 38.0213 74.4768 38.3439C74.7087 38.9086 74.9002 39.4833 75.0716 40.0681C75.5758 41.8427 75.1725 43.3853 73.7911 44.6356C73.3374 45.0389 72.8837 45.4523 72.3997 45.8052C71.9964 46.1077 71.8552 46.2992 72.309 46.7126C73.0753 47.4184 73.5996 48.2855 73.5592 49.3745C73.5491 49.7375 73.781 49.8786 73.9928 50.0702C74.7994 50.7962 75.2027 51.6834 75.0716 52.7724C75.0212 53.1454 75.112 53.4177 75.3338 53.7202C76.1807 54.8898 76.1505 56.0291 75.2632 57.1483C75.0414 57.4306 74.8599 57.6323 75.0313 58.0557C75.2531 58.6204 75.0313 59.1245 74.5171 59.4875C72.2384 61.131 69.7883 62.4821 67.1365 63.3694C68.0641 66.4547 68.4271 69.1569 68.4372 69.2678L68.5279 70.3366H47.1726C47.2835 73.5429 44.299 73.8252 44.299 73.8252C41.4053 73.9462 39.3988 72.8169 38.0578 71.4961C36.8378 71.6272 33.944 71.8893 30.8889 71.8893C29.3463 71.8893 26.261 71.3045 23.9117 68.925V71.1633C22.6009 69.1266 22.127 67.3117 21.9758 66.0413C21.8649 65.7892 20.8465 68.0881 20.8465 68.0881C19.7273 62.5022 21.4515 55.2225 21.4515 55.2225C21.6531 54.2142 21.9052 53.1656 22.2379 52.0565ZM22.9841 62.6737C22.974 63.6315 23.0546 64.7305 23.3571 65.8396L23.8814 63.9239C26.392 69.8425 33.8129 69.8828 36.5958 69.6509C35.9102 68.5519 35.6379 67.6545 35.6379 67.6545C35.6379 67.6545 42.6253 72.1212 43.7344 71.849C44.8536 71.5667 44.8536 69.3384 42.6152 64.0247C40.397 58.7515 30.1932 60.9192 30.042 60.9495C30.7075 60.6571 31.7359 60.1933 32.966 59.8505L35.0632 54.8091V57.4508C36.616 55.9585 37.3016 52.5707 37.3016 52.5707C37.7351 55.404 36.8176 58.2272 36.3841 59.3463C39.2778 59.3463 42.5345 60.5563 45.1157 64.8616C45.9324 66.2228 46.4567 67.3722 46.7693 68.3503H66.0476C63.6882 56.7652 59.0905 55.8476 56.6908 48.0637C56.2068 48.6788 55.8741 49.0619 55.8236 49.1123L54.3516 50.7256L54.1297 48.6183C53.7264 49.0115 53.1618 49.7375 52.5971 50.6046C52.2342 51.149 51.8712 51.7439 51.5385 52.3489L51.5082 52.3993L51.1049 53.1354L50.2882 52.7724C49.8244 52.5606 49.048 52.1573 48.1406 51.6834C48.0397 51.633 47.9389 51.5725 47.8381 51.5221C46.7592 50.9474 44.8939 49.9694 43.5529 49.3644C43.6336 49.4551 43.6941 49.5358 43.7445 49.5862L44.662 50.5038L46.2853 52.1271L42.8068 51.2297C39.0762 50.2618 35.6682 48.5779 33.7928 47.5596V52.2481L31.9577 48.951C31.8065 48.6788 31.4536 48.2855 31.0402 47.8419C30.2638 46.9849 29.195 45.8052 28.2069 44.0609C26.6643 45.6741 25.2224 48.6284 24.073 52.6111C23.7705 53.6597 23.5386 54.6478 23.3672 55.5855C23.3672 55.5855 22.1976 60.0017 22.4799 62.7946C22.5102 62.7644 22.9135 62.3308 22.9841 62.6737ZM28.9934 41.1066C29.2555 41.762 29.5379 42.3468 29.8303 42.8812C30.5058 44.1012 31.2217 45.0288 31.867 45.7749V44.0911L33.3592 45.0288C33.3996 45.049 36.7874 47.1563 41.002 48.6183C40.9919 48.5679 40.9818 48.5174 40.9717 48.467C40.9515 48.3864 40.9314 48.3158 40.9213 48.2351C40.8507 47.7915 41.012 47.368 41.3649 47.1159C41.5666 46.9647 41.7985 46.884 42.1111 46.884C43.0387 46.884 44.7225 47.6604 48.7859 49.808C48.8262 49.8282 48.8665 49.8484 48.8968 49.8685C49.4312 50.1509 49.9151 50.4029 50.3184 50.6147C50.389 50.4836 50.4697 50.3727 50.5403 50.2517C52.093 47.6907 53.4239 46.4001 54.5028 46.4001C54.5935 46.4001 54.6742 46.4101 54.7649 46.4303C54.9464 46.4706 55.1481 46.5412 55.3397 46.6824C56.4891 45.1599 58.3242 42.3266 58.5762 39.5639C58.7376 37.739 59.3829 36.3677 59.9979 35.0368C60.9356 33.0202 61.7523 31.2759 60.6331 28.1301L60.5323 27.8478L60.6029 27.5554C60.6129 27.5251 61.0768 25.6296 60.865 23.0786C60.8549 23.3509 60.8247 23.6433 60.7844 23.9558C60.7844 23.9558 60.502 19.7614 58.7275 20.8806C58.7275 20.8806 58.425 20.4067 58.546 20.0437C58.546 20.0437 57.3764 20.3059 55.9547 22.5442C55.9547 22.5442 57.6889 18.501 59.524 19.0354C59.524 19.0354 59.3627 19.0455 59.2719 19.7614C59.2719 19.7614 60.008 19.8622 60.492 20.7798C60.1491 19.4186 59.5744 17.9767 58.6367 16.6055C56.2975 13.1975 52.0124 10.0719 46.4063 8.94258C46.4668 9.24506 47.3541 11.1003 47.3541 11.1003C47.3541 11.1003 43.2 9.55763 40.0643 9.32573C40.0744 9.39631 40.0743 9.46688 40.0844 9.53746C40.1046 10.0517 39.9634 10.8381 39.177 11.6246L38.8745 11.9271L38.451 11.9069C38.4208 11.9069 35.1943 11.8263 32.1795 15.9804C32.2199 15.9904 32.2602 16.0005 32.3005 16.0106L34.2163 16.4946L32.6736 17.7247C32.6131 17.765 27.0373 22.3527 27.4205 32.7883C27.5314 36.3879 28.1666 39.0699 28.9934 41.1066ZM62.1758 43.4962C62.206 43.466 62.2363 43.4357 62.2665 43.4055L65.6947 39.8765C67.0155 38.596 68.4372 37.3962 69.6269 35.9644C70.1714 35.309 73.5996 32.0624 74.6885 31.0339C76.5941 29.2291 81.0205 25.1053 80.718 24.591C80.6575 24.4902 80.476 24.2886 80.2239 24.0365L58.7376 45.0086C58.5863 45.291 58.425 45.5632 58.2637 45.8153L60.3105 45.412L62.1758 43.4962ZM64.6158 57.3903C64.3335 55.777 63.5975 54.194 62.3976 52.6413C61.843 51.9254 61.2885 51.2196 60.744 50.5038L62.7908 49.8585C62.9522 49.808 63.1135 49.7576 63.2748 49.7072H63.2849C63.6579 49.5761 64.0008 49.4148 64.273 49.1728C64.5452 48.9308 64.7469 48.5981 64.8376 48.1242C64.9183 47.6503 64.7267 46.2387 64.5251 46.0875C64.3335 46.0774 62.5589 46.1682 61.0667 46.3295C61.0667 46.3295 60.8348 46.3597 60.4718 46.4101C60.1189 46.4606 59.6349 46.5412 59.151 46.6622C59.1308 46.6723 59.1005 46.6824 59.0905 46.6925L59.1005 46.6723C58.909 46.7227 58.7174 46.7731 58.5258 46.8235C60.0181 50.2214 62.4581 53.4883 64.6158 57.3903ZM77.5923 21.4755C77.189 21.0117 76.9672 21.0318 76.5336 21.4654C73.7508 24.2583 70.9579 27.0412 68.1649 29.824C68.5582 30.7214 69.0623 32.0523 68.8808 32.5867C68.6489 33.2824 62.1657 39.8463 60.0483 41.9737C59.8366 42.6392 59.5744 43.2845 59.2921 43.9096L79.9315 23.7643C79.135 22.9879 77.9755 21.909 77.5923 21.4755ZM67.3987 30.5903C66.471 31.5078 65.5535 32.4253 64.6259 33.3429C64.5049 33.4639 64.3839 33.5849 64.2629 33.7059C63.8294 34.1293 61.1574 37.2046 61.1574 37.2046C60.8449 37.9709 60.6029 38.7775 60.5222 39.7051C60.4819 40.1588 60.4012 40.6025 60.3004 41.0461L68.0439 32.3044L67.3987 30.5903ZM64.1722 44.8272C64.888 44.7062 65.4023 44.8675 65.6342 45.6539C65.8661 46.4303 66.0778 47.1966 66.0879 48.094C66.5719 47.852 67.8423 47.1361 67.7011 46.8135C67.5196 46.39 67.3583 45.9564 67.1466 45.543C66.8744 45.0086 66.713 44.4843 67.1768 43.7382C66.7029 43.9197 66.4206 44.0205 66.1383 44.1214C66.1887 43.7785 66.461 43.587 66.6828 43.3652C70.847 39.201 75.0212 35.0469 79.1652 30.8726C79.6593 30.3785 81.444 28.7956 80.7482 28.12C79.9315 27.3235 79.9315 27.3235 79.1451 28.1099C73.6601 33.5748 68.1649 39.0497 62.6799 44.5146C62.5388 44.6557 62.327 44.7868 62.2766 44.9582C62.1758 45.291 62.4278 45.1397 62.5791 45.1095C63.1034 45.0187 63.6378 44.928 64.1722 44.8272ZM67.1869 57.9348C67.5801 58.7414 68.1649 57.8541 68.4876 58.2877C67.197 59.3564 66.8844 59.3363 66.098 57.9348C66.098 58.7313 66.098 59.3665 66.098 59.9916C66.0778 60.0622 66.0576 60.1429 66.0476 60.2135C66.2492 60.6773 66.4307 61.1411 66.6021 61.615C66.7534 61.5645 66.8844 61.4637 67.0256 61.4133C68.8808 60.6974 70.6554 59.8101 72.3493 58.7515C72.5812 58.6103 72.8837 58.5196 73.045 58.0457C72.0166 58.3784 71.0688 58.5901 70.0807 58.5498C69.1329 57.9247 68.3363 57.1886 68.296 55.9484C68.2859 55.5653 67.9935 55.3939 67.7616 55.2023C66.9752 54.5671 67.0458 53.4782 66.5819 52.8127C66.098 52.117 65.1603 51.6834 65.0191 50.6852C64.9485 50.1609 64.7671 50.2819 64.394 50.4231C63.6176 50.7155 63.4462 51.0381 63.91 51.8347C65.0494 53.8311 66.1585 55.8678 67.1869 57.9348ZM67.5902 51.6431C68.901 51.6532 70.0403 51.149 71.099 50.413C71.6737 49.919 71.8754 48.9913 71.6233 48.5174C71.3511 48.0335 70.9478 47.6604 70.5042 47.3378C70.3126 47.1966 65.8157 49.072 66.2089 50.6348C66.3904 51.4011 66.8945 51.6431 67.5902 51.6431ZM69.5261 54.7183C70.8369 54.5974 72.0367 54.1638 72.9946 53.216C73.0349 53.2059 73.4685 52.2783 73.2366 51.8145C72.9845 51.2902 72.5207 50.9474 71.9863 50.8566C71.6637 50.7962 68.8909 52.2884 68.8304 52.3187C68.8304 52.3187 67.56 52.8833 67.9734 53.7C68.296 54.305 68.78 54.7889 69.5261 54.7183ZM71.4418 40.8344C71.1293 40.3706 70.847 40.421 70.605 40.8041C70.121 41.278 69.6471 41.7519 69.1631 42.2258C68.8909 42.5686 68.2859 42.9417 68.5178 43.2845C69.4455 44.6053 73.0753 43.2139 71.4418 40.8344ZM73.7911 40.3302C73.5996 39.7656 73.3979 39.201 73.1862 38.596C72.8131 38.7069 71.7141 39.7253 71.9561 40.1185C72.43 40.8747 72.5711 41.7015 72.43 42.5787C71.3209 43.6475 70.1412 44.6457 68.9111 45.5733C68.6086 45.7951 68.5481 46.2186 68.8405 46.3295C69.4455 46.5614 75.3136 44.8877 73.7911 40.3302ZM70.6554 57.35C71.7242 57.4407 72.6719 57.0676 73.5189 56.4223C74.1944 56.0594 74.023 54.678 73.4886 54.2747C72.9543 53.8714 69.4051 55.3939 69.4858 56.0896C69.5664 56.8055 69.9395 57.2895 70.6554 57.35Z" fill="#AAAAAA"/>
<path d="M34.6414 30.6402C34.6414 30.6402 33.9154 33.8969 36.1034 37.1537L36.4664 35.6715C36.4664 35.6715 37.9284 39.2307 40.1163 40.4104C40.0659 40.3297 36.8394 35.3589 36.8394 33.5944C36.8394 33.5944 36.1135 34.1893 35.7505 34.7842C35.7404 34.7842 35.0044 33.0096 34.6414 30.6402Z" fill="#AAAAAA"/>
<path d="M40.4271 20.9711C42.7159 21.3643 44.7627 22.3323 46.6179 23.7741C47.0313 24.0967 48.705 25.9621 49.2293 25.6797C49.9855 25.2663 49.8444 24.3085 49.6024 23.5321C49.4814 23.1389 48.3925 21.8886 48.5739 21.324C49.1184 21.7575 51.5685 25.3369 53.6355 24.9034C54.1094 24.8025 54.795 23.3607 55.0572 22.8969C55.4504 22.8061 55.0773 24.732 55.2992 25.4882C55.6521 25.3268 57.6182 23.1792 58.082 22.8566C58.2937 22.7154 58.4651 22.6247 58.6164 22.5944C58.6164 22.5944 58.6466 22.5843 58.697 22.5843C58.9189 22.5843 59.5238 22.7759 59.9372 24.8025L59.2919 23.9354C59.3524 24.984 59.1205 26.5065 57.6384 27.4745C57.0233 27.8778 56.9124 27.9887 57.1241 28.6441C57.7392 30.59 57.5879 32.5461 56.9527 34.4517C56.4284 34.361 56.2469 33.5645 55.7529 33.9073C55.4403 34.1291 55.6823 34.6937 55.7428 35.087C56.0554 36.9422 55.7428 38.626 54.422 40.0477C52.1735 42.0642 49.4612 41.0257 48.2211 38.4546C47.0313 35.9843 46.7792 33.3326 47.2329 30.6808C47.4749 29.2591 46.4263 29.3095 45.902 29.3902C42.9578 29.2087 39.7314 27.9282 38.5416 22.6247C37.614 22.9776 37.4123 24.5505 37.4123 24.5505C37.4123 24.5505 37.1603 22.7961 37.4123 21.5458C37.6745 20.2955 40.4271 20.9711 40.4271 20.9711ZM46.1843 28.5735C47.4346 28.4323 47.7371 27.7366 47.001 26.7082C46.6784 26.2444 45.7306 25.5789 44.6518 24.9336C44.5812 25.71 44.319 26.5973 43.6536 27.4946C43.6536 27.4946 43.0385 28.1097 43.0385 26.2545C43.0385 26.2545 44.44 25.3369 43.1192 25.1756C42.5344 25.105 42.6957 24.5807 43.0486 24.0262C42.0201 23.4817 41.0825 23.0582 40.6489 22.9271C40.2053 22.7961 39.9633 23.0179 39.9935 23.4212C40.4271 27.8072 44.6114 28.7449 46.1843 28.5735ZM51.3165 40.1888C53.6859 40.3199 55.5008 37.5774 54.2606 35.5911C53.8976 36.0852 53.1919 37.0531 53.1919 37.0531C51.4375 38.5756 49.7637 33.6048 49.6931 31.5277C49.673 30.9833 53.4338 29.0675 55.5512 31.5681C55.8436 31.9512 56.136 32.3344 56.4889 32.7982C57.0737 30.0456 56.1864 27.4745 54.2707 26.3049C51.6895 25.0748 49.7335 28.0492 50.0158 28.4727C46.7691 30.6304 47.8278 33.6552 48.4126 36.5994C48.705 38.3135 49.4108 40.0779 51.3165 40.1888ZM53.1414 34.8752C52.8289 33.9073 53.3733 31.2253 52.7986 31.1144C52.2844 31.0135 51.9819 31.2958 51.9013 31.8806C51.6895 33.4031 52.0021 34.8147 52.5466 36.2465C53.2826 35.9339 53.333 35.4499 53.1414 34.8752ZM56.9931 27.0712C58.2534 26.8796 58.8281 25.6495 58.324 23.9959C57.8501 24.2681 57.4669 24.5807 57.1241 24.9235C57.2149 25.3369 57.2552 26.0528 56.7208 26.7586C56.7208 26.7586 56.4486 27.0308 56.4486 26.204C56.4486 26.204 57.0737 25.8007 56.4889 25.7201C56.4486 25.7201 56.4183 25.71 56.3982 25.6898C56.3377 25.7503 56.2873 25.8108 56.2268 25.8814C56.0453 26.083 55.8134 26.2746 56.0654 26.6174C56.3175 26.9401 56.5494 27.1417 56.9931 27.0712Z" fill="#AAAAAA"/>
<path d="M39.7747 17.553C39.7747 17.553 36.2357 16.7666 35.6509 19.9124C35.7013 19.8418 37.7481 16.7968 40.9544 18.7327C40.9544 18.7327 40.9544 17.9463 40.662 17.553C40.662 17.553 43.3138 17.9463 46.268 20.3056C46.268 20.3056 42.4366 15.9801 39.1899 16.7666C39.1798 16.7666 39.4823 16.7666 39.7747 17.553Z" fill="#AAAAAA"/>
<path d="M61.613 42.5877L78.0076 26.7074C78.2092 26.909 78.2092 27.2518 78.0076 27.4535L61.4819 43.5355C61.3105 43.2229 61.3609 42.8297 61.613 42.5877Z" fill="#AAAAAA"/>
<path d="M34.9424 49.2119C34.9424 49.2119 35.991 51.0066 35.6179 54.0012L35.4667 55.7254L36.4346 52.6602V53.7088C36.4346 53.7088 37.1808 52.0653 37.2614 50.7949C37.2614 50.7949 37.7051 51.0974 37.7857 51.6923C37.7857 51.6923 37.937 50.7243 37.1908 49.595L37.0396 50.2706C37.0396 50.2706 36.7371 49.4438 36.1422 48.9296C36.1422 48.9296 36.3641 49.5245 36.1422 50.7949C36.1422 50.7848 35.7591 49.6555 34.9424 49.2119Z" fill="#AAAAAA"/>
<path d="M25.8691 59.528C25.8691 59.528 25.2439 61.2925 26.9379 62.7847V62.0386C26.9379 62.0386 28.1881 63.43 30.3357 63.7123C30.3357 63.7123 27.3008 62.2201 27.2101 61.111L26.585 61.5748C26.585 61.5748 25.6876 60.5564 25.8691 59.528Z" fill="#AAAAAA"/>
<path d="M50.885 57.8844C50.885 57.8844 50.1389 57.5013 49.1105 57.4307C48.2837 57.2593 47.1141 57.2391 45.9848 57.955L46.9326 58.1667C46.9326 58.1667 45.1177 58.8221 44.6035 60.758C44.5631 60.879 44.5228 61.494 44.543 61.736L45.2185 61.2722C45.2084 61.4738 45.2488 61.7965 45.2488 61.7965C45.3294 62.5124 45.6319 63.8735 46.8015 65.265C46.8015 65.265 46.6805 64.418 47.467 65.3557C47.467 65.3557 46.0453 61.7864 46.9931 61L45.9848 60.7479C45.9848 60.7479 46.7713 59.2052 48.7475 58.7918L48.2131 58.0256C48.2232 58.0256 48.6668 57.6424 50.885 57.8844Z" fill="#AAAAAA"/>
<path d="M57.0713 58.66L57.888 58.0248C57.888 58.0248 56.5269 56.9459 54.5607 57.3795L54.7221 56.462C54.7221 56.462 53.2096 56.4721 52.2417 57.4299C52.2417 57.4299 53.7541 55.494 56.1639 55.8268L55.3875 56.4116C55.3875 56.4116 56.3252 56.4216 57.3536 56.9258C57.7771 57.0669 58.2208 57.3392 58.5837 57.8131C58.6745 57.9038 58.9669 58.4483 59.0475 58.6802L58.2308 58.539C58.2308 58.539 59.1685 60.2733 58.4527 62.8343C58.4426 62.8242 58.2611 58.9827 57.0713 58.66Z" fill="#AAAAAA"/>
<path d="M55.279 28.8055C55.279 28.8055 54.9765 27.4645 53.938 27.3132C52.8995 27.162 52.2945 27.6157 52.5163 28.0593C52.7382 28.503 54.0086 27.9787 55.279 28.8055Z" fill="#AAAAAA"/>
<path d="M50.7117 37.0128C50.7117 37.0128 50.621 38.3841 51.5889 38.8277C52.5468 39.2613 53.2526 38.9991 53.1619 38.505C53.0711 38.011 51.6999 38.1522 50.7117 37.0128Z" fill="#AAAAAA"/>
<path d="M38.3096 18.6825C38.3096 18.6825 39.5094 18.2288 41.1529 19.0455L41.3042 18.7733C41.3042 18.7733 43.0989 19.4085 44.0668 20.1244L41.3747 19.1262L41.1529 19.4892C41.1428 19.4992 39.8018 18.6019 38.3096 18.6825Z" fill="#AAAAAA"/>
<path d="M59.9894 21.9988C59.9894 21.9988 59.6264 20.6577 58.1946 21.3938L58.0636 21.1518C58.0636 21.1518 56.8536 21.9282 56.3999 23.0474C56.3999 23.0474 57.4485 21.8475 57.993 21.4745C58.0736 21.424 58.1846 21.7971 58.1846 21.7971C58.1846 21.7971 59.1626 20.809 59.9894 21.9988Z" fill="#AAAAAA"/>
<path d="M45.397 14.3062C45.397 14.3062 47.1312 16.5244 48.9159 17.4419C50.7005 18.3696 50.7106 15.6775 50.7106 15.6775C50.7106 15.6775 52.7372 17.5528 52.8381 19.0451C52.8381 19.0451 52.7675 17.1798 52.7271 16.8067C52.6767 16.4337 53.8867 17.9461 53.8867 17.9461C53.8867 17.9461 53.9371 14.9817 52.1726 13.8827C52.1726 13.8827 52.0617 14.9817 51.3256 14.6288C50.5896 14.2759 49.1074 13.1063 49.1074 13.1063L49.4502 14.8103C49.4502 14.8103 47.8773 13.5399 46.6674 12.8543C46.6573 12.8543 48.7243 16.0304 45.397 14.3062Z" fill="#AAAAAA"/>
<path d="M52.8789 13.3984C52.8789 13.3984 54.603 15.1226 54.3711 17.8046C54.3711 17.8046 54.966 16.8367 54.593 14.7394C54.603 14.7495 54.4518 15.1226 52.8789 13.3984Z" fill="#AAAAAA"/>
<path d="M37.7876 29.0565C37.7876 29.0565 40.4192 31.0025 42.587 30.9622C44.7548 30.9319 43.0407 34.5012 43.202 35.8826L42.5668 33.745C42.5668 33.745 42.1837 37.8487 43.1214 39.0183C43.1214 39.0183 41.2359 37.9092 40.7822 36.0137L40.762 37.1429C40.762 37.1429 38.9169 35.2474 39.2496 33.3115C39.5823 31.3857 38.5942 30.8311 38.5942 30.8311L39.6428 30.8614L37.7876 29.0565Z" fill="#AAAAAA"/>
<path d="M40.2671 29.8741C40.2671 29.8741 41.7896 30.6605 42.6466 30.5295C43.5037 30.3984 43.7759 31.8806 43.5037 33.4031C43.5037 33.4031 44.5624 30.5093 43.5742 29.9547C42.5861 29.4002 41.9509 30.4791 40.2671 29.8741Z" fill="#AAAAAA"/>
<path d="M30.6081 28.3516C30.6081 28.3516 29.1159 32.5359 30.2351 35.7523L30.6081 32.9897C30.6081 32.9897 30.9106 36.5791 31.5761 37.6983V34.0383C31.5761 34.0383 32.171 37.6983 33.6733 38.5957C33.6733 38.5957 32.2516 34.4113 32.9272 31.568C33.6027 28.7247 33.9758 27.676 33.9758 27.676L32.2516 30.7412L32.7759 27.0812L31.1324 30.7412L30.6081 28.3516Z" fill="#AAAAAA"/>
<path d="M27.5127 51.693C27.5127 51.693 25.3247 54.5061 25.5466 57.2284L26.4742 55.222C26.4742 55.222 25.9196 58.025 26.2423 59.0433L27.059 56.2605C27.059 56.2605 26.7464 59.1945 27.795 60.2432C27.795 60.2432 27.9866 58.6198 29.1764 56.6235C30.3762 54.6271 30.477 52.0157 30.477 52.0157L28.3496 53.9213L29.6099 51.2695L27.4119 53.6491L27.5127 51.693Z" fill="#AAAAAA"/>
<path d="M59.9069 28.8059C59.9069 28.8059 61.1068 31.9416 58.939 35.0875L59.312 33.3633C59.312 33.3633 57.5879 35.3093 57.5879 36.2772C57.5879 36.2772 57.8904 32.839 58.4853 32.2441C59.0801 31.6492 59.312 29.3302 59.312 29.3302L59.6851 30.6006L59.9069 28.8059Z" fill="#AAAAAA"/>
<path d="M34.1157 62.0678C34.1157 62.0678 36.8078 61.4729 38.6731 62.8139C40.5384 64.1549 40.6897 64.9817 40.6897 64.9817L38.4513 63.4895L39.6512 64.9817C39.6512 64.9817 38.0783 63.7113 37.4128 64.1549C36.7473 64.5986 37.4128 65.3548 37.4128 65.3548C37.4128 65.3548 35.8399 64.0138 34.1157 64.3163C34.1157 64.3163 36.2129 62.8946 34.1157 62.0678Z" fill="#AAAAAA"/>
<path d="M29.2775 71.2248C29.5397 72.223 29.8018 73.2111 30.0741 74.1992C29.1666 78.6356 28.2491 83.062 27.3416 87.4984C26.5148 87.206 25.6881 86.8833 24.8814 86.5506C25.3755 84.5038 25.8695 82.4671 26.3636 80.4203C25.5973 80.2186 24.831 80.0069 24.0748 79.775C23.5404 81.6806 22.996 83.5762 22.4616 85.4818C21.6549 85.0987 20.8584 84.7055 20.082 84.282C21.292 80.622 22.512 76.9619 23.7219 73.3119C23.5404 72.6162 23.3489 71.9205 23.1573 71.2248C24.2765 71.2248 25.3957 71.2248 26.5048 71.2248C26.0208 72.9288 25.5368 74.6328 25.0528 76.3368C24.9823 76.5687 24.952 76.6897 24.8814 76.9216C25.6175 77.0728 26.3636 77.214 27.1097 77.3551C27.3618 76.3267 27.6038 75.3083 27.8559 74.2799C28.1079 73.2615 28.3499 72.2432 28.602 71.2147C28.8641 71.2248 29.0053 71.2248 29.2775 71.2248Z" fill="#AAAAAA"/>
<path d="M29.0967 84.8359C29.7924 81.1758 30.4881 77.5259 31.1838 73.8658C30.9217 72.9785 30.6696 72.0812 30.4175 71.1838C31.5468 71.1838 32.6761 71.1838 33.7952 71.1838C33.3919 73.7549 32.9886 76.3159 32.5853 78.887C32.2526 80.9843 31.9299 83.0815 31.5972 85.1787C32.424 85.3602 33.2407 85.5417 34.0675 85.703C34.6825 80.8633 35.2976 76.0235 35.9126 71.1939C36.1849 71.1939 36.326 71.1939 36.6083 71.1939C36.9612 72.3332 37.3242 73.4827 37.6973 74.6119C37.304 78.5543 36.9209 82.4967 36.5277 86.439C35.832 87.4776 35.0959 88.4959 34.3397 89.4941C32.9886 89.1916 31.6476 88.8488 30.3167 88.4758C29.9033 87.2658 29.4899 86.0559 29.0967 84.8359Z" fill="#AAAAAA"/>
<path d="M44.491 71.2044C44.9548 72.4043 45.4287 73.584 45.9228 74.7737C45.9228 80.0873 45.9328 85.401 45.9328 90.7146C45.0556 90.7146 44.1784 90.6944 43.3113 90.6541C43.3617 88.7888 43.4021 86.9235 43.4525 85.0682C42.4845 83.0113 41.5569 80.9343 40.6797 78.8371C40.4579 82.6887 40.226 86.5504 40.0042 90.402C39.1371 90.3113 38.2699 90.1903 37.4028 90.0592C37.8566 84.7758 38.3103 79.4925 38.7539 74.2192C38.4111 73.221 38.0683 72.2127 37.7356 71.2044C37.7456 71.2044 37.7456 71.2044 37.7456 71.2044C38.6027 71.2044 39.4597 71.2044 40.3067 71.2044C40.3268 71.2044 40.347 71.2044 40.3672 71.2044C40.4781 71.5472 40.5285 71.7186 40.6394 72.0615C41.567 74.4612 42.545 76.8306 43.5836 79.1799C43.6138 77.8187 43.6541 76.4475 43.6844 75.0863C43.7146 73.7957 43.7449 72.495 43.7852 71.2044C44.0776 71.2044 44.2188 71.2044 44.491 71.2044Z" fill="#AAAAAA"/>
<path d="M49.6762 90.5831C49.4846 85.4106 49.2829 80.2381 49.0914 75.0657C48.3452 75.0758 47.9823 75.0858 47.2361 75.0858C46.6917 73.7952 46.1573 72.4946 45.6431 71.1838C47.8915 71.1838 50.14 71.1838 52.3884 71.1838C53.0236 72.4341 53.6689 73.6743 54.3445 74.9044C53.4975 74.9346 52.6506 74.9749 51.8137 74.9951C51.6121 75.0052 51.5012 75.0052 51.2995 75.0052C51.4709 77.6771 51.6423 80.339 51.8137 83.0109C51.8339 83.3436 51.844 83.505 51.8641 83.8377C52.0053 85.9954 52.1464 88.1632 52.2775 90.3209C51.4205 90.4419 50.5534 90.5226 49.6762 90.5831Z" fill="#AAAAAA"/>
<path d="M62.2193 75.9336C61.4833 76.0243 60.7472 76.105 60.0112 76.1756C59.9003 75.5605 59.8499 75.248 59.739 74.6329C59.013 74.6833 58.287 74.7338 57.5611 74.7741C57.7325 75.9638 57.9039 77.1435 58.0753 78.3333C58.8416 78.2426 59.6079 78.1518 60.3742 78.0409C60.5758 79.1702 60.7775 80.3095 60.9691 81.4388C60.1725 81.59 59.3861 81.7413 58.5895 81.8723C58.7609 83.0621 58.9323 84.2418 59.1038 85.4316C59.9205 85.2501 60.7271 85.0585 61.5438 84.8568C61.4329 84.2418 61.3825 83.9292 61.2715 83.3142C62.0681 83.1226 62.8545 82.931 63.6511 82.7193C63.7922 83.415 63.8729 83.7679 64.0141 84.4636C63.641 85.6534 63.2478 86.8532 62.8545 88.043C60.9489 88.648 59.0332 89.1521 57.0771 89.5756C56.4822 84.4435 55.8974 79.3113 55.3025 74.1792C54.7581 73.2113 54.2237 72.2332 53.7095 71.2451C55.7563 71.2451 57.793 71.2451 59.8398 71.2451C60.4952 72.2534 61.1606 73.2415 61.8664 74.2094C61.9975 74.885 62.0782 75.2278 62.2193 75.9336Z" fill="#AAAAAA"/>
<path d="M65.7865 86.9737C64.7883 82.5574 63.7901 78.1411 62.7919 73.7249C62.1567 72.8981 61.5517 72.0512 60.9468 71.1941C63.0137 71.1941 65.0706 71.1941 67.1376 71.1941C67.8635 71.9705 68.6097 72.7166 69.386 73.4527C69.7087 74.3299 70.0313 75.2071 70.3439 76.0843C70.1725 76.659 70.0818 76.9615 69.9003 77.5866C70.4347 78.0101 70.7069 78.2016 71.2513 78.5747C71.3723 78.8974 71.4228 79.0486 71.5438 79.3712C71.5438 79.3712 71.5438 79.3712 71.5337 79.3712C72.0378 80.7526 72.5419 82.1339 73.0461 83.5052C72.2697 83.9488 71.4732 84.3723 70.6766 84.7857C70.112 82.9708 69.5474 81.1559 68.9827 79.3511C68.2164 79.5931 67.4502 79.825 66.6839 80.0468C66.7847 80.4299 66.8351 80.6114 66.9359 80.9946C66.9359 80.9946 66.9359 80.9946 66.9259 80.9946C67.3594 82.6481 67.8031 84.3017 68.2366 85.9553C67.43 86.3082 66.6133 86.651 65.7865 86.9737ZM67.2888 73.9165C66.5629 73.9971 65.8369 74.0778 65.111 74.1484C65.3731 75.1365 65.6353 76.1145 65.8974 77.1026C66.6435 76.9615 67.3897 76.8001 68.1358 76.6388C67.8535 75.7213 67.5711 74.8138 67.2888 73.9165Z" fill="#AAAAAA"/>
<path d="M30.6011 73.895C30.4297 73.3102 30.2583 72.7053 30.0869 72.0902C30.2382 72.6549 30.3995 73.2699 30.5911 73.9555C30.6011 73.9354 30.6011 73.9152 30.6011 73.895Z" fill="#AAAAAA"/>
<path d="M65.8184 74.632L66.3023 76.4368C66.6754 76.3662 67.0485 76.2856 67.4215 76.2049L66.8972 74.511C66.5342 74.5614 66.1813 74.6018 65.8184 74.632Z" fill="#AAAAAA"/>
<path d="M38.1909 74.2899C38.0598 73.8967 37.9187 73.5034 37.7876 73.1102C37.9187 73.5236 38.0497 73.937 38.1909 74.3403V74.2899Z" fill="#AAAAAA"/>
<path d="M28.9445 72.1627L27.5329 78.0107L27.0086 77.92C26.2625 77.7889 25.5063 77.6377 24.7703 77.4864L24.1754 77.3654L25.7584 71.7897H23.883C24.004 72.2131 24.125 72.6769 24.256 73.171L24.2964 73.3323L20.7573 84.01C21.201 84.2419 21.6547 84.4637 22.0983 84.6855L23.6914 79.0694L24.2359 79.2307C24.982 79.4526 25.7483 79.6744 26.5045 79.866L27.0389 80.0071L25.5366 86.208C25.9903 86.3895 26.4541 86.571 26.9179 86.7424L29.489 74.2196C29.2873 73.4533 29.1059 72.7778 28.9445 72.1627Z" fill="#AAAAAA"/>
<path d="M37.1198 74.673C36.8677 73.8966 36.6056 73.1001 36.3434 72.243L34.5487 86.369L33.9639 86.248C33.1371 86.0867 32.3002 85.9052 31.4734 85.7237L30.9592 85.6128L33.1371 71.749H31.1508C31.3424 72.4144 31.5239 73.0799 31.7154 73.7151L31.7558 73.8462L31.7356 73.9773C31.05 77.5869 30.3643 81.1965 29.6787 84.8062C30.0114 85.8044 30.3643 86.853 30.7677 88.0125C31.8768 88.325 32.9959 88.6074 34.1252 88.8695C34.7907 87.9822 35.4158 87.0949 36.0006 86.248L37.1198 74.673Z" fill="#AAAAAA"/>
<path d="M44.3297 72.3443L44.0978 81.691L43.0895 79.4123C42.0611 77.1034 41.073 74.6936 40.1353 72.2636L40.1252 72.2334C40.0647 72.0418 40.0244 71.9107 39.974 71.7696H38.522C38.7741 72.5258 39.0363 73.282 39.2883 74.0382L39.3287 74.1491L39.2883 74.5928C38.8648 79.5938 38.4313 84.5949 38.0078 89.5858C38.4918 89.6564 38.9858 89.7169 39.4799 89.7774L40.2664 76.3875L41.2041 78.6158C42.0913 80.7231 43.019 82.8203 43.9667 84.8268L44.0272 84.9478L43.8962 90.1202C44.3902 90.1404 44.8843 90.1505 45.3884 90.1505L45.3783 74.8751C44.9851 73.9777 44.6524 73.1408 44.3297 72.3443Z" fill="#AAAAAA"/>
<path d="M46.4668 71.7487C46.8399 72.6764 47.223 73.6141 47.6062 74.5215C48.1204 74.5215 48.4733 74.5114 49.0782 74.5013L49.6227 74.4913L50.2075 89.9683C50.7016 89.928 51.1956 89.8776 51.6796 89.8271L50.6915 74.461L51.2763 74.4408C51.4779 74.4308 51.5888 74.4308 51.7905 74.4308C52.335 74.4106 52.8794 74.3904 53.4239 74.3703C52.9601 73.5032 52.4963 72.6259 52.0426 71.7387H46.4668V71.7487Z" fill="#AAAAAA"/>
<path d="M60.4742 75.5606C60.8371 75.5203 61.19 75.48 61.553 75.4396L61.3413 74.4213C60.7565 73.6146 60.1616 72.7576 59.5264 71.7897C57.893 71.7897 56.2596 71.7897 54.6362 71.7897C55.0194 72.4955 55.4025 73.2013 55.7857 73.8869L55.8361 73.9877L57.5502 88.88C59.1936 88.5069 60.7867 88.0733 62.4 87.5793C62.8033 86.3794 63.1259 85.3611 63.4284 84.4234L63.2167 83.405C62.7831 83.5159 62.3496 83.6268 61.916 83.7277L62.1882 85.2703L61.6841 85.4014C60.8775 85.6031 60.0507 85.7946 59.234 85.9761L58.6391 86.1072L57.9635 81.4187L58.4979 81.328C59.1029 81.2271 59.7179 81.1162 60.333 80.9952L59.9196 78.6762C59.3348 78.7569 58.7399 78.8274 58.145 78.898L57.6006 78.9585L56.925 74.2599L57.53 74.2196C58.2559 74.1793 58.9819 74.1289 59.7079 74.0785L60.212 74.0381L60.4742 75.5606Z" fill="#AAAAAA"/>
<path d="M70.8285 79.0489L70.7881 78.9279C70.3344 78.6153 70.0521 78.4036 69.558 78.0205L69.2556 77.7885L69.3665 77.4256C69.5278 76.871 69.6185 76.5786 69.7597 76.1047L68.9128 73.7655C68.2372 73.1202 67.5717 72.4648 66.9063 71.749H62.0464C62.4094 72.2632 62.8228 72.8177 63.2462 73.3723L63.3168 73.4731L66.1904 86.2077C66.6542 86.0161 67.118 85.8245 67.5717 85.6229L66.2408 80.6117H66.2509L65.9988 79.6539L66.5231 79.5026C67.2592 79.2909 68.0356 79.059 68.8119 78.817L69.3463 78.6456L71.01 83.9895C71.4637 83.7575 71.9073 83.5055 72.351 83.2635L70.8285 79.0489ZM68.2574 77.1836C67.5113 77.3449 66.755 77.5062 65.9988 77.6474L65.4846 77.7482L64.3957 73.6546L65.0511 73.5941C65.7669 73.5235 66.503 73.4429 67.2188 73.3622L67.6827 73.3118L68.8422 77.0525L68.2574 77.1836Z" fill="#AAAAAA"/>
</svg>
