<svg width="150" height="48" viewBox="0 0 150 48" fill="none" xmlns="http://www.w3.org/2000/svg">
<path d="M27.3487 22.703C26.9697 23.0843 26.6795 23.5445 26.4987 24.0508C26.3179 24.557 26.251 25.097 26.3027 25.632L26.2847 25.614C26.3379 26.2439 26.253 26.8778 26.0359 27.4714C25.8188 28.065 25.4747 28.6042 25.0278 29.0511C24.5808 29.4981 24.0417 29.8421 23.4481 30.0592C22.8544 30.2763 22.2206 30.3612 21.5907 30.308L21.6087 30.326C20.8553 30.2559 20.0986 30.4199 19.4417 30.7956C18.7849 31.1713 18.2599 31.7404 17.9384 32.4253C17.6169 33.1103 17.5144 33.8778 17.6451 34.6231C17.7757 35.3684 18.133 36.0553 18.6683 36.5901C19.2036 37.1249 19.8908 37.4816 20.6362 37.6116C21.3817 37.7415 22.149 37.6384 22.8337 37.3162C23.5184 36.9941 24.0871 36.4686 24.4621 35.8114C24.8372 35.1543 25.0005 34.3974 24.9297 33.644L24.9487 33.662C24.8955 33.0322 24.9805 32.3983 25.1976 31.8047C25.4147 31.211 25.7587 30.6719 26.2056 30.225C26.6526 29.778 27.1917 29.434 27.7853 29.2169C28.379 28.9998 29.0129 28.9149 29.6427 28.968L29.6237 28.95C30.2392 29.0054 30.8586 28.9045 31.4247 28.6567C31.9908 28.4089 32.4851 28.0222 32.8619 27.5324C33.2388 27.0427 33.4859 26.4658 33.5804 25.8551C33.6748 25.2444 33.6136 24.6198 33.4024 24.0391C33.1912 23.4584 32.8369 22.9404 32.3721 22.5331C31.9074 22.1258 31.3474 21.8424 30.744 21.7091C30.1406 21.5759 29.5134 21.5972 28.9204 21.7709C28.3274 21.9446 27.7878 22.2653 27.3517 22.703H27.3487Z" fill="#BCC6C9"/>
<path d="M19.9718 27.968L19.9528 27.95C20.4882 28.004 21.0288 27.9383 21.5356 27.7577C22.0424 27.5771 22.5028 27.2861 22.8834 26.9058C23.264 26.5255 23.5553 26.0654 23.7363 25.5587C23.9173 25.052 23.9834 24.5114 23.9298 23.976L23.9488 23.994C23.8957 23.3642 23.9806 22.7303 24.1977 22.1367C24.4148 21.543 24.7588 21.0039 25.2058 20.557C25.6527 20.11 26.1918 19.766 26.7855 19.5489C27.3791 19.3318 28.013 19.2469 28.6428 19.3L28.6238 19.282C29.3773 19.3528 30.1343 19.1894 30.7915 18.8141C31.4487 18.4389 31.9741 17.87 32.2962 17.1851C32.6182 16.5003 32.7211 15.7327 32.5909 14.9872C32.4606 14.2417 32.1036 13.5545 31.5685 13.0194C31.0333 12.4843 30.3461 12.1272 29.6006 11.997C28.8551 11.8668 28.0876 11.9697 27.4027 12.2917C26.7179 12.6137 26.149 13.1392 25.7737 13.7964C25.3985 14.4536 25.2351 15.2105 25.3058 15.964L25.2878 15.945C25.3412 16.5749 25.2564 17.2089 25.0393 17.8026C24.8223 18.3963 24.4783 18.9355 24.0313 19.3825C23.5843 19.8295 23.0451 20.1735 22.4514 20.3905C21.8577 20.6076 21.2237 20.6924 20.5938 20.639L20.6118 20.658C20.0765 20.6041 19.5359 20.6698 19.0291 20.8504C18.5222 21.031 18.0619 21.322 17.6813 21.7023C17.3007 22.0826 17.0094 22.5427 16.8284 23.0494C16.6474 23.5561 16.5813 24.0967 16.6348 24.632L16.6168 24.614C16.6698 25.2438 16.5848 25.8776 16.3676 26.4712C16.1505 27.0647 15.8064 27.6038 15.3595 28.0507C14.9126 28.4976 14.3736 28.8417 13.78 29.0588C13.1864 29.276 12.5526 29.361 11.9228 29.308L11.9408 29.326C11.1874 29.2553 10.4304 29.4187 9.77318 29.7939C9.11598 30.1692 8.59053 30.7381 8.26852 31.4229C7.9465 32.1078 7.84358 32.8753 7.97381 33.6208C8.10404 34.3663 8.46108 35.0535 8.99621 35.5887C9.53135 36.1238 10.2185 36.4808 10.964 36.6111C11.7095 36.7413 12.4771 36.6384 13.1619 36.3164C13.8468 35.9943 14.4157 35.4689 14.7909 34.8117C15.1662 34.1545 15.3296 33.3975 15.2588 32.644L15.2778 32.662C15.2247 32.0322 15.3096 31.3983 15.5267 30.8047C15.7438 30.211 16.0878 29.6719 16.5348 29.225C16.9817 28.778 17.5208 28.434 18.1145 28.2169C18.7081 27.9998 19.342 27.9149 19.9718 27.968Z" fill="#BCC6C9"/>
<path d="M13.2699 25.961C13.6489 25.5798 13.9391 25.1196 14.1197 24.6133C14.3004 24.107 14.367 23.567 14.3149 23.032L14.3339 23.05C14.2807 22.4199 14.3657 21.7859 14.5829 21.1921C14.8001 20.5983 15.1443 20.0591 15.5915 19.6121C16.0387 19.1651 16.578 18.8211 17.1719 18.6041C17.7658 18.3872 18.3999 18.3025 19.0299 18.356L19.0109 18.338C19.7641 18.4085 20.5208 18.2451 21.1777 17.8698C21.8346 17.4946 22.3597 16.9259 22.6816 16.2412C23.0034 15.5565 23.1062 14.7893 22.976 14.0441C22.8458 13.2988 22.4888 12.6119 21.9539 12.077C21.419 11.542 20.732 11.1851 19.9868 11.0549C19.2416 10.9247 18.4743 11.0275 17.7897 11.3493C17.105 11.6711 16.5363 12.1963 16.1611 12.8532C15.7858 13.5101 15.6223 14.2668 15.6929 15.02L15.6749 15.002C15.7281 15.6318 15.6431 16.2657 15.426 16.8593C15.2089 17.453 14.8649 17.9921 14.418 18.439C13.971 18.886 13.4319 19.23 12.8383 19.4471C12.2446 19.6642 11.6107 19.7491 10.9809 19.696L10.9989 19.714C10.3835 19.6588 9.76406 19.7598 9.19808 20.0078C8.6321 20.2557 8.13786 20.6424 7.76115 21.1322C7.38444 21.622 7.13745 22.199 7.04307 22.8096C6.9487 23.4203 7.00999 24.0448 7.22126 24.6255C7.43254 25.2062 7.78696 25.7241 8.25169 26.1313C8.71642 26.5385 9.27642 26.8218 9.8798 26.955C10.4832 27.0882 11.1104 27.0669 11.7034 26.8931C12.2963 26.7194 12.8358 26.3988 13.2719 25.961H13.2699Z" fill="#BCC6C9"/>
<path d="M44.2471 15.9871H47.2171V30.4401H44.2471V15.9871Z" fill="#BCC6C9"/>
<path d="M48.8986 25.4909C48.8944 24.4523 49.1986 23.4357 49.7726 22.5701C50.3466 21.7045 51.1647 21.0287 52.123 20.6284C53.0814 20.228 54.1371 20.1211 55.1563 20.3212C56.1755 20.5213 57.1124 21.0193 57.8483 21.7523C58.5842 22.4852 59.086 23.4201 59.2902 24.4385C59.4943 25.4569 59.3917 26.513 58.9952 27.473C58.5986 28.433 57.9261 29.2537 57.0628 29.8311C56.1995 30.4086 55.1842 30.7169 54.1456 30.7169C53.4561 30.7248 52.772 30.5951 52.1332 30.3355C51.4945 30.0759 50.9139 29.6916 50.4253 29.2051C49.9368 28.7185 49.5502 28.1394 49.288 27.5017C49.0259 26.864 48.8935 26.1804 48.8986 25.4909ZM56.4226 25.4909C56.4102 25.0432 56.2661 24.6091 56.0083 24.2428C55.7506 23.8766 55.3906 23.5944 54.9733 23.4317C54.5561 23.2689 54.1001 23.2327 53.6624 23.3277C53.2247 23.4227 52.8248 23.6445 52.5125 23.9656C52.2002 24.2866 51.9895 24.6926 51.9067 25.1328C51.8239 25.5729 51.8727 26.0277 52.047 26.4403C52.2212 26.8529 52.5133 27.2049 52.8865 27.4524C53.2598 27.6999 53.6977 27.8319 54.1456 27.8319C54.4523 27.8401 54.7574 27.7846 55.0416 27.669C55.3258 27.5534 55.583 27.3802 55.797 27.1603C56.0109 26.9403 56.1769 26.6784 56.2846 26.3911C56.3923 26.1038 56.4393 25.7973 56.4226 25.4909Z" fill="#BCC6C9"/>
<path d="M71.2296 20.5409V29.9409C71.2296 33.2669 68.6356 34.6729 66.0026 34.6729C65.0756 34.7422 64.1473 34.555 63.3196 34.1316C62.492 33.7083 61.7969 33.0652 61.3106 32.2729L63.8446 30.8079C64.049 31.2209 64.3747 31.5616 64.778 31.7844C65.1814 32.0073 65.6432 32.1016 66.1016 32.0549C66.3946 32.0955 66.693 32.0697 66.9747 31.9794C67.2563 31.8891 67.5141 31.7366 67.7289 31.5332C67.9437 31.3299 68.11 31.0808 68.2156 30.8045C68.3211 30.5282 68.3631 30.2316 68.3386 29.9369V29.0319C67.9908 29.4574 67.5482 29.7955 67.0461 30.019C66.544 30.2425 65.9965 30.3452 65.4476 30.3189C64.1414 30.2777 62.9025 29.7298 61.9931 28.7913C61.0837 27.8528 60.5752 26.5972 60.5752 25.2904C60.5752 23.9835 61.0837 22.7279 61.9931 21.7894C62.9025 20.8509 64.1414 20.303 65.4476 20.2619C65.9965 20.2355 66.544 20.3382 67.0461 20.5617C67.5482 20.7852 67.9908 21.1233 68.3386 21.5489V20.5389L71.2296 20.5409ZM68.3396 25.2919C68.3596 24.8132 68.2358 24.3395 67.9843 23.9318C67.7328 23.5241 67.365 23.201 66.9283 23.004C66.4916 22.8071 66.006 22.7454 65.5339 22.8268C65.0618 22.9082 64.6248 23.129 64.2793 23.4608C63.9338 23.7926 63.6955 24.2203 63.595 24.6887C63.4946 25.1571 63.5366 25.6449 63.7158 26.0892C63.8949 26.5335 64.2029 26.914 64.6001 27.1818C64.9973 27.4496 65.4656 27.5924 65.9446 27.5919C66.2567 27.6136 66.5698 27.5698 66.8639 27.4632C67.158 27.3566 67.4265 27.1896 67.6521 26.9729C67.8777 26.7563 68.0555 26.4947 68.1739 26.2052C68.2923 25.9157 68.3488 25.6045 68.3396 25.2919Z" fill="#BCC6C9"/>
<path d="M72.9123 25.4909C72.9081 24.4523 73.2123 23.4357 73.7863 22.5701C74.3603 21.7045 75.1783 21.0287 76.1367 20.6284C77.0951 20.228 78.1508 20.1211 79.17 20.3212C80.1892 20.5213 81.126 21.0193 81.862 21.7523C82.5979 22.4852 83.0997 23.4201 83.3038 24.4385C83.508 25.4569 83.4053 26.513 83.0088 27.473C82.6123 28.433 81.9398 29.2537 81.0765 29.8311C80.2132 30.4086 79.1979 30.7169 78.1592 30.7169C77.4698 30.7248 76.7857 30.5951 76.1469 30.3355C75.5081 30.0759 74.9275 29.6916 74.439 29.2051C73.9505 28.7185 73.5638 28.1394 73.3017 27.5017C73.0395 26.864 72.9072 26.1804 72.9123 25.4909ZM80.4362 25.4909C80.4239 25.0432 80.2798 24.6091 80.022 24.2428C79.7643 23.8766 79.4042 23.5944 78.987 23.4317C78.5698 23.2689 78.1138 23.2327 77.6761 23.3277C77.2384 23.4227 76.8384 23.6445 76.5262 23.9656C76.2139 24.2866 76.0032 24.6926 75.9204 25.1328C75.8376 25.5729 75.8864 26.0277 76.0606 26.4403C76.2349 26.8529 76.5269 27.2049 76.9002 27.4524C77.2734 27.6999 77.7114 27.8319 78.1592 27.8319C78.466 27.8401 78.7711 27.7846 79.0553 27.669C79.3395 27.5534 79.5967 27.3802 79.8106 27.1603C80.0246 26.9403 80.1906 26.6784 80.2983 26.3911C80.406 26.1038 80.4529 25.7973 80.4362 25.4909Z" fill="#BCC6C9"/>
<path d="M84.791 17.888C84.791 17.5355 84.8955 17.191 85.0913 16.8979C85.2871 16.6049 85.5655 16.3765 85.8911 16.2416C86.2167 16.1067 86.575 16.0714 86.9207 16.1402C87.2663 16.209 87.5839 16.3787 87.8331 16.6279C88.0823 16.8771 88.252 17.1946 88.3208 17.5403C88.3895 17.886 88.3542 18.2443 88.2194 18.5699C88.0845 18.8955 87.8561 19.1738 87.563 19.3696C87.27 19.5654 86.9255 19.67 86.573 19.67C86.1019 19.6653 85.6513 19.476 85.3181 19.1428C84.985 18.8097 84.7957 18.3591 84.791 17.888ZM85.091 20.541H88.062V30.441H85.087L85.091 20.541Z" fill="#BCC6C9"/>
<path d="M100.886 25.4911C100.921 26.1453 100.825 26.8 100.606 27.4173C100.386 28.0346 100.047 28.6024 99.607 29.088C99.1673 29.5737 98.6359 29.9677 98.0433 30.2472C97.4508 30.5268 96.8088 30.6865 96.1544 30.7171C95.604 30.7471 95.0538 30.6543 94.5437 30.4453C94.0337 30.2364 93.5765 29.9166 93.2054 29.5091V34.4001H90.2354V20.5411H93.2054V21.4711C93.5767 21.0638 94.0339 20.7443 94.544 20.5355C95.054 20.3268 95.6041 20.234 96.1544 20.2641C96.8089 20.2945 97.4511 20.4541 98.0437 20.7337C98.6364 21.0133 99.1679 21.4074 99.6077 21.8932C100.048 22.379 100.387 22.9469 100.606 23.5644C100.826 24.1819 100.921 24.8367 100.886 25.4911ZM97.9164 25.4911C97.9047 25.0277 97.7567 24.5781 97.4909 24.1985C97.225 23.8189 96.853 23.5261 96.4216 23.3568C95.9901 23.1876 95.5183 23.1493 95.0652 23.2468C94.6122 23.3444 94.1979 23.5734 93.8743 23.9052C93.5507 24.237 93.3322 24.6569 93.2461 25.1123C93.16 25.5677 93.2101 26.0384 93.3902 26.4655C93.5703 26.8925 93.8723 27.257 94.2585 27.5132C94.6447 27.7695 95.0979 27.9061 95.5613 27.9061C95.8795 27.9202 96.1971 27.867 96.4933 27.7498C96.7894 27.6326 97.0575 27.4542 97.2799 27.2261C97.5022 26.9981 97.6739 26.7256 97.7836 26.4266C97.8933 26.1276 97.9385 25.8088 97.9164 25.4911Z" fill="#BCC6C9"/>
<path d="M110.051 27.4699C110.051 29.7469 108.072 30.7169 105.934 30.7169C105.07 30.7951 104.202 30.6124 103.444 30.1924C102.685 29.7724 102.069 29.1344 101.677 28.3609L104.25 26.8959C104.354 27.2534 104.577 27.5645 104.883 27.777C105.189 27.9896 105.558 28.0909 105.93 28.0639C106.642 28.0639 106.999 27.8459 106.999 27.4509C106.999 26.3609 102.128 26.9359 102.128 23.5109C102.128 21.3519 103.95 20.2639 106.009 20.2639C106.783 20.2394 107.549 20.423 108.228 20.7955C108.907 21.168 109.474 21.7159 109.869 22.3819L107.335 23.7479C107.224 23.4886 107.039 23.2677 106.803 23.1128C106.567 22.9579 106.291 22.8759 106.009 22.8769C105.494 22.8769 105.177 23.0769 105.177 23.4309C105.181 24.5599 110.051 23.8069 110.051 27.4699Z" fill="#BCC6C9"/>
<path d="M120.9 20.541V30.441H117.93V29.51C117.588 29.9208 117.153 30.2445 116.661 30.4545C116.169 30.6645 115.634 30.7548 115.1 30.718C113.1 30.718 111.4 29.293 111.4 26.618V20.541H114.37V26.183C114.346 26.4188 114.372 26.6572 114.449 26.8815C114.526 27.1059 114.65 27.3109 114.814 27.4822C114.978 27.6535 115.177 27.7871 115.398 27.8735C115.619 27.96 115.856 27.9974 116.092 27.983C117.181 27.983 117.933 27.35 117.933 25.944V20.544L120.9 20.541Z" fill="#BCC6C9"/>
<path d="M137.93 24.362V30.44H134.96V24.619C134.96 23.629 134.485 22.996 133.535 22.996C132.545 22.996 131.99 23.689 131.99 24.857V30.44H129.021V24.619C129.021 23.629 128.546 22.996 127.595 22.996C126.605 22.996 126.051 23.689 126.051 24.857V30.44H123.081V20.54H126.051V21.45C126.359 21.0463 126.763 20.7261 127.226 20.5188C127.69 20.3114 128.198 20.2235 128.704 20.263C129.212 20.2382 129.718 20.3454 130.173 20.5743C130.627 20.8032 131.014 21.1459 131.297 21.569C131.626 21.1263 132.062 20.7743 132.564 20.5459C133.066 20.3176 133.618 20.2202 134.168 20.263C136.441 20.264 137.93 21.887 137.93 24.362Z" fill="#BCC6C9"/>
<path d="M140.442 20.48C141.66 20.48 142.646 19.4933 142.646 18.276C142.646 17.0588 141.66 16.072 140.442 16.072C139.225 16.072 138.238 17.0588 138.238 18.276C138.238 19.4933 139.225 20.48 140.442 20.48Z" fill="#BCC6C9"/>
</svg>
