<svg width="150" height="48" viewBox="0 0 150 48" fill="none" xmlns="http://www.w3.org/2000/svg">
<path d="M53.8303 31.2048C53.2355 31.237 52.6472 31.0679 52.1603 30.7248C51.9568 30.5739 51.7931 30.3759 51.6834 30.1476C51.5736 29.9194 51.5211 29.6678 51.5303 29.4148V20.1448C51.5254 20.1055 51.5296 20.0657 51.5424 20.0283C51.5553 19.9909 51.5765 19.9569 51.6045 19.9289C51.6324 19.901 51.6664 19.8798 51.7038 19.8669C51.7412 19.854 51.781 19.8499 51.8203 19.8548H53.5003C53.6903 19.8548 53.7803 19.9548 53.7803 20.1448V28.6948C53.7803 29.0748 53.9503 29.2648 54.3003 29.2648C54.4487 29.2709 54.5971 29.254 54.7403 29.2148C54.9403 29.2148 55.0503 29.2748 55.0603 29.4548L55.2103 30.7048C55.2175 30.7412 55.2168 30.7788 55.2083 30.8149C55.1997 30.8511 55.1836 30.885 55.1608 30.9144C55.1381 30.9437 55.1093 30.9679 55.0764 30.9852C55.0436 31.0025 55.0074 31.0126 54.9703 31.0148C54.6023 31.1363 54.2178 31.2004 53.8303 31.2048Z" fill="#BCC6C9"/>
<path d="M63.2803 30.1347C62.4361 30.8322 61.3753 31.2138 60.2803 31.2138C59.1853 31.2138 58.1244 30.8322 57.2803 30.1347C56.5383 29.3857 56.1221 28.374 56.1221 27.3197C56.1221 26.2654 56.5383 25.2538 57.2803 24.5047C58.1261 23.8109 59.1863 23.4316 60.2803 23.4316C61.3743 23.4316 62.4345 23.8109 63.2803 24.5047C64.0051 25.2607 64.4098 26.2674 64.4098 27.3147C64.4098 28.362 64.0051 29.3688 63.2803 30.1247V30.1347ZM58.8603 28.8147C59.252 29.1696 59.7617 29.3661 60.2903 29.3661C60.8188 29.3661 61.3285 29.1696 61.7203 28.8147C62.0748 28.4071 62.2701 27.885 62.2701 27.3447C62.2701 26.8045 62.0748 26.2824 61.7203 25.8747C61.3285 25.5199 60.8188 25.3233 60.2903 25.3233C59.7617 25.3233 59.252 25.5199 58.8603 25.8747C58.5057 26.2824 58.3105 26.8045 58.3105 27.3447C58.3105 27.885 58.5057 28.4071 58.8603 28.8147Z" fill="#BCC6C9"/>
<path d="M73.6604 23.6846C73.8504 23.6846 73.9404 23.7846 73.9404 23.9746V31.1446C73.9579 31.6286 73.8673 32.1103 73.6753 32.5548C73.4833 32.9994 73.1947 33.3956 72.8304 33.7146C72.0218 34.4041 70.982 34.7614 69.9204 34.7146C68.9616 34.7483 68.0155 34.4865 67.2104 33.9646C66.8666 33.7389 66.5729 33.4448 66.3476 33.1008C66.1222 32.7567 65.97 32.37 65.9004 31.9646C65.9004 31.7646 65.9004 31.6746 66.1704 31.6746H67.8504C67.9218 31.6771 67.9909 31.7001 68.0494 31.7409C68.108 31.7817 68.1535 31.8386 68.1804 31.9046C68.2894 32.2083 68.5066 32.4612 68.7904 32.6146C69.1363 32.7931 69.5213 32.8825 69.9104 32.8746C70.1452 32.8875 70.3802 32.8534 70.6017 32.7745C70.8232 32.6955 71.0267 32.5732 71.2004 32.4146C71.3591 32.2488 71.4825 32.0525 71.5633 31.8377C71.6441 31.6229 71.6805 31.3939 71.6704 31.1646V30.5346C71.0689 30.9771 70.3368 31.2058 69.5904 31.1846C69.068 31.2036 68.5472 31.1169 68.0592 30.9296C67.5711 30.7423 67.126 30.4583 66.7504 30.0946C66.0295 29.3488 65.6265 28.352 65.6265 27.3146C65.6265 26.2773 66.0295 25.2805 66.7504 24.5346C67.1278 24.1742 67.5735 23.893 68.0612 23.7075C68.549 23.522 69.0689 23.436 69.5904 23.4546C70.3584 23.4344 71.1102 23.6779 71.7204 24.1446V23.9846C71.7158 23.9463 71.7198 23.9074 71.7321 23.8709C71.7444 23.8343 71.7647 23.8009 71.7915 23.7731C71.8183 23.7454 71.851 23.7239 71.8871 23.7103C71.9233 23.6968 71.962 23.6914 72.0004 23.6946L73.6604 23.6846ZM69.7804 29.4046C70.0381 29.4126 70.2943 29.3639 70.531 29.262C70.7678 29.16 70.9792 29.0073 71.1504 28.8146C71.4829 28.3853 71.6633 27.8577 71.6633 27.3146C71.6633 26.7716 71.4829 26.244 71.1504 25.8146C70.9798 25.6246 70.7696 25.4742 70.5347 25.374C70.2997 25.2738 70.0457 25.2262 69.7904 25.2346C69.5298 25.2264 69.2706 25.275 69.0306 25.3768C68.7906 25.4787 68.5756 25.6315 68.4004 25.8246C68.0321 26.2353 67.8384 26.7734 67.8604 27.3246C67.8424 27.8704 68.0318 28.4028 68.3904 28.8146C68.566 29.0073 68.7811 29.1597 69.021 29.2615C69.2609 29.3633 69.5199 29.4122 69.7804 29.4046Z" fill="#BCC6C9"/>
<path d="M82.57 30.1347C81.7241 30.8286 80.664 31.2078 79.57 31.2078C78.4759 31.2078 77.4158 30.8286 76.57 30.1347C75.8444 29.3772 75.4395 28.3687 75.4395 27.3197C75.4395 26.2708 75.8444 25.2623 76.57 24.5047C77.4166 23.8127 78.4764 23.4346 79.57 23.4346C80.6635 23.4346 81.7233 23.8127 82.57 24.5047C83.2948 25.2607 83.6995 26.2675 83.6995 27.3147C83.6995 28.362 83.2948 29.3688 82.57 30.1247V30.1347ZM78.14 28.8147C78.3317 28.9971 78.5576 29.1396 78.8048 29.2341C79.052 29.3285 79.3155 29.3729 79.5799 29.3647C79.8428 29.3716 80.1043 29.3265 80.3497 29.2321C80.5951 29.1377 80.8194 28.9959 81.0099 28.8147C81.3587 28.4044 81.5502 27.8833 81.5502 27.3447C81.5502 26.8062 81.3587 26.2851 81.0099 25.8747C80.8194 25.6936 80.5951 25.5518 80.3497 25.4574C80.1043 25.363 79.8428 25.3179 79.5799 25.3247C79.3155 25.3166 79.052 25.361 78.8048 25.4554C78.5576 25.5499 78.3317 25.6924 78.14 25.8747C77.7912 26.2851 77.5997 26.8062 77.5997 27.3447C77.5997 27.8833 77.7912 28.4044 78.14 28.8147Z" fill="#BCC6C9"/>
<path d="M87.31 21.9848C87.0457 22.2162 86.7063 22.3437 86.355 22.3437C86.0037 22.3437 85.6644 22.2162 85.4 21.9848C85.2802 21.8717 85.1847 21.7353 85.1194 21.584C85.0542 21.4327 85.0205 21.2696 85.0205 21.1048C85.0205 20.94 85.0542 20.777 85.1194 20.6257C85.1847 20.4743 85.2802 20.3379 85.4 20.2248C85.6671 19.9992 86.0054 19.8755 86.355 19.8755C86.7046 19.8755 87.0429 19.9992 87.31 20.2248C87.4299 20.3379 87.5254 20.4743 87.5906 20.6257C87.6559 20.777 87.6895 20.94 87.6895 21.1048C87.6895 21.2696 87.6559 21.4327 87.5906 21.584C87.5254 21.7353 87.4299 21.8717 87.31 21.9848ZM87.52 31.2048C86.9256 31.234 86.3383 31.0652 85.85 30.7248C85.6497 30.5718 85.4888 30.373 85.381 30.1451C85.2731 29.9172 85.2213 29.6668 85.23 29.4148V23.9748C85.2252 23.9356 85.2293 23.8957 85.2422 23.8583C85.255 23.8209 85.2762 23.787 85.3042 23.759C85.3322 23.7311 85.3661 23.7098 85.4035 23.697C85.4409 23.6841 85.4808 23.68 85.52 23.6848H87.2C87.39 23.6848 87.48 23.7848 87.48 23.9748V28.6948C87.48 29.0748 87.65 29.2648 87.99 29.2648C88.1417 29.2703 88.2933 29.2534 88.44 29.2148C88.64 29.2148 88.75 29.2748 88.76 29.4548L88.91 30.7048C88.9172 30.7413 88.9165 30.7788 88.908 30.815C88.8995 30.8512 88.8833 30.8851 88.8606 30.9144C88.8378 30.9438 88.809 30.968 88.7762 30.9853C88.7433 31.0026 88.7071 31.0127 88.67 31.0148C88.2988 31.1371 87.9109 31.2012 87.52 31.2048Z" fill="#BCC6C9"/>
<path d="M95.0903 23.4447C95.6151 23.424 96.1386 23.5089 96.6299 23.6944C97.1212 23.8799 97.5702 24.1623 97.9503 24.5247C98.6575 25.2836 99.0506 26.2824 99.0506 27.3197C99.0506 28.357 98.6575 29.3558 97.9503 30.1147C97.5721 30.4803 97.1236 30.7655 96.632 30.9528C96.1404 31.1402 95.616 31.2259 95.0903 31.2047C94.3415 31.2214 93.6076 30.9931 93.0003 30.5547V34.1647C93.0003 34.3547 92.9003 34.4447 92.7103 34.4447H91.0303C90.992 34.4519 90.9525 34.4496 90.9152 34.438C90.878 34.4265 90.8441 34.4061 90.8165 34.3785C90.789 34.3509 90.7685 34.317 90.757 34.2798C90.7454 34.2425 90.7432 34.203 90.7503 34.1647V25.9647C90.7621 25.8845 90.7549 25.8027 90.7295 25.7257C90.704 25.6487 90.6608 25.5788 90.6035 25.5215C90.5462 25.4642 90.4763 25.4211 90.3993 25.3956C90.3224 25.3701 90.2405 25.3629 90.1603 25.3747H89.8303C89.6103 25.3747 89.5003 25.2947 89.5003 25.1347V23.9547C89.4951 23.8817 89.5151 23.8091 89.557 23.7491C89.5988 23.689 89.66 23.6451 89.7303 23.6247C90.0762 23.499 90.4423 23.4379 90.8103 23.4447C91.1773 23.4122 91.5456 23.49 91.8681 23.6682C92.1905 23.8464 92.4525 24.1167 92.6203 24.4447C92.9424 24.1189 93.3276 23.8621 93.7523 23.6902C94.177 23.5183 94.6322 23.4347 95.0903 23.4447ZM93.5303 28.8147C93.7086 29.001 93.9228 29.1493 94.16 29.2507C94.3972 29.352 94.6524 29.4042 94.9103 29.4042C95.1682 29.4042 95.4235 29.352 95.6606 29.2507C95.8978 29.1493 96.112 29.001 96.2903 28.8147C96.6659 28.3958 96.8632 27.8469 96.8403 27.2847C96.8665 26.722 96.6687 26.1719 96.2903 25.7547C96.112 25.5684 95.8978 25.4201 95.6606 25.3187C95.4235 25.2174 95.1682 25.1652 94.9103 25.1652C94.6524 25.1652 94.3972 25.2174 94.16 25.3187C93.9228 25.4201 93.7086 25.5684 93.5303 25.7547C93.1665 26.1793 92.9771 26.726 93.0003 27.2847C92.98 27.843 93.1691 28.3886 93.5303 28.8147Z" fill="#BCC6C9"/>
<path d="M103.77 31.2046C102.872 31.2415 101.982 31.0267 101.2 30.5846C100.886 30.3956 100.619 30.1383 100.418 29.8319C100.217 29.5255 100.088 29.1778 100.04 28.8146C100.04 28.6146 100.11 28.5146 100.33 28.5146H101.8C101.87 28.5173 101.938 28.5393 101.996 28.5781C102.054 28.6169 102.101 28.6711 102.13 28.7346C102.34 29.2746 102.89 29.5446 103.77 29.5446C104.077 29.5586 104.383 29.4968 104.66 29.3646C104.756 29.3214 104.838 29.2529 104.898 29.1666C104.958 29.0803 104.993 28.9794 105 28.8746C105 28.6146 104.84 28.4346 104.52 28.3146C104.14 28.1883 103.748 28.1044 103.35 28.0646C102.879 28.0112 102.411 27.9277 101.95 27.8146C101.502 27.7131 101.094 27.4798 100.78 27.1446C100.595 26.9168 100.459 26.6533 100.38 26.3706C100.301 26.0878 100.281 25.7919 100.321 25.5011C100.362 25.2104 100.461 24.931 100.614 24.6804C100.767 24.4299 100.97 24.2134 101.21 24.0446C101.931 23.5854 102.777 23.3618 103.63 23.4046C104.456 23.3766 105.274 23.5811 105.99 23.9946C106.279 24.158 106.527 24.3838 106.717 24.6554C106.908 24.927 107.035 25.2376 107.09 25.5646C107.09 25.7646 107 25.8646 106.82 25.8646H105.34C105.278 25.8683 105.216 25.8531 105.162 25.821C105.109 25.7888 105.066 25.7413 105.04 25.6846C104.941 25.4477 104.755 25.258 104.52 25.1546C104.255 25.0159 103.959 24.9471 103.66 24.9546C103.367 24.9386 103.074 24.9971 102.81 25.1246C102.717 25.1605 102.637 25.2236 102.58 25.3055C102.523 25.3875 102.491 25.4847 102.49 25.5846C102.496 25.7213 102.546 25.8524 102.633 25.9586C102.719 26.0648 102.837 26.1405 102.97 26.1746C103.354 26.3193 103.753 26.42 104.16 26.4746C104.628 26.5361 105.092 26.6229 105.55 26.7346C105.998 26.836 106.406 27.0694 106.72 27.4046C106.888 27.5892 107.018 27.8054 107.102 28.0405C107.186 28.2757 107.223 28.5252 107.21 28.7746C107.219 29.1203 107.138 29.4623 106.975 29.7672C106.812 30.0722 106.572 30.3297 106.28 30.5146C105.533 30.9942 104.657 31.2349 103.77 31.2046Z" fill="#BCC6C9"/>
<path d="M117.78 30.7046C117.786 30.7401 117.784 30.7764 117.776 30.8113C117.767 30.8462 117.752 30.8791 117.73 30.9079C117.709 30.9368 117.682 30.9611 117.651 30.9794C117.62 30.9977 117.586 31.0097 117.55 31.0146C117.185 31.1338 116.804 31.1978 116.42 31.2046C116.04 31.2439 115.656 31.1845 115.306 31.0321C114.956 30.8797 114.65 30.6394 114.42 30.3346C113.714 30.9419 112.8 31.2535 111.87 31.2046C111.438 31.2245 111.007 31.1538 110.604 30.9971C110.201 30.8404 109.835 30.6011 109.53 30.2946C109.227 29.9734 108.992 29.5944 108.839 29.1803C108.686 28.7662 108.619 28.3255 108.64 27.8846V23.9746C108.64 23.7846 108.73 23.6846 108.92 23.6846H110.6C110.79 23.6846 110.88 23.7846 110.88 23.9746V27.5846C110.862 28.0343 111.016 28.4742 111.31 28.8146C111.457 28.9705 111.636 29.0932 111.834 29.1742C112.033 29.2553 112.246 29.2929 112.46 29.2846C112.679 29.2942 112.898 29.2602 113.104 29.1847C113.31 29.1092 113.499 28.9936 113.66 28.8446C113.813 28.6875 113.931 28.5009 114.008 28.2962C114.086 28.0915 114.12 27.8732 114.11 27.6546V23.9746C114.11 23.7846 114.2 23.6846 114.39 23.6846H116.09C116.28 23.6846 116.37 23.7846 116.37 23.9746V28.6846C116.37 29.0746 116.54 29.2646 116.87 29.2646C117.025 29.2706 117.18 29.2537 117.33 29.2146C117.368 29.204 117.408 29.2021 117.446 29.209C117.485 29.2159 117.521 29.2315 117.553 29.2546C117.585 29.2777 117.611 29.3077 117.63 29.3423C117.648 29.377 117.659 29.4153 117.66 29.4546L117.78 30.7046Z" fill="#BCC6C9"/>
<path d="M133.67 30.7048C133.679 30.7406 133.68 30.778 133.673 30.8142C133.666 30.8503 133.65 30.8845 133.628 30.9141C133.606 30.9437 133.578 30.9681 133.546 30.9855C133.513 31.003 133.477 31.013 133.44 31.0148C133.069 31.1357 132.681 31.1998 132.29 31.2048C131.696 31.2355 131.108 31.0666 130.62 30.7248C130.409 30.5784 130.238 30.3823 130.121 30.1538C130.004 29.9253 129.946 29.6714 129.95 29.4148V27.0648C129.971 26.6164 129.821 26.1767 129.53 25.8348C129.39 25.6785 129.217 25.5553 129.023 25.474C128.829 25.3928 128.62 25.3555 128.41 25.3648C128.221 25.3577 128.033 25.3936 127.86 25.4698C127.686 25.546 127.533 25.6606 127.41 25.8048C127.146 26.1399 127.011 26.5587 127.03 26.9848V30.6748C127.03 30.8648 126.94 30.9648 126.75 30.9648H125.06C125.021 30.9697 124.981 30.9655 124.944 30.9527C124.906 30.9398 124.872 30.9186 124.844 30.8906C124.816 30.8627 124.795 30.8287 124.782 30.7913C124.77 30.7539 124.765 30.7141 124.77 30.6748V27.0648C124.792 26.6213 124.654 26.1847 124.38 25.8348C124.258 25.6878 124.105 25.5695 123.933 25.4883C123.76 25.4071 123.571 25.3649 123.38 25.3648C123.176 25.3566 122.973 25.3915 122.783 25.4674C122.594 25.5432 122.422 25.6582 122.28 25.8048C121.994 26.1292 121.847 26.553 121.87 26.9848V30.6748C121.875 30.7141 121.871 30.7539 121.858 30.7913C121.845 30.8287 121.824 30.8627 121.796 30.8906C121.768 30.9186 121.734 30.9398 121.697 30.9527C121.659 30.9655 121.619 30.9697 121.58 30.9648H119.95C119.76 30.9648 119.67 30.8648 119.67 30.6748V25.9648C119.682 25.8846 119.675 25.8028 119.649 25.7258C119.624 25.6489 119.581 25.5789 119.523 25.5216C119.466 25.4643 119.396 25.4212 119.319 25.3957C119.242 25.3702 119.16 25.3631 119.08 25.3748H118.75C118.53 25.3748 118.42 25.2948 118.42 25.1348V23.9548C118.415 23.8818 118.435 23.8092 118.477 23.7492C118.519 23.6891 118.58 23.6452 118.65 23.6248C118.996 23.4991 119.362 23.4381 119.73 23.4448C120.083 23.4147 120.438 23.4851 120.753 23.6479C121.068 23.8107 121.33 24.0592 121.51 24.3648C121.848 24.0451 122.247 23.7983 122.684 23.64C123.121 23.4817 123.586 23.4153 124.05 23.4448C124.501 23.4228 124.95 23.5073 125.362 23.6915C125.774 23.8757 126.136 24.1543 126.42 24.5048C126.751 24.1451 127.158 23.8635 127.611 23.6801C128.064 23.4968 128.552 23.4164 129.04 23.4448C129.477 23.4244 129.913 23.4947 130.321 23.6514C130.729 23.808 131.1 24.0475 131.41 24.3548C131.714 24.6753 131.95 25.0542 132.103 25.4685C132.256 25.8827 132.323 26.3238 132.3 26.7648V28.6948C132.3 29.0748 132.47 29.2648 132.79 29.2648C132.945 29.272 133.1 29.2552 133.25 29.2148C133.457 29.2148 133.567 29.2948 133.58 29.4548L133.67 30.7048Z" fill="#BCC6C9"/>
<path d="M16.41 22.3847C17.1478 19.4194 18.8564 16.7861 21.2639 14.9042C23.6714 13.0223 26.6393 12 29.695 12C32.7507 12 35.7186 13.0223 38.1261 14.9042C40.5336 16.7861 42.2422 19.4194 42.98 22.3847H41.78C39.7557 22.3549 37.7729 22.9599 36.11 24.1147C36.014 24.1842 35.9138 24.2477 35.81 24.3047H35.67C35.5662 24.2477 35.466 24.1842 35.37 24.1147C33.6924 22.9866 31.7166 22.3841 29.695 22.3841C27.6734 22.3841 25.6976 22.9866 24.02 24.1147C23.924 24.1842 23.8238 24.2477 23.72 24.3047H23.58C23.4762 24.2477 23.376 24.1842 23.28 24.1147C21.6171 22.9599 19.6343 22.3549 17.61 22.3847H16.41ZM39.62 28.6547C40.236 28.175 40.9995 27.924 41.78 27.9447H43.39V24.7347H41.78C40.4052 24.7181 39.0619 25.146 37.95 25.9547C37.3243 26.416 36.5674 26.6649 35.79 26.6649C35.0126 26.6649 34.2557 26.416 33.63 25.9547C32.4899 25.1611 31.1341 24.7356 29.745 24.7356C28.3559 24.7356 27.0001 25.1611 25.86 25.9547C25.2343 26.416 24.4774 26.6649 23.7 26.6649C22.9226 26.6649 22.1657 26.416 21.54 25.9547C20.4144 25.1356 19.0518 24.7072 17.66 24.7347H16V27.9447H17.61C18.3905 27.924 19.154 28.175 19.77 28.6547C20.908 29.4489 22.2623 29.8747 23.65 29.8747C25.0377 29.8747 26.392 29.4489 27.53 28.6547C28.1468 28.1765 28.9097 27.9257 29.69 27.9447C30.4708 27.9223 31.2348 28.1735 31.85 28.6547C32.9901 29.4484 34.3459 29.8738 35.735 29.8738C37.1241 29.8738 38.4799 29.4484 39.62 28.6547ZM39.62 34.3947C40.236 33.915 40.9995 33.664 41.78 33.6847H43.39V30.4747H41.78C40.4052 30.4581 39.0619 30.886 37.95 31.6947C37.3243 32.156 36.5674 32.4049 35.79 32.4049C35.0126 32.4049 34.2557 32.156 33.63 31.6947C32.4899 30.9011 31.1341 30.4757 29.745 30.4757C28.3559 30.4757 27.0001 30.9011 25.86 31.6947C25.2343 32.156 24.4774 32.4049 23.7 32.4049C22.9226 32.4049 22.1657 32.156 21.54 31.6947C20.4144 30.8757 19.0518 30.4472 17.66 30.4747H16V33.6847H17.61C18.3905 33.664 19.154 33.915 19.77 34.3947C20.908 35.1889 22.2623 35.6147 23.65 35.6147C25.0377 35.6147 26.392 35.1889 27.53 34.3947C28.1468 33.9165 28.9097 33.6657 29.69 33.6847C30.4708 33.6623 31.2348 33.9135 31.85 34.3947C32.9901 35.1884 34.3459 35.6138 35.735 35.6138C37.1241 35.6138 38.4799 35.1884 39.62 34.3947Z" fill="#BCC6C9"/>
</svg>
