<svg width="240" height="80" viewBox="0 0 240 80" fill="none" xmlns="http://www.w3.org/2000/svg">
<path d="M86.1285 52.0076C85.1768 52.0613 84.2355 51.7795 83.4565 51.2076C83.1309 50.9562 82.869 50.6261 82.6934 50.2457C82.5178 49.8653 82.4337 49.4461 82.4485 49.0243V33.5743C82.4407 33.5089 82.4473 33.4425 82.4679 33.3801C82.4885 33.3178 82.5224 33.2612 82.5672 33.2146C82.6119 33.168 82.6663 33.1326 82.7261 33.1112C82.7859 33.0897 82.8497 33.0828 82.9125 33.0909H85.6005C85.9045 33.0909 86.0485 33.2576 86.0485 33.5743V47.8243C86.0485 48.4576 86.3205 48.7743 86.8805 48.7743C87.1179 48.7845 87.3553 48.7564 87.5845 48.6909C87.9045 48.6909 88.0805 48.7909 88.0965 49.0909L88.3365 51.1743C88.348 51.235 88.3469 51.2976 88.3332 51.3579C88.3196 51.4181 88.2937 51.4746 88.2573 51.5236C88.2209 51.5726 88.1749 51.6128 88.1223 51.6417C88.0697 51.6706 88.0118 51.6873 87.9525 51.6909C87.3637 51.8935 86.7485 52.0003 86.1285 52.0076Z" fill="#919495"/>
<path d="M101.248 50.2246C99.8974 51.387 98.2001 52.0229 96.4481 52.0229C94.696 52.0229 92.9987 51.387 91.6481 50.2246C90.4609 48.9762 89.7949 47.2901 89.7949 45.5329C89.7949 43.7757 90.4609 42.0896 91.6481 40.8412C93.0014 39.6848 94.6976 39.0527 96.4481 39.0527C98.1985 39.0527 99.8948 39.6848 101.248 40.8412C102.408 42.1011 103.055 43.7791 103.055 45.5246C103.055 47.2701 102.408 48.948 101.248 50.2079V50.2246ZM94.1761 48.0246C94.8028 48.616 95.6183 48.9436 96.4641 48.9436C97.3098 48.9436 98.1253 48.616 98.7521 48.0246C99.3193 47.3451 99.6318 46.475 99.6318 45.5746C99.6318 44.6741 99.3193 43.804 98.7521 43.1246C98.1253 42.5331 97.3098 42.2056 96.4641 42.2056C95.6183 42.2056 94.8028 42.5331 94.1761 43.1246C93.6088 43.804 93.2963 44.6741 93.2963 45.5746C93.2963 46.475 93.6088 47.3451 94.1761 48.0246Z" fill="#919495"/>
<path d="M117.857 39.4744C118.161 39.4744 118.305 39.6411 118.305 39.9577V51.9077C118.333 52.7143 118.188 53.5172 117.881 54.2581C117.574 54.999 117.112 55.6593 116.529 56.1911C115.236 57.3401 113.572 57.9357 111.873 57.8577C110.339 57.9139 108.825 57.4775 107.537 56.6077C106.987 56.2315 106.517 55.7414 106.157 55.168C105.796 54.5945 105.553 53.95 105.441 53.2744C105.441 52.9411 105.441 52.7911 105.873 52.7911H108.561C108.675 52.7951 108.786 52.8334 108.88 52.9015C108.973 52.9695 109.046 53.0643 109.089 53.1744C109.264 53.6806 109.611 54.1019 110.065 54.3577C110.619 54.6552 111.235 54.8041 111.857 54.7911C112.233 54.8125 112.609 54.7557 112.963 54.6241C113.318 54.4925 113.643 54.2886 113.921 54.0244C114.175 53.748 114.373 53.4209 114.502 53.0629C114.631 52.7048 114.689 52.3232 114.673 51.9411V50.8911C113.711 51.6284 112.54 52.0097 111.345 51.9744C110.509 52.0061 109.676 51.8615 108.895 51.5493C108.114 51.2371 107.402 50.7638 106.801 50.1577C105.648 48.9146 105.003 47.2533 105.003 45.5244C105.003 43.7955 105.648 42.1342 106.801 40.8911C107.405 40.2904 108.118 39.8216 108.899 39.5125C109.679 39.2033 110.511 39.0601 111.345 39.0911C112.574 39.0573 113.777 39.4631 114.753 40.2411V39.9744C114.746 39.9105 114.752 39.8457 114.772 39.7848C114.792 39.7238 114.824 39.6681 114.867 39.6219C114.91 39.5756 114.962 39.5398 115.02 39.5172C115.078 39.4946 115.14 39.4857 115.201 39.4911L117.857 39.4744ZM111.649 49.0077C112.061 49.021 112.471 48.9398 112.85 48.7699C113.229 48.6 113.567 48.3455 113.841 48.0244C114.373 47.3088 114.662 46.4294 114.662 45.5244C114.662 44.6194 114.373 43.74 113.841 43.0244C113.568 42.7076 113.232 42.4569 112.856 42.2899C112.48 42.1229 112.074 42.0437 111.665 42.0577C111.248 42.0441 110.833 42.1249 110.449 42.2947C110.065 42.4645 109.721 42.7191 109.441 43.0411C108.852 43.7256 108.542 44.6224 108.577 45.5411C108.548 46.4507 108.851 47.338 109.425 48.0244C109.706 48.3454 110.05 48.5995 110.434 48.7692C110.818 48.9389 111.232 49.0203 111.649 49.0077Z" fill="#919495"/>
<path d="M132.112 50.2246C130.759 51.381 129.062 52.0131 127.312 52.0131C125.562 52.0131 123.865 51.381 122.512 50.2246C121.351 48.9619 120.703 47.2812 120.703 45.5329C120.703 43.7847 121.351 42.1039 122.512 40.8412C123.867 39.6878 125.562 39.0576 127.312 39.0576C129.062 39.0576 130.757 39.6878 132.112 40.8412C133.272 42.1011 133.919 43.7791 133.919 45.5246C133.919 47.2701 133.272 48.948 132.112 50.2079V50.2246ZM125.024 48.0246C125.331 48.3285 125.692 48.5661 126.088 48.7234C126.483 48.8808 126.905 48.9548 127.328 48.9412C127.748 48.9526 128.167 48.8775 128.56 48.7202C128.952 48.5629 129.311 48.3265 129.616 48.0246C130.174 47.3406 130.48 46.4722 130.48 45.5746C130.48 44.677 130.174 43.8086 129.616 43.1246C129.311 42.8226 128.952 42.5863 128.56 42.429C128.167 42.2717 127.748 42.1966 127.328 42.2079C126.905 42.1943 126.483 42.2684 126.088 42.4257C125.692 42.5831 125.331 42.8206 125.024 43.1246C124.466 43.8086 124.16 44.677 124.16 45.5746C124.16 46.4722 124.466 47.3406 125.024 48.0246Z" fill="#919495"/>
<path d="M139.696 36.6413C139.273 37.0269 138.731 37.2395 138.168 37.2395C137.606 37.2395 137.063 37.0269 136.64 36.6413C136.449 36.4528 136.296 36.2255 136.191 35.9733C136.087 35.7211 136.033 35.4493 136.033 35.1746C136.033 34.9 136.087 34.6282 136.191 34.376C136.296 34.1238 136.449 33.8965 136.64 33.708C137.068 33.332 137.609 33.1257 138.168 33.1257C138.728 33.1257 139.269 33.332 139.696 33.708C139.888 33.8965 140.041 34.1238 140.145 34.376C140.25 34.6282 140.304 34.9 140.304 35.1746C140.304 35.4493 140.25 35.7211 140.145 35.9733C140.041 36.2255 139.888 36.4528 139.696 36.6413ZM140.032 52.008C139.081 52.0566 138.142 51.7752 137.36 51.208C137.04 50.9529 136.783 50.6216 136.61 50.2418C136.437 49.8619 136.355 49.4446 136.368 49.0246V39.958C136.361 39.8926 136.367 39.8262 136.388 39.7638C136.408 39.7015 136.442 39.6449 136.487 39.5983C136.532 39.5517 136.586 39.5163 136.646 39.4949C136.706 39.4735 136.77 39.4665 136.832 39.4746H139.52C139.824 39.4746 139.968 39.6413 139.968 39.958V47.8246C139.968 48.458 140.24 48.7746 140.784 48.7746C141.027 48.7837 141.27 48.7557 141.504 48.6913C141.824 48.6913 142 48.7913 142.016 49.0913L142.256 51.1746C142.268 51.2354 142.267 51.298 142.253 51.3582C142.24 51.4185 142.214 51.475 142.177 51.524C142.141 51.5729 142.095 51.6132 142.042 51.6421C141.99 51.6709 141.932 51.6877 141.872 51.6913C141.278 51.8951 140.658 52.0019 140.032 52.008Z" fill="#919495"/>
<path d="M152.145 39.0745C152.985 39.0399 153.823 39.1815 154.609 39.4907C155.395 39.7999 156.113 40.2705 156.721 40.8745C157.853 42.1394 158.482 43.804 158.482 45.5328C158.482 47.2617 157.853 48.9263 156.721 50.1912C156.116 50.8006 155.399 51.2758 154.612 51.588C153.826 51.9003 152.987 52.0431 152.145 52.0078C150.947 52.0356 149.773 51.6552 148.801 50.9245V56.9412C148.801 57.2578 148.641 57.4078 148.337 57.4078H145.649C145.588 57.4198 145.525 57.416 145.465 57.3967C145.406 57.3775 145.352 57.3435 145.307 57.2975C145.263 57.2515 145.231 57.1951 145.212 57.133C145.194 57.0709 145.19 57.0051 145.201 56.9412V43.2745C145.22 43.1408 145.209 43.0044 145.168 42.8762C145.127 42.7479 145.058 42.6314 144.967 42.5358C144.875 42.4403 144.763 42.3684 144.64 42.3259C144.517 42.2835 144.386 42.2716 144.257 42.2912H143.729C143.377 42.2912 143.201 42.1578 143.201 41.8912V39.9245C143.193 39.8028 143.225 39.6818 143.292 39.5818C143.359 39.4817 143.457 39.4085 143.569 39.3745C144.123 39.1649 144.709 39.0632 145.297 39.0745C145.885 39.0204 146.474 39.1501 146.99 39.447C147.506 39.7439 147.925 40.1946 148.193 40.7412C148.709 40.1981 149.325 39.7702 150.005 39.4837C150.684 39.1971 151.413 39.0579 152.145 39.0745ZM149.649 48.0245C149.935 48.3351 150.277 48.5822 150.657 48.7511C151.036 48.92 151.445 49.007 151.857 49.007C152.27 49.007 152.679 48.92 153.058 48.7511C153.437 48.5822 153.78 48.3351 154.065 48.0245C154.666 47.3263 154.982 46.4115 154.945 45.4745C154.987 44.5367 154.671 43.6199 154.065 42.9245C153.78 42.6139 153.437 42.3668 153.058 42.1979C152.679 42.029 152.27 41.942 151.857 41.942C151.445 41.942 151.036 42.029 150.657 42.1979C150.277 42.3668 149.935 42.6139 149.649 42.9245C149.067 43.6322 148.764 44.5434 148.801 45.4745C148.769 46.4049 149.071 47.3144 149.649 48.0245Z" fill="#919495"/>
<path d="M166.032 52.0076C164.596 52.0692 163.172 51.7112 161.92 50.9743C161.418 50.6593 160.991 50.2305 160.669 49.7198C160.348 49.2091 160.141 48.6296 160.064 48.0243C160.064 47.691 160.176 47.5243 160.528 47.5243H162.88C162.992 47.5289 163.101 47.5655 163.194 47.6302C163.287 47.6949 163.361 47.7851 163.408 47.891C163.744 48.791 164.624 49.241 166.032 49.241C166.524 49.2644 167.013 49.1613 167.456 48.941C167.61 48.8689 167.741 48.7549 167.837 48.6111C167.933 48.4672 167.989 48.299 168 48.1243C168 47.691 167.744 47.391 167.232 47.191C166.625 46.9804 165.997 46.8407 165.36 46.7743C164.606 46.6854 163.858 46.5462 163.12 46.3576C162.403 46.1886 161.751 45.7996 161.248 45.241C160.952 44.8613 160.734 44.4222 160.608 43.9509C160.482 43.4797 160.45 42.9865 160.514 42.5019C160.579 42.0173 160.738 41.5517 160.983 41.1341C161.228 40.7164 161.552 40.3557 161.936 40.0743C163.09 39.3091 164.443 38.9363 165.808 39.0076C167.131 38.9611 168.439 39.3018 169.584 39.991C170.046 40.2634 170.444 40.6396 170.748 41.0923C171.053 41.5449 171.256 42.0626 171.344 42.6076C171.344 42.941 171.2 43.1076 170.912 43.1076H168.544C168.445 43.1138 168.346 43.0885 168.26 43.0349C168.174 42.9814 168.106 42.9022 168.064 42.8076C167.906 42.4129 167.608 42.0966 167.232 41.9243C166.808 41.6932 166.335 41.5785 165.856 41.591C165.387 41.5644 164.92 41.6619 164.496 41.8743C164.347 41.9342 164.219 42.0393 164.128 42.1759C164.036 42.3126 163.987 42.4745 163.984 42.641C163.995 42.8689 164.075 43.0874 164.213 43.2644C164.351 43.4414 164.54 43.5675 164.752 43.6243C165.367 43.8655 166.006 44.0333 166.656 44.1243C167.405 44.2269 168.147 44.3715 168.88 44.5576C169.598 44.7267 170.25 45.1157 170.752 45.6743C171.021 45.9821 171.229 46.3423 171.364 46.7342C171.498 47.1262 171.557 47.542 171.536 47.9576C171.55 48.5338 171.42 49.1038 171.16 49.6121C170.899 50.1203 170.516 50.5495 170.048 50.8577C168.853 51.657 167.452 52.0582 166.032 52.0076Z" fill="#919495"/>
<path d="M188.449 51.1744C188.458 51.2335 188.455 51.294 188.442 51.3522C188.428 51.4104 188.403 51.4652 188.369 51.5133C188.335 51.5615 188.291 51.602 188.242 51.6325C188.192 51.663 188.138 51.6829 188.081 51.691C187.496 51.8897 186.887 51.9964 186.273 52.0077C185.664 52.0733 185.05 51.9743 184.49 51.7203C183.929 51.4662 183.441 51.0658 183.073 50.5577C181.942 51.5699 180.481 52.0892 178.993 52.0077C178.301 52.0409 177.611 51.9231 176.967 51.6619C176.322 51.4007 175.737 51.0018 175.249 50.491C174.764 49.9558 174.388 49.3242 174.143 48.634C173.899 47.9438 173.79 47.2092 173.825 46.4744V39.9577C173.825 39.641 173.969 39.4744 174.273 39.4744H176.961C177.265 39.4744 177.409 39.641 177.409 39.9577V45.9744C177.379 46.724 177.625 47.457 178.097 48.0244C178.332 48.2843 178.618 48.4887 178.935 48.6238C179.252 48.7589 179.594 48.8216 179.937 48.8077C180.287 48.8237 180.637 48.7671 180.967 48.6412C181.297 48.5154 181.599 48.3227 181.857 48.0744C182.1 47.8126 182.29 47.5016 182.414 47.1605C182.538 46.8193 182.593 46.4553 182.577 46.091V39.9577C182.577 39.641 182.721 39.4744 183.025 39.4744H185.745C186.049 39.4744 186.193 39.641 186.193 39.9577V47.8077C186.193 48.4577 186.465 48.7744 186.993 48.7744C187.24 48.7844 187.488 48.7563 187.729 48.691C187.789 48.6734 187.853 48.6702 187.914 48.6818C187.976 48.6933 188.035 48.7193 188.086 48.7578C188.136 48.7963 188.178 48.8463 188.208 48.904C188.237 48.9617 188.254 49.0256 188.257 49.091L188.449 51.1744Z" fill="#919495"/>
<path d="M213.873 51.1746C213.887 51.2343 213.889 51.2965 213.877 51.3568C213.865 51.4171 213.841 51.474 213.806 51.5234C213.771 51.5728 213.726 51.6135 213.674 51.6425C213.622 51.6715 213.564 51.6882 213.505 51.6913C212.91 51.8928 212.29 51.9995 211.665 52.008C210.714 52.0591 209.773 51.7775 208.993 51.208C208.656 50.964 208.381 50.6371 208.194 50.2562C208.007 49.8754 207.913 49.4523 207.921 49.0246V45.108C207.955 44.3606 207.714 43.6278 207.249 43.058C207.024 42.7975 206.747 42.5921 206.437 42.4566C206.128 42.3212 205.793 42.259 205.457 42.2746C205.154 42.2627 204.853 42.3225 204.576 42.4496C204.299 42.5766 204.053 42.7675 203.857 43.008C203.435 43.5664 203.219 44.2644 203.249 44.9746V51.1246C203.249 51.4413 203.105 51.608 202.801 51.608H200.097C200.034 51.6161 199.97 51.6091 199.911 51.5877C199.851 51.5663 199.796 51.5309 199.752 51.4843C199.707 51.4377 199.673 51.3811 199.652 51.3188C199.632 51.2564 199.625 51.19 199.633 51.1246V45.108C199.668 44.3688 199.446 43.6411 199.009 43.058C198.814 42.813 198.569 42.6158 198.293 42.4804C198.016 42.345 197.715 42.2748 197.409 42.2746C197.083 42.2609 196.757 42.3191 196.454 42.4455C196.15 42.5719 195.876 42.7635 195.649 43.008C195.191 43.5486 194.956 44.2548 194.993 44.9746V51.1246C195.001 51.19 194.994 51.2564 194.974 51.3188C194.953 51.3811 194.919 51.4377 194.874 51.4843C194.83 51.5309 194.775 51.5663 194.715 51.5877C194.656 51.6091 194.592 51.6161 194.529 51.608H191.921C191.617 51.608 191.473 51.4413 191.473 51.1246V43.2746C191.492 43.1409 191.48 43.0045 191.44 42.8763C191.399 42.748 191.33 42.6315 191.238 42.5359C191.146 42.4404 191.034 42.3685 190.911 42.3261C190.788 42.2836 190.657 42.2717 190.529 42.2913H190.001C189.649 42.2913 189.473 42.158 189.473 41.8913V39.9246C189.465 39.8029 189.497 39.682 189.564 39.5819C189.631 39.4818 189.728 39.4086 189.841 39.3746C190.394 39.1651 190.98 39.0634 191.569 39.0746C192.134 39.0245 192.701 39.1418 193.205 39.4131C193.709 39.6844 194.129 40.0986 194.417 40.608C194.957 40.075 195.596 39.6638 196.296 39.4C196.995 39.1361 197.739 39.0254 198.481 39.0746C199.202 39.038 199.921 39.1788 200.58 39.4858C201.239 39.7927 201.819 40.2571 202.273 40.8413C202.802 40.2418 203.453 39.7723 204.178 39.4668C204.903 39.1613 205.684 39.0273 206.465 39.0746C207.163 39.0406 207.861 39.1578 208.514 39.4188C209.166 39.6799 209.76 40.0791 210.257 40.5913C210.743 41.1254 211.12 41.7569 211.365 42.4473C211.61 43.1378 211.717 43.8729 211.681 44.608V47.8246C211.681 48.458 211.953 48.7746 212.465 48.7746C212.713 48.7867 212.961 48.7586 213.201 48.6913C213.532 48.6913 213.708 48.8246 213.729 49.0913L213.873 51.1746Z" fill="#919495"/>
<path d="M26.2556 37.3079C27.436 32.3656 30.1699 27.9769 34.0219 24.8404C37.8738 21.7039 42.6224 20 47.5116 20C52.4008 20 57.1494 21.7039 61.0014 24.8404C64.8533 27.9769 67.5872 32.3656 68.7676 37.3079H66.8476C63.6087 37.2582 60.4362 38.2665 57.7756 40.1912C57.6221 40.307 57.4618 40.4128 57.2956 40.5079H57.0716C56.9055 40.4128 56.7452 40.307 56.5916 40.1912C53.9074 38.311 50.7462 37.3068 47.5116 37.3068C44.277 37.3068 41.1158 38.311 38.4316 40.1912C38.2781 40.307 38.1178 40.4128 37.9516 40.5079H37.7276C37.5615 40.4128 37.4012 40.307 37.2476 40.1912C34.587 38.2665 31.4145 37.2582 28.1756 37.3079H26.2556ZM63.3916 47.7579C64.3772 46.9583 65.5988 46.54 66.8476 46.5745H69.4236V41.2245H66.8476C64.648 41.1968 62.4986 41.91 60.7196 43.2579C59.7185 44.0267 58.5074 44.4415 57.2636 44.4415C56.0198 44.4415 54.8087 44.0267 53.8076 43.2579C51.9835 41.9351 49.8142 41.2261 47.5916 41.2261C45.369 41.2261 43.1997 41.9351 41.3756 43.2579C40.3745 44.0267 39.1634 44.4415 37.9196 44.4415C36.6758 44.4415 35.4647 44.0267 34.4636 43.2579C32.6626 41.8927 30.4825 41.1787 28.2556 41.2245H25.5996V46.5745H28.1756C29.4244 46.54 30.646 46.9583 31.6316 47.7579C33.4524 49.0814 35.6193 49.7911 37.8396 49.7911C40.0599 49.7911 42.2268 49.0814 44.0476 47.7579C45.0345 46.9608 46.2552 46.5428 47.5036 46.5745C48.7528 46.5372 49.9753 46.9558 50.9596 47.7579C52.7837 49.0806 54.953 49.7896 57.1756 49.7896C59.3982 49.7896 61.5675 49.0806 63.3916 47.7579ZM63.3916 57.3245C64.3772 56.525 65.5988 56.1067 66.8476 56.1412H69.4236V50.7912H66.8476C64.648 50.7635 62.4986 51.4767 60.7196 52.8245C59.7185 53.5933 58.5074 54.0081 57.2636 54.0081C56.0198 54.0081 54.8087 53.5933 53.8076 52.8245C51.9835 51.5018 49.8142 50.7928 47.5916 50.7928C45.369 50.7928 43.1997 51.5018 41.3756 52.8245C40.3745 53.5933 39.1634 54.0081 37.9196 54.0081C36.6758 54.0081 35.4647 53.5933 34.4636 52.8245C32.6626 51.4594 30.4825 50.7453 28.2556 50.7912H25.5996V56.1412H28.1756C29.4244 56.1067 30.646 56.525 31.6316 57.3245C33.4524 58.6481 35.6193 59.3578 37.8396 59.3578C40.0599 59.3578 42.2268 58.6481 44.0476 57.3245C45.0345 56.5274 46.2552 56.1095 47.5036 56.1412C48.7528 56.1039 49.9753 56.5225 50.9596 57.3245C52.7837 58.6473 54.953 59.3563 57.1756 59.3563C59.3982 59.3563 61.5675 58.6473 63.3916 57.3245Z" fill="#919495"/>
</svg>
