<svg width="100" height="100" viewBox="0 0 100 100" fill="none" xmlns="http://www.w3.org/2000/svg">
<path d="M94.6673 90.9694L92.4688 90.1039C82.9585 86.3336 71.956 84.2247 64.4054 83.1204C57.0339 82.0361 51.5128 81.678 49.7718 81.5984L49.1551 81.5785L47.9016 81.6183V81.5785C45.8921 81.5884 41.6045 81.6879 36.0834 82.3146C26.5432 83.389 17.8486 85.4682 10.2384 88.4824L8.17912 89.2982L9.85039 80.2852L5.33398 73.8887L11.452 71.4713L12.6557 66.2884L13.2327 66.0496C13.3223 66.0098 15.5506 65.0747 19.3906 63.9008C22.5739 62.9359 27.4584 61.6327 33.3377 60.6777C33.0592 60.2698 32.7906 59.852 32.522 59.4342L13.9987 47.2279L14.6951 46.2033C14.8145 46.0342 17.2816 42.433 21.4498 39.5083C20.1764 39.369 19.5995 38.6328 19.4104 38.3244C18.9031 37.5485 18.7837 36.6532 19.0523 35.7578L8.78595 25.4915C7.48276 24.9543 7.0351 23.9794 6.7864 22.6961C6.64712 21.9997 6.88588 21.2636 7.50266 20.5175C8.57704 19.2043 10.9845 17.742 12.7254 17.742C13.9191 17.742 14.8841 18.3587 15.3815 19.4431C15.5307 19.7713 15.6202 20.0897 15.66 20.3483L21.987 26.347C21.8278 24.5961 21.7084 22.8154 21.6488 21.0347C21.6388 20.7662 21.6388 20.4976 21.6488 20.3284C21.6488 20.2787 21.6488 20.229 21.6488 20.1991V19.2839L22.5242 19.0252C23.8672 18.6273 25.2201 18.2592 26.5133 17.9111C28.4532 17.3838 30.3135 16.8765 32.124 16.2895C32.1539 15.1654 32.3329 14.3795 32.3429 14.3397L32.7309 12.6983L36.1729 14.7874C39.0877 13.5638 41.9825 12.0915 44.7879 10.6689C45.8125 10.1417 46.877 9.60446 47.9315 9.08716C48.7671 8.66934 49.7022 8.3908 50.886 9.10706C54.6464 11.4051 58.5261 13.3449 62.4158 14.8769L65.9871 12.7082L66.3751 14.3497C66.3851 14.3895 66.5741 15.1953 66.594 16.3592C69.3595 17.2445 72.1947 17.9409 75.0299 18.4383C75.3283 18.4881 75.5969 18.5776 75.8954 18.6771C76.0446 18.7268 76.2137 18.7765 76.4027 18.8362L77.3677 19.1247L77.2782 20.1295C77.1787 21.2138 77.0891 22.318 76.9996 23.3924C76.8106 25.77 76.6116 28.2272 76.2635 30.6446C75.8954 33.1912 75.4278 35.6783 74.8906 38.0558C77.686 39.558 79.9044 41.5476 81.327 43.01C83.0281 44.7608 83.9732 46.1635 84.013 46.2132L84.7093 47.2379L82.7197 48.551L82.8789 48.75L82.6501 48.5908L66.2657 59.4043C65.9573 59.8918 65.6489 60.3693 65.3306 60.8368C71.7769 61.9411 77.4075 63.4731 81.128 64.6071C85.5649 65.97 88.2608 67.0544 88.3702 67.0941L88.9571 67.3329L94.6673 90.9694ZM80.1432 45.2881L81.2076 46.6211L81.2574 46.5913C80.9589 46.2232 80.5909 45.7755 80.1432 45.2881ZM12.1285 20.7164C12.1384 20.7264 12.1484 20.7363 12.1583 20.7463L12.6557 20.1892L12.1285 20.7164ZM11.9395 20.408C11.9693 20.5175 12.029 20.6169 12.1086 20.6965L12.6458 20.1991C12.6259 20.1991 12.606 20.1991 12.5861 20.2091L11.9395 20.408ZM29.5375 54.1418L27.0207 52.8784L29.3585 51.3265L29.8161 52.0129L30.0051 51.6349L29.8161 52.0129L30.7114 53.3659L29.5375 54.1418ZM68.5935 53.7439L68.0464 53.3758L69.4093 51.3365L69.9564 51.7045L68.5935 53.7439ZM22.7331 45.2682L22.6336 45.1886L24.1855 43.2985L24.285 43.378L22.7331 45.2682Z" fill="#AAAAAA"/>
<path d="M22.8711 20.2001C22.8711 20.3393 22.8612 20.6676 22.8711 20.9959C23.1994 30.2874 24.8607 39.2903 28.1535 47.9053C32.3317 58.8482 38.8576 67.7119 48.4774 73.7503C49.1936 74.198 49.6612 74.1482 50.3376 73.7205C57.4007 69.2737 62.9219 63.2054 67.0503 55.6548C71.328 47.8456 73.7752 39.35 75.0684 30.4565C75.5658 26.9946 75.7549 23.4829 76.0732 20.0011C75.4863 19.832 75.158 19.7027 74.8197 19.643C66.0854 18.101 57.928 14.848 50.2481 10.1526C49.5716 9.73474 49.1339 9.85411 48.4774 10.1824C44.14 12.3312 39.8524 14.669 35.3758 16.4397C31.3866 18.0115 27.1786 18.9367 22.8711 20.2001Z" fill="#AAAAAA"/>
<path d="M80.4033 46.5104L69.2814 52.718L65.9488 50.4996L66.6949 49.5048L63.9492 47.0078L68.9332 49.5048L76.7424 43.0783C78.165 44.0234 79.4781 45.1674 80.4033 46.5104Z" fill="#AAAAAA"/>
<path d="M75.2202 42.1552L68.6843 48.0146L63.5312 46.2239L68.933 39.5388C68.933 39.5388 72.0667 40.3844 75.2202 42.1552Z" fill="#AAAAAA"/>
<path d="M66.7929 36.8728C66.8626 37.4299 66.6835 37.788 66.6835 37.788L56.2182 50.0042L54.726 46.7612L51.4829 48.5021V47.2586L49.4933 48.2534H49.2446L47.255 47.2586V48.5021L44.002 46.7612L42.5098 50.0042L32.0445 37.788C32.0445 37.788 31.8654 37.4299 31.935 36.8728C34.5912 41.061 38.8191 44.115 38.8191 44.115C38.4112 42.5233 38.262 40.9316 38.2918 39.3996L40.2615 40.8023C43.6439 46.0549 49.3739 47.6167 49.3739 47.6167C49.3739 47.6167 55.094 46.0449 58.4863 40.8023L60.456 39.3996C60.4859 40.9316 60.3367 42.5233 59.9288 44.115C59.9188 44.115 64.1368 41.061 66.7929 36.8728Z" fill="#AAAAAA"/>
<path d="M63.7481 29.49L66.4739 32.2158C66.3744 32.554 66.2451 32.9818 66.0759 33.4692C65.9068 33.9567 65.688 34.4939 65.4194 35.0311C64.8324 36.2149 63.9869 37.4186 62.7831 38.115C62.7831 38.115 62.7533 37.9757 62.6936 37.727C62.5344 37.0505 62.1465 35.5583 61.5297 33.7478C61.4203 33.4095 61.2909 33.0713 61.1616 32.7132C61.9077 32.1859 62.9921 31.4597 63.7481 29.49Z" fill="#AAAAAA"/>
<path d="M65.977 54.5603L50.2393 63.3544V60.2207L58.2176 55.9829L50.2393 58.4798V54.0927L58.4663 52.5011L62.9528 46.9401V53.4959L65.977 54.5603Z" fill="#AAAAAA"/>
<path d="M49.3638 25.8904L64.2262 16.3005C64.2262 20.8567 60.8737 22.7766 60.8737 22.7766C55.1237 24.2191 49.3638 29.7303 49.3638 29.7303C49.3638 29.7303 43.6139 24.2191 37.8539 22.7766C37.8539 22.7766 34.5015 20.8567 34.5015 16.3005L49.3638 25.8904Z" fill="#AAAAAA"/>
<path d="M63.0327 28.2968C63.0327 28.7146 62.3463 31.4801 61.1525 32.6938C60.2273 30.2068 58.9241 27.3616 57.2031 25.3223C58.2079 24.7652 59.2027 24.2976 60.1079 23.9893C60.7944 24.8945 63.0327 27.8889 63.0327 28.2968Z" fill="#AAAAAA"/>
<path d="M60.1073 36.0863C59.8188 36.8026 59.2617 38.0759 58.4062 39.4487C57.7994 40.4236 57.0334 41.4483 56.1182 42.3436C57.7596 39.4686 59.0926 34.425 59.0926 34.425L57.9586 29.451C58.7842 31.2317 59.6398 33.5197 60.1073 36.0863Z" fill="#AAAAAA"/>
<path d="M57.8877 19.0549L49.3622 24.2179V19.423C49.3622 20.8655 48.1684 21.343 48.1684 21.343L47.5119 23.0938L40.8467 19.0549C41.2844 17.7219 43.2342 13.1955 49.3721 13.1955C55.5101 13.1955 57.44 17.7119 57.8877 19.0549Z" fill="#AAAAAA"/>
<path d="M55.6303 30.7932C55.5805 30.8031 52.8747 31.1911 51.7207 32.355C51.7207 32.355 52.8946 33.5289 54.0684 32.743C55.2224 31.977 55.6104 30.833 55.6303 30.7932ZM43.1057 30.7932C43.1156 30.833 43.5136 31.977 44.6675 32.7529C45.8414 33.5388 47.0153 32.365 47.0153 32.365C45.8514 31.1911 43.1554 30.8031 43.1057 30.7932ZM56.1973 29.7287C56.1973 29.7287 57.978 31.5691 57.59 32.7529C57.59 32.7529 50.9348 35.4886 49.373 35.4886C47.8111 35.4886 41.1559 32.7529 41.1559 32.7529C40.7679 31.5791 42.5486 29.7387 42.5486 29.7287C45.1948 30.6539 49.2138 32.355 49.373 34.2849C49.5222 32.365 53.5511 30.6539 56.1973 29.7287Z" fill="#AAAAAA"/>
<path d="M45.523 29.2513C45.4534 29.2115 43.1255 27.7989 42.8868 26.8538C42.7873 26.4559 42.7276 26.1773 42.6978 25.9983C46.1199 28.0575 49.363 30.6937 49.363 30.6937C49.363 30.6937 52.606 28.0575 56.0281 25.9983C55.9983 26.1873 55.9386 26.4559 55.8391 26.8538C55.6004 27.7989 53.2725 29.2115 53.2029 29.2513L56.9533 27.4805C57.1025 27.7491 57.2617 28.0376 57.4209 28.3659C51.8997 29.6094 49.353 32.6137 49.353 32.6137C49.353 32.6137 46.8163 29.6193 41.2852 28.3659C41.4543 28.0476 41.6035 27.7491 41.7527 27.4805L45.523 29.2513Z" fill="#AAAAAA"/>
<path d="M57.898 33.1228C57.5995 34.5056 56.4058 39.4697 54.058 42.1457C51.3223 45.2793 50.5364 45.2793 50.5364 45.2793H52.0983C52.0983 45.2793 50.5364 46.8412 49.3626 46.8412C48.1887 46.8412 46.6269 45.2793 46.6269 45.2793H48.1887C48.1887 45.2793 47.4028 45.2793 44.6671 42.1457C42.3293 39.4697 41.1256 34.5056 40.8271 33.1228C43.0356 34.615 49.3626 36.2764 49.3626 36.2764C49.3626 36.2764 55.6895 34.6051 57.898 33.1228Z" fill="#AAAAAA"/>
<path d="M55.6332 30.7932C55.6233 30.833 55.2253 31.977 54.0714 32.7529C52.8975 33.5388 51.7236 32.365 51.7236 32.365C52.8776 31.1911 55.5735 30.8031 55.6332 30.7932Z" fill="#AAAAAA"/>
<path d="M48.4878 60.2207V63.3544L32.75 54.5603L35.7742 53.4959V46.9401L40.2608 52.5011L48.4878 54.0927V58.4798L40.5194 55.9829L48.4878 60.2207Z" fill="#AAAAAA"/>
<path d="M47.0165 32.3552C47.0165 32.3552 45.8426 33.5291 44.6688 32.7432C43.5148 31.9672 43.1169 30.8232 43.1069 30.7834C43.1567 30.8033 45.8526 31.1913 47.0165 32.3552Z" fill="#AAAAAA"/>
<path d="M42.6181 42.3436C41.7028 41.4483 40.9368 40.4236 40.33 39.4487C39.4745 38.0858 38.9174 36.8026 38.6289 36.0863C39.0865 33.5197 39.952 31.2317 40.7777 29.451L39.6436 34.425C39.6436 34.425 40.9766 39.4587 42.6181 42.3436Z" fill="#AAAAAA"/>
<path d="M38.622 23.9893C39.5273 24.2976 40.5221 24.7652 41.5268 25.3223C39.8058 27.3616 38.4927 30.1968 37.5774 32.6938C36.3837 31.4702 35.6973 28.7146 35.6973 28.2968C35.6973 27.8889 37.9455 24.8945 38.622 23.9893Z" fill="#AAAAAA"/>
<path d="M37.5544 32.7329C37.4251 33.0811 37.3057 33.4293 37.1864 33.7575C36.5696 35.5581 36.1816 37.0603 36.0224 37.7368C35.9628 37.9855 35.9329 38.1247 35.9329 38.1247C34.7292 37.4184 33.8836 36.2247 33.2967 35.0408C33.0281 34.5036 32.8092 33.9664 32.6401 33.479C32.471 32.9915 32.3417 32.5638 32.2422 32.2255L34.9679 29.4998C35.7439 31.4595 36.8183 32.1858 37.5544 32.7329Z" fill="#AAAAAA"/>
<path d="M29.7989 39.5388L35.2007 46.2239L30.0476 48.0146L23.5117 42.1552C26.6752 40.3844 29.7989 39.5388 29.7989 39.5388Z" fill="#AAAAAA"/>
<path d="M34.7792 47.0078L32.0336 49.5048L32.7797 50.4996L29.4471 52.718L18.3252 46.5104C19.2404 45.1674 20.5635 44.0234 21.9861 43.0783L29.7953 49.5048L34.7792 47.0078Z" fill="#AAAAAA"/>
<path d="M27.6189 35.3595L29.1808 37.3491C27.4697 37.7073 25.878 38.334 24.4455 39.1099L24.4754 39.09L22.9434 37.4188C22.9434 37.4188 23.1921 33.4296 27.1812 34.9218L27.6189 35.3595Z" fill="#AAAAAA"/>
<path d="M23.7297 44.1526L22.3867 45.1872L29.6886 51.335L32.7227 49.813L35.2197 46.8286L33.6976 47.137L29.9273 48.9575L27.7388 46.8286L23.7297 44.1526Z" fill="#AAAAAA"/>
<path d="M22.6933 32.4265C22.753 32.4166 25.4389 31.6904 26.185 32.4265C26.9311 33.1726 26.4337 33.67 26.4337 33.67C26.4337 33.67 23.6881 33.1726 22.942 35.411C22.544 36.6047 22.4247 37.0225 22.4048 37.1519C22.1461 37.1021 20.5047 36.734 21.1911 34.6649L10.0493 23.5231C10.4373 22.6178 11.3227 21.4837 13.372 21.1057L23.8373 31.3323C23.4593 31.571 23.0713 31.9291 22.6933 32.4265Z" fill="#AAAAAA"/>
<path d="M12.7161 19.7109C13.313 19.8303 13.0842 20.5267 13.0842 20.5267C12.3281 20.6958 10.5872 21.2628 9.42328 23.1132C9.0751 22.9838 8.5578 22.7053 8.72692 22.2079C8.98556 21.4618 11.4726 19.4622 12.7161 19.7109Z" fill="#AAAAAA"/>
<path d="M30.8402 40.5132L29.1987 41.1201L33.5759 45.7956L31.3873 47.7455L35.7047 46.4721L30.8402 40.5132Z" fill="#AAAAAA"/>
<path d="M75.0495 44.1526L76.3925 45.1872L69.0907 51.335L66.0466 49.813L63.5596 46.8286L65.0816 47.137L68.8519 48.9575L71.0405 46.8286L75.0495 44.1526Z" fill="#AAAAAA"/>
<path d="M67.9359 40.5132L69.5773 41.1201L65.2002 45.7956L67.3887 47.7455L63.0713 46.4721L67.9359 40.5132Z" fill="#AAAAAA"/>
<path d="M76.6889 42.9411L78.6984 45.438L76.9376 46.9601L77.2958 47.5669L74.3213 50.1832L80.7676 46.7711V45.7962L76.6889 42.9411Z" fill="#AAAAAA"/>
<path d="M68.7939 39.2893L73.2308 42.0946L71.8878 43.4277L72.1962 43.7957L70.7338 46.5911L76.0262 42.025L73.5292 40.9307L68.7939 39.2893Z" fill="#AAAAAA"/>
<path d="M57.3517 51.3351L62.5744 47.0574L62.8927 46.2815L62.9624 46.7391L63.0718 46.6495L62.9723 46.8286L63.987 53.4043L66.5934 54.3692L65.4394 55.1651L63.0718 53.4043L61.9178 48.669L59.3612 53.1556L52.7955 54.6179V56.4981L57.9486 56.0803L52.7955 59.7909V60.7559L59.9083 58.2092L49.3833 64.4068V52.7278L57.3517 51.3351Z" fill="#AAAAAA"/>
<path d="M49.3845 36.254L42.9382 34.9707L43.6047 37.4676L46.1614 39.7159H44.2115C44.2115 39.7159 47.2556 44.6998 49.1955 44.6998H49.3746V47.1371L47.4248 46.2816L45.2362 44.093L42.7392 39.9546L40.6104 33.8167L40.7894 32.9612L42.9183 33.8167L49.3845 36.254Z" fill="#AAAAAA"/>
<path d="M49.2041 36.2538L55.6504 34.9804L54.9839 37.4774L52.4273 39.7256H54.3771C54.3771 39.7256 51.333 44.7096 49.3931 44.7096H49.2041V47.1469L51.1539 46.2913L53.3425 44.1028L55.8394 39.9644L57.9683 33.8265L57.7893 32.9709L55.6604 33.8265L49.2041 36.2538Z" fill="#AAAAAA"/>
<path d="M61.4925 51.148L59.7913 53.834L54.9268 54.9283V55.6445L59.9704 54.6099C59.9704 54.6199 61.4925 53.6251 61.4925 51.148Z" fill="#AAAAAA"/>
<path d="M62.8941 55.5346L58.2086 58.0813L56.4478 58.6882L58.6363 56.7483L62.1579 55.1666L62.8941 55.5346Z" fill="#AAAAAA"/>
<path d="M36.3135 43.4277L41.5461 47.4467L41.8446 46.83L40.81 44.1539L47.4453 48.6007L44.4012 47.9939L42.6404 50.7893L36.3135 43.4277Z" fill="#AAAAAA"/>
<path d="M62.2171 43.4277L56.9944 47.4467L56.686 46.83L57.7206 44.1539L51.0952 48.6007L54.1294 47.9939L55.9001 50.7893L62.2171 43.4277Z" fill="#AAAAAA"/>
<path d="M22.086 42.9411L20.0765 45.438L21.8373 46.9601L21.4692 47.5669L24.4536 50.1832L18.0073 46.7711V45.7962L22.086 42.9411Z" fill="#AAAAAA"/>
<path d="M40.4524 24.4553L37.9554 28.524V30.3545L37.1397 32.2048L36.4931 31.5681L35.2197 34.851L35.5281 38.1338L36.1349 38.5019L38.622 30.7822L40.9398 26.7035L42.0938 25.3009L40.4524 24.4553Z" fill="#AAAAAA"/>
<path d="M29.9847 39.2893L25.5478 42.0946L26.8908 43.4277L26.5824 43.7957L28.0448 46.5911L22.7524 42.025L25.2394 40.9307L29.9847 39.2893Z" fill="#AAAAAA"/>
<path d="M39.3556 23.9684L36.3712 28.3455L36.8586 31.9367L35.5256 29.7482L32.969 32.3546L33.8842 36.4929L31.626 32.2352L34.7298 28.8927L35.8837 27.0025L38.2613 23.3615L39.3556 23.9684Z" fill="#AAAAAA"/>
<path d="M58.4451 24.4553L60.9421 28.524V30.3545L61.7578 32.2048L62.4045 31.5681L63.6778 34.851L63.3694 38.1338L62.7626 38.5019L60.2756 30.7822L57.9577 26.7035L56.8037 25.3009L58.4451 24.4553Z" fill="#AAAAAA"/>
<path d="M59.4795 23.9684L62.4639 28.3455L61.9765 31.9367L63.3095 29.7482L65.8661 32.3546L64.9509 36.4929L67.2091 32.2352L64.1053 28.8927L62.9514 27.0025L60.5738 23.3615L59.4795 23.9684Z" fill="#AAAAAA"/>
<path d="M41.4245 51.3351L36.2018 47.0574L35.8835 46.2815L35.8138 46.7391L35.7044 46.6495L35.8039 46.8286L34.7892 53.4043L32.1729 54.3692L33.3368 55.1651L35.7044 53.4043L36.8584 48.669L39.415 53.1556L45.9807 54.6179V56.4981L40.8276 56.0803L45.9807 59.7909V60.7559L38.8679 58.2092L49.3829 64.4068V52.7278L41.4245 51.3351Z" fill="#AAAAAA"/>
<path d="M49.3813 25.1241L35.4541 16.5489L37.5233 20.9261C37.5233 20.9261 43.3628 22.9953 44.6361 24.4576L49.3813 28.3473L54.1266 24.4576C55.3999 22.9953 61.2394 20.9261 61.2394 20.9261L63.3086 16.5489L49.3813 25.1241Z" fill="#AAAAAA"/>
<path d="M11.3637 21.9119L21.4112 32.1186L22.7443 31.4521L22.0181 32.9741C22.0181 32.9741 23.4804 32.4867 24.2066 32.6657C24.9328 32.8448 25.4203 33.8197 25.4203 33.8197L23.7192 34.6056L22.5055 37.5204L20.9238 37.1523L20.8044 35.0234L9.74219 23.3643L10.4684 22.4491L11.3637 21.9119Z" fill="#AAAAAA"/>
<path d="M10.285 20.2593C10.285 20.2593 10.7724 21.473 11.1405 21.662L9.60849 23.4228L8.69327 23.1144L8.3252 22.5673L9.24041 20.9259L10.285 20.2593Z" fill="#AAAAAA"/>
<path d="M41.5454 19.5933C41.5454 19.5933 42.1522 16.6487 43.1868 16.0717C43.1868 16.0717 42.0926 19.7226 45.0073 21.7819C47.9221 23.8312 49.3845 24.7961 49.3845 24.7961L54.4281 21.3939C54.4281 21.3939 54.7962 20.2996 54.0003 19.086C54.0003 19.086 54.9156 19.0263 54.8559 17.932C54.7962 16.8377 53.2145 15.1068 52.2992 14.7287C52.2992 14.7287 55.5224 14.8581 57.6513 19.6033L49.3845 25.3731L41.5454 19.5933Z" fill="#AAAAAA"/>
<path d="M44.3884 26.4372C44.3884 26.4372 44.3486 27.4121 44.9156 27.9493C45.4826 28.4765 46.9947 29.9488 46.9947 29.9488L44.3784 29.0137L44.2292 29.4514L40.8369 28.9242L40.9563 27.7801L42.4684 25.3727L44.3884 26.4372Z" fill="#AAAAAA"/>
<path d="M54.3095 26.4372C54.3095 26.4372 54.3493 27.4121 53.7823 27.9493C53.2152 28.4865 51.7031 29.9488 51.7031 29.9488L54.3195 29.0137L54.4786 29.4614L57.8709 28.9341L57.7515 27.7901L56.2295 25.3727L54.3095 26.4372Z" fill="#AAAAAA"/>
<path d="M24.1762 34.4846L27.3695 38.802L24.6338 39.6576L22.5049 37.5287L23.3604 35.0317L24.1762 34.4846Z" fill="#AAAAAA"/>
<path d="M68.5602 37.161C68.5602 37.161 68.3513 36.1861 67.7445 35.1714C68.0728 34.4949 68.3513 33.7986 68.5503 33.0823C68.5503 33.0823 67.5953 31.1624 66.8691 31.1624C66.8691 31.1624 66.8591 31.222 66.8293 31.3315L64.1731 28.4863C64.193 28.4266 64.2129 28.357 64.2328 28.2973L60.9898 23.6615C66.7298 21.1347 65.1978 14.6387 65.1978 14.6387L59.04 18.3692C56.0754 12.2312 49.3705 12.0024 49.3705 12.0024C49.3705 12.0024 42.6754 12.2412 39.701 18.3692L33.5332 14.6287C33.5332 14.6287 32.0012 21.1248 37.7412 23.6516L34.4982 28.2874C34.5181 28.357 34.538 28.4167 34.5579 28.4764L31.9017 31.3215C31.8719 31.2121 31.8619 31.1524 31.8619 31.1524C31.1457 31.1524 30.1807 33.0724 30.1807 33.0724C30.3797 33.7886 30.6582 34.485 30.9865 35.1615C30.6284 35.7583 30.4095 36.3453 30.2901 36.7233L28.3602 34.5745C28.4199 33.8583 28.4299 33.0326 28.1712 32.6645C27.833 32.1572 26.5596 30.7147 24.9978 30.8838L14.4927 20.9358C14.4927 20.9358 14.4628 18.9661 12.7219 18.9661C10.981 18.9661 7.73796 21.2143 7.98666 22.4578C8.23537 23.7013 8.61339 24.139 9.41918 24.4176L9.42913 24.3977L20.5212 35.4897C20.173 36.0568 19.9144 36.8626 20.4515 37.6684C20.4515 37.6684 20.9489 38.6632 22.9485 38.1658L23.9334 39.3894C18.83 42.3141 15.7262 46.8902 15.7262 46.8902L49.3804 69.0743L83.0346 46.8902C83.0147 46.8902 77.2846 38.4145 68.5602 37.161ZM68.9283 39.5386C68.9283 39.5386 72.052 40.3941 75.2155 42.1549L68.6796 48.0143L63.5265 46.2237L68.9283 39.5386ZM66.4711 32.2168C66.3717 32.5551 66.2423 32.9828 66.0732 33.4703C65.9041 33.9577 65.6852 34.4949 65.4166 35.0321C64.8297 36.216 63.9841 37.4197 62.7804 38.116C62.7804 38.116 62.7506 37.9768 62.6909 37.7281C62.5317 37.0516 62.1437 35.5594 61.527 33.7488C61.4175 33.4106 61.2882 33.0724 61.1589 32.7142C61.895 32.1671 62.9794 31.4508 63.7354 29.4712L66.4711 32.2168ZM63.0291 28.2973C63.0291 28.7151 62.3526 31.4807 61.1489 32.6944C60.2238 30.2073 58.9206 27.3622 57.1996 25.3229C58.2043 24.7658 59.1991 24.2982 60.1044 23.9898C60.7908 24.8951 63.0291 27.8894 63.0291 28.2973ZM52.1062 45.2786C52.1062 45.2786 50.5443 46.8405 49.3705 46.8405C48.1966 46.8405 46.6348 45.2786 46.6348 45.2786H48.1966C48.1966 45.2786 47.4107 45.2786 44.675 42.145C42.3372 39.469 41.1335 34.5049 40.8351 33.1221C43.0435 34.6143 49.3705 36.2756 49.3705 36.2756C49.3705 36.2756 55.6974 34.6143 57.9059 33.1221C57.6074 34.5049 56.4137 39.469 54.0659 42.145C51.3302 45.2786 50.5443 45.2786 50.5443 45.2786H52.1062ZM42.8844 26.8549C42.7849 26.4569 42.7252 26.1784 42.6953 25.9993C46.1175 28.0486 49.3605 30.6948 49.3605 30.6948C49.3605 30.6948 52.6036 28.0586 56.0257 25.9993C55.9959 26.1883 55.9362 26.4569 55.8367 26.8549C55.5979 27.8099 53.2005 29.2523 53.2005 29.2523L56.9608 27.4816C57.11 27.7502 57.2692 28.0387 57.4284 28.367C51.9072 29.6105 49.3605 32.6148 49.3605 32.6148C49.3605 32.6148 46.8238 29.6204 41.2927 28.367C41.4518 28.0486 41.611 27.7502 41.7602 27.4816L45.5206 29.2523C45.5206 29.2523 43.1231 27.8099 42.8844 26.8549ZM57.5776 32.754C57.5776 32.754 50.9224 35.4897 49.3605 35.4897C47.7987 35.4897 41.1435 32.754 41.1435 32.754C40.7555 31.5802 42.5362 29.7398 42.5362 29.7398C45.1824 30.6649 49.2014 32.3661 49.3605 34.296C49.5197 32.3661 53.5486 30.6649 56.1849 29.7398C56.1948 29.7298 57.9755 31.5802 57.5776 32.754ZM39.6413 34.4253C39.6413 34.4253 40.9743 39.469 42.6158 42.3439C41.7005 41.4486 40.9345 40.424 40.3277 39.4491C39.4722 38.0862 38.9151 36.8029 38.6266 36.0866C39.0842 33.52 39.9497 31.232 40.7754 29.4513L39.6413 34.4253ZM59.0798 34.4253L57.9556 29.4513C58.7813 31.232 59.6368 33.52 60.1044 36.0866C59.8159 36.8029 59.2588 38.0762 58.4033 39.4491C57.7965 40.424 57.0305 41.4486 56.1152 42.3439C57.7467 39.459 59.0798 34.4253 59.0798 34.4253ZM49.3605 13.1863C55.4885 13.1863 57.4383 17.7126 57.886 19.0456L49.3605 24.2087V19.4137C49.3605 20.8562 48.1568 21.3337 48.1568 21.3337L47.5002 23.0846L40.8351 19.0456C41.2827 17.7126 43.2325 13.1863 49.3605 13.1863ZM34.4982 16.3L49.3605 25.8899L64.2229 16.3C64.2229 20.8562 60.8704 22.7762 60.8704 22.7762C55.1204 24.2186 49.3605 29.7298 49.3605 29.7298C49.3605 29.7298 43.6106 24.2186 37.8507 22.7762C37.8507 22.7762 34.4982 20.8562 34.4982 16.3ZM38.6167 23.9898C39.5219 24.2982 40.5167 24.7658 41.5215 25.3229C39.8005 27.3622 38.4873 30.1974 37.5721 32.6944C36.3783 31.4707 35.6919 28.7151 35.6919 28.2973C35.6919 27.8894 37.9402 24.8951 38.6167 23.9898ZM34.9757 29.4911C35.7417 31.4707 36.8161 32.187 37.5522 32.7341C37.4229 33.0823 37.3035 33.4305 37.1841 33.7687C36.5674 35.5693 36.1794 37.0715 36.0202 37.7479C35.9605 37.9967 35.9307 38.1359 35.9307 38.1359C34.727 37.4296 33.8814 36.2358 33.2945 35.052C33.0259 34.5148 32.807 33.9776 32.6379 33.4902C32.4688 33.0027 32.3394 32.575 32.24 32.2367L34.9757 29.4911ZM8.73277 22.2091C8.98147 21.463 11.4784 19.4635 12.7219 19.7122C13.3188 19.8315 13.09 20.5279 13.09 20.5279C12.334 20.697 10.593 21.2641 9.42913 23.1144C9.071 22.995 8.56365 22.7165 8.73277 22.2091ZM22.4014 37.161C22.1427 37.1113 20.5013 36.7432 21.1877 34.674L10.0459 23.5322C10.4339 22.6269 11.3193 21.4929 13.3685 21.1148L23.8339 31.3315C23.4559 31.5802 23.0778 31.9284 22.6899 32.4258C22.6899 32.4258 25.4355 31.6796 26.1816 32.4258C26.9277 33.1719 26.4303 33.6693 26.4303 33.6693C26.4303 33.6693 23.6847 33.1719 22.9386 35.4102C22.5406 36.6139 22.4213 37.0317 22.4014 37.161ZM22.9386 37.4197C22.9386 37.4197 23.1873 33.4305 27.1764 34.9227L27.6141 35.3604L29.176 37.35C27.4649 37.7082 25.8732 38.3349 24.4308 39.1108L24.4606 39.0909L22.9386 37.4197ZM29.7927 39.5386L35.1945 46.2237L30.0414 48.0143L23.5056 42.1549C26.6691 40.3842 29.7927 39.5386 29.7927 39.5386ZM18.3227 46.5122C19.2379 45.1692 20.561 44.0252 21.9835 43.0801L29.7927 49.5065L34.7767 47.0096L32.0311 49.5065L32.7772 50.5013L29.4446 52.7197L18.3227 46.5122ZM48.4851 58.4796L40.5068 55.9827L48.4851 60.2206V63.3442L32.7374 54.5601L35.7715 53.4857V46.93L40.2581 52.481L48.4851 54.0826V58.4796ZM49.2411 48.263L47.2515 47.2682V48.5117L43.9985 46.7609L42.5063 50.0039L32.041 37.7877C32.041 37.7877 31.8619 37.4296 31.9316 36.8725C34.5877 41.0606 38.8156 44.1147 38.8156 44.1147C38.4077 42.523 38.2585 40.9313 38.2884 39.3993L40.2581 40.802C43.6404 46.0546 49.3705 47.6164 49.3705 47.6164C49.3705 47.6164 55.0906 46.0446 58.4829 40.802L60.4426 39.3993C60.4725 40.9313 60.3233 42.523 59.9154 44.1147C59.9154 44.1147 64.1334 41.0606 66.7994 36.8725C66.8691 37.4296 66.69 37.7877 66.69 37.7877L56.2147 50.0039L54.7225 46.7609L51.4795 48.5018V47.2583L49.4898 48.2531H49.2411V48.263ZM50.236 63.3542V60.2305L58.2143 55.9926L50.236 58.4896V54.1025L58.463 52.5009L62.9495 46.9499V53.5056L65.9837 54.58L50.236 63.3542ZM65.9439 50.5013L66.69 49.5065L63.9443 47.0096L68.9283 49.5065L76.7375 43.0801C78.1601 44.0252 79.4832 45.1692 80.3984 46.5122L69.2765 52.7197L65.9439 50.5013Z" fill="#AAAAAA"/>
<path d="M37.2876 51.148L38.9887 53.834L43.8533 54.9283V55.6445L38.8096 54.6199C38.8096 54.6199 37.2876 53.6251 37.2876 51.148Z" fill="#AAAAAA"/>
<path d="M35.8838 55.5346L40.5693 58.0813L42.3301 58.6882L40.1415 56.7483L36.6199 55.1666L35.8838 55.5346Z" fill="#AAAAAA"/>
<path d="M36.3047 18.3181L37.5382 20.9245L40.841 22.2377C40.831 22.2377 36.4639 22.944 36.3047 18.3181Z" fill="#AAAAAA"/>
<path d="M62.4753 18.3181L61.2417 20.9245L57.939 22.2377C57.9489 22.2377 62.3161 22.944 62.4753 18.3181Z" fill="#AAAAAA"/>
<path d="M87.8996 68.228C87.8996 68.228 69.0978 60.6078 49.1818 60.5978C49.1719 60.5978 49.1619 60.5978 49.152 60.5978C49.142 60.5978 49.1321 60.5978 49.1221 60.5978C29.2062 60.6078 13.6972 67.1635 13.6972 67.1635L12.4935 72.3663L7.23096 74.4455L11.1505 79.9965L9.7876 87.3182C28.271 79.9965 47.9483 80.3148 49.1321 80.3347C49.1321 80.3347 49.142 80.3347 49.1619 80.3347C49.1818 80.3347 49.1918 80.3347 49.1918 80.3347C50.3756 80.3049 74.4498 81.628 92.9333 88.9497L87.8996 68.228Z" fill="#AAAAAA"/>
<path d="M16.4173 68.6462C16.0492 70.4169 15.6811 72.1777 15.313 73.9485C14.0098 74.3762 12.7166 74.8239 11.4233 75.2915C12.0998 76.2863 12.7862 77.2711 13.4826 78.256C13.8805 78.1266 14.0795 78.057 14.4774 77.9277C14.1093 79.6984 13.7412 81.4592 13.3732 83.23C14.3978 82.9017 15.4324 82.5734 16.467 82.265C16.8052 80.5042 17.1435 78.7534 17.4717 76.9926C18.4665 76.6941 19.4713 76.4156 20.476 76.147C20.1677 77.8978 19.8692 79.6387 19.5608 81.3896C20.5954 81.1111 21.63 80.8524 22.6746 80.6037C23.4207 75.8187 24.1767 71.0337 24.9228 66.2487C22.0777 66.9351 19.2325 67.7409 16.4173 68.6462ZM21.1824 72.2076C20.1975 72.4762 19.2226 72.7448 18.2477 73.0332C18.3273 72.5955 18.4168 72.1578 18.4964 71.7201C19.4614 71.4316 20.4363 71.163 21.4112 70.8944C21.3316 71.3321 21.2619 71.7699 21.1824 72.2076Z" fill="#AAAAAA"/>
<path d="M34.1253 68.2787C34.2546 66.9855 34.374 65.7022 34.5033 64.409C31.6184 64.8367 28.7434 65.364 25.8983 66.0106C25.4407 69.0547 24.9831 72.0888 24.5255 75.1329C26.535 74.6753 28.5544 74.2675 30.5938 73.9193C30.544 74.347 30.4943 74.7848 30.4445 75.2125C28.3952 75.5707 26.3559 75.9785 24.3364 76.4361C24.1375 77.7393 23.9385 79.0425 23.7495 80.3457C26.8632 79.6394 29.9869 79.0525 33.1405 78.5949C33.4289 75.5806 33.7274 72.5763 34.0159 69.562C32.0263 69.8505 30.0566 70.1987 28.0769 70.5867C28.1366 70.1589 28.1963 69.7212 28.246 69.2934C30.1958 68.9154 32.1556 68.5772 34.1253 68.2787Z" fill="#AAAAAA"/>
<path d="M45.0751 63.4335C45.0254 65.1446 44.9756 66.8556 44.9259 68.5567C44.5976 68.5667 44.2594 68.5866 43.9311 68.6065C43.6127 68.6264 43.2944 68.6463 42.9761 68.6662C42.9064 68.6662 42.8368 68.6761 42.7572 68.6761C42.6179 68.6861 42.4886 68.696 42.3493 68.706C41.8818 68.7358 41.4142 68.7657 40.9467 68.8055C39.9519 68.885 38.9571 68.9746 37.9623 69.074C37.9921 68.6463 38.0219 68.2185 38.0518 67.7908C40.0215 67.5818 41.9912 67.4326 43.9709 67.3232C44.0107 66.0399 44.0604 64.7566 44.1002 63.4733C41.2053 63.6325 38.3204 63.8911 35.4454 64.2791C35.1768 67.2834 34.8983 70.2877 34.6297 73.302C36.6591 73.0334 38.6885 72.8145 40.7278 72.6553C40.7079 73.0831 40.6781 73.5109 40.6582 73.9386C38.5989 74.1078 36.5496 74.3266 34.5103 74.5952C34.3909 75.8885 34.2815 77.1718 34.1621 78.465C37.2957 78.0472 40.4493 77.7587 43.6127 77.5896C43.6724 75.8785 43.7321 74.1674 43.7918 72.4663C44.1997 72.4464 44.3986 72.4365 44.8065 72.4166C44.7568 74.1277 44.707 75.8387 44.6573 77.5398C45.7118 77.5 46.7563 77.4702 47.8108 77.4503C47.8307 75.7392 47.8407 74.0381 47.8606 72.3271C48.8753 72.3171 49.8999 72.3171 50.9146 72.3271C50.9345 74.0381 50.9444 75.7392 50.9643 77.4503C52.0188 77.4702 53.0634 77.5 54.1179 77.5398C53.9885 72.8444 53.8493 68.1389 53.7199 63.4435C50.845 63.3241 47.96 63.3241 45.0751 63.4335ZM47.9103 68.4772C47.9103 68.0494 47.9202 67.6216 47.9202 67.1939C48.9051 67.1839 49.8899 67.1839 50.8848 67.1939C50.8848 67.6216 50.8947 68.0494 50.8947 68.4772C49.8999 68.4672 48.9051 68.4672 47.9103 68.4772Z" fill="#AAAAAA"/>
<path d="M57.8637 68.7944C57.8438 68.3666 57.8139 67.9388 57.794 67.5111C59.7737 67.6703 61.7335 67.8792 63.7032 68.1378C63.5838 66.8446 63.4744 65.5613 63.355 64.268C60.48 63.89 57.5951 63.6214 54.7002 63.4622C54.7997 66.4566 54.9091 69.441 55.0086 72.4354C57.0479 72.5448 59.0873 72.704 61.1167 72.9129C61.1465 73.3406 61.1764 73.7684 61.2062 74.1962C59.1569 73.9873 57.1076 73.8181 55.0484 73.7087C55.0882 74.992 55.1379 76.2753 55.1777 77.5586C58.3412 77.7277 61.4848 78.0162 64.6283 78.434C64.3597 75.4297 64.0812 72.4254 63.8126 69.4112C61.8429 69.1724 59.8533 68.9635 57.8637 68.7944Z" fill="#AAAAAA"/>
<path d="M67.7814 70.0395C67.7317 69.6118 67.682 69.1741 67.6322 68.7463C69.6019 69.0945 71.5617 69.4825 73.5016 69.9202C73.3026 68.617 73.1036 67.3138 72.9146 66.0106C70.0695 65.364 67.2044 64.8268 64.3096 64.409C64.5981 67.4232 64.8965 70.4275 65.185 73.4418C67.2243 73.7402 69.2438 74.0884 71.2632 74.4863C71.3229 74.9141 71.3826 75.3518 71.4324 75.7796C69.403 75.3717 67.3537 75.0235 65.3044 74.7251C65.4337 76.0183 65.5531 77.3016 65.6824 78.5949C68.8359 79.0525 71.9696 79.6394 75.0733 80.3457C74.6157 77.3016 74.1581 74.2675 73.7005 71.2234C71.7408 70.7857 69.771 70.3877 67.7814 70.0395Z" fill="#AAAAAA"/>
<path d="M73.8682 66.2389C74.6143 71.0239 75.3703 75.8089 76.1164 80.5939C77.161 80.8426 78.1956 81.1112 79.2301 81.3798C78.3945 76.5749 77.5589 71.77 76.7133 66.9552C75.7682 66.7065 74.8232 66.4677 73.8682 66.2389Z" fill="#AAAAAA"/>
<path d="M89.4566 84.3939C88.1235 78.6042 87.4869 75.7392 86.1538 69.9494C85.2187 69.6112 84.2836 69.2829 83.3385 68.9646C83.7166 70.7353 84.0946 72.506 84.4726 74.2768C82.0353 71.0636 80.6426 70.3175 77.6582 67.1341C78.6829 72.8244 79.2399 75.9779 80.2646 81.6781C81.2992 81.9666 82.3338 82.2651 83.3684 82.5834C83.0202 80.8226 82.672 79.0618 82.3238 77.301C85.6962 80.355 86.8402 81.0514 89.4566 84.3939Z" fill="#AAAAAA"/>
<path d="M85.8312 77.2507L85.5228 75.8181C85.1846 75.7187 84.8464 75.6192 84.5181 75.5197L85.8312 77.2507Z" fill="#AAAAAA"/>
<path d="M13.7687 77.4118C13.9179 77.362 14.0672 77.3123 14.2661 77.2526L15.44 76.8746L14.3358 82.1769C14.8431 82.0177 15.3505 81.8586 15.8578 81.7093L16.8725 76.4369L17.2903 76.3175C18.2951 76.0191 19.3098 75.7405 20.3145 75.462L21.3989 75.1735L20.4836 80.426C21.0109 80.2868 21.5381 80.1575 22.0753 80.0281L23.2293 72.6865C19.7773 73.4724 16.1861 74.4771 12.6147 75.7505C12.9828 76.2877 13.3708 76.8547 13.7687 77.4118Z" fill="#AAAAAA"/>
<path d="M25.3785 74.218C27.0697 73.85 28.7708 73.5117 30.4619 73.2232L31.407 73.0541L31.0887 75.8296L30.5614 75.9191C28.7011 76.2474 26.811 76.6155 24.9607 77.0333L24.6025 79.4308C27.2089 78.8638 29.8551 78.3763 32.4814 77.9784L33.1678 70.8755C30.8201 71.1938 28.3132 71.6116 25.7068 72.1389L25.3785 74.218Z" fill="#AAAAAA"/>
<path d="M49.2628 69.7812C49.2628 69.7812 49.2528 69.7812 49.2329 69.7812C49.2131 69.7812 49.2031 69.7812 49.2031 69.7812C48.6062 69.7713 43.2044 69.6817 35.6041 70.5671L35.435 72.4871C37.1759 72.2682 38.9467 72.0892 40.6876 71.9499L41.5033 71.8803L41.3541 74.606L40.7274 74.6558C38.887 74.805 37.0168 75.0039 35.1764 75.2328L34.9575 77.6402C37.6037 77.3119 40.2698 77.0632 42.9259 76.914L43.105 71.7808L43.7615 71.7509C44.1694 71.731 44.3684 71.7211 44.7862 71.7012L45.5522 71.6714L45.403 76.8045C45.97 76.7846 46.547 76.7647 47.114 76.7548L47.1638 71.6216L47.8601 71.6117C48.8848 71.6017 49.9194 71.6017 50.9341 71.6117L51.6304 71.6216L51.6802 76.7548C52.2472 76.7647 52.8242 76.7846 53.3912 76.8045L53.2022 70.0299C50.954 69.831 49.5314 69.7713 49.2628 69.7812Z" fill="#AAAAAA"/>
<path d="M55.698 71.7709C57.5284 71.8803 59.3688 72.0296 61.1893 72.2186L61.7862 72.2783L61.9852 75.014L61.1396 74.9244C59.3688 74.7354 57.5782 74.5962 55.7975 74.4867L55.8771 76.8942C58.5232 77.0533 61.1993 77.2921 63.8454 77.6204L63.2585 71.1143C60.3835 70.7164 57.797 70.4279 55.6582 70.219L55.698 71.7709Z" fill="#AAAAAA"/>
<path d="M65.8356 72.8149C67.6859 73.0935 69.5561 73.4217 71.3965 73.7898L71.8939 73.8893L72.262 76.6847L71.2871 76.4857C69.5661 76.1475 67.8252 75.8391 66.0942 75.5705L66.323 77.9779C68.9493 78.3759 71.5855 78.8633 74.2019 79.4303L73.1971 72.805C70.5907 72.2877 68.0639 71.8599 65.6963 71.4918L65.8356 72.8149Z" fill="#AAAAAA"/>
<path d="M76.7496 80.0163C77.2769 80.1456 77.8041 80.2749 78.3413 80.4142L77.1575 73.6396C76.67 73.5301 76.1826 73.4207 75.7051 73.3212L76.7496 80.0163Z" fill="#AAAAAA"/>
<path d="M86.8462 76.2279C86.4085 76.0886 85.9609 75.9593 85.5231 75.82L85.8315 77.2526L84.5184 75.5216C82.8969 75.054 81.2753 74.6263 79.6538 74.2284C79.6538 74.2483 79.6638 74.2582 79.6638 74.2781C80.0318 76.3373 80.4099 78.4662 80.8874 81.1124C81.4047 81.2616 81.922 81.4108 82.4293 81.5601L81.2057 75.3127L82.8073 76.7651C83.5634 77.4515 84.21 78.0186 84.777 78.5259C86.0603 79.66 87.0154 80.4956 88.0997 81.6794C87.7416 80.0977 87.4232 78.705 87.1049 77.3421C87.0154 76.9641 86.9358 76.596 86.8462 76.2279Z" fill="#AAAAAA"/>
</svg>
