<svg width="70" height="70" viewBox="0 0 70 70" fill="none" xmlns="http://www.w3.org/2000/svg">
<circle cx="35" cy="35" r="34" stroke="#5079FF" stroke-width="2"/>
<path d="M51.4874 20.4075L35.3498 15.0471C35.1612 14.9843 34.9576 14.9843 34.769 15.0471L18.6315 20.4075C18.2543 20.5332 18 20.8847 18 21.2833V34.4271C18 39.3632 20.178 44.2521 24.1333 48.1945C25.6577 49.7125 27.8214 51.3883 30.0709 52.792C31.3931 53.6163 33.7983 55 35.0605 55C36.3227 55 38.7279 53.6163 40.0509 52.792C42.2982 51.389 44.4619 49.7125 45.9877 48.1945C49.943 44.2521 52.1217 39.3632 52.1217 34.4271V21.2833C52.121 20.8854 51.8653 20.5332 51.4874 20.4075ZM25.4355 46.8873C21.8303 43.2942 19.8437 38.8689 19.8437 34.4271V21.9476L34.1411 17.198V52.892C32.2082 52.1019 28.1686 49.611 25.4355 46.8873ZM50.2759 34.4271C50.2759 38.8689 48.29 43.2942 44.684 46.8873C41.9503 49.611 37.9128 52.1005 35.9791 52.892V17.198L50.2759 21.9476V34.4271Z" fill="white"/>
</svg>
