<svg width="110" height="43" viewBox="0 0 110 43" fill="none" xmlns="http://www.w3.org/2000/svg">
<rect opacity="0.2" x="60" width="50" height="43" rx="3" fill="#7787B8"/>
<rect opacity="0.2" width="50" height="43" rx="3" fill="#7787B8"/>
<path d="M78.2368 12.8026C78.2368 12.6076 78.3233 12.4343 78.4534 12.3043L79.5366 11.221C79.6666 11.0911 79.8616 11.0044 80.0349 11.0044C80.2082 11.0044 80.4032 11.0911 80.5332 11.221L90.6291 21.3169C90.759 21.4469 90.8457 21.6419 90.8457 21.8152C90.8457 21.9885 90.759 22.1835 90.6291 22.3135L80.5332 32.4093C80.4032 32.5394 80.2082 32.6259 80.0349 32.6259C79.8616 32.6259 79.6666 32.5394 79.5366 32.4093L78.4534 31.3261C78.3233 31.1961 78.2368 31.0012 78.2368 30.8278C78.2368 30.6545 78.3233 30.4595 78.4534 30.3295L86.9677 21.8152L78.4534 13.3009C78.3233 13.1709 78.2368 12.9759 78.2368 12.8026Z" fill="white"/>
<path d="M31.7632 12.8026C31.7632 12.6076 31.6767 12.4343 31.5466 12.3043L30.4634 11.221C30.3334 11.0911 30.1384 11.0044 29.9651 11.0044C29.7918 11.0044 29.5968 11.0911 29.4668 11.221L19.3709 21.3169C19.241 21.4469 19.1543 21.6419 19.1543 21.8152C19.1543 21.9885 19.241 22.1835 19.3709 22.3135L29.4668 32.4093C29.5968 32.5394 29.7918 32.6259 29.9651 32.6259C30.1384 32.6259 30.3334 32.5394 30.4634 32.4093L31.5466 31.3261C31.6767 31.1961 31.7632 31.0012 31.7632 30.8278C31.7632 30.6545 31.6767 30.4595 31.5466 30.3295L23.0323 21.8152L31.5466 13.3009C31.6767 13.1709 31.7632 12.9759 31.7632 12.8026Z" fill="#999999"/>
</svg>
