<svg width="176" height="20" viewBox="0 0 176 20" fill="none" xmlns="http://www.w3.org/2000/svg">
<path d="M57.667 1.66626H42.3337C41.9649 1.66626 41.667 1.96418 41.667 2.33293V17.6663C41.667 18.035 41.9649 18.3329 42.3337 18.3329H57.667C58.0357 18.3329 58.3337 18.035 58.3337 17.6663V2.33293C58.3337 1.96418 58.0357 1.66626 57.667 1.66626ZM54.4857 7.70168C54.492 7.79959 54.492 7.90168 54.492 8.00168C54.492 11.06 52.1628 14.5829 47.9066 14.5829C46.5941 14.5829 45.3774 14.2017 44.3524 13.5454C44.5399 13.5663 44.7191 13.5746 44.9107 13.5746C45.9941 13.5746 46.9899 13.2079 47.7837 12.5871C46.767 12.5663 45.9128 11.8996 45.6212 10.9829C45.9774 11.035 46.2982 11.035 46.6649 10.9413C46.1414 10.8349 45.6709 10.5506 45.3333 10.1366C44.9957 9.72268 44.8118 9.20461 44.8128 8.67043V8.64126C45.1191 8.81418 45.4795 8.92043 45.8566 8.93501C45.5396 8.72375 45.2796 8.43753 45.0997 8.10174C44.9198 7.76594 44.8256 7.39095 44.8253 7.01001C44.8253 6.57876 44.9378 6.18501 45.1399 5.84334C45.721 6.55863 46.446 7.14364 47.268 7.56035C48.0899 7.97707 48.9903 8.21616 49.9107 8.26209C49.5837 6.68918 50.7587 5.41626 52.1712 5.41626C52.8378 5.41626 53.4378 5.69543 53.8607 6.14543C54.3837 6.04751 54.8837 5.85168 55.3295 5.58918C55.1566 6.12459 54.7941 6.57668 54.3128 6.86209C54.7795 6.81209 55.2295 6.68293 55.6462 6.50168C55.3316 6.96418 54.9378 7.37459 54.4857 7.70168Z" fill="#AAAAAA"/>
<path d="M17.667 1.66626H2.33366C1.96491 1.66626 1.66699 1.96418 1.66699 2.33293V17.6663C1.66699 18.035 1.96491 18.3329 2.33366 18.3329H17.667C18.0357 18.3329 18.3337 18.035 18.3337 17.6663V2.33293C18.3337 1.96418 18.0357 1.66626 17.667 1.66626ZM15.742 6.53084H14.4107C13.367 6.53084 13.1649 7.02668 13.1649 7.75584V9.36209H15.6566L15.3316 11.8767H13.1649V18.3329H10.567V11.8788H8.39407V9.36209H10.567V7.50793C10.567 5.35584 11.8816 4.18293 13.8024 4.18293C14.7232 4.18293 15.5128 4.25168 15.7441 4.28293V6.53084H15.742Z" fill="#AAAAAA"/>
<path d="M137.986 6.11889C137.891 5.74078 137.705 5.39597 137.446 5.11896C137.188 4.84195 136.866 4.64246 136.513 4.54046C135.212 4.16626 130 4.16626 130 4.16626C130 4.16626 124.788 4.16626 123.488 4.53847C123.135 4.64014 122.812 4.83952 122.554 5.11658C122.295 5.39364 122.109 5.73862 122.015 6.1169C121.667 7.51021 121.667 10.4163 121.667 10.4163C121.667 10.4163 121.667 13.3223 122.015 14.7136C122.206 15.4819 122.772 16.087 123.488 16.2921C124.788 16.6663 130 16.6663 130 16.6663C130 16.6663 135.212 16.6663 136.513 16.2921C137.231 16.087 137.794 15.4819 137.986 14.7136C138.334 13.3223 138.334 10.4163 138.334 10.4163C138.334 10.4163 138.334 7.51021 137.986 6.11889ZM128.345 13.0835V7.74906L132.66 10.3964L128.345 13.0835Z" fill="#AAAAAA"/>
<path d="M89.9982 7.22063C88.468 7.22063 87.2193 8.46939 87.2193 9.99959C87.2193 11.5298 88.468 12.7786 89.9982 12.7786C91.5284 12.7786 92.7772 11.5298 92.7772 9.99959C92.7772 8.46939 91.5284 7.22063 89.9982 7.22063ZM98.333 9.99959C98.333 8.84881 98.3435 7.70846 98.2788 6.55977C98.2142 5.22553 97.9098 4.0414 96.9342 3.06574C95.9564 2.088 94.7744 1.78571 93.4401 1.72108C92.2894 1.65646 91.149 1.66688 90.0003 1.66688C88.8495 1.66688 87.7092 1.65646 86.5605 1.72108C85.2263 1.78571 84.0421 2.09008 83.0665 3.06574C82.0887 4.04349 81.7864 5.22553 81.7218 6.55977C81.6572 7.71055 81.6676 8.8509 81.6676 9.99959C81.6676 11.1483 81.6572 12.2907 81.7218 13.4394C81.7864 14.7737 82.0908 15.9578 83.0665 16.9334C84.0442 17.9112 85.2263 18.2135 86.5605 18.2781C87.7113 18.3427 88.8516 18.3323 90.0003 18.3323C91.1511 18.3323 92.2915 18.3427 93.4401 18.2781C94.7744 18.2135 95.9585 17.9091 96.9342 16.9334C97.9119 15.9557 98.2142 14.7737 98.2788 13.4394C98.3455 12.2907 98.333 11.1504 98.333 9.99959ZM89.9982 14.2754C87.6321 14.2754 85.7224 12.3658 85.7224 9.99959C85.7224 7.63341 87.6321 5.72379 89.9982 5.72379C92.3644 5.72379 94.274 7.63341 94.274 9.99959C94.274 12.3658 92.3644 14.2754 89.9982 14.2754ZM94.4492 6.54726C93.8967 6.54726 93.4506 6.10112 93.4506 5.54867C93.4506 4.99621 93.8967 4.55008 94.4492 4.55008C95.0016 4.55008 95.4478 4.99621 95.4478 5.54867C95.4479 5.67985 95.4222 5.80978 95.3721 5.93101C95.322 6.05224 95.2484 6.16239 95.1556 6.25515C95.0629 6.34791 94.9527 6.42146 94.8315 6.47158C94.7103 6.52171 94.5803 6.54742 94.4492 6.54726Z" fill="#AAAAAA"/>
<path d="M159.554 2.49951L158.5 5.19618V16.2153H162.252V17.4995L164.361 18.2078L166.354 16.2153H169.403L173.505 12.112V2.49951H159.554ZM172.097 11.4087L169.753 13.7537H166.002L164.009 15.7462V13.7537H160.844V3.90618H172.097V11.4087ZM169.754 6.60285V10.7053H168.348V6.60285H169.754ZM166.003 6.60285V10.7053H164.596V6.60285H166.003Z" fill="#AAAAAA"/>
</svg>
