<svg width="150" height="48" viewBox="0 0 150 48" fill="none" xmlns="http://www.w3.org/2000/svg">
<path d="M47.9897 18.0306H51.1997V31.0306H47.9897V18.0306ZM52.4797 26.1406C52.4797 22.9206 54.4797 20.9906 57.4797 20.9906C60.4797 20.9906 62.4797 22.9206 62.4797 26.1406C62.4797 29.3606 60.5497 31.3106 57.4797 31.3106C54.4097 31.3106 52.4797 29.4306 52.4797 26.1406ZM59.2997 26.1406C59.2997 24.3706 58.6097 23.3306 57.5097 23.3306C56.4097 23.3306 55.7297 24.3306 55.7297 26.1406C55.7297 27.9506 56.4097 28.9406 57.5097 28.9406C58.6097 28.9406 59.3197 27.9506 59.3197 26.1506L59.2997 26.1406ZM63.7597 31.7006H66.8597C67.0009 32.0344 67.2473 32.3128 67.5615 32.4933C67.8757 32.6739 68.2403 32.7467 68.5998 32.7006C69.8298 32.7006 70.4697 32.0406 70.4697 31.0606V29.2606H70.4797C70.2149 29.8211 69.7865 30.2883 69.251 30.6006C68.7155 30.913 68.098 31.0559 67.4797 31.0106C65.1297 31.0106 63.5697 29.2206 63.5697 26.1406C63.5697 23.0606 65.0597 21.1406 67.5697 21.1406C68.2039 21.1067 68.8329 21.2702 69.3702 21.6087C69.9075 21.9472 70.3266 22.444 70.5697 23.0306H70.4797V21.2206H73.6597V30.9606C73.6597 33.3106 71.5797 34.7806 68.5197 34.7806C65.7397 34.7706 63.9598 33.5006 63.7798 31.7106L63.7597 31.7006ZM70.4797 26.1406C70.4797 24.5706 69.7597 23.5806 68.6197 23.5806C67.4797 23.5806 66.7798 24.5806 66.7798 26.1406C66.7798 27.7006 67.4697 28.6206 68.6197 28.6206C69.7697 28.6206 70.4797 27.7706 70.4797 26.1406ZM74.9297 26.1406C74.9297 22.9206 76.9297 20.9906 79.9297 20.9906C82.9297 20.9906 84.9297 22.9206 84.9297 26.1406C84.9297 29.3606 82.9897 31.3106 79.9297 31.3106C76.8697 31.3106 74.9497 29.4306 74.9497 26.1406H74.9297ZM81.7497 26.1406C81.7497 24.3706 81.0498 23.3306 79.9598 23.3306C78.8698 23.3306 78.1797 24.3306 78.1797 26.1406C78.1797 27.9506 78.8598 28.9406 79.9598 28.9406C81.0597 28.9406 81.7697 27.9506 81.7697 26.1506L81.7497 26.1406ZM86.2297 18.8506C86.2158 18.5236 86.3 18.2 86.4715 17.9212C86.643 17.6425 86.894 17.4214 87.1921 17.2865C87.4903 17.1516 87.822 17.1089 88.1446 17.1641C88.4672 17.2192 88.7659 17.3696 89.0024 17.596C89.2388 17.8223 89.4021 18.1142 89.4712 18.4341C89.5404 18.7539 89.5122 19.0872 89.3904 19.391C89.2686 19.6947 89.0587 19.9551 88.7877 20.1386C88.5167 20.3221 88.197 20.4203 87.8697 20.4206C87.6606 20.4259 87.4525 20.3897 87.2574 20.3139C87.0624 20.2381 86.8844 20.1244 86.7337 19.9792C86.583 19.8341 86.4626 19.6605 86.3795 19.4685C86.2964 19.2764 86.2523 19.0698 86.2497 18.8606L86.2297 18.8506ZM86.2297 21.2106H89.4797V31.0706H86.2798L86.2297 21.2106ZM101.17 26.1406C101.17 29.3506 99.7298 31.2106 97.2798 31.2106C96.6525 31.2493 96.0285 31.0946 95.492 30.7673C94.9555 30.4401 94.5324 29.956 94.2798 29.3806H94.2197V34.2406H91.0097V21.2406H94.1997V23.0006H94.2597C94.5037 22.4139 94.9227 21.9166 95.4596 21.5766C95.9964 21.2366 96.625 21.0704 97.2597 21.1006C99.7797 21.0806 101.23 22.9306 101.23 26.1506L101.17 26.1406ZM97.8997 26.1406C97.8997 24.5806 97.1697 23.5706 96.0397 23.5706C94.9097 23.5706 94.1997 24.5706 94.1897 26.1406C94.1797 27.7106 94.9097 28.7006 96.0397 28.7006C97.1697 28.7006 97.9598 27.7706 97.9598 26.1506L97.8997 26.1406ZM106.65 20.9806C109.34 20.9806 111.01 22.2506 111.03 24.2906H108.1C108.1 23.5806 107.51 23.1406 106.63 23.1406C105.75 23.1406 105.33 23.4806 105.33 23.9906C105.33 24.5006 105.7 24.6606 106.44 24.8106L108.5 25.2306C110.5 25.6506 111.3 26.4506 111.3 27.9406C111.3 29.9406 109.45 31.3006 106.7 31.3006C103.95 31.3006 102.16 29.9806 102.03 27.9706H105.14C105.23 28.7006 105.81 29.1306 106.75 29.1306C107.69 29.1306 108.13 28.8306 108.13 28.3006C108.13 27.7706 107.83 27.6806 107.06 27.5206L105.2 27.1306C103.27 26.7206 102.26 25.7106 102.26 24.2006C102.32 22.2406 104 20.9906 106.71 20.9906L106.65 20.9806ZM122.05 31.0606H118.94V29.2106H118.88C118.706 29.8277 118.326 30.367 117.805 30.7397C117.283 31.1123 116.65 31.2961 116.01 31.2606C115.526 31.2764 115.045 31.1897 114.598 31.0064C114.15 30.823 113.747 30.5471 113.413 30.1968C113.08 29.8464 112.824 29.4296 112.664 28.9735C112.503 28.5175 112.44 28.0326 112.48 27.5506V21.2206H115.69V26.8606C115.69 28.0206 116.3 28.6506 117.3 28.6506C117.534 28.6489 117.766 28.5968 117.979 28.4979C118.191 28.399 118.38 28.2556 118.533 28.0774C118.686 27.8992 118.798 27.6903 118.863 27.4649C118.928 27.2395 118.944 27.0027 118.91 26.7706V21.2206H122.11L122.05 31.0606ZM123.6 21.2106H126.72V23.1106H126.79C126.962 22.502 127.331 21.9676 127.84 21.5913C128.348 21.2149 128.967 21.0177 129.6 21.0306C130.235 20.9754 130.867 21.159 131.374 21.5455C131.881 21.9321 132.225 22.4937 132.34 23.1206H132.48C132.68 22.4904 133.082 21.9438 133.625 21.5658C134.167 21.1878 134.819 20.9997 135.48 21.0306C135.919 21.0139 136.356 21.0901 136.764 21.2542C137.171 21.4183 137.54 21.6666 137.844 21.9828C138.149 22.299 138.384 22.6761 138.533 23.0893C138.682 23.5025 138.742 23.9426 138.71 24.3806V31.0706H135.48V25.2006C135.48 24.2006 135.01 23.6406 134.1 23.6406C133.898 23.6373 133.698 23.6777 133.513 23.759C133.328 23.8403 133.163 23.9605 133.029 24.1116C132.895 24.2626 132.796 24.4408 132.737 24.6339C132.678 24.8271 132.662 25.0306 132.69 25.2306V31.0706H129.63V25.1706C129.63 24.1706 129.14 23.6406 128.26 23.6406C128.056 23.639 127.854 23.681 127.668 23.7639C127.481 23.8467 127.315 23.9685 127.179 24.121C127.044 24.2734 126.943 24.4531 126.882 24.648C126.822 24.8428 126.804 25.0483 126.83 25.2506V31.0706H123.62L123.6 21.2106Z" fill="#BCC6C9"/>
<path d="M41.64 18.8805C41.6401 16.8902 41.0391 14.9462 39.9157 13.3033C38.7922 11.6604 37.1988 10.395 35.3441 9.673C33.4893 8.951 31.4598 8.806 29.5213 9.25699C27.5827 9.70798 25.8256 10.7339 24.48 12.2005H12V38.5405H38.35V26.2305C39.3842 25.3054 40.2118 24.1727 40.7787 22.9063C41.3456 21.6398 41.6391 20.268 41.64 18.8805ZM36.57 18.8805C36.572 19.8342 36.291 20.7671 35.7626 21.5611C35.2341 22.355 34.482 22.9744 33.6015 23.3407C32.7209 23.7071 31.7515 23.8039 30.8158 23.6191C29.8802 23.4342 29.0204 22.976 28.3453 22.3023C27.6702 21.6286 27.2101 20.7698 27.0234 19.8345C26.8366 18.8992 26.9314 17.9296 27.296 17.0483C27.6605 16.1669 28.2783 15.4136 29.0711 14.8835C29.864 14.3534 30.7963 14.0705 31.75 14.0705C33.0266 14.0705 34.2511 14.5769 35.1547 15.4787C36.0584 16.3805 36.5674 17.6039 36.57 18.8805ZM33.28 33.4705H17.07V17.2705H22.01C21.9146 17.8019 21.8644 18.3405 21.86 18.8805C21.8626 21.5027 22.9055 24.0167 24.7596 25.8708C26.6138 27.725 29.1278 28.7678 31.75 28.7705C32.2626 28.7678 32.7743 28.7243 33.28 28.6405V33.4705Z" fill="#BCC6C9"/>
</svg>
