<svg width="240" height="80" viewBox="0 0 240 80" fill="none" xmlns="http://www.w3.org/2000/svg">
<path d="M74.418 29.0871H79.9487V51.4497H74.418V29.0871ZM82.1426 43.0061C82.1426 37.4754 85.5347 34.1754 90.7705 34.1754C96.0063 34.1754 99.3984 37.4754 99.3984 43.0061C99.3984 48.5368 96.08 51.8553 90.7705 51.8553C85.461 51.8553 82.1426 48.629 82.1426 43.0061ZM93.8493 43.0061C93.8493 39.9642 92.6509 38.1759 90.7705 38.1759C88.8901 38.1759 87.7102 40.0195 87.7102 43.0061C87.7102 45.9927 88.8716 47.7994 90.7705 47.7994C92.6694 47.7994 93.8493 46.1033 93.8493 43.0246V43.0061ZM101.482 52.5374H106.791C107.044 53.0988 107.471 53.5635 108.009 53.8625C108.547 54.1615 109.168 54.2787 109.778 54.1966C111.879 54.1966 112.986 53.0536 112.986 51.3944V48.2972H112.875C112.434 49.2464 111.719 50.0418 110.822 50.5808C109.925 51.1197 108.887 51.3774 107.842 51.3207C103.805 51.3207 101.131 48.2419 101.131 42.9508C101.131 37.6597 103.676 34.3229 107.916 34.3229C108.994 34.2806 110.058 34.5687 110.968 35.1487C111.877 35.7286 112.588 36.5726 113.004 37.5676V34.4888H118.535V51.2653C118.535 55.3028 114.977 57.81 109.722 57.81C104.837 57.81 101.795 55.6162 101.482 52.5558V52.5374ZM113.004 42.9877C113.004 40.2961 111.769 38.6 109.815 38.6C107.86 38.6 106.662 40.2776 106.662 42.9877C106.662 45.6977 107.842 47.2279 109.815 47.2279C111.787 47.2279 113.004 45.7346 113.004 43.0061V42.9877ZM120.618 42.9877C120.618 37.4569 124.01 34.1569 129.246 34.1569C134.482 34.1569 137.892 37.4569 137.892 42.9877C137.892 48.5184 134.574 51.8368 129.246 51.8368C123.918 51.8368 120.618 48.629 120.618 43.0061V42.9877ZM132.325 42.9877C132.325 39.9458 131.126 38.1575 129.246 38.1575C127.366 38.1575 126.278 40.0195 126.278 43.0246C126.278 46.0296 127.439 47.8179 129.32 47.8179C131.2 47.8179 132.325 46.1033 132.325 43.0246V42.9877ZM139.994 30.4698C139.98 29.9114 140.131 29.3612 140.43 28.8891C140.728 28.417 141.16 28.0441 141.671 27.8178C142.182 27.5915 142.748 27.5219 143.298 27.6179C143.849 27.7138 144.358 27.971 144.762 28.3568C145.166 28.7427 145.446 29.2397 145.567 29.7851C145.688 30.3304 145.645 30.8994 145.442 31.4199C145.24 31.9404 144.887 32.3891 144.429 32.709C143.971 33.0289 143.428 33.2056 142.87 33.2167C142.5 33.2422 142.128 33.1908 141.779 33.0658C141.429 32.9408 141.11 32.7449 140.84 32.4904C140.57 32.2359 140.355 31.9283 140.209 31.5869C140.064 31.2455 139.991 30.8777 139.994 30.5067V30.4698ZM139.994 34.5257H145.525V51.4497H139.994V34.5257ZM165.601 42.9877C165.601 48.5184 163.149 51.6709 158.946 51.6709C157.868 51.7401 156.795 51.4766 155.872 50.9161C154.949 50.3556 154.22 49.5251 153.784 48.5368H153.673V56.8698H148.143V34.4888H153.673V37.5122H153.784C154.2 36.5077 154.914 35.6556 155.831 35.0717C156.749 34.4879 157.823 34.2006 158.909 34.2491C163.149 34.3229 165.675 37.4938 165.675 43.0246L165.601 42.9877ZM160.071 42.9877C160.071 40.2961 158.835 38.5815 156.9 38.5815C154.964 38.5815 153.729 40.3145 153.71 42.9877C153.692 45.6609 154.964 47.3754 156.9 47.3754C158.835 47.3754 160.071 45.6977 160.071 43.0246V42.9877ZM175.096 34.1385C179.686 34.1385 182.47 36.3139 182.599 39.7983H177.566C177.566 38.6 176.571 37.8441 175.04 37.8441C173.51 37.8441 172.828 38.434 172.828 39.3005C172.828 40.167 173.437 40.4435 174.672 40.7016L178.211 41.4206C181.585 42.1396 183.023 43.5039 183.023 46.0665C183.023 49.5692 179.834 51.8184 175.133 51.8184C170.431 51.8184 167.353 49.5693 167.113 46.1218H172.441C172.607 47.3754 173.602 48.1128 175.225 48.1128C176.847 48.1128 177.585 47.5782 177.585 46.6933C177.585 45.8083 177.068 45.624 175.741 45.3475L172.552 44.6653C169.252 43.9832 167.519 42.2318 167.519 39.6508C167.556 36.3324 170.524 34.1754 175.096 34.1754V34.1385ZM201.477 51.4128H196.149V48.2603H196.039C195.746 49.3187 195.1 50.2452 194.208 50.8857C193.316 51.5262 192.231 51.8424 191.135 51.7815C190.295 51.8293 189.454 51.6962 188.669 51.3911C187.885 51.086 187.175 50.6161 186.588 50.0132C186.001 49.4103 185.55 48.6883 185.266 47.8961C184.981 47.1039 184.87 46.2599 184.94 45.4212V34.4888H190.471V44.1491C190.471 46.1586 191.504 47.2279 193.218 47.2279C193.62 47.2287 194.018 47.1436 194.384 46.9782C194.751 46.8128 195.077 46.571 195.343 46.269C195.608 45.967 195.806 45.6117 195.923 45.227C196.04 44.8423 196.073 44.4371 196.02 44.0385V34.4888H201.551L201.477 51.4128ZM204.151 34.4888H209.497V37.7519H209.608C209.901 36.7075 210.533 35.7899 211.403 35.1427C212.274 34.4955 213.335 34.1553 214.419 34.1754C215.523 34.087 216.619 34.4173 217.49 35.1005C218.361 35.7837 218.943 36.7697 219.12 37.8625H219.231C219.565 36.7581 220.258 35.7964 221.199 35.1288C222.14 34.4613 223.277 34.1258 224.43 34.1754C225.182 34.1501 225.931 34.2834 226.628 34.5665C227.326 34.8496 227.956 35.2763 228.477 35.8188C228.999 36.3612 229.4 37.0074 229.656 37.7152C229.912 38.4231 230.015 39.1768 229.961 39.9273V51.4497H224.43V41.4022C224.43 39.5586 223.6 38.7106 222.052 38.7106C221.706 38.7077 221.364 38.7788 221.049 38.9193C220.733 39.0598 220.452 39.2663 220.223 39.5249C219.994 39.7835 219.823 40.0882 219.722 40.4184C219.621 40.7486 219.592 41.0966 219.637 41.4391V51.4497H214.382V41.3285C214.382 39.6324 213.553 38.7106 212.041 38.7106C211.692 38.7107 211.347 38.7848 211.028 38.9282C210.71 39.0715 210.425 39.2807 210.193 39.542C209.962 39.8033 209.788 40.1108 209.684 40.4442C209.58 40.7775 209.547 41.1292 209.589 41.4759V51.4497H204.058L204.151 34.4888Z" fill="#919495"/>
<path d="M58.9494 30.1011C58.0113 27.9558 56.7695 25.9566 55.2623 24.1648C53.0343 21.4369 50.2538 19.2118 47.1038 17.6359C43.9539 16.0601 40.506 15.1691 36.9869 15.0218C33.4679 14.8745 29.9575 15.4741 26.6869 16.7812C23.4163 18.0883 20.4595 20.0732 18.0113 22.6053C15.5631 25.1374 13.6788 28.1593 12.4826 31.4721C11.2864 34.7849 10.8054 38.3134 11.0711 41.8255C11.3368 45.3376 12.3433 48.7536 14.0244 51.8487C15.7054 54.9438 18.0229 57.6478 20.8243 59.7827C22.6218 61.1799 24.6079 62.3158 26.7237 63.1564C29.6901 64.372 32.8648 64.9982 36.0706 65C42.688 64.9854 49.0296 62.3476 53.7053 57.665C58.381 52.9824 61.0094 46.6369 61.0143 40.0195C61.0191 36.6062 60.316 33.2289 58.9494 30.1011ZM36.0522 20.0904C38.9311 20.0901 41.7751 20.7194 44.3852 21.934C43.7487 22.209 43.0795 22.4011 42.3941 22.5055C40.1387 22.832 38.0493 23.8791 36.4378 25.4906C34.8264 27.1021 33.7793 29.1914 33.4528 31.4469C33.3095 32.7118 32.7342 33.8886 31.824 34.7786C30.9138 35.6686 29.7245 36.2174 28.4567 36.3324C26.2012 36.6589 24.1118 37.706 22.5004 39.3174C20.8889 40.9289 19.8418 43.0183 19.5153 45.2737C19.4048 46.4765 18.8916 47.6067 18.0589 48.4815C16.6221 45.4457 15.9767 42.0956 16.1826 38.7432C16.3886 35.3909 17.4393 32.145 19.2369 29.3079C21.0345 26.4707 23.5206 24.1344 26.4639 22.5163C29.4072 20.8983 32.7119 20.0511 36.0706 20.0536L36.0522 20.0904ZM20.8058 52.9246C21.0271 52.7218 21.2483 52.5374 21.4695 52.3162C23.1097 50.726 24.1625 48.6269 24.4561 46.3614C24.5752 45.088 25.1438 43.8985 26.06 43.0061C26.9417 42.0883 28.1285 41.5245 29.3969 41.4206C31.6523 41.0942 33.7417 40.047 35.3532 38.4356C36.9646 36.8241 38.0118 34.7347 38.3382 32.4793C38.418 31.1473 38.9896 29.8925 39.9422 28.9581C40.8456 28.0581 42.0437 27.5147 43.3159 27.4279C45.3879 27.1428 47.3204 26.2217 48.8466 24.7916C50.5845 26.2334 52.0569 27.9679 53.1975 29.9167C53.1274 30.0114 53.047 30.098 52.9578 30.1748C52.0778 31.1007 50.8926 31.6769 49.6209 31.7972C47.3632 32.118 45.2707 33.1632 43.6582 34.7757C42.0456 36.3882 41.0004 38.4808 40.6796 40.7385C40.5497 42.0077 39.985 43.1929 39.0811 44.0934C38.1773 44.9938 36.99 45.5541 35.7204 45.6793C33.4583 46.0033 31.3612 47.0483 29.7404 48.6591C28.1196 50.27 27.0616 52.3607 26.7237 54.6207C26.6245 55.5217 26.3151 56.3868 25.8203 57.1464C23.9288 56.0233 22.2348 54.597 20.8058 52.9246ZM36.0522 60.0408C34.1815 60.0428 32.3197 59.7822 30.5215 59.2665C31.1366 58.1198 31.5365 56.8701 31.7014 55.5793C31.8306 54.313 32.3926 53.13 33.2927 52.2299C34.1928 51.3298 35.3758 50.7677 36.6422 50.6385C38.9009 50.3157 40.9945 49.2702 42.6096 47.6584C44.2247 46.0467 45.2745 43.9553 45.6019 41.6972C45.7311 40.4308 46.2932 39.2478 47.1933 38.3477C48.0934 37.4477 49.2764 36.8856 50.5427 36.7564C52.2425 36.5353 53.8627 35.9024 55.2623 34.9128C56.0395 37.8587 56.1315 40.9434 55.5314 43.9304C54.9313 46.9174 53.6549 49.7272 51.8003 52.1443C49.9456 54.5614 47.562 56.5215 44.8321 57.8744C42.1023 59.2272 39.0989 59.9368 36.0522 59.9486V60.0408Z" fill="#919495"/>
</svg>
