<svg width="425" height="425" viewBox="0 0 425 425" fill="none" xmlns="http://www.w3.org/2000/svg">
<g opacity="0.08">
<path d="M402.332 386.621L392.989 382.943C352.57 366.919 305.809 357.956 273.719 353.263C242.39 348.654 218.926 347.132 211.527 346.794L208.905 346.71L203.578 346.879V346.71C195.038 346.752 176.816 347.175 153.351 349.838C112.805 354.404 75.8529 363.241 43.5094 376.051L34.7576 379.518L41.8605 341.213L22.6658 314.028L48.6674 303.754L53.7832 281.727L56.2354 280.712C56.6159 280.543 66.0865 276.568 82.4062 271.58C95.9355 267.478 116.695 261.94 141.682 257.881C140.498 256.148 139.356 254.372 138.215 252.596L59.4909 200.72L62.4504 196.365C62.9578 195.646 73.443 180.341 91.158 167.911C85.7463 167.319 83.2941 164.191 82.4908 162.88C80.3345 159.582 79.8272 155.777 80.9687 151.972L37.3366 108.34C31.7981 106.057 29.8955 101.913 28.8385 96.4594C28.2466 93.4998 29.2613 90.3712 31.8826 87.2002C36.4488 81.6194 46.6803 75.4044 54.0792 75.4044C59.1527 75.4044 63.2537 78.0257 65.3677 82.6341C66.0019 84.0293 66.3824 85.3822 66.5515 86.4815L93.4411 111.976C92.7646 104.535 92.2572 96.9667 92.0036 89.3988C91.9613 88.2572 91.9613 87.1157 92.0036 86.3969C92.0036 86.1856 92.0036 85.9742 92.0036 85.8473V81.9576L95.7241 80.8584C101.432 79.1672 107.182 77.6029 112.678 76.1231C120.922 73.8823 128.829 71.7261 136.523 69.2316C136.65 64.4541 137.411 61.114 137.454 60.9449L139.103 53.9688L153.731 62.8475C166.119 57.6471 178.422 51.3898 190.345 45.3439C194.7 43.1031 199.223 40.82 203.705 38.6215C207.257 36.8458 211.231 35.662 216.262 38.7061C232.243 48.4726 248.732 56.717 265.263 63.228L280.442 54.0111L282.091 60.9872C282.133 61.1563 282.936 64.5809 283.021 69.5276C294.774 73.2904 306.824 76.25 318.873 78.3639C320.142 78.5753 321.283 78.9558 322.552 79.3786C323.186 79.59 323.905 79.8014 324.708 80.0551L328.809 81.2812L328.429 85.5514C328.006 90.1598 327.625 94.8528 327.245 99.4189C326.441 109.524 325.596 119.967 324.116 130.24C322.552 141.064 320.565 151.634 318.282 161.738C330.162 168.123 339.59 176.578 345.636 182.793C352.866 190.235 356.882 196.196 357.052 196.407L360.011 200.762L351.555 206.343L352.232 207.188L351.259 206.512L281.626 252.469C280.315 254.541 279.004 256.57 277.651 258.558C305.048 263.251 328.978 269.762 344.791 274.581C363.647 280.374 375.105 284.982 375.57 285.151L378.064 286.166L402.332 386.621ZM340.605 192.475L345.129 198.141L345.34 198.014C344.072 196.45 342.507 194.547 340.605 192.475ZM51.5424 88.0458C51.5847 88.0881 51.627 88.1304 51.6693 88.1727L53.7832 85.805L51.5424 88.0458ZM50.7391 86.7352C50.866 87.2002 51.1196 87.623 51.4579 87.9613L53.7409 85.8473C53.6564 85.8473 53.5718 85.8473 53.4873 85.8896L50.7391 86.7352ZM125.531 230.104L114.834 224.734L124.77 218.139L126.715 221.056L127.518 219.449L126.715 221.056L130.52 226.806L125.531 230.104ZM291.519 228.413L289.193 226.848L294.986 218.181L297.311 219.745L291.519 228.413ZM96.612 192.391L96.1892 192.053L102.785 184.019L103.208 184.358L96.612 192.391Z" fill="#73CDDB"/>
<path d="M97.2026 85.8467C97.2026 86.4386 97.1603 87.8338 97.2026 89.229C98.5978 128.718 105.658 166.98 119.653 203.594C137.41 250.101 165.145 287.772 206.029 313.435C209.073 315.338 211.06 315.126 213.935 313.309C243.954 294.41 267.418 268.619 284.964 236.53C303.144 203.34 313.545 167.234 319.041 129.436C321.155 114.723 321.959 99.7988 323.311 85.0011C320.817 84.2823 319.422 83.7327 317.984 83.479C280.863 76.9258 246.194 63.1005 213.555 43.1447C210.68 41.369 208.82 41.8764 206.029 43.2716C187.595 52.4039 169.373 62.3395 150.348 69.8651C133.394 76.5453 115.509 80.4772 97.2026 85.8467Z" fill="#123D4F"/>
<path d="M341.702 197.675L294.434 224.057L280.27 214.629L283.441 210.401L271.772 199.789L292.954 210.401L326.143 183.089C332.189 187.105 337.77 191.967 341.702 197.675Z" fill="#25A9E0"/>
<path d="M319.678 179.158L291.9 204.06L270 196.45L292.957 168.038C292.957 168.038 306.275 171.632 319.678 179.158Z" fill="#25A9E0"/>
<path d="M283.867 156.708C284.163 159.075 283.402 160.597 283.402 160.597L238.924 212.516L232.582 198.733L218.799 206.132V200.847L210.344 205.075H209.287L200.831 200.847V206.132L187.006 198.733L180.664 212.516L136.186 160.597C136.186 160.597 135.425 159.075 135.721 156.708C147.009 174.507 164.978 187.487 164.978 187.487C163.245 180.722 162.61 173.957 162.737 167.446L171.109 173.408C185.483 195.731 209.836 202.369 209.836 202.369C209.836 202.369 234.147 195.689 248.564 173.408L256.935 167.446C257.062 173.957 256.428 180.722 254.694 187.487C254.652 187.487 272.579 174.507 283.867 156.708Z" fill="#262261"/>
<path d="M270.929 125.336L282.514 136.921C282.091 138.358 281.541 140.176 280.823 142.248C280.104 144.32 279.174 146.603 278.032 148.886C275.538 153.917 271.944 159.033 266.828 161.992C266.828 161.992 266.701 161.401 266.448 160.344C265.771 157.469 264.122 151.127 261.501 143.432C261.036 141.994 260.486 140.557 259.937 139.035C263.108 136.794 267.716 133.708 270.929 125.336Z" fill="#25A9E0"/>
<path d="M280.4 231.878L213.514 269.253V255.935L247.422 237.924L213.514 248.536V229.891L248.479 223.126L267.547 199.492V227.354L280.4 231.878Z" fill="#25A9E0"/>
<path d="M209.794 110.031L272.959 69.2737C272.959 88.6375 258.711 96.7974 258.711 96.7974C234.274 102.928 209.794 126.351 209.794 126.351C209.794 126.351 185.357 102.928 160.877 96.7974C160.877 96.7974 146.629 88.6375 146.629 69.2737L209.794 110.031Z" fill="#B1A733"/>
<path d="M267.884 120.261C267.884 122.037 264.967 133.79 259.893 138.948C255.961 128.379 250.423 116.287 243.108 107.62C247.379 105.252 251.606 103.265 255.454 101.954C258.371 105.802 267.884 118.528 267.884 120.261Z" fill="#25A9E0"/>
<path d="M255.455 153.367C254.229 156.411 251.862 161.823 248.226 167.658C245.647 171.801 242.391 176.156 238.501 179.961C245.478 167.742 251.143 146.307 251.143 146.307L246.323 125.167C249.832 132.735 253.468 142.459 255.455 153.367Z" fill="#2B388F"/>
<path d="M246.027 80.9847L209.794 102.928V82.549C209.794 88.6795 204.72 90.7089 204.72 90.7089L201.93 98.15L173.603 80.9847C175.463 75.3193 183.75 56.0823 209.836 56.0823C235.922 56.0823 244.124 75.277 246.027 80.9847Z" fill="#25A9E0"/>
<path d="M236.429 130.874C236.218 130.916 224.718 132.565 219.813 137.512C219.813 137.512 224.802 142.501 229.791 139.161C234.696 135.905 236.345 131.043 236.429 130.874ZM183.2 130.874C183.242 131.043 184.933 135.905 189.838 139.203C194.826 142.543 199.815 137.554 199.815 137.554C194.869 132.565 183.411 130.916 183.2 130.874ZM238.839 126.35C238.839 126.35 246.407 134.172 244.758 139.203C244.758 139.203 216.473 150.83 209.836 150.83C203.198 150.83 174.913 139.203 174.913 139.203C173.264 134.214 180.832 126.392 180.832 126.35C192.078 130.282 209.159 137.512 209.836 145.714C210.47 137.554 227.593 130.282 238.839 126.35Z" fill="#0A120E"/>
<path d="M193.475 124.322C193.179 124.153 183.285 118.149 182.271 114.133C181.848 112.442 181.594 111.258 181.467 110.497C196.011 119.249 209.794 130.453 209.794 130.453C209.794 130.453 223.577 119.249 238.121 110.497C237.994 111.3 237.741 112.442 237.318 114.133C236.303 118.149 226.41 124.153 226.114 124.322L242.053 116.796C242.687 117.938 243.364 119.164 244.04 120.559C220.575 125.844 209.752 138.612 209.752 138.612C209.752 138.612 198.971 125.886 175.464 120.559C176.182 119.206 176.817 117.938 177.451 116.796L193.475 124.322Z" fill="#25A9E0"/>
<path d="M246.071 140.768C244.803 146.645 239.729 167.742 229.751 179.115C218.125 192.433 214.784 192.433 214.784 192.433H221.422C221.422 192.433 214.784 199.071 209.796 199.071C204.807 199.071 198.169 192.433 198.169 192.433H204.807C204.807 192.433 201.467 192.433 189.84 179.115C179.904 167.742 174.788 146.645 173.52 140.768C182.906 147.11 209.796 154.17 209.796 154.17C209.796 154.17 236.685 147.067 246.071 140.768Z" fill="#25A9E0"/>
<path d="M236.43 130.874C236.388 131.043 234.697 135.905 229.793 139.203C224.804 142.543 219.815 137.554 219.815 137.554C224.719 132.565 236.177 130.917 236.43 130.874Z" fill="#EBED95"/>
<path d="M206.073 255.935V269.253L139.188 231.878L152.041 227.354V199.492L171.108 223.126L206.073 229.891V248.536L172.208 237.924L206.073 255.935Z" fill="#25A9E0"/>
<path d="M199.814 137.511C199.814 137.511 194.825 142.5 189.836 139.16C184.931 135.863 183.24 131 183.198 130.831C183.409 130.916 194.867 132.565 199.814 137.511Z" fill="#EBED95"/>
<path d="M181.127 179.961C177.237 176.156 173.981 171.801 171.402 167.658C167.766 161.865 165.399 156.411 164.173 153.367C166.117 142.459 169.796 132.735 173.305 125.167L168.485 146.307C168.485 146.307 174.15 167.7 181.127 179.961Z" fill="#2B388F"/>
<path d="M164.134 101.954C167.982 103.265 172.21 105.252 176.48 107.62C169.166 116.287 163.585 128.336 159.695 138.948C154.622 133.748 151.704 122.037 151.704 120.261C151.704 118.528 161.259 105.802 164.134 101.954Z" fill="#25A9E0"/>
<path d="M159.606 139.118C159.056 140.598 158.549 142.078 158.042 143.473C155.42 151.126 153.772 157.51 153.095 160.385C152.841 161.442 152.715 162.034 152.715 162.034C147.599 159.032 144.005 153.958 141.511 148.927C140.369 146.644 139.439 144.361 138.72 142.289C138.001 140.218 137.452 138.4 137.029 136.962L148.614 125.378C151.911 133.707 156.477 136.793 159.606 139.118Z" fill="#25A9E0"/>
<path d="M126.631 168.038L149.589 196.45L127.688 204.06L99.9109 179.158C113.356 171.632 126.631 168.038 126.631 168.038Z" fill="#25A9E0"/>
<path d="M147.811 199.789L136.142 210.401L139.313 214.629L125.149 224.057L77.8813 197.675C81.771 191.967 87.3941 187.105 93.4401 183.089L126.629 210.401L147.811 199.789Z" fill="#25A9E0"/>
<path d="M117.371 150.281L124.009 158.736C116.737 160.259 109.972 162.922 103.884 166.22L104.011 166.135L97.5 159.032C97.5 159.032 98.557 142.079 115.511 148.42L117.371 150.281Z" fill="#CFCFCE"/>
<path d="M100.841 187.655L95.1331 192.052L126.166 218.181L139.061 211.712L149.673 199.028L143.204 200.339L127.181 208.076L117.879 199.028L100.841 187.655Z" fill="#262261"/>
<path d="M96.4448 137.808C96.6985 137.766 108.114 134.68 111.285 137.808C114.456 140.979 112.342 143.093 112.342 143.093C112.342 143.093 100.673 140.979 97.5018 150.492C95.8106 155.566 95.3033 157.341 95.2187 157.891C94.1195 157.68 87.1434 156.115 90.0606 147.321L42.708 99.9687C44.3569 96.1213 48.1197 91.3014 56.8292 89.6948L101.307 133.158C99.7003 134.172 98.0514 135.695 96.4448 137.808Z" fill="#8F8F8F"/>
<path d="M54.0364 83.7747C56.5731 84.2821 55.6007 87.2416 55.6007 87.2416C52.3875 87.9604 44.9886 90.3703 40.042 98.2342C38.5622 97.6846 36.3637 96.5007 37.0824 94.3868C38.1817 91.2158 48.7515 82.7177 54.0364 83.7747Z" fill="#FCEE27"/>
<path d="M131.07 172.18L124.094 174.759L142.696 194.631L133.395 202.917L151.744 197.506L131.07 172.18Z" fill="#262261"/>
<path d="M318.958 187.655L324.665 192.052L293.632 218.181L280.695 211.712L270.125 199.028L276.594 200.339L292.618 208.076L301.919 199.028L318.958 187.655Z" fill="#262261"/>
<path d="M288.728 172.18L295.705 174.759L277.102 194.631L286.403 202.917L268.054 197.506L288.728 172.18Z" fill="#262261"/>
<path d="M325.933 182.497L334.474 193.109L326.99 199.578L328.512 202.157L315.871 213.277L343.268 198.775V194.631L325.933 182.497Z" fill="#25A9E0"/>
<path d="M292.364 166.979L311.221 178.902L305.513 184.567L306.824 186.132L300.609 198.012L323.101 178.606L312.489 173.955L292.364 166.979Z" fill="#25A9E0"/>
<path d="M243.745 218.18L265.942 200L267.295 196.702L267.591 198.647L268.056 198.267L267.633 199.028L271.945 226.974L283.023 231.075L278.118 234.458L268.056 226.974L263.151 206.849L252.286 225.917L224.381 232.132V240.123L246.282 238.347L224.381 254.117V258.219L254.611 247.395L209.88 273.735V224.099L243.745 218.18Z" fill="#262261"/>
<path d="M209.876 154.086L182.479 148.632L185.312 159.244L196.178 168.799H187.891C187.891 168.799 200.829 189.981 209.073 189.981H209.834V200.339L201.547 196.703L192.246 187.402L181.634 169.814L172.586 143.728L173.347 140.092L182.395 143.728L209.876 154.086Z" fill="#262261"/>
<path d="M209.117 154.085L236.514 148.673L233.681 159.285L222.815 168.84H231.102C231.102 168.84 218.164 190.022 209.92 190.022H209.117V200.381L217.403 196.745L226.705 187.443L237.317 169.855L246.365 143.769L245.604 140.133L236.556 143.769L209.117 154.085Z" fill="#262261"/>
<path d="M261.329 217.378L254.099 228.793L233.425 233.444V236.488L254.86 232.091C254.86 232.133 261.329 227.905 261.329 217.378Z" fill="#25A9E0"/>
<path d="M267.292 236.022L247.378 246.845L239.895 249.424L249.196 241.18L264.163 234.457L267.292 236.022Z" fill="#25A9E0"/>
<path d="M154.324 184.568L176.563 201.648L177.831 199.027L173.434 187.654L201.634 206.553L188.697 203.974L181.213 215.854L154.324 184.568Z" fill="#25A9E0"/>
<path d="M264.419 184.568L242.223 201.648L240.912 199.027L245.309 187.654L217.151 206.553L230.046 203.974L237.572 215.854L264.419 184.568Z" fill="#25A9E0"/>
<path d="M93.8645 182.497L85.3241 193.109L92.8075 199.578L91.2432 202.157L103.927 213.277L76.53 198.775V194.631L93.8645 182.497Z" fill="#25A9E0"/>
<path d="M171.91 103.941L161.298 121.233V129.013L157.832 136.877L155.083 134.171L149.672 148.123L150.982 162.075L153.561 163.639L164.131 130.831L173.982 113.496L178.887 107.535L171.91 103.941Z" fill="#262261"/>
<path d="M127.435 166.979L108.579 178.902L114.287 184.567L112.976 186.132L119.191 198.012L96.6985 178.606L107.268 173.955L127.435 166.979Z" fill="#25A9E0"/>
<path d="M167.261 101.872L154.577 120.474L156.649 135.737L150.983 126.436L140.117 137.513L144.007 155.101L134.41 137.005L147.601 122.8L152.505 114.767L162.61 99.2925L167.261 101.872Z" fill="#25A9E0"/>
<path d="M248.395 103.941L259.007 121.233V129.013L262.473 136.877L265.222 134.171L270.633 148.123L269.323 162.075L266.744 163.639L256.174 130.831L246.323 113.496L241.418 107.535L248.395 103.941Z" fill="#262261"/>
<path d="M252.791 101.872L265.475 120.474L263.403 135.737L269.068 126.436L279.934 137.513L276.045 155.101L285.642 137.005L272.451 122.8L267.546 114.767L257.442 99.2925L252.791 101.872Z" fill="#25A9E0"/>
<path d="M176.057 218.18L153.86 200L152.507 196.702L152.211 198.647L151.746 198.267L152.169 199.028L147.856 226.974L136.737 231.075L141.684 234.458L151.746 226.974L156.651 206.849L167.516 225.917L195.421 232.132V240.123L173.52 238.347L195.421 254.117V258.219L165.191 247.395L209.88 273.735V224.099L176.057 218.18Z" fill="#262261"/>
<path d="M209.879 106.775L150.688 70.3306L159.482 88.9334C159.482 88.9334 184.3 97.7274 189.712 103.942L209.879 120.474L230.046 103.942C235.458 97.7274 260.276 88.9334 260.276 88.9334L269.07 70.3306L209.879 106.775Z" fill="#FCEE27"/>
<path d="M48.2865 93.1194L90.9885 136.498L96.6539 133.665L93.5675 140.134C93.5675 140.134 99.7825 138.062 102.869 138.823C105.955 139.584 108.027 143.728 108.027 143.728L100.797 147.068L95.6392 159.455L88.9168 157.891L88.4094 148.843L41.395 99.2921L44.4814 95.4025L48.2865 93.1194Z" fill="#676767"/>
<path d="M43.7213 86.1011C43.7213 86.1011 45.793 91.2591 47.3573 92.0624L40.8463 99.5458L36.9567 98.2352L35.3923 95.9098L39.282 88.9338L43.7213 86.1011Z" fill="#B1A633"/>
<path d="M176.563 83.2687C176.563 83.2687 179.142 70.7541 183.539 68.3019C183.539 68.3019 178.888 83.8184 191.276 92.5702C203.664 101.28 209.879 105.381 209.879 105.381L231.314 90.9213C231.314 90.9213 232.879 86.2706 229.496 81.1125C229.496 81.1125 233.386 80.8588 233.132 76.2081C232.879 71.5574 226.156 64.2008 222.266 62.5942C222.266 62.5942 235.965 63.1439 245.013 83.311L209.879 107.833L176.563 83.2687Z" fill="#25A9E0"/>
<path d="M188.652 112.355C188.652 112.355 188.483 116.498 190.893 118.781C193.303 121.022 199.729 127.279 199.729 127.279L188.61 123.305L187.976 125.166L173.559 122.925L174.066 118.063L180.492 107.831L188.652 112.355Z" fill="#262261"/>
<path d="M230.805 112.355C230.805 112.355 230.974 116.498 228.564 118.781C226.154 121.064 219.728 127.279 219.728 127.279L230.847 123.305L231.523 125.208L245.941 122.967L245.433 118.105L238.965 107.831L230.805 112.355Z" fill="#262261"/>
<path d="M102.742 146.56L116.314 164.909L104.687 168.545L95.6392 159.497L99.2752 148.885L102.742 146.56Z" fill="#9E9D9B"/>
<path d="M291.392 157.933C291.392 157.933 290.504 153.79 287.925 149.478C289.32 146.603 290.504 143.643 291.35 140.599C291.35 140.599 287.291 132.439 284.205 132.439C284.205 132.439 284.162 132.693 284.036 133.158L272.747 121.066C272.832 120.812 272.916 120.516 273.001 120.263L259.218 100.561C283.613 89.8218 277.102 62.2135 277.102 62.2135L250.931 78.0682C238.332 51.9819 209.836 51.0095 209.836 51.0095C209.836 51.0095 181.382 52.0242 168.74 78.0682L142.527 62.1712C142.527 62.1712 136.016 89.7795 160.411 100.518L146.628 120.22C146.713 120.516 146.797 120.77 146.882 121.024L135.593 133.116C135.467 132.651 135.424 132.397 135.424 132.397C132.38 132.397 128.279 140.557 128.279 140.557C129.125 143.601 130.309 146.56 131.704 149.435C130.182 151.972 129.252 154.467 128.744 156.073L120.542 146.941C120.796 143.897 120.838 140.388 119.739 138.823C118.301 136.667 112.89 130.537 106.252 131.255L61.605 88.9762C61.605 88.9762 61.4782 80.6049 54.0793 80.6049C46.6805 80.6049 32.8975 90.16 33.9544 95.4449C35.0114 100.73 36.618 102.59 40.0426 103.774L40.0849 103.689L87.2262 150.831C85.7464 153.24 84.6471 156.665 86.9302 160.09C86.9302 160.09 89.0442 164.318 97.5423 162.204L101.728 167.404C80.0387 179.834 66.8476 199.282 66.8476 199.282L209.878 293.565L352.908 199.282C352.824 199.282 328.471 163.261 291.392 157.933ZM292.956 168.038C292.956 168.038 306.232 171.674 319.677 179.158L291.899 204.06L269.999 196.45L292.956 168.038ZM282.514 136.921C282.091 138.358 281.541 140.176 280.822 142.248C280.104 144.32 279.173 146.603 278.032 148.886C275.537 153.917 271.944 159.033 266.828 161.992C266.828 161.992 266.701 161.4 266.447 160.343C265.771 157.468 264.122 151.127 261.501 143.432C261.036 141.994 260.486 140.557 259.936 139.035C263.065 136.709 267.674 133.665 270.887 125.252L282.514 136.921ZM267.885 120.263C267.885 122.038 265.01 133.792 259.894 138.95C255.962 128.38 250.424 116.289 243.109 107.621C247.38 105.254 251.607 103.267 255.455 101.956C258.372 105.803 267.885 118.529 267.885 120.263ZM221.462 192.433C221.462 192.433 214.825 199.071 209.836 199.071C204.847 199.071 198.209 192.433 198.209 192.433H204.847C204.847 192.433 201.507 192.433 189.88 179.115C179.944 167.742 174.829 146.645 173.56 140.768C182.946 147.11 209.836 154.171 209.836 154.171C209.836 154.171 236.725 147.11 246.111 140.768C244.843 146.645 239.769 167.742 229.791 179.115C218.165 192.433 214.825 192.433 214.825 192.433H221.462ZM182.27 114.132C181.847 112.441 181.593 111.257 181.466 110.496C196.01 119.206 209.793 130.452 209.793 130.452C209.793 130.452 223.576 119.248 238.12 110.496C237.994 111.3 237.74 112.441 237.317 114.132C236.302 118.191 226.113 124.322 226.113 124.322L242.095 116.796C242.729 117.937 243.405 119.163 244.082 120.559C220.617 125.844 209.793 138.612 209.793 138.612C209.793 138.612 199.012 125.886 175.505 120.559C176.181 119.206 176.858 117.937 177.492 116.796L193.474 124.322C193.474 124.322 183.284 118.191 182.27 114.132ZM244.716 139.204C244.716 139.204 216.431 150.831 209.793 150.831C203.156 150.831 174.871 139.204 174.871 139.204C173.222 134.215 180.79 126.393 180.79 126.393C192.036 130.325 209.117 137.555 209.793 145.757C210.47 137.555 227.593 130.325 238.797 126.393C238.839 126.351 246.407 134.215 244.716 139.204ZM168.487 146.307C168.487 146.307 174.152 167.742 181.128 179.961C177.238 176.156 173.983 171.801 171.404 167.658C167.768 161.865 165.4 156.411 164.174 153.367C166.119 142.459 169.797 132.735 173.306 125.167L168.487 146.307ZM251.1 146.307L246.323 125.167C249.832 132.735 253.468 142.459 255.455 153.367C254.229 156.411 251.861 161.823 248.225 167.658C245.646 171.801 242.391 176.156 238.501 179.961C245.435 167.7 251.1 146.307 251.1 146.307ZM209.793 56.0407C235.837 56.0407 244.124 75.2778 246.027 80.9432L209.793 102.886V82.5075C209.793 88.638 204.678 90.6674 204.678 90.6674L201.887 98.1085L173.56 80.9432C175.463 75.2778 183.749 56.0407 209.793 56.0407ZM146.628 69.2741L209.793 110.031L272.958 69.2741C272.958 88.638 258.71 96.7978 258.71 96.7978C234.273 102.928 209.793 126.351 209.793 126.351C209.793 126.351 185.356 102.928 160.876 96.7978C160.876 96.7978 146.628 88.638 146.628 69.2741ZM164.132 101.956C167.979 103.267 172.207 105.254 176.477 107.621C169.163 116.289 163.582 128.338 159.693 138.95C154.619 133.75 151.702 122.038 151.702 120.263C151.702 118.529 161.257 105.803 164.132 101.956ZM148.658 125.336C151.913 133.75 156.479 136.794 159.608 139.119C159.058 140.599 158.551 142.079 158.044 143.516C155.422 151.169 153.774 157.553 153.097 160.428C152.843 161.485 152.717 162.077 152.717 162.077C147.601 159.075 144.007 154.002 141.513 148.97C140.371 146.687 139.441 144.404 138.722 142.332C138.003 140.261 137.454 138.443 137.031 137.005L148.658 125.336ZM37.1254 94.3879C38.1823 91.217 48.7944 82.7189 54.0793 83.7759C56.6161 84.2832 55.6436 87.2427 55.6436 87.2427C52.4304 87.9615 45.0316 90.3714 40.0849 98.2353C38.5629 97.728 36.4066 96.5442 37.1254 94.3879ZM95.2169 157.933C94.1176 157.722 87.1416 156.158 90.0588 147.364L42.7062 100.011C44.3551 96.1636 48.1179 91.3438 56.8274 89.7372L101.305 133.158C99.6985 134.215 98.0919 135.695 96.443 137.809C96.443 137.809 108.112 134.638 111.283 137.809C114.454 140.98 112.34 143.093 112.34 143.093C112.34 143.093 100.671 140.98 97.5 150.492C95.8088 155.608 95.3015 157.384 95.2169 157.933ZM97.5 159.033C97.5 159.033 98.557 142.079 115.511 148.421L117.371 150.281L124.009 158.737C116.737 160.259 109.972 162.922 103.842 166.22L103.969 166.136L97.5 159.033ZM126.63 168.038L149.588 196.45L127.687 204.06L99.9099 179.158C113.355 171.632 126.63 168.038 126.63 168.038ZM77.8825 197.676C81.7721 191.968 87.3953 187.106 93.4412 183.09L126.63 210.402L147.812 199.79L136.143 210.402L139.314 214.63L125.151 224.058L77.8825 197.676ZM206.073 248.538L172.165 237.926L206.073 255.937V269.212L139.145 231.88L152.04 227.314V199.452L171.108 223.043L206.073 229.85V248.538ZM209.286 205.117L200.83 200.889V206.174L187.005 198.733L180.663 212.516L136.185 160.597C136.185 160.597 135.424 159.075 135.72 156.707C147.009 174.507 164.977 187.487 164.977 187.487C163.244 180.722 162.61 173.957 162.737 167.446L171.108 173.408C185.483 195.731 209.836 202.369 209.836 202.369C209.836 202.369 234.146 195.689 248.563 173.408L256.892 167.446C257.019 173.957 256.385 180.722 254.652 187.487C254.652 187.487 272.578 174.507 283.909 156.707C284.205 159.075 283.444 160.597 283.444 160.597L238.924 212.516L232.582 198.733L218.799 206.132V200.847L210.343 205.075H209.286V205.117ZM213.514 269.254V255.979L247.422 237.968L213.514 248.58V229.935L248.479 223.128L267.547 199.536V227.398L280.442 231.964L213.514 269.254ZM280.273 214.63L283.444 210.402L271.775 199.79L292.956 210.402L326.146 183.09C332.191 187.106 337.815 191.968 341.704 197.676L294.436 224.058L280.273 214.63Z" fill="#0A120E"/>
<path d="M158.467 217.378L165.696 228.793L186.371 233.444V236.488L164.935 232.133C164.935 232.133 158.467 227.905 158.467 217.378Z" fill="#25A9E0"/>
<path d="M152.506 236.022L172.419 246.845L179.903 249.424L170.601 241.18L155.635 234.457L152.506 236.022Z" fill="#25A9E0"/>
<path d="M154.281 77.856L159.523 88.9331L173.56 94.5139C173.518 94.5139 154.957 97.5158 154.281 77.856Z" fill="white"/>
<path d="M265.519 77.856L260.276 88.9331L246.24 94.5139C246.282 94.5139 264.842 97.5158 265.519 77.856Z" fill="white"/>
<path d="M373.582 289.97C373.582 289.97 293.674 257.585 209.031 257.542C208.989 257.542 208.947 257.542 208.904 257.542C208.862 257.542 208.82 257.542 208.777 257.542C124.135 257.585 58.2214 285.446 58.2214 285.446L53.1057 307.558L30.74 316.395L47.398 339.987L41.6057 371.104C120.16 339.987 203.789 341.34 208.82 341.424C208.82 341.424 208.862 341.424 208.947 341.424C209.031 341.424 209.073 341.424 209.073 341.424C214.105 341.297 316.42 346.92 394.975 378.038L373.582 289.97Z" fill="#0A120E"/>
<path d="M69.7637 291.747C68.1994 299.273 66.635 306.756 65.0707 314.282C59.5321 316.1 54.0358 318.003 48.5396 319.99C51.4145 324.218 54.3318 328.403 57.2913 332.589C58.9825 332.039 59.8281 331.743 61.5192 331.194C59.9549 338.719 58.3906 346.203 56.8263 353.729C61.181 352.333 65.578 350.938 69.9751 349.628C71.4126 342.144 72.8501 334.703 74.2453 327.22C78.4732 325.951 82.7434 324.767 87.0136 323.626C85.7029 331.067 84.4345 338.466 83.1239 345.907C87.5209 344.723 91.9179 343.624 96.3573 342.567C99.5282 322.231 102.741 301.894 105.912 281.558C93.8205 284.475 81.7287 287.9 69.7637 291.747ZM90.0154 306.883C85.8298 308.025 81.6864 309.166 77.543 310.392C77.8813 308.532 78.2618 306.672 78.6 304.812C82.7011 303.586 86.8445 302.444 90.9878 301.302C90.6496 303.163 90.3536 305.023 90.0154 306.883Z" fill="white"/>
<path d="M145.018 290.184C145.567 284.687 146.075 279.233 146.624 273.737C134.363 275.555 122.145 277.796 110.053 280.544C108.108 293.481 106.163 306.377 104.218 319.314C112.759 317.369 121.341 315.636 130.008 314.156C129.797 315.974 129.586 317.834 129.374 319.652C120.665 321.174 111.998 322.908 103.415 324.853C102.569 330.391 101.724 335.93 100.92 341.468C114.154 338.466 127.429 335.972 140.832 334.027C142.058 321.217 143.326 308.448 144.552 295.638C136.097 296.864 127.725 298.344 119.312 299.992C119.566 298.174 119.819 296.314 120.031 294.496C128.317 292.89 136.646 291.452 145.018 290.184Z" fill="white"/>
<path d="M191.569 269.594C191.358 276.866 191.146 284.138 190.935 291.367C189.54 291.41 188.102 291.494 186.707 291.579C185.354 291.663 184.001 291.748 182.648 291.833C182.352 291.833 182.056 291.875 181.718 291.875C181.126 291.917 180.577 291.959 179.985 292.002C177.998 292.128 176.01 292.255 174.023 292.424C169.795 292.763 165.568 293.143 161.34 293.566C161.466 291.748 161.593 289.93 161.72 288.112C170.091 287.224 178.463 286.59 186.876 286.125C187.045 280.671 187.257 275.217 187.426 269.763C175.123 270.439 162.862 271.539 150.643 273.187C149.501 285.956 148.318 298.724 147.176 311.535C155.801 310.393 164.426 309.463 173.093 308.786C173.009 310.604 172.882 312.422 172.797 314.24C164.045 314.959 155.336 315.889 146.669 317.031C146.161 322.527 145.696 327.981 145.189 333.477C158.507 331.702 171.909 330.476 185.354 329.757C185.608 322.485 185.861 315.213 186.115 307.983C187.849 307.899 188.694 307.856 190.428 307.772C190.216 315.044 190.005 322.316 189.793 329.546C194.275 329.376 198.714 329.25 203.196 329.165C203.281 321.893 203.323 314.663 203.407 307.391C207.72 307.349 212.075 307.349 216.387 307.391C216.472 314.663 216.514 321.893 216.598 329.165C221.08 329.25 225.519 329.376 230.001 329.546C229.451 309.59 228.859 289.592 228.31 269.636C216.091 269.129 203.83 269.129 191.569 269.594ZM203.619 291.029C203.619 289.211 203.661 287.393 203.661 285.575C207.847 285.533 212.032 285.533 216.26 285.575C216.26 287.393 216.302 289.211 216.302 291.029C212.075 290.987 207.847 290.987 203.619 291.029Z" fill="white"/>
<path d="M245.897 292.383C245.813 290.565 245.686 288.747 245.601 286.929C254.015 287.605 262.344 288.493 270.715 289.592C270.208 284.096 269.743 278.642 269.235 273.146C257.017 271.539 244.756 270.397 232.452 269.721C232.875 282.447 233.34 295.131 233.763 307.857C242.43 308.322 251.097 308.998 259.722 309.886C259.849 311.704 259.976 313.522 260.103 315.34C251.393 314.452 242.684 313.734 233.932 313.268C234.101 318.722 234.313 324.176 234.482 329.63C247.927 330.349 261.287 331.575 274.647 333.351C273.505 320.583 272.322 307.814 271.18 295.004C262.809 293.989 254.353 293.101 245.897 292.383Z" fill="white"/>
<path d="M288.049 297.667C287.837 295.849 287.626 293.989 287.415 292.171C295.786 293.651 304.115 295.299 312.359 297.16C311.514 291.621 310.668 286.083 309.865 280.544C297.773 277.796 285.597 275.513 273.293 273.737C274.52 286.548 275.788 299.316 277.014 312.127C285.681 313.395 294.264 314.875 302.847 316.566C303.1 318.384 303.354 320.244 303.565 322.062C294.94 320.329 286.231 318.849 277.521 317.581C278.071 323.077 278.578 328.531 279.128 334.027C292.53 335.972 305.848 338.466 319.039 341.468C317.095 328.531 315.15 315.636 313.205 302.698C304.876 300.838 296.505 299.147 288.049 297.667Z" fill="white"/>
<path d="M313.925 281.517C317.096 301.853 320.309 322.189 323.48 342.525C327.919 343.582 332.316 344.724 336.713 345.865C333.162 325.445 329.611 305.024 326.017 284.561C322 283.504 317.984 282.489 313.925 281.517Z" fill="white"/>
<path d="M380.177 358.676C374.512 334.069 371.806 321.893 366.141 297.287C362.167 295.849 358.192 294.454 354.176 293.101C355.782 300.627 357.389 308.152 358.996 315.678C348.637 302.022 342.718 298.851 330.034 285.322C334.389 309.505 336.757 322.908 341.112 347.134C345.509 348.36 349.906 349.628 354.303 350.981C352.823 343.498 351.343 336.014 349.863 328.531C364.196 341.511 369.058 344.47 380.177 358.676Z" fill="white"/>
<path d="M58.5147 328.997C59.1489 328.786 59.7831 328.574 60.6287 328.32L65.6176 326.714L60.9246 349.249C63.0809 348.572 65.2371 347.896 67.3934 347.261L71.7058 324.854L73.4815 324.346C77.7517 323.078 82.0642 321.894 86.3344 320.71L90.9428 319.484L87.0532 341.807C89.2939 341.216 91.5347 340.666 93.8178 340.116L98.7222 308.914C84.0513 312.254 68.7886 316.525 53.6104 321.936C55.1747 324.219 56.8236 326.629 58.5147 328.997Z" fill="#73CDDB"/>
<path d="M107.855 315.425C115.042 313.861 122.272 312.423 129.46 311.197L133.476 310.479L132.123 322.274L129.882 322.655C121.976 324.05 113.943 325.615 106.079 327.39L104.557 337.58C115.634 335.17 126.881 333.098 138.042 331.407L140.959 301.219C130.982 302.572 120.327 304.348 109.25 306.589L107.855 315.425Z" fill="#73CDDB"/>
<path d="M209.366 296.568C209.366 296.568 209.324 296.568 209.239 296.568C209.155 296.568 209.112 296.568 209.112 296.568C206.576 296.526 183.618 296.145 151.317 299.908L150.598 308.068C157.997 307.138 165.523 306.377 172.921 305.785L176.388 305.489L175.754 317.073L173.091 317.285C165.269 317.919 157.32 318.764 149.499 319.737L148.569 329.968C159.815 328.573 171.146 327.516 182.434 326.882L183.195 305.066L185.986 304.939C187.719 304.855 188.565 304.812 190.34 304.728L193.596 304.601L192.962 326.417C195.372 326.332 197.824 326.248 200.234 326.206L200.445 304.39L203.405 304.347C207.759 304.305 212.156 304.305 216.469 304.347L219.428 304.39L219.64 326.206C222.05 326.248 224.502 326.332 226.912 326.417L226.109 297.625C216.553 296.779 210.508 296.526 209.366 296.568Z" fill="#73CDDB"/>
<path d="M236.719 305.023C244.498 305.488 252.32 306.122 260.057 306.926L262.594 307.179L263.439 318.806L259.846 318.426C252.32 317.622 244.71 317.03 237.142 316.565L237.48 326.797C248.726 327.473 260.099 328.488 271.346 329.883L268.851 302.233C256.632 300.541 245.64 299.315 236.55 298.427L236.719 305.023Z" fill="#73CDDB"/>
<path d="M279.802 309.463C287.666 310.647 295.614 312.042 303.436 313.606L305.55 314.029L307.114 325.91L302.971 325.064C295.656 323.626 288.257 322.316 280.901 321.174L281.873 331.406C293.035 333.097 304.239 335.169 315.358 337.579L311.088 309.421C300.011 307.222 289.272 305.404 279.21 303.84L279.802 309.463Z" fill="#73CDDB"/>
<path d="M326.182 340.073C328.423 340.623 330.664 341.172 332.947 341.764L327.916 312.972C325.844 312.507 323.772 312.042 321.743 311.619L326.182 340.073Z" fill="#73CDDB"/>
<path d="M369.095 323.964C367.235 323.372 365.332 322.822 363.472 322.23L364.782 328.319L359.202 320.962C352.31 318.975 345.419 317.157 338.527 315.466C338.527 315.55 338.569 315.593 338.569 315.677C340.134 324.429 341.74 333.477 343.77 344.723C345.968 345.357 348.167 345.991 350.323 346.626L345.123 320.074L351.93 326.247C355.143 329.164 357.891 331.574 360.301 333.73C365.755 338.55 369.814 342.102 374.422 347.133C372.9 340.411 371.547 334.491 370.194 328.699C369.814 327.093 369.475 325.528 369.095 323.964Z" fill="#73CDDB"/>
</g>
</svg>
