<svg width="220" height="220" viewBox="0 0 220 220" fill="none" xmlns="http://www.w3.org/2000/svg">
<path d="M1 1H219V180.306L110 218.939L1 180.306V1Z" fill="url(#paint0_linear_1_51)" stroke="url(#paint1_linear_1_51)" stroke-width="2"/>
<path d="M191.889 185.111L187.858 183.524C170.423 176.612 150.252 172.746 136.409 170.721C122.895 168.733 112.772 168.077 109.581 167.931L108.45 167.894L106.152 167.967V167.894C102.468 167.912 94.6073 168.095 84.4852 169.244C66.9949 171.214 51.0548 175.025 37.1027 180.551L33.3274 182.047L36.3914 165.523L28.1113 153.796L39.3277 149.364L41.5345 139.862L42.5923 139.425C42.7565 139.352 46.8418 137.637 53.8817 135.485C59.7179 133.716 68.6728 131.327 79.4515 129.576C78.9408 128.828 78.4484 128.062 77.9559 127.296L43.9967 104.918L45.2733 103.04C45.4922 102.73 50.0152 96.1274 57.657 90.7655C55.3225 90.5101 54.2647 89.1605 53.9182 88.5951C52.988 87.1726 52.7692 85.5311 53.2616 83.8897L34.4399 65.068C32.0507 64.0832 31.23 62.2958 30.7741 59.9431C30.5188 58.6665 30.9565 57.3169 32.0872 55.949C34.0569 53.5416 38.4705 50.8606 41.6622 50.8606C43.8508 50.8606 45.6199 51.9913 46.5318 53.9793C46.8053 54.5811 46.9695 55.1648 47.0424 55.639L58.6418 66.6365C58.35 63.4266 58.1312 60.162 58.0217 56.8974C58.0035 56.405 58.0035 55.9125 58.0217 55.6025C58.0217 55.5113 58.0217 55.4201 58.0217 55.3654V53.6875L59.6267 53.2133C62.0888 52.4838 64.5692 51.809 66.9402 51.1706C70.4966 50.204 73.9071 49.2739 77.2264 48.1978C77.2811 46.1369 77.6094 44.6961 77.6277 44.6232L78.3389 41.6139L84.6493 45.4439C89.9931 43.2006 95.3003 40.5014 100.443 37.8933C102.322 36.9267 104.273 35.9419 106.207 34.9935C107.739 34.2275 109.453 33.7168 111.623 35.0299C118.517 39.2429 125.63 42.7994 132.761 45.608L139.309 41.6321L140.02 44.6414C140.038 44.7144 140.385 46.1916 140.421 48.3255C145.491 49.9487 150.689 51.2253 155.887 52.1372C156.434 52.2284 156.927 52.3926 157.474 52.575C157.747 52.6662 158.057 52.7573 158.404 52.8668L160.173 53.3957L160.009 55.2377C159.827 57.2257 159.662 59.2501 159.498 61.2198C159.152 65.5787 158.787 70.0835 158.149 74.5153C157.474 79.1843 156.617 83.7438 155.632 88.1027C160.757 90.8566 164.824 94.5043 167.432 97.1853C170.551 100.395 172.283 102.967 172.356 103.058L173.633 104.936L169.985 107.344L170.277 107.709L169.858 107.417L139.819 127.242C139.254 128.135 138.689 129.011 138.105 129.868C149.923 131.892 160.246 134.701 167.067 136.78C175.201 139.279 180.144 141.267 180.344 141.34L181.42 141.777L191.889 185.111ZM165.262 101.362L167.213 103.806L167.304 103.751C166.757 103.076 166.082 102.255 165.262 101.362ZM40.5679 56.3138C40.5862 56.332 40.6044 56.3502 40.6226 56.3685L41.5345 55.3471L40.5679 56.3138ZM40.2214 55.7484C40.2761 55.949 40.3855 56.1314 40.5314 56.2773L41.5163 55.3654C41.4798 55.3654 41.4433 55.3654 41.4069 55.3836L40.2214 55.7484ZM72.4845 117.594L67.8703 115.277L72.1562 112.432L72.9952 113.691L73.3417 112.998L72.9952 113.691L74.6366 116.171L72.4845 117.594ZM144.087 116.864L143.084 116.189L145.583 112.451L146.586 113.125L144.087 116.864ZM60.0097 101.325L59.8273 101.179L62.6725 97.7142L62.8548 97.8601L60.0097 101.325Z" fill="#AAAAAA"/>
<path d="M60.2645 55.3652C60.2645 55.6205 60.2462 56.2224 60.2645 56.8242C60.8663 73.8586 63.9121 90.364 69.9489 106.158C77.6088 126.22 89.573 142.47 107.209 153.541C108.522 154.361 109.38 154.27 110.62 153.486C123.569 145.334 133.691 134.208 141.26 120.366C149.102 106.049 153.589 90.4735 155.96 74.1686C156.871 67.8218 157.218 61.3837 157.802 55.0004C156.726 54.6904 156.124 54.4533 155.504 54.3439C139.491 51.517 124.535 45.5531 110.456 36.9447C109.215 36.1787 108.413 36.3976 107.209 36.9995C99.2574 40.9389 91.3968 45.2248 83.1897 48.4712C75.8762 51.3528 68.1615 53.049 60.2645 55.3652Z" fill="#AAAAAA"/>
<path d="M165.735 103.605L145.344 114.985L139.235 110.918L140.603 109.095L135.569 104.517L144.706 109.095L159.023 97.3127C161.631 99.0454 164.038 101.143 165.735 103.605Z" fill="#AAAAAA"/>
<path d="M156.234 95.6169L144.252 106.359L134.804 103.076L144.707 90.8203C144.707 90.8203 150.452 92.3706 156.234 95.6169Z" fill="#AAAAAA"/>
<path d="M140.786 85.9326C140.914 86.9539 140.586 87.6105 140.586 87.6105L121.399 110.007L118.663 104.061L112.718 107.253V104.973L109.07 106.797H108.614L104.967 104.973V107.253L99.0028 104.061L96.2671 110.007L77.0807 87.6105C77.0807 87.6105 76.7524 86.9539 76.8801 85.9326C81.7496 93.6108 89.5008 99.2099 89.5008 99.2099C88.753 96.2918 88.4795 93.3737 88.5342 90.5651L92.1453 93.1367C98.3463 102.766 108.851 105.63 108.851 105.63C108.851 105.63 119.338 102.748 125.557 93.1367L129.169 90.5651C129.223 93.3737 128.95 96.2918 128.202 99.2099C128.184 99.2099 135.917 93.6108 140.786 85.9326Z" fill="#AAAAAA"/>
<path d="M135.205 72.3999L140.202 77.3971C140.02 78.0172 139.783 78.8015 139.473 79.6951C139.163 80.5888 138.762 81.5736 138.269 82.5585C137.193 84.7288 135.643 86.9356 133.436 88.2123C133.436 88.2123 133.381 87.957 133.272 87.501C132.98 86.2608 132.269 83.5251 131.138 80.2058C130.938 79.5857 130.7 78.9656 130.463 78.309C131.831 77.3424 133.819 76.011 135.205 72.3999Z" fill="#AAAAAA"/>
<path d="M139.291 118.359L110.438 134.481V128.736L125.065 120.967L110.438 125.545V117.502L125.521 114.584L133.746 104.389V116.408L139.291 118.359Z" fill="#AAAAAA"/>
<path d="M108.833 65.7976L136.081 48.2161C136.081 56.5691 129.935 60.089 129.935 60.089C119.393 62.7336 108.833 72.8374 108.833 72.8374C108.833 72.8374 98.2915 62.7336 87.7317 60.089C87.7317 60.089 81.5854 56.5691 81.5854 48.2161L108.833 65.7976Z" fill="#AAAAAA"/>
<path d="M133.892 70.2106C133.892 70.9766 132.633 76.0467 130.445 78.2718C128.748 73.7123 126.359 68.4962 123.204 64.7574C125.046 63.736 126.87 62.8789 128.53 62.3135C129.788 63.9731 133.892 69.4628 133.892 70.2106Z" fill="#AAAAAA"/>
<path d="M128.53 84.4917C128.001 85.8048 126.98 88.1393 125.412 90.6562C124.299 92.4435 122.895 94.322 121.217 95.9634C124.226 90.6926 126.67 81.4459 126.67 81.4459L124.591 72.3269C126.105 75.5915 127.673 79.7863 128.53 84.4917Z" fill="#AAAAAA"/>
<path d="M124.463 53.2679L108.833 62.7334V53.9427C108.833 56.5872 106.644 57.4626 106.644 57.4626L105.441 60.6725L93.2212 53.2679C94.0237 50.824 97.5983 42.5256 108.851 42.5256C120.104 42.5256 123.642 50.8057 124.463 53.2679Z" fill="#AAAAAA"/>
<path d="M120.323 74.7886C120.232 74.8069 115.271 75.5182 113.155 77.652C113.155 77.652 115.307 79.8041 117.459 78.3633C119.575 76.959 120.286 74.8616 120.323 74.7886ZM97.3611 74.7886C97.3793 74.8616 98.1089 76.959 100.224 78.3815C102.377 79.8223 104.529 77.6702 104.529 77.6702C102.395 75.5182 97.4523 74.8069 97.3611 74.7886ZM121.362 72.8372C121.362 72.8372 124.627 76.2112 123.916 78.3815C123.916 78.3815 111.714 83.397 108.851 83.397C105.988 83.397 93.7864 78.3815 93.7864 78.3815C93.0752 76.2294 96.3398 72.8554 96.3398 72.8372C101.191 74.5333 108.559 77.652 108.851 81.1902C109.125 77.6702 116.511 74.5333 121.362 72.8372Z" fill="#AAAAAA"/>
<path d="M101.793 71.9624C101.666 71.8894 97.398 69.2996 96.9603 67.567C96.7779 66.8375 96.6684 66.3268 96.6137 65.9985C102.888 69.7738 108.833 74.6069 108.833 74.6069C108.833 74.6069 114.779 69.7738 121.053 65.9985C120.998 66.3451 120.889 66.8375 120.706 67.567C120.268 69.2996 116.001 71.8894 115.873 71.9624L122.749 68.716C123.022 69.2084 123.314 69.7373 123.606 70.3392C113.484 72.619 108.815 78.1268 108.815 78.1268C108.815 78.1268 104.164 72.6372 94.0239 70.3392C94.334 69.7556 94.6075 69.2084 94.8811 68.716L101.793 71.9624Z" fill="#AAAAAA"/>
<path d="M124.482 79.0566C123.935 81.5917 121.746 90.6925 117.442 95.5986C112.427 101.344 110.986 101.344 110.986 101.344H113.849C113.849 101.344 110.986 104.207 108.834 104.207C106.682 104.207 103.818 101.344 103.818 101.344H106.682C106.682 101.344 105.241 101.344 100.225 95.5986C95.9395 90.6925 93.7327 81.5917 93.1855 79.0566C97.2344 81.7923 108.834 84.8381 108.834 84.8381C108.834 84.8381 120.433 81.7741 124.482 79.0566Z" fill="#AAAAAA"/>
<path d="M120.323 74.7888C120.305 74.8618 119.576 76.9591 117.46 78.3817C115.308 79.8225 113.156 77.6704 113.156 77.6704C115.271 75.5183 120.214 74.8071 120.323 74.7888Z" fill="#AAAAAA"/>
<path d="M107.228 128.736V134.481L78.3755 118.359L83.9199 116.408V104.389L92.1452 114.584L107.228 117.502V125.545L92.6194 120.967L107.228 128.736Z" fill="#AAAAAA"/>
<path d="M104.528 77.6519C104.528 77.6519 102.376 79.804 100.224 78.3632C98.1081 76.9406 97.3786 74.8432 97.3604 74.7703C97.4515 74.8067 102.394 75.518 104.528 77.6519Z" fill="#AAAAAA"/>
<path d="M96.4668 95.9634C94.7889 94.322 93.3845 92.4435 92.272 90.6562C90.7036 88.1575 89.6822 85.8048 89.1533 84.4917C89.9923 79.7863 91.579 75.5915 93.0927 72.3269L91.0136 81.4459C91.0136 81.4459 93.4575 90.6744 96.4668 95.9634Z" fill="#AAAAAA"/>
<path d="M89.1369 62.3135C90.7966 62.8789 92.6204 63.736 94.4624 64.7574C91.3072 68.4962 88.8998 73.694 87.2219 78.2718C85.0333 76.0285 83.7749 70.9766 83.7749 70.2106C83.7749 69.4628 87.8967 63.9731 89.1369 62.3135Z" fill="#AAAAAA"/>
<path d="M87.1835 78.3451C86.9464 78.9834 86.7275 79.6218 86.5087 80.2236C85.3779 83.5247 84.6666 86.2786 84.3748 87.5188C84.2654 87.9748 84.2107 88.2301 84.2107 88.2301C82.0039 86.9352 80.4536 84.7467 79.3776 82.5763C78.8851 81.5915 78.4839 80.6066 78.1739 79.7129C77.8638 78.8193 77.6267 78.035 77.4443 77.415L82.4416 72.4177C83.8641 76.0106 85.8338 77.342 87.1835 78.3451Z" fill="#AAAAAA"/>
<path d="M72.9591 90.8203L82.8623 103.076L73.415 106.359L61.4326 95.6169C67.2323 92.3706 72.9591 90.8203 72.9591 90.8203Z" fill="#AAAAAA"/>
<path d="M82.0954 104.517L77.0617 109.095L78.4296 110.918L72.3198 114.985L51.9297 103.605C53.6076 101.143 56.0332 99.0454 58.6413 97.3127L72.9582 109.095L82.0954 104.517Z" fill="#AAAAAA"/>
<path d="M68.9645 83.1602L71.8278 86.8078C68.6909 87.4644 65.7728 88.6134 63.1465 90.036L63.2012 89.9995L60.3926 86.9355C60.3926 86.9355 60.8485 79.622 68.162 82.3577L68.9645 83.1602Z" fill="#AAAAAA"/>
<path d="M61.8337 99.2825L59.3716 101.179L72.7583 112.45L78.3209 109.66L82.8987 104.189L80.1083 104.754L73.196 108.091L69.1837 104.189L61.8337 99.2825Z" fill="#AAAAAA"/>
<path d="M59.9374 77.7801C60.0468 77.7618 64.9711 76.4304 66.339 77.7801C67.7068 79.1479 66.7949 80.0598 66.7949 80.0598C66.7949 80.0598 61.7612 79.1479 60.3934 83.2515C59.6638 85.44 59.445 86.206 59.4085 86.4431C58.9343 86.3519 55.925 85.6771 57.1835 81.8836L36.7568 61.457C37.4681 59.7973 39.0913 57.7182 42.8483 57.0251L62.0348 75.7739C61.3417 76.2116 60.6305 76.8682 59.9374 77.7801Z" fill="#AAAAAA"/>
<path d="M41.6436 54.4714C42.7379 54.6902 42.3184 55.9669 42.3184 55.9669C40.9323 56.2769 37.7407 57.3165 35.6068 60.7088C34.9685 60.4717 34.0201 59.961 34.3302 59.0491C34.8043 57.6813 39.3639 54.0154 41.6436 54.4714Z" fill="#AAAAAA"/>
<path d="M74.8735 92.6072L71.8643 93.7197L79.889 102.292L75.8766 105.866L83.7919 103.532L74.8735 92.6072Z" fill="#AAAAAA"/>
<path d="M155.923 99.2825L158.385 101.179L144.999 112.45L139.418 109.66L134.858 104.189L137.649 104.754L144.561 108.091L148.573 104.189L155.923 99.2825Z" fill="#AAAAAA"/>
<path d="M142.883 92.6072L145.893 93.7197L137.868 102.292L141.88 105.866L133.965 103.532L142.883 92.6072Z" fill="#AAAAAA"/>
<path d="M158.932 97.0576L162.617 101.635L159.388 104.426L160.045 105.538L154.592 110.335L166.41 104.079V102.292L158.932 97.0576Z" fill="#AAAAAA"/>
<path d="M144.452 90.3635L152.586 95.5067L150.124 97.9506L150.689 98.6254L148.008 103.75L157.711 95.379L153.133 93.3728L144.452 90.3635Z" fill="#AAAAAA"/>
<path d="M123.479 112.45L133.054 104.608L133.637 103.185L133.765 104.024L133.966 103.86L133.783 104.188L135.644 116.244L140.422 118.013L138.306 119.472L133.966 116.244L131.85 107.562L127.163 115.788L115.126 118.469V121.916L124.573 121.15L115.126 127.953V129.722L128.166 125.053L108.87 136.415V115.004L123.479 112.45Z" fill="#AAAAAA"/>
<path d="M108.869 84.8017L97.0504 82.449L98.2724 87.0267L102.96 91.1485H99.3849C99.3849 91.1485 104.966 100.286 108.522 100.286H108.85V104.754L105.276 103.186L101.263 99.1733L96.6857 91.5863L92.7827 80.3334L93.111 78.7649L97.0139 80.3334L108.869 84.8017Z" fill="#AAAAAA"/>
<path d="M108.541 84.8013L120.359 82.4668L119.137 87.0446L114.45 91.1664H118.025C118.025 91.1664 112.444 100.304 108.888 100.304H108.541V104.772L112.116 103.203L116.128 99.1911L120.706 91.6041L124.609 80.3512L124.28 78.7827L120.378 80.3512L108.541 84.8013Z" fill="#AAAAAA"/>
<path d="M131.064 112.104L127.945 117.028L119.027 119.034V120.348L128.274 118.451C128.274 118.469 131.064 116.645 131.064 112.104Z" fill="#AAAAAA"/>
<path d="M133.636 120.146L125.046 124.815L121.818 125.928L125.83 122.372L132.287 119.472L133.636 120.146Z" fill="#AAAAAA"/>
<path d="M84.9048 97.9507L94.498 105.319L95.0451 104.188L93.1484 99.2821L105.313 107.434L99.7323 106.322L96.5042 111.447L84.9048 97.9507Z" fill="#AAAAAA"/>
<path d="M132.397 97.9507L122.822 105.319L122.257 104.188L124.153 99.2821L112.007 107.434L117.569 106.322L120.816 111.447L132.397 97.9507Z" fill="#AAAAAA"/>
<path d="M58.8243 97.0576L55.1402 101.635L58.3683 104.426L57.6935 105.538L63.1649 110.335L51.3467 104.079V102.292L58.8243 97.0576Z" fill="#AAAAAA"/>
<path d="M92.4912 63.1707L87.9134 70.63V73.9858L86.4179 77.3781L85.2324 76.2109L82.8979 82.2294L83.4633 88.248L84.5759 88.9228L89.1354 74.7701L93.3848 67.2925L95.5004 64.7209L92.4912 63.1707Z" fill="#AAAAAA"/>
<path d="M73.3059 90.3635L65.1718 95.5067L67.6339 97.9506L67.0685 98.6254L69.7495 103.75L60.0469 95.379L64.6064 93.3728L73.3059 90.3635Z" fill="#AAAAAA"/>
<path d="M90.4854 62.2778L85.014 70.3026L85.9077 76.8865L83.4638 72.8741L78.7766 77.6525L80.4545 85.2395L76.3145 77.4336L82.0047 71.3056L84.1203 67.8404L88.4792 61.1653L90.4854 62.2778Z" fill="#AAAAAA"/>
<path d="M125.484 63.1707L130.062 70.63V73.9858L131.558 77.3781L132.743 76.2109L135.078 82.2294L134.512 88.248L133.4 88.9228L128.84 74.7701L124.591 67.2925L122.475 64.7209L125.484 63.1707Z" fill="#AAAAAA"/>
<path d="M127.381 62.2778L132.852 70.3026L131.959 76.8865L134.403 72.8741L139.09 77.6525L137.412 85.2395L141.552 77.4336L135.862 71.3056L133.746 67.8404L129.387 61.1653L127.381 62.2778Z" fill="#AAAAAA"/>
<path d="M94.2798 112.45L84.7048 104.608L84.1212 103.185L83.9935 104.024L83.7929 103.86L83.9753 104.188L82.115 116.244L77.3184 118.013L79.4522 119.472L83.7929 116.244L85.9085 107.562L90.5957 115.788L102.633 118.469V121.916L93.1855 121.15L102.633 127.953V129.722L89.5926 125.053L108.87 136.415V115.004L94.2798 112.45Z" fill="#AAAAAA"/>
<path d="M108.87 64.3931L83.3364 48.6719L87.1299 56.6966C87.1299 56.6966 97.8357 60.4901 100.17 63.1711L108.87 70.3022L117.569 63.1711C119.904 60.4901 130.609 56.6966 130.609 56.6966L134.403 48.6719L108.87 64.3931Z" fill="#AAAAAA"/>
<path d="M39.1632 58.5024L57.5837 77.2147L60.0276 75.9927L58.6962 78.7832C58.6962 78.7832 61.3772 77.8895 62.7086 78.2178C64.0399 78.5461 64.9336 80.3334 64.9336 80.3334L61.8149 81.7742L59.5899 87.118L56.69 86.4431L56.4712 82.5402L36.1904 61.1652L37.5218 59.4873L39.1632 58.5024Z" fill="#AAAAAA"/>
<path d="M37.194 55.4749C37.194 55.4749 38.0876 57.6999 38.7624 58.0464L35.9538 61.2746L34.2759 60.7092L33.6011 59.7061L35.279 56.6968L37.194 55.4749Z" fill="#AAAAAA"/>
<path d="M94.498 54.2531C94.498 54.2531 95.6106 48.8547 97.5073 47.7969C97.5073 47.7969 95.5011 54.4902 100.845 58.2655C106.189 62.0225 108.87 63.7916 108.87 63.7916L118.116 57.5542C118.116 57.5542 118.791 55.548 117.332 53.323C117.332 53.323 119.01 53.2136 118.901 51.2074C118.791 49.2012 115.891 46.0278 114.213 45.3347C114.213 45.3347 120.123 45.5718 124.025 54.2714L108.87 64.8494L94.498 54.2531Z" fill="#AAAAAA"/>
<path d="M99.7131 66.8001C99.7131 66.8001 99.6402 68.5874 100.68 69.5723C101.719 70.5389 104.492 73.2381 104.492 73.2381L99.6949 71.5238L99.4213 72.3262L93.2021 71.3596L93.421 69.2622L96.1932 64.8486L99.7131 66.8001Z" fill="#AAAAAA"/>
<path d="M117.897 66.8001C117.897 66.8001 117.969 68.5874 116.93 69.5723C115.89 70.5571 113.118 73.2381 113.118 73.2381L117.915 71.5238L118.207 72.3445L124.426 71.3779L124.207 69.2805L121.416 64.8486L117.897 66.8001Z" fill="#AAAAAA"/>
<path d="M62.6538 81.5552L68.5083 89.4705L63.4928 91.039L59.5898 87.136L61.1583 82.5583L62.6538 81.5552Z" fill="#AAAAAA"/>
<path d="M144.032 86.4615C144.032 86.4615 143.649 84.6741 142.537 82.8138C143.139 81.5737 143.649 80.297 144.014 78.9839C144.014 78.9839 142.263 75.4639 140.932 75.4639C140.932 75.4639 140.914 75.5733 140.859 75.774L135.989 70.5579C136.026 70.4484 136.062 70.3208 136.099 70.2113L130.153 61.7124C140.677 57.0799 137.868 45.1705 137.868 45.1705L126.579 52.0098C121.144 40.7569 108.851 40.3374 108.851 40.3374C108.851 40.3374 96.577 40.7751 91.1238 52.0098L79.8162 45.1523C79.8162 45.1523 77.0075 57.0617 87.5309 61.6942L81.5853 70.1931C81.6217 70.3208 81.6582 70.4302 81.6947 70.5396L76.8251 75.7557C76.7704 75.5551 76.7522 75.4457 76.7522 75.4457C75.439 75.4457 73.6699 78.9656 73.6699 78.9656C74.0347 80.2788 74.5454 81.5554 75.1472 82.7956C74.4907 83.8899 74.0894 84.9659 73.8706 85.659L70.3324 81.7196C70.4418 80.4064 70.4601 78.8927 69.9859 78.2179C69.3658 77.2877 67.0313 74.6432 64.1679 74.9532L44.9085 56.7152C44.9085 56.7152 44.8538 53.104 41.6622 53.104C38.4705 53.104 32.5249 57.2258 32.9808 59.5056C33.4368 61.7854 34.1298 62.5878 35.6071 63.0985L35.6254 63.062L55.9608 83.3975C55.3225 84.437 54.8483 85.9143 55.8331 87.3916C55.8331 87.3916 56.745 89.2154 60.4109 88.3035L62.2164 90.5468C52.8603 95.9088 47.1701 104.298 47.1701 104.298L108.869 144.969L170.569 104.298C170.532 104.298 160.027 88.7595 144.032 86.4615ZM144.707 90.8204C144.707 90.8204 150.434 92.3888 156.234 95.617L144.251 106.359L134.804 103.076L144.707 90.8204ZM140.202 77.3971C140.02 78.0172 139.783 78.8015 139.473 79.6951C139.163 80.5888 138.762 81.5737 138.269 82.5585C137.193 84.7288 135.643 86.9356 133.436 88.2123C133.436 88.2123 133.381 87.957 133.272 87.501C132.98 86.2608 132.269 83.5251 131.138 80.2058C130.937 79.5857 130.7 78.9656 130.463 78.309C131.813 77.306 133.801 75.9928 135.187 72.3634L140.202 77.3971ZM133.892 70.2113C133.892 70.9773 132.652 76.0475 130.445 78.2726C128.749 73.7131 126.36 68.497 123.205 64.7582C125.047 63.7368 126.87 62.8796 128.53 62.3143C129.788 63.9739 133.892 69.4636 133.892 70.2113ZM113.867 101.344C113.867 101.344 111.003 104.207 108.851 104.207C106.699 104.207 103.836 101.344 103.836 101.344H106.699C106.699 101.344 105.258 101.344 100.243 95.5987C95.9569 90.6927 93.7501 81.5919 93.2029 79.0568C97.2518 81.7925 108.851 84.8383 108.851 84.8383C108.851 84.8383 120.451 81.7925 124.499 79.0568C123.952 81.5919 121.764 90.6927 117.46 95.5987C112.444 101.344 111.003 101.344 111.003 101.344H113.867ZM96.96 67.5668C96.7776 66.8373 96.6681 66.3266 96.6134 65.9984C102.887 69.7554 108.833 74.6067 108.833 74.6067C108.833 74.6067 114.779 69.7736 121.052 65.9984C120.998 66.3449 120.888 66.8373 120.706 67.5668C120.268 69.3177 115.873 71.9622 115.873 71.9622L122.767 68.7158C123.04 69.2083 123.332 69.7372 123.624 70.339C113.502 72.6188 108.833 78.1267 108.833 78.1267C108.833 78.1267 104.182 72.637 94.0419 70.339C94.3337 69.7554 94.6255 69.2083 94.8991 68.7158L101.793 71.9622C101.793 71.9622 97.3977 69.3177 96.96 67.5668ZM123.898 78.382C123.898 78.382 111.696 83.3975 108.833 83.3975C105.97 83.3975 93.7683 78.382 93.7683 78.382C93.057 76.2299 96.3216 72.8559 96.3216 72.8559C101.173 74.552 108.541 77.6707 108.833 81.2089C109.125 77.6707 116.511 74.552 121.344 72.8559C121.362 72.8376 124.627 76.2299 123.898 78.382ZM91.0143 81.446C91.0143 81.446 93.4582 90.6927 96.4675 95.9635C94.7896 94.3221 93.3853 92.4435 92.2728 90.6562C90.7043 88.1576 89.683 85.8049 89.1541 84.4917C89.993 79.7863 91.5797 75.5916 93.0935 72.327L91.0143 81.446ZM126.652 81.446L124.591 72.327C126.104 75.5916 127.673 79.7863 128.53 84.4917C128.001 85.8049 126.98 88.1394 125.411 90.6562C124.299 92.4435 122.894 94.3221 121.217 95.9635C124.208 90.6744 126.652 81.446 126.652 81.446ZM108.833 42.5077C120.068 42.5077 123.642 50.806 124.463 53.2499L108.833 62.7155V53.9248C108.833 56.5693 106.626 57.4447 106.626 57.4447L105.422 60.6546L93.2029 53.2499C94.0236 50.806 97.5983 42.5077 108.833 42.5077ZM81.5853 48.2162L108.833 65.7977L136.081 48.2162C136.081 56.5693 129.934 60.0892 129.934 60.0892C119.393 62.7337 108.833 72.8376 108.833 72.8376C108.833 72.8376 98.2913 62.7337 87.7315 60.0892C87.7315 60.0892 81.5853 56.5693 81.5853 48.2162ZM89.1358 62.3143C90.7955 62.8796 92.6193 63.7368 94.4613 64.7582C91.3062 68.497 88.8987 73.6948 87.2208 78.2726C85.0323 76.0293 83.7738 70.9773 83.7738 70.2113C83.7738 69.4636 87.8956 63.9739 89.1358 62.3143ZM82.4607 72.3999C83.865 76.0293 85.8347 77.3424 87.1844 78.3455C86.9473 78.9839 86.7284 79.6222 86.5095 80.2423C85.3788 83.5434 84.6675 86.2973 84.3757 87.5375C84.2663 87.9935 84.2116 88.2488 84.2116 88.2488C82.0047 86.9539 80.4545 84.7653 79.3785 82.595C78.886 81.6101 78.4848 80.6253 78.1747 79.7316C77.8647 78.8379 77.6276 78.0537 77.4452 77.4336L82.4607 72.3999ZM34.3487 59.0497C34.8046 57.6818 39.3824 54.0159 41.6622 54.4719C42.7564 54.6908 42.337 55.9674 42.337 55.9674C40.9509 56.2775 37.7592 57.317 35.6254 60.7093C34.9688 60.4905 34.0386 59.9798 34.3487 59.0497ZM59.4078 86.4615C58.9336 86.3703 55.9243 85.6955 57.1827 81.9019L36.7561 61.4753C37.4674 59.8157 39.0906 57.7365 42.8476 57.0435L62.0341 75.774C61.341 76.2299 60.648 76.8682 59.9367 77.7801C59.9367 77.7801 64.9704 76.4123 66.3382 77.7801C67.7061 79.148 66.7942 80.0599 66.7942 80.0599C66.7942 80.0599 61.7605 79.148 60.3926 83.2516C59.6631 85.4584 59.4443 86.2244 59.4078 86.4615ZM60.3926 86.9356C60.3926 86.9356 60.8486 79.6222 68.1621 82.3579L68.9645 83.1604L71.8279 86.808C68.691 87.4645 65.7729 88.6135 63.1284 90.0361L63.1831 89.9996L60.3926 86.9356ZM72.9587 90.8204L82.8619 103.076L73.4146 106.359L61.4322 95.617C67.2319 92.3706 72.9587 90.8204 72.9587 90.8204ZM51.9302 103.605C53.6081 101.143 56.0337 99.0457 58.6418 97.3131L72.9587 109.095L82.0959 104.517L77.0622 109.095L78.4301 110.919L72.3203 114.986L51.9302 103.605ZM107.228 125.546L92.6011 120.968L107.228 128.737V134.464L78.3571 118.36L83.9197 116.39V104.371L92.1451 114.548L107.228 117.484V125.546ZM108.614 106.815L104.966 104.991V107.271L99.0026 104.061L96.2669 110.007L77.0805 87.6105C77.0805 87.6105 76.7522 86.9539 76.8798 85.9326C81.7494 93.6108 89.5006 99.2099 89.5006 99.2099C88.7528 96.2918 88.4793 93.3737 88.534 90.565L92.1451 93.1366C98.346 102.766 108.851 105.63 108.851 105.63C108.851 105.63 119.338 102.748 125.557 93.1366L129.15 90.565C129.205 93.3737 128.931 96.2918 128.184 99.2099C128.184 99.2099 135.916 93.6108 140.804 85.9326C140.932 86.9539 140.604 87.6105 140.604 87.6105L121.399 110.007L118.663 104.061L112.718 107.253V104.973L109.07 106.797H108.614V106.815ZM110.438 134.482V128.756L125.065 120.986L110.438 125.564V117.521L125.521 114.585L133.746 104.408V116.427L139.309 118.396L110.438 134.482ZM139.236 110.919L140.604 109.095L135.57 104.517L144.707 109.095L159.024 97.3131C161.632 99.0457 164.058 101.143 165.736 103.605L145.346 114.986L139.236 110.919Z" fill="#AAAAAA"/>
<path d="M86.6919 112.104L89.8106 117.028L98.729 119.034V120.348L89.4823 118.469C89.4823 118.469 86.6919 116.645 86.6919 112.104Z" fill="#AAAAAA"/>
<path d="M84.1206 120.146L92.7107 124.815L95.9389 125.928L91.9265 122.372L85.4702 119.472L84.1206 120.146Z" fill="#AAAAAA"/>
<path d="M84.8862 51.9182L87.1478 56.6966L93.2028 59.104C93.1845 59.104 85.178 60.3989 84.8862 51.9182Z" fill="#AAAAAA"/>
<path d="M132.871 51.9182L130.61 56.6966L124.555 59.104C124.573 59.104 132.579 60.3989 132.871 51.9182Z" fill="#AAAAAA"/>
<path d="M179.487 143.419C179.487 143.419 145.017 129.448 108.504 129.43C108.486 129.43 108.468 129.43 108.449 129.43C108.431 129.43 108.413 129.43 108.395 129.43C71.8821 129.448 43.449 141.467 43.449 141.467L41.2422 151.006L31.5942 154.817L38.78 164.994L36.2814 178.417C70.1677 164.994 106.243 165.578 108.413 165.614C108.413 165.614 108.431 165.614 108.468 165.614C108.504 165.614 108.522 165.614 108.522 165.614C110.693 165.56 154.829 167.985 188.715 181.408L179.487 143.419Z" fill="#AAAAAA"/>
<path d="M48.428 144.185C47.7532 147.431 47.0784 150.659 46.4035 153.906C44.0144 154.69 41.6434 155.511 39.2725 156.368C40.5126 158.192 41.7711 159.997 43.0477 161.803C43.7773 161.566 44.142 161.438 44.8715 161.201C44.1967 164.447 43.5219 167.676 42.8471 170.922C44.7256 170.32 46.6224 169.718 48.5192 169.153C49.1393 165.925 49.7593 162.715 50.3612 159.487C52.185 158.94 54.0271 158.429 55.8691 157.936C55.3037 161.146 54.7566 164.338 54.1912 167.548C56.088 167.037 57.9847 166.563 59.8997 166.107C61.2676 157.335 62.6537 148.562 64.0215 139.79C58.8054 141.048 53.5893 142.525 48.428 144.185ZM57.164 150.714C55.3584 151.207 53.5711 151.699 51.7838 152.228C51.9297 151.425 52.0938 150.623 52.2397 149.82C54.0088 149.292 55.7961 148.799 57.5835 148.307C57.4376 149.109 57.3099 149.912 57.164 150.714Z" fill="#AAAAAA"/>
<path d="M80.8905 143.51C81.1276 141.139 81.3464 138.787 81.5835 136.416C76.2945 137.2 71.0237 138.167 65.8076 139.352C64.9686 144.933 64.1297 150.496 63.2907 156.076C66.9748 155.237 70.6771 154.49 74.4159 153.851C74.3248 154.636 74.2336 155.438 74.1424 156.222C70.3853 156.879 66.6465 157.627 62.9442 158.466C62.5794 160.855 62.2147 163.244 61.8682 165.633C67.5767 164.338 73.3034 163.262 79.0849 162.423C79.6138 156.897 80.1609 151.389 80.6898 145.863C77.0422 146.392 73.4311 147.03 69.8017 147.742C69.9111 146.957 70.0206 146.155 70.1118 145.371C73.6864 144.678 77.2793 144.058 80.8905 143.51Z" fill="#AAAAAA"/>
<path d="M100.972 134.628C100.88 137.765 100.789 140.902 100.698 144.021C100.096 144.039 99.476 144.076 98.8741 144.112C98.2905 144.149 97.7069 144.185 97.1233 144.222C96.9956 144.222 96.8679 144.24 96.722 144.24C96.4667 144.258 96.2296 144.276 95.9743 144.295C95.1171 144.349 94.2599 144.404 93.4027 144.477C91.5789 144.623 89.7551 144.787 87.9313 144.969C87.986 144.185 88.0407 143.401 88.0954 142.617C91.7066 142.234 95.3177 141.96 98.9471 141.76C99.02 139.407 99.1112 137.054 99.1842 134.701C93.8769 134.993 88.5879 135.467 83.3171 136.179C82.8246 141.687 82.314 147.195 81.8215 152.721C85.5421 152.228 89.2627 151.827 93.0015 151.535C92.965 152.319 92.9103 153.104 92.8738 153.888C89.0985 154.198 85.3415 154.599 81.6027 155.092C81.3838 157.463 81.1832 159.815 80.9644 162.186C86.7093 161.42 92.4908 160.891 98.2905 160.581C98.3999 157.444 98.5094 154.307 98.6188 151.189C99.3666 151.152 99.7313 151.134 100.479 151.097C100.388 154.234 100.297 157.371 100.206 160.49C102.139 160.417 104.054 160.362 105.987 160.326C106.023 157.189 106.042 154.07 106.078 150.933C107.938 150.915 109.817 150.915 111.677 150.933C111.714 154.07 111.732 157.189 111.768 160.326C113.702 160.362 115.617 160.417 117.55 160.49C117.313 151.882 117.057 143.255 116.82 134.647C111.55 134.428 106.261 134.428 100.972 134.628ZM106.169 143.875C106.169 143.091 106.188 142.307 106.188 141.522C107.993 141.504 109.799 141.504 111.623 141.522C111.623 142.307 111.641 143.091 111.641 143.875C109.817 143.857 107.993 143.857 106.169 143.875Z" fill="#AAAAAA"/>
<path d="M124.407 144.459C124.371 143.675 124.316 142.89 124.279 142.106C127.909 142.398 131.502 142.781 135.113 143.255C134.894 140.884 134.693 138.532 134.475 136.161C129.204 135.468 123.915 134.975 118.607 134.683C118.79 140.173 118.99 145.644 119.173 151.134C122.912 151.335 126.65 151.627 130.371 152.01C130.426 152.794 130.48 153.578 130.535 154.362C126.778 153.979 123.021 153.669 119.246 153.469C119.319 155.821 119.41 158.174 119.483 160.527C125.283 160.837 131.046 161.366 136.809 162.132C136.317 156.624 135.806 151.116 135.313 145.59C131.702 145.152 128.055 144.769 124.407 144.459Z" fill="#AAAAAA"/>
<path d="M142.59 146.739C142.499 145.954 142.408 145.152 142.317 144.368C145.928 145.006 149.521 145.717 153.077 146.52C152.712 144.13 152.348 141.741 152.001 139.352C146.785 138.167 141.532 137.182 136.225 136.416C136.754 141.942 137.301 147.45 137.83 152.976C141.569 153.523 145.271 154.161 148.974 154.891C149.083 155.675 149.192 156.478 149.284 157.262C145.563 156.514 141.806 155.876 138.049 155.329C138.286 157.7 138.505 160.052 138.742 162.423C144.523 163.262 150.268 164.338 155.959 165.633C155.12 160.052 154.281 154.49 153.442 148.909C149.849 148.106 146.238 147.377 142.59 146.739Z" fill="#AAAAAA"/>
<path d="M153.752 139.772C155.12 148.544 156.506 157.317 157.874 166.089C159.789 166.545 161.686 167.038 163.583 167.53C162.051 158.721 160.519 149.912 158.969 141.085C157.236 140.629 155.503 140.191 153.752 139.772Z" fill="#AAAAAA"/>
<path d="M182.332 173.056C179.888 162.442 178.721 157.189 176.277 146.574C174.563 145.954 172.848 145.353 171.116 144.769C171.809 148.015 172.502 151.262 173.195 154.508C168.726 148.617 166.173 147.249 160.702 141.413C162.58 151.845 163.602 157.627 165.48 168.077C167.377 168.606 169.274 169.153 171.17 169.737C170.532 166.509 169.894 163.281 169.255 160.052C175.438 165.651 177.535 166.928 182.332 173.056Z" fill="#AAAAAA"/>
<path d="M43.5756 160.253C43.8491 160.162 44.1227 160.071 44.4875 159.962L46.6396 159.269L44.6151 168.989C45.5453 168.698 46.4754 168.406 47.4056 168.132L49.2659 158.466L50.0318 158.247C51.8739 157.7 53.7342 157.189 55.5762 156.679L57.5642 156.15L55.8863 165.78C56.8529 165.524 57.8195 165.287 58.8044 165.05L60.92 151.59C54.5914 153.031 48.0074 154.873 41.46 157.208C42.1348 158.193 42.8461 159.232 43.5756 160.253Z" fill="#AAAAAA"/>
<path d="M64.8596 154.399C67.9601 153.724 71.0788 153.104 74.1792 152.575L75.9118 152.265L75.3282 157.354L74.3616 157.518C70.9511 158.12 67.4859 158.794 64.0936 159.56L63.437 163.956C68.2154 162.916 73.0667 162.022 77.8816 161.293L79.14 148.271C74.8358 148.855 70.2398 149.621 65.4614 150.587L64.8596 154.399Z" fill="#AAAAAA"/>
<path d="M108.649 146.264C108.649 146.264 108.63 146.264 108.594 146.264C108.558 146.264 108.539 146.264 108.539 146.264C107.445 146.246 97.5417 146.082 83.6078 147.705L83.2978 151.225C86.4895 150.824 89.7358 150.496 92.9275 150.24L94.423 150.113L94.1494 155.11L93.0004 155.201C89.6264 155.475 86.1976 155.839 82.8236 156.259L82.4224 160.673C87.2737 160.071 92.1615 159.615 97.0311 159.341L97.3593 149.93L98.563 149.876C99.3108 149.839 99.6756 149.821 100.442 149.784L101.846 149.73L101.572 159.141C102.612 159.104 103.67 159.068 104.709 159.049L104.8 149.638L106.077 149.62C107.956 149.602 109.852 149.602 111.713 149.62L112.989 149.638L113.081 159.049C114.12 159.068 115.178 159.104 116.217 159.141L115.871 146.72C111.749 146.356 109.141 146.246 108.649 146.264Z" fill="#AAAAAA"/>
<path d="M120.448 149.912C123.804 150.112 127.178 150.386 130.515 150.733L131.61 150.842L131.974 155.857L130.424 155.693C127.178 155.347 123.895 155.091 120.63 154.891L120.776 159.304C125.628 159.596 130.534 160.034 135.385 160.636L134.309 148.708C129.038 147.979 124.296 147.45 120.375 147.067L120.448 149.912Z" fill="#AAAAAA"/>
<path d="M139.033 151.827C142.425 152.338 145.854 152.94 149.228 153.614L150.14 153.797L150.814 158.922L149.027 158.557C145.872 157.937 142.68 157.371 139.507 156.879L139.926 161.293C144.741 162.022 149.574 162.916 154.371 163.955L152.529 151.809C147.75 150.86 143.118 150.076 138.777 149.401L139.033 151.827Z" fill="#AAAAAA"/>
<path d="M159.04 165.031C160.007 165.268 160.973 165.505 161.958 165.761L159.788 153.341C158.894 153.14 158 152.939 157.125 152.757L159.04 165.031Z" fill="#AAAAAA"/>
<path d="M177.551 158.082C176.749 157.827 175.928 157.59 175.126 157.335L175.691 159.961L173.284 156.787C170.311 155.93 167.338 155.146 164.365 154.417C164.365 154.453 164.383 154.471 164.383 154.508C165.058 158.283 165.751 162.186 166.627 167.037C167.575 167.311 168.524 167.584 169.454 167.858L167.21 156.404L170.147 159.067C171.533 160.326 172.718 161.365 173.758 162.295C176.111 164.374 177.861 165.906 179.849 168.077C179.193 165.177 178.609 162.624 178.026 160.125C177.861 159.432 177.716 158.757 177.551 158.082Z" fill="#AAAAAA"/>
<defs>
<linearGradient id="paint0_linear_1_51" x1="47.0556" y1="85.9375" x2="19.4535" y2="218.836" gradientUnits="userSpaceOnUse">
<stop stop-color="#101318"/>
<stop offset="1" stop-color="#323540"/>
</linearGradient>
<linearGradient id="paint1_linear_1_51" x1="110" y1="244.75" x2="110" y2="36.4375" gradientUnits="userSpaceOnUse">
<stop stop-color="white"/>
<stop offset="1" stop-color="#8B8B8B" stop-opacity="0.13"/>
</linearGradient>
</defs>
</svg>
