<svg width="80" height="75" viewBox="0 0 80 75" fill="none" xmlns="http://www.w3.org/2000/svg">
<path d="M75.7345 67.693L73.9757 67.0492C66.3674 64.2444 57.5654 62.6755 51.525 61.8541C45.6278 61.0474 41.2108 60.781 39.8181 60.7218L39.3247 60.707L38.3219 60.7366V60.707C36.7143 60.7144 33.2842 60.7884 28.8673 61.2546C21.2352 62.0539 14.2795 63.6006 8.19133 65.8429L6.54393 66.4497L7.88095 59.745L4.26782 54.9865L9.16225 53.1882L10.1252 49.3326L10.5868 49.155C10.6584 49.1254 12.4411 48.4298 15.5131 47.5565C18.0598 46.8387 21.9674 45.8692 26.6708 45.1588C26.448 44.8554 26.2331 44.5446 26.0182 44.2337L11.1996 35.1535L11.7567 34.3912C11.8522 34.2654 13.8259 31.5865 17.1605 29.4108C16.1418 29.3072 15.6802 28.7595 15.529 28.5301C15.1231 27.9529 15.0276 27.2868 15.2425 26.6208L7.0294 18.9836C5.98684 18.584 5.62871 17.8587 5.42975 16.9041C5.31833 16.3861 5.50934 15.8384 6.00276 15.2834C6.86227 14.3066 8.78821 13.2187 10.1809 13.2187C11.1359 13.2187 11.9079 13.6775 12.3058 14.4842C12.4252 14.7284 12.4968 14.9652 12.5287 15.1576L17.5902 19.62C17.4629 18.3176 17.3674 16.9929 17.3196 15.6682C17.3117 15.4684 17.3117 15.2686 17.3196 15.1428C17.3196 15.1058 17.3196 15.0688 17.3196 15.0466V14.3658L18.02 14.1734C19.0944 13.8773 20.1767 13.6035 21.2113 13.3445C22.7632 12.9523 24.2514 12.5749 25.6999 12.1382C25.7237 11.302 25.867 10.7174 25.875 10.6878L26.1853 9.4667L28.9389 11.0208C31.2708 10.1105 33.5867 9.01528 35.8309 7.95702C36.6507 7.5648 37.5022 7.16518 38.3458 6.78036C39.0143 6.46954 39.7624 6.26233 40.7095 6.79516C43.7177 8.50465 46.8215 9.94773 49.9333 11.0874L52.7903 9.4741L53.1007 10.6952C53.1087 10.7248 53.2599 11.3242 53.2758 12.19C55.4883 12.8487 57.7564 13.3667 60.0246 13.7367C60.2633 13.7737 60.4782 13.8403 60.7169 13.9143C60.8363 13.9513 60.9716 13.9883 61.1228 14.0327L61.8948 14.2474L61.8232 14.9948C61.7436 15.8014 61.672 16.6229 61.6003 17.4221C61.4491 19.1908 61.2899 21.0187 61.0114 22.817C60.7169 24.7115 60.3429 26.5616 59.9131 28.3303C62.1495 29.4478 63.9242 30.9278 65.0622 32.0157C66.4231 33.3182 67.1792 34.3616 67.211 34.3986L67.7681 35.1609L66.1764 36.1377L66.3038 36.2857L66.1207 36.1673L53.0132 44.2115C52.7665 44.5742 52.5198 44.9294 52.2651 45.2772C57.4221 46.0986 61.9266 47.2383 64.9031 48.082C68.4525 49.0958 70.6093 49.9024 70.6968 49.932L71.1664 50.1097L75.7345 67.693ZM64.1152 33.7104L64.9667 34.702L65.0065 34.6798C64.7678 34.406 64.4733 34.073 64.1152 33.7104ZM9.70343 15.4314C9.71139 15.4388 9.71934 15.4462 9.7273 15.4536L10.1252 15.0392L9.70343 15.4314ZM9.55222 15.202C9.57609 15.2834 9.62384 15.3574 9.68751 15.4166L10.1173 15.0466C10.1013 15.0466 10.0854 15.0466 10.0695 15.054L9.55222 15.202ZM23.6307 40.2967L21.6172 39.3569L23.4874 38.2024L23.8535 38.7131L24.0047 38.4318L23.8535 38.7131L24.5698 39.7195L23.6307 40.2967ZM54.8755 40.0007L54.4377 39.7269L55.528 38.2098L55.9658 38.4836L54.8755 40.0007ZM18.1871 33.6956L18.1075 33.6364L19.349 32.2303L19.4286 32.2895L18.1871 33.6956Z" fill="#AAAAAA"/>
<path d="M18.2985 15.0468C18.2985 15.1504 18.2905 15.3946 18.2985 15.6389C18.5611 22.5508 19.8901 29.2482 22.5244 35.6569C25.8669 43.7973 31.0877 50.3911 38.7835 54.8831C39.3565 55.2161 39.7305 55.1791 40.2717 54.8609C45.9222 51.553 50.3391 47.0387 53.6418 41.4218C57.064 35.6125 59.0217 29.2926 60.0563 22.6766C60.4542 20.1013 60.6055 17.4889 60.8601 14.8988C60.3906 14.773 60.128 14.6768 59.8574 14.6324C52.8699 13.4853 46.344 11.0654 40.2001 7.57242C39.6589 7.26161 39.3087 7.35041 38.7835 7.59463C35.3136 9.19311 31.8835 10.9322 28.3022 12.2495C25.1109 13.4187 21.7445 14.107 18.2985 15.0468Z" fill="#AAAAAA"/>
<path d="M64.3222 34.6193L55.4246 39.2371L52.7586 37.5868L53.3555 36.8468L51.1589 34.9893L55.1461 36.8468L61.3935 32.0661C62.5315 32.7692 63.582 33.6202 64.3222 34.6193Z" fill="#AAAAAA"/>
<path d="M60.1776 31.3805L54.9489 35.7393L50.8264 34.4073L55.1478 29.4342C55.1478 29.4342 57.6547 30.0632 60.1776 31.3805Z" fill="#AAAAAA"/>
<path d="M53.4331 27.451C53.4888 27.8654 53.3456 28.1318 53.3456 28.1318L44.9733 37.2195L43.7796 34.8069L41.1851 36.102V35.177L39.5934 35.917H39.3945L37.8028 35.177V36.102L35.2004 34.8069L34.0066 37.2195L25.6343 28.1318C25.6343 28.1318 25.4911 27.8654 25.5468 27.451C27.6717 30.5665 31.054 32.8384 31.054 32.8384C30.7277 31.6544 30.6084 30.4703 30.6322 29.3307L32.208 30.3741C34.9139 34.2815 39.4979 35.4434 39.4979 35.4434C39.4979 35.4434 44.074 34.2741 46.7878 30.3741L48.3636 29.3307C48.3875 30.4703 48.2681 31.6544 47.9418 32.8384C47.9339 32.8384 51.3082 30.5665 53.4331 27.451Z" fill="#AAAAAA"/>
<path d="M50.9981 21.9589L53.1788 23.9866C53.0992 24.2382 52.9957 24.5564 52.8604 24.919C52.7251 25.2816 52.55 25.6813 52.3352 26.0809C51.8656 26.9615 51.1891 27.857 50.2262 28.375C50.2262 28.375 50.2023 28.2714 50.1545 28.0864C50.0272 27.5832 49.7168 26.4731 49.2234 25.1262C49.1359 24.8746 49.0324 24.623 48.929 24.3566C49.5258 23.9644 50.3933 23.4241 50.9981 21.9589Z" fill="#AAAAAA"/>
<path d="M52.7804 40.6096L40.1902 47.1515V44.8204L46.5728 41.6678L40.1902 43.5253V40.2617L46.7718 39.0777L50.3611 34.9409V39.8177L52.7804 40.6096Z" fill="#AAAAAA"/>
<path d="M39.4907 19.2803L51.3806 12.1463C51.3806 15.5357 48.6986 16.964 48.6986 16.964C44.0986 18.037 39.4907 22.1368 39.4907 22.1368C39.4907 22.1368 34.8907 18.037 30.2828 16.964C30.2828 16.964 27.6008 15.5357 27.6008 12.1463L39.4907 19.2803Z" fill="#AAAAAA"/>
<path d="M50.4276 21.0706C50.4276 21.3814 49.8784 23.4387 48.9234 24.3416C48.1833 22.4915 47.1407 20.375 45.7639 18.8579C46.5677 18.4435 47.3636 18.0957 48.0878 17.8662C48.6369 18.5397 50.4276 20.7672 50.4276 21.0706Z" fill="#AAAAAA"/>
<path d="M48.0846 26.8658C47.8538 27.3987 47.4082 28.3459 46.7237 29.3672C46.2383 30.0924 45.6255 30.8547 44.8933 31.5207C46.2065 29.382 47.2729 25.63 47.2729 25.63L46.3656 21.9298C47.0262 23.2544 47.7106 24.9565 48.0846 26.8658Z" fill="#AAAAAA"/>
<path d="M46.3073 14.195L39.487 18.0358V14.4688C39.487 15.5419 38.532 15.8971 38.532 15.8971L38.0067 17.1995L32.6746 14.195C33.0247 13.2033 34.5846 9.83615 39.4949 9.83615C44.4053 9.83615 45.9492 13.1959 46.3073 14.195Z" fill="#AAAAAA"/>
<path d="M44.5014 22.9271C44.4616 22.9345 42.2969 23.2231 41.3738 24.089C41.3738 24.089 42.3129 24.9622 43.252 24.3776C44.1751 23.8078 44.4855 22.9567 44.5014 22.9271ZM34.4818 22.9271C34.4897 22.9567 34.8081 23.8078 35.7312 24.385C36.6703 24.9696 37.6094 24.0964 37.6094 24.0964C36.6783 23.2231 34.5216 22.9345 34.4818 22.9271ZM44.9551 22.1353C44.9551 22.1353 46.3796 23.5044 46.0692 24.385C46.0692 24.385 40.7451 26.4201 39.4956 26.4201C38.2461 26.4201 32.9219 24.385 32.9219 24.385C32.6115 23.5118 34.0361 22.1427 34.0361 22.1353C36.153 22.8235 39.3682 24.089 39.4956 25.5247C39.615 24.0964 42.8381 22.8235 44.9551 22.1353Z" fill="#AAAAAA"/>
<path d="M36.4198 21.7801C36.3641 21.7505 34.5019 20.6996 34.3108 19.9966C34.2313 19.7006 34.1835 19.4934 34.1596 19.3602C36.8973 20.892 39.4918 22.8532 39.4918 22.8532C39.4918 22.8532 42.0862 20.892 44.8239 19.3602C44.8001 19.5008 44.7523 19.7006 44.6727 19.9966C44.4817 20.6996 42.6194 21.7505 42.5637 21.7801L45.5641 20.4628C45.6834 20.6626 45.8108 20.8772 45.9381 21.1215C41.5212 22.0465 39.4838 24.2814 39.4838 24.2814C39.4838 24.2814 37.4544 22.0539 33.0295 21.1215C33.1648 20.8846 33.2842 20.6626 33.4036 20.4628L36.4198 21.7801Z" fill="#AAAAAA"/>
<path d="M46.3156 24.6613C46.0768 25.69 45.1218 29.3828 43.2436 31.3735C41.0551 33.7046 40.4264 33.7046 40.4264 33.7046H41.6758C41.6758 33.7046 40.4264 34.8665 39.4873 34.8665C38.5482 34.8665 37.2987 33.7046 37.2987 33.7046H38.5482C38.5482 33.7046 37.9195 33.7046 35.7309 31.3735C33.8607 29.3828 32.8977 25.69 32.6589 24.6613C34.4257 25.7714 39.4873 27.0072 39.4873 27.0072C39.4873 27.0072 44.5488 25.764 46.3156 24.6613Z" fill="#AAAAAA"/>
<path d="M44.5053 22.9271C44.4974 22.9567 44.1791 23.8078 43.2559 24.385C42.3168 24.9696 41.3777 24.0964 41.3777 24.0964C42.3009 23.2231 44.4576 22.9345 44.5053 22.9271Z" fill="#AAAAAA"/>
<path d="M38.7916 44.8204V47.1515L26.2014 40.6096L28.6208 39.8177V34.9409L32.21 39.0777L38.7916 40.2617V43.5253L32.4169 41.6678L38.7916 44.8204Z" fill="#AAAAAA"/>
<path d="M37.6137 24.0891C37.6137 24.0891 36.6746 24.9624 35.7356 24.3777C34.8124 23.8005 34.494 22.9495 34.4861 22.9199C34.5259 22.9347 36.6826 23.2233 37.6137 24.0891Z" fill="#AAAAAA"/>
<path d="M34.0959 31.5207C33.3637 30.8547 32.7509 30.0924 32.2654 29.3672C31.581 28.3533 31.1353 27.3987 30.9045 26.8658C31.2706 24.9565 31.963 23.2544 32.6236 21.9298L31.7163 25.63C31.7163 25.63 32.7827 29.3746 34.0959 31.5207Z" fill="#AAAAAA"/>
<path d="M30.9006 17.8662C31.6248 18.0957 32.4206 18.4435 33.2244 18.8579C31.8476 20.375 30.7971 22.4841 30.0649 24.3416C29.1099 23.4313 28.5608 21.3814 28.5608 21.0706C28.5608 20.7672 30.3594 18.5397 30.9006 17.8662Z" fill="#AAAAAA"/>
<path d="M30.045 24.3713C29.9415 24.6303 29.846 24.8893 29.7505 25.1335C29.2571 26.473 28.9467 27.5904 28.8194 28.0936C28.7716 28.2787 28.7477 28.3823 28.7477 28.3823C27.7848 27.8568 27.1083 26.9688 26.6388 26.0881C26.4239 25.6885 26.2488 25.2889 26.1135 24.9263C25.9782 24.5637 25.8748 24.2454 25.7952 23.9938L27.9758 21.9661C28.5965 23.424 29.456 23.9642 30.045 24.3713Z" fill="#AAAAAA"/>
<path d="M23.8405 29.4342L28.1619 34.4073L24.0395 35.7393L18.8108 31.3805C21.3416 30.0632 23.8405 29.4342 23.8405 29.4342Z" fill="#AAAAAA"/>
<path d="M27.8222 34.9893L25.6256 36.8468L26.2225 37.5868L23.5565 39.2371L14.6589 34.6193C15.3911 33.6202 16.4496 32.7692 17.5876 32.0661L23.835 36.8468L27.8222 34.9893Z" fill="#AAAAAA"/>
<path d="M22.0981 26.3252L23.3476 27.8053C21.9787 28.0717 20.7054 28.5379 19.5594 29.1151L19.5833 29.1003L18.3577 27.8571C18.3577 27.8571 18.5566 24.8895 21.748 25.9996L22.0981 26.3252Z" fill="#AAAAAA"/>
<path d="M18.9833 32.8652L17.9089 33.6349L23.7504 38.2083L26.1777 37.0761L28.1753 34.8559L26.9577 35.0854L23.9414 36.4396L22.1906 34.8559L18.9833 32.8652Z" fill="#AAAAAA"/>
<path d="M18.1547 24.1422C18.2025 24.1348 20.3512 23.5946 20.9481 24.1422C21.545 24.6972 21.1471 25.0672 21.1471 25.0672C21.1471 25.0672 18.9506 24.6972 18.3537 26.3623C18.0353 27.2504 17.9398 27.5612 17.9239 27.6574C17.717 27.6204 16.4039 27.3466 16.953 25.8073L8.03955 17.5188C8.34993 16.8454 9.05823 16.0018 10.6977 15.7206L19.0699 23.3282C18.7675 23.5058 18.4571 23.7722 18.1547 24.1422Z" fill="#AAAAAA"/>
<path d="M10.1736 14.683C10.6511 14.7718 10.4681 15.2898 10.4681 15.2898C9.86322 15.4156 8.47049 15.8375 7.53935 17.2139C7.26081 17.1177 6.84697 16.9105 6.98226 16.5405C7.18918 15.9855 9.17879 14.498 10.1736 14.683Z" fill="#AAAAAA"/>
<path d="M24.6718 30.1586L23.3586 30.61L26.8603 34.0882L25.1095 35.5387L28.5635 34.5914L24.6718 30.1586Z" fill="#AAAAAA"/>
<path d="M60.0384 32.8652L61.1128 33.6349L55.2713 38.2083L52.836 37.0761L50.8464 34.8559L52.0641 35.0854L55.0803 36.4396L56.8312 34.8559L60.0384 32.8652Z" fill="#AAAAAA"/>
<path d="M54.3475 30.1586L55.6606 30.61L52.1589 34.0882L53.9098 35.5387L50.4558 34.5914L54.3475 30.1586Z" fill="#AAAAAA"/>
<path d="M61.3499 31.9644L62.9575 33.8219L61.5489 34.9542L61.8354 35.4056L59.4558 37.3519L64.6129 34.8136V34.0883L61.3499 31.9644Z" fill="#AAAAAA"/>
<path d="M55.0339 29.2474L58.5834 31.3343L57.509 32.326L57.7557 32.5998L56.5858 34.6793L60.8197 31.2825L58.8221 30.4685L55.0339 29.2474Z" fill="#AAAAAA"/>
<path d="M45.8808 38.2083L50.059 35.0262L50.3136 34.4489L50.3694 34.7894L50.4569 34.7228L50.3773 34.856L51.1891 39.7476L53.2742 40.4655L52.351 41.0575L50.4569 39.7476L49.5337 36.225L47.4884 39.5626L42.2358 40.6505V42.0491L46.3583 41.7383L42.2358 44.4987V45.2165L47.9261 43.322L39.5061 47.9325V39.2444L45.8808 38.2083Z" fill="#AAAAAA"/>
<path d="M39.5064 26.9894L34.3493 26.0348L34.8825 27.8923L36.9279 29.5648H35.368C35.368 29.5648 37.8033 33.2724 39.3552 33.2724H39.4984V35.0855L37.9386 34.449L36.1877 32.821L34.1902 29.7424L32.4871 25.1763L32.6303 24.5399L34.3334 25.1763L39.5064 26.9894Z" fill="#AAAAAA"/>
<path d="M39.3621 26.9893L44.5191 26.0421L43.9859 27.8996L41.9406 29.572H43.5004C43.5004 29.572 41.0652 33.2796 39.5133 33.2796H39.3621V35.0927L40.9219 34.4563L42.6728 32.8282L44.6703 29.7497L46.3734 25.1836L46.2302 24.5472L44.5271 25.1836L39.3621 26.9893Z" fill="#AAAAAA"/>
<path d="M49.1927 38.0699L47.8319 40.068L43.9402 40.882V41.4148L47.9751 40.6452C47.9751 40.6526 49.1927 39.9126 49.1927 38.0699Z" fill="#AAAAAA"/>
<path d="M50.316 41.3331L46.5676 43.2276L45.1589 43.679L46.9098 42.236L49.7271 41.0593L50.316 41.3331Z" fill="#AAAAAA"/>
<path d="M29.0496 32.3266L33.2357 35.3164L33.4744 34.8575L32.6468 32.8668L37.955 36.1748L35.5198 35.7234L34.1111 37.8029L29.0496 32.3266Z" fill="#AAAAAA"/>
<path d="M49.7742 32.3266L45.5961 35.3164L45.3493 34.8575L46.177 32.8668L40.8767 36.1748L43.304 35.7234L44.7206 37.8029L49.7742 32.3266Z" fill="#AAAAAA"/>
<path d="M17.6685 31.9644L16.0609 33.8219L17.4695 34.9542L17.1751 35.4056L19.5626 37.3519L14.4055 34.8136V34.0883L17.6685 31.9644Z" fill="#AAAAAA"/>
<path d="M32.3607 18.2123L30.3631 21.2391V22.6008L29.7105 23.9772L29.1932 23.5036L28.1746 25.9457L28.4213 28.3879L28.9067 28.6617L30.8963 22.919L32.7507 19.8848L33.6738 18.8414L32.3607 18.2123Z" fill="#AAAAAA"/>
<path d="M23.9872 29.2474L20.4377 31.3343L21.5121 32.326L21.2654 32.5998L22.4353 34.6793L18.2014 31.2825L20.191 30.4685L23.9872 29.2474Z" fill="#AAAAAA"/>
<path d="M31.4833 17.8501L29.0957 21.1063L29.4857 23.7778L28.4193 22.1497L26.3739 24.0886L27.1061 27.1672L25.2996 23.9998L27.7826 21.5133L28.7058 20.1072L30.6078 17.3987L31.4833 17.8501Z" fill="#AAAAAA"/>
<path d="M46.7533 18.2123L48.7509 21.2391V22.6008L49.4035 23.9772L49.9208 23.5036L50.9395 25.9457L50.6927 28.3879L50.2073 28.6617L48.2177 22.919L46.3634 19.8848L45.4402 18.8414L46.7533 18.2123Z" fill="#AAAAAA"/>
<path d="M47.5808 17.8501L49.9683 21.1063L49.5784 23.7778L50.6448 22.1497L52.6901 24.0886L51.9579 27.1672L53.7645 23.9998L51.2815 21.5133L50.3583 20.1072L48.4562 17.3987L47.5808 17.8501Z" fill="#AAAAAA"/>
<path d="M33.1384 38.2083L28.9602 35.0262L28.7056 34.4489L28.6498 34.7894L28.5623 34.7228L28.6419 34.856L27.8301 39.7476L25.7371 40.4655L26.6682 41.0575L28.5623 39.7476L29.4855 36.225L31.5308 39.5626L36.7834 40.6505V42.0491L32.6609 41.7383L36.7834 44.4987V45.2165L31.0931 43.322L39.5051 47.9325V39.2444L33.1384 38.2083Z" fill="#AAAAAA"/>
<path d="M39.5039 18.7107L28.3621 12.3316L30.0174 15.5877C30.0174 15.5877 34.689 17.127 35.7077 18.2149L39.5039 21.1084L43.3 18.2149C44.3187 17.127 48.9903 15.5877 48.9903 15.5877L50.6457 12.3316L39.5039 18.7107Z" fill="#AAAAAA"/>
<path d="M9.09239 16.3214L17.1304 23.9142L18.1968 23.4184L17.6159 24.5507C17.6159 24.5507 18.7857 24.1881 19.3667 24.3213C19.9477 24.4545 20.3376 25.1797 20.3376 25.1797L18.9768 25.7643L18.0058 27.9327L16.7404 27.6588L16.6449 26.0752L7.79517 17.4019L8.37613 16.7211L9.09239 16.3214Z" fill="#AAAAAA"/>
<path d="M8.22675 15.0916C8.22675 15.0916 8.61671 15.9945 8.91117 16.1351L7.68557 17.445L6.9534 17.2156L6.65894 16.8085L7.39111 15.5875L8.22675 15.0916Z" fill="#AAAAAA"/>
<path d="M33.2371 14.5955C33.2371 14.5955 33.7225 12.405 34.5502 11.9757C34.5502 11.9757 33.6748 14.6917 36.0066 16.2236C38.3384 17.748 39.5083 18.4659 39.5083 18.4659L43.5432 15.9349C43.5432 15.9349 43.8377 15.1209 43.201 14.2181C43.201 14.2181 43.9332 14.1737 43.8854 13.3596C43.8377 12.5456 42.5723 11.2579 41.8401 10.9767C41.8401 10.9767 44.4187 11.0729 46.1218 14.6029L39.5083 18.8951L33.2371 14.5955Z" fill="#AAAAAA"/>
<path d="M35.5113 19.687C35.5113 19.687 35.4795 20.4123 35.9331 20.8119C36.3868 21.2041 37.5964 22.2994 37.5964 22.2994L35.5034 21.6037L35.384 21.9294L32.6702 21.5371L32.7657 20.6861L33.9753 18.8952L35.5113 19.687Z" fill="#AAAAAA"/>
<path d="M43.4472 19.687C43.4472 19.687 43.479 20.4123 43.0254 20.8119C42.5717 21.2115 41.3621 22.2994 41.3621 22.2994L43.4551 21.6037L43.5825 21.9368L46.2963 21.5445L46.2008 20.6935L44.9831 18.8952L43.4472 19.687Z" fill="#AAAAAA"/>
<path d="M19.3397 25.6732L21.8944 28.885L19.7058 29.5214L18.0027 27.9377L18.6871 26.0802L19.3397 25.6732Z" fill="#AAAAAA"/>
<path d="M54.8471 27.6648C54.8471 27.6648 54.68 26.9396 54.1945 26.1848C54.4571 25.6815 54.68 25.1635 54.8391 24.6307C54.8391 24.6307 54.0751 23.2024 53.4942 23.2024C53.4942 23.2024 53.4862 23.2468 53.4623 23.3282L51.3374 21.2117C51.3534 21.1673 51.3693 21.1155 51.3852 21.0711L48.7907 17.6225C53.3828 15.7428 52.1572 10.9104 52.1572 10.9104L47.2309 13.6855C44.8593 9.11946 39.4953 8.94925 39.4953 8.94925C39.4953 8.94925 34.1393 9.12686 31.7597 13.6855L26.8255 10.903C26.8255 10.903 25.5999 15.7354 30.1919 17.6151L27.5975 21.0637C27.6134 21.1155 27.6293 21.1599 27.6452 21.2043L25.5203 23.3208C25.4964 23.2394 25.4885 23.195 25.4885 23.195C24.9155 23.195 24.1435 24.6233 24.1435 24.6233C24.3027 25.1561 24.5255 25.6741 24.7881 26.1774C24.5016 26.6214 24.3265 27.058 24.231 27.3392L22.6871 25.7407C22.7349 25.2079 22.7428 24.5937 22.5359 24.3199C22.2653 23.9424 21.2466 22.8694 19.9972 22.9952L11.5931 15.5948C11.5931 15.5948 11.5692 14.1295 10.1765 14.1295C8.78374 14.1295 6.1893 15.802 6.38826 16.7271C6.58722 17.6521 6.88964 17.9777 7.53427 18.1849L7.54223 18.1701L16.4159 26.4216C16.1373 26.8434 15.9304 27.4428 16.3602 28.0423C16.3602 28.0423 16.7581 28.7823 18.3577 28.4123L19.1456 29.3225C15.0629 31.4982 12.5799 34.9024 12.5799 34.9024L39.5033 51.4053L66.4266 34.9024C66.4107 34.9024 61.8266 28.5973 54.8471 27.6648ZM55.1416 29.4335C55.1416 29.4335 57.6405 30.07 60.1713 31.3798L54.9426 35.7387L50.8201 34.4066L55.1416 29.4335ZM53.1758 23.9868C53.0962 24.2385 52.9928 24.5567 52.8575 24.9193C52.7222 25.2819 52.5471 25.6815 52.3322 26.0812C51.8627 26.9618 51.1862 27.8573 50.2233 28.3753C50.2233 28.3753 50.1994 28.2717 50.1516 28.0867C50.0243 27.5834 49.7139 26.4734 49.2205 25.1265C49.133 24.8749 49.0295 24.6233 48.926 24.3569C49.515 23.9498 50.3824 23.417 50.9873 21.9443L53.1758 23.9868ZM50.4222 21.0711C50.4222 21.3819 49.881 23.4392 48.9181 24.3421C48.1779 22.492 47.1354 20.3755 45.7586 18.8584C46.5624 18.444 47.3582 18.0961 48.0824 17.8667C48.6316 18.5402 50.4222 20.7677 50.4222 21.0711ZM41.6839 33.7036C41.6839 33.7036 40.4344 34.8654 39.4953 34.8654C38.5562 34.8654 37.3067 33.7036 37.3067 33.7036H38.5562C38.5562 33.7036 37.9275 33.7036 35.7389 31.3724C33.8687 29.3817 32.9057 25.6889 32.667 24.6603C34.4337 25.7703 39.4953 27.0062 39.4953 27.0062C39.4953 27.0062 44.5569 25.7703 46.3236 24.6603C46.0849 25.6889 45.1299 29.3817 43.2517 31.3724C41.0631 33.7036 40.4344 33.7036 40.4344 33.7036H41.6839ZM34.3064 19.998C34.2268 19.702 34.1791 19.4948 34.1552 19.3616C36.8929 20.8861 39.4873 22.8546 39.4873 22.8546C39.4873 22.8546 42.0818 20.8935 44.8195 19.3616C44.7956 19.5022 44.7479 19.702 44.6683 19.998C44.4773 20.7085 42.5593 21.7815 42.5593 21.7815L45.5676 20.4643C45.687 20.6641 45.8143 20.8787 45.9416 21.1229C41.5247 22.0479 39.4873 24.2829 39.4873 24.2829C39.4873 24.2829 37.4579 22.0553 33.0331 21.1229C33.1604 20.8861 33.2877 20.6641 33.4071 20.4643L36.4154 21.7815C36.4154 21.7815 34.4974 20.7085 34.3064 19.998ZM46.061 24.3865C46.061 24.3865 40.7368 26.4216 39.4873 26.4216C38.2379 26.4216 32.9137 24.3865 32.9137 24.3865C32.6033 23.5132 34.0279 22.1441 34.0279 22.1441C36.1448 22.8324 39.36 24.0979 39.4873 25.5335C39.6147 24.0979 42.8378 22.8324 44.9468 22.1441C44.9548 22.1367 46.3793 23.5132 46.061 24.3865ZM31.712 25.6297C31.712 25.6297 32.7784 29.3817 34.0915 31.5204C33.3594 30.8544 32.7466 30.0922 32.2611 29.3669C31.5767 28.3531 31.131 27.3984 30.9002 26.8656C31.2663 24.9563 31.9587 23.2542 32.6192 21.9295L31.712 25.6297ZM47.2627 25.6297L46.3634 21.9295C47.024 23.2542 47.7084 24.9563 48.0824 26.8656C47.8516 27.3984 47.406 28.3457 46.7215 29.3669C46.2361 30.0922 45.6233 30.8544 44.8911 31.5204C46.1963 29.3743 47.2627 25.6297 47.2627 25.6297ZM39.4873 9.8299C44.3897 9.8299 45.9496 13.1971 46.3077 14.1887L39.4873 18.0295V14.4625C39.4873 15.5356 38.5244 15.8908 38.5244 15.8908L37.9991 17.1933L32.667 14.1887C33.0251 13.1971 34.585 9.8299 39.4873 9.8299ZM27.5975 12.1462L39.4873 19.2802L51.3772 12.1462C51.3772 15.5356 48.6952 16.9639 48.6952 16.9639C44.0953 18.0369 39.4873 22.1367 39.4873 22.1367C39.4873 22.1367 34.8874 18.0369 30.2794 16.9639C30.2794 16.9639 27.5975 15.5356 27.5975 12.1462ZM30.8922 17.8667C31.6165 18.0961 32.4123 18.444 33.2161 18.8584C31.8393 20.3755 30.7888 22.4846 30.0566 24.3421C29.1016 23.4318 28.5525 21.3819 28.5525 21.0711C28.5525 20.7677 30.3511 18.5402 30.8922 17.8667ZM27.9795 21.9591C28.5923 23.4318 29.4518 23.9646 30.0407 24.3717C29.9372 24.6307 29.8417 24.8897 29.7462 25.1413C29.2528 26.4808 28.9424 27.5982 28.8151 28.1015C28.7673 28.2865 28.7435 28.3901 28.7435 28.3901C27.7805 27.8647 27.104 26.9766 26.6345 26.096C26.4196 25.6963 26.2445 25.2967 26.1092 24.9341C25.9739 24.5715 25.8705 24.2533 25.7909 24.0016L27.9795 21.9591ZM6.98514 16.5421C7.1841 15.987 9.18166 14.4995 10.1765 14.6846C10.654 14.7734 10.4709 15.2914 10.4709 15.2914C9.86609 15.4172 8.47336 15.839 7.54223 17.2155C7.25573 17.1267 6.84985 16.9195 6.98514 16.5421ZM17.92 27.6648C17.7131 27.6278 16.4 27.354 16.9491 25.8147L8.03565 17.5263C8.34603 16.8529 9.05433 16.0092 10.6938 15.728L19.066 23.3282C18.7636 23.5132 18.4612 23.7722 18.1508 24.1423C18.1508 24.1423 20.3473 23.5872 20.9442 24.1423C21.5411 24.6973 21.1432 25.0673 21.1432 25.0673C21.1432 25.0673 18.9466 24.6973 18.3498 26.3624C18.0314 27.2578 17.9359 27.5686 17.92 27.6648ZM18.3498 27.8573C18.3498 27.8573 18.5487 24.8897 21.7401 25.9998L22.0902 26.3254L23.3397 27.8054C21.9709 28.0719 20.6975 28.5381 19.5435 29.1153L19.5674 29.1005L18.3498 27.8573ZM23.8331 29.4335L28.1545 34.4066L24.0321 35.7387L18.8034 31.3798C21.3342 30.0626 23.8331 29.4335 23.8331 29.4335ZM14.6571 34.6212C15.3892 33.6222 16.4477 32.7711 17.5858 32.0681L23.8331 36.8487L27.8203 34.9912L25.6238 36.8487L26.2206 37.5888L23.5546 39.2391L14.6571 34.6212ZM38.787 43.5239L32.4043 41.6664L38.787 44.8189V47.1427L26.1888 40.6081L28.6161 39.8089V34.932L32.2054 39.0614L38.787 40.2529V43.5239ZM39.3918 35.9237L37.8002 35.1836V36.1087L35.1978 34.8062L34.004 37.2187L25.6317 28.1311C25.6317 28.1311 25.4885 27.8647 25.5442 27.4502C27.6691 30.5658 31.0514 32.8377 31.0514 32.8377C30.7251 31.6537 30.6057 30.4696 30.6296 29.3299L32.2054 30.3734C34.9113 34.2808 39.4953 35.4427 39.4953 35.4427C39.4953 35.4427 44.0714 34.2734 46.7852 30.3734L48.353 29.3299C48.3769 30.4696 48.2575 31.6537 47.9312 32.8377C47.9312 32.8377 51.3056 30.5658 53.4385 27.4502C53.4942 27.8647 53.3509 28.1311 53.3509 28.1311L44.9707 37.2187L43.7769 34.8062L41.1825 36.1013V35.1762L39.5908 35.9163H39.3918V35.9237ZM40.1877 47.1501V44.8264L46.5703 41.6738L40.1877 43.5313V40.2677L46.7693 39.0762L50.3586 34.9468V39.8237L52.7859 40.6229L40.1877 47.1501ZM52.754 37.5888L53.3509 36.8487L51.1544 34.9912L55.1416 36.8487L61.3889 32.0681C62.527 32.7711 63.5854 33.6222 64.3176 34.6212L55.4201 39.2391L52.754 37.5888Z" fill="#AAAAAA"/>
<path d="M29.8308 38.0699L31.1917 40.068L35.0834 40.882V41.4148L31.0484 40.6526C31.0484 40.6526 29.8308 39.9126 29.8308 38.0699Z" fill="#AAAAAA"/>
<path d="M28.7058 41.3331L32.4542 43.2276L33.8629 43.679L32.112 42.236L29.2947 41.0593L28.7058 41.3331Z" fill="#AAAAAA"/>
<path d="M29.0452 13.648L30.032 15.5869L32.6742 16.5638C32.6662 16.5638 29.1725 17.0892 29.0452 13.648Z" fill="#AAAAAA"/>
<path d="M49.9799 13.648L48.993 15.5869L46.3508 16.5638C46.3588 16.5638 49.8525 17.0892 49.9799 13.648Z" fill="#AAAAAA"/>
<path d="M70.3186 50.775C70.3186 50.775 55.2771 45.1063 39.3444 45.0989C39.3364 45.0989 39.3285 45.0989 39.3205 45.0989C39.3125 45.0989 39.3046 45.0989 39.2966 45.0989C23.3639 45.1063 10.9567 49.9832 10.9567 49.9832L9.9937 53.8536L5.78369 55.4003L8.91931 59.5297L7.82901 64.9764C22.6158 59.5297 38.3575 59.7665 39.3046 59.7813C39.3046 59.7813 39.3125 59.7813 39.3285 59.7813C39.3444 59.7813 39.3523 59.7813 39.3523 59.7813C40.2994 59.7591 59.5588 60.7433 74.3455 66.19L70.3186 50.775Z" fill="#AAAAAA"/>
<path d="M13.1348 51.0876C12.8403 52.4048 12.5459 53.7147 12.2514 55.032C11.2088 55.3502 10.1742 55.6832 9.13965 56.031C9.68082 56.7711 10.23 57.5037 10.787 58.2363C11.1054 58.1401 11.2645 58.0883 11.5829 57.9921C11.2884 59.3094 10.994 60.6193 10.6995 61.9365C11.5192 61.6923 12.3469 61.4481 13.1746 61.2187C13.4452 59.9088 13.7157 58.6064 13.9784 57.2965C14.7742 57.0745 15.578 56.8673 16.3818 56.6675C16.1351 57.9699 15.8964 59.265 15.6496 60.5675C16.4773 60.3603 17.305 60.1679 18.1406 59.9828C18.7375 56.4233 19.3424 52.8637 19.9392 49.3041C17.6631 49.8147 15.387 50.4141 13.1348 51.0876ZM16.9469 53.7369C16.159 53.9367 15.3791 54.1365 14.5991 54.3511C14.6628 54.0255 14.7344 53.6999 14.7981 53.3743C15.5701 53.1597 16.35 52.9599 17.1299 52.7601C17.0662 53.0857 17.0105 53.4113 16.9469 53.7369Z" fill="#AAAAAA"/>
<path d="M27.3019 50.814C27.4053 49.8519 27.5008 48.8973 27.6043 47.9352C25.2963 48.2534 22.9963 48.6456 20.7202 49.1267C20.3542 51.3912 19.9881 53.6483 19.622 55.9128C21.2296 55.5724 22.8451 55.269 24.4766 55.01C24.4368 55.3282 24.397 55.6538 24.3572 55.972C22.7178 56.2384 21.0863 56.5419 19.4708 56.8823C19.3116 57.8517 19.1524 58.8212 19.0012 59.7906C21.4922 59.2652 23.9912 58.8286 26.514 58.4882C26.7448 56.2458 26.9835 54.0109 27.2143 51.7686C25.6226 51.9832 24.0469 52.2422 22.4631 52.5309C22.5109 52.2126 22.5586 51.887 22.5984 51.5688C24.1583 51.2876 25.7261 51.036 27.3019 50.814Z" fill="#AAAAAA"/>
<path d="M36.0632 47.2097C36.0234 48.4826 35.9836 49.7555 35.9438 51.0209C35.6812 51.0283 35.4106 51.0431 35.1479 51.0579C34.8933 51.0727 34.6386 51.0875 34.3839 51.1023C34.3282 51.1023 34.2725 51.1097 34.2088 51.1097C34.0974 51.1171 33.994 51.1245 33.8825 51.1319C33.5085 51.1541 33.1345 51.1763 32.7604 51.2059C31.9646 51.2651 31.1687 51.3317 30.3729 51.4057C30.3968 51.0875 30.4206 50.7693 30.4445 50.4511C32.0203 50.2957 33.596 50.1847 35.1798 50.1033C35.2116 49.1486 35.2514 48.194 35.2832 47.2393C32.9673 47.3577 30.6594 47.5501 28.3594 47.8388C28.1445 50.0737 27.9217 52.3086 27.7068 54.5509C29.3303 54.3511 30.9538 54.1883 32.5853 54.0699C32.5694 54.3881 32.5455 54.7063 32.5296 55.0245C30.8822 55.1503 29.2428 55.3132 27.6113 55.513C27.5158 56.475 27.4283 57.4297 27.3328 58.3917C29.8397 58.0809 32.3625 57.8663 34.8933 57.7405C34.941 56.4676 34.9888 55.1948 35.0365 53.9293C35.3628 53.9145 35.522 53.9071 35.8483 53.8923C35.8085 55.1651 35.7687 56.438 35.7289 57.7035C36.5725 57.6739 37.4081 57.6517 38.2517 57.6369C38.2676 56.364 38.2756 55.0985 38.2915 53.8257C39.1033 53.8183 39.923 53.8183 40.7348 53.8257C40.7507 55.0985 40.7586 56.364 40.7745 57.6369C41.6181 57.6517 42.4538 57.6739 43.2974 57.7035C43.1939 54.2105 43.0825 50.7101 42.979 47.2171C40.679 47.1283 38.3711 47.1283 36.0632 47.2097ZM38.3313 50.9617C38.3313 50.6435 38.3393 50.3253 38.3393 50.0071C39.1272 49.9997 39.915 49.9997 40.7109 50.0071C40.7109 50.3253 40.7188 50.6435 40.7188 50.9617C39.923 50.9543 39.1272 50.9543 38.3313 50.9617Z" fill="#AAAAAA"/>
<path d="M46.2898 51.1971C46.2739 50.8789 46.25 50.5607 46.2341 50.2425C47.8178 50.3609 49.3856 50.5163 50.9614 50.7087C50.8659 49.7467 50.7784 48.792 50.6829 47.83C48.3829 47.5487 46.0749 47.3489 43.759 47.2305C43.8386 49.458 43.9262 51.6782 44.0057 53.9057C45.6372 53.9871 47.2687 54.1055 48.8922 54.2609C48.9161 54.5791 48.94 54.8973 48.9638 55.2155C47.3244 55.0601 45.685 54.9343 44.0376 54.8529C44.0694 55.8076 44.1092 56.7622 44.141 57.7169C46.6718 57.8427 49.1867 58.0573 51.7015 58.3681C51.4867 56.1332 51.2638 53.8983 51.0489 51.656C49.4732 51.4784 47.8815 51.3229 46.2898 51.1971Z" fill="#AAAAAA"/>
<path d="M54.224 52.1238C54.1842 51.8056 54.1444 51.48 54.1046 51.1618C55.6804 51.4208 57.2482 51.7094 58.8001 52.035C58.641 51.0656 58.4818 50.0961 58.3306 49.1267C56.0545 48.6456 53.7624 48.246 51.4465 47.9352C51.6773 50.1775 51.9161 52.4124 52.1469 54.6548C53.7784 54.8768 55.3939 55.1358 57.0095 55.4318C57.0572 55.75 57.105 56.0756 57.1448 56.3939C55.5213 56.0904 53.8818 55.8314 52.2424 55.6094C52.3458 56.5715 52.4413 57.5261 52.5448 58.4882C55.0676 58.8286 57.5745 59.2652 60.0576 59.7906C59.6915 57.5261 59.3254 55.269 58.9593 53.0045C57.3915 52.6789 55.8157 52.3828 54.224 52.1238Z" fill="#AAAAAA"/>
<path d="M59.0984 49.2968C59.6953 52.8564 60.3001 56.416 60.897 59.9756C61.7326 60.1606 62.5603 60.3604 63.388 60.5602C62.7195 56.9858 62.051 53.4114 61.3745 49.8296C60.6184 49.6446 59.8624 49.467 59.0984 49.2968Z" fill="#AAAAAA"/>
<path d="M71.5683 62.8017C70.5019 58.4947 69.9926 56.3634 68.9261 52.0564C68.178 51.8048 67.4299 51.5606 66.6739 51.3237C66.9763 52.641 67.2787 53.9583 67.5812 55.2755C65.6313 52.8852 64.5172 52.3302 62.1296 49.9621C62.9494 54.1951 63.395 56.541 64.2147 60.7814C65.0424 60.9961 65.8701 61.2181 66.6978 61.4549C66.4192 60.145 66.1407 58.8351 65.8621 57.5253C68.56 59.7972 69.4753 60.3152 71.5683 62.8017Z" fill="#AAAAAA"/>
<path d="M68.6623 57.487L68.4156 56.4214C68.145 56.3474 67.8744 56.2734 67.6118 56.1994L68.6623 57.487Z" fill="#AAAAAA"/>
<path d="M11.016 57.6088C11.1353 57.5718 11.2547 57.5348 11.4139 57.4903L12.353 57.2091L11.4696 61.1535C11.8755 61.0351 12.2813 60.9167 12.6872 60.8057L13.499 56.8835L13.8332 56.7947C14.637 56.5727 15.4488 56.3655 16.2526 56.1583L17.1201 55.9437L16.3879 59.8511C16.8097 59.7475 17.2315 59.6513 17.6612 59.5551L18.5844 54.0936C15.8228 54.6782 12.9498 55.4256 10.0928 56.3729C10.3872 56.7725 10.6976 57.1943 11.016 57.6088Z" fill="#AAAAAA"/>
<path d="M20.3017 55.231C21.6546 54.9572 23.0155 54.7055 24.3684 54.4909L25.1245 54.3651L24.8698 56.4298L24.448 56.4964C22.9598 56.7407 21.4477 57.0145 19.9674 57.3253L19.6809 59.1088C21.766 58.687 23.883 58.3243 25.984 58.0283L26.5331 52.7444C24.6549 52.9813 22.6494 53.2921 20.5643 53.6843L20.3017 55.231Z" fill="#AAAAAA"/>
<path d="M39.4108 51.9314C39.4108 51.9314 39.4028 51.9314 39.3869 51.9314C39.371 51.9314 39.363 51.9314 39.363 51.9314C38.8855 51.924 34.5641 51.8574 28.4839 52.516L28.3486 53.9443C29.7413 53.7815 31.1579 53.6483 32.5506 53.5447L33.2032 53.4929L33.0838 55.5206L32.5824 55.5576C31.1101 55.6686 29.6139 55.8166 28.1416 55.9868L27.9666 57.7777C30.0835 57.5335 32.2164 57.3485 34.3413 57.2375L34.4845 53.4189L35.0098 53.3967C35.3361 53.3819 35.4952 53.3745 35.8295 53.3597L36.4423 53.3375L36.3229 57.1561C36.7765 57.1413 37.2381 57.1265 37.6918 57.1191L37.7315 53.3005L38.2886 53.2931C39.1084 53.2857 39.936 53.2857 40.7478 53.2931L41.3049 53.3005L41.3447 57.1191C41.7983 57.1265 42.2599 57.1413 42.7135 57.1561L42.5623 52.1164C40.7637 51.9684 39.6256 51.924 39.4108 51.9314Z" fill="#AAAAAA"/>
<path d="M44.5565 53.4116C46.0208 53.493 47.4932 53.604 48.9495 53.7447L49.427 53.7891L49.5862 55.8242L48.9098 55.7576C47.4932 55.6169 46.0606 55.5133 44.6361 55.4319L44.6997 57.2228C46.8167 57.3412 48.9575 57.5189 51.0744 57.7631L50.6049 52.9232C48.3049 52.6272 46.2357 52.4126 44.5247 52.2572L44.5565 53.4116Z" fill="#AAAAAA"/>
<path d="M52.6673 54.1879C54.1476 54.3951 55.6438 54.6393 57.1161 54.9131L57.514 54.9871L57.8085 57.0666L57.0285 56.9186C55.6517 56.667 54.259 56.4376 52.8742 56.2378L53.0573 58.0287C55.1583 58.3247 57.2673 58.6873 59.3604 59.1092L58.5566 54.1805C56.4715 53.7957 54.45 53.4775 52.5559 53.2036L52.6673 54.1879Z" fill="#AAAAAA"/>
<path d="M61.4028 59.5462C61.8246 59.6424 62.2464 59.7386 62.6761 59.8422L61.7291 54.8026C61.3391 54.7212 60.9491 54.6398 60.5671 54.5658L61.4028 59.5462Z" fill="#AAAAAA"/>
<path d="M69.4773 56.7273C69.1272 56.6237 68.769 56.5275 68.4189 56.4239L68.6656 57.4896L67.6151 56.2019C66.3178 55.8541 65.0206 55.5359 63.7234 55.2399C63.7234 55.2547 63.7314 55.2621 63.7314 55.2769C64.0258 56.8088 64.3282 58.3924 64.7102 60.3609C65.1241 60.4719 65.5379 60.583 65.9438 60.694L64.9649 56.0465L66.2462 57.127C66.8511 57.6376 67.3683 58.0594 67.822 58.4368C68.8486 59.2805 69.6126 59.9021 70.4801 60.7828C70.1936 59.6061 69.9389 58.57 69.6843 57.5562C69.6126 57.275 69.549 57.0012 69.4773 56.7273Z" fill="#AAAAAA"/>
</svg>
