<svg width="150" height="150" viewBox="0 0 150 150" fill="none" xmlns="http://www.w3.org/2000/svg">
<path d="M69.2194 142H69.0682H68.9169H67.2382V141.985C53.6869 141.698 42.8883 138.431 36.1126 135.693C28.4296 132.578 24.1646 129.492 23.9982 129.371L23 128.63L29.5336 108.893C29.7756 108.137 30.0932 107.426 30.4713 106.73L29.6093 102.435C27.9002 93.9203 30.3503 83.1973 30.5318 82.4411C30.8494 80.8833 31.2578 79.265 31.7418 77.6165C33.723 70.8409 36.1731 65.8953 39.0316 62.8856C37.5343 58.9835 36.6874 54.4312 36.5059 49.3192C36.279 43.1637 37.3074 38.1878 38.6837 34.3614L36.4605 35.8436L42.2833 24.8483C46.2156 17.4223 51.1158 14.7302 54.3826 13.7623L48.9833 9.13431L60.2205 9.92077C60.3264 9.92077 60.4474 9.92077 60.5835 9.93589L59.1165 8L70.5201 9.33093C83.058 10.798 87.081 15.426 91.7847 22.3074C97.0781 30.051 96.1707 38.46 95.5959 41.4849C95.9438 42.6192 96.1858 43.7384 96.3068 44.8122C98.2729 42.8158 100.209 40.8497 102.114 38.8986L102.13 38.8835L109.45 31.5786L109.51 31.5181C109.51 31.5181 109.54 31.4878 109.586 31.4424C109.661 31.3668 109.737 31.2761 109.813 31.2005C109.858 31.1551 109.903 31.1097 109.949 31.0643L109.979 31.0341L112.248 28.7806C112.399 28.6293 112.535 28.4932 112.686 28.342C112.837 28.1907 112.989 28.0395 113.155 27.8883C114.607 26.4666 116.528 26.4212 117.934 27.7975C120.521 30.3232 122.835 32.607 124.982 34.8151C126.389 36.2519 126.374 38.1576 124.952 39.5944C124.801 39.7607 124.634 39.8968 124.468 40.033C124.68 40.1993 124.891 40.3959 125.103 40.6228C126.54 42.2411 126.51 44.0711 125.028 45.6289C124.907 45.765 124.786 45.886 124.665 46.0221C124.075 46.6422 123.47 47.2926 122.759 47.8673C122.426 48.1546 120.384 50.2418 119.28 51.361C118.887 51.7542 118.554 52.102 118.312 52.344C118.161 52.4953 118.04 52.6314 117.904 52.7372L116.573 54.0833C115.514 55.1571 114.501 56.1856 113.473 57.1989C113.775 57.9702 114.032 58.7567 114.259 59.5582C115.212 62.8704 114.365 65.8348 111.854 68.1185C111.401 68.542 110.871 68.9957 110.312 69.4494C111.446 70.7199 112.021 72.1567 112.051 73.6993C112.081 73.7296 112.112 73.7598 112.157 73.7901C113.821 75.3025 114.577 77.2081 114.32 79.2953C114.32 79.3406 114.32 79.3709 114.32 79.3709C114.32 79.3709 114.335 79.4163 114.41 79.5221C116.119 81.8815 116.074 84.4223 114.274 86.691C114.683 88.1126 114.153 89.5494 112.822 90.5174C109.51 92.907 106.213 94.7219 102.825 96.0226C103.612 98.9415 104.065 101.467 104.262 102.677C106.289 104.25 107.831 106.413 108.633 108.848L115.167 128.585L114.184 129.311C114.002 129.447 109.752 132.532 102.069 135.633C95.2935 138.37 84.4948 141.637 70.9436 141.924V141.939L69.2194 142ZM32.4072 103.66L32.0442 104.477C32.1955 104.295 32.3619 104.129 32.5282 103.963C32.498 103.857 32.4526 103.751 32.4072 103.66Z" fill="#AAAAAA"/>
<path d="M69.2191 140.321C96.4426 140.23 113.155 128.01 113.155 128.01L107.014 109.438C105.426 104.643 100.844 101.497 95.8074 101.754L69.083 103.07L42.3586 101.754C37.3223 101.512 32.7245 104.658 31.1516 109.438L24.981 127.995C24.981 127.995 41.6931 140.215 68.9166 140.306C68.962 140.306 69.0225 140.306 69.0679 140.306C69.1132 140.321 69.1737 140.321 69.2191 140.321Z" fill="#AAAAAA"/>
<path d="M45.0809 91.4247C46.0791 90.9861 47.6218 90.2904 49.4669 89.7762L52.6128 82.2141V86.1767C54.9419 83.9383 55.9703 78.8566 55.9703 78.8566C56.6207 83.1065 55.2444 87.3412 54.594 89.02C58.9347 89.02 63.8198 90.8349 67.6916 97.2929C68.9166 99.3347 69.7031 101.059 70.1719 102.526H99.0893C95.5502 85.1482 88.6536 83.7719 85.0541 72.0961C84.3281 73.0187 83.829 73.5934 83.7534 73.669L81.5453 76.0889L81.2125 72.9279C80.6076 73.5177 79.7606 74.6067 78.9137 75.9074C78.3692 76.7241 77.8247 77.6164 77.3256 78.5238L77.2803 78.5995L76.6753 79.7035L75.4502 79.1591C74.7545 78.8414 73.59 78.2365 72.2288 77.5256C72.0776 77.45 71.9263 77.3593 71.7751 77.2837C70.1568 76.4216 67.3588 74.9545 65.3473 74.0471C65.4683 74.1832 65.559 74.3042 65.6347 74.3798L67.011 75.7561L69.446 78.1911L64.2281 76.8451C58.6322 75.3931 53.5202 72.8674 50.7071 71.3399V78.3726L47.9545 73.427C47.7277 73.0187 47.1983 72.4288 46.5782 71.7634C45.4137 70.4778 43.8105 68.7083 42.3283 66.0918C40.0144 68.5117 37.8516 72.943 36.1274 78.9171C35.6737 80.49 35.3259 81.9721 35.0688 83.3787C35.0688 83.3787 33.3144 90.0031 33.7378 94.1925C33.7378 94.1925 34.3428 93.5421 34.4335 94.0563C34.4184 95.4931 34.5394 97.1417 34.9931 98.8053L35.7796 95.9317C39.5455 104.81 50.6769 104.87 54.8511 104.522C53.8227 102.874 53.4144 101.528 53.4144 101.528C53.4144 101.528 63.8954 108.228 65.559 107.819C67.2378 107.396 67.2378 104.053 63.8803 96.083C60.6134 88.1277 45.3078 91.3794 45.0809 91.4247Z" fill="#AAAAAA"/>
<path d="M61.4303 28.0999C61.4303 28.0999 61.4303 26.9202 60.9917 26.3304C60.9917 26.3304 64.9694 26.9202 69.4007 30.4593C69.4007 30.4593 63.6536 23.971 58.7836 25.1507C58.7836 25.1507 59.2222 25.1507 59.6759 26.3304C59.6759 26.3304 54.3673 25.1507 53.4901 29.8695C53.5355 29.7636 56.6208 25.1961 61.4303 28.0999ZM55.2445 50.4081C55.2445 50.4081 54.1556 51.3004 53.6111 52.1927C53.6111 52.1927 52.5222 49.5309 51.9626 45.9767C51.9626 45.9767 50.8736 50.8618 54.1556 55.7469L54.7001 53.5236C54.7001 53.5236 56.8931 58.8625 60.175 60.632C60.0994 60.511 55.2445 53.0548 55.2445 50.4081ZM51.2971 24.7121L48.4235 23.9862C48.363 23.971 48.3025 23.9559 48.242 23.9408C52.7642 17.7096 57.5888 17.8306 57.6493 17.8306L58.2845 17.8609L58.7382 17.4072C59.9179 16.2275 60.1296 15.0478 60.0994 14.2765C60.0994 14.1706 60.0843 14.0647 60.0691 13.9588C64.7727 14.3218 71.0039 16.6207 71.0039 16.6207C71.0039 16.6207 69.6881 13.8378 69.5822 13.3841C77.9912 15.078 84.4341 19.7665 87.9278 24.8785C89.3344 26.9354 90.2116 29.0981 90.7107 31.1399C89.9998 29.7636 88.8806 29.6123 88.8806 29.6123C89.0168 28.5385 89.2587 28.5234 89.2587 28.5234C86.5061 27.7218 83.9048 33.7866 83.9048 33.7866C86.0222 30.4139 87.7917 30.0358 87.7917 30.0358C87.5951 30.5803 88.0639 31.2911 88.0639 31.2911C90.7258 29.6275 91.1493 35.904 91.1493 35.904C91.2098 35.4352 91.2551 34.9966 91.2703 34.5882C91.603 38.4146 90.8922 41.2428 90.877 41.3033L90.7712 41.7419L90.9224 42.1654C92.6012 46.869 91.3761 49.4855 89.9696 52.5254C89.047 54.5218 88.0791 56.5787 87.8371 59.3162C87.459 63.4602 84.7064 67.7101 82.9822 69.9939C82.6949 69.7821 82.4075 69.6611 82.1201 69.6157C81.9991 69.5855 81.863 69.5704 81.7269 69.5704C80.1086 69.5704 78.1122 71.5063 75.7831 75.3478C75.6773 75.5293 75.5563 75.7108 75.4504 75.8923C74.8454 75.5898 74.1043 75.1966 73.3179 74.7731C73.2574 74.7428 73.212 74.7126 73.1515 74.6823C67.0565 71.4609 64.5308 70.2963 63.1393 70.2963C62.6705 70.2963 62.3377 70.4173 62.0201 70.6442C61.4908 71.0223 61.2337 71.6575 61.3547 72.323C61.3698 72.444 61.4001 72.565 61.4303 72.6708C61.4454 72.7465 61.4605 72.8221 61.4757 72.8977C55.1689 70.7047 50.0721 67.5437 50.0116 67.5135L47.7732 66.1069V68.6478C46.8052 67.5286 45.7314 66.1523 44.7181 64.3072C44.2795 63.5056 43.856 62.6284 43.4628 61.6453C42.2226 58.5902 41.2698 54.5672 41.0732 49.1225C40.4985 33.4841 48.8773 26.6026 48.9529 26.527L51.2971 24.7121ZM57.8308 33.9379C59.6154 41.8932 64.4551 43.8139 68.8714 44.0862C69.6578 43.9501 71.2156 43.8896 70.8678 46.0221C70.2023 49.9997 70.5653 53.9774 72.3499 57.6828C74.2102 61.5546 78.2937 63.0972 81.6513 60.0724C83.6326 57.9399 84.1014 55.4142 83.6326 52.6313C83.5267 52.0415 83.1637 51.1945 83.6477 50.8618C84.3736 50.3476 84.6459 51.5575 85.4475 51.6785C86.4003 48.8049 86.6271 45.8859 85.7046 42.967C85.387 41.9839 85.5533 41.8024 86.4759 41.2126C88.6992 39.7758 89.047 37.4769 88.9563 35.904L89.9242 37.2047C89.3192 34.1647 88.3967 33.8774 88.0639 33.8774C87.9883 33.8774 87.9429 33.8925 87.9429 33.8925C87.7161 33.9379 87.4438 34.074 87.1414 34.2857C86.4305 34.7697 83.4964 37.9911 82.9671 38.2331C82.6192 37.0988 83.194 34.2101 82.6041 34.3462C82.2109 35.0419 81.1673 37.2047 80.4716 37.3559C77.3712 38.0063 73.696 32.6523 72.8793 31.9868C72.607 32.8187 74.2405 34.7092 74.422 35.299C74.7849 36.4636 74.9967 37.9155 73.8624 38.5205C73.091 38.944 70.5804 36.146 69.9452 35.662C67.1624 33.4993 64.0922 32.0473 60.659 31.4575C60.659 31.4575 56.5301 30.4442 56.1671 32.3196C55.789 34.195 56.1671 36.8266 56.1671 36.8266C56.1671 36.8266 56.4393 34.4521 57.8308 33.9379Z" fill="#AAAAAA"/>
<path d="M60.9766 34.4064C60.3112 34.2098 59.9482 34.5425 59.9935 35.1475C60.6439 41.7114 66.9204 43.1179 69.2798 42.8608C71.1552 42.6491 71.6089 41.6055 70.5048 40.0629C70.0209 39.3671 68.5992 38.369 66.9809 37.401C66.875 38.5656 66.4818 39.8965 65.4836 41.2425C65.4836 41.2425 64.561 42.1651 64.561 39.3823C64.561 39.3823 66.6633 38.006 64.682 37.764C63.8048 37.6581 64.0468 36.8717 64.5762 36.0398C63.0335 35.2383 61.627 34.603 60.9766 34.4064Z" fill="#AAAAAA"/>
<path d="M75.027 42.6795C70.157 45.9161 71.745 50.4534 72.6223 54.8696C73.076 57.4861 74.1195 60.1328 76.9931 60.2841C80.5473 60.4807 83.2697 56.3669 81.4094 53.3874C80.8649 54.1285 79.8062 55.5804 79.8062 55.5804C77.1746 57.8642 74.664 50.408 74.5581 47.2924C74.5279 46.4757 80.1692 43.6021 83.3453 47.3529C83.7839 47.9276 84.2225 48.5023 84.7518 49.1981C85.629 45.0692 84.2981 41.2125 81.4245 39.4581C77.5376 37.5827 74.6035 42.0443 75.027 42.6795Z" fill="#AAAAAA"/>
<path d="M77.855 47.8217C77.5374 50.1055 78.0063 52.2228 78.823 54.3705C79.927 53.9016 79.9875 53.1908 79.7153 52.3287C79.2464 50.8768 80.0631 46.8538 79.2011 46.6874C78.4297 46.521 77.976 46.9445 77.855 47.8217Z" fill="#AAAAAA"/>
<path d="M84.3584 38.8381C84.0862 39.1405 83.7384 39.4279 84.1165 39.9421C84.4794 40.4261 84.8273 40.7135 85.4927 40.6076C87.3833 40.3202 88.2453 38.4751 87.4891 35.9947C86.7783 36.4031 86.2036 36.8719 85.6894 37.3861C85.8255 38.0062 85.886 39.08 85.0844 40.1387C85.0844 40.1387 84.676 40.5471 84.676 39.3069C84.676 39.3069 85.6137 38.7019 84.7365 38.581C84.676 38.581 84.6307 38.5658 84.6004 38.5356C84.5248 38.6414 84.4341 38.7322 84.3584 38.8381Z" fill="#AAAAAA"/>
<path d="M87.3833 68.7537L90.4535 68.1488L93.2666 65.2449C93.312 65.1995 93.3573 65.1542 93.3876 65.1088L98.5298 59.8153C100.511 57.8946 102.644 56.0948 104.428 53.9472C105.245 52.9641 110.387 48.0941 112.021 46.5515C114.879 43.8442 121.519 37.6585 121.065 36.8871C120.974 36.7359 120.702 36.4334 120.324 36.0553L88.0941 67.5135C87.8521 67.9673 87.6253 68.3756 87.3833 68.7537Z" fill="#AAAAAA"/>
<path d="M88.6536 69.9936C88.3662 70.0692 88.0789 70.1448 87.7915 70.2204C90.0299 75.3324 93.6748 80.2326 96.9114 86.0857C96.4879 83.6658 95.3839 81.2913 93.5841 78.9622C92.7522 77.8884 91.9204 76.8297 91.1037 75.7559L94.1739 74.7879C94.4159 74.7123 94.6579 74.6367 94.8999 74.5611H94.915C95.4746 74.3644 95.9888 74.1225 96.3972 73.7595C96.8055 73.3965 97.108 72.8974 97.2441 72.1866C97.3651 71.4757 97.0778 69.3583 96.7753 69.1315C96.4879 69.1164 93.8261 69.2525 91.5877 69.4945C91.5877 69.4945 91.2398 69.5398 90.6954 69.6155C90.166 69.6911 89.44 69.8121 88.7141 69.9936C88.6838 70.0087 88.6385 70.0238 88.6233 70.0389L88.6536 69.9936Z" fill="#AAAAAA"/>
<path d="M88.9414 65.8801L119.901 35.6621C118.706 34.4824 116.966 32.8641 116.392 32.2138C115.787 31.5181 115.454 31.5483 114.804 32.1986C110.629 36.388 106.44 40.5623 102.251 44.7366C102.841 46.0826 103.597 48.079 103.324 48.8806C102.977 49.9241 93.2518 59.77 90.0757 62.9612C89.7732 63.9745 89.38 64.9576 88.9414 65.8801Z" fill="#AAAAAA"/>
<path d="M114.335 32.6824L115.711 34.0134C116.861 35.1325 116.876 36.9626 115.741 38.0969L88.4121 65.3052L91.3311 54.6578L107.816 37.386L114.335 32.6824Z" fill="#AAAAAA"/>
<path d="M90.4536 61.5849L102.069 48.4722L101.101 45.886C99.7096 47.2623 98.3333 48.6386 96.9419 50.0149C96.7604 50.1964 96.5789 50.3779 96.3974 50.5594C95.7471 51.1946 91.7392 55.8075 91.7392 55.8075C91.2703 56.9569 90.9073 58.1668 90.7863 59.5582C90.7258 60.254 90.6049 60.9194 90.4536 61.5849Z" fill="#AAAAAA"/>
<path d="M93.4175 67.4379C93.2663 67.937 93.6444 67.7101 93.8713 67.6647C94.6728 67.5135 95.4744 67.3774 96.276 67.2413C97.3498 67.0598 98.1212 67.3018 98.469 68.4814C98.8169 69.646 99.1345 70.7954 99.1496 72.1415C99.8756 71.7785 101.781 70.7047 101.569 70.2207C101.297 69.5855 101.055 68.9352 100.738 68.3151C100.329 67.5135 100.087 66.727 100.783 65.6078C100.072 65.8801 99.6487 66.0313 99.2252 66.1826C99.3008 65.6683 99.7092 65.381 100.042 65.0483C106.288 58.802 112.55 52.5708 118.766 46.3094C119.507 45.5683 122.184 43.1939 121.14 42.1805C119.915 40.9857 119.915 40.9857 118.735 42.1654C110.493 50.3627 102.25 58.5751 94.0225 66.7724C93.7956 66.9841 93.4932 67.1808 93.4175 67.4379Z" fill="#AAAAAA"/>
<path d="M96.5638 75.6353C95.3992 76.0739 95.1421 76.5579 95.8378 77.7527C97.5771 80.7472 99.2407 83.8023 100.783 86.9179C101.373 88.1278 102.25 86.7969 102.734 87.4472C100.799 89.0504 100.33 89.0201 99.15 86.9179C99.15 88.1127 99.15 89.0655 99.15 90.0032C99.1198 90.1091 99.0895 90.2301 99.0744 90.3359C99.3769 91.0316 99.6491 91.7273 99.9062 92.4382C100.133 92.3626 100.33 92.2113 100.541 92.1357C103.324 91.0619 105.986 89.731 108.527 88.1429C108.875 87.9312 109.329 87.7951 109.571 87.0842C108.028 87.5833 106.606 87.9009 105.124 87.8405C103.702 86.9028 102.508 85.7987 102.447 83.9384C102.432 83.3637 101.993 83.1066 101.645 82.8192C100.466 81.8664 100.572 80.233 99.876 79.2348C99.15 78.1913 97.7435 77.5409 97.5317 76.0436C97.3956 75.2572 97.1234 75.4235 96.5638 75.6353Z" fill="#AAAAAA"/>
<path d="M105.744 71.0069C105.457 70.7951 98.7113 73.6082 99.3012 75.9525C99.5885 77.0868 100.33 77.4498 101.388 77.4649C103.354 77.48 105.063 76.7238 106.652 75.6198C107.514 74.8787 107.816 73.4872 107.438 72.7764C107.03 72.0504 106.41 71.4909 105.744 71.0069Z" fill="#AAAAAA"/>
<path d="M103.249 78.4633C103.249 78.4633 101.343 79.3102 101.963 80.5353C102.447 81.4578 103.158 82.1838 104.292 82.0779C106.258 81.8964 108.058 81.2461 109.495 79.8244C109.555 79.8093 110.206 78.4179 109.858 77.7222C109.48 76.9357 108.784 76.4215 107.982 76.2854C107.498 76.1795 103.339 78.4179 103.249 78.4633Z" fill="#AAAAAA"/>
<path d="M103.747 63.324C103.339 63.8382 102.432 64.3978 102.779 64.912C104.171 66.8933 109.616 64.8062 107.15 61.2369C106.681 60.5412 106.258 60.6168 105.895 61.1915C105.184 61.9175 104.458 62.6132 103.747 63.324Z" fill="#AAAAAA"/>
<path d="M110.236 81.4126C109.434 80.8076 104.111 83.0913 104.232 84.1349C104.353 85.1936 104.912 85.9346 105.986 86.0254C107.589 86.1615 109.011 85.6019 110.281 84.634C111.294 84.0895 111.037 82.0175 110.236 81.4126Z" fill="#AAAAAA"/>
<path d="M101.086 45.3412C101.086 45.3412 101.751 47.9274 101.645 48.2602C101.539 48.5929 89.5308 61.7206 89.5308 61.7206L91.3305 54.6577L101.086 45.3412Z" fill="#AAAAAA"/>
<path d="M117.223 42.7551C117.223 42.7551 118.675 43.3147 118.237 44.6607C117.783 46.0068 97.2594 65.7438 97.2594 65.7438C97.2594 65.7438 97.9249 66.5302 99.271 66.863C100.617 67.1957 101.857 66.4093 101.857 66.4093L102.523 70.3415L99.0441 73.1395L98.1518 72.6858L97.2594 67.6343L92.7676 68.2998V66.984L117.223 42.7551Z" fill="#AAAAAA"/>
<path d="M47.1981 91.0767C47.1981 91.0767 51.2816 83.6961 49.8297 80.0966C48.3778 76.5121 43.8859 71.4607 41.6475 71.7934L43.7801 70.9011C43.7801 70.9011 41.7685 68.9954 40.6342 71.5665C39.515 74.1528 37.0498 79.9756 37.0498 79.9756V74.0318L41.5417 64.6094L43.5532 65.2749L46.9108 69.5399L48.7105 70.9918L50.1624 69.5399L56.6658 73.1243L63.7288 74.2435C63.7288 74.2435 63.9557 72.111 64.848 72.111C65.7403 72.111 75.3895 77.4952 75.3895 77.4952L79.8814 72.111H82.2408L85.9462 70.9918L89.5306 79.174C89.5306 79.174 85.553 77.2079 84.6455 75.4232C84.6455 75.4232 81.288 77.6616 80.1536 80.6864V76.7541C80.1536 76.7541 77.4615 79.9 77.0078 82.2442C77.0078 82.2442 72.3042 78.3119 70.9582 77.7523L72.9697 81.004C72.9697 81.004 70.0507 81.1099 65.2261 78.7656L66.3453 79.8848C66.3453 79.8848 59.736 79.779 58.1631 77.5255C58.1631 77.5255 58.7227 81.7905 57.4977 85.7076L57.1649 83.9079C57.1649 83.9079 57.0591 87.0537 55.4861 89.5189L53.9132 89.2921L50.5557 89.6248L47.6367 90.6381L47.1981 91.0767Z" fill="#AAAAAA"/>
<path d="M57.3467 91.0918C57.3467 91.0918 61.3999 92.6949 62.4133 96.9146L62.7914 96.2945L67.2227 105.445L65.06 95.4173L62.2771 92.4529L57.3467 91.0918Z" fill="#AAAAAA"/>
<path d="M93.2363 86.9175C93.2363 86.9175 95.142 91.1977 94.9151 96.0223L93.2363 94.2225C93.2363 94.2225 95.7016 99.153 95.4747 103.978L100.526 102.737L97.8341 92.4227L93.2363 86.9175Z" fill="#AAAAAA"/>
<path d="M33.9796 89.1711L34.3728 91.7725L35.1593 91.107C35.1593 91.107 35.2652 96.7181 38.8647 98.7296C42.4642 100.741 45.3681 102.314 49.1794 102.768L48.166 101.089L54.6694 103.221L56.3482 105.021L46.4873 105.914L36.0516 100.65L34.8114 100.197L32.3462 94.147L33.9796 89.1711Z" fill="#AAAAAA"/>
<path d="M103.43 71.6874C103.43 71.6874 104.882 71.022 105.336 72.0202C105.789 73.0335 104.322 74.4854 104.322 74.4854L105.563 73.699C105.563 73.699 105.23 74.9391 102.976 75.9373C100.738 76.9506 99.3919 75.4836 99.6188 74.3644C99.8457 73.2452 98.6055 74.2585 98.6055 74.2585L98.8323 76.4969L99.7247 77.6161L101.63 77.9488L104.217 77.1624L107.362 75.7105L108.028 72.9125L107.241 71.2337L106.001 70.2204L103.763 70.6741L103.43 71.6874Z" fill="#AAAAAA"/>
<path d="M106.017 76.4065C106.017 76.4065 107.468 75.741 107.922 76.7392C108.376 77.7525 106.909 79.2044 106.909 79.2044L108.149 78.418C108.149 78.418 107.816 79.6581 105.563 80.6563C103.324 81.6696 101.978 80.2026 102.205 79.0834C102.432 77.9642 101.192 78.9776 101.192 78.9776L101.419 81.2159L102.311 82.3351L104.217 82.6678L106.803 81.8814L109.949 80.4295L110.614 77.6315L109.828 75.9527L108.588 74.9394L107.015 75.6049L106.017 76.4065Z" fill="#AAAAAA"/>
<path d="M108.708 80.6563C108.708 80.6563 110.16 79.9908 110.614 80.989C111.068 82.0023 109.601 83.4542 109.601 83.4542L110.841 82.6678C110.841 82.6678 110.508 83.908 108.255 84.9062C106.001 85.9043 104.67 84.4524 104.897 83.3332C105.124 82.2141 103.884 83.2274 103.884 83.2274L104.111 85.4657L105.003 86.5849L106.909 86.9177L109.495 86.1312L112.641 84.6793L113.306 81.8813L112.52 80.2026L111.28 79.1892L109.707 79.8547L108.708 80.6563Z" fill="#AAAAAA"/>
<path d="M95.5807 68.3299C95.5807 68.3299 96.2462 69.6759 95.5807 71.3547C94.9152 73.0335 92.7827 73.3662 92.7827 73.3662H94.7942L89.8638 74.9392L96.8209 86.9326L97.6073 84.5733L95.4748 78.8563L94.2346 76.7238L95.5807 75.4836L97.2595 73.9107L98.0459 70.659L96.8058 68.7534L95.5807 68.3299Z" fill="#AAAAAA"/>
<path d="M56.5604 33.2269L55.2144 35.2384C55.2144 35.2384 53.8683 30.7466 55.8798 30.4138C57.8914 30.0811 60.5835 30.4138 60.5835 30.4138L60.0239 29.4005C60.0239 29.4005 63.9561 30.4138 66.4214 32.3195L65.9677 31.2003C65.9677 31.2003 69.5521 33.5596 71.6846 36.0249C73.8171 38.4901 73.1365 35.3594 73.1365 35.3594L73.6961 35.5863C73.6961 35.5863 72.9096 34.0134 70.7771 31.8809L71.6695 31.775L70.0966 28.0696C70.0966 28.0696 73.3483 32.7732 75.3598 32.5615C77.3713 32.3497 77.4923 30.4289 77.4923 30.4289C77.4923 30.4289 77.0385 34.3612 78.7325 34.694C80.4112 35.0267 81.9841 30.6558 81.9841 30.6558C81.9841 30.6558 81.7573 33.9075 83.7839 32.2287C83.7839 32.2287 82.5437 38.1725 83.7839 36.8265C85.0241 35.4804 85.4627 34.3612 85.4627 34.3612V35.0267C85.4627 35.0267 86.7029 32.8942 87.9279 32.7883L87.5952 33.242C87.5952 33.242 90.0604 32.5766 90.2873 37.3861L89.5009 36.2669L88.2607 35.1477L83.1033 38.7321L81.3036 38.2784L76.479 37.8247L73.7868 40.6226L66.9507 36.0249L63.8049 34.573L59.6609 33.6806L56.5604 33.2269Z" fill="#AAAAAA"/>
<path d="M84.4792 42.755C84.4792 42.755 80.8947 37.3708 76.8566 41.303C76.8566 41.303 75.1778 42.9818 78.0968 43.4356C78.0968 43.4356 72.0622 43.5414 71.6539 50.1658C71.2455 56.7751 77.8699 61.3728 79.8814 59.694V60.5863L78.0816 61.0401L75.9491 60.5863L74.2704 59.7999L72.6067 57.0019L71.1548 51.9505V47.02L71.9412 43.2087L77.5977 37.9304L80.3503 37.9455L82.8155 39.6243L84.4792 42.755Z" fill="#AAAAAA"/>
<path d="M102.991 63.3845C102.991 63.3845 104.564 63.4903 104.443 64.3978L104.67 63.8382C104.67 63.8382 105.124 65.0784 104.443 65.8497L105.003 66.0766L106.243 65.517L107.589 64.5037L108.043 63.1576L107.15 60.1328L106.137 60.4655L102.991 63.3845Z" fill="#AAAAAA"/>
<path d="M51.8414 46.8386C51.8414 46.8386 50.2836 54.083 52.643 57.4406L53.0967 55.9887C53.0967 55.9887 55.9098 59.8 59.8269 60.4201L55.3351 53.2966L52.9757 52.8429L52.643 51.3909L51.8414 46.8386Z" fill="#AAAAAA"/>
<path d="M78.4298 46.4607C78.4298 46.4607 77.4164 50.7257 79.4431 54.6429L79.8968 54.416C79.8968 54.416 78.5507 52.0567 79.2313 46.1129L79.8968 46.4456L80.5623 54.0682L79.8968 54.9605H78.5507L76.751 48.563L78.4298 46.4607Z" fill="#AAAAAA"/>
<path d="M67.4346 43.2088C67.4346 43.2088 69.8998 43.6625 69.7939 46.1277C69.6881 48.593 68.1152 50.7255 68.6748 53.5234L69.3402 51.9505C69.3402 51.9505 69.3402 58.4539 73.3784 61.0401C73.3784 61.0401 75.1781 62.4921 78.3088 62.4921L77.8551 63.2785C77.8551 63.2785 80.0935 62.7189 81.1068 60.2537L78.7474 60.5864L76.3881 60.8133L73.696 59.7546L72.2441 56.3365L71.0795 48.593L71.6845 43.6625L70.5653 43.2088H67.4346Z" fill="#AAAAAA"/>
<path d="M53.6108 29.2947C53.6108 29.2947 53.9889 26.164 57.1348 25.0448L56.2424 23.9257C56.2424 23.9257 63.6533 22.3376 68.251 29.2947L62.8668 26.4968L60.9612 25.8313L60.6284 26.4968H58.9497L56.4844 27.0564L53.6108 29.2947Z" fill="#AAAAAA"/>
<path d="M84.8726 31.9869C84.8726 31.9869 86.7328 26.3909 89.8635 27.4043L90.529 28.0697L89.8635 29.1889L90.529 29.4158L90.9827 30.7618V31.4273L89.7425 30.6408L88.7292 30.0812L88.3965 29.1889L86.7177 30.2022L84.8726 31.9869Z" fill="#AAAAAA"/>
<path d="M59.1465 13.3842C59.1465 13.3842 71.1399 17.0896 72.9397 18.3147L71.6995 14.6092C71.6995 14.6092 82.4679 17.8609 87.3984 22.3528L81.1219 15.063L68.221 11.4785L67.4345 12.5977L59.1465 13.3842Z" fill="#AAAAAA"/>
<path d="M74.2858 103.978C74.2858 103.978 71.9264 99.1533 75.2991 97.0208C75.2991 97.0208 74.9664 98.4727 75.6319 98.8205C76.2973 99.1533 76.5242 95.6747 78.7777 95.1151C78.7777 95.1151 78.324 96.688 80.9102 96.688C83.4964 96.688 86.4003 98.0341 86.4003 98.0341L85.2811 96.2343C85.2811 96.2343 89.3192 96.2343 90.3325 98.8205C91.3459 101.407 91.7845 103.978 91.7845 103.978H74.2858Z" fill="#AAAAAA"/>
<path d="M60.2958 66.7575C60.2202 66.6819 60.1597 66.6516 60.1597 66.6516C60.1597 66.6516 60.205 66.6819 60.2958 66.7575Z" fill="#AAAAAA"/>
<path d="M82.8006 68.7688V67.8765C81.3487 67.5438 78.3088 69.6763 78.3088 69.6763L78.6415 67.9975C77.0686 68.663 74.7092 72.1415 74.7092 72.1415L74.2555 70.5686C73.3632 72.7011 72.0171 72.1415 72.0171 72.1415C67.3891 71.9298 61.2638 67.4984 60.2656 66.7573C60.5228 66.9842 60.9765 67.5589 60.1295 68.3302C59.0103 69.3436 56.1973 66.3187 56.1973 66.3187L56.651 68.3302C47.9092 65.744 46.1094 57.8946 46.1094 57.8946L45.444 61.0404C43.5081 59.1801 42.8578 53.07 42.6309 49.4855C42.6309 49.3645 42.6158 49.2587 42.6158 49.1528C42.5401 47.5496 42.4494 40.5774 46.0036 35.2537L45.5499 38.9591C45.5499 38.9591 48.9074 28.0849 51.7205 26.8447C54.5336 25.6045 50.7072 23.1393 50.7072 23.1393C50.7072 23.1393 53.6261 18.2088 56.5451 17.1955C56.5451 17.1955 52.0532 16.409 50.2686 19.1011C48.4688 21.7932 46.6842 24.4853 46.6842 24.4853L47.1379 25.9372L41.5268 35.2386L39.7271 50.6047H40.1959L41.0731 57.0022L44.1433 66.0616L48.2571 70.4627L50.1627 69.1167L56.6661 72.7011L63.2754 74.0472L64.1374 72.7314L69.0679 74.0925L76.0553 76.709L80.5471 71.5668L83.4661 71.7483L86.3851 65.2752L82.8006 68.7688Z" fill="#AAAAAA"/>
<path d="M33.3598 78.0852C34.6908 73.5479 37.1257 66.7723 41.0126 63.2937C39.5607 59.8908 38.3962 55.3687 38.1844 49.2434C37.8517 40.0479 40.3472 33.6201 42.7973 29.582L41.058 30.7466L43.7652 25.6195C48.5747 16.5299 54.8361 15.1384 56.9989 14.9418C57.1199 14.7452 57.1804 14.5788 57.1804 14.4125C57.1652 14.0344 56.8476 13.6714 56.7569 13.5806L53.9438 11.1759L60.175 11.6145C60.9312 11.5843 63.7291 12.2346 64.4248 12.28L62.8217 10.1475L70.3233 11.0247C82.0898 12.401 85.7801 16.5299 90.393 23.2903C95.6562 31.0037 94.295 39.5488 93.8564 41.6208C94.8849 44.7062 94.8698 47.0958 94.4009 49.1829C97.4711 46.0673 100.405 43.0879 103.309 40.1387L110.569 32.8942C110.644 32.8337 110.735 32.7581 110.811 32.6673C110.932 32.5463 111.037 32.4253 111.158 32.3043L113.412 30.0508C113.714 29.7484 114.017 29.461 114.319 29.1585C115.091 28.4023 115.953 28.3116 116.739 29.0678C119.099 31.3666 121.443 33.6958 123.757 36.0551C124.483 36.7962 124.543 37.6583 123.742 38.475C123.228 38.9892 122.365 39.5337 122.35 40.0933C122.335 40.789 123.303 41.2276 123.833 41.8174C124.695 42.7854 124.695 43.587 123.787 44.5398C123.091 45.2657 122.426 46.0219 121.655 46.642C121.216 47.005 116.709 51.633 116.679 51.633C116.361 51.9506 116.059 52.2531 115.756 52.5556C114.456 53.8714 113.215 55.1267 111.96 56.3669C111.597 56.7298 111.521 57.0323 111.718 57.5163C112.066 58.3633 112.353 59.2253 112.61 60.1025C113.367 62.7644 112.762 65.0784 110.69 66.9538C110.009 67.5587 109.328 68.1788 108.602 68.7082C107.998 69.1619 107.786 69.4493 108.466 70.0694C109.616 71.128 110.402 72.4287 110.342 74.0621C110.327 74.6066 110.674 74.8183 110.992 75.1057C112.202 76.1946 112.807 77.5256 112.61 79.159C112.535 79.7186 112.671 80.1269 113.004 80.5806C114.274 82.335 114.229 84.0441 112.898 85.7229C112.565 86.1463 112.293 86.4488 112.55 87.084C112.883 87.931 112.55 88.6872 111.779 89.2317C108.361 91.6969 104.685 93.7235 100.708 95.0545C102.099 99.6824 102.644 103.736 102.659 103.902L102.795 105.505H70.7619C70.9282 110.315 66.4515 110.738 66.4515 110.738C62.1108 110.92 59.1011 109.226 57.0896 107.245C55.2596 107.441 50.919 107.834 46.3363 107.834C44.0224 107.834 39.3944 106.957 35.8704 103.388V106.745C33.9043 103.69 33.1935 100.968 32.9666 99.0623C32.8002 98.6842 31.2727 102.133 31.2727 102.133C29.5939 93.7538 32.1801 82.8341 32.1801 82.8341C32.4826 81.3217 32.8607 79.7488 33.3598 78.0852ZM34.479 94.0109C34.4639 95.4477 34.5849 97.0962 35.0386 98.7599L35.8251 95.8863C39.591 104.764 50.7224 104.825 54.8966 104.477C53.8682 102.828 53.4598 101.482 53.4598 101.482C53.4598 101.482 63.9409 108.182 65.6045 107.774C67.2833 107.35 67.2833 104.008 63.9257 96.0375C60.5984 88.1276 45.2928 91.3793 45.0659 91.4247C46.0641 90.9861 47.6068 90.2903 49.4519 89.7761L52.5977 82.2141V86.1766C54.9269 83.9382 55.9553 78.8565 55.9553 78.8565C56.6056 83.1064 55.2294 87.3411 54.579 89.0199C58.9196 89.0199 63.8047 90.8348 67.6765 97.2928C68.9016 99.3346 69.688 101.059 70.1569 102.526H99.0743C95.5352 85.1481 88.6386 83.7718 85.0391 72.096C84.3131 73.0186 83.814 73.5933 83.7384 73.6689L81.5303 76.0888L81.1975 72.9278C80.5926 73.5177 79.7456 74.6066 78.8987 75.9073C78.3542 76.724 77.8097 77.6163 77.3106 78.5238L77.2652 78.5994L76.6603 79.7034L75.4352 79.159C74.7395 78.8414 73.575 78.2364 72.2138 77.5256C72.0625 77.4499 71.9113 77.3592 71.7601 77.2836C70.1418 76.4215 67.3438 74.9545 65.3323 74.047C65.4533 74.1831 65.544 74.3041 65.6196 74.3797L66.9959 75.756L69.4309 78.191L64.2131 76.845C58.6172 75.3931 53.5052 72.8673 50.6921 71.3398V78.3725L47.9395 73.4269C47.7126 73.0186 47.1833 72.4287 46.5632 71.7633C45.3987 70.4777 43.7955 68.7082 42.3133 66.0917C39.9993 68.5116 37.8366 72.9429 36.1124 78.917C35.6587 80.4899 35.3108 81.9721 35.0537 83.3786C35.0537 83.3786 33.2993 90.003 33.7228 94.1924C33.7682 94.147 34.3731 93.4967 34.479 94.0109ZM43.493 61.6603C43.8862 62.6434 44.3097 63.5206 44.7483 64.3222C45.7616 66.1522 46.8354 67.5436 47.8034 68.6628V66.1371L50.0418 67.5436C50.1023 67.5739 55.184 70.7348 61.5059 72.9278C61.4908 72.8522 61.4756 72.7766 61.4605 72.701C61.4303 72.58 61.4 72.4741 61.3849 72.3531C61.279 71.6876 61.521 71.0524 62.0503 70.6743C62.3528 70.4475 62.7007 70.3265 63.1695 70.3265C64.561 70.3265 67.0867 71.491 73.1817 74.7125C73.2422 74.7427 73.3027 74.773 73.3481 74.8032C74.1497 75.2267 74.8756 75.6048 75.4806 75.9224C75.5865 75.7258 75.7075 75.5594 75.8133 75.3779C78.1424 71.5364 80.1388 69.6005 81.7571 69.6005C81.8932 69.6005 82.0142 69.6156 82.1503 69.6459C82.4226 69.7064 82.7251 69.8122 83.0124 70.024C84.7366 67.7402 87.4892 63.4903 87.8673 59.3463C88.1093 56.6089 89.0772 54.552 89.9998 52.5556C91.4063 49.5308 92.6314 46.9143 90.9526 42.1955L90.8014 41.7721L90.9072 41.3335C90.9224 41.2881 91.6181 38.4448 91.3005 34.6183C91.2853 35.0267 91.24 35.4653 91.1795 35.9341C91.1795 35.9341 90.756 29.6425 88.0941 31.3213C88.0941 31.3213 87.6404 30.6104 87.8219 30.066C87.8219 30.066 86.0675 30.4592 83.935 33.8168C83.935 33.8168 86.5364 27.752 89.2889 28.5536C89.2889 28.5536 89.047 28.5687 88.9108 29.6425C88.9108 29.6425 90.0149 29.7937 90.7409 31.17C90.2266 29.1283 89.3646 26.9655 87.958 24.9086C84.4492 19.7967 78.0215 15.1082 69.6124 13.4143C69.7032 13.868 71.0341 16.6508 71.0341 16.6508C71.0341 16.6508 64.8029 14.3369 60.0993 13.989C60.1145 14.0949 60.1145 14.2007 60.1296 14.3066C60.1598 15.0779 59.9481 16.2576 58.7684 17.4373L58.3147 17.891L57.6795 17.8608C57.6341 17.8608 52.7944 17.7398 48.2722 23.9709C48.3327 23.9861 48.3932 24.0012 48.4537 24.0163L51.3273 24.7423L49.0133 26.5874C48.9226 26.6479 40.5589 33.5294 41.1336 49.1829C41.3 54.5822 42.2528 58.6052 43.493 61.6603ZM93.2666 65.2447C93.312 65.1994 93.3573 65.154 93.4027 65.1086L98.5449 59.8152C100.526 57.8944 102.659 56.0946 104.443 53.947C105.26 52.9639 110.402 48.094 112.036 46.5513C114.894 43.8441 121.534 37.6583 121.08 36.887C120.989 36.7357 120.717 36.4332 120.339 36.0551L88.1093 67.5134C87.8824 67.9368 87.6404 68.3452 87.3984 68.7233L90.4686 68.1183L93.2666 65.2447ZM96.9266 86.0858C96.5032 83.666 95.3991 81.2915 93.5993 78.9624C92.7675 77.8885 91.9357 76.8298 91.119 75.756L94.1892 74.7881C94.4312 74.7125 94.6731 74.6368 94.9151 74.5612H94.9303C95.4899 74.3646 96.0041 74.1226 96.4124 73.7596C96.8208 73.3967 97.1233 72.8976 97.2594 72.1867C97.3804 71.4759 97.093 69.3585 96.7905 69.1317C96.5032 69.1165 93.8413 69.2526 91.6029 69.4946C91.6029 69.4946 91.2551 69.54 90.7106 69.6156C90.1813 69.6912 89.4553 69.8122 88.7294 69.9937C88.6991 70.0089 88.6537 70.024 88.6386 70.0391L88.6537 70.0089C88.3664 70.0845 88.079 70.1601 87.7917 70.2357C90.03 75.3326 93.6901 80.2328 96.9266 86.0858ZM116.391 32.2136C115.786 31.5179 115.454 31.5481 114.803 32.1985C110.629 36.3879 106.44 40.5621 102.25 44.7364C102.84 46.0824 103.596 48.0788 103.324 48.8804C102.976 49.924 93.2515 59.7698 90.0754 62.961C89.7578 63.9592 89.3646 64.9271 88.9411 65.8648L119.9 35.6468C118.705 34.4822 116.966 32.8639 116.391 32.2136ZM101.101 45.8858C99.7095 47.2621 98.3332 48.6384 96.9418 50.0147C96.7603 50.1962 96.5788 50.3777 96.3973 50.5592C95.747 51.1944 91.7391 55.8073 91.7391 55.8073C91.2702 56.9567 90.9072 58.1666 90.7862 59.5581C90.7257 60.2387 90.6047 60.9041 90.4535 61.5696L102.069 48.4569L101.101 45.8858ZM96.2612 67.2411C97.335 67.0596 98.1063 67.3016 98.4542 68.4813C98.802 69.6459 99.1196 70.7953 99.1348 72.1414C99.8607 71.7784 101.766 70.7046 101.555 70.2206C101.282 69.5854 101.04 68.935 100.723 68.3149C100.314 67.5134 100.072 66.7269 100.768 65.6077C100.057 65.88 99.6339 66.0312 99.2104 66.1824C99.286 65.6682 99.6944 65.3809 100.027 65.0481C106.273 58.8019 112.535 52.5707 118.751 46.3093C119.492 45.5682 122.169 43.1937 121.125 42.1804C119.9 40.9856 119.9 40.9856 118.721 42.1653C110.493 50.3626 102.25 58.575 94.0228 66.7723C93.8111 66.984 93.4935 67.1806 93.4178 67.4377C93.2666 67.9368 93.6447 67.71 93.8716 67.6646C94.658 67.5285 95.4596 67.3924 96.2612 67.2411ZM100.783 86.9025C101.373 88.1125 102.25 86.7815 102.734 87.4319C100.798 89.035 100.33 89.0048 99.1499 86.9025C99.1499 88.0973 99.1499 89.0502 99.1499 89.9879C99.1196 90.0937 99.0894 90.2147 99.0743 90.3206C99.3768 91.0163 99.649 91.712 99.9061 92.4229C100.133 92.3472 100.33 92.196 100.541 92.1204C103.324 91.0466 105.986 89.7156 108.527 88.1276C108.875 87.9158 109.328 87.7797 109.57 87.0689C108.028 87.568 106.606 87.8856 105.124 87.8251C103.702 86.8874 102.507 85.7833 102.447 83.9231C102.432 83.3484 101.993 83.0912 101.645 82.8039C100.466 81.8511 100.572 80.2177 99.8759 79.2195C99.1499 78.1759 97.7433 77.5256 97.5316 76.0283C97.4257 75.2418 97.1535 75.4233 96.5939 75.635C95.4294 76.0736 95.1722 76.5576 95.868 77.7524C97.577 80.747 99.2406 83.8021 100.783 86.9025ZM101.388 77.4651C103.354 77.4802 105.063 76.724 106.651 75.6199C107.514 74.8788 107.816 73.4874 107.438 72.7766C107.03 72.0506 106.425 71.491 105.759 71.007C105.472 70.7953 98.7264 73.6084 99.3163 75.9526C99.5885 77.1021 100.345 77.4651 101.388 77.4651ZM104.292 82.0779C106.258 81.8964 108.058 81.2461 109.495 79.8244C109.555 79.8093 110.206 78.4179 109.858 77.7222C109.48 76.9357 108.784 76.4215 107.982 76.2854C107.498 76.1946 103.339 78.433 103.249 78.4784C103.249 78.4784 101.343 79.3253 101.963 80.5504C102.447 81.4578 103.173 82.1838 104.292 82.0779ZM107.166 61.252C106.697 60.5563 106.273 60.6319 105.91 61.2066C105.184 61.9174 104.474 62.6283 103.748 63.3391C103.339 63.8533 102.432 64.4129 102.78 64.9271C104.171 66.9084 109.616 64.8213 107.166 61.252ZM110.69 60.4958C110.402 59.6488 110.1 58.8019 109.782 57.8944C109.223 58.0608 107.574 59.5883 107.937 60.1782C108.648 61.3125 108.86 62.5526 108.648 63.8684C106.984 65.4716 105.215 66.9689 103.37 68.3603C102.916 68.6931 102.825 69.3283 103.264 69.4946C104.171 69.8425 112.973 67.3319 110.69 60.4958ZM105.986 86.0253C107.589 86.1615 109.011 85.6019 110.281 84.6339C111.295 84.0894 111.037 82.0174 110.236 81.4125C109.434 80.8075 104.111 83.0912 104.232 84.1348C104.353 85.2086 104.912 85.9346 105.986 86.0253Z" fill="#AAAAAA"/>
<path d="M51.9628 45.9616C51.9628 45.9616 50.8739 50.8467 54.1558 55.7318L54.7003 53.5086C54.7003 53.5086 56.8933 58.8474 60.1752 60.6169C60.0996 60.4959 55.2599 53.0397 55.2599 50.393C55.2599 50.393 54.1709 51.2853 53.6265 52.1776C53.6113 52.1776 52.5073 49.5158 51.9628 45.9616Z" fill="#AAAAAA"/>
<path d="M60.6438 31.4573C64.077 32.0471 67.1472 33.499 69.93 35.6618C70.5501 36.1458 73.0607 38.9437 73.8472 38.5203C74.9815 37.9002 74.7697 36.4634 74.4068 35.2988C74.2253 34.709 72.5919 32.8336 72.8641 31.9866C73.6808 32.637 77.356 38.006 80.4564 37.3557C81.1673 37.2045 82.1957 35.0417 82.5889 34.346C83.1788 34.2099 82.6192 37.0986 82.9519 38.2329C83.4812 37.9909 86.4305 34.7695 87.1262 34.2855C87.4438 34.0738 87.7009 33.9376 87.9277 33.8923C87.9277 33.8923 87.9731 33.8771 88.0487 33.8771C88.3815 33.8771 89.2889 34.1645 89.909 37.2045L88.9411 35.9038C89.0318 37.4767 88.684 39.7604 86.4607 41.2124C85.5381 41.8173 85.3718 41.9837 85.6894 42.9668C86.6119 45.8857 86.3851 48.8198 85.4323 51.6783C84.6458 51.5422 84.3736 50.3474 83.6325 50.8616C83.1636 51.1943 83.5266 52.0413 83.6174 52.6311C84.0862 55.414 83.6174 57.9397 81.6361 60.0722C78.2634 63.097 74.195 61.5392 72.3348 57.6826C70.5501 53.9772 70.172 49.9995 70.8526 46.0218C71.2156 43.8893 69.6427 43.965 68.8562 44.086C64.4399 43.8137 59.6002 41.8929 57.8156 33.9376C56.4241 34.467 56.1217 36.8264 56.1217 36.8264C56.1217 36.8264 55.7436 34.1948 56.1217 32.3194C56.5149 30.444 60.6438 31.4573 60.6438 31.4573ZM69.2797 42.8609C71.1551 42.6492 71.6088 41.6056 70.5047 40.0629C70.0208 39.3672 68.5991 38.369 66.9808 37.4011C66.8749 38.5656 66.4817 39.8966 65.4835 41.2426C65.4835 41.2426 64.5609 42.1652 64.5609 39.3823C64.5609 39.3823 66.6632 38.006 64.6819 37.7641C63.8047 37.6582 64.0467 36.8717 64.5761 36.0399C63.0334 35.2232 61.6269 34.588 60.9765 34.3914C60.311 34.1948 59.9481 34.5275 59.9934 35.1324C60.6438 41.7115 66.9203 43.118 69.2797 42.8609ZM76.9779 60.2839C80.532 60.4805 83.2544 56.3668 81.3941 53.3873C80.8496 54.1284 79.791 55.5803 79.791 55.5803C77.1594 57.8641 74.6487 50.4079 74.5429 47.2923C74.5126 46.4756 80.1539 43.602 83.33 47.3528C83.7686 47.9275 84.2072 48.5022 84.7366 49.1979C85.6138 45.069 84.2828 41.2124 81.4092 39.458C77.5375 37.6128 74.6034 42.0744 75.0268 42.7097C70.1569 45.9462 71.7449 50.4835 72.6221 54.8997C73.0607 57.4708 74.1194 60.1176 76.9779 60.2839ZM79.7153 52.3135C79.2465 50.8616 80.0632 46.8386 79.2011 46.6722C78.4298 46.5209 77.9761 46.9444 77.8551 47.8216C77.5375 50.1054 78.0063 52.2228 78.823 54.3704C79.9271 53.9015 80.0027 53.1756 79.7153 52.3135ZM85.4928 40.6074C87.3833 40.32 88.2454 38.4749 87.4891 35.9945C86.7783 36.4029 86.2036 36.8717 85.6894 37.3859C85.8255 38.006 85.886 39.0799 85.0844 40.1385C85.0844 40.1385 84.6761 40.5469 84.6761 39.3067C84.6761 39.3067 85.6138 38.7018 84.7366 38.5808C84.6761 38.5808 84.6307 38.5656 84.6004 38.5354C84.5097 38.6261 84.4341 38.7169 84.3433 38.8227C84.0711 39.1252 83.7232 39.4126 84.1013 39.9268C84.4794 40.4108 84.8273 40.7133 85.4928 40.6074Z" fill="#AAAAAA"/>
<path d="M59.6609 26.3304C59.6609 26.3304 54.3523 25.1508 53.4751 29.8695C53.5507 29.7636 56.6209 25.1961 61.4304 28.1C61.4304 28.1 61.4304 26.9203 60.9918 26.3304C60.9918 26.3304 64.9694 26.9203 69.4008 30.4593C69.4008 30.4593 63.6536 23.9711 58.7837 25.1507C58.7685 25.1507 59.2223 25.1507 59.6609 26.3304Z" fill="#AAAAAA"/>
<path d="M92.4197 63.8837L117.012 40.0632C117.314 40.3657 117.314 40.8799 117.012 41.1824L92.2231 65.3054C91.966 64.8366 92.0416 64.2467 92.4197 63.8837Z" fill="#AAAAAA"/>
<path d="M52.4165 73.82C52.4165 73.82 53.9894 76.5121 53.4298 81.0039L53.203 83.5902L54.6549 78.9924V80.5653C54.6549 80.5653 55.7741 78.1001 55.8951 76.1945C55.8951 76.1945 56.5605 76.6482 56.6815 77.5405C56.6815 77.5405 56.9084 76.0886 55.7892 74.3947L55.5623 75.408C55.5623 75.408 55.1086 74.1678 54.2163 73.3965C54.2163 73.3965 54.549 74.2888 54.2163 76.1945C54.2163 76.1793 53.6416 74.4854 52.4165 73.82Z" fill="#AAAAAA"/>
<path d="M38.8044 89.2923C38.8044 89.2923 37.8667 91.939 40.4075 94.1774V93.0582C40.4075 93.0582 42.2829 95.1453 45.5043 95.5688C45.5043 95.5688 40.952 93.3305 40.8159 91.6668L39.8782 92.3625C39.8782 92.3625 38.5321 90.835 38.8044 89.2923Z" fill="#AAAAAA"/>
<path d="M76.3278 86.8269C76.3278 86.8269 75.2086 86.2522 73.6659 86.1463C72.4257 85.8892 70.6713 85.859 68.9774 86.9328L70.3991 87.2504C70.3991 87.2504 67.6768 88.2335 66.9054 91.1373C66.8449 91.3188 66.7844 92.2413 66.8147 92.6043L67.828 91.9086C67.8129 92.2111 67.8734 92.6951 67.8734 92.6951C67.9944 93.7689 68.4481 95.8106 70.2025 97.8978C70.2025 97.8978 70.021 96.6273 71.2007 98.0339C71.2007 98.0339 69.0682 92.6799 70.4899 91.5003L68.9774 91.1221C68.9774 91.1221 70.1571 88.8082 73.1215 88.1881L72.3199 87.0386C72.335 87.0386 73.0005 86.4639 76.3278 86.8269Z" fill="#AAAAAA"/>
<path d="M85.6136 87.9913L86.8386 87.0385C86.8386 87.0385 84.7969 85.4202 81.8477 86.0706L82.0897 84.6943C82.0897 84.6943 79.8211 84.7094 78.3691 86.1462C78.3691 86.1462 80.6378 83.2424 84.2524 83.7415L83.0879 84.6187C83.0879 84.6187 84.4944 84.6338 86.0371 85.39C86.6723 85.6017 87.3377 86.0101 87.8822 86.7209C88.0183 86.857 88.4569 87.6737 88.5779 88.0216L87.3529 87.8099C87.3529 87.8099 88.7594 90.4112 87.6856 94.2527C87.6705 94.2376 87.3982 88.4753 85.6136 87.9913Z" fill="#AAAAAA"/>
<path d="M82.9214 43.209C82.9214 43.209 82.4677 41.1975 80.9099 40.9706C79.3521 40.7438 78.4447 41.4243 78.7774 42.0898C79.1102 42.7553 81.0158 41.9688 82.9214 43.209Z" fill="#AAAAAA"/>
<path d="M76.0703 55.5199C76.0703 55.5199 75.9342 57.5768 77.3861 58.2423C78.8229 58.8926 79.8816 58.4994 79.7455 57.7583C79.6094 57.0172 77.5525 57.229 76.0703 55.5199Z" fill="#AAAAAA"/>
<path d="M57.4678 28.0241C57.4678 28.0241 59.2675 27.3435 61.7328 28.5685L61.9596 28.1602C61.9596 28.1602 64.6517 29.113 66.1037 30.1868L62.0655 28.6895L61.7328 29.234C61.7177 29.2491 59.7061 27.9031 57.4678 28.0241Z" fill="#AAAAAA"/>
<path d="M89.9848 32.9999C89.9848 32.9999 89.4403 30.9884 87.2927 32.0924L87.0961 31.7295C87.0961 31.7295 85.2812 32.894 84.6006 34.5728C84.6006 34.5728 86.1735 32.773 86.9902 32.2134C87.1112 32.1378 87.2776 32.6974 87.2776 32.6974C87.2776 32.6974 88.7446 31.2152 89.9848 32.9999Z" fill="#AAAAAA"/>
<path d="M68.1001 21.4604C68.1001 21.4604 70.7014 24.7877 73.3784 26.164C76.0554 27.5555 76.0705 23.5173 76.0705 23.5173C76.0705 23.5173 79.1105 26.3304 79.2617 28.5688C79.2617 28.5688 79.1558 25.7708 79.0953 25.2112C79.0197 24.6516 80.8346 26.9202 80.8346 26.9202C80.8346 26.9202 80.9102 22.4737 78.2635 20.8252C78.2635 20.8252 78.0972 22.4737 76.9931 21.9444C75.889 21.415 73.6658 19.6606 73.6658 19.6606L74.18 22.2166C74.18 22.2166 71.8206 20.311 70.0057 19.2825C69.9906 19.2825 73.0911 24.0466 68.1001 21.4604Z" fill="#AAAAAA"/>
<path d="M79.3218 20.0993C79.3218 20.0993 81.908 22.6856 81.5601 26.7086C81.5601 26.7086 82.4524 25.2567 81.8929 22.1108C81.908 22.126 81.6811 22.6856 79.3218 20.0993Z" fill="#AAAAAA"/>
<path d="M56.6812 43.5869C56.6812 43.5869 60.6286 46.5058 63.8802 46.4454C67.1319 46.4 64.5608 51.7539 64.8028 53.8259L63.85 50.6196C63.85 50.6196 63.2753 56.7752 64.6818 58.5296C64.6818 58.5296 61.8536 56.8659 61.173 54.0226L61.1428 55.7165C61.1428 55.7165 58.3751 52.8731 58.8742 49.9693C59.3733 47.0806 57.8911 46.2487 57.8911 46.2487L59.464 46.2941L56.6812 43.5869Z" fill="#AAAAAA"/>
<path d="M60.4019 44.8122C60.4019 44.8122 62.6856 45.9919 63.9712 45.7953C65.2567 45.5987 65.6651 47.8219 65.2567 50.1057C65.2567 50.1057 66.8447 45.765 65.3626 44.9332C63.8804 44.1014 62.9276 45.7197 60.4019 44.8122Z" fill="#AAAAAA"/>
<path d="M45.9129 42.5283C45.9129 42.5283 43.6746 48.8048 45.3533 53.6294L45.9129 49.4854C45.9129 49.4854 46.3667 54.8696 47.3649 56.5483V51.0583C47.3649 51.0583 48.2572 56.5483 50.5107 57.8944C50.5107 57.8944 48.3782 51.6179 49.3915 47.3529C50.4048 43.0879 50.9644 41.5149 50.9644 41.5149L48.3782 46.1127L49.1646 40.6226L46.6994 46.1127L45.9129 42.5283Z" fill="#AAAAAA"/>
<path d="M41.2698 77.5408C41.2698 77.5408 37.9878 81.7604 38.3206 85.8439L39.712 82.8342C39.712 82.8342 38.8802 87.0387 39.3641 88.5663L40.5892 84.392C40.5892 84.392 40.1203 88.7931 41.6933 90.366C41.6933 90.366 41.9806 87.931 43.7653 84.9365C45.565 81.9419 45.7163 78.0248 45.7163 78.0248L42.5251 80.8832L44.4156 76.9056L41.1185 80.4749L41.2698 77.5408Z" fill="#AAAAAA"/>
<path d="M89.8638 43.2088C89.8638 43.2088 91.6636 47.9124 88.4119 52.6311L88.9715 50.0449C88.9715 50.0449 86.3853 52.9639 86.3853 54.4158C86.3853 54.4158 86.839 49.2584 87.7313 48.3661C88.6236 47.4738 88.9715 43.9952 88.9715 43.9952L89.5311 45.9009L89.8638 43.2088Z" fill="#AAAAAA"/>
<path d="M51.1758 93.1036C51.1758 93.1036 55.2139 92.2113 58.0119 94.2228C60.8099 96.2343 61.0367 97.4745 61.0367 97.4745L57.6792 95.2361L59.4789 97.4745C59.4789 97.4745 57.1196 95.5688 56.1214 96.2343C55.1232 96.8998 56.1214 98.0341 56.1214 98.0341C56.1214 98.0341 53.762 96.0226 51.1758 96.4763C51.1758 96.4763 54.3216 94.3438 51.1758 93.1036Z" fill="#AAAAAA"/>
<path d="M43.9163 106.836C44.3095 108.333 44.7027 109.815 45.1111 111.298C43.7499 117.952 42.3736 124.592 41.0124 131.246C39.7723 130.808 38.5321 130.324 37.3221 129.825C38.0632 126.755 38.8043 123.699 39.5454 120.629C38.396 120.327 37.2465 120.009 36.1122 119.661C35.3106 122.52 34.4939 125.363 33.6923 128.222C32.4824 127.647 31.2876 127.057 30.123 126.422C31.9379 120.932 33.768 115.442 35.5829 109.967C35.3106 108.923 35.0233 107.88 34.7359 106.836C36.4147 106.836 38.0935 106.836 39.7571 106.836C39.0312 109.392 38.3052 111.948 37.5793 114.504C37.4734 114.852 37.428 115.033 37.3221 115.381C38.4262 115.608 39.5454 115.82 40.6646 116.032C41.0427 114.489 41.4057 112.961 41.7838 111.419C42.1619 109.891 42.5249 108.364 42.903 106.821C43.2962 106.836 43.5079 106.836 43.9163 106.836Z" fill="#AAAAAA"/>
<path d="M43.644 127.254C44.6876 121.764 45.7312 116.289 46.7747 110.799C46.3815 109.468 46.0034 108.122 45.6253 106.776C47.3192 106.776 49.0131 106.776 50.6919 106.776C50.0869 110.632 49.482 114.474 48.877 118.331C48.3779 121.476 47.8939 124.622 47.3948 127.768C48.635 128.04 49.8601 128.313 51.1002 128.555C52.0228 121.295 52.9454 114.035 53.868 106.791C54.2763 106.791 54.4881 106.791 54.9115 106.791C55.4409 108.5 55.9853 110.224 56.5449 111.918C55.9551 117.831 55.3804 123.745 54.7905 129.659C53.747 131.216 52.6429 132.744 51.5086 134.241C49.482 133.787 47.4705 133.273 45.4741 132.714C44.854 130.899 44.2339 129.084 43.644 127.254Z" fill="#AAAAAA"/>
<path d="M66.7387 106.806C67.4344 108.606 68.1453 110.375 68.8863 112.16C68.8863 120.13 68.9015 128.101 68.9015 136.071C67.5857 136.071 66.2699 136.041 64.9692 135.98C65.0448 133.182 65.1053 130.384 65.1809 127.602C63.729 124.516 62.3376 121.401 61.0218 118.255C60.6891 124.032 60.3412 129.825 60.0085 135.602C58.7078 135.466 57.4071 135.285 56.1064 135.088C56.787 127.163 57.4676 119.238 58.1331 111.328C57.6189 109.831 57.1046 108.318 56.6055 106.806C56.6207 106.806 56.6207 106.806 56.6207 106.806C57.9062 106.806 59.1918 106.806 60.4622 106.806C60.4924 106.806 60.5227 106.806 60.5529 106.806C60.7193 107.32 60.7949 107.577 60.9613 108.091C62.3527 111.691 63.8198 115.245 65.3775 118.769C65.4229 116.727 65.4834 114.67 65.5288 112.629C65.5742 110.693 65.6195 108.742 65.68 106.806C66.1186 106.806 66.3304 106.806 66.7387 106.806Z" fill="#AAAAAA"/>
<path d="M74.5126 135.875C74.2252 128.116 73.9227 120.357 73.6353 112.599C72.5162 112.614 71.9717 112.629 70.8525 112.629C70.0358 110.693 69.2342 108.742 68.4629 106.776C71.8356 106.776 75.2083 106.776 78.5809 106.776C79.5338 108.651 80.5017 110.511 81.515 112.357C80.2446 112.402 78.9742 112.462 77.7189 112.493C77.4164 112.508 77.25 112.508 76.9475 112.508C77.2046 116.516 77.4618 120.508 77.7189 124.516C77.7491 125.015 77.7642 125.257 77.7945 125.757C78.0062 128.993 78.218 132.245 78.4146 135.481C77.129 135.663 75.8284 135.784 74.5126 135.875Z" fill="#AAAAAA"/>
<path d="M93.3268 113.899C92.2227 114.035 91.1187 114.156 90.0146 114.262C89.8482 113.34 89.7726 112.871 89.6063 111.948C88.5173 112.024 87.4284 112.099 86.3394 112.16C86.5965 113.945 86.8537 115.714 87.1108 117.499C88.2602 117.363 89.4096 117.226 90.5591 117.06C90.8616 118.754 91.164 120.463 91.4514 122.157C90.2566 122.384 89.0769 122.611 87.8821 122.807C88.1392 124.592 88.3963 126.361 88.6534 128.146C89.8785 127.874 91.0884 127.587 92.3135 127.284C92.1471 126.361 92.0715 125.893 91.9051 124.97C93.0999 124.683 94.2796 124.395 95.4744 124.078C95.6862 125.121 95.8072 125.651 96.0189 126.694C95.4593 128.479 94.8695 130.279 94.2796 132.063C91.4211 132.971 88.5476 133.727 85.6135 134.362C84.7212 126.664 83.844 118.966 82.9516 111.268C82.1349 109.816 81.3333 108.349 80.562 106.866C83.6322 106.866 86.6873 106.866 89.7575 106.866C90.7406 108.379 91.7388 109.861 92.7974 111.313C92.9941 112.326 93.1151 112.84 93.3268 113.899Z" fill="#AAAAAA"/>
<path d="M98.681 130.46C97.1837 123.836 95.6864 117.211 94.1891 110.587C93.2363 109.347 92.3288 108.076 91.4214 106.791C94.5218 106.791 97.6072 106.791 100.708 106.791C101.797 107.955 102.916 109.075 104.08 110.179C104.564 111.494 105.048 112.81 105.517 114.126C105.26 114.988 105.124 115.442 104.852 116.38C105.653 117.015 106.062 117.302 106.878 117.862C107.06 118.346 107.135 118.573 107.317 119.056C107.317 119.056 107.317 119.056 107.302 119.056C108.058 121.128 108.814 123.201 109.57 125.257C108.406 125.923 107.211 126.558 106.016 127.178C105.169 124.456 104.322 121.733 103.475 119.026C102.326 119.389 101.176 119.737 100.027 120.07C100.178 120.645 100.254 120.917 100.405 121.491C100.405 121.491 100.405 121.491 100.39 121.491C101.04 123.972 101.706 126.452 102.356 128.933C101.146 129.462 99.9211 129.976 98.681 130.46ZM100.934 110.874C99.8455 110.995 98.7566 111.116 97.6677 111.222C98.0609 112.704 98.4541 114.171 98.8473 115.654C99.9665 115.442 101.086 115.2 102.205 114.958C101.781 113.582 101.358 112.22 100.934 110.874Z" fill="#AAAAAA"/>
<path d="M45.8973 110.844C45.6402 109.967 45.3831 109.059 45.126 108.137C45.3528 108.984 45.5948 109.906 45.8822 110.935C45.8973 110.905 45.8973 110.874 45.8973 110.844Z" fill="#AAAAAA"/>
<path d="M98.7261 111.948L99.452 114.655C100.012 114.55 100.571 114.429 101.131 114.308L100.344 111.767C99.7999 111.842 99.2705 111.903 98.7261 111.948Z" fill="#AAAAAA"/>
<path d="M57.2861 111.434C57.0895 110.844 56.8778 110.254 56.6812 109.664C56.8778 110.284 57.0744 110.905 57.2861 111.51V111.434Z" fill="#AAAAAA"/>
<path d="M43.417 108.243L41.2997 117.015L40.5132 116.879C39.394 116.682 38.2597 116.455 37.1556 116.228L36.2633 116.047L38.6378 107.683H35.8247C36.0062 108.318 36.1877 109.014 36.3843 109.755L36.4448 109.997L31.1362 126.014C31.8017 126.361 32.4823 126.694 33.1477 127.027L35.5374 118.603L36.3541 118.845C37.4733 119.178 38.6227 119.51 39.757 119.798L40.5586 120.009L38.3051 129.311C38.9857 129.583 39.6814 129.855 40.3771 130.112L44.2337 111.328C43.9313 110.179 43.659 109.165 43.417 108.243Z" fill="#AAAAAA"/>
<path d="M55.6826 112.009C55.3045 110.844 54.9113 109.649 54.5181 108.364L51.826 129.553L50.9488 129.371C49.7086 129.129 48.4533 128.857 47.2131 128.585L46.4418 128.418L49.7086 107.623H46.7291C47.0165 108.621 47.2887 109.619 47.5761 110.572L47.6366 110.768L47.6063 110.965C46.5779 116.38 45.5494 121.794 44.521 127.208C45.0201 128.706 45.5494 130.279 46.1544 132.018C47.8181 132.487 49.4968 132.91 51.1907 133.303C52.1889 131.973 53.1266 130.642 54.0038 129.371L55.6826 112.009Z" fill="#AAAAAA"/>
<path d="M66.4965 108.515L66.1487 122.535L64.6362 119.117C63.0936 115.653 61.6114 112.039 60.2049 108.394L60.1897 108.348C60.099 108.061 60.0385 107.864 59.9629 107.653H57.785C58.1631 108.787 58.5563 109.921 58.9344 111.056L58.9949 111.222L58.9344 111.887C58.2992 119.389 57.6489 126.891 57.0137 134.377C57.7396 134.483 58.4807 134.574 59.2218 134.664L60.4015 114.58L61.808 117.922C63.139 121.083 64.5304 124.229 65.952 127.238L66.0428 127.42L65.8462 135.179C66.5873 135.209 67.3283 135.224 68.0846 135.224L68.0694 112.311C67.4796 110.965 66.9805 109.71 66.4965 108.515Z" fill="#AAAAAA"/>
<path d="M69.7026 107.623C70.2622 109.014 70.837 110.421 71.4117 111.782C72.183 111.782 72.7123 111.767 73.6198 111.752L74.4365 111.736L75.3137 134.952C76.0548 134.892 76.7959 134.816 77.5218 134.74L76.0397 111.691L76.9169 111.661C77.2193 111.646 77.3857 111.646 77.6882 111.646C78.5049 111.615 79.3216 111.585 80.1383 111.555C79.4426 110.254 78.7469 108.938 78.0663 107.608H69.7026V107.623Z" fill="#AAAAAA"/>
<path d="M90.7105 113.34C91.255 113.279 91.7843 113.219 92.3288 113.158L92.0112 111.631C91.134 110.421 90.2416 109.135 89.2888 107.683C86.8387 107.683 84.3886 107.683 81.9536 107.683C82.5283 108.742 83.1031 109.801 83.6778 110.829L83.7534 110.98L86.3245 133.319C88.7897 132.759 91.1793 132.109 93.5992 131.368C94.2042 129.568 94.6882 128.04 95.1419 126.634L94.8243 125.106C94.1739 125.273 93.5236 125.439 92.8733 125.59L93.2816 127.904L92.5254 128.101C91.3155 128.403 90.0753 128.691 88.8502 128.963L87.9579 129.159L86.9446 122.127L87.7462 121.991C88.6536 121.839 89.5762 121.673 90.4988 121.492L89.8787 118.013C89.0015 118.134 88.1091 118.24 87.2168 118.346L86.4001 118.436L85.3868 111.389L86.2942 111.328C87.3832 111.268 88.4721 111.192 89.5611 111.116L90.3173 111.056L90.7105 113.34Z" fill="#AAAAAA"/>
<path d="M106.243 118.573L106.182 118.391C105.502 117.922 105.078 117.605 104.337 117.03L103.884 116.682L104.05 116.138C104.292 115.306 104.428 114.867 104.64 114.156L103.369 110.647C102.356 109.68 101.358 108.696 100.36 107.623H93.0698C93.6143 108.394 94.2344 109.226 94.8696 110.058L94.9755 110.209L99.2859 129.311C99.9816 129.023 100.677 128.736 101.358 128.433L99.3615 120.917H99.3766L98.9985 119.48L99.785 119.253C100.889 118.935 102.054 118.588 103.218 118.225L104.02 117.968L106.515 125.983C107.196 125.635 107.861 125.257 108.527 124.894L106.243 118.573ZM102.386 115.775C101.267 116.017 100.133 116.259 98.9985 116.47L98.2272 116.621L96.5938 110.481L97.5768 110.39C98.6506 110.284 99.7547 110.163 100.829 110.042L101.524 109.967L103.264 115.578L102.386 115.775Z" fill="#AAAAAA"/>
</svg>
