<svg width="80" height="80" viewBox="0 0 80 80" fill="none" xmlns="http://www.w3.org/2000/svg">
<path d="M75.7347 72.7754L73.9759 72.083C66.3677 69.0668 57.5656 67.3796 51.5252 66.4962C45.628 65.6287 41.2111 65.3422 39.8184 65.2786L39.3249 65.2627L38.3222 65.2945V65.2627C36.7146 65.2706 33.2845 65.3502 28.8676 65.8516C21.2354 66.7111 14.2798 68.3744 8.19157 70.7858L6.54418 71.4384L7.88119 64.2281L4.26807 59.1108L9.1625 57.1769L10.1255 53.0306L10.5871 52.8396C10.6587 52.8077 12.4414 52.0596 15.5133 51.1205C18.06 50.3486 21.9676 49.306 26.671 48.542C26.4482 48.2157 26.2333 47.8815 26.0184 47.5472L11.1999 37.7822L11.7569 36.9625C11.8524 36.8272 13.8261 33.9463 17.1607 31.6065C16.142 31.4951 15.6804 30.9061 15.5292 30.6594C15.1234 30.0387 15.0279 29.3224 15.2427 28.6061L7.02964 20.3931C5.98709 19.9633 5.62896 19.1834 5.43 18.1567C5.31858 17.5996 5.50958 17.0107 6.003 16.4138C6.86251 15.3633 8.78845 14.1934 10.1812 14.1934C11.1362 14.1934 11.9082 14.6869 12.3061 15.5543C12.4255 15.817 12.4971 16.0716 12.5289 16.2785L17.5905 21.0775C17.4631 19.6768 17.3676 18.2522 17.3199 16.8277C17.3119 16.6128 17.3119 16.3979 17.3199 16.2626C17.3199 16.2228 17.3199 16.183 17.3199 16.1592V15.427L18.0202 15.2201C19.0946 14.9017 20.177 14.6073 21.2116 14.3287C22.7634 13.9069 24.2517 13.5011 25.7001 13.0315C25.724 12.1322 25.8672 11.5035 25.8752 11.4717L26.1856 10.1585L28.9392 11.8298C31.271 10.8509 33.5869 9.67305 35.8312 8.535C36.6509 8.1132 37.5025 7.68344 38.3461 7.26961C39.0146 6.93535 39.7626 6.71252 40.7097 7.28552C43.718 9.12392 46.8218 10.6758 49.9335 11.9014L52.7906 10.1665L53.101 11.4796C53.1089 11.5114 53.2601 12.1561 53.2761 13.0872C55.4885 13.7955 57.7566 14.3526 60.0248 14.7505C60.2636 14.7903 60.4784 14.8619 60.7172 14.9415C60.8366 14.9813 60.9719 15.0211 61.1231 15.0689L61.895 15.2997L61.8234 16.1035C61.7438 16.9709 61.6722 17.8543 61.6006 18.7138C61.4494 20.6159 61.2902 22.5816 61.0116 24.5155C60.7172 26.5529 60.3431 28.5425 59.9134 30.4445C62.1497 31.6463 63.9244 33.238 65.0625 34.4078C66.4234 35.8085 67.1794 36.9307 67.2113 36.9705L67.7684 37.7902L66.1767 38.8407L66.304 38.9999L66.121 38.8725L53.0134 47.5233C52.7667 47.9133 52.52 48.2953 52.2653 48.6693C57.4224 49.5527 61.9269 50.7783 64.9033 51.6856C68.4528 52.7759 70.6095 53.6434 70.6971 53.6752L71.1666 53.8662L75.7347 72.7754ZM64.1154 36.2303L64.967 37.2968L65.0068 37.2729C64.768 36.9784 64.4736 36.6203 64.1154 36.2303ZM9.70367 16.573C9.71163 16.581 9.71959 16.5889 9.72755 16.5969L10.1255 16.1512L9.70367 16.573ZM9.55246 16.3263C9.57634 16.4138 9.62409 16.4934 9.68775 16.5571L10.1175 16.1592C10.1016 16.1592 10.0857 16.1592 10.0698 16.1671L9.55246 16.3263ZM23.6309 43.3133L21.6174 42.3026L23.4877 41.0611L23.8538 41.6102L24.005 41.3078L23.8538 41.6102L24.57 42.6926L23.6309 43.3133ZM54.8757 42.995L54.438 42.7005L55.5283 41.069L55.966 41.3635L54.8757 42.995ZM18.1874 36.2144L18.1078 36.1507L19.3493 34.6386L19.4289 34.7023L18.1874 36.2144Z" fill="#AAAAAA"/>
<path d="M18.2985 16.1594C18.2985 16.2708 18.2905 16.5335 18.2985 16.7961C18.5611 24.2292 19.8901 31.4316 22.5244 38.3236C25.8669 47.0779 31.0877 54.1688 38.7835 58.9996C39.3565 59.3577 39.7305 59.3179 40.2717 58.9757C45.9222 55.4183 50.3391 50.5637 53.6418 44.5232C57.064 38.2759 59.0217 31.4794 60.0563 24.3645C60.4542 21.595 60.6055 18.7857 60.8601 16.0002C60.3906 15.8649 60.128 15.7615 59.8574 15.7137C52.8699 14.4802 46.344 11.8778 40.2001 8.12139C39.6589 7.78714 39.3087 7.88264 38.7835 8.14527C35.3136 9.86429 31.8835 11.7345 28.3022 13.1511C25.1109 14.4086 21.7445 15.1487 18.2985 16.1594Z" fill="#AAAAAA"/>
<path d="M64.3229 37.2077L55.4254 42.1738L52.7593 40.399L53.3562 39.6032L51.1597 37.6056L55.1468 39.6032L61.3942 34.4621C62.5323 35.2181 63.5828 36.1333 64.3229 37.2077Z" fill="#AAAAAA"/>
<path d="M60.1778 33.7248L54.9491 38.4123L50.8267 36.9798L55.1481 31.6317C55.1481 31.6317 57.655 32.3082 60.1778 33.7248Z" fill="#AAAAAA"/>
<path d="M53.4339 29.4989C53.4896 29.9446 53.3463 30.2311 53.3463 30.2311L44.9741 40.004L43.7803 37.4096L41.1858 38.8023V37.8075L39.5942 38.6033H39.3952L37.8035 37.8075V38.8023L35.2011 37.4096L34.0073 40.004L25.6351 30.2311C25.6351 30.2311 25.4918 29.9446 25.5475 29.4989C27.6724 32.8494 31.0548 35.2926 31.0548 35.2926C30.7285 34.0193 30.6091 32.7459 30.633 31.5203L32.2087 32.6425C34.9146 36.8445 39.4987 38.094 39.4987 38.094C39.4987 38.094 44.0747 36.8366 46.7886 32.6425L48.3643 31.5203C48.3882 32.7459 48.2688 34.0193 47.9425 35.2926C47.9346 35.2926 51.309 32.8494 53.4339 29.4989Z" fill="#AAAAAA"/>
<path d="M50.9989 23.5926L53.1795 25.7732C53.0999 26.0438 52.9964 26.386 52.8611 26.776C52.7259 27.166 52.5508 27.5957 52.3359 28.0255C51.8663 28.9725 51.1899 29.9355 50.2269 30.4926C50.2269 30.4926 50.203 30.3812 50.1553 30.1822C50.0279 29.641 49.7176 28.4473 49.2242 26.9988C49.1366 26.7283 49.0331 26.4577 48.9297 26.1712C49.5266 25.7494 50.394 25.1684 50.9989 23.5926Z" fill="#AAAAAA"/>
<path d="M52.7811 43.6497L40.1909 50.685V48.1781L46.5736 44.7878L40.1909 46.7853V43.2757L46.7725 42.0023L50.3618 37.5536V42.7982L52.7811 43.6497Z" fill="#AAAAAA"/>
<path d="M39.4914 20.7121L51.3813 13.0402C51.3813 16.6851 48.6993 18.2211 48.6993 18.2211C44.0994 19.3751 39.4914 23.784 39.4914 23.784C39.4914 23.784 34.8915 19.3751 30.2836 18.2211C30.2836 18.2211 27.6016 16.6851 27.6016 13.0402L39.4914 20.7121Z" fill="#AAAAAA"/>
<path d="M50.4278 22.6374C50.4278 22.9717 49.8787 25.1841 48.9237 26.155C48.1835 24.1654 47.141 21.8893 45.7642 20.2578C46.568 19.8122 47.3638 19.4381 48.088 19.1914C48.6371 19.9156 50.4278 22.3111 50.4278 22.6374Z" fill="#AAAAAA"/>
<path d="M48.0854 28.8697C47.8546 29.4427 47.4089 30.4613 46.7245 31.5596C46.239 32.3395 45.6262 33.1592 44.894 33.8755C46.2072 31.5755 47.2736 27.5406 47.2736 27.5406L46.3664 23.5614C47.0269 24.9859 47.7113 26.8164 48.0854 28.8697Z" fill="#AAAAAA"/>
<path d="M46.3081 15.2433L39.4877 19.3737V15.5378C39.4877 16.6917 38.5327 17.0738 38.5327 17.0738L38.0074 18.4744L32.6753 15.2433C33.0255 14.1769 34.5853 10.5558 39.4957 10.5558C44.406 10.5558 45.9499 14.1689 46.3081 15.2433Z" fill="#AAAAAA"/>
<path d="M44.5022 24.6339C44.4624 24.6419 42.2977 24.9523 41.3745 25.8834C41.3745 25.8834 42.3136 26.8225 43.2527 26.1938C44.1759 25.581 44.4862 24.6657 44.5022 24.6339ZM34.4825 24.6339C34.4905 24.6657 34.8088 25.581 35.732 26.2017C36.6711 26.8304 37.6102 25.8913 37.6102 25.8913C36.679 24.9523 34.5223 24.6419 34.4825 24.6339ZM44.9558 23.7824C44.9558 23.7824 46.3804 25.2547 46.07 26.2017C46.07 26.2017 40.7458 28.3903 39.4963 28.3903C38.2468 28.3903 32.9227 26.2017 32.9227 26.2017C32.6123 25.2626 34.0368 23.7903 34.0368 23.7824C36.1538 24.5225 39.369 25.8834 39.4963 27.4273C39.6157 25.8913 42.8389 24.5225 44.9558 23.7824Z" fill="#AAAAAA"/>
<path d="M36.4201 23.4004C36.3644 23.3686 34.5021 22.2385 34.3111 21.4824C34.2315 21.1641 34.1838 20.9412 34.1599 20.798C36.8976 22.4454 39.492 24.5544 39.492 24.5544C39.492 24.5544 42.0865 22.4454 44.8242 20.798C44.8003 20.9492 44.7525 21.1641 44.673 21.4824C44.482 22.2385 42.6197 23.3686 42.564 23.4004L45.5643 21.9838C45.6837 22.1987 45.811 22.4295 45.9383 22.6921C41.5214 23.6869 39.4841 26.0903 39.4841 26.0903C39.4841 26.0903 37.4547 23.6949 33.0298 22.6921C33.1651 22.4374 33.2845 22.1987 33.4038 21.9838L36.4201 23.4004Z" fill="#AAAAAA"/>
<path d="M46.3163 26.4989C46.0776 27.6051 45.1226 31.5764 43.2444 33.7172C41.0558 36.2241 40.4271 36.2241 40.4271 36.2241H41.6766C41.6766 36.2241 40.4271 37.4736 39.488 37.4736C38.5489 37.4736 37.2994 36.2241 37.2994 36.2241H38.5489C38.5489 36.2241 37.9202 36.2241 35.7316 33.7172C33.8614 31.5764 32.8984 27.6051 32.6597 26.4989C34.4264 27.6926 39.488 29.0217 39.488 29.0217C39.488 29.0217 44.5496 27.6847 46.3163 26.4989Z" fill="#AAAAAA"/>
<path d="M44.5061 24.6339C44.4981 24.6658 44.1798 25.581 43.2566 26.2017C42.3175 26.8305 41.3784 25.8914 41.3784 25.8914C42.3016 24.9523 44.4583 24.6419 44.5061 24.6339Z" fill="#AAAAAA"/>
<path d="M38.7919 48.1781V50.685L26.2017 43.6497L28.621 42.7982V37.5536L32.2103 42.0023L38.7919 43.2757V46.7853L32.4172 44.7878L38.7919 48.1781Z" fill="#AAAAAA"/>
<path d="M37.614 25.8835C37.614 25.8835 36.6749 26.8226 35.7358 26.1939C34.8126 25.5732 34.4943 24.6579 34.4863 24.6261C34.5261 24.642 36.6829 24.9524 37.614 25.8835Z" fill="#AAAAAA"/>
<path d="M34.0961 33.8755C33.3639 33.1592 32.7511 32.3395 32.2657 31.5596C31.5812 30.4693 31.1356 29.4427 30.9048 28.8697C31.2709 26.8164 31.9633 24.9859 32.6238 23.5614L31.7165 27.5406C31.7165 27.5406 32.783 31.5676 34.0961 33.8755Z" fill="#AAAAAA"/>
<path d="M30.9008 19.1914C31.625 19.4381 32.4209 19.8122 33.2247 20.2578C31.8479 21.8893 30.7974 24.1575 30.0652 26.155C29.1102 25.1761 28.561 22.9717 28.561 22.6374C28.561 22.3111 30.3596 19.9156 30.9008 19.1914Z" fill="#AAAAAA"/>
<path d="M30.0452 26.1869C29.9418 26.4655 29.8463 26.744 29.7507 27.0067C29.2573 28.4471 28.9469 29.6489 28.8196 30.19C28.7719 30.389 28.748 30.5004 28.748 30.5004C27.785 29.9354 27.1086 28.9803 26.639 28.0333C26.4241 27.6035 26.249 27.1738 26.1137 26.7838C25.9785 26.3939 25.875 26.0516 25.7954 25.7811L27.976 23.6004C28.5968 25.1683 29.4563 25.7492 30.0452 26.1869Z" fill="#AAAAAA"/>
<path d="M23.8408 31.6317L28.1622 36.9798L24.0397 38.4123L18.811 33.7248C21.3418 32.3082 23.8408 31.6317 23.8408 31.6317Z" fill="#AAAAAA"/>
<path d="M27.8229 37.6056L25.6264 39.6032L26.2233 40.399L23.5572 42.1738L14.6597 37.2077C15.3918 36.1333 16.4503 35.2181 17.5884 34.4621L23.8357 39.6032L27.8229 37.6056Z" fill="#AAAAAA"/>
<path d="M22.0984 28.2883L23.3478 29.8799C21.979 30.1664 20.7056 30.6678 19.5596 31.2886L19.5835 31.2727L18.3579 29.9356C18.3579 29.9356 18.5569 26.7443 21.7482 27.9381L22.0984 28.2883Z" fill="#AAAAAA"/>
<path d="M18.9841 35.3214L17.9097 36.1491L23.7512 41.0674L26.1785 39.8498L28.176 37.4622L26.9584 37.709L23.9422 39.1653L22.1913 37.4622L18.9841 35.3214Z" fill="#AAAAAA"/>
<path d="M18.1552 25.9406C18.203 25.9327 20.3517 25.3517 20.9486 25.9406C21.5455 26.5375 21.1476 26.9354 21.1476 26.9354C21.1476 26.9354 18.951 26.5375 18.3542 28.3281C18.0358 29.2831 17.9403 29.6174 17.9244 29.7209C17.7175 29.6811 16.4043 29.3866 16.9535 27.7313L8.04004 18.8178C8.35042 18.0936 9.05872 17.1863 10.6982 16.8839L19.0704 25.0652C18.768 25.2562 18.4576 25.5427 18.1552 25.9406Z" fill="#AAAAAA"/>
<path d="M10.1743 15.7681C10.6518 15.8636 10.4688 16.4207 10.4688 16.4207C9.86395 16.556 8.47122 17.0096 7.54009 18.4899C7.26154 18.3865 6.8477 18.1636 6.983 17.7657C7.18992 17.1688 9.17952 15.5692 10.1743 15.7681Z" fill="#AAAAAA"/>
<path d="M24.6725 32.4107L23.3594 32.8962L26.8611 36.6366L25.1102 38.1965L28.5642 37.1778L24.6725 32.4107Z" fill="#AAAAAA"/>
<path d="M60.0391 35.3214L61.1135 36.1491L55.2721 41.0674L52.8368 39.8498L50.8472 37.4622L52.0648 37.709L55.0811 39.1653L56.8319 37.4622L60.0391 35.3214Z" fill="#AAAAAA"/>
<path d="M54.3482 32.4107L55.6613 32.8962L52.1596 36.6366L53.9105 38.1965L50.4565 37.1778L54.3482 32.4107Z" fill="#AAAAAA"/>
<path d="M61.3506 34.3527L62.9583 36.3502L61.5496 37.5679L61.8361 38.0533L59.4565 40.1464L64.6136 37.4167V36.6367L61.3506 34.3527Z" fill="#AAAAAA"/>
<path d="M55.0347 31.4308L58.5841 33.6751L57.5097 34.7415L57.7564 35.036L56.5866 37.2723L60.8204 33.6194L58.8229 32.7439L55.0347 31.4308Z" fill="#AAAAAA"/>
<path d="M45.881 41.0674L50.0592 37.6453L50.3139 37.0246L50.3696 37.3906L50.4571 37.319L50.3776 37.4623L51.1893 42.7228L53.2744 43.4948L52.3512 44.1314L50.4571 42.7228L49.534 38.9346L47.4886 42.5238L42.2361 43.6937V45.1979L46.3586 44.8636L42.2361 47.8321V48.6041L47.9264 46.5667L39.5063 51.5248V42.1816L45.881 41.0674Z" fill="#AAAAAA"/>
<path d="M39.5071 29.0025L34.3501 27.9759L34.8833 29.9735L36.9286 31.7721H35.3687C35.3687 31.7721 37.804 35.7592 39.3559 35.7592H39.4992V37.7091L37.9393 37.0246L36.1885 35.2738L34.1909 31.9631L32.4878 27.0527L32.631 26.3683L34.3341 27.0527L39.5071 29.0025Z" fill="#AAAAAA"/>
<path d="M39.3628 29.0024L44.5199 27.9837L43.9866 29.9813L41.9413 31.7799H43.5012C43.5012 31.7799 41.0659 35.7671 39.514 35.7671H39.3628V37.7169L40.9226 37.0324L42.6735 35.2816L44.6711 31.9709L46.3742 27.0605L46.2309 26.3761L44.5278 27.0605L39.3628 29.0024Z" fill="#AAAAAA"/>
<path d="M49.1935 40.9185L47.8326 43.0673L43.9409 43.9427V44.5157L47.9758 43.6881C47.9758 43.696 49.1935 42.9002 49.1935 40.9185Z" fill="#AAAAAA"/>
<path d="M50.3167 44.4278L46.5683 46.4652L45.1597 46.9507L46.9105 45.3988L49.7278 44.1334L50.3167 44.4278Z" fill="#AAAAAA"/>
<path d="M29.0503 34.7422L33.2364 37.9574L33.4752 37.464L32.6475 35.3232L37.9558 38.8806L35.5205 38.3951L34.1119 40.6314L29.0503 34.7422Z" fill="#AAAAAA"/>
<path d="M49.7745 34.7422L45.5963 37.9574L45.3496 37.464L46.1773 35.3232L40.877 38.8806L43.3043 38.3951L44.7209 40.6314L49.7745 34.7422Z" fill="#AAAAAA"/>
<path d="M17.6692 34.3527L16.0616 36.3502L17.4702 37.5679L17.1758 38.0533L19.5633 40.1464L14.4062 37.4167V36.6367L17.6692 34.3527Z" fill="#AAAAAA"/>
<path d="M32.3614 19.5636L30.3639 22.8186V24.283L29.7113 25.7632L29.194 25.2539L28.1753 27.8802L28.422 30.5064L28.9075 30.8009L30.8971 24.6252L32.7514 21.3622L33.6746 20.2401L32.3614 19.5636Z" fill="#AAAAAA"/>
<path d="M23.9874 31.4308L20.438 33.6751L21.5124 34.7415L21.2657 35.036L22.4355 37.2723L18.2017 33.6194L20.1913 32.7439L23.9874 31.4308Z" fill="#AAAAAA"/>
<path d="M31.484 19.1741L29.0965 22.6758L29.4864 25.5488L28.42 23.7979L26.3747 25.883L27.1069 29.1937L25.3003 25.7875L27.7833 23.1135L28.7065 21.6014L30.6086 18.6886L31.484 19.1741Z" fill="#AAAAAA"/>
<path d="M46.7541 19.5636L48.7516 22.8186V24.283L49.4042 25.7632L49.9215 25.2539L50.9402 27.8802L50.6935 30.5064L50.208 30.8009L48.2184 24.6252L46.3641 21.3622L45.4409 20.2401L46.7541 19.5636Z" fill="#AAAAAA"/>
<path d="M47.5815 19.1741L49.9691 22.6758L49.5791 25.5488L50.6455 23.7979L52.6909 25.883L51.9587 29.1937L53.7652 25.7875L51.2822 23.1135L50.359 21.6014L48.457 18.6886L47.5815 19.1741Z" fill="#AAAAAA"/>
<path d="M33.1391 41.0674L28.961 37.6453L28.7063 37.0246L28.6506 37.3906L28.563 37.319L28.6426 37.4623L27.8309 42.7228L25.7378 43.4948L26.6689 44.1314L28.563 42.7228L29.4862 38.9346L31.5315 42.5238L36.7841 43.6937V45.1979L32.6616 44.8636L36.7841 47.8321V48.6041L31.0938 46.5667L39.5059 51.5248V42.1816L33.1391 41.0674Z" fill="#AAAAAA"/>
<path d="M39.5046 20.0996L28.3628 13.2394L30.0181 16.7411C30.0181 16.7411 34.6897 18.3965 35.7084 19.5663L39.5046 22.6781L43.3008 19.5663C44.3194 18.3965 48.991 16.7411 48.991 16.7411L50.6464 13.2394L39.5046 20.0996Z" fill="#AAAAAA"/>
<path d="M9.09263 17.5301L17.1306 25.6955L18.1971 25.1623L17.6161 26.3799C17.6161 26.3799 18.786 25.9899 19.367 26.1332C19.9479 26.2764 20.3379 27.0564 20.3379 27.0564L18.977 27.6851L18.0061 30.0169L16.7407 29.7224L16.6452 28.0193L7.79541 18.6921L8.37638 17.9599L9.09263 17.5301Z" fill="#AAAAAA"/>
<path d="M8.22748 16.2076C8.22748 16.2076 8.61744 17.1785 8.9119 17.3297L7.6863 18.7384L6.95413 18.4917L6.65967 18.0539L7.39184 16.7408L8.22748 16.2076Z" fill="#AAAAAA"/>
<path d="M33.2378 15.674C33.2378 15.674 33.7233 13.3183 34.5509 12.8568C34.5509 12.8568 33.6755 15.7775 36.0073 17.4249C38.3391 19.0643 39.509 19.8363 39.509 19.8363L43.544 17.1145C43.544 17.1145 43.8384 16.2391 43.2017 15.2682C43.2017 15.2682 43.9339 15.2204 43.8862 14.345C43.8384 13.4695 42.573 12.0848 41.8409 11.7824C41.8409 11.7824 44.4194 11.8858 46.1225 15.682L39.509 20.2979L33.2378 15.674Z" fill="#AAAAAA"/>
<path d="M35.5116 21.1495C35.5116 21.1495 35.4797 21.9295 35.9334 22.3592C36.387 22.781 37.5967 23.9589 37.5967 23.9589L35.5036 23.2108L35.3842 23.5609L32.6704 23.1391L32.7659 22.2239L33.9756 20.298L35.5116 21.1495Z" fill="#AAAAAA"/>
<path d="M43.4479 21.1495C43.4479 21.1495 43.4797 21.9295 43.0261 22.3592C42.5725 22.789 41.3628 23.9589 41.3628 23.9589L43.4559 23.2108L43.5832 23.5689L46.297 23.1471L46.2015 22.2319L44.9839 20.298L43.4479 21.1495Z" fill="#AAAAAA"/>
<path d="M19.3404 27.5871L21.8951 31.041L19.7065 31.7254L18.0034 30.0223L18.6878 28.0248L19.3404 27.5871Z" fill="#AAAAAA"/>
<path d="M54.8476 29.7289C54.8476 29.7289 54.6805 28.949 54.195 28.1372C54.4576 27.5961 54.6805 27.039 54.8396 26.466C54.8396 26.466 54.0756 24.93 53.4947 24.93C53.4947 24.93 53.4867 24.9777 53.4628 25.0653L51.3379 22.7892C51.3538 22.7414 51.3698 22.6857 51.3857 22.638L48.7912 18.9293C53.3832 16.9079 52.1576 11.711 52.1576 11.711L47.2314 14.6954C44.8598 9.78509 39.4958 9.60205 39.4958 9.60205C39.4958 9.60205 34.1398 9.79305 31.7602 14.6954L26.826 11.7031C26.826 11.7031 25.6004 16.8999 30.1924 18.9214L27.5979 22.63C27.6139 22.6857 27.6298 22.7335 27.6457 22.7812L25.5208 25.0573C25.4969 24.9698 25.489 24.922 25.489 24.922C24.916 24.922 24.144 26.458 24.144 26.458C24.3032 27.031 24.526 27.5881 24.7886 28.1293C24.5021 28.6068 24.327 29.0763 24.2315 29.3787L22.6876 27.6597C22.7353 27.0867 22.7433 26.4262 22.5364 26.1317C22.2658 25.7258 21.2471 24.5718 19.9977 24.7071L11.5936 16.7487C11.5936 16.7487 11.5697 15.1729 10.177 15.1729C8.78423 15.1729 6.18979 16.9716 6.38875 17.9664C6.58771 18.9612 6.89013 19.3113 7.53476 19.5342L7.54272 19.5182L16.4164 28.3919C16.1378 28.8455 15.9309 29.4902 16.3607 30.1348C16.3607 30.1348 16.7586 30.9306 18.3582 30.5327L19.1461 31.5116C15.0634 33.8514 12.5804 37.5123 12.5804 37.5123L39.5037 55.2595L66.4271 37.5123C66.4112 37.5123 61.8271 30.7317 54.8476 29.7289ZM55.1421 31.631C55.1421 31.631 57.641 32.3154 60.1718 33.724L54.9431 38.4116L50.8206 36.979L55.1421 31.631ZM53.1763 25.7736C53.0967 26.0442 52.9933 26.3864 52.858 26.7763C52.7227 27.1663 52.5476 27.5961 52.3327 28.0258C51.8632 28.9729 51.1867 29.9358 50.2237 30.4929C50.2237 30.4929 50.1999 30.3815 50.1521 30.1825C50.0248 29.6414 49.7144 28.4476 49.221 26.9992C49.1334 26.7286 49.03 26.458 48.9265 26.1715C49.5154 25.7338 50.3829 25.1608 50.9878 23.577L53.1763 25.7736ZM50.4227 22.638C50.4227 22.9722 49.8815 25.1846 48.9186 26.1556C48.1784 24.166 47.1359 21.8899 45.7591 20.2584C46.5629 19.8127 47.3587 19.4387 48.0829 19.192C48.6321 19.9162 50.4227 22.3117 50.4227 22.638ZM41.6844 36.223C41.6844 36.223 40.4349 37.4725 39.4958 37.4725C38.5567 37.4725 37.3072 36.223 37.3072 36.223H38.5567C38.5567 36.223 37.928 36.223 35.7394 33.7161C33.8692 31.5753 32.9062 27.604 32.6675 26.4978C34.4342 27.6916 39.4958 29.0206 39.4958 29.0206C39.4958 29.0206 44.5573 27.6916 46.3241 26.4978C46.0854 27.604 45.1304 31.5753 43.2522 33.7161C41.0636 36.223 40.4349 36.223 40.4349 36.223H41.6844ZM34.3069 21.484C34.2273 21.1656 34.1796 20.9428 34.1557 20.7996C36.8934 22.439 39.4878 24.5559 39.4878 24.5559C39.4878 24.5559 42.0823 22.447 44.82 20.7996C44.7961 20.9508 44.7484 21.1656 44.6688 21.484C44.4778 22.248 42.5598 23.402 42.5598 23.402L45.5681 21.9854C45.6874 22.2002 45.8148 22.431 45.9421 22.6937C41.5252 23.6885 39.4878 26.0919 39.4878 26.0919C39.4878 26.0919 37.4584 23.6964 33.0336 22.6937C33.1609 22.439 33.2882 22.2002 33.4076 21.9854L36.4159 23.402C36.4159 23.402 34.4979 22.248 34.3069 21.484ZM46.0615 26.2033C46.0615 26.2033 40.7373 28.3919 39.4878 28.3919C38.2384 28.3919 32.9142 26.2033 32.9142 26.2033C32.6038 25.2642 34.0284 23.7919 34.0284 23.7919C36.1453 24.5321 39.3605 25.893 39.4878 27.4369C39.6152 25.893 42.8383 24.5321 44.9473 23.7919C44.9553 23.784 46.3798 25.2642 46.0615 26.2033ZM31.7125 27.5403C31.7125 27.5403 32.7789 31.5753 34.092 33.8753C33.3598 33.159 32.747 32.3393 32.2616 31.5593C31.5772 30.469 31.1315 29.4424 30.9007 28.8694C31.2668 26.8161 31.9592 24.9857 32.6197 23.5611L31.7125 27.5403ZM47.2632 27.5403L46.3639 23.5611C47.0245 24.9857 47.7089 26.8161 48.0829 28.8694C47.8521 29.4424 47.4065 30.4611 46.722 31.5593C46.2366 32.3393 45.6238 33.159 44.8916 33.8753C46.1968 31.5673 47.2632 27.5403 47.2632 27.5403ZM39.4878 10.5491C44.3902 10.5491 45.9501 14.1702 46.3082 15.2366L39.4878 19.367V15.5311C39.4878 16.6851 38.5249 17.0671 38.5249 17.0671L37.9996 18.4677L32.6675 15.2366C33.0256 14.1702 34.5854 10.5491 39.4878 10.5491ZM27.5979 13.0401L39.4878 20.712L51.3777 13.0401C51.3777 16.6851 48.6957 18.221 48.6957 18.221C44.0958 19.375 39.4878 23.784 39.4878 23.784C39.4878 23.784 34.8879 19.375 30.2799 18.221C30.2799 18.221 27.5979 16.6851 27.5979 13.0401ZM30.8927 19.192C31.617 19.4387 32.4128 19.8127 33.2166 20.2584C31.8398 21.8899 30.7893 24.158 30.0571 26.1556C29.1021 25.1767 28.553 22.9722 28.553 22.638C28.553 22.3117 30.3516 19.9162 30.8927 19.192ZM27.9799 23.593C28.5927 25.1767 29.4523 25.7497 30.0412 26.1874C29.9377 26.466 29.8422 26.7445 29.7467 27.0151C29.2533 28.4556 28.9429 29.6573 28.8156 30.1985C28.7678 30.3974 28.744 30.5088 28.744 30.5088C27.781 29.9438 27.1045 28.9888 26.635 28.0417C26.4201 27.612 26.245 27.1822 26.1097 26.7923C25.9744 26.4023 25.871 26.0601 25.7914 25.7895L27.9799 23.593ZM6.98563 17.7674C7.18459 17.1705 9.18215 15.5709 10.177 15.7698C10.6545 15.8653 10.4714 16.4224 10.4714 16.4224C9.86658 16.5577 8.47385 17.0113 7.54272 18.4916C7.25621 18.3961 6.85033 18.1733 6.98563 17.7674ZM17.9205 29.7289C17.7136 29.6891 16.4004 29.3947 16.9496 27.7393L8.03614 18.8259C8.34652 18.1017 9.05482 17.1944 10.6943 16.892L19.0665 25.0653C18.7641 25.2642 18.4617 25.5428 18.1513 25.9407C18.1513 25.9407 20.3478 25.3438 20.9447 25.9407C21.5416 26.5376 21.1437 26.9355 21.1437 26.9355C21.1437 26.9355 18.9471 26.5376 18.3503 28.3282C18.0319 29.2912 17.9364 29.6255 17.9205 29.7289ZM18.3503 29.9358C18.3503 29.9358 18.5492 26.7445 21.7405 27.9383L22.0907 28.2884L23.3402 29.8801C21.9713 30.1666 20.698 30.668 19.544 31.2888L19.5679 31.2728L18.3503 29.9358ZM23.8336 31.631L28.155 36.979L24.0326 38.4116L18.8039 33.724C21.3347 32.3074 23.8336 31.631 23.8336 31.631ZM14.6575 37.2098C15.3897 36.1354 16.4482 35.2202 17.5862 34.4642L23.8336 39.6053L27.8208 37.6078L25.6243 39.6053L26.2211 40.4012L23.5551 42.1759L14.6575 37.2098ZM38.7875 46.7838L32.4048 44.7863L38.7875 48.1765V50.6755L26.1893 43.6482L28.6166 42.7887V37.5441L32.2059 41.9849L38.7875 43.2662V46.7838ZM39.3923 38.6105L37.8006 37.8147V38.8095L35.1982 37.4088L34.0045 40.0032L25.6322 30.2303C25.6322 30.2303 25.489 29.9438 25.5447 29.4981C27.6696 32.8486 31.0519 35.2918 31.0519 35.2918C30.7256 34.0185 30.6062 32.7452 30.6301 31.5196L32.2059 32.6417C34.9117 36.8437 39.4958 38.0932 39.4958 38.0932C39.4958 38.0932 44.0719 36.8358 46.7857 32.6417L48.3535 31.5196C48.3774 32.7452 48.258 34.0185 47.9317 35.2918C47.9317 35.2918 51.3061 32.8486 53.4389 29.4981C53.4947 29.9438 53.3514 30.2303 53.3514 30.2303L44.9712 40.0032L43.7774 37.4088L41.183 38.8015V37.8067L39.5913 38.6026H39.3923V38.6105ZM40.1882 50.6834V48.1845L46.5708 44.7942L40.1882 46.7918V43.2821L46.7698 42.0008L50.359 37.56V42.8046L52.7864 43.6641L40.1882 50.6834ZM52.7545 40.4012L53.3514 39.6053L51.1549 37.6078L55.1421 39.6053L61.3894 34.4642C62.5275 35.2202 63.5859 36.1354 64.3181 37.2098L55.4206 42.1759L52.7545 40.4012Z" fill="#AAAAAA"/>
<path d="M29.8315 40.9185L31.1924 43.0673L35.0841 43.9427V44.5157L31.0492 43.696C31.0492 43.696 29.8315 42.9002 29.8315 40.9185Z" fill="#AAAAAA"/>
<path d="M28.7065 44.4278L32.455 46.4652L33.8636 46.9507L32.1127 45.3988L29.2955 44.1334L28.7065 44.4278Z" fill="#AAAAAA"/>
<path d="M29.0454 14.6551L30.0323 16.7402L32.6745 17.7908C32.6665 17.7908 29.1727 18.3558 29.0454 14.6551Z" fill="#AAAAAA"/>
<path d="M49.9806 14.6551L48.9938 16.7402L46.3516 17.7908C46.3595 17.7908 49.8533 18.3558 49.9806 14.6551Z" fill="#AAAAAA"/>
<path d="M70.3191 54.5817C70.3191 54.5817 55.2776 48.4856 39.3449 48.4776C39.3369 48.4776 39.3289 48.4776 39.321 48.4776C39.313 48.4776 39.3051 48.4776 39.2971 48.4776C23.3643 48.4856 10.9572 53.7302 10.9572 53.7302L9.99419 57.8924L5.78418 59.5557L8.9198 63.9965L7.8295 69.8539C22.6163 63.9965 38.358 64.2512 39.3051 64.2671C39.3051 64.2671 39.313 64.2671 39.3289 64.2671C39.3449 64.2671 39.3528 64.2671 39.3528 64.2671C40.2999 64.2433 59.5593 65.3017 74.346 71.1591L70.3191 54.5817Z" fill="#AAAAAA"/>
<path d="M13.1348 54.9178C12.8403 56.3344 12.5459 57.7431 12.2514 59.1597C11.2088 59.5019 10.1742 59.86 9.13965 60.2341C9.68082 61.0299 10.23 61.8178 10.787 62.6057C11.1054 62.5022 11.2645 62.4465 11.5829 62.3431C11.2884 63.7597 10.994 65.1683 10.6995 66.5849C11.5192 66.3223 12.3469 66.0596 13.1746 65.8129C13.4452 64.4043 13.7157 63.0036 13.9784 61.595C14.7742 61.3562 15.578 61.1334 16.3818 60.9185C16.1351 62.3192 15.8964 63.7119 15.6496 65.1126C16.4773 64.8897 17.305 64.6828 18.1406 64.4839C18.7375 60.6559 19.3424 56.8279 19.9392 52.9999C17.6631 53.549 15.387 54.1936 13.1348 54.9178ZM16.9469 57.767C16.159 57.9818 15.3791 58.1967 14.5991 58.4275C14.6628 58.0773 14.7344 57.7272 14.7981 57.377C15.5701 57.1462 16.35 56.9313 17.1299 56.7164C17.0662 57.0666 17.0105 57.4168 16.9469 57.767Z" fill="#AAAAAA"/>
<path d="M27.3021 54.6236C27.4056 53.589 27.5011 52.5624 27.6045 51.5278C25.2966 51.87 22.9966 52.2918 20.7205 52.8091C20.3544 55.2443 19.9883 57.6717 19.6222 60.1069C21.2298 59.7409 22.8454 59.4146 24.4769 59.136C24.4371 59.4782 24.3973 59.8284 24.3575 60.1706C22.718 60.4571 21.0866 60.7834 19.471 61.1495C19.3118 62.1921 19.1527 63.2346 19.0015 64.2772C21.4925 63.7121 23.9914 63.2426 26.5142 62.8765C26.745 60.4651 26.9838 58.0616 27.2146 55.6502C25.6229 55.881 24.0471 56.1596 22.4634 56.4699C22.5111 56.1277 22.5589 55.7776 22.5987 55.4354C24.1585 55.1329 25.7263 54.8623 27.3021 54.6236Z" fill="#AAAAAA"/>
<path d="M36.0629 50.7476C36.0231 52.1164 35.9833 53.4853 35.9435 54.8462C35.6809 54.8541 35.4103 54.8701 35.1477 54.886C34.893 54.9019 34.6384 54.9178 34.3837 54.9337C34.328 54.9337 34.2723 54.9417 34.2086 54.9417C34.0972 54.9496 33.9937 54.9576 33.8823 54.9656C33.5083 54.9894 33.1342 55.0133 32.7602 55.0451C31.9643 55.1088 31.1685 55.1804 30.3726 55.26C30.3965 54.9178 30.4204 54.5756 30.4443 54.2334C32.02 54.0663 33.5958 53.9469 35.1795 53.8593C35.2114 52.8327 35.2512 51.8061 35.283 50.7794C32.9671 50.9068 30.6591 51.1137 28.3592 51.4241C28.1443 53.8275 27.9214 56.2309 27.7066 58.6424C29.3301 58.4275 30.9536 58.2524 32.5851 58.1251C32.5692 58.4673 32.5453 58.8095 32.5294 59.1517C30.882 59.287 29.2425 59.4621 27.6111 59.6769C27.5156 60.7115 27.428 61.7382 27.3325 62.7728C29.8394 62.4385 32.3622 62.2077 34.893 62.0724C34.9408 60.7036 34.9885 59.3347 35.0363 57.9738C35.3626 57.9579 35.5217 57.95 35.848 57.9341C35.8082 59.3029 35.7685 60.6718 35.7287 62.0326C36.5723 62.0008 37.4079 61.9769 38.2515 61.961C38.2674 60.5922 38.2754 59.2313 38.2913 57.8624C39.103 57.8545 39.9228 57.8545 40.7345 57.8624C40.7504 59.2313 40.7584 60.5922 40.7743 61.961C41.6179 61.9769 42.4535 62.0008 43.2971 62.0326C43.1937 58.2763 43.0822 54.5119 42.9788 50.7556C40.6788 50.6601 38.3709 50.6601 36.0629 50.7476ZM38.3311 54.7825C38.3311 54.4403 38.339 54.0981 38.339 53.7559C39.1269 53.7479 39.9148 53.7479 40.7106 53.7559C40.7106 54.0981 40.7186 54.4403 40.7186 54.7825C39.9227 54.7746 39.1269 54.7746 38.3311 54.7825Z" fill="#AAAAAA"/>
<path d="M46.2901 55.0357C46.2741 54.6935 46.2503 54.3512 46.2343 54.009C47.8181 54.1364 49.3859 54.3035 50.9617 54.5104C50.8662 53.4758 50.7786 52.4492 50.6831 51.4146C48.3831 51.1122 46.0752 50.8973 43.7593 50.77C43.8389 53.1654 43.9264 55.553 44.006 57.9484C45.6375 58.036 47.2689 58.1633 48.8925 58.3305C48.9163 58.6727 48.9402 59.0149 48.9641 59.3571C47.3246 59.19 45.6852 59.0547 44.0378 58.9671C44.0697 59.9938 44.1094 61.0204 44.1413 62.047C46.6721 62.1823 49.1869 62.4131 51.7018 62.7474C51.4869 60.3439 51.2641 57.9405 51.0492 55.5291C49.4734 55.3381 47.8817 55.171 46.2901 55.0357Z" fill="#AAAAAA"/>
<path d="M54.2243 56.0322C54.1845 55.69 54.1447 55.3398 54.1049 54.9976C55.6807 55.2762 57.2485 55.5866 58.8004 55.9367C58.6412 54.8942 58.482 53.8516 58.3308 52.8091C56.0547 52.2918 53.7627 51.862 51.4468 51.5278C51.6776 53.9392 51.9163 56.3426 52.1471 58.754C53.7786 58.9928 55.3942 59.2713 57.0097 59.5896C57.0575 59.9319 57.1052 60.282 57.145 60.6242C55.5215 60.2979 53.8821 60.0194 52.2426 59.7806C52.3461 60.8152 52.4416 61.8419 52.545 62.8765C55.0679 63.2426 57.5748 63.7121 60.0578 64.2772C59.6917 61.8419 59.3256 59.4146 58.9595 56.9793C57.3917 56.6291 55.816 56.3108 54.2243 56.0322Z" fill="#AAAAAA"/>
<path d="M59.0981 52.9921C59.695 56.8201 60.2999 60.6481 60.8967 64.4761C61.7324 64.675 62.5601 64.8899 63.3877 65.1048C62.7192 61.2609 62.0507 57.4169 61.3743 53.5651C60.6182 53.3661 59.8622 53.1751 59.0981 52.9921Z" fill="#AAAAAA"/>
<path d="M71.5681 67.5153C70.5017 62.8835 69.9923 60.5915 68.9259 55.9597C68.1778 55.6891 67.4297 55.4265 66.6737 55.1718C66.9761 56.5884 67.2785 58.005 67.5809 59.4216C65.6311 56.851 64.5169 56.2541 62.1294 53.7075C62.9491 58.2597 63.3948 60.7825 64.2145 65.3427C65.0422 65.5735 65.8699 65.8122 66.6975 66.0669C66.419 64.6582 66.1404 63.2496 65.8619 61.841C68.5598 64.2842 69.475 64.8413 71.5681 67.5153Z" fill="#AAAAAA"/>
<path d="M68.6628 61.7999L68.4161 60.6539C68.1455 60.5743 67.8749 60.4947 67.6123 60.4151L68.6628 61.7999Z" fill="#AAAAAA"/>
<path d="M11.016 61.9308C11.1353 61.891 11.2547 61.8512 11.4139 61.8035L12.353 61.501L11.4696 65.7429C11.8755 65.6155 12.2813 65.4882 12.6872 65.3688L13.499 61.1509L13.8332 61.0554C14.637 60.8166 15.4488 60.5938 16.2526 60.3709L17.1201 60.1401L16.3879 64.3422C16.8097 64.2308 17.2315 64.1273 17.6612 64.0239L18.5844 58.1505C15.8228 58.7792 12.9498 59.5831 10.0928 60.6017C10.3872 61.0315 10.6976 61.4851 11.016 61.9308Z" fill="#AAAAAA"/>
<path d="M20.3019 59.3737C21.6548 59.0792 23.0157 58.8086 24.3687 58.5778L25.1247 58.4425L24.87 60.6629L24.4483 60.7346C22.96 60.9972 21.4479 61.2916 19.9677 61.6259L19.6812 63.5439C21.7663 63.0903 23.8832 62.7003 25.9842 62.382L26.5334 56.6996C24.6552 56.9543 22.6496 57.2886 20.5645 57.7104L20.3019 59.3737Z" fill="#AAAAAA"/>
<path d="M39.411 55.8253C39.411 55.8253 39.4031 55.8253 39.3871 55.8253C39.3712 55.8253 39.3633 55.8253 39.3633 55.8253C38.8858 55.8173 34.5643 55.7457 28.4841 56.454L28.3488 57.99C29.7415 57.8149 31.1581 57.6716 32.5509 57.5602L33.2034 57.5045L33.0841 59.6851L32.5827 59.7249C31.1104 59.8443 29.6142 60.0035 28.1419 60.1865L27.9668 62.1124C30.0837 61.8498 32.2166 61.6509 34.3415 61.5315L34.4847 57.4249L35.01 57.4011C35.3363 57.3851 35.4955 57.3772 35.8297 57.3613L36.4425 57.3374L36.3231 61.4439C36.7768 61.428 37.2384 61.4121 37.692 61.4041L37.7318 57.2976L38.2889 57.2896C39.1086 57.2817 39.9363 57.2817 40.748 57.2896L41.3051 57.2976L41.3449 61.4041C41.7985 61.4121 42.2601 61.428 42.7138 61.4439L42.5626 56.0242C40.7639 55.8651 39.6259 55.8173 39.411 55.8253Z" fill="#AAAAAA"/>
<path d="M44.5567 57.4172C46.0211 57.5047 47.4934 57.6241 48.9498 57.7753L49.4273 57.823L49.5865 60.0116L48.91 59.94C47.4934 59.7888 46.0609 59.6774 44.6363 59.5898L44.7 61.5158C46.8169 61.6431 48.9577 61.8341 51.0747 62.0967L50.6051 56.8919C48.3052 56.5736 46.236 56.3428 44.5249 56.1756L44.5567 57.4172Z" fill="#AAAAAA"/>
<path d="M52.6676 58.252C54.1478 58.4748 55.644 58.7374 57.1163 59.0319L57.5143 59.1115L57.8087 61.3478L57.0288 61.1886C55.652 60.918 54.2593 60.6713 52.8745 60.4565L53.0575 62.3824C55.1586 62.7007 57.2675 63.0907 59.3606 63.5443L58.5568 58.244C56.4717 57.8302 54.4503 57.488 52.5562 57.1935L52.6676 58.252Z" fill="#AAAAAA"/>
<path d="M61.4025 64.0144C61.8243 64.1178 62.2461 64.2213 62.6759 64.3327L61.7288 58.913C61.3389 58.8255 60.9489 58.7379 60.5669 58.6583L61.4025 64.0144Z" fill="#AAAAAA"/>
<path d="M69.4771 60.9829C69.1269 60.8715 68.7688 60.768 68.4186 60.6566L68.6653 61.8026L67.6148 60.4178C66.3176 60.0438 65.0204 59.7016 63.7231 59.3832C63.7231 59.3992 63.7311 59.4071 63.7311 59.423C64.0256 61.0704 64.328 62.7735 64.71 64.8905C65.1238 65.0098 65.5377 65.1292 65.9435 65.2486L64.9647 60.2507L66.246 61.4126C66.8508 61.9618 67.3681 62.4154 67.8217 62.8213C68.8484 63.7285 69.6124 64.397 70.4798 65.3441C70.1933 64.0787 69.9387 62.9645 69.684 61.8742C69.6124 61.5718 69.5487 61.2773 69.4771 60.9829Z" fill="#AAAAAA"/>
</svg>
