<svg width="150" height="150" viewBox="0 0 150 150" fill="none" xmlns="http://www.w3.org/2000/svg">
<path d="M142 136.454L138.702 135.156C124.437 129.501 107.933 126.337 96.6071 124.681C85.5499 123.054 77.2682 122.517 74.6568 122.398L73.7316 122.368L71.8514 122.428V122.368C68.8372 122.383 62.4058 122.532 54.1241 123.472C39.8138 125.084 26.7719 128.203 15.3566 132.724L12.2677 133.948L14.7746 120.428L8 110.833L17.1771 107.207L18.9826 99.4328L19.8481 99.0747C19.9824 99.015 23.3249 97.6124 29.0849 95.8515C33.8599 94.4041 41.1866 92.4493 50.0056 91.0168C49.5878 90.405 49.1849 89.7783 48.782 89.1516L20.9971 70.8422L22.0416 69.3052C22.2207 69.0516 25.9214 63.6498 32.1737 59.2627C30.2637 59.0538 29.3982 57.9496 29.1147 57.487C28.3537 56.3231 28.1746 54.9801 28.5775 53.6371L13.178 38.2375C11.2232 37.4317 10.5517 35.9694 10.1786 34.0444C9.96971 32.9999 10.3278 31.8957 11.253 30.7765C12.8646 28.8068 16.4757 26.6132 19.0871 26.6132C20.8777 26.6132 22.3252 27.5384 23.0713 29.1649C23.2951 29.6573 23.4294 30.1349 23.4891 30.5228L32.9795 39.5208C32.7408 36.8945 32.5617 34.2235 32.4722 31.5524C32.4572 31.1496 32.4572 30.7467 32.4722 30.493C32.4722 30.4184 32.4722 30.3438 32.4722 30.299V28.9262L33.7853 28.5382C35.7998 27.9413 37.8292 27.3892 39.769 26.8669C42.6788 26.0761 45.4693 25.315 48.1851 24.4346C48.2298 22.7484 48.4984 21.5696 48.5134 21.5099L49.0953 19.0478L54.2584 22.1814C58.6305 20.346 62.9728 18.1375 67.1809 16.0037C68.7178 15.2128 70.3145 14.407 71.8962 13.6311C73.1497 13.0043 74.5523 12.5865 76.3281 13.6609C81.9686 17.1079 87.7882 20.0177 93.6227 22.3157L98.9797 19.0627L99.5617 21.5248C99.5766 21.5845 99.8601 22.7932 99.89 24.5391C104.038 25.8671 108.291 26.9117 112.544 27.6578C112.992 27.7324 113.394 27.8667 113.842 28.0159C114.066 28.0905 114.32 28.1651 114.603 28.2547L116.051 28.6874L115.916 30.1945C115.767 31.821 115.633 33.4774 115.498 35.089C115.215 38.6553 114.916 42.3411 114.394 45.9671C113.842 49.7872 113.141 53.5177 112.335 57.0841C116.528 59.3373 119.856 62.3217 121.99 64.5153C124.541 67.1415 125.959 69.2455 126.018 69.3202L127.063 70.8571L124.079 72.8268L124.317 73.1253L123.974 72.8865L99.3976 89.1068C98.935 89.838 98.4724 90.5542 97.9949 91.2556C107.664 92.9119 116.11 95.2099 121.691 96.911C128.346 98.9553 132.39 100.582 132.554 100.642L133.435 101L142 136.454ZM120.214 67.9324L121.81 69.932L121.885 69.8872C121.437 69.3351 120.885 68.6636 120.214 67.9324ZM18.1918 31.0749C18.2067 31.0899 18.2216 31.1048 18.2365 31.1197L18.9826 30.2841L18.1918 31.0749ZM17.9082 30.6124C17.953 30.7765 18.0425 30.9257 18.1619 31.0451L18.9677 30.299C18.9379 30.299 18.908 30.299 18.8782 30.3139L17.9082 30.6124ZM44.3053 81.213L40.5301 79.3179L44.0368 76.9901L44.7232 78.0197L45.0067 77.4527L44.7232 78.0197L46.0662 80.0491L44.3053 81.213ZM102.889 80.6161L102.069 80.064L104.113 77.005L104.934 77.5571L102.889 80.6161ZM34.0987 67.9026L33.9494 67.7832L36.2773 64.948L36.4265 65.0674L34.0987 67.9026Z" fill="#AAAAAA"/>
<path d="M34.3079 30.2988C34.3079 30.5077 34.293 31.0001 34.3079 31.4925C34.8003 45.4297 37.2923 58.9342 42.2315 71.8567C48.4988 88.2709 58.2876 101.566 72.7173 110.624C73.7916 111.296 74.493 111.221 75.5077 110.579C86.1023 103.909 94.3841 94.8068 100.577 83.4809C106.993 71.7671 110.664 59.0237 112.604 45.6834C113.35 40.4905 113.634 35.223 114.111 30.0003C113.231 29.7466 112.738 29.5527 112.231 29.4631C99.1293 27.1502 86.8932 22.2707 75.3734 15.2275C74.3587 14.6008 73.7021 14.7798 72.7173 15.2723C66.2112 18.4954 59.7798 22.0021 53.0649 24.6582C47.0812 27.0159 40.7691 28.4037 34.3079 30.2988Z" fill="#AAAAAA"/>
<path d="M120.601 69.7677L103.919 79.079L98.9197 75.7514L100.039 74.2592L95.9204 70.5138L103.396 74.2592L115.11 64.6196C117.244 66.0372 119.214 67.7532 120.601 69.7677Z" fill="#AAAAAA"/>
<path d="M112.828 63.232L103.024 72.0211L95.2944 69.3351L103.397 59.3075C103.397 59.3075 108.098 60.5759 112.828 63.232Z" fill="#AAAAAA"/>
<path d="M100.189 55.3085C100.293 56.1442 100.025 56.6814 100.025 56.6814L84.3268 75.0056L82.0885 70.141L77.2239 72.7524V70.8871L74.2395 72.3794H73.8664L70.882 70.8871V72.7524L66.0025 70.141L63.7642 75.0056L48.0662 56.6814C48.0662 56.6814 47.7976 56.1442 47.9021 55.3085C51.8862 61.5907 58.2281 66.1718 58.2281 66.1718C57.6163 63.7843 57.3925 61.3967 57.4372 59.0987L60.3918 61.2027C65.4653 69.0816 74.0604 71.4243 74.0604 71.4243C74.0604 71.4243 82.6406 69.0667 87.729 61.2027L90.6836 59.0987C90.7283 61.3967 90.5045 63.7843 89.8927 66.1718C89.8778 66.1718 96.2047 61.5907 100.189 55.3085Z" fill="#AAAAAA"/>
<path d="M95.6224 44.2364L99.711 48.325C99.5618 48.8324 99.3678 49.474 99.1142 50.2052C98.8605 50.9364 98.5322 51.7422 98.1293 52.5479C97.2489 54.3237 95.9805 56.1292 94.175 57.1738C94.175 57.1738 94.1302 56.9649 94.0407 56.5918C93.8019 55.5771 93.22 53.3388 92.2948 50.623C92.1307 50.1156 91.9367 49.6083 91.7427 49.0711C92.8618 48.2802 94.4883 47.1909 95.6224 44.2364Z" fill="#AAAAAA"/>
<path d="M98.9646 81.8393L75.3579 95.0303V90.3299L87.3254 83.9731L75.3579 87.7185V81.1379L87.6984 78.7504L94.4283 70.409V80.2426L98.9646 81.8393Z" fill="#AAAAAA"/>
<path d="M74.045 38.8344L96.3385 24.4495C96.3385 31.2838 91.3098 34.1638 91.3098 34.1638C82.6849 36.3275 74.045 44.5943 74.045 44.5943C74.045 44.5943 65.4201 36.3275 56.7802 34.1638C56.7802 34.1638 51.7515 31.2838 51.7515 24.4495L74.045 38.8344Z" fill="#AAAAAA"/>
<path d="M94.548 42.445C94.548 43.0718 93.5184 47.2201 91.7278 49.0406C90.34 45.3101 88.3852 41.0424 85.8037 37.9833C87.3108 37.1477 88.803 36.4464 90.1609 35.9838C91.1906 37.3417 94.548 41.8332 94.548 42.445Z" fill="#AAAAAA"/>
<path d="M90.1615 54.1295C89.7287 55.2039 88.8931 57.1139 87.6098 59.1732C86.6996 60.6355 85.5506 62.1725 84.1777 63.5155C86.6399 59.203 88.6394 51.6376 88.6394 51.6376L86.9383 44.1765C88.1768 46.8476 89.4601 50.2796 90.1615 54.1295Z" fill="#AAAAAA"/>
<path d="M86.8334 28.5828L74.0452 36.3273V29.1349C74.0452 31.2986 72.2546 32.0149 72.2546 32.0149L71.2697 34.6411L61.272 28.5828C61.9285 26.5832 64.8533 19.7937 74.0602 19.7937C83.2671 19.7937 86.1619 26.5683 86.8334 28.5828Z" fill="#AAAAAA"/>
<path d="M83.4464 46.1907C83.3718 46.2056 79.313 46.7876 77.582 48.5335C77.582 48.5335 79.3428 50.2943 81.1036 49.1154C82.8346 47.9664 83.4165 46.2504 83.4464 46.1907ZM64.6595 46.1907C64.6744 46.2504 65.2713 47.9664 67.0023 49.1304C68.7631 50.3092 70.5239 48.5484 70.5239 48.5484C68.778 46.7876 64.7341 46.2056 64.6595 46.1907ZM84.2969 44.5941C84.2969 44.5941 86.968 47.3546 86.386 49.1304C86.386 49.1304 76.4032 53.2339 74.0604 53.2339C71.7177 53.2339 61.7348 49.1304 61.7348 49.1304C61.1528 47.3696 63.8239 44.609 63.8239 44.5941C67.7932 45.9818 73.8217 48.5335 74.0604 51.4284C74.2842 48.5484 80.3277 45.9818 84.2969 44.5941Z" fill="#AAAAAA"/>
<path d="M68.285 43.8783C68.1806 43.8186 64.6888 41.6997 64.3307 40.2821C64.1815 39.6852 64.0919 39.2674 64.0472 38.9988C69.1803 42.0876 74.0449 46.042 74.0449 46.042C74.0449 46.042 78.9095 42.0876 84.0427 38.9988C83.9979 39.2823 83.9084 39.6852 83.7592 40.2821C83.4011 41.6997 79.9093 43.8186 79.8048 43.8783L85.4305 41.2222C85.6543 41.6251 85.893 42.0578 86.1318 42.5502C77.85 44.4155 74.03 48.9219 74.03 48.9219C74.03 48.9219 70.2249 44.4304 61.9282 42.5502C62.1819 42.0727 62.4057 41.6251 62.6296 41.2222L68.285 43.8783Z" fill="#AAAAAA"/>
<path d="M86.8484 49.6827C86.4008 51.7569 84.6101 59.203 81.0885 63.217C76.985 67.9175 75.8061 67.9175 75.8061 67.9175H78.1489C78.1489 67.9175 75.8061 70.2602 74.0453 70.2602C72.2845 70.2602 69.9417 67.9175 69.9417 67.9175H72.2845C72.2845 67.9175 71.1057 67.9175 67.0021 63.217C63.4954 59.203 61.6898 51.7569 61.2422 49.6827C64.5549 51.921 74.0453 54.413 74.0453 54.413C74.0453 54.413 83.5357 51.9061 86.8484 49.6827Z" fill="#AAAAAA"/>
<path d="M83.4459 46.191C83.431 46.2507 82.8341 47.9667 81.1031 49.1306C79.3423 50.3095 77.5815 48.5487 77.5815 48.5487C79.3125 46.7879 83.3564 46.2059 83.4459 46.191Z" fill="#AAAAAA"/>
<path d="M72.7322 90.3299V95.0303L49.1255 81.8393L53.6618 80.2426V70.409L60.3916 78.7504L72.7322 81.1379V87.7185L60.7796 83.9731L72.7322 90.3299Z" fill="#AAAAAA"/>
<path d="M70.5235 48.5334C70.5235 48.5334 68.7627 50.2942 67.0019 49.1154C65.271 47.9514 64.6741 46.2354 64.6592 46.1757C64.7338 46.2055 68.7777 46.7875 70.5235 48.5334Z" fill="#AAAAAA"/>
<path d="M63.9281 63.5155C62.5552 62.1725 61.4062 60.6355 60.496 59.1732C59.2127 57.1289 58.3771 55.2039 57.9443 54.1295C58.6308 50.2796 59.929 46.8476 61.1675 44.1765L59.4664 51.6376C59.4664 51.6376 61.4659 59.1881 63.9281 63.5155Z" fill="#AAAAAA"/>
<path d="M57.9296 35.9838C59.2875 36.4464 60.7797 37.1477 62.2868 37.9833C59.7053 41.0424 57.7356 45.2952 56.3627 49.0406C54.5721 47.2052 53.5425 43.0718 53.5425 42.445C53.5425 41.8332 56.9149 37.3417 57.9296 35.9838Z" fill="#AAAAAA"/>
<path d="M56.3326 49.1007C56.1386 49.6229 55.9596 50.1452 55.7805 50.6376C54.8554 53.3385 54.2734 55.5918 54.0346 56.6065C53.9451 56.9795 53.9003 57.1884 53.9003 57.1884C52.0948 56.129 50.8264 54.3383 49.946 52.5626C49.5431 51.7568 49.2148 50.951 48.9611 50.2198C48.7075 49.4886 48.5135 48.847 48.3643 48.3396L52.4529 44.251C53.6168 47.1907 55.2284 48.28 56.3326 49.1007Z" fill="#AAAAAA"/>
<path d="M44.6934 59.3075L52.7961 69.3351L45.0665 72.0211L35.2627 63.232C40.0079 60.5759 44.6934 59.3075 44.6934 59.3075Z" fill="#AAAAAA"/>
<path d="M52.1693 70.5138L48.0509 74.2592L49.17 75.7514L44.1711 79.079L27.4883 69.7677C28.8611 67.7532 30.8457 66.0372 32.9796 64.6196L44.6934 74.2592L52.1693 70.5138Z" fill="#AAAAAA"/>
<path d="M41.4255 53.0402L43.7682 56.0246C41.2016 56.5618 38.8141 57.5019 36.6653 58.6658L36.7101 58.6359L34.4121 56.129C34.4121 56.129 34.7852 50.1453 40.7689 52.3836L41.4255 53.0402Z" fill="#AAAAAA"/>
<path d="M35.5911 66.2311L33.5767 67.783L44.5294 77.0048L49.0807 74.7218L52.8261 70.2452L50.543 70.7077L44.8876 73.4385L41.6047 70.2452L35.5911 66.2311Z" fill="#AAAAAA"/>
<path d="M34.0392 48.6383C34.1287 48.6234 38.1577 47.5341 39.2768 48.6383C40.396 49.7575 39.6499 50.5036 39.6499 50.5036C39.6499 50.5036 35.5314 49.7575 34.4122 53.1149C33.8153 54.9056 33.6363 55.5323 33.6064 55.7263C33.2185 55.6517 30.7563 55.0995 31.7859 51.9958L15.0732 35.2831C15.6552 33.9252 16.9833 32.2241 20.0572 31.657L35.7552 46.9969C35.1882 47.355 34.6062 47.8922 34.0392 48.6383Z" fill="#AAAAAA"/>
<path d="M19.0724 29.5675C19.9677 29.7466 19.6245 30.7911 19.6245 30.7911C18.4904 31.0448 15.8791 31.8954 14.1332 34.6709C13.6109 34.4769 12.835 34.0591 13.0887 33.313C13.4766 32.1938 17.2071 29.1945 19.0724 29.5675Z" fill="#AAAAAA"/>
<path d="M46.26 60.7695L43.7979 61.6798L50.3636 68.6931L47.0807 71.6178L53.5569 69.7078L46.26 60.7695Z" fill="#AAAAAA"/>
<path d="M112.574 66.2311L114.588 67.783L103.636 77.0048L99.0694 74.7218L95.3389 70.2452L97.6219 70.7077L103.277 73.4385L106.56 70.2452L112.574 66.2311Z" fill="#AAAAAA"/>
<path d="M101.904 60.7695L104.366 61.6798L97.8007 68.6931L101.084 71.6178L94.6074 69.7078L101.904 60.7695Z" fill="#AAAAAA"/>
<path d="M115.036 64.4108L118.05 68.1562L115.409 70.4393L115.946 71.3495L111.484 75.274L121.154 70.1558V68.6934L115.036 64.4108Z" fill="#AAAAAA"/>
<path d="M103.188 58.9339L109.843 63.1419L107.829 65.1415L108.291 65.6936L106.098 69.8867L114.036 63.0375L110.291 61.3961L103.188 58.9339Z" fill="#AAAAAA"/>
<path d="M86.0278 77.0047L93.8618 70.5882L94.3393 69.4243L94.4438 70.1107L94.6079 69.9764L94.4587 70.245L95.9808 80.1085L99.8903 81.556L98.1594 82.7497L94.6079 80.1085L92.877 73.0056L89.042 79.7355L79.1935 81.929V84.7493L86.9231 84.1226L79.1935 89.6885V91.1359L89.8627 87.3159L74.0752 96.6123V79.0938L86.0278 77.0047Z" fill="#AAAAAA"/>
<path d="M74.0748 54.3832L64.4053 52.4583L65.4051 56.2037L69.2401 59.5761H66.3154C66.3154 59.5761 70.8815 67.052 73.7913 67.052H74.0599V70.7079L71.1352 69.4247L67.8523 66.1418L64.1069 59.9342L60.9136 50.7273L61.1822 49.444L64.3755 50.7273L74.0748 54.3832Z" fill="#AAAAAA"/>
<path d="M73.8066 54.3829L83.4761 52.4729L82.4764 56.2184L78.6414 59.5907H81.5661C81.5661 59.5907 77 67.0667 74.0902 67.0667H73.8066V70.7226L76.7314 69.4393L80.0142 66.1564L83.7596 59.9489L86.953 50.742L86.6844 49.4587L83.491 50.742L73.8066 54.3829Z" fill="#AAAAAA"/>
<path d="M92.2348 76.7216L89.6831 80.7505L82.3862 82.3919V83.4663L89.9517 81.9144C89.9517 81.9294 92.2348 80.4371 92.2348 76.7216Z" fill="#AAAAAA"/>
<path d="M94.3389 83.3018L87.3106 87.1218L84.6694 88.032L87.9523 85.1222L93.2347 82.7496L94.3389 83.3018Z" fill="#AAAAAA"/>
<path d="M54.4673 65.1415L62.3163 71.17L62.7639 70.2448L61.2121 66.2308L71.1651 72.9009L66.5989 71.9907L63.9577 76.1838L54.4673 65.1415Z" fill="#AAAAAA"/>
<path d="M93.3245 65.1415L85.4904 71.17L85.0278 70.2448L86.5797 66.2308L76.6416 72.9009L81.1928 71.9907L83.8489 76.1838L93.3245 65.1415Z" fill="#AAAAAA"/>
<path d="M33.1288 64.4108L30.1145 68.1562L32.7557 70.4393L32.2036 71.3495L36.6802 75.274L27.0107 70.1558V68.6934L33.1288 64.4108Z" fill="#AAAAAA"/>
<path d="M60.6747 36.6852L56.9292 42.7883V45.534L55.7056 48.3095L54.7357 47.3545L52.8257 52.2787L53.2883 57.203L54.1985 57.7551L57.929 46.1756L61.4059 40.0576L63.1368 37.9536L60.6747 36.6852Z" fill="#AAAAAA"/>
<path d="M44.9772 58.9339L38.322 63.1419L40.3365 65.1415L39.8739 65.6936L42.0674 69.8867L34.1289 63.0375L37.8594 61.3961L44.9772 58.9339Z" fill="#AAAAAA"/>
<path d="M59.0339 35.9546L54.5573 42.5203L55.2885 47.9071L53.2889 44.6243L49.4539 48.5339L50.8268 54.7414L47.4395 48.3548L52.0951 43.341L53.8261 40.5058L57.3925 35.0443L59.0339 35.9546Z" fill="#AAAAAA"/>
<path d="M87.6697 36.6852L91.4151 42.7883V45.534L92.6387 48.3095L93.6086 47.3545L95.5187 52.2787L95.0561 57.203L94.1458 57.7551L90.4153 46.1756L86.9385 40.0576L85.2075 37.9536L87.6697 36.6852Z" fill="#AAAAAA"/>
<path d="M89.2207 35.9546L93.6973 42.5203L92.9661 47.9071L94.9657 44.6243L98.8007 48.5339L97.4278 54.7414L100.815 48.3548L96.1595 43.341L94.4285 40.5058L90.8621 35.0443L89.2207 35.9546Z" fill="#AAAAAA"/>
<path d="M62.1373 77.0047L54.3032 70.5882L53.8257 69.4243L53.7212 70.1107L53.5571 69.9764L53.7063 70.245L52.1843 80.1085L48.2598 81.556L50.0056 82.7497L53.5571 80.1085L55.2881 73.0056L59.123 79.7355L68.9716 81.929V84.7493L61.2419 84.1226L68.9716 89.6885V91.1359L58.3023 87.3159L74.0749 96.6123V79.0938L62.1373 77.0047Z" fill="#AAAAAA"/>
<path d="M74.0749 37.6853L53.1841 24.8225L56.2879 31.3882C56.2879 31.3882 65.0471 34.492 66.9571 36.6855L74.0749 42.5201L81.1928 36.6855C83.1028 34.492 91.862 31.3882 91.862 31.3882L94.9658 24.8225L74.0749 37.6853Z" fill="#AAAAAA"/>
<path d="M17.0426 32.8657L32.1139 48.1757L34.1135 47.1759L33.0242 49.459C33.0242 49.459 35.2177 48.7278 36.307 48.9964C37.3963 49.265 38.1275 50.7274 38.1275 50.7274L35.5758 51.9062L33.7553 56.2784L31.3827 55.7263L31.2037 52.533L14.6104 35.0443L15.6997 33.6715L17.0426 32.8657Z" fill="#AAAAAA"/>
<path d="M15.4313 30.3885C15.4313 30.3885 16.1625 32.209 16.7146 32.4925L14.4166 35.1337L13.0438 34.6711L12.4917 33.8504L13.8645 31.3883L15.4313 30.3885Z" fill="#AAAAAA"/>
<path d="M62.3164 29.3889C62.3164 29.3889 63.2267 24.972 64.7785 24.1065C64.7785 24.1065 63.1371 29.5829 67.5093 32.6718C71.8814 35.7457 74.075 37.1931 74.075 37.1931L81.6405 32.0898C81.6405 32.0898 82.1926 30.4484 80.9988 28.6279C80.9988 28.6279 82.3716 28.5384 82.2821 26.8969C82.1926 25.2555 79.82 22.6591 78.4471 22.092C78.4471 22.092 83.2819 22.286 86.4752 29.4038L74.075 38.0586L62.3164 29.3889Z" fill="#AAAAAA"/>
<path d="M66.584 39.6547C66.584 39.6547 66.5243 41.1171 67.3749 41.9229C68.2254 42.7138 70.4936 44.9222 70.4936 44.9222L66.5691 43.5195L66.3453 44.1761L61.2568 43.3852L61.4359 41.6692L63.7041 38.0581L66.584 39.6547Z" fill="#AAAAAA"/>
<path d="M81.4613 39.6547C81.4613 39.6547 81.521 41.1171 80.6705 41.9229C79.8199 42.7287 77.5518 44.9222 77.5518 44.9222L81.4763 43.5195L81.715 44.191L86.8034 43.4002L86.6244 41.6841L84.3413 38.0581L81.4613 39.6547Z" fill="#AAAAAA"/>
<path d="M36.2628 51.7271L41.0527 58.2032L36.9492 59.4865L33.7559 56.2932L35.0392 52.5478L36.2628 51.7271Z" fill="#AAAAAA"/>
<path d="M102.844 55.7412C102.844 55.7412 102.531 54.2789 101.621 52.7568C102.113 51.7421 102.531 50.6976 102.83 49.6232C102.83 49.6232 101.397 46.7432 100.308 46.7432C100.308 46.7432 100.293 46.8328 100.248 46.9969L96.2639 42.7292C96.2937 42.6397 96.3236 42.5352 96.3534 42.4457L91.4888 35.492C100.099 31.7018 97.8008 21.9577 97.8008 21.9577L88.5641 27.5535C84.1173 18.3466 74.0599 18.0034 74.0599 18.0034C74.0599 18.0034 64.0173 18.3615 59.5556 27.5535L50.304 21.9428C50.304 21.9428 48.006 31.6869 56.616 35.4771L51.7514 42.4308C51.7813 42.5352 51.8111 42.6247 51.8409 42.7143L47.8568 46.982C47.812 46.8178 47.7971 46.7283 47.7971 46.7283C46.7227 46.7283 45.2752 49.6083 45.2752 49.6083C45.5737 50.6826 45.9915 51.7272 46.4839 52.7419C45.9467 53.6372 45.6184 54.5176 45.4394 55.0846L42.5445 51.8615C42.634 50.7871 42.649 49.5486 42.261 48.9965C41.7536 48.2354 39.8436 46.0717 37.5008 46.3254L21.7432 31.4034C21.7432 31.4034 21.6984 28.4488 19.087 28.4488C16.4757 28.4488 11.6111 31.8212 11.9841 33.6864C12.3572 35.5517 12.9242 36.2083 14.1329 36.6261L14.1478 36.5962L30.7859 53.2343C30.2637 54.0849 29.8757 55.2936 30.6815 56.5022C30.6815 56.5022 31.4276 57.9944 34.4269 57.2483L35.9042 59.0838C28.2492 63.4708 23.5935 70.335 23.5935 70.335L74.0748 103.611L124.556 70.335C124.526 70.335 115.931 57.6214 102.844 55.7412ZM103.397 59.3076C103.397 59.3076 108.082 60.5909 112.827 63.2321L103.024 72.0212L95.2939 69.3352L103.397 59.3076ZM99.7109 48.325C99.5616 48.8323 99.3677 49.474 99.114 50.2051C98.8603 50.9363 98.532 51.7421 98.1291 52.5479C97.2487 54.3236 95.9804 56.1292 94.1748 57.1737C94.1748 57.1737 94.13 56.9648 94.0405 56.5918C93.8017 55.5771 93.2198 53.3388 92.2946 50.623C92.1305 50.1156 91.9365 49.6083 91.7425 49.0711C92.8467 48.2504 94.4732 47.176 95.6073 44.2065L99.7109 48.325ZM94.5478 42.4457C94.5478 43.0724 93.5331 47.2207 91.7276 49.0412C90.3398 45.3107 88.385 41.043 85.8035 37.984C87.3107 37.1483 88.8028 36.447 90.1608 35.9844C91.1904 37.3423 94.5478 41.8339 94.5478 42.4457ZM78.1634 67.9176C78.1634 67.9176 75.8207 70.2604 74.0599 70.2604C72.2991 70.2604 69.9563 67.9176 69.9563 67.9176H72.2991C72.2991 67.9176 71.1202 67.9176 67.0167 63.2172C63.51 59.2031 61.7044 51.757 61.2568 49.6829C64.5694 51.9212 74.0599 54.4132 74.0599 54.4132C74.0599 54.4132 83.5503 51.9212 86.863 49.6829C86.4153 51.757 84.6247 59.2031 81.1031 63.2172C76.9995 67.9176 75.8207 67.9176 75.8207 67.9176H78.1634ZM64.3307 40.282C64.1815 39.6851 64.0919 39.2673 64.0472 38.9987C69.1804 42.0726 74.0449 46.0419 74.0449 46.0419C74.0449 46.0419 78.9095 42.0875 84.0427 38.9987C83.998 39.2822 83.9084 39.6851 83.7592 40.282C83.4011 41.7145 79.8049 43.8782 79.8049 43.8782L85.4454 41.2221C85.6692 41.625 85.908 42.0577 86.1467 42.5501C77.865 44.4154 74.0449 48.9218 74.0449 48.9218C74.0449 48.9218 70.2398 44.4303 61.9432 42.5501C62.1819 42.0726 62.4207 41.625 62.6445 41.2221L68.285 43.8782C68.285 43.8782 64.6888 41.7145 64.3307 40.282ZM86.3706 49.1308C86.3706 49.1308 76.3877 53.2343 74.0449 53.2343C71.7022 53.2343 61.7193 49.1308 61.7193 49.1308C61.1374 47.3699 63.8084 44.6094 63.8084 44.6094C67.7777 45.9971 73.8062 48.5488 74.0449 51.4437C74.2837 48.5488 80.3271 45.9971 84.2815 44.6094C84.2964 44.5944 86.9674 47.3699 86.3706 49.1308ZM59.4661 51.6377C59.4661 51.6377 61.4657 59.2031 63.9278 63.5156C62.555 62.1726 61.406 60.6356 60.4957 59.1733C59.2124 57.129 58.3768 55.204 57.9441 54.1296C58.6305 50.2797 59.9287 46.8477 61.1672 44.1766L59.4661 51.6377ZM88.6238 51.6377L86.9376 44.1766C88.1761 46.8477 89.4594 50.2797 90.1608 54.1296C89.728 55.204 88.8924 57.114 87.6091 59.1733C86.6988 60.6356 85.5498 62.1726 84.177 63.5156C86.6242 59.1882 88.6238 51.6377 88.6238 51.6377ZM74.0449 19.7791C83.2369 19.7791 86.1616 26.5686 86.8331 28.5682L74.0449 36.3127V29.1203C74.0449 31.284 72.2394 32.0002 72.2394 32.0002L71.2545 34.6265L61.2568 28.5682C61.9282 26.5686 64.853 19.7791 74.0449 19.7791ZM51.7514 24.4497L74.0449 38.8345L96.3385 24.4497C96.3385 31.284 91.3098 34.1639 91.3098 34.1639C82.6848 36.3276 74.0449 44.5944 74.0449 44.5944C74.0449 44.5944 65.42 36.3276 56.7801 34.1639C56.7801 34.1639 51.7514 31.284 51.7514 24.4497ZM57.9291 35.9844C59.287 36.447 60.7792 37.1483 62.2864 37.984C59.7049 41.043 57.7351 45.2958 56.3623 49.0412C54.5717 47.2058 53.5421 43.0724 53.5421 42.4457C53.5421 41.8339 56.9144 37.3423 57.9291 35.9844ZM52.4677 44.2363C53.6167 47.2058 55.2282 48.2802 56.3325 49.1009C56.1385 49.6232 55.9594 50.1454 55.7804 50.6528C54.8552 53.3537 54.2732 55.6069 54.0345 56.6216C53.9449 56.9947 53.9002 57.2036 53.9002 57.2036C52.0946 56.1441 50.8262 54.3535 49.9458 52.5777C49.5429 51.7719 49.2147 50.9662 48.961 50.235C48.7073 49.5038 48.5133 48.8622 48.3641 48.3548L52.4677 44.2363ZM13.1033 33.3134C13.4764 32.1942 17.2218 29.1949 19.087 29.5679C19.9824 29.747 19.6392 30.7916 19.6392 30.7916C18.5051 31.0452 15.8937 31.8958 14.1478 34.6713C13.6107 34.4922 12.8496 34.0744 13.1033 33.3134ZM33.6062 55.7412C33.2182 55.6666 30.7561 55.1145 31.7857 52.0107L15.073 35.298C15.655 33.9401 16.983 32.239 20.057 31.672L35.755 46.9969C35.1879 47.3699 34.6209 47.8922 34.0389 48.6383C34.0389 48.6383 38.1574 47.5192 39.2766 48.6383C40.3957 49.7575 39.6496 50.5036 39.6496 50.5036C39.6496 50.5036 35.5311 49.7575 34.412 53.1149C33.8151 54.9205 33.636 55.5472 33.6062 55.7412ZM34.412 56.1292C34.412 56.1292 34.785 50.1454 40.7688 52.3838L41.4253 53.0403L43.7681 56.0247C41.2015 56.5619 38.814 57.502 36.6503 58.6659L36.6951 58.6361L34.412 56.1292ZM44.6933 59.3076L52.796 69.3352L45.0663 72.0212L35.2625 63.2321C40.0078 60.576 44.6933 59.3076 44.6933 59.3076ZM27.4882 69.7679C28.861 67.7535 30.8456 66.0374 32.9795 64.6198L44.6933 74.2595L52.1692 70.514L48.0507 74.2595L49.1699 75.7517L44.171 79.0793L27.4882 69.7679ZM72.7318 87.7192L60.7643 83.9737L72.7318 90.3305V95.0161L49.1102 81.8399L53.6614 80.2283V70.3947L60.3913 78.7212L72.7318 81.1236V87.7192ZM73.8659 72.3942L70.8815 70.902V72.7673L66.002 70.141L63.7637 75.0056L48.0657 56.6813C48.0657 56.6813 47.7971 56.1441 47.9015 55.3085C51.8857 61.5907 58.2276 66.1717 58.2276 66.1717C57.6158 63.7842 57.3919 61.3967 57.4367 59.0987L60.3913 61.2027C65.4648 69.0815 74.0599 71.4243 74.0599 71.4243C74.0599 71.4243 82.64 69.0666 87.7285 61.2027L90.6681 59.0987C90.7129 61.3967 90.489 63.7842 89.8772 66.1717C89.8772 66.1717 96.2042 61.5907 100.203 55.3085C100.308 56.1441 100.039 56.6813 100.039 56.6813L84.3262 75.0056L82.0879 70.141L77.2233 72.7523V70.8871L74.2389 72.3793H73.8659V72.3942ZM75.3581 95.031V90.3455L87.3256 83.9886L75.3581 87.7341V81.1535L87.6986 78.751L94.4285 70.4245V80.2581L98.9797 81.8697L75.3581 95.031ZM98.92 75.7517L100.039 74.2595L95.9207 70.514L103.397 74.2595L115.11 64.6198C117.244 66.0374 119.229 67.7535 120.602 69.7679L103.919 79.0793L98.92 75.7517Z" fill="#AAAAAA"/>
<path d="M55.9302 76.7216L58.4818 80.7505L65.7787 82.3919V83.4663L58.2132 81.9294C58.2132 81.9294 55.9302 80.4371 55.9302 76.7216Z" fill="#AAAAAA"/>
<path d="M53.8257 83.3018L60.854 87.1218L63.4952 88.032L60.2123 85.1222L54.9299 82.7496L53.8257 83.3018Z" fill="#AAAAAA"/>
<path d="M54.4526 27.4785L56.303 31.3881L61.2571 33.3578C61.2422 33.3578 54.6914 34.4173 54.4526 27.4785Z" fill="#AAAAAA"/>
<path d="M93.7127 27.4785L91.8623 31.3881L86.9082 33.3578C86.9231 33.3578 93.4739 34.4173 93.7127 27.4785Z" fill="#AAAAAA"/>
<path d="M131.853 102.342C131.853 102.342 103.65 90.9122 73.7764 90.8972C73.7615 90.8972 73.7465 90.8972 73.7316 90.8972C73.7167 90.8972 73.7018 90.8972 73.6869 90.8972C43.8129 90.9122 20.5494 100.746 20.5494 100.746L18.7439 108.55L10.8501 111.669L16.7294 119.995L14.6851 130.978C42.4102 119.995 71.926 120.473 73.7018 120.503C73.7018 120.503 73.7167 120.503 73.7465 120.503C73.7764 120.503 73.7913 120.503 73.7913 120.503C75.567 120.458 111.678 122.442 139.404 133.425L131.853 102.342Z" fill="#AAAAAA"/>
<path d="M24.6227 102.969C24.0706 105.626 23.5185 108.267 22.9664 110.923C21.0116 111.565 19.0717 112.236 17.1318 112.937C18.1465 114.43 19.1762 115.907 20.2207 117.384C20.8176 117.19 21.116 117.086 21.7129 116.892C21.1608 119.548 20.6087 122.189 20.0566 124.845C21.5935 124.353 23.1454 123.86 24.6973 123.398C25.2047 120.756 25.712 118.13 26.2044 115.489C27.6966 115.041 29.2038 114.624 30.7109 114.221C30.2483 116.847 29.8007 119.458 29.3381 122.085C30.89 121.667 32.4419 121.279 34.0087 120.906C35.1278 113.728 36.2619 106.551 37.3811 99.3732C33.1133 100.403 28.8456 101.612 24.6227 102.969ZM31.7704 108.312C30.2931 108.714 28.8307 109.117 27.3684 109.55C27.4877 108.893 27.622 108.237 27.7414 107.58C29.1889 107.148 30.6512 106.745 32.1136 106.342C31.9942 106.998 31.8897 107.655 31.7704 108.312Z" fill="#AAAAAA"/>
<path d="M51.1838 102.417C51.3778 100.478 51.5569 98.5527 51.7509 96.6128C47.4235 97.2544 43.111 98.0453 38.8433 99.0152C38.1569 103.581 37.4704 108.133 36.784 112.699C39.7983 112.012 42.8275 111.401 45.8865 110.878C45.8119 111.52 45.7373 112.176 45.6627 112.818C42.5887 113.355 39.5297 113.967 36.5005 114.654C36.2021 116.608 35.9036 118.563 35.6201 120.518C40.2907 119.458 44.9762 118.578 49.7065 117.892C50.1393 113.37 50.5869 108.864 51.0197 104.342C48.0353 104.775 45.0807 105.297 42.1112 105.879C42.2007 105.238 42.2903 104.581 42.3649 103.94C45.2896 103.372 48.2292 102.865 51.1838 102.417Z" fill="#AAAAAA"/>
<path d="M67.6131 95.1505C67.5385 97.7171 67.4639 100.284 67.3893 102.835C66.8969 102.85 66.3895 102.88 65.8971 102.91C65.4196 102.94 64.9421 102.97 64.4646 103C64.3601 103 64.2557 103.014 64.1363 103.014C63.9274 103.029 63.7334 103.044 63.5245 103.059C62.8232 103.104 62.1218 103.149 61.4205 103.208C59.9283 103.328 58.4361 103.462 56.9439 103.611C56.9886 102.97 57.0334 102.328 57.0782 101.686C60.0327 101.373 62.9873 101.149 65.9568 100.985C66.0165 99.0601 66.0911 97.1352 66.1508 95.2102C61.8085 95.449 57.4811 95.8369 53.1686 96.4189C52.7657 100.925 52.3479 105.432 51.945 109.953C54.9891 109.55 58.0332 109.222 61.0922 108.983C61.0624 109.625 61.0176 110.267 60.9878 110.908C57.8989 111.162 54.8249 111.49 51.7659 111.893C51.5869 113.833 51.4227 115.758 51.2437 117.698C55.9441 117.071 60.6744 116.638 65.4196 116.385C65.5091 113.818 65.5987 111.251 65.6882 108.7C66.3 108.67 66.5984 108.655 67.2102 108.625C67.1356 111.192 67.061 113.758 66.9864 116.31C68.5681 116.25 70.135 116.206 71.7167 116.176C71.7465 113.609 71.7615 111.057 71.7913 108.491C73.3134 108.476 74.8503 108.476 76.3724 108.491C76.4022 111.057 76.4172 113.609 76.447 116.176C78.0287 116.206 79.5955 116.25 81.1773 116.31C80.9833 109.267 80.7744 102.209 80.5804 95.1655C76.2679 94.9864 71.9405 94.9864 67.6131 95.1505ZM71.8659 102.716C71.8659 102.074 71.8808 101.433 71.8808 100.791C73.3581 100.776 74.8354 100.776 76.3276 100.791C76.3276 101.433 76.3425 102.074 76.3425 102.716C74.8503 102.701 73.3581 102.701 71.8659 102.716Z" fill="#AAAAAA"/>
<path d="M86.7882 103.194C86.7583 102.552 86.7136 101.91 86.6837 101.269C89.6532 101.507 92.5929 101.821 95.5474 102.209C95.3684 100.269 95.2042 98.3439 95.0252 96.404C90.7127 95.837 86.3853 95.4341 82.043 95.1954C82.1922 99.6869 82.3563 104.164 82.5055 108.655C85.5646 108.819 88.6236 109.058 91.6677 109.371C91.7125 110.013 91.7572 110.655 91.802 111.296C88.728 110.983 85.6541 110.729 82.5652 110.565C82.6249 112.49 82.6995 114.415 82.7592 116.34C87.5044 116.594 92.2198 117.026 96.9352 117.653C96.5323 113.147 96.1145 108.64 95.7116 104.119C92.757 103.761 89.7726 103.447 86.7882 103.194Z" fill="#AAAAAA"/>
<path d="M101.665 105.059C101.591 104.417 101.516 103.76 101.441 103.119C104.396 103.641 107.336 104.223 110.245 104.88C109.947 102.925 109.649 100.97 109.365 99.0152C105.097 98.0453 100.8 97.2395 96.4575 96.6128C96.8903 101.134 97.3379 105.641 97.7707 110.162C100.83 110.61 103.859 111.132 106.888 111.729C106.978 112.37 107.067 113.027 107.142 113.669C104.098 113.057 101.024 112.535 97.9497 112.087C98.1437 114.027 98.3228 115.952 98.5168 117.892C103.247 118.578 107.947 119.458 112.603 120.518C111.917 115.952 111.23 111.401 110.544 106.834C107.604 106.178 104.65 105.581 101.665 105.059Z" fill="#AAAAAA"/>
<path d="M110.797 99.3586C111.917 106.536 113.051 113.714 114.17 120.891C115.737 121.264 117.288 121.667 118.84 122.07C117.587 114.863 116.333 107.655 115.065 100.433C113.647 100.06 112.23 99.7018 110.797 99.3586Z" fill="#AAAAAA"/>
<path d="M134.18 126.591C132.181 117.907 131.226 113.609 129.226 104.924C127.824 104.417 126.421 103.925 125.003 103.447C125.57 106.103 126.137 108.759 126.705 111.416C123.049 106.596 120.96 105.477 116.483 100.702C118.02 109.237 118.856 113.967 120.392 122.518C121.944 122.95 123.496 123.398 125.048 123.875C124.526 121.234 124.004 118.593 123.481 115.952C128.54 120.533 130.256 121.577 134.18 126.591Z" fill="#AAAAAA"/>
<path d="M128.749 115.877L128.286 113.729C127.779 113.579 127.272 113.43 126.779 113.281L128.749 115.877Z" fill="#AAAAAA"/>
<path d="M20.6538 116.116C20.8776 116.042 21.1015 115.967 21.3999 115.878L23.1607 115.311L21.5044 123.264C22.2654 123.025 23.0264 122.787 23.7874 122.563L25.3095 114.654L25.9362 114.475C27.4433 114.027 28.9654 113.609 30.4725 113.192L32.099 112.759L30.7262 120.638C31.5171 120.429 32.3079 120.235 33.1137 120.041L34.8447 109.028C29.6667 110.207 24.2799 111.714 18.9229 113.624C19.475 114.43 20.0569 115.281 20.6538 116.116Z" fill="#AAAAAA"/>
<path d="M38.0677 111.326C40.6045 110.774 43.1561 110.267 45.6929 109.834L47.1105 109.58L46.633 113.744L45.8421 113.878C43.0517 114.37 40.2165 114.923 37.441 115.549L36.9038 119.146C40.8134 118.295 44.7826 117.564 48.7221 116.967L49.7517 106.313C46.2301 106.79 42.4697 107.417 38.5602 108.208L38.0677 111.326Z" fill="#AAAAAA"/>
<path d="M73.8959 104.671C73.8959 104.671 73.881 104.671 73.8511 104.671C73.8213 104.671 73.8064 104.671 73.8064 104.671C72.911 104.656 64.8084 104.522 53.4079 105.85L53.1542 108.73C55.7656 108.401 58.4217 108.133 61.0331 107.924L62.2567 107.819L62.0329 111.908L61.0928 111.983C58.3322 112.207 55.5269 112.505 52.7663 112.848L52.438 116.459C56.4073 115.967 60.4064 115.594 64.3906 115.37L64.6592 107.67L65.644 107.625C66.2558 107.596 66.5542 107.581 67.181 107.551L68.33 107.506L68.1061 115.206C68.9567 115.176 69.8222 115.146 70.6727 115.131L70.7473 107.431L71.7919 107.417C73.3289 107.402 74.8808 107.402 76.4028 107.417L77.4473 107.431L77.522 115.131C78.3725 115.146 79.238 115.176 80.0885 115.206L79.805 105.044C76.4326 104.745 74.2988 104.656 73.8959 104.671Z" fill="#AAAAAA"/>
<path d="M83.5499 107.655C86.2956 107.819 89.0562 108.043 91.7869 108.327L92.6822 108.416L92.9807 112.52L91.7123 112.385C89.0562 112.102 86.3702 111.893 83.6991 111.729L83.8185 115.34C87.7878 115.579 91.8018 115.937 95.7711 116.429L94.8907 106.67C90.5782 106.073 86.6985 105.641 83.4902 105.327L83.5499 107.655Z" fill="#AAAAAA"/>
<path d="M98.7558 109.222C101.531 109.64 104.337 110.132 107.097 110.684L107.843 110.834L108.395 115.027L106.933 114.728C104.352 114.221 101.74 113.758 99.1438 113.355L99.487 116.967C103.426 117.563 107.381 118.295 111.305 119.145L109.798 109.207C105.889 108.431 102.098 107.789 98.5469 107.237L98.7558 109.222Z" fill="#AAAAAA"/>
<path d="M115.125 120.026C115.916 120.22 116.707 120.414 117.513 120.623L115.737 110.461C115.006 110.296 114.275 110.132 113.559 109.983L115.125 120.026Z" fill="#AAAAAA"/>
<path d="M130.271 114.34C129.615 114.131 128.943 113.937 128.286 113.728L128.749 115.877L126.779 113.281C124.347 112.579 121.915 111.938 119.482 111.341C119.482 111.371 119.497 111.385 119.497 111.415C120.049 114.504 120.617 117.698 121.333 121.667C122.109 121.891 122.885 122.114 123.646 122.338L121.81 112.967L124.213 115.146C125.347 116.175 126.317 117.026 127.167 117.787C129.092 119.488 130.525 120.742 132.151 122.517C131.614 120.145 131.137 118.056 130.659 116.011C130.525 115.444 130.405 114.892 130.271 114.34Z" fill="#AAAAAA"/>
</svg>
