<svg width="80" height="80" viewBox="0 0 80 80" fill="none" xmlns="http://www.w3.org/2000/svg">
<path d="M75.7331 72.7757L73.9743 72.0834C66.3661 69.0671 57.5641 67.3799 51.5236 66.4965C45.6264 65.6291 41.2095 65.3426 39.8168 65.2789L39.3233 65.263L38.3206 65.2948V65.263C36.713 65.2709 33.2829 65.3505 28.866 65.8519C21.2338 66.7114 14.2782 68.3747 8.18998 70.7861L6.54259 71.4387L7.8796 64.2284L4.26648 59.1111L9.16091 57.1772L10.1239 53.0309L10.5855 52.8399C10.6571 52.808 12.4398 52.0599 15.5117 51.1208C18.0584 50.3489 21.966 49.3063 26.6694 48.5423C26.4466 48.216 26.2317 47.8818 26.0169 47.5475L11.1983 37.7825L11.7554 36.9628C11.8509 36.8275 13.8245 33.9466 17.1591 31.6068C16.1405 31.4954 15.6789 30.9065 15.5277 30.6597C15.1218 30.039 15.0263 29.3227 15.2411 28.6065L7.02805 20.3934C5.9855 19.9636 5.62737 19.1837 5.42841 18.157C5.31699 17.6 5.50799 17.011 6.00142 16.4142C6.86093 15.3636 8.78687 14.1938 10.1796 14.1938C11.1346 14.1938 11.9066 14.6872 12.3045 15.5546C12.4239 15.8173 12.4955 16.0719 12.5273 16.2789L17.5889 21.0778C17.4615 19.6771 17.366 18.2525 17.3183 16.828C17.3103 16.6131 17.3103 16.3982 17.3183 16.2629C17.3183 16.2231 17.3183 16.1834 17.3183 16.1595V15.4273L18.0186 15.2204C19.093 14.9021 20.1754 14.6076 21.21 14.329C22.7619 13.9072 24.2501 13.5014 25.6985 13.0318C25.7224 12.1325 25.8656 11.5038 25.8736 11.472L26.184 10.1588L28.9376 11.8301C31.2694 10.8512 33.5853 9.67336 35.8296 8.53531C36.6493 8.11351 37.5009 7.68376 38.3445 7.26992C39.013 6.93566 39.7611 6.71283 40.7081 7.28584C43.7164 9.12423 46.8202 10.6761 49.9319 11.9017L52.789 10.1668L53.0994 11.4799C53.1073 11.5118 53.2585 12.1564 53.2745 13.0875C55.4869 13.7958 57.7551 14.3529 60.0232 14.7508C60.262 14.7906 60.4768 14.8623 60.7156 14.9418C60.835 14.9816 60.9703 15.0214 61.1215 15.0692L61.8934 15.3L61.8218 16.1038C61.7422 16.9712 61.6706 17.8546 61.599 18.7141C61.4478 20.6162 61.2886 22.5819 61.0101 24.5158C60.7156 26.5532 60.3415 28.5428 59.9118 30.4449C62.1481 31.6466 63.9228 33.2383 65.0609 34.4082C66.4218 35.8088 67.1778 36.931 67.2097 36.9708L67.7668 37.7905L66.1751 38.841L66.3024 39.0002L66.1194 38.8728L53.0118 47.5236C52.7651 47.9136 52.5184 48.2956 52.2637 48.6697C57.4208 49.553 61.9253 50.7786 64.9017 51.6859C68.4512 52.7762 70.6079 53.6437 70.6955 53.6755L71.165 53.8665L75.7331 72.7757ZM64.1138 36.2306L64.9654 37.2971L65.0052 37.2732C64.7664 36.9787 64.472 36.6206 64.1138 36.2306ZM9.70208 16.5733C9.71004 16.5813 9.718 16.5892 9.72596 16.5972L10.1239 16.1515L9.70208 16.5733ZM9.55087 16.3266C9.57475 16.4142 9.6225 16.4937 9.68617 16.5574L10.1159 16.1595C10.1 16.1595 10.0841 16.1595 10.0682 16.1674L9.55087 16.3266ZM23.6293 43.3136L21.6158 42.3029L23.4861 41.0614L23.8522 41.6105L24.0034 41.3081L23.8522 41.6105L24.5684 42.6929L23.6293 43.3136ZM54.8741 42.9953L54.4364 42.7008L55.5267 41.0694L55.9644 41.3638L54.8741 42.9953ZM18.1858 36.2147L18.1062 36.1511L19.3477 34.639L19.4273 34.7026L18.1858 36.2147Z" fill="#AAAAAA"/>
<path d="M18.2977 16.1603C18.2977 16.2717 18.2897 16.5344 18.2977 16.797C18.5603 24.2302 19.8893 31.4325 22.5236 38.3245C25.8661 47.0788 31.0869 54.1698 38.7827 59.0005C39.3557 59.3587 39.7297 59.3189 40.2709 58.9767C45.9214 55.4192 50.3383 50.5646 53.641 44.5241C57.0632 38.2768 59.0209 31.4803 60.0555 24.3655C60.4534 21.5959 60.6046 18.7866 60.8593 16.0011C60.3898 15.8659 60.1271 15.7624 59.8566 15.7146C52.8691 14.4811 46.3432 11.8787 40.1993 8.1223C39.6581 7.78805 39.3079 7.88355 38.7827 8.14618C35.3128 9.8652 31.8827 11.7354 28.3014 13.152C25.1101 14.4095 21.7437 15.1496 18.2977 16.1603Z" fill="#AAAAAA"/>
<path d="M64.3206 37.2083L55.4231 42.1744L52.7571 40.3996L53.3539 39.6038L51.1574 37.6062L55.1446 39.6038L61.3919 34.4626C62.53 35.2187 63.5805 36.1339 64.3206 37.2083Z" fill="#AAAAAA"/>
<path d="M60.1753 33.7242L54.9466 38.4117L50.8241 36.9792L55.1455 31.6311C55.1455 31.6311 57.6524 32.3076 60.1753 33.7242Z" fill="#AAAAAA"/>
<path d="M53.4325 29.4978C53.4882 29.9435 53.345 30.23 53.345 30.23L44.9727 40.0029L43.7789 37.4085L41.1845 38.8012V37.8064L39.5928 38.6022H39.3939L37.8022 37.8064V38.8012L35.1998 37.4085L34.006 40.0029L25.6337 30.23C25.6337 30.23 25.4905 29.9435 25.5462 29.4978C27.6711 32.8483 31.0534 35.2915 31.0534 35.2915C30.7271 34.0182 30.6077 32.7448 30.6316 31.5192L32.2074 32.6414C34.9133 36.8434 39.4973 38.0929 39.4973 38.0929C39.4973 38.0929 44.0734 36.8355 46.7872 32.6414L48.363 31.5192C48.3869 32.7448 48.2675 34.0182 47.9412 35.2915C47.9332 35.2915 51.3076 32.8483 53.4325 29.4978Z" fill="#AAAAAA"/>
<path d="M50.9983 23.592L53.1789 25.7727C53.0993 26.0432 52.9959 26.3854 52.8606 26.7754C52.7253 27.1654 52.5502 27.5951 52.3353 28.0249C51.8658 28.9719 51.1893 29.9349 50.2264 30.492C50.2264 30.492 50.2025 30.3806 50.1547 30.1816C50.0274 29.6404 49.717 28.4467 49.2236 26.9982C49.1361 26.7277 49.0326 26.4571 48.9291 26.1706C49.526 25.7488 50.3935 25.1678 50.9983 23.592Z" fill="#AAAAAA"/>
<path d="M52.7807 43.6486L40.1904 50.6839V48.177L46.5731 44.7867L40.1904 46.7843V43.2746L46.772 42.0013L50.3613 37.5525V42.7971L52.7807 43.6486Z" fill="#AAAAAA"/>
<path d="M39.4909 20.7127L51.3808 13.0408C51.3808 16.6857 48.6988 18.2217 48.6988 18.2217C44.0988 19.3757 39.4909 23.7846 39.4909 23.7846C39.4909 23.7846 34.8909 19.3757 30.283 18.2217C30.283 18.2217 27.601 16.6857 27.601 13.0408L39.4909 20.7127Z" fill="#AAAAAA"/>
<path d="M50.4252 22.6376C50.4252 22.9719 49.8761 25.1843 48.9211 26.1553C48.181 24.1657 47.1384 21.8896 45.7616 20.2581C46.5654 19.8124 47.3612 19.4384 48.0855 19.1917C48.6346 19.9159 50.4252 22.3114 50.4252 22.6376Z" fill="#AAAAAA"/>
<path d="M48.0849 28.8686C47.8541 29.4416 47.4084 30.4603 46.724 31.5585C46.2385 32.3384 45.6257 33.1582 44.8936 33.8744C46.2067 31.5744 47.2731 27.5395 47.2731 27.5395L46.3659 23.5603C47.0264 24.9849 47.7108 26.8153 48.0849 28.8686Z" fill="#AAAAAA"/>
<path d="M46.3102 15.2439L39.4898 19.3743V15.5384C39.4898 16.6923 38.5348 17.0743 38.5348 17.0743L38.0096 18.475L32.6774 15.2439C33.0276 14.1775 34.5875 10.5564 39.4978 10.5564C44.4081 10.5564 45.9521 14.1695 46.3102 15.2439Z" fill="#AAAAAA"/>
<path d="M44.5034 24.635C44.4636 24.643 42.2989 24.9533 41.3757 25.8845C41.3757 25.8845 42.3148 26.8236 43.2539 26.1949C44.1771 25.5821 44.4875 24.6668 44.5034 24.635ZM34.4837 24.635C34.4917 24.6668 34.81 25.5821 35.7332 26.2028C36.6723 26.8315 37.6114 25.8924 37.6114 25.8924C36.6803 24.9533 34.5235 24.643 34.4837 24.635ZM44.957 23.7834C44.957 23.7834 46.3816 25.2558 46.0712 26.2028C46.0712 26.2028 40.747 28.3914 39.4975 28.3914C38.2481 28.3914 32.9239 26.2028 32.9239 26.2028C32.6135 25.2637 34.0381 23.7914 34.0381 23.7834C36.155 24.5236 39.3702 25.8845 39.4975 27.4284C39.6169 25.8924 42.8401 24.5236 44.957 23.7834Z" fill="#AAAAAA"/>
<path d="M36.4175 23.401C36.3618 23.3692 34.4995 22.2391 34.3085 21.483C34.2289 21.1647 34.1812 20.9418 34.1573 20.7986C36.895 22.446 39.4895 24.555 39.4895 24.555C39.4895 24.555 42.0839 22.446 44.8216 20.7986C44.7977 20.9498 44.75 21.1647 44.6704 21.483C44.4794 22.2391 42.6171 23.3692 42.5614 23.401L45.5617 21.9844C45.6811 22.1993 45.8085 22.4301 45.9358 22.6927C41.5189 23.6875 39.4815 26.0909 39.4815 26.0909C39.4815 26.0909 37.4521 23.6955 33.0272 22.6927C33.1625 22.438 33.2819 22.1993 33.4013 21.9844L36.4175 23.401Z" fill="#AAAAAA"/>
<path d="M46.3185 26.4985C46.0797 27.6048 45.1247 31.576 43.2465 33.7168C41.0579 36.2237 40.4292 36.2237 40.4292 36.2237H41.6787C41.6787 36.2237 40.4292 37.4732 39.4901 37.4732C38.551 37.4732 37.3016 36.2237 37.3016 36.2237H38.551C38.551 36.2237 37.9223 36.2237 35.7338 33.7168C33.8635 31.576 32.9006 27.6048 32.6618 26.4985C34.4286 27.6923 39.4901 29.0214 39.4901 29.0214C39.4901 29.0214 44.5517 27.6843 46.3185 26.4985Z" fill="#AAAAAA"/>
<path d="M44.5056 24.6343C44.4976 24.6661 44.1793 25.5813 43.2561 26.2021C42.317 26.8308 41.3779 25.8917 41.3779 25.8917C42.3011 24.9526 44.4578 24.6422 44.5056 24.6343Z" fill="#AAAAAA"/>
<path d="M38.7893 48.177V50.6839L26.1991 43.6486L28.6185 42.7971V37.5525L32.2077 42.0013L38.7893 43.2746V46.7843L32.4146 44.7867L38.7893 48.177Z" fill="#AAAAAA"/>
<path d="M37.6132 25.8841C37.6132 25.8841 36.6741 26.8232 35.735 26.1945C34.8118 25.5738 34.4935 24.6585 34.4855 24.6267C34.5253 24.6426 36.6821 24.953 37.6132 25.8841Z" fill="#AAAAAA"/>
<path d="M34.0935 33.8744C33.3614 33.1582 32.7486 32.3384 32.2631 31.5585C31.5787 30.4682 31.133 29.4416 30.9022 28.8686C31.2683 26.8153 31.9607 24.9849 32.6212 23.5603L31.714 27.5395C31.714 27.5395 32.7804 31.5665 34.0935 33.8744Z" fill="#AAAAAA"/>
<path d="M30.8948 19.1917C31.619 19.4384 32.4148 19.8124 33.2186 20.2581C31.8418 21.8896 30.7913 24.1577 30.0591 26.1553C29.1041 25.1764 28.555 22.9719 28.555 22.6376C28.555 22.3114 30.3536 19.9159 30.8948 19.1917Z" fill="#AAAAAA"/>
<path d="M30.0435 26.1859C29.94 26.4644 29.8445 26.7429 29.749 27.0056C29.2556 28.446 28.9452 29.6478 28.8179 30.1889C28.7702 30.3879 28.7463 30.4993 28.7463 30.4993C27.7833 29.9343 27.1068 28.9793 26.6373 28.0322C26.4224 27.6025 26.2473 27.1727 26.112 26.7827C25.9767 26.3928 25.8733 26.0506 25.7937 25.78L27.9743 23.5994C28.5951 25.1672 29.4546 25.7481 30.0435 26.1859Z" fill="#AAAAAA"/>
<path d="M23.8382 31.6311L28.1596 36.9792L24.0372 38.4117L18.8085 33.7242C21.3393 32.3076 23.8382 31.6311 23.8382 31.6311Z" fill="#AAAAAA"/>
<path d="M27.8224 37.6062L25.6259 39.6038L26.2228 40.3996L23.5567 42.1744L14.6592 37.2083C15.3914 36.1339 16.4498 35.2187 17.5879 34.4626L23.8352 39.6038L27.8224 37.6062Z" fill="#AAAAAA"/>
<path d="M22.0932 28.2879L23.3427 29.8796C21.9738 30.1661 20.7005 30.6675 19.5544 31.2882L19.5783 31.2723L18.3527 29.9353C18.3527 29.9353 18.5517 26.744 21.743 27.9377L22.0932 28.2879Z" fill="#AAAAAA"/>
<path d="M18.9827 35.322L17.9083 36.1497L23.7498 41.068L26.1771 39.8504L28.1747 37.4628L26.9571 37.7095L23.9408 39.1659L22.19 37.4628L18.9827 35.322Z" fill="#AAAAAA"/>
<path d="M18.1537 25.9412C18.2014 25.9333 20.3502 25.3523 20.9471 25.9412C21.544 26.5381 21.146 26.936 21.146 26.936C21.146 26.936 18.9495 26.5381 18.3526 28.3287C18.0343 29.2837 17.9388 29.618 17.9229 29.7215C17.716 29.6817 16.4028 29.3872 16.952 27.7319L8.03851 18.8184C8.34889 18.0942 9.05719 17.1869 10.6966 16.8845L19.0689 25.0658C18.7665 25.2568 18.4561 25.5433 18.1537 25.9412Z" fill="#AAAAAA"/>
<path d="M10.1721 15.7687C10.6496 15.8642 10.4665 16.4213 10.4665 16.4213C9.86169 16.5566 8.46897 17.0102 7.53783 18.4905C7.25928 18.387 6.84545 18.1642 6.98074 17.7663C7.18766 17.1694 9.17726 15.5698 10.1721 15.7687Z" fill="#AAAAAA"/>
<path d="M24.6711 32.4104L23.358 32.8959L26.8597 36.6363L25.1088 38.1962L28.5628 37.1775L24.6711 32.4104Z" fill="#AAAAAA"/>
<path d="M60.0378 35.322L61.1122 36.1497L55.2707 41.068L52.8354 39.8504L50.8458 37.4628L52.0635 37.7095L55.0797 39.1659L56.8306 37.4628L60.0378 35.322Z" fill="#AAAAAA"/>
<path d="M54.3469 32.4104L55.66 32.8959L52.1583 36.6363L53.9092 38.1962L50.4552 37.1775L54.3469 32.4104Z" fill="#AAAAAA"/>
<path d="M61.3493 34.353L62.9569 36.3506L61.5483 37.5682L61.8348 38.0537L59.4552 40.1468L64.6123 37.417V36.6371L61.3493 34.353Z" fill="#AAAAAA"/>
<path d="M55.0342 31.4312L58.5836 33.6754L57.5092 34.7419L57.756 35.0363L56.5861 37.2726L60.82 33.6197L58.8224 32.7443L55.0342 31.4312Z" fill="#AAAAAA"/>
<path d="M45.8803 41.0685L50.0584 37.6464L50.3131 37.0256L50.3688 37.3917L50.4563 37.3201L50.3768 37.4633L51.1885 42.7239L53.2736 43.4958L52.3505 44.1325L50.4563 42.7239L49.5332 38.9357L47.4879 42.5249L42.2353 43.6948V45.1989L46.3578 44.8647L42.2353 47.8332V48.6051L47.9256 46.5678L39.5056 51.5259V42.1827L45.8803 41.0685Z" fill="#AAAAAA"/>
<path d="M39.5058 29.0031L34.3487 27.9765L34.8819 29.9741L36.9273 31.7727H35.3674C35.3674 31.7727 37.8027 35.7598 39.3546 35.7598H39.4978V37.7097L37.938 37.0252L36.1871 35.2744L34.1896 31.9637L32.4865 27.0533L32.6297 26.3689L34.3328 27.0533L39.5058 29.0031Z" fill="#AAAAAA"/>
<path d="M39.3615 29.003L44.5185 27.9843L43.9853 29.9819L41.94 31.7805H43.4998C43.4998 31.7805 41.0646 35.7677 39.5127 35.7677H39.3615V37.7175L40.9213 37.033L42.6722 35.2822L44.6697 31.9715L46.3728 27.0611L46.2296 26.3767L44.5265 27.0611L39.3615 29.003Z" fill="#AAAAAA"/>
<path d="M49.193 40.9182L47.8321 43.067L43.9404 43.9424V44.5154L47.9754 43.6877C47.9754 43.6957 49.193 42.8999 49.193 40.9182Z" fill="#AAAAAA"/>
<path d="M50.3145 44.4278L46.5661 46.4651L45.1574 46.9506L46.9083 45.3987L49.7255 44.1333L50.3145 44.4278Z" fill="#AAAAAA"/>
<path d="M29.049 34.7422L33.2351 37.9574L33.4738 37.464L32.6462 35.3232L37.9544 38.8806L35.5191 38.3951L34.1105 40.6314L29.049 34.7422Z" fill="#AAAAAA"/>
<path d="M49.7728 34.7422L45.5947 37.9574L45.3479 37.464L46.1756 35.3232L40.8753 38.8806L43.3026 38.3951L44.7192 40.6314L49.7728 34.7422Z" fill="#AAAAAA"/>
<path d="M17.6687 34.353L16.0611 36.3506L17.4697 37.5682L17.1752 38.0537L19.5628 40.1468L14.4057 37.417V36.6371L17.6687 34.353Z" fill="#AAAAAA"/>
<path d="M32.3609 19.5647L30.3634 22.8197V24.284L29.7108 25.7643L29.1935 25.255L28.1748 27.8813L28.4215 30.5075L28.907 30.802L30.8966 24.6263L32.7509 21.3633L33.6741 20.2412L32.3609 19.5647Z" fill="#AAAAAA"/>
<path d="M23.9866 31.4312L20.4372 33.6754L21.5116 34.7419L21.2649 35.0363L22.4347 37.2726L18.2009 33.6197L20.1905 32.7443L23.9866 31.4312Z" fill="#AAAAAA"/>
<path d="M31.4826 19.1747L29.0951 22.6764L29.4851 25.5494L28.4187 23.7985L26.3733 25.8836L27.1055 29.1943L25.299 25.7881L27.782 23.1141L28.7052 21.602L30.6072 18.6892L31.4826 19.1747Z" fill="#AAAAAA"/>
<path d="M46.7553 19.5647L48.7528 22.8197V24.284L49.4054 25.7643L49.9227 25.255L50.9414 27.8813L50.6947 30.5075L50.2092 30.802L48.2196 24.6263L46.3653 21.3633L45.4421 20.2412L46.7553 19.5647Z" fill="#AAAAAA"/>
<path d="M47.5837 19.1747L49.9712 22.6764L49.5812 25.5494L50.6477 23.7985L52.693 25.8836L51.9608 29.1943L53.7674 25.7881L51.2843 23.1141L50.3612 21.602L48.4591 18.6892L47.5837 19.1747Z" fill="#AAAAAA"/>
<path d="M33.1386 41.0685L28.9605 37.6464L28.7058 37.0256L28.6501 37.3917L28.5625 37.3201L28.6421 37.4633L27.8304 42.7239L25.7373 43.4958L26.6684 44.1325L28.5625 42.7239L29.4857 38.9357L31.531 42.5249L36.7836 43.6948V45.1989L32.6611 44.8647L36.7836 47.8332V48.6051L31.0933 46.5678L39.5054 51.5259V42.1827L33.1386 41.0685Z" fill="#AAAAAA"/>
<path d="M39.5032 20.0989L28.3615 13.2388L30.0168 16.7405C30.0168 16.7405 34.6884 18.3958 35.7071 19.5657L39.5032 22.6775L43.2994 19.5657C44.3181 18.3958 48.9897 16.7405 48.9897 16.7405L50.645 13.2388L39.5032 20.0989Z" fill="#AAAAAA"/>
<path d="M9.09007 17.5295L17.1281 25.6949L18.1945 25.1617L17.6135 26.3793C17.6135 26.3793 18.7834 25.9893 19.3644 26.1326C19.9454 26.2759 20.3353 27.0558 20.3353 27.0558L18.9744 27.6845L18.0035 30.0163L16.7381 29.7218L16.6426 28.0187L7.79285 18.6915L8.37381 17.9593L9.09007 17.5295Z" fill="#AAAAAA"/>
<path d="M8.22699 16.2073C8.22699 16.2073 8.61695 17.1782 8.91141 17.3294L7.68582 18.7381L6.95364 18.4913L6.65918 18.0536L7.39135 16.7405L8.22699 16.2073Z" fill="#AAAAAA"/>
<path d="M33.2365 15.6744C33.2365 15.6744 33.7219 13.3187 34.5496 12.8571C34.5496 12.8571 33.6742 15.7778 36.006 17.4252C38.3378 19.0647 39.5077 19.8366 39.5077 19.8366L43.5426 17.1149C43.5426 17.1149 43.8371 16.2394 43.2004 15.2685C43.2004 15.2685 43.9326 15.2208 43.8848 14.3453C43.8371 13.4699 42.5717 12.0851 41.8395 11.7827C41.8395 11.7827 44.418 11.8862 46.1211 15.6823L39.5077 20.2982L33.2365 15.6744Z" fill="#AAAAAA"/>
<path d="M35.5108 21.1496C35.5108 21.1496 35.4789 21.9296 35.9326 22.3593C36.3862 22.7811 37.5959 23.959 37.5959 23.959L35.5028 23.2109L35.3834 23.561L32.6696 23.1393L32.7651 22.224L33.9748 20.2981L35.5108 21.1496Z" fill="#AAAAAA"/>
<path d="M43.4466 21.1496C43.4466 21.1496 43.4784 21.9296 43.0248 22.3593C42.5711 22.7891 41.3615 23.959 41.3615 23.959L43.4545 23.2109L43.5819 23.569L46.2957 23.1472L46.2002 22.232L44.9825 20.2981L43.4466 21.1496Z" fill="#AAAAAA"/>
<path d="M19.3399 27.5876L21.8946 31.0416L19.706 31.726L18.0029 30.0229L18.6874 28.0254L19.3399 27.5876Z" fill="#AAAAAA"/>
<path d="M54.848 29.7289C54.848 29.7289 54.6809 28.949 54.1954 28.1372C54.4581 27.5961 54.6809 27.039 54.8401 26.466C54.8401 26.466 54.076 24.93 53.4951 24.93C53.4951 24.93 53.4871 24.9777 53.4633 25.0653L51.3384 22.7892C51.3543 22.7414 51.3702 22.6857 51.3861 22.638L48.7917 18.9293C53.3837 16.9079 52.1581 11.711 52.1581 11.711L47.2318 14.6954C44.8602 9.78509 39.4962 9.60205 39.4962 9.60205C39.4962 9.60205 34.1402 9.79305 31.7606 14.6954L26.8264 11.7031C26.8264 11.7031 25.6008 16.8999 30.1928 18.9214L27.5984 22.63C27.6143 22.6857 27.6302 22.7335 27.6461 22.7812L25.5212 25.0573C25.4973 24.9698 25.4894 24.922 25.4894 24.922C24.9164 24.922 24.1444 26.458 24.1444 26.458C24.3036 27.031 24.5264 27.5881 24.789 28.1293C24.5025 28.6068 24.3275 29.0763 24.232 29.3787L22.688 27.6597C22.7358 27.0867 22.7437 26.4262 22.5368 26.1317C22.2662 25.7258 21.2476 24.5718 19.9981 24.7071L11.594 16.7487C11.594 16.7487 11.5701 15.1729 10.1774 15.1729C8.78466 15.1729 6.19021 16.9716 6.38917 17.9664C6.58813 18.9612 6.89055 19.3113 7.53519 19.5342L7.54314 19.5182L16.4168 28.3919C16.1382 28.8455 15.9313 29.4902 16.3611 30.1348C16.3611 30.1348 16.759 30.9306 18.3586 30.5327L19.1465 31.5116C15.0639 33.8514 12.5808 37.5122 12.5808 37.5122L39.5042 55.2595L66.4275 37.5122C66.4116 37.5122 61.8276 30.7317 54.848 29.7289ZM55.1425 31.631C55.1425 31.631 57.6414 32.3154 60.1722 33.724L54.9435 38.4116L50.8211 36.979L55.1425 31.631ZM53.1767 25.7736C53.0972 26.0442 52.9937 26.3864 52.8584 26.7763C52.7231 27.1663 52.548 27.5961 52.3332 28.0258C51.8636 28.9729 51.1871 29.9358 50.2242 30.4929C50.2242 30.4929 50.2003 30.3815 50.1525 30.1825C50.0252 29.6414 49.7148 28.4476 49.2214 26.9992C49.1339 26.7286 49.0304 26.458 48.927 26.1715C49.5159 25.7338 50.3833 25.1608 50.9882 23.577L53.1767 25.7736ZM50.4231 22.638C50.4231 22.9722 49.882 25.1846 48.919 26.1556C48.1789 24.166 47.1363 21.8899 45.7595 20.2584C46.5633 19.8127 47.3591 19.4387 48.0834 19.192C48.6325 19.9162 50.4231 22.3117 50.4231 22.638ZM41.6848 36.223C41.6848 36.223 40.4353 37.4725 39.4962 37.4725C38.5571 37.4725 37.3077 36.223 37.3077 36.223H38.5571C38.5571 36.223 37.9284 36.223 35.7398 33.7161C33.8696 31.5753 32.9066 27.604 32.6679 26.4978C34.4347 27.6916 39.4962 29.0206 39.4962 29.0206C39.4962 29.0206 44.5578 27.6916 46.3245 26.4978C46.0858 27.604 45.1308 31.5753 43.2526 33.7161C41.064 36.223 40.4353 36.223 40.4353 36.223H41.6848ZM34.3073 21.484C34.2277 21.1656 34.18 20.9428 34.1561 20.7996C36.8938 22.439 39.4883 24.5559 39.4883 24.5559C39.4883 24.5559 42.0827 22.447 44.8204 20.7996C44.7965 20.9508 44.7488 21.1656 44.6692 21.484C44.4782 22.248 42.5602 23.402 42.5602 23.402L45.5685 21.9854C45.6879 22.2002 45.8152 22.431 45.9425 22.6937C41.5256 23.6885 39.4883 26.0919 39.4883 26.0919C39.4883 26.0919 37.4589 23.6964 33.034 22.6937C33.1613 22.439 33.2886 22.2002 33.408 21.9854L36.4163 23.402C36.4163 23.402 34.4983 22.248 34.3073 21.484ZM46.0619 26.2033C46.0619 26.2033 40.7377 28.3919 39.4883 28.3919C38.2388 28.3919 32.9146 26.2033 32.9146 26.2033C32.6042 25.2642 34.0288 23.7919 34.0288 23.7919C36.1457 24.5321 39.3609 25.8929 39.4883 27.4369C39.6156 25.8929 42.8388 24.5321 44.9477 23.7919C44.9557 23.784 46.3803 25.2642 46.0619 26.2033ZM31.7129 27.5403C31.7129 27.5403 32.7793 31.5753 34.0924 33.8752C33.3603 33.159 32.7475 32.3393 32.262 31.5593C31.5776 30.469 31.1319 29.4424 30.9011 28.8694C31.2672 26.8161 31.9596 24.9857 32.6201 23.5611L31.7129 27.5403ZM47.2636 27.5403L46.3643 23.5611C47.0249 24.9857 47.7093 26.8161 48.0834 28.8694C47.8526 29.4424 47.4069 30.4611 46.7225 31.5593C46.237 32.3393 45.6242 33.159 44.892 33.8752C46.1972 31.5673 47.2636 27.5403 47.2636 27.5403ZM39.4883 10.5491C44.3906 10.5491 45.9505 14.1702 46.3086 15.2366L39.4883 19.367V15.5311C39.4883 16.685 38.5253 17.0671 38.5253 17.0671L38 18.4677L32.6679 15.2366C33.026 14.1702 34.5859 10.5491 39.4883 10.5491ZM27.5984 13.0401L39.4883 20.712L51.3781 13.0401C51.3781 16.6851 48.6962 18.221 48.6962 18.221C44.0962 19.375 39.4883 23.784 39.4883 23.784C39.4883 23.784 34.8883 19.375 30.2804 18.221C30.2804 18.221 27.5984 16.6851 27.5984 13.0401ZM30.8932 19.192C31.6174 19.4387 32.4132 19.8127 33.217 20.2584C31.8402 21.8899 30.7897 24.158 30.0575 26.1556C29.1025 25.1767 28.5534 22.9722 28.5534 22.638C28.5534 22.3117 30.352 19.9162 30.8932 19.192ZM27.9804 23.593C28.5932 25.1767 29.4527 25.7497 30.0416 26.1874C29.9382 26.466 29.8426 26.7445 29.7471 27.0151C29.2537 28.4556 28.9433 29.6573 28.816 30.1985C28.7683 30.3974 28.7444 30.5088 28.7444 30.5088C27.7814 29.9438 27.1049 28.9888 26.6354 28.0417C26.4205 27.612 26.2454 27.1822 26.1101 26.7922C25.9749 26.4023 25.8714 26.0601 25.7918 25.7895L27.9804 23.593ZM6.98605 17.7674C7.18502 17.1705 9.18258 15.5709 10.1774 15.7698C10.6549 15.8653 10.4718 16.4224 10.4718 16.4224C9.867 16.5577 8.47428 17.0113 7.54314 18.4916C7.25664 18.3961 6.85076 18.1733 6.98605 17.7674ZM17.9209 29.7289C17.714 29.6891 16.4009 29.3947 16.95 27.7393L8.03657 18.8259C8.34695 18.1016 9.05525 17.1944 10.6947 16.892L19.0669 25.0653C18.7645 25.2642 18.4621 25.5428 18.1517 25.9407C18.1517 25.9407 20.3482 25.3438 20.9451 25.9407C21.542 26.5376 21.1441 26.9355 21.1441 26.9355C21.1441 26.9355 18.9476 26.5376 18.3507 28.3282C18.0323 29.2912 17.9368 29.6254 17.9209 29.7289ZM18.3507 29.9358C18.3507 29.9358 18.5496 26.7445 21.741 27.9383L22.0911 28.2884L23.3406 29.8801C21.9718 30.1666 20.6984 30.668 19.5444 31.2888L19.5683 31.2728L18.3507 29.9358ZM23.834 31.631L28.1555 36.979L24.033 38.4116L18.8043 33.724C21.3351 32.3074 23.834 31.631 23.834 31.631ZM14.658 37.2098C15.3902 36.1354 16.4486 35.2202 17.5867 34.4642L23.834 39.6053L27.8212 37.6077L25.6247 39.6053L26.2216 40.4012L23.5555 42.1759L14.658 37.2098ZM38.7879 46.7838L32.4053 44.7863L38.7879 48.1765V50.6755L26.1897 43.6482L28.6171 42.7887V37.5441L32.2063 41.9849L38.7879 43.2662V46.7838ZM39.3928 38.6105L37.8011 37.8147V38.8095L35.1987 37.4088L34.0049 40.0032L25.6326 30.2303C25.6326 30.2303 25.4894 29.9438 25.5451 29.4981C27.67 32.8486 31.0523 35.2918 31.0523 35.2918C30.726 34.0185 30.6067 32.7452 30.6305 31.5196L32.2063 32.6417C34.9122 36.8437 39.4962 38.0932 39.4962 38.0932C39.4962 38.0932 44.0723 36.8358 46.7861 32.6417L48.3539 31.5196C48.3778 32.7452 48.2584 34.0185 47.9321 35.2918C47.9321 35.2918 51.3065 32.8486 53.4394 29.4981C53.4951 29.9438 53.3518 30.2303 53.3518 30.2303L44.9716 40.0032L43.7779 37.4088L41.1834 38.8015V37.8067L39.5917 38.6026H39.3928V38.6105ZM40.1886 50.6834V48.1845L46.5713 44.7942L40.1886 46.7918V43.2821L46.7702 42.0008L50.3595 37.56V42.8046L52.7868 43.6641L40.1886 50.6834ZM52.755 40.4012L53.3518 39.6053L51.1553 37.6077L55.1425 39.6053L61.3898 34.4642C62.5279 35.2202 63.5864 36.1354 64.3185 37.2098L55.421 42.1759L52.755 40.4012Z" fill="#AAAAAA"/>
<path d="M29.8284 40.9182L31.1893 43.067L35.081 43.9424V44.5154L31.0461 43.6957C31.0461 43.6957 29.8284 42.8999 29.8284 40.9182Z" fill="#AAAAAA"/>
<path d="M28.7061 44.4278L32.4545 46.4651L33.8631 46.9506L32.1123 45.3987L29.295 44.1333L28.7061 44.4278Z" fill="#AAAAAA"/>
<path d="M29.0428 14.6541L30.0297 16.7392L32.6719 17.7897C32.6639 17.7897 29.1702 18.3547 29.0428 14.6541Z" fill="#AAAAAA"/>
<path d="M49.9801 14.6541L48.9932 16.7392L46.351 17.7897C46.359 17.7897 49.8527 18.3547 49.9801 14.6541Z" fill="#AAAAAA"/>
<path d="M70.3186 54.5826C70.3186 54.5826 55.2772 48.4865 39.3444 48.4785C39.3365 48.4785 39.3285 48.4785 39.3206 48.4785C39.3126 48.4785 39.3046 48.4785 39.2967 48.4785C23.3639 48.4865 10.9567 53.7311 10.9567 53.7311L9.99376 57.8933L5.78375 59.5566L8.91937 63.9974L7.82907 69.8548C22.6158 63.9974 38.3576 64.2521 39.3046 64.268C39.3046 64.268 39.3126 64.268 39.3285 64.268C39.3444 64.268 39.3524 64.268 39.3524 64.268C40.2994 64.2442 59.5588 65.3026 74.3456 71.16L70.3186 54.5826Z" fill="#AAAAAA"/>
<path d="M13.1349 54.9175C12.8404 56.3341 12.546 57.7427 12.2515 59.1593C11.209 59.5015 10.1744 59.8597 9.13977 60.2337C9.68094 61.0296 10.2301 61.8174 10.7872 62.6053C11.1055 62.5019 11.2647 62.4462 11.583 62.3427C11.2885 63.7593 10.9941 65.1679 10.6996 66.5845C11.5193 66.3219 12.347 66.0593 13.1747 65.8126C13.4453 64.4039 13.7159 63.0033 13.9785 61.5946C14.7743 61.3559 15.5781 61.133 16.3819 60.9181C16.1352 62.3188 15.8965 63.7116 15.6498 65.1122C16.4774 64.8894 17.3051 64.6825 18.1408 64.4835C18.7376 60.6555 19.3425 56.8275 19.9394 52.9995C17.6632 53.5486 15.3871 54.1933 13.1349 54.9175ZM16.947 57.7666C16.1591 57.9815 15.3792 58.1964 14.5993 58.4272C14.6629 58.077 14.7345 57.7268 14.7982 57.3766C15.5702 57.1459 16.3501 56.931 17.13 56.7161C17.0664 57.0663 17.0107 57.4164 16.947 57.7666Z" fill="#AAAAAA"/>
<path d="M27.3015 54.6237C27.405 53.5891 27.5005 52.5624 27.6039 51.5278C25.296 51.87 22.996 52.2918 20.7199 52.8091C20.3538 55.2444 19.9877 57.6717 19.6216 60.107C21.2292 59.7409 22.8448 59.4146 24.4762 59.1361C24.4365 59.4783 24.3967 59.8285 24.3569 60.1707C22.7174 60.4572 21.086 60.7835 19.4704 61.1496C19.3112 62.1921 19.1521 63.2347 19.0009 64.2772C21.4918 63.7122 23.9908 63.2426 26.5136 62.8765C26.7444 60.4651 26.9832 58.0617 27.2139 55.6503C25.6223 55.8811 24.0465 56.1596 22.4628 56.47C22.5105 56.1278 22.5583 55.7776 22.5981 55.4354C24.1579 55.133 25.7257 54.8624 27.3015 54.6237Z" fill="#AAAAAA"/>
<path d="M36.0603 50.7473C36.0205 52.1162 35.9807 53.485 35.9409 54.8459C35.6783 54.8539 35.4077 54.8698 35.1451 54.8857C34.8904 54.9016 34.6357 54.9175 34.3811 54.9334C34.3254 54.9334 34.2696 54.9414 34.206 54.9414C34.0946 54.9494 33.9911 54.9573 33.8797 54.9653C33.5056 54.9892 33.1316 55.013 32.7575 55.0449C31.9617 55.1085 31.1659 55.1802 30.37 55.2597C30.3939 54.9175 30.4178 54.5753 30.4416 54.2331C32.0174 54.066 33.5932 53.9466 35.1769 53.8591C35.2087 52.8324 35.2485 51.8058 35.2804 50.7791C32.9645 50.9065 30.6565 51.1134 28.3565 51.4238C28.1417 53.8272 27.9188 56.2307 27.7039 58.6421C29.3275 58.4272 30.951 58.2521 32.5825 58.1248C32.5665 58.467 32.5427 58.8092 32.5267 59.1514C30.8794 59.2867 29.2399 59.4618 27.6084 59.6767C27.5129 60.7113 27.4254 61.7379 27.3299 62.7725C29.8368 62.4382 32.3596 62.2074 34.8904 62.0722C34.9381 60.7033 34.9859 59.3345 35.0337 57.9736C35.3599 57.9576 35.5191 57.9497 35.8454 57.9338C35.8056 59.3026 35.7658 60.6715 35.726 62.0324C36.5696 62.0005 37.4053 61.9767 38.2489 61.9607C38.2648 60.5919 38.2727 59.231 38.2886 57.8621C39.1004 57.8542 39.9201 57.8542 40.7319 57.8621C40.7478 59.231 40.7558 60.5919 40.7717 61.9607C41.6153 61.9767 42.4509 62.0005 43.2945 62.0324C43.191 58.276 43.0796 54.5116 42.9762 50.7553C40.6762 50.6598 38.3682 50.6598 36.0603 50.7473ZM38.3284 54.7822C38.3284 54.44 38.3364 54.0978 38.3364 53.7556C39.1243 53.7476 39.9122 53.7476 40.708 53.7556C40.708 54.0978 40.716 54.44 40.716 54.7822C39.9201 54.7743 39.1243 54.7743 38.3284 54.7822Z" fill="#AAAAAA"/>
<path d="M46.2929 55.036C46.277 54.6938 46.2531 54.3516 46.2372 54.0093C47.8209 54.1367 49.3888 54.3038 50.9645 54.5107C50.869 53.4761 50.7815 52.4495 50.686 51.4149C48.386 51.1125 46.078 50.8976 43.7621 50.7703C43.8417 53.1657 43.9293 55.5533 44.0089 57.9488C45.6403 58.0363 47.2718 58.1636 48.8953 58.3308C48.9192 58.673 48.9431 59.0152 48.967 59.3574C47.3275 59.1903 45.6881 59.055 44.0407 58.9674C44.0725 59.9941 44.1123 61.0207 44.1441 62.0473C46.6749 62.1826 49.1898 62.4134 51.7047 62.7477C51.4898 60.3442 51.2669 57.9408 51.0521 55.5294C49.4763 55.3384 47.8846 55.1713 46.2929 55.036Z" fill="#AAAAAA"/>
<path d="M54.2271 56.0323C54.1873 55.6901 54.1476 55.3399 54.1078 54.9977C55.6835 55.2762 57.2513 55.5866 58.8032 55.9368C58.6441 54.8942 58.4849 53.8517 58.3337 52.8091C56.0576 52.2918 53.7655 51.8621 51.4496 51.5278C51.6804 53.9392 51.9192 56.3427 52.15 58.7541C53.7815 58.9928 55.397 59.2714 57.0126 59.5897C57.0603 59.9319 57.1081 60.2821 57.1479 60.6243C55.5244 60.298 53.8849 60.0195 52.2455 59.7807C52.3489 60.8153 52.4444 61.8419 52.5479 62.8765C55.0707 63.2426 57.5776 63.7122 60.0607 64.2772C59.6946 61.8419 59.3285 59.4146 58.9624 56.9794C57.3946 56.6292 55.8188 56.3108 54.2271 56.0323Z" fill="#AAAAAA"/>
<path d="M59.0955 52.9917C59.6924 56.8197 60.2972 60.6477 60.8941 64.4757C61.7298 64.6747 62.5574 64.8895 63.3851 65.1044C62.7166 61.2605 62.0481 57.4166 61.3716 53.5647C60.6156 53.3657 59.8595 53.1747 59.0955 52.9917Z" fill="#AAAAAA"/>
<path d="M71.5663 67.5156C70.4999 62.8838 69.9905 60.5918 68.9241 55.96C68.176 55.6894 67.4279 55.4268 66.6719 55.1721C66.9743 56.5887 67.2767 58.0053 67.5791 59.4219C65.6293 56.8513 64.5152 56.2545 62.1276 53.7078C62.9473 58.26 63.393 60.7828 64.2127 65.343C65.0404 65.5738 65.8681 65.8125 66.6958 66.0672C66.4172 64.6586 66.1387 63.2499 65.8601 61.8413C68.558 64.2845 69.4732 64.8416 71.5663 67.5156Z" fill="#AAAAAA"/>
<path d="M68.6667 61.8005L68.42 60.6545C68.1494 60.5749 67.8788 60.4954 67.6162 60.4158L68.6667 61.8005Z" fill="#AAAAAA"/>
<path d="M11.0145 61.9292C11.1339 61.8894 11.2533 61.8496 11.4125 61.8018L12.3516 61.4994L11.4682 65.7413C11.8741 65.6139 12.2799 65.4866 12.6858 65.3672L13.4976 61.1493L13.8318 61.0538C14.6356 60.815 15.4474 60.5922 16.2512 60.3693L17.1187 60.1385L16.3865 64.3406C16.8083 64.2292 17.2301 64.1257 17.6598 64.0222L18.583 58.1489C15.8214 58.7776 12.9484 59.5814 10.0914 60.6001C10.3858 61.0299 10.6962 61.4835 11.0145 61.9292Z" fill="#AAAAAA"/>
<path d="M20.3024 59.3745C21.6553 59.08 23.0162 58.8094 24.3692 58.5786L25.1252 58.4433L24.8705 60.6637L24.4487 60.7354C22.9605 60.998 21.4484 61.2924 19.9681 61.6267L19.6816 63.5447C21.7667 63.0911 23.8837 62.7011 25.9847 62.3828L26.5338 56.7004C24.6557 56.9551 22.6501 57.2894 20.565 57.7112L20.3024 59.3745Z" fill="#AAAAAA"/>
<path d="M39.4097 55.825C39.4097 55.825 39.4018 55.825 39.3859 55.825C39.3699 55.825 39.362 55.825 39.362 55.825C38.8845 55.817 34.5631 55.7454 28.4828 56.4537L28.3475 57.9897C29.7402 57.8146 31.1568 57.6714 32.5496 57.5599L33.2022 57.5042L33.0828 59.6848L32.5814 59.7246C31.1091 59.844 29.6129 60.0032 28.1406 60.1862L27.9655 62.1122C30.0825 61.8495 32.2153 61.6506 34.3402 61.5312L34.4835 57.4246L35.0087 57.4008C35.335 57.3849 35.4942 57.3769 35.8284 57.361L36.4412 57.3371L36.3219 61.4436C36.7755 61.4277 37.2371 61.4118 37.6907 61.4039L37.7305 57.2973L38.2876 57.2894C39.1073 57.2814 39.935 57.2814 40.7467 57.2894L41.3038 57.2973L41.3436 61.4039C41.7973 61.4118 42.2589 61.4277 42.7125 61.4436L42.5613 56.024C40.7627 55.8648 39.6246 55.817 39.4097 55.825Z" fill="#AAAAAA"/>
<path d="M44.5581 57.4168C46.0224 57.5044 47.4947 57.6237 48.9511 57.7749L49.4286 57.8227L49.5878 60.0113L48.9113 59.9396C47.4947 59.7884 46.0622 59.677 44.6377 59.5895L44.7013 61.5154C46.8183 61.6427 48.9591 61.8337 51.076 62.0964L50.6065 56.8916C48.3065 56.5732 46.2373 56.3424 44.5262 56.1753L44.5581 57.4168Z" fill="#AAAAAA"/>
<path d="M52.6681 58.2518C54.1483 58.4747 55.6445 58.7373 57.1168 59.0318L57.5147 59.1113L57.8092 61.3477L57.0293 61.1885C55.6525 60.9179 54.2597 60.6712 52.875 60.4563L53.058 62.3823C55.159 62.7006 57.268 63.0906 59.3611 63.5442L58.5573 58.2439C56.4722 57.83 54.4507 57.4878 52.5566 57.1934L52.6681 58.2518Z" fill="#AAAAAA"/>
<path d="M61.3984 64.0128C61.8202 64.1162 62.242 64.2197 62.6717 64.3311L61.7247 58.9114C61.3347 58.8239 60.9447 58.7363 60.5627 58.6567L61.3984 64.0128Z" fill="#AAAAAA"/>
<path d="M69.4781 60.982C69.128 60.8706 68.7698 60.7671 68.4197 60.6557L68.6664 61.8017L67.6159 60.4169C66.3186 60.0429 65.0214 59.7007 63.7242 59.3823C63.7242 59.3982 63.7321 59.4062 63.7321 59.4221C64.0266 61.0695 64.329 62.7726 64.711 64.8896C65.1249 65.0089 65.5387 65.1283 65.9446 65.2477L64.9657 60.2498L66.247 61.4117C66.8518 61.9609 67.3691 62.4145 67.8228 62.8204C68.8494 63.7276 69.6134 64.3961 70.4809 65.3432C70.1944 64.0778 69.9397 62.9636 69.685 61.8733C69.6134 61.5709 69.5498 61.2764 69.4781 60.982Z" fill="#AAAAAA"/>
</svg>
