<svg width="100" height="94" viewBox="0 0 100 94" fill="none" xmlns="http://www.w3.org/2000/svg">
<path d="M94.6676 85.3944L92.469 84.5897C82.9587 81.0837 71.9562 79.1226 64.4056 78.0958C57.0342 77.0875 51.513 76.7545 49.7721 76.6805L49.1553 76.662L47.9019 76.699V76.662C45.8924 76.6712 41.6048 76.7637 36.0836 77.3465C26.5434 78.3456 17.8489 80.2789 10.2386 83.0818L8.17937 83.8404L9.85064 75.4594L5.33423 69.5114L11.4523 67.2635L12.656 62.444L13.233 62.222C13.3225 62.185 15.5509 61.3154 19.3908 60.2239C22.5742 59.3266 27.4587 58.1147 33.3379 57.2267C33.0594 56.8474 32.7908 56.4589 32.5222 56.0704L13.999 44.72L14.6953 43.7672C14.8147 43.61 17.2818 40.2613 21.45 37.5417C20.1767 37.4122 19.5997 36.7276 19.4107 36.4408C18.9033 35.7193 18.784 34.8868 19.0526 34.0542L8.7862 24.5077C7.483 24.0082 7.03534 23.1016 6.78664 21.9083C6.64737 21.2608 6.88612 20.5763 7.5029 19.8825C8.57729 18.6614 10.9847 17.3016 12.7256 17.3016C13.9194 17.3016 14.8843 17.8751 15.3817 18.8834C15.531 19.1887 15.6205 19.4847 15.6603 19.7252L21.9872 25.3033C21.8281 23.6752 21.7087 22.0193 21.649 20.3635C21.6391 20.1137 21.6391 19.864 21.649 19.7067C21.649 19.6605 21.649 19.6142 21.649 19.5865V18.7354L22.5244 18.4949C23.8674 18.1249 25.2203 17.7826 26.5136 17.4588C28.4535 16.9686 30.3137 16.4968 32.1243 15.951C32.1541 14.9057 32.3332 14.1749 32.3431 14.1379L32.7311 12.6116L36.1731 14.5542C39.0879 13.4164 41.9828 12.0473 44.7881 10.7245C45.8128 10.2342 46.8772 9.73468 47.9317 9.25365C48.7673 8.86513 49.7025 8.60612 50.8863 9.27215C54.6466 11.409 58.5264 13.2129 62.416 14.6374L65.9874 12.6208L66.3754 14.1472C66.3853 14.1842 66.5743 14.9335 66.5942 16.0158C69.3598 16.8391 72.195 17.4866 75.0301 17.9491C75.3286 17.9954 75.5972 18.0786 75.8956 18.1711C76.0448 18.2174 76.214 18.2636 76.403 18.3191L77.3679 18.5874L77.2784 19.5217C77.1789 20.53 77.0894 21.5568 76.9999 22.5559C76.8108 24.7667 76.6119 27.0516 76.2637 29.2995C75.8956 31.6676 75.4281 33.9802 74.8909 36.1911C77.6863 37.5879 79.9047 39.438 81.3272 40.7978C83.0284 42.4259 83.9734 43.7302 84.0132 43.7765L84.7096 44.7293L82.72 45.9504L82.8791 46.1354L82.6503 45.9874L66.2659 56.0426C65.9575 56.4959 65.6491 56.9399 65.3308 57.3747C71.7771 58.4015 77.4077 59.8261 81.1283 60.8806C85.5651 62.148 88.261 63.1563 88.3705 63.1933L88.9574 63.4153L94.6676 85.3944ZM80.1434 42.9162L81.2079 44.1558L81.2576 44.128C80.9592 43.7857 80.5911 43.3695 80.1434 42.9162ZM12.1287 20.0675C12.1387 20.0767 12.1486 20.086 12.1586 20.0952L12.656 19.5772L12.1287 20.0675ZM11.9397 19.7807C11.9696 19.8825 12.0293 19.975 12.1088 20.049L12.646 19.5865C12.6261 19.5865 12.6062 19.5865 12.5863 19.5957L11.9397 19.7807ZM29.5378 51.1491L27.0209 49.9743L29.3587 48.5312L29.8163 49.1695L30.0053 48.818L29.8163 49.1695L30.7117 50.4276L29.5378 51.1491ZM68.5938 50.7791L68.0466 50.4368L69.4095 48.5405L69.9566 48.8828L68.5938 50.7791ZM22.7333 42.8977L22.6339 42.8237L24.1857 41.0661L24.2852 41.1401L22.7333 42.8977Z" fill="#AAAAAA"/>
<path d="M22.8714 19.5873C22.8714 19.7168 22.8614 20.0221 22.8714 20.3274C23.1996 28.9673 24.861 37.339 28.1538 45.3499C32.3319 55.5255 38.8579 63.7677 48.4776 69.3827C49.1939 69.799 49.6614 69.7527 50.3379 69.355C57.401 65.22 62.9221 59.5772 67.0506 52.5561C71.3282 45.2944 73.7754 37.3945 75.0687 29.1246C75.5661 25.9054 75.7551 22.64 76.0734 19.4023C75.4865 19.2451 75.1582 19.1248 74.82 19.0693C66.0856 17.6355 57.9282 14.6106 50.2484 10.2443C49.5719 9.85582 49.1342 9.96683 48.4776 10.2721C44.1403 12.2702 39.8527 14.4441 35.376 16.0907C31.3869 17.5522 27.1789 18.4125 22.8714 19.5873Z" fill="#AAAAAA"/>
<path d="M80.4033 44.0528L69.2814 49.8251L65.9488 47.7623L66.6949 46.8372L63.9492 44.5153L68.9332 46.8372L76.7424 40.8614C78.165 41.7402 79.4781 42.804 80.4033 44.0528Z" fill="#AAAAAA"/>
<path d="M75.2204 40.003L68.6846 45.4515L63.5315 43.7864L68.9333 37.5701C68.9333 37.5701 72.0669 38.3564 75.2204 40.003Z" fill="#AAAAAA"/>
<path d="M66.7932 35.091C66.8628 35.6091 66.6838 35.9421 66.6838 35.9421L56.2184 47.3017L54.7262 44.286L51.4832 45.9049V44.7485L49.4935 45.6736H49.2448L47.2552 44.7485V45.9049L44.0022 44.286L42.51 47.3017L32.0447 35.9421C32.0447 35.9421 31.8656 35.6091 31.9353 35.091C34.5914 38.9855 38.8193 41.8254 38.8193 41.8254C38.4114 40.3453 38.2622 38.8652 38.2921 37.4407L40.2618 38.745C43.6441 43.6292 49.3742 45.0816 49.3742 45.0816C49.3742 45.0816 55.0943 43.62 58.4866 38.745L60.4563 37.4407C60.4861 38.8652 60.3369 40.3453 59.929 41.8254C59.9191 41.8254 64.1371 38.9855 66.7932 35.091Z" fill="#AAAAAA"/>
<path d="M63.7484 28.2259L66.4741 30.7605C66.3746 31.075 66.2453 31.4728 66.0762 31.9261C65.9071 32.3794 65.6882 32.8789 65.4196 33.3784C64.8327 34.4792 63.9871 35.5985 62.7834 36.2461C62.7834 36.2461 62.7535 36.1166 62.6939 35.8853C62.5347 35.2563 62.1467 33.8687 61.5299 32.1851C61.4205 31.8706 61.2912 31.5561 61.1619 31.2231C61.908 30.7328 62.9923 30.0575 63.7484 28.2259Z" fill="#AAAAAA"/>
<path d="M65.9773 51.5383L50.2395 59.7157V56.8018L58.2178 52.8611L50.2395 55.183V51.1035L58.4665 49.6234L62.9531 44.4524V50.5485L65.9773 51.5383Z" fill="#AAAAAA"/>
<path d="M49.3641 24.8786L64.2264 15.9612C64.2264 20.1979 60.8739 21.9832 60.8739 21.9832C55.124 23.3246 49.3641 28.4493 49.3641 28.4493C49.3641 28.4493 43.6141 23.3246 37.8542 21.9832C37.8542 21.9832 34.5017 20.1979 34.5017 15.9612L49.3641 24.8786Z" fill="#AAAAAA"/>
<path d="M63.0329 27.1163C63.0329 27.5048 62.3465 30.0764 61.1527 31.205C60.2276 28.8924 58.9244 26.2467 57.2034 24.3504C58.2081 23.8324 59.2029 23.3976 60.1082 23.1108C60.7946 23.9526 63.0329 26.737 63.0329 27.1163Z" fill="#AAAAAA"/>
<path d="M60.1076 34.3596C59.8191 35.0257 59.262 36.2097 58.4065 37.4863C57.7996 38.3928 57.0336 39.3457 56.1184 40.1782C57.7598 37.5048 59.0929 32.8148 59.0929 32.8148L57.9588 28.1896C58.7845 29.8454 59.64 31.973 60.1076 34.3596Z" fill="#AAAAAA"/>
<path d="M57.8881 18.5225L49.3627 23.3235V18.8647C49.3627 20.2061 48.1689 20.6501 48.1689 20.6501L47.5123 22.2782L40.8472 18.5225C41.2849 17.2829 43.2347 13.0739 49.3726 13.0739C55.5106 13.0739 57.4405 17.2737 57.8881 18.5225Z" fill="#AAAAAA"/>
<path d="M55.6308 29.4377C55.581 29.4469 52.8752 29.8077 51.7212 30.89C51.7212 30.89 52.895 31.9815 54.0689 31.2508C55.2229 30.5385 55.6109 29.4747 55.6308 29.4377ZM43.1062 29.4377C43.1161 29.4747 43.5141 30.5385 44.668 31.26C45.8419 31.9908 47.0158 30.8992 47.0158 30.8992C45.8518 29.8077 43.1559 29.4469 43.1062 29.4377ZM56.1978 28.4479C56.1978 28.4479 57.9785 30.1592 57.5905 31.26C57.5905 31.26 50.9353 33.8039 49.3734 33.8039C47.8116 33.8039 41.1564 31.26 41.1564 31.26C40.7684 30.1685 42.5491 28.4571 42.5491 28.4479C45.1953 29.3082 49.2143 30.89 49.3734 32.6846C49.5227 30.8992 53.5516 29.3082 56.1978 28.4479Z" fill="#AAAAAA"/>
<path d="M45.5233 28.0039C45.4536 27.9669 43.1258 26.6533 42.887 25.7745C42.7876 25.4045 42.7279 25.1455 42.698 24.979C46.1201 26.8938 49.3632 29.3452 49.3632 29.3452C49.3632 29.3452 52.6063 26.8938 56.0284 24.979C55.9985 25.1547 55.9389 25.4045 55.8394 25.7745C55.6006 26.6533 53.2728 27.9669 53.2031 28.0039L56.9536 26.3573C57.1028 26.607 57.2619 26.8753 57.4211 27.1806C51.8999 28.3369 49.3533 31.1305 49.3533 31.1305C49.3533 31.1305 46.8165 28.3461 41.2854 27.1806C41.4545 26.8846 41.6037 26.607 41.753 26.3573L45.5233 28.0039Z" fill="#AAAAAA"/>
<path d="M57.8985 31.604C57.6 32.8898 56.4063 37.5058 54.0585 39.9942C51.3228 42.9081 50.5369 42.9081 50.5369 42.9081H52.0988C52.0988 42.9081 50.5369 44.3604 49.3631 44.3604C48.1892 44.3604 46.6273 42.9081 46.6273 42.9081H48.1892C48.1892 42.9081 47.4033 42.9081 44.6676 39.9942C42.3298 37.5058 41.1261 32.8898 40.8276 31.604C43.0361 32.9915 49.3631 34.5364 49.3631 34.5364C49.3631 34.5364 55.69 32.9823 57.8985 31.604Z" fill="#AAAAAA"/>
<path d="M55.6335 29.4377C55.6235 29.4747 55.2256 30.5385 54.0716 31.26C52.8977 31.9908 51.7239 30.8992 51.7239 30.8992C52.8778 29.8077 55.5738 29.4469 55.6335 29.4377Z" fill="#AAAAAA"/>
<path d="M48.488 56.8018V59.7157L32.7502 51.5383L35.7744 50.5485V44.4524L40.261 49.6234L48.488 51.1035V55.183L40.5197 52.8611L48.488 56.8018Z" fill="#AAAAAA"/>
<path d="M47.0168 30.8902C47.0168 30.8902 45.8429 31.9817 44.669 31.2509C43.515 30.5294 43.1171 29.4656 43.1072 29.4286C43.1569 29.4471 45.8528 29.8079 47.0168 30.8902Z" fill="#AAAAAA"/>
<path d="M42.6183 40.1782C41.7031 39.3457 40.9371 38.3928 40.3303 37.4863C39.4747 36.219 38.9176 35.0257 38.6292 34.3596C39.0868 31.973 39.9522 29.8454 40.7779 28.1896L39.6438 32.8148C39.6438 32.8148 40.9769 37.4956 42.6183 40.1782Z" fill="#AAAAAA"/>
<path d="M38.622 23.1108C39.5273 23.3976 40.5221 23.8324 41.5268 24.3504C39.8058 26.2467 38.4927 28.8831 37.5774 31.205C36.3837 30.0672 35.6973 27.5048 35.6973 27.1163C35.6973 26.737 37.9455 23.9526 38.622 23.1108Z" fill="#AAAAAA"/>
<path d="M37.5547 31.2414C37.4254 31.5651 37.306 31.8889 37.1866 32.1942C36.5698 33.8685 36.1819 35.2653 36.0227 35.8944C35.963 36.1256 35.9332 36.2551 35.9332 36.2551C34.7294 35.5984 33.8839 34.4883 33.2969 33.3875C33.0283 32.888 32.8095 32.3884 32.6404 31.9352C32.4712 31.4819 32.3419 31.0841 32.2424 30.7696L34.9682 28.235C35.7441 30.0573 36.8185 30.7326 37.5547 31.2414Z" fill="#AAAAAA"/>
<path d="M29.7991 37.5701L35.2009 43.7864L30.0478 45.4515L23.512 40.003C26.6754 38.3564 29.7991 37.5701 29.7991 37.5701Z" fill="#AAAAAA"/>
<path d="M34.7795 44.5153L32.0338 46.8372L32.7799 47.7623L29.4473 49.8251L18.3254 44.0528C19.2407 42.804 20.5637 41.7402 21.9863 40.8614L29.7955 46.8372L34.7795 44.5153Z" fill="#AAAAAA"/>
<path d="M27.6189 33.6838L29.1808 35.5339C27.4697 35.867 25.878 36.4497 24.4455 37.1713L24.4754 37.1528L22.9434 35.5987C22.9434 35.5987 23.1921 31.8892 27.1812 33.2768L27.6189 33.6838Z" fill="#AAAAAA"/>
<path d="M23.7297 41.8603L22.3867 42.8224L29.6886 48.5392L32.7227 47.1238L35.2197 44.3487L33.6976 44.6355L29.9273 46.3283L27.7388 44.3487L23.7297 41.8603Z" fill="#AAAAAA"/>
<path d="M22.6935 30.9565C22.7532 30.9472 25.4392 30.272 26.1853 30.9565C26.9314 31.6503 26.434 32.1128 26.434 32.1128C26.434 32.1128 23.6883 31.6503 22.9422 33.7316C22.5443 34.8417 22.4249 35.2302 22.405 35.3505C22.1464 35.3042 20.5049 34.962 21.1914 33.0379L10.0496 22.6773C10.4375 21.8355 11.3229 20.781 13.3722 20.4294L23.8375 29.9389C23.4595 30.161 23.0715 30.494 22.6935 30.9565Z" fill="#AAAAAA"/>
<path d="M12.7166 19.1325C13.3134 19.2435 13.0846 19.891 13.0846 19.891C12.3286 20.0483 10.5877 20.5756 9.42377 22.2962C9.07559 22.1759 8.55829 21.9169 8.7274 21.4544C8.98605 20.7606 11.4731 18.9012 12.7166 19.1325Z" fill="#AAAAAA"/>
<path d="M30.8404 38.4762L29.199 39.0405L33.5761 43.3882L31.3875 45.2013L35.705 44.0172L30.8404 38.4762Z" fill="#AAAAAA"/>
<path d="M75.0498 41.8603L76.3928 42.8224L69.0909 48.5392L66.0468 47.1238L63.5598 44.3487L65.0819 44.6355L68.8522 46.3283L71.0407 44.3487L75.0498 41.8603Z" fill="#AAAAAA"/>
<path d="M67.9361 38.4762L69.5775 39.0405L65.2004 43.3882L67.389 45.2013L63.0715 44.0172L67.9361 38.4762Z" fill="#AAAAAA"/>
<path d="M76.6892 40.7338L78.6987 43.0557L76.9379 44.471L77.296 45.0353L74.3215 47.4681L80.7679 44.2952V43.3887L76.6892 40.7338Z" fill="#AAAAAA"/>
<path d="M68.7942 37.338L73.231 39.9467L71.888 41.1862L72.1964 41.5285L70.7341 44.1279L76.0264 39.8819L73.5295 38.8644L68.7942 37.338Z" fill="#AAAAAA"/>
<path d="M57.3517 48.5392L62.5744 44.5615L62.8927 43.8399L62.9624 44.2655L63.0718 44.1822L62.9723 44.3487L63.987 50.4633L66.5934 51.3606L65.4394 52.1006L63.0718 50.4633L61.9178 46.0601L59.3612 50.232L52.7955 51.5918V53.3402L57.9486 52.9517L52.7955 56.4021V57.2994L59.9083 54.9313L49.3833 60.6943V49.8342L57.3517 48.5392Z" fill="#AAAAAA"/>
<path d="M49.3848 34.5155L42.9384 33.3222L43.605 35.6441L46.1616 37.7347H44.2118C44.2118 37.7347 47.2559 42.3692 49.1957 42.3692H49.3748V44.6356L47.425 43.84L45.2364 41.8049L42.7395 37.9567L40.6106 32.2492L40.7897 31.4536L42.9185 32.2492L49.3848 34.5155Z" fill="#AAAAAA"/>
<path d="M49.2043 34.5154L55.6507 33.3313L54.9842 35.6532L52.4275 37.7438H54.3773C54.3773 37.7438 51.3332 42.3783 49.3934 42.3783H49.2043V44.6447L51.1542 43.8491L53.3427 41.814L55.8397 37.9658L57.9686 32.2583L57.7895 31.4627L55.6606 32.2583L49.2043 34.5154Z" fill="#AAAAAA"/>
<path d="M61.4927 48.3652L59.7916 50.8629L54.927 51.8804V52.5465L59.9707 51.5844C59.9707 51.5937 61.4927 50.6686 61.4927 48.3652Z" fill="#AAAAAA"/>
<path d="M62.8946 52.4443L58.209 54.8124L56.4482 55.3767L58.6368 53.5728L62.1584 52.102L62.8946 52.4443Z" fill="#AAAAAA"/>
<path d="M36.3137 41.1863L41.5464 44.9235L41.8448 44.35L40.8102 41.8616L47.4456 45.9966L44.4015 45.4323L42.6407 48.0317L36.3137 41.1863Z" fill="#AAAAAA"/>
<path d="M62.2174 41.1863L56.9946 44.9235L56.6863 44.35L57.7208 41.8616L51.0955 45.9966L54.1296 45.4323L55.9004 48.0317L62.2174 41.1863Z" fill="#AAAAAA"/>
<path d="M22.0863 40.7338L20.0768 43.0557L21.8376 44.471L21.4695 45.0353L24.4539 47.4681L18.0076 44.2952V43.3887L22.0863 40.7338Z" fill="#AAAAAA"/>
<path d="M40.4526 23.5442L37.9557 27.3276V29.0297L37.1399 30.7503L36.4933 30.1583L35.22 33.2109L35.5284 36.2636L36.1352 36.6059L38.6222 29.4275L40.9401 25.6348L42.0941 24.3305L40.4526 23.5442Z" fill="#AAAAAA"/>
<path d="M29.9847 37.338L25.5478 39.9467L26.8908 41.1862L26.5824 41.5285L28.0448 44.1279L22.7524 39.8819L25.2394 38.8644L29.9847 37.338Z" fill="#AAAAAA"/>
<path d="M39.3558 23.0914L36.3714 27.1616L36.8589 30.5011L35.5259 28.4659L32.9692 30.8896L33.8844 34.7378L31.6262 30.7786L34.73 27.6704L35.884 25.9128L38.2616 22.5271L39.3558 23.0914Z" fill="#AAAAAA"/>
<path d="M58.4456 23.5442L60.9426 27.3276V29.0297L61.7583 30.7503L62.4049 30.1583L63.6783 33.2109L63.3699 36.2636L62.7631 36.6059L60.2761 29.4275L57.9582 25.6348L56.8042 24.3305L58.4456 23.5442Z" fill="#AAAAAA"/>
<path d="M59.48 23.0914L62.4644 27.1616L61.9769 30.5011L63.31 28.4659L65.8666 30.8896L64.9514 34.7378L67.2096 30.7786L64.1058 27.6704L62.9518 25.9128L60.5743 22.5271L59.48 23.0914Z" fill="#AAAAAA"/>
<path d="M41.4248 48.5392L36.202 44.5615L35.8837 43.8399L35.8141 44.2655L35.7046 44.1822L35.8041 44.3487L34.7894 50.4633L32.1731 51.3606L33.337 52.1006L35.7046 50.4633L36.8586 46.0601L39.4153 50.232L45.981 51.5918V53.3402L40.8279 52.9517L45.981 56.4021V57.2994L38.8681 54.9313L49.3832 60.6943V49.8342L41.4248 48.5392Z" fill="#AAAAAA"/>
<path d="M49.3816 24.1661L35.4543 16.1922L37.5235 20.2624C37.5235 20.2624 43.363 22.1865 44.6364 23.5464L49.3816 27.1633L54.1268 23.5464C55.4002 22.1865 61.2396 20.2624 61.2396 20.2624L63.3088 16.1922L49.3816 24.1661Z" fill="#AAAAAA"/>
<path d="M11.364 21.1791L21.4115 30.6701L22.7445 30.0504L22.0183 31.4657C22.0183 31.4657 23.4807 31.0124 24.2069 31.1789C24.9331 31.3454 25.4205 32.252 25.4205 32.252L23.7194 32.9828L22.5058 35.6932L20.924 35.3509L20.8046 33.3713L9.74243 22.5297L10.4686 21.6787L11.364 21.1791Z" fill="#AAAAAA"/>
<path d="M10.2852 19.6425C10.2852 19.6425 10.7727 20.771 11.1407 20.9468L9.60874 22.5841L8.69352 22.2973L8.32544 21.7886L9.24066 20.2622L10.2852 19.6425Z" fill="#AAAAAA"/>
<path d="M41.5459 19.0231C41.5459 19.0231 42.1527 16.285 43.1873 15.7484C43.1873 15.7484 42.093 19.1434 45.0078 21.0582C47.9226 22.9638 49.3849 23.8611 49.3849 23.8611L54.4286 20.6975C54.4286 20.6975 54.7967 19.6799 54.0008 18.5513C54.0008 18.5513 54.9161 18.4958 54.8564 17.4783C54.7967 16.4607 53.2149 14.8512 52.2997 14.4996C52.2997 14.4996 55.5229 14.6199 57.6518 19.0324L49.3849 24.3977L41.5459 19.0231Z" fill="#AAAAAA"/>
<path d="M44.3889 25.3871C44.3889 25.3871 44.3491 26.2936 44.9161 26.7932C45.4831 27.2834 46.9952 28.6525 46.9952 28.6525L44.3789 27.783L44.2297 28.19L40.8374 27.6997L40.9568 26.6359L42.4689 24.3973L44.3889 25.3871Z" fill="#AAAAAA"/>
<path d="M54.3095 25.3871C54.3095 25.3871 54.3493 26.2936 53.7823 26.7932C53.2152 27.2927 51.7031 28.6525 51.7031 28.6525L54.3195 27.783L54.4786 28.1992L57.8709 27.709L57.7515 26.6452L56.2295 24.3973L54.3095 25.3871Z" fill="#AAAAAA"/>
<path d="M24.1764 32.8702L27.3697 36.885L24.634 37.6805L22.5051 35.7009L23.3607 33.379L24.1764 32.8702Z" fill="#AAAAAA"/>
<path d="M68.5605 35.359C68.5605 35.359 68.3516 34.4524 67.7447 33.5089C68.073 32.8799 68.3516 32.2323 68.5505 31.5663C68.5505 31.5663 67.5955 29.781 66.8693 29.781C66.8693 29.781 66.8594 29.8365 66.8295 29.9382L64.1734 27.2926C64.1933 27.2371 64.2132 27.1723 64.2331 27.1168L60.99 22.8061C66.73 20.4565 65.198 14.4159 65.198 14.4159L59.0402 17.8848C56.0757 12.1773 49.3707 11.9645 49.3707 11.9645C49.3707 11.9645 42.6757 12.1865 39.7012 17.8848L33.5335 14.4066C33.5335 14.4066 32.0015 20.4472 37.7415 22.7968L34.4984 27.1076C34.5183 27.1723 34.5382 27.2278 34.5581 27.2833L31.902 29.929C31.8721 29.8272 31.8622 29.7717 31.8622 29.7717C31.1459 29.7717 30.181 31.557 30.181 31.557C30.3799 32.2231 30.6585 32.8706 30.9868 33.4996C30.6286 34.0547 30.4098 34.6005 30.2904 34.952L28.3605 32.9539C28.4202 32.2878 28.4301 31.52 28.1715 31.1778C27.8332 30.706 26.5599 29.3647 24.998 29.5219L14.4929 20.2714C14.4929 20.2714 14.4631 18.4399 12.7222 18.4399C10.9813 18.4399 7.73821 20.5305 7.98691 21.6868C8.23561 22.8431 8.61363 23.2501 9.41942 23.5091L9.42937 23.4906L20.5214 33.8049C20.1732 34.3322 19.9146 35.0815 20.4518 35.8308C20.4518 35.8308 20.9492 36.7558 22.9487 36.2933L23.9336 37.4311C18.8303 40.1508 15.7265 44.406 15.7265 44.406L49.3807 65.0346L83.0349 44.406C83.015 44.406 77.2849 36.5246 68.5605 35.359ZM68.9285 37.5699C68.9285 37.5699 72.0522 38.3654 75.2157 40.0027L68.6798 45.4513L63.5268 43.7862L68.9285 37.5699ZM66.4714 30.7615C66.3719 31.076 66.2426 31.4738 66.0735 31.9271C65.9043 32.3803 65.6855 32.8799 65.4169 33.3794C64.83 34.4802 63.9844 35.5995 62.7807 36.247C62.7807 36.247 62.7508 36.1175 62.6911 35.8863C62.532 35.2572 62.144 33.8697 61.5272 32.1861C61.4178 31.8716 61.2885 31.557 61.1591 31.224C61.8953 30.7153 62.9796 30.0492 63.7357 28.2084L66.4714 30.7615ZM63.0294 27.1168C63.0294 27.5053 62.3529 30.077 61.1492 31.2055C60.224 28.8929 58.9208 26.2473 57.1998 24.3509C58.2046 23.8329 59.1994 23.3981 60.1046 23.1114C60.7911 23.9531 63.0294 26.7375 63.0294 27.1168ZM52.1064 42.9074C52.1064 42.9074 50.5446 44.3597 49.3707 44.3597C48.1968 44.3597 46.635 42.9074 46.635 42.9074H48.1968C48.1968 42.9074 47.411 42.9074 44.6752 39.9935C42.3375 37.5051 41.1337 32.8891 40.8353 31.6033C43.0438 32.9909 49.3707 34.5357 49.3707 34.5357C49.3707 34.5357 55.6977 32.9909 57.9061 31.6033C57.6077 32.8891 56.4139 37.5051 54.0662 39.9935C51.3305 42.9074 50.5446 42.9074 50.5446 42.9074H52.1064ZM42.8846 25.7755C42.7851 25.4055 42.7254 25.1465 42.6956 24.9799C46.1177 26.8856 49.3608 29.3462 49.3608 29.3462C49.3608 29.3462 52.6038 26.8948 56.026 24.9799C55.9961 25.1557 55.9364 25.4055 55.8369 25.7755C55.5982 26.6635 53.2007 28.0049 53.2007 28.0049L56.9611 26.3583C57.1103 26.608 57.2695 26.8763 57.4286 27.1816C51.9075 28.3379 49.3608 31.1315 49.3608 31.1315C49.3608 31.1315 46.824 28.3471 41.2929 27.1816C41.4521 26.8855 41.6113 26.608 41.7605 26.3583L45.5208 28.0049C45.5208 28.0049 43.1234 26.6635 42.8846 25.7755ZM57.5778 31.261C57.5778 31.261 50.9226 33.8049 49.3608 33.8049C47.7989 33.8049 41.1437 31.261 41.1437 31.261C40.7557 30.1695 42.5364 28.4581 42.5364 28.4581C45.1826 29.3184 49.2016 30.9003 49.3608 32.6949C49.5199 30.9003 53.5489 29.3184 56.1851 28.4581C56.1951 28.4489 57.9758 30.1695 57.5778 31.261ZM39.6415 32.8151C39.6415 32.8151 40.9746 37.5051 42.616 40.1785C41.7008 39.346 40.9348 38.3932 40.328 37.4866C39.4724 36.2193 38.9153 35.026 38.6268 34.3599C39.0845 31.9733 39.9499 29.8457 40.7756 28.1899L39.6415 32.8151ZM59.08 32.8151L57.9559 28.1899C58.7816 29.8457 59.6371 31.9733 60.1046 34.3599C59.8161 35.026 59.2591 36.21 58.4035 37.4866C57.7967 38.3932 57.0307 39.346 56.1155 40.1785C57.747 37.4959 59.08 32.8151 59.08 32.8151ZM49.3608 13.0653C55.4888 13.0653 57.4386 17.2743 57.8862 18.5139L49.3608 23.3149V18.8561C49.3608 20.1974 48.1571 20.6415 48.1571 20.6415L47.5005 22.2696L40.8353 18.5139C41.283 17.2743 43.2328 13.0653 49.3608 13.0653ZM34.4984 15.9607L49.3608 24.8782L64.2231 15.9607C64.2231 20.1974 60.8706 21.9828 60.8706 21.9828C55.1207 23.3241 49.3608 28.4489 49.3608 28.4489C49.3608 28.4489 43.6108 23.3241 37.8509 21.9828C37.8509 21.9828 34.4984 20.1974 34.4984 15.9607ZM38.6169 23.1114C39.5222 23.3981 40.517 23.8329 41.5217 24.3509C39.8007 26.2473 38.4876 28.8837 37.5724 31.2055C36.3786 30.0677 35.6922 27.5053 35.6922 27.1168C35.6922 26.7375 37.9404 23.9531 38.6169 23.1114ZM34.9759 28.2269C35.7419 30.0677 36.8163 30.7338 37.5525 31.2425C37.4231 31.5663 37.3038 31.8901 37.1844 32.2046C36.5676 33.8789 36.1796 35.2757 36.0205 35.9048C35.9608 36.136 35.9309 36.2655 35.9309 36.2655C34.7272 35.6088 33.8816 34.4987 33.2947 33.3979C33.0261 32.8984 32.8072 32.3988 32.6381 31.9456C32.469 31.4923 32.3397 31.0945 32.2402 30.78L34.9759 28.2269ZM8.73301 21.4555C8.98171 20.7617 11.4787 18.9024 12.7222 19.1336C13.3191 19.2446 13.0902 19.8922 13.0902 19.8922C12.3342 20.0494 10.5933 20.5767 9.42937 22.2973C9.07124 22.1863 8.56389 21.9273 8.73301 21.4555ZM22.4016 35.359C22.143 35.3127 20.5015 34.9705 21.1879 33.0464L10.0462 22.6858C10.4341 21.844 11.3195 20.7895 13.3688 20.438L23.8341 29.9382C23.4561 30.1695 23.0781 30.4932 22.6901 30.9558C22.6901 30.9558 25.4358 30.262 26.1819 30.9558C26.928 31.6495 26.4306 32.1121 26.4306 32.1121C26.4306 32.1121 23.6849 31.6495 22.9388 33.7309C22.5409 34.8502 22.4215 35.2387 22.4016 35.359ZM22.9388 35.5995C22.9388 35.5995 23.1875 31.8901 27.1767 33.2776L27.6144 33.6847L29.1762 35.5348C27.4652 35.8678 25.8735 36.4506 24.431 37.1721L24.4608 37.1536L22.9388 35.5995ZM29.793 37.5699L35.1948 43.7862L30.0417 45.4513L23.5058 40.0027C26.6693 38.3562 29.793 37.5699 29.793 37.5699ZM18.3229 44.0545C19.2381 42.8056 20.5612 41.7418 21.9838 40.863L29.793 46.8389L34.777 44.517L32.0313 46.8389L32.7774 47.7639L29.4448 49.8268L18.3229 44.0545ZM48.4853 55.1828L40.507 52.8609L48.4853 56.8016V59.7063L32.7376 51.5381L35.7718 50.5391V44.443L40.2583 49.6048L48.4853 51.0941V55.1828ZM49.2414 45.6825L47.2518 44.7575V45.9138L43.9988 44.2857L42.5066 47.3014L32.0412 35.9418C32.0412 35.9418 31.8622 35.6088 31.9318 35.0907C34.5879 38.9852 38.8159 41.8251 38.8159 41.8251C38.408 40.345 38.2588 38.8649 38.2886 37.4404L40.2583 38.7447C43.6407 43.6289 49.3707 45.0813 49.3707 45.0813C49.3707 45.0813 55.0908 43.6197 58.4831 38.7447L60.4429 37.4404C60.4727 38.8649 60.3235 40.345 59.9156 41.8251C59.9156 41.8251 64.1336 38.9852 66.7997 35.0907C66.8693 35.6088 66.6902 35.9418 66.6902 35.9418L56.215 47.3014L54.7228 44.2857L51.4797 45.9046V44.7482L49.4901 45.6733H49.2414V45.6825ZM50.2362 59.7155V56.8109L58.2145 52.8702L50.2362 55.192V51.1126L58.4632 49.6233L62.9498 44.4615V50.5576L65.9839 51.5566L50.2362 59.7155ZM65.9441 47.7639L66.6902 46.8389L63.9446 44.517L68.9285 46.8389L76.7377 40.863C78.1603 41.7418 79.4834 42.8056 80.3986 44.0545L69.2767 49.8268L65.9441 47.7639Z" fill="#AAAAAA"/>
<path d="M37.2881 48.3652L38.9892 50.8629L43.8538 51.8804V52.5465L38.8101 51.5937C38.8101 51.5937 37.2881 50.6686 37.2881 48.3652Z" fill="#AAAAAA"/>
<path d="M35.884 52.4443L40.5696 54.8124L42.3304 55.3767L40.1418 53.5728L36.6202 52.102L35.884 52.4443Z" fill="#AAAAAA"/>
<path d="M36.3049 17.8374L37.5385 20.261L40.8412 21.4821C40.8313 21.4821 36.4641 22.1389 36.3049 17.8374Z" fill="#AAAAAA"/>
<path d="M62.4755 17.8374L61.242 20.261L57.9392 21.4821C57.9492 21.4821 62.3163 22.1389 62.4755 17.8374Z" fill="#AAAAAA"/>
<path d="M87.8998 64.2476C87.8998 64.2476 69.098 57.1617 49.1821 57.1525C49.1721 57.1525 49.1622 57.1525 49.1522 57.1525C49.1423 57.1525 49.1323 57.1525 49.1224 57.1525C29.2064 57.1617 13.6974 63.2578 13.6974 63.2578L12.4937 68.0958L7.2312 70.0291L11.1507 75.1909L9.78785 81.9993C28.2713 75.1909 47.9485 75.4869 49.1323 75.5054C49.1323 75.5054 49.1423 75.5054 49.1622 75.5054C49.1821 75.5054 49.192 75.5054 49.192 75.5054C50.3758 75.4777 74.4501 76.708 92.9335 83.5163L87.8998 64.2476Z" fill="#AAAAAA"/>
<path d="M16.4175 64.6365C16.0494 66.2831 15.6813 67.9204 15.3133 69.567C14.0101 69.9648 12.7168 70.381 11.4236 70.8158C12.1001 71.7408 12.7865 72.6566 13.4828 73.5724C13.8807 73.4522 14.0797 73.3874 14.4776 73.2672C14.1096 74.9138 13.7415 76.5511 13.3734 78.1977C14.398 77.8924 15.4326 77.5872 16.4672 77.3004C16.8055 75.6631 17.1437 74.035 17.472 72.3976C18.4668 72.1201 19.4715 71.8611 20.4763 71.6113C20.1679 73.2394 19.8695 74.8583 19.5611 76.4863C20.5957 76.2273 21.6303 75.9868 22.6748 75.7556C23.4209 71.3061 24.177 66.8566 24.9231 62.4071C22.0779 63.0454 19.2328 63.7947 16.4175 64.6365ZM21.1826 67.9481C20.1977 68.1979 19.2228 68.4477 18.2479 68.7159C18.3275 68.3089 18.4171 67.9019 18.4966 67.4949C19.4616 67.2266 20.4365 66.9768 21.4114 66.7271C21.3318 67.1341 21.2622 67.5411 21.1826 67.9481Z" fill="#AAAAAA"/>
<path d="M34.1258 64.2948C34.2551 63.0922 34.3745 61.8989 34.5038 60.6964C31.6189 61.0941 28.7439 61.5844 25.8988 62.1857C25.4412 65.0163 24.9836 67.8377 24.5259 70.6684C26.5354 70.2429 28.5549 69.8636 30.5942 69.5398C30.5445 69.9376 30.4948 70.3446 30.445 70.7424C28.3957 71.0754 26.3564 71.4547 24.3369 71.8802C24.138 73.092 23.939 74.3038 23.75 75.5156C26.8637 74.8589 29.9874 74.3131 33.1409 73.8876C33.4294 71.0847 33.7279 68.291 34.0164 65.4881C32.0268 65.7564 30.0571 66.0801 28.0774 66.4409C28.1371 66.0431 28.1968 65.6361 28.2465 65.2384C30.1963 64.8868 32.1561 64.5723 34.1258 64.2948Z" fill="#AAAAAA"/>
<path d="M45.0753 59.7893C45.0256 61.3804 44.9759 62.9715 44.9261 64.5533C44.5978 64.5626 44.2596 64.5811 43.9313 64.5996C43.613 64.6181 43.2946 64.6366 42.9763 64.6551C42.9067 64.6551 42.837 64.6643 42.7575 64.6643C42.6182 64.6736 42.4889 64.6828 42.3496 64.6921C41.882 64.7198 41.4145 64.7476 40.9469 64.7846C39.9521 64.8586 38.9573 64.9418 37.9625 65.0343C37.9923 64.6366 38.0222 64.2388 38.052 63.841C40.0217 63.6468 41.9915 63.508 43.9711 63.4063C44.0109 62.2129 44.0606 61.0196 44.1004 59.8263C41.2056 59.9743 38.3206 60.2148 35.4457 60.5756C35.1771 63.3692 34.8985 66.1629 34.6299 68.9658C36.6593 68.716 38.6887 68.5125 40.7281 68.3645C40.7082 68.7623 40.6783 69.1601 40.6584 69.5578C38.5992 69.7151 36.5499 69.9186 34.5105 70.1684C34.3912 71.3709 34.2817 72.5642 34.1624 73.7668C37.296 73.3783 40.4495 73.11 43.613 72.9528C43.6727 71.3617 43.7324 69.7706 43.7921 68.1888C44.1999 68.1703 44.3989 68.161 44.8067 68.1425C44.757 69.7336 44.7073 71.3247 44.6575 72.9065C45.712 72.8695 46.7566 72.8418 47.8111 72.8233C47.831 71.2322 47.8409 69.6503 47.8608 68.0592C48.8755 68.05 49.9001 68.05 50.9148 68.0592C50.9347 69.6503 50.9447 71.2322 50.9646 72.8233C52.0191 72.8418 53.0636 72.8695 54.1181 72.9065C53.9888 68.5403 53.8495 64.1648 53.7202 59.7986C50.8452 59.6876 47.9603 59.6876 45.0753 59.7893ZM47.9105 64.4793C47.9105 64.0815 47.9205 63.6838 47.9205 63.286C48.9053 63.2767 49.8902 63.2767 50.885 63.286C50.885 63.6838 50.8949 64.0815 50.8949 64.4793C49.9001 64.4701 48.9053 64.4701 47.9105 64.4793Z" fill="#AAAAAA"/>
<path d="M57.8639 64.7743C57.844 64.3765 57.8142 63.9787 57.7943 63.581C59.7739 63.729 61.7337 63.9232 63.7034 64.1637C63.584 62.9612 63.4746 61.7679 63.3552 60.5653C60.4802 60.2138 57.5953 59.964 54.7004 59.816C54.7999 62.6004 54.9093 65.3755 55.0088 68.1599C57.0482 68.2617 59.0875 68.4097 61.1169 68.604C61.1468 69.0017 61.1766 69.3995 61.2064 69.7973C59.1572 69.603 57.1079 69.4458 55.0486 69.344C55.0884 70.5373 55.1382 71.7306 55.1779 72.9239C58.3414 73.0812 61.485 73.3495 64.6286 73.738C64.36 70.9443 64.0814 68.1507 63.8128 65.3478C61.8431 65.1258 59.8535 64.9315 57.8639 64.7743Z" fill="#AAAAAA"/>
<path d="M67.7817 65.9321C67.7319 65.5344 67.6822 65.1273 67.6325 64.7296C69.6022 65.0533 71.5619 65.4141 73.5018 65.8211C73.3028 64.6093 73.1039 63.3975 72.9149 62.1857C70.0697 61.5844 67.2047 61.0849 64.3098 60.6964C64.5983 63.4993 64.8967 66.2929 65.1852 69.0958C67.2246 69.3733 69.244 69.6971 71.2635 70.0671C71.3232 70.4649 71.3829 70.8719 71.4326 71.2697C69.4032 70.8904 67.3539 70.5666 65.3046 70.2891C65.4339 71.4917 65.5533 72.685 65.6826 73.8876C68.8362 74.3131 71.9698 74.8589 75.0736 75.5156C74.616 72.685 74.1584 69.8636 73.7008 67.033C71.741 66.6259 69.7713 66.2559 67.7817 65.9321Z" fill="#AAAAAA"/>
<path d="M73.8682 62.398C74.6143 66.8475 75.3703 71.297 76.1164 75.7465C77.161 75.9777 78.1956 76.2275 79.2301 76.4773C78.3945 72.0093 77.5589 67.5413 76.7133 63.0641C75.7682 62.8328 74.8232 62.6108 73.8682 62.398Z" fill="#AAAAAA"/>
<path d="M89.4568 79.28C88.1238 73.8962 87.4871 71.2321 86.1541 65.8483C85.219 65.5338 84.2838 65.2285 83.3388 64.9325C83.7168 66.5791 84.0948 68.2257 84.4728 69.8723C82.0356 66.8844 80.6429 66.1906 77.6584 63.2304C78.6831 68.5217 79.2402 71.4541 80.2648 76.7546C81.2994 77.0229 82.334 77.3004 83.3686 77.5964C83.0204 75.9591 82.6723 74.3218 82.3241 72.6844C85.6965 75.5243 86.8405 76.1719 89.4568 79.28Z" fill="#AAAAAA"/>
<path d="M85.8317 72.6376L85.5233 71.3055C85.1851 71.213 84.8468 71.1205 84.5186 71.028L85.8317 72.6376Z" fill="#AAAAAA"/>
<path d="M13.769 72.7874C13.9182 72.7412 14.0674 72.6949 14.2664 72.6394L15.4402 72.2879L14.336 77.2184C14.8433 77.0704 15.3507 76.9224 15.858 76.7836L16.8727 71.8809L17.2906 71.7699C18.2953 71.4924 19.31 71.2334 20.3148 70.9743L21.3991 70.7061L20.4839 75.5903C21.0111 75.4608 21.5384 75.3406 22.0756 75.2203L23.2295 68.3934C19.7776 69.1242 16.1863 70.0585 12.615 71.2426C12.9831 71.7421 13.371 72.2694 13.769 72.7874Z" fill="#AAAAAA"/>
<path d="M25.3787 69.8176C27.0699 69.4754 28.771 69.1608 30.4622 68.8926L31.4072 68.7353L31.0889 71.3162L30.5617 71.3995C28.7014 71.7047 26.8112 72.047 24.9609 72.4355L24.6028 74.6649C27.2092 74.1376 29.8553 73.6843 32.4816 73.3143L33.168 66.7095C30.8203 67.0055 28.3134 67.394 25.707 67.8843L25.3787 69.8176Z" fill="#AAAAAA"/>
<path d="M49.263 65.6919C49.263 65.6919 49.2531 65.6919 49.2332 65.6919C49.2133 65.6919 49.2033 65.6919 49.2033 65.6919C48.6065 65.6827 43.2047 65.5994 35.6044 66.4227L35.4353 68.208C37.1762 68.0045 38.9469 67.838 40.6878 67.7085L41.5036 67.6438L41.3544 70.1784L40.7276 70.2247C38.8872 70.3634 37.017 70.5484 35.1766 70.7612L34.9578 72.9998C37.6039 72.6945 40.27 72.4633 42.9261 72.3245L43.1052 67.5513L43.7618 67.5235C44.1696 67.505 44.3686 67.4958 44.7864 67.4773L45.5524 67.4495L45.4032 72.2228C45.9702 72.2043 46.5472 72.1858 47.1143 72.1765L47.164 67.4033L47.8604 67.394C48.885 67.3848 49.9196 67.3848 50.9343 67.394L51.6307 67.4033L51.6804 72.1765C52.2474 72.1858 52.8244 72.2043 53.3915 72.2228L53.2025 65.9232C50.9542 65.7382 49.5316 65.6827 49.263 65.6919Z" fill="#AAAAAA"/>
<path d="M55.6985 67.5421C57.5289 67.6439 59.3693 67.7826 61.1898 67.9584L61.7867 68.0139L61.9856 70.5578L61.1401 70.4745C59.3693 70.2988 57.5787 70.1692 55.798 70.0675L55.8775 72.3061C58.5237 72.4541 61.1997 72.6761 63.8459 72.9814L63.259 66.9316C60.384 66.5616 57.7975 66.2933 55.6587 66.099L55.6985 67.5421Z" fill="#AAAAAA"/>
<path d="M65.8358 68.5129C67.6861 68.7719 69.5564 69.0772 71.3968 69.4194L71.8942 69.5119L72.2622 72.1113L71.2873 71.9263C69.5663 71.6118 67.8254 71.325 66.0945 71.0753L66.3233 73.3139C68.9495 73.6839 71.5858 74.1372 74.2021 74.6645L73.1974 68.5036C70.591 68.0226 68.0642 67.6248 65.6965 67.2826L65.8358 68.5129Z" fill="#AAAAAA"/>
<path d="M76.7499 75.2093C77.2771 75.3295 77.8044 75.4498 78.3416 75.5793L77.1577 69.2797C76.6703 69.178 76.1828 69.0762 75.7053 68.9837L76.7499 75.2093Z" fill="#AAAAAA"/>
<path d="M86.8462 71.6866C86.4085 71.5571 85.9609 71.4368 85.5231 71.3073L85.8315 72.6394L84.5184 71.0298C82.8969 70.595 81.2753 70.1972 79.6538 69.8272C79.6538 69.8457 79.6638 69.855 79.6638 69.8735C80.0318 71.7883 80.4099 73.7679 80.8874 76.2286C81.4047 76.3673 81.922 76.5061 82.4293 76.6448L81.2057 70.8355L82.8073 72.1861C83.5634 72.8244 84.21 73.3517 84.777 73.8234C86.0603 74.878 87.0154 75.655 88.0997 76.7558C87.7416 75.285 87.4232 73.99 87.1049 72.7226C87.0154 72.3711 86.9358 72.0288 86.8462 71.6866Z" fill="#AAAAAA"/>
</svg>
