<svg width="70" height="70" viewBox="0 0 70 70" fill="none" xmlns="http://www.w3.org/2000/svg">
<path d="M54.7436 24.996L49.5789 15.5905C49.3792 15.2266 48.9965 15 48.5788 15H35.2811H34.6855H21.387C20.9694 15 20.5867 15.2266 20.3855 15.5905L15.1286 25.1747C15.0748 25.272 15.0429 25.3744 15.0196 25.4783C15.0131 25.5008 15.0131 25.5233 15.0116 25.5458C14.9964 25.6562 14.9964 25.7681 15.0102 25.8763C15.0131 25.9097 15.0131 25.9373 15.0225 25.9663C15.0501 26.0854 15.085 26.1973 15.1482 26.3048C15.1554 26.3157 15.1671 26.3208 15.1743 26.3331C15.1758 26.3397 15.1758 26.3455 15.1801 26.3549L33.7355 54.3078C33.7936 54.3935 33.8626 54.4669 33.9353 54.5345C33.9556 54.5504 33.9781 54.562 33.9955 54.5737C34.0689 54.6296 34.1488 54.6782 34.2359 54.7131C34.2672 54.7284 34.2962 54.7429 34.3267 54.7516C34.4371 54.7879 34.549 54.8163 34.6688 54.8163H34.6732H34.6761C34.6819 54.8163 34.6848 54.8163 34.6848 54.8163C34.8075 54.8163 34.9216 54.793 35.0334 54.756C35.0632 54.748 35.0922 54.7342 35.1213 54.7225C35.2085 54.6877 35.2876 54.6412 35.3639 54.5824C35.3842 54.5678 35.4031 54.5621 35.4205 54.5439C35.4953 54.4822 35.5665 54.4066 35.6232 54.3209L54.7785 26.3673C54.7799 26.3673 54.7799 26.3593 54.7814 26.3571C54.8664 26.2351 54.923 26.1014 54.955 25.9489V25.9467C54.9702 25.8712 55 25.8007 55 25.7201C55 25.4441 54.9027 25.1928 54.7436 24.996ZM34.9848 18.8988L38.3235 24.5813H31.6445L34.9848 18.8988ZM22.0647 17.2828H33.2867L28.995 24.5813H18.0592L22.0647 17.2828ZM18.2574 26.8626H28.6936L32.5815 48.4423L18.2574 26.8626ZM34.7487 47.5845L31.0148 26.8633H38.9235L34.7487 47.5845ZM36.9123 48.4067L41.2527 26.8626H51.6699L36.9123 48.4067ZM40.9716 24.5813L36.6807 17.2828H47.9041L51.9082 24.5813H40.9716Z" fill="white"/>
<circle cx="35" cy="35" r="34" stroke="#5079FF" stroke-width="2"/>
</svg>
