<svg width="15" height="22" viewBox="0 0 15 22" fill="none" xmlns="http://www.w3.org/2000/svg">
<path d="M13.7632 1.80259C13.7632 1.6076 13.6767 1.43428 13.5466 1.30429L12.4634 0.221044C12.3334 0.0910562 12.1384 0.00439453 11.9651 0.00439453C11.7918 0.00439453 11.5968 0.0910562 11.4668 0.221044L1.37095 10.3169C1.24096 10.4469 1.1543 10.6419 1.1543 10.8152C1.1543 10.9885 1.24096 11.1835 1.37095 11.3135L11.4668 21.4093C11.5968 21.5394 11.7918 21.6259 11.9651 21.6259C12.1384 21.6259 12.3334 21.5394 12.4634 21.4093L13.5466 20.3261C13.6767 20.1961 13.7632 20.0012 13.7632 19.8278C13.7632 19.6545 13.6767 19.4595 13.5466 19.3295L5.03231 10.8152L13.5466 2.30088C13.6767 2.17088 13.7632 1.9759 13.7632 1.80259Z" fill="#999999"/>
</svg>
