<svg width="100" height="94" viewBox="0 0 100 94" fill="none" xmlns="http://www.w3.org/2000/svg">
<path d="M46.1472 88.8332H46.0463H45.9455H44.8263V88.8239C35.7922 88.6457 28.5931 86.6206 24.076 84.9235C18.9539 82.9921 16.1106 81.0795 15.9997 81.0045L15.3342 80.545L19.69 68.3097C19.8513 67.8409 20.063 67.4002 20.3151 66.9689L19.7404 64.3062C18.601 59.0276 20.2345 52.3802 20.3554 51.9114C20.5672 50.9457 20.8394 49.9425 21.1621 48.9205C22.4829 44.7202 24.1163 41.6543 26.022 39.7885C25.0238 37.3696 24.4591 34.5475 24.3381 31.3785C24.1869 27.5625 24.8725 24.4779 25.7901 22.1058L24.3079 23.0246L28.1898 16.2085C30.8113 11.6049 34.0781 9.93606 36.256 9.33601L32.6564 6.46702L40.1479 6.95456C40.2185 6.95456 40.2992 6.95456 40.3899 6.96394L39.4119 5.76384L47.0143 6.58891C55.3729 7.49836 58.0549 10.3673 61.1907 14.6333C64.7196 19.4337 64.1147 24.6467 63.7315 26.5218C63.9634 27.225 64.1247 27.9188 64.2054 28.5845C65.5162 27.3469 66.8068 26.128 68.0772 24.9186L68.0873 24.9092L72.9673 20.3807L73.0077 20.3432C73.0077 20.3432 73.0278 20.3244 73.0581 20.2963C73.1085 20.2494 73.1589 20.1932 73.2093 20.1463C73.2396 20.1182 73.2698 20.09 73.3001 20.0619L73.3202 20.0432L74.8326 18.6462C74.9335 18.5524 75.0242 18.468 75.125 18.3743C75.2259 18.2805 75.3267 18.1867 75.4376 18.093C76.4056 17.2117 77.6861 17.1835 78.6238 18.0367C80.3479 19.6025 81.8906 21.0182 83.3223 22.3871C84.26 23.2778 84.2499 24.4591 83.3022 25.3498C83.2013 25.453 83.0904 25.5374 82.9795 25.6217C83.1207 25.7249 83.2618 25.8468 83.403 25.9874C84.3609 26.9906 84.3407 28.1251 83.3526 29.0908C83.2719 29.1752 83.1913 29.2502 83.1106 29.3345C82.7174 29.719 82.3141 30.1221 81.8402 30.4784C81.6183 30.6565 80.2572 31.9504 79.5211 32.6442C79.259 32.888 79.0372 33.1036 78.8758 33.2536C78.775 33.3474 78.6943 33.4318 78.6036 33.4974L77.7163 34.3318C77.0105 34.9975 76.335 35.6351 75.6493 36.2632C75.851 36.7414 76.0224 37.229 76.1737 37.7259C76.8089 39.7792 76.2442 41.6168 74.5705 43.0326C74.268 43.2951 73.9151 43.5764 73.542 43.8576C74.2983 44.6452 74.6814 45.5359 74.7016 46.4922C74.7217 46.511 74.7419 46.5297 74.7721 46.5485C75.8812 47.4861 76.3854 48.6674 76.214 49.9613C76.214 49.9894 76.214 50.0081 76.214 50.0081C76.214 50.0081 76.2241 50.0363 76.2745 50.1019C77.4138 51.5645 77.3836 53.1396 76.1837 54.546C76.456 55.4273 76.1031 56.318 75.2158 56.9181C73.0077 58.3995 70.8096 59.5246 68.5511 60.3309C69.0754 62.1404 69.3779 63.7062 69.5089 64.4562C70.86 65.4313 71.8885 66.772 72.4229 68.2815L76.7786 80.5169L76.1232 80.967C76.0022 81.0513 73.169 82.964 68.0469 84.886C63.5299 86.5831 56.3308 88.6082 47.2966 88.7864V88.7957L46.1472 88.8332ZM21.6057 65.0656L21.3637 65.5719C21.4646 65.4594 21.5755 65.3563 21.6864 65.2532C21.6662 65.1875 21.636 65.1219 21.6057 65.0656Z" fill="#AAAAAA"/>
<path d="M46.1464 87.792C64.2954 87.7358 75.4368 80.1601 75.4368 80.1601L71.3432 68.6467C70.2845 65.6746 67.2295 63.7244 63.8719 63.8838L46.0557 64.6995L28.2394 63.8838C24.8818 63.7338 21.8167 65.6839 20.7681 68.6467L16.6543 80.1508C16.6543 80.1508 27.7958 87.7264 45.9447 87.7826C45.975 87.7826 46.0153 87.7826 46.0456 87.7826C46.0758 87.792 46.1161 87.792 46.1464 87.792Z" fill="#AAAAAA"/>
<path d="M30.0548 57.479C30.7202 57.2071 31.7487 56.7758 32.9788 56.457L35.076 51.7691V54.2256C36.6287 52.838 37.3144 49.6877 37.3144 49.6877C37.7479 52.3223 36.8304 54.9475 36.3968 55.9882C39.2906 55.9882 42.5473 57.1133 45.1285 61.1168C45.9452 62.3825 46.4695 63.4513 46.7821 64.3608H66.0603C63.701 53.588 59.1032 52.7348 56.7035 45.4967C56.2196 46.0687 55.8868 46.4249 55.8364 46.4718L54.3643 47.9719L54.1425 46.0124C53.7392 46.3781 53.1746 47.0531 52.6099 47.8594C52.247 48.3657 51.884 48.9189 51.5512 49.4814L51.521 49.5283L51.1177 50.2127L50.301 49.8752C49.8372 49.6783 49.0608 49.3033 48.1533 48.8626C48.0525 48.8158 47.9517 48.7595 47.8509 48.7126C46.772 48.1782 44.9067 47.2688 43.5657 46.7062C43.6463 46.7906 43.7068 46.8656 43.7573 46.9125L44.6748 47.7657L46.2981 49.2752L42.8196 48.4407C39.0889 47.5407 35.681 45.9749 33.8056 45.0279V49.3877L31.9705 46.3218C31.8193 46.0687 31.4664 45.703 31.053 45.2905C30.2766 44.4935 29.2078 43.3966 28.2197 41.7746C26.677 43.2747 25.2352 46.0218 24.0858 49.7252C23.7833 50.7003 23.5514 51.6191 23.38 52.4911C23.38 52.4911 22.2104 56.5976 22.4927 59.1947C22.4927 59.1947 22.896 58.7916 22.9565 59.1104C22.9464 60.0011 23.0271 61.023 23.3296 62.0543L23.8539 60.273C26.3645 65.7765 33.7854 65.814 36.5682 65.5984C35.8826 64.5764 35.6104 63.742 35.6104 63.742C35.6104 63.742 42.5977 67.8955 43.7068 67.6423C44.826 67.3798 44.826 65.3077 42.5877 60.3667C40.4098 55.4351 30.206 57.4508 30.0548 57.479Z" fill="#AAAAAA"/>
<path d="M40.9499 18.2232C40.9499 18.2232 40.9499 17.4919 40.6575 17.1262C40.6575 17.1262 43.3092 17.4919 46.2635 19.6858C46.2635 19.6858 42.432 15.6636 39.1854 16.3949C39.1854 16.3949 39.4778 16.3949 39.7803 17.1262C39.7803 17.1262 36.2412 16.3949 35.6564 19.3202C35.6867 19.2545 37.7436 16.423 40.9499 18.2232ZM36.826 32.0525C36.826 32.0525 36.1001 32.6056 35.7371 33.1588C35.7371 33.1588 35.0111 31.5087 34.6381 29.3054C34.6381 29.3054 33.9121 32.3337 36.1001 35.3621L36.463 33.9839C36.463 33.9839 37.925 37.2935 40.113 38.3905C40.0626 38.3155 36.826 33.6932 36.826 32.0525ZM34.1944 16.123L32.2787 15.673C32.2384 15.6636 32.198 15.6542 32.1577 15.6449C35.1724 11.782 38.3888 11.857 38.4292 11.857L38.8527 11.8758L39.1551 11.5945C39.9416 10.8632 40.0828 10.1319 40.0626 9.65373C40.0626 9.5881 40.0525 9.52247 40.0424 9.45684C43.1782 9.68185 47.3323 11.107 47.3323 11.107C47.3323 11.107 46.4551 9.38183 46.3845 9.10056C51.9905 10.1506 56.2858 13.0571 58.6149 16.2262C59.5526 17.5013 60.1374 18.842 60.4701 20.1077C59.9962 19.2545 59.2501 19.1608 59.2501 19.1608C59.3408 18.4951 59.5022 18.4857 59.5022 18.4857C57.6671 17.9888 55.9329 21.7485 55.9329 21.7485C57.3445 19.6577 58.5241 19.4233 58.5241 19.4233C58.3931 19.7608 58.7056 20.2015 58.7056 20.2015C60.4802 19.1701 60.7625 23.0611 60.7625 23.0611C60.8028 22.7704 60.8331 22.4986 60.8432 22.2454C61.065 24.6175 60.5911 26.3707 60.581 26.4083L60.5104 26.6801L60.6113 26.9427C61.7305 29.8585 60.9138 31.4805 59.9761 33.3651C59.361 34.6027 58.7157 35.8778 58.5544 37.5748C58.3023 40.1438 56.4673 42.7784 55.3178 44.1941C55.1262 44.0629 54.9347 43.9878 54.7431 43.9597C54.6624 43.941 54.5717 43.9316 54.4809 43.9316C53.4021 43.9316 52.0712 45.1317 50.5184 47.5131C50.4478 47.6256 50.3672 47.7382 50.2966 47.8507C49.8933 47.6632 49.3992 47.4194 48.8749 47.1569C48.8346 47.1381 48.8043 47.1194 48.764 47.1006C44.7007 45.1036 43.0168 44.3816 42.0892 44.3816C41.7767 44.3816 41.5548 44.4566 41.3431 44.5973C40.9902 44.8317 40.8188 45.2254 40.8995 45.638C40.9095 45.713 40.9297 45.788 40.9499 45.8536C40.96 45.9005 40.97 45.9474 40.9801 45.9943C36.7756 44.6348 33.3777 42.6752 33.3374 42.6565L31.8451 41.7845V43.3597C31.1998 42.6659 30.484 41.8127 29.8084 40.6688C29.516 40.1719 29.2337 39.6281 28.9715 39.0187C28.1448 37.1248 27.5095 34.6308 27.3785 31.2555C26.9953 21.561 32.5812 17.295 32.6316 17.2481L34.1944 16.123ZM38.5502 21.8422C39.7399 26.7739 42.9664 27.9646 45.9106 28.1334C46.4349 28.049 47.4734 28.0115 47.2415 29.3335C46.7979 31.7993 47.0399 34.2652 48.2296 36.5622C49.4698 38.9624 52.1922 39.9188 54.4305 38.0436C55.7514 36.7216 56.0639 35.1559 55.7514 33.4307C55.6808 33.0651 55.4388 32.54 55.7615 32.3337C56.2454 32.015 56.4269 32.765 56.9613 32.84C57.5965 31.0586 57.7478 29.2491 57.1327 27.4396C56.921 26.8302 57.0319 26.7177 57.6469 26.352C59.1291 25.4613 59.361 24.0362 59.3005 23.0611L59.9458 23.8674C59.5425 21.9829 58.9275 21.8047 58.7056 21.8047C58.6552 21.8047 58.625 21.8141 58.625 21.8141C58.4737 21.8422 58.2922 21.9266 58.0906 22.0579C57.6167 22.3579 55.6606 24.355 55.3077 24.505C55.0758 23.8018 55.459 22.011 55.0657 22.0954C54.8036 22.5267 54.1079 23.8674 53.6441 23.9612C51.5771 24.3643 49.127 21.0453 48.5825 20.6328C48.401 21.1484 49.49 22.3204 49.611 22.6861C49.853 23.408 49.9941 24.3081 49.2379 24.6831C48.7237 24.9456 47.0499 23.2111 46.6265 22.9111C44.7712 21.5703 42.7244 20.6703 40.4357 20.3046C40.4357 20.3046 37.6831 19.6764 37.4411 20.839C37.189 22.0016 37.4411 23.633 37.4411 23.633C37.4411 23.633 37.6226 22.161 38.5502 21.8422Z" fill="#AAAAAA"/>
<path d="M40.6499 22.1319C40.2062 22.01 39.9642 22.2162 39.9945 22.5913C40.428 26.6604 44.6124 27.5323 46.1853 27.3729C47.4356 27.2416 47.738 26.5947 47.002 25.6384C46.6794 25.2071 45.7316 24.5883 44.6527 23.9883C44.5821 24.7102 44.32 25.5353 43.6545 26.3697C43.6545 26.3697 43.0395 26.9416 43.0395 25.2165C43.0395 25.2165 44.441 24.3633 43.1201 24.2133C42.5353 24.1476 42.6967 23.6601 43.0496 23.1444C42.0211 22.6475 41.0834 22.2537 40.6499 22.1319Z" fill="#AAAAAA"/>
<path d="M50.0156 27.2608C46.769 29.2672 47.8277 32.08 48.4125 34.8177C48.715 36.4397 49.4107 38.0805 51.3264 38.1742C53.6958 38.2961 55.5107 35.7459 54.2706 33.8989C53.9076 34.3583 53.2018 35.2584 53.2018 35.2584C51.4474 36.6741 49.7736 32.0518 49.7031 30.1204C49.6829 29.6141 53.4438 27.8328 55.5612 30.1579C55.8536 30.5142 56.146 30.8705 56.4989 31.3018C57.0837 28.7422 56.1964 26.3514 54.2806 25.2638C51.6894 24.1012 49.7333 26.867 50.0156 27.2608Z" fill="#AAAAAA"/>
<path d="M51.9012 30.449C51.6895 31.8647 52.0021 33.1773 52.5465 34.5087C53.2826 34.218 53.3229 33.7774 53.1414 33.2429C52.8288 32.3429 53.3733 29.8489 52.7986 29.7458C52.2844 29.6427 51.9819 29.9052 51.9012 30.449Z" fill="#AAAAAA"/>
<path d="M56.2365 24.88C56.055 25.0675 55.8231 25.2457 56.0752 25.5645C56.3172 25.8645 56.5491 26.0426 56.9927 25.977C58.2531 25.7989 58.8278 24.655 58.3236 23.1174C57.8498 23.3705 57.4666 23.6612 57.1238 23.98C57.2145 24.3644 57.2549 25.03 56.7205 25.6864C56.7205 25.6864 56.4483 25.9395 56.4483 25.1707C56.4483 25.1707 57.0734 24.7957 56.4886 24.7206C56.4483 24.7206 56.418 24.7113 56.3978 24.6925C56.3474 24.7581 56.2869 24.8144 56.2365 24.88Z" fill="#AAAAAA"/>
<path d="M58.2549 43.4247L60.3017 43.0496L62.1771 41.2495C62.2073 41.2213 62.2376 41.1932 62.2577 41.1651L65.6859 37.8836C67.0067 36.6928 68.4284 35.5771 69.6182 34.2458C70.1626 33.6363 73.5908 30.6173 74.6797 29.661C76.5854 27.9827 81.0117 24.1481 80.7092 23.6699C80.6487 23.5761 80.4672 23.3886 80.2152 23.1542L58.7288 42.6558C58.5674 42.9371 58.4162 43.1903 58.2549 43.4247Z" fill="#AAAAAA"/>
<path d="M59.1008 44.194C58.9093 44.2408 58.7177 44.2877 58.5261 44.3346C60.0184 47.5036 62.4483 50.5414 64.6061 54.1698C64.3237 52.6697 63.5877 51.1977 62.3878 49.7538C61.8333 49.0881 61.2787 48.4318 60.7343 47.7661L62.7811 47.1661C62.9424 47.1192 63.1037 47.0723 63.265 47.0254H63.2751C63.6482 46.9036 63.991 46.7535 64.2632 46.5285C64.5355 46.3035 64.7371 45.9941 64.8279 45.5534C64.9085 45.1128 64.717 43.8002 64.5153 43.6595C64.3237 43.6502 62.5492 43.7345 61.0569 43.8846C61.0569 43.8846 60.825 43.9127 60.462 43.9596C60.1091 44.0064 59.6251 44.0814 59.1412 44.194C59.121 44.2033 59.0908 44.2127 59.0807 44.2221L59.1008 44.194Z" fill="#AAAAAA"/>
<path d="M59.2932 41.6438L79.9326 22.911C79.1361 22.1797 77.9766 21.1765 77.5934 20.7733C77.1901 20.342 76.9683 20.3608 76.5347 20.7639C73.7519 23.361 70.959 25.9487 68.166 28.5364C68.5593 29.3709 69.0634 30.6085 68.8819 31.1054C68.65 31.7523 62.1668 37.856 60.0494 39.8343C59.8478 40.4624 59.5856 41.0719 59.2932 41.6438Z" fill="#AAAAAA"/>
<path d="M76.2225 21.0636L77.1401 21.8887C77.9064 22.5825 77.9164 23.7169 77.1602 24.4201L58.9407 41.2871L60.8866 34.6866L71.8769 23.9795L76.2225 21.0636Z" fill="#AAAAAA"/>
<path d="M60.3003 38.9805L68.0438 30.8517L67.3986 29.2485C66.4709 30.1017 65.5534 30.9549 64.6258 31.8081C64.5048 31.9206 64.3838 32.0331 64.2628 32.1456C63.8293 32.5394 61.1573 35.399 61.1573 35.399C60.8448 36.1116 60.6028 36.8616 60.5221 37.7242C60.4818 38.1555 60.4011 38.568 60.3003 38.9805Z" fill="#AAAAAA"/>
<path d="M62.2766 42.6098C62.1757 42.9192 62.4278 42.7786 62.5791 42.7505C63.1134 42.6567 63.6478 42.5723 64.1822 42.4879C64.8981 42.3754 65.4123 42.5254 65.6442 43.2568C65.8761 43.9787 66.0879 44.6912 66.0979 45.5257C66.5819 45.3007 67.8523 44.635 67.7112 44.335C67.5297 43.9412 67.3684 43.538 67.1566 43.1536C66.8844 42.6567 66.7231 42.1692 67.1869 41.4754C66.713 41.6441 66.4307 41.7379 66.1484 41.8316C66.1988 41.5129 66.471 41.3347 66.6928 41.1285C70.857 37.2563 75.0313 33.3934 79.1753 29.5119C79.6693 29.0525 81.454 27.5805 80.7583 26.9523C79.9416 26.2116 79.9416 26.2116 79.1551 26.9429C73.66 32.0246 68.1649 37.1156 62.6799 42.1973C62.5286 42.3286 62.327 42.4504 62.2766 42.6098Z" fill="#AAAAAA"/>
<path d="M64.3752 47.6908C63.5988 47.9627 63.4274 48.2627 63.8912 49.0034C65.0507 50.8598 66.1598 52.7537 67.1883 54.6851C67.5815 55.4352 68.1663 54.6101 68.489 55.0133C67.1984 56.0071 66.8858 55.9883 66.0993 54.6851C66.0993 55.4258 66.0993 56.0165 66.0993 56.5978C66.0792 56.6634 66.059 56.7384 66.0489 56.804C66.2506 57.2353 66.4321 57.6666 66.6035 58.1073C66.7547 58.0604 66.8858 57.9666 67.027 57.9197C68.8822 57.2541 70.6568 56.429 72.3507 55.4446C72.5826 55.3133 72.8851 55.2289 73.0464 54.7882C72.0179 55.0976 71.0702 55.2945 70.082 55.257C69.1343 54.6757 68.3377 53.9913 68.2974 52.8381C68.2873 52.4818 67.9949 52.3224 67.763 52.1443C66.9765 51.5536 67.0471 50.541 66.5833 49.9222C66.0993 49.2753 65.1617 48.8721 65.0205 47.9439C64.9297 47.4564 64.7483 47.5595 64.3752 47.6908Z" fill="#AAAAAA"/>
<path d="M70.4966 44.8216C70.305 44.6904 65.8081 46.4343 66.2014 47.8875C66.3929 48.5907 66.887 48.8157 67.5928 48.8251C68.9035 48.8345 70.0429 48.3657 71.1016 47.6812C71.6763 47.2218 71.878 46.3593 71.6259 45.9186C71.3537 45.4686 70.9403 45.1216 70.4966 44.8216Z" fill="#AAAAAA"/>
<path d="M68.8311 49.4437C68.8311 49.4437 67.5607 49.9687 67.9741 50.7281C68.2967 51.3001 68.7706 51.7501 69.5268 51.6845C70.8376 51.572 72.0374 51.1688 72.9953 50.2875C73.0356 50.2781 73.4692 49.4155 73.2373 48.9843C72.9852 48.4967 72.5214 48.1779 71.987 48.0936C71.6644 48.0279 68.8916 49.4155 68.8311 49.4437Z" fill="#AAAAAA"/>
<path d="M69.1637 40.0588C68.8915 40.3776 68.2865 40.7245 68.5184 41.0432C69.446 42.2715 73.0758 40.9776 71.4323 38.7649C71.1198 38.3336 70.8374 38.3805 70.5955 38.7368C70.1216 39.1868 69.6376 39.6181 69.1637 40.0588Z" fill="#AAAAAA"/>
<path d="M73.4905 51.2723C72.9562 50.8973 69.407 52.313 69.4877 52.9599C69.5683 53.6162 69.9414 54.0756 70.6573 54.1319C71.7261 54.2163 72.6738 53.8694 73.5208 53.2693C74.1963 52.9318 74.0249 51.6473 73.4905 51.2723Z" fill="#AAAAAA"/>
<path d="M67.3871 28.9115C67.3871 28.9115 67.8307 30.5148 67.7601 30.721C67.6896 30.9273 59.6838 39.0655 59.6838 39.0655L60.8837 34.687L67.3871 28.9115Z" fill="#AAAAAA"/>
<path d="M78.1471 27.3082C78.1471 27.3082 79.115 27.6551 78.8226 28.4896C78.5201 29.324 64.8378 41.5594 64.8378 41.5594C64.8378 41.5594 65.2815 42.0469 66.1788 42.2532C67.0762 42.4595 67.903 41.9719 67.903 41.9719L68.3466 44.4096L66.0276 46.1442L65.4327 45.8629L64.8378 42.7314L61.8433 43.1439V42.3282L78.1471 27.3082Z" fill="#AAAAAA"/>
<path d="M31.4645 57.2635C31.4645 57.2635 34.1869 52.6881 33.2189 50.4567C32.251 48.2346 29.2564 45.1031 27.7641 45.3094L29.1858 44.7562C29.1858 44.7562 27.8448 43.5748 27.0886 45.1687C26.3425 46.772 24.699 50.3817 24.699 50.3817V46.697L27.6936 40.8559L29.0346 41.2684L31.2729 43.9124L32.4728 44.8124L33.4407 43.9124L37.7763 46.1344L42.485 46.8282C42.485 46.8282 42.6362 45.5063 43.2311 45.5063C43.826 45.5063 50.2588 48.844 50.2588 48.844L53.2534 45.5063H54.8263L57.2966 44.8124L59.6862 49.8847C59.6862 49.8847 57.0344 48.6659 56.4294 47.5595C56.4294 47.5595 54.1911 48.9472 53.4349 50.8223V48.3846C53.4349 48.3846 51.6401 50.3348 51.3376 51.788C51.3376 51.788 48.2019 49.3503 47.3045 49.0034L48.6455 51.0192C48.6455 51.0192 46.6996 51.0848 43.4832 49.6316L44.2293 50.3254C44.2293 50.3254 39.8231 50.2598 38.7745 48.8628C38.7745 48.8628 39.1476 51.5067 38.3309 53.9351L38.1091 52.8194C38.1091 52.8194 38.0385 54.7695 36.9899 56.2978L35.9413 56.1571L33.7029 56.3634L31.7569 56.9916L31.4645 57.2635Z" fill="#AAAAAA"/>
<path d="M38.23 57.2721C38.23 57.2721 40.9322 58.2659 41.6077 60.8817L41.8598 60.4973L44.814 66.1697L43.3722 59.9535L41.517 58.1159L38.23 57.2721Z" fill="#AAAAAA"/>
<path d="M62.1558 54.6845C62.1558 54.6845 63.4262 57.3379 63.275 60.3287L62.1558 59.213C62.1558 59.213 63.7993 62.2695 63.648 65.2604L67.0157 64.4916L65.2209 58.0973L62.1558 54.6845Z" fill="#AAAAAA"/>
<path d="M22.6522 56.0825L22.9143 57.6951L23.4386 57.2826C23.4386 57.2826 23.5092 60.761 25.9089 62.008C28.3086 63.2549 30.2445 64.23 32.7854 64.5113L32.1098 63.4706L36.4454 64.7926L37.5646 65.9083L30.9906 66.4615L24.0335 63.1987L23.2067 62.9174L21.5632 59.1671L22.6522 56.0825Z" fill="#AAAAAA"/>
<path d="M68.954 45.2438C68.954 45.2438 69.9219 44.8313 70.2244 45.4501C70.5269 46.0782 69.5488 46.9783 69.5488 46.9783L70.3756 46.4908C70.3756 46.4908 70.1538 47.2596 68.6515 47.8784C67.1592 48.5066 66.2619 47.5971 66.4131 46.9033C66.5643 46.2095 65.7375 46.8377 65.7375 46.8377L65.8888 48.2253L66.4837 48.9191L67.7541 49.1254L69.4783 48.6378L71.5755 47.7377L72.0191 46.0032L71.4948 44.9625L70.668 44.3343L69.1758 44.6156L68.954 45.2438Z" fill="#AAAAAA"/>
<path d="M70.6737 48.1688C70.6737 48.1688 71.6416 47.7563 71.9441 48.3751C72.2466 49.0033 71.2686 49.9034 71.2686 49.9034L72.0953 49.4158C72.0953 49.4158 71.8735 50.1846 70.3712 50.8034C68.8789 51.4316 67.9816 50.5222 68.1328 49.8284C68.2841 49.1345 67.4573 49.7627 67.4573 49.7627L67.6085 51.1503L68.2034 51.8441L69.4738 52.0504L71.198 51.5629L73.2952 50.6628L73.7388 48.9283L73.2145 47.8876L72.3878 47.2594L71.3391 47.6719L70.6737 48.1688Z" fill="#AAAAAA"/>
<path d="M72.4706 50.8028C72.4706 50.8028 73.4385 50.3903 73.741 51.0091C74.0435 51.6372 73.0654 52.5373 73.0654 52.5373L73.8922 52.0498C73.8922 52.0498 73.6704 52.8186 72.1681 53.4374C70.6657 54.0562 69.7785 53.1561 69.9297 52.4623C70.0809 51.7685 69.2542 52.3967 69.2542 52.3967L69.4054 53.7843L70.0003 54.4781L71.2707 54.6843L72.9949 54.1968L75.0921 53.2967L75.5357 51.5622L75.0114 50.5215L74.1846 49.8933L73.136 50.3059L72.4706 50.8028Z" fill="#AAAAAA"/>
<path d="M63.721 43.1624C63.721 43.1624 64.1646 43.9968 63.721 45.0376C63.2773 46.0783 61.8556 46.2845 61.8556 46.2845H63.1967L59.9097 47.2596L64.5477 54.6946L65.072 53.232L63.6504 49.688L62.8236 48.366L63.721 47.5971L64.8401 46.6221L65.3644 44.6063L64.5377 43.4249L63.721 43.1624Z" fill="#AAAAAA"/>
<path d="M37.7057 21.4018L36.8084 22.6488C36.8084 22.6488 35.911 19.8641 37.252 19.6579C38.593 19.4516 40.3877 19.6579 40.3877 19.6579L40.0147 19.0297C40.0147 19.0297 42.6362 19.6579 44.2797 20.8392L43.9772 20.1454C43.9772 20.1454 46.3668 21.608 47.7885 23.1363C49.2102 24.6645 48.7565 22.7238 48.7565 22.7238L49.1295 22.8644C49.1295 22.8644 48.6052 21.8893 47.1835 20.5673L47.7784 20.5017L46.7298 18.2046C46.7298 18.2046 48.8976 21.1205 50.2386 20.9892C51.5796 20.858 51.6603 19.6673 51.6603 19.6673C51.6603 19.6673 51.3578 22.105 52.4871 22.3112C53.6063 22.5175 54.6549 19.8079 54.6549 19.8079C54.6549 19.8079 54.5036 21.8237 55.8547 20.783C55.8547 20.783 55.0279 24.4677 55.8547 23.6332C56.6815 22.7988 56.9739 22.105 56.9739 22.105V22.5175C56.9739 22.5175 57.8007 21.1955 58.6174 21.1299L58.3956 21.4112C58.3956 21.4112 60.0391 20.9986 60.1903 23.9801L59.666 23.2863L58.8392 22.5925L55.401 24.8146L54.2011 24.5333L50.9847 24.252L49.19 25.9865L44.6326 23.1363L42.5354 22.2362L39.7727 21.683L37.7057 21.4018Z" fill="#AAAAAA"/>
<path d="M56.3197 27.3074C56.3197 27.3074 53.9301 23.9697 51.238 26.4074C51.238 26.4074 50.1188 27.4481 52.0648 27.7294C52.0648 27.7294 48.0417 27.795 47.7695 31.9016C47.4973 35.9988 51.9135 38.849 53.2545 37.8083V38.3615L52.0547 38.6428L50.633 38.3615L49.5138 37.874L48.4047 36.1394L47.4368 33.0079V29.9514L47.9611 27.5887L51.732 24.3166L53.5671 24.326L55.2106 25.3667L56.3197 27.3074Z" fill="#AAAAAA"/>
<path d="M68.6597 40.0959C68.6597 40.0959 69.7083 40.1616 69.6276 40.7241L69.7789 40.3772C69.7789 40.3772 70.0813 41.146 69.6276 41.6242L70.0007 41.7648L70.8275 41.4179L71.7248 40.7897L72.0273 39.9553L71.4324 38.0801L70.7569 38.2864L68.6597 40.0959Z" fill="#AAAAAA"/>
<path d="M34.5624 29.8387C34.5624 29.8387 33.5239 34.3297 35.0968 36.4112L35.3993 35.5111C35.3993 35.5111 37.2746 37.8738 39.8861 38.2582L36.8915 33.8422L35.3186 33.5609L35.0968 32.6609L34.5624 29.8387Z" fill="#AAAAAA"/>
<path d="M52.2864 29.6044C52.2864 29.6044 51.6109 32.2483 52.962 34.6767L53.2645 34.536C53.2645 34.536 52.3671 33.0734 52.8208 29.3887L53.2645 29.595L53.7081 34.3204L53.2645 34.8736H52.3671L51.1672 30.9076L52.2864 29.6044Z" fill="#AAAAAA"/>
<path d="M44.9563 27.5897C44.9563 27.5897 46.5998 27.871 46.5292 29.3992C46.4586 30.9275 45.41 32.2495 45.7831 33.984L46.2267 33.0089C46.2267 33.0089 46.2267 37.0405 48.9188 38.6438C48.9188 38.6438 50.1187 39.5438 52.2058 39.5438L51.9033 40.0314C51.9033 40.0314 53.3956 39.6845 54.0711 38.1562L52.4982 38.3625L50.9253 38.5031L49.1306 37.8468L48.1626 35.7279L47.3862 30.9275L47.7896 27.871L47.0434 27.5897H44.9563Z" fill="#AAAAAA"/>
<path d="M35.7385 18.9635C35.7385 18.9635 35.9906 17.0227 38.0878 16.3289L37.4929 15.6351C37.4929 15.6351 42.4335 14.6506 45.4986 18.9635L41.9092 17.229L40.6388 16.8165L40.4169 17.229H39.2977L37.6543 17.5759L35.7385 18.9635Z" fill="#AAAAAA"/>
<path d="M56.5784 20.6327C56.5784 20.6327 57.8185 17.1637 59.9057 17.7919L60.3493 18.2044L59.9057 18.8982L60.3493 19.0388L60.6518 19.8733V20.2858L59.825 19.7983L59.1495 19.4514L58.9277 18.8982L57.8085 19.5264L56.5784 20.6327Z" fill="#AAAAAA"/>
<path d="M39.4299 9.09988C39.4299 9.09988 47.4256 11.3969 48.6254 12.1564L47.7986 9.85932C47.7986 9.85932 54.9776 11.8751 58.2645 14.6597L54.0802 10.1406L45.4796 7.91853L44.9553 8.61234L39.4299 9.09988Z" fill="#AAAAAA"/>
<path d="M49.5244 65.2615C49.5244 65.2615 47.9515 62.2706 50.2 60.9486C50.2 60.9486 49.9782 61.8487 50.4218 62.0643C50.8655 62.2706 51.0167 60.1142 52.519 59.7673C52.519 59.7673 52.2165 60.7424 53.9407 60.7424C55.6648 60.7424 57.6007 61.5768 57.6007 61.5768L56.8546 60.4611C56.8546 60.4611 59.5467 60.4611 60.2223 62.0643C60.8978 63.6676 61.1902 65.2615 61.1902 65.2615H49.5244Z" fill="#AAAAAA"/>
<path d="M40.1955 42.1867C40.1451 42.1398 40.1047 42.121 40.1047 42.121C40.1047 42.121 40.135 42.1398 40.1955 42.1867Z" fill="#AAAAAA"/>
<path d="M55.1986 43.4337V42.8805C54.2307 42.6743 52.2041 43.9963 52.2041 43.9963L52.4259 42.9555C51.3773 43.3681 49.8044 45.5245 49.8044 45.5245L49.5019 44.5494C48.907 45.8714 48.0096 45.5245 48.0096 45.5245C44.9243 45.3932 40.8408 42.6461 40.1753 42.1867C40.3467 42.3274 40.6492 42.6836 40.0846 43.1618C39.3384 43.79 37.463 41.9148 37.463 41.9148L37.7655 43.1618C31.9377 41.5586 30.7378 36.6925 30.7378 36.6925L30.2942 38.6427C29.0036 37.4895 28.57 33.7017 28.4188 31.4796C28.4188 31.4046 28.4087 31.339 28.4087 31.2733C28.3583 30.2795 28.2978 25.9573 30.6673 22.657L30.3648 24.9541C30.3648 24.9541 32.6031 18.2129 34.4785 17.4441C36.3539 16.6752 33.803 15.147 33.803 15.147C33.803 15.147 35.749 12.0905 37.6949 11.4623C37.6949 11.4623 34.7004 10.9748 33.5106 12.6437C32.3108 14.3125 31.121 15.9814 31.121 15.9814L31.4235 16.8815L27.6828 22.6476L26.4829 32.1734H26.7955L27.3803 36.1394L29.4271 41.7554L32.1696 44.4838L33.44 43.6494L37.7756 45.8714L42.1818 46.7059L42.7565 45.8902L46.0435 46.734L50.7017 48.356L53.6963 45.1682L55.6423 45.2807L57.5882 41.2679L55.1986 43.4337Z" fill="#AAAAAA"/>
<path d="M22.2387 49.21C23.1259 46.3973 24.7493 42.197 27.3405 40.0405C26.3726 37.931 25.5962 35.1276 25.4551 31.3304C25.2332 25.63 26.8969 21.6452 28.5303 19.1419L27.3708 19.8638L29.1756 16.6855C32.3819 11.0506 36.5562 10.188 37.998 10.0662C38.0787 9.94428 38.119 9.84114 38.119 9.73801C38.1089 9.50362 37.8972 9.2786 37.8367 9.22234L35.9613 7.73159L40.1154 8.00349C40.6196 7.98474 42.4849 8.3879 42.9487 8.41602L41.8799 7.09404L46.881 7.63784C54.7253 8.49103 57.1855 11.0506 60.2608 15.2416C63.7696 20.0232 62.8621 25.3206 62.5697 26.605C63.2554 28.5177 63.2453 29.9991 62.9327 31.2929C64.9795 29.3615 66.9356 27.5145 68.8715 25.6862L73.7112 21.1952C73.7616 21.1577 73.8221 21.1108 73.8725 21.0546C73.9532 20.9796 74.0238 20.9046 74.1044 20.8296L75.6068 19.4326C75.8084 19.245 76.0101 19.0669 76.2117 18.8794C76.7259 18.4106 77.3007 18.3544 77.825 18.8231C79.3979 20.2483 80.9607 21.6921 82.5034 23.1547C82.9874 23.6142 83.0277 24.1486 82.4933 24.6549C82.1505 24.9736 81.5758 25.3112 81.5657 25.6581C81.5556 26.0894 82.2009 26.3613 82.5538 26.7269C83.1285 27.327 83.1285 27.8239 82.5235 28.4146C82.0597 28.8646 81.6161 29.3334 81.1019 29.7178C80.8095 29.9428 77.8048 32.8118 77.7846 32.8118C77.5729 33.0087 77.3712 33.1962 77.1696 33.3837C76.3025 34.1994 75.4757 34.9776 74.6388 35.7464C74.3968 35.9714 74.3464 36.159 74.4775 36.459C74.7094 36.984 74.901 37.5184 75.0724 38.0622C75.5765 39.7124 75.1732 41.1469 73.7919 42.3095C73.3381 42.6845 72.8844 43.0689 72.4004 43.3971C71.9971 43.6783 71.856 43.8565 72.3097 44.2409C73.076 44.8972 73.6003 45.7035 73.56 46.7161C73.5499 47.0536 73.7818 47.1849 73.9935 47.363C74.8001 48.0381 75.2034 48.8631 75.0724 49.8757C75.022 50.2226 75.1127 50.4758 75.3345 50.757C76.1815 51.8446 76.1512 52.9041 75.264 53.9448C75.0421 54.2073 74.8606 54.3948 75.032 54.7886C75.2539 55.3137 75.032 55.7825 74.5178 56.12C72.2391 57.6482 69.789 58.9046 67.1372 59.7297C68.0648 62.5986 68.4278 65.1114 68.4379 65.2145L68.5287 66.2083H47.1733C47.2843 69.1898 44.2998 69.4523 44.2998 69.4523C41.406 69.5648 39.3995 68.5148 38.0585 67.2865C36.8385 67.4084 33.9448 67.6522 30.8897 67.6522C29.347 67.6522 26.2617 67.1084 23.9124 64.8957V66.9771C22.6016 65.0832 22.1278 63.3956 21.9765 62.2142C21.8656 61.9798 20.8472 64.1175 20.8472 64.1175C19.7281 58.9233 21.4522 52.154 21.4522 52.154C21.6539 51.2165 21.9059 50.2414 22.2387 49.21ZM22.9848 59.0827C22.9747 59.9734 23.0554 60.9954 23.3579 62.0267L23.8822 60.2453C26.3928 65.7489 33.8137 65.7864 36.5965 65.5708C35.9109 64.5488 35.6387 63.7144 35.6387 63.7144C35.6387 63.7144 42.626 67.8678 43.7351 67.6147C44.8543 67.3522 44.8543 65.2801 42.6159 60.3391C40.3977 55.4356 30.194 57.4513 30.0427 57.4795C30.7082 57.2076 31.7366 56.7763 32.9667 56.4575L35.0639 51.7696V54.2261C36.6167 52.8385 37.3023 49.6882 37.3023 49.6882C37.7359 52.3228 36.8183 54.948 36.3848 55.9887C39.2785 55.9887 42.5353 57.1138 45.1165 61.1173C45.9332 62.383 46.4575 63.4518 46.77 64.3613H66.0483C63.6889 53.5885 59.0912 52.7353 56.6915 45.4972C56.2075 46.0691 55.8748 46.4254 55.8244 46.4723L54.3523 47.9724L54.1305 46.0129C53.7271 46.3786 53.1625 47.0536 52.5979 47.8599C52.2349 48.3662 51.8719 48.9194 51.5392 49.4819L51.5089 49.5288L51.1056 50.2132L50.2889 49.8757C49.8251 49.6788 49.0487 49.3038 48.1413 48.8631C48.0405 48.8163 47.9396 48.76 47.8388 48.7131C46.76 48.1787 44.8946 47.2693 43.5536 46.7067C43.6343 46.7911 43.6948 46.8661 43.7452 46.913L44.6627 47.7662L46.2861 49.2757L42.8075 48.4412C39.0769 47.5411 35.6689 45.9754 33.7935 45.0284V49.3882L31.9585 46.3223C31.8072 46.0691 31.4543 45.7035 31.0409 45.291C30.2645 44.494 29.1958 43.3971 28.2077 41.775C26.665 43.2752 25.2232 46.0223 24.0737 49.7257C23.7712 50.7008 23.5393 51.6196 23.3679 52.4916C23.3679 52.4916 22.1983 56.5982 22.4806 59.1952C22.5109 59.1671 22.9142 58.764 22.9848 59.0827ZM28.9941 39.0279C29.2563 39.6374 29.5386 40.1812 29.831 40.6781C30.5065 41.8125 31.2224 42.6751 31.8677 43.3689V41.8032L33.36 42.6751C33.4003 42.6939 36.7881 44.6534 41.0027 46.0129C40.9926 45.966 40.9825 45.9191 40.9724 45.8723C40.9523 45.7973 40.9321 45.7316 40.922 45.6566C40.8515 45.2441 41.0128 44.8503 41.3657 44.6159C41.5673 44.4753 41.7992 44.4003 42.1118 44.4003C43.0394 44.4003 44.7232 45.1222 48.7866 47.1192C48.8269 47.138 48.8673 47.1567 48.8975 47.1755C49.4319 47.438 49.9159 47.6724 50.3192 47.8693C50.3898 47.7474 50.4704 47.6443 50.541 47.5318C52.0937 45.1503 53.4247 43.9502 54.5035 43.9502C54.5943 43.9502 54.6749 43.9596 54.7657 43.9784C54.9472 44.0159 55.1488 44.0815 55.3404 44.2127C56.4898 42.797 58.3249 40.1624 58.577 37.5934C58.7383 35.8964 59.3836 34.6213 59.9986 33.3837C60.9363 31.5086 61.753 29.8866 60.6338 26.9613L60.533 26.6988L60.6036 26.4269C60.6137 26.3988 61.0775 24.6361 60.8658 22.264C60.8557 22.5172 60.8254 22.7891 60.7851 23.0797C60.7851 23.0797 60.5028 19.1794 58.7282 20.2201C58.7282 20.2201 58.4257 19.7795 58.5467 19.4419C58.5467 19.4419 57.3771 19.6857 55.9554 21.7671C55.9554 21.7671 57.6897 18.0074 59.5247 18.5044C59.5247 18.5044 59.3634 18.5137 59.2727 19.1794C59.2727 19.1794 60.0087 19.2732 60.4927 20.1264C60.1499 18.8606 59.5752 17.5199 58.6375 16.2448C56.2983 13.0758 52.0131 10.1693 46.4071 9.11921C46.4676 9.40048 47.3548 11.1256 47.3548 11.1256C47.3548 11.1256 43.2007 9.69113 40.065 9.47549C40.0751 9.54112 40.0751 9.60675 40.0852 9.67238C40.1053 10.1505 39.9642 10.8819 39.1777 11.6132L38.8752 11.8944L38.4518 11.8757C38.4215 11.8757 35.195 11.8007 32.1803 15.6635C32.2206 15.6729 32.2609 15.6823 32.3013 15.6916L34.217 16.1417L32.6743 17.2855C32.6138 17.323 27.0381 21.589 27.4212 31.2929C27.5321 34.6401 28.1673 37.134 28.9941 39.0279ZM62.1765 41.25C62.2068 41.2219 62.237 41.1937 62.2673 41.1656L65.6954 37.8841C67.0162 36.6934 68.4379 35.5777 69.6277 34.2463C70.1721 33.6369 73.6003 30.6179 74.6892 29.6615C76.5949 27.9833 81.0212 24.1486 80.7187 23.6704C80.6582 23.5767 80.4767 23.3891 80.2247 23.1547L58.7383 42.6564C58.587 42.9189 58.4257 43.172 58.2644 43.4064L60.3112 43.0314L62.1765 41.25ZM64.6165 54.1698C64.3342 52.6697 63.5982 51.1977 62.3983 49.7538C61.8438 49.0882 61.2892 48.4318 60.7448 47.7662L62.7916 47.1661C62.9529 47.1192 63.1142 47.0724 63.2755 47.0255H63.2856C63.6587 46.9036 64.0015 46.7536 64.2737 46.5286C64.546 46.3035 64.7476 45.9941 64.8384 45.5535C64.919 45.1128 64.7275 43.8002 64.5258 43.6596C64.3342 43.6502 62.5597 43.7346 61.0674 43.8846C61.0674 43.8846 60.8355 43.9127 60.4725 43.9596C60.1196 44.0065 59.6357 44.0815 59.1517 44.194C59.1315 44.2034 59.1013 44.2127 59.0912 44.2221L59.1013 44.2034C58.9097 44.2502 58.7181 44.2971 58.5266 44.344C60.0188 47.5036 62.4588 50.5414 64.6165 54.1698ZM77.5931 20.7733C77.1898 20.342 76.9679 20.3608 76.5344 20.7639C73.7515 23.361 70.9586 25.9487 68.1657 28.5364C68.5589 29.3709 69.063 30.6085 68.8815 31.1054C68.6496 31.7523 62.1664 37.856 60.049 39.8343C59.8373 40.4531 59.5752 41.0531 59.2928 41.6344L79.9323 22.9016C79.1357 22.1797 77.9762 21.1765 77.5931 20.7733ZM67.3994 29.249C66.4718 30.1022 65.5542 30.9554 64.6266 31.8086C64.5056 31.9211 64.3846 32.0336 64.2636 32.1461C63.8301 32.5399 61.1582 35.3995 61.1582 35.3995C60.8456 36.1121 60.6036 36.8621 60.5229 37.7247C60.4826 38.1466 60.4019 38.5592 60.3011 38.9717L68.0447 30.8429L67.3994 29.249ZM64.1729 42.4876C64.8888 42.3751 65.403 42.5251 65.6349 43.2564C65.8668 43.9784 66.0785 44.6909 66.0886 45.5254C66.5726 45.3003 67.843 44.6347 67.7019 44.3346C67.5204 43.9408 67.3591 43.5377 67.1473 43.1533C66.8751 42.6564 66.7138 42.1688 67.1776 41.475C66.7037 41.6438 66.4214 41.7375 66.139 41.8313C66.1895 41.5125 66.4617 41.3344 66.6835 41.1281C70.8477 37.2559 75.022 33.3931 79.166 29.5115C79.66 29.0521 81.4447 27.5801 80.749 26.9519C79.9323 26.2113 79.9323 26.2113 79.1458 26.9426C73.6608 32.0242 68.1657 37.1153 62.6807 42.197C62.5395 42.3282 62.3278 42.4501 62.2773 42.6095C62.1765 42.9189 62.4286 42.7783 62.5798 42.7501C63.1041 42.6657 63.6385 42.5814 64.1729 42.4876ZM67.1876 54.6761C67.5809 55.4262 68.1657 54.6011 68.4883 55.0043C67.1977 55.9981 66.8852 55.9794 66.0987 54.6761C66.0987 55.4168 66.0987 56.0075 66.0987 56.5888C66.0785 56.6544 66.0584 56.7294 66.0483 56.795C66.25 57.2263 66.4314 57.6576 66.6028 58.0983C66.7541 58.0514 66.8852 57.9576 67.0263 57.9108C68.8816 57.2451 70.6561 56.42 72.35 55.4356C72.5819 55.3043 72.8844 55.2199 73.0457 54.7792C72.0173 55.0886 71.0695 55.2855 70.0814 55.248C69.1336 54.6667 68.3371 53.9823 68.2968 52.8291C68.2867 52.4728 67.9943 52.3134 67.7624 52.1353C66.9759 51.5446 67.0465 50.532 66.5827 49.9132C66.0987 49.2663 65.161 48.8631 65.0199 47.9349C64.9493 47.4474 64.7678 47.5599 64.3947 47.6912C63.6183 47.9631 63.4469 48.2631 63.9107 49.0038C65.0501 50.8602 66.1592 52.7541 67.1876 54.6761ZM67.591 48.8256C68.9017 48.835 70.0411 48.3662 71.0998 47.6818C71.6745 47.2224 71.8761 46.3598 71.6241 45.9191C71.3518 45.4691 70.9485 45.1222 70.5049 44.8222C70.3133 44.6909 65.8164 46.4348 66.2096 47.8881C66.3911 48.6006 66.8952 48.8256 67.591 48.8256ZM69.5269 51.6852C70.8376 51.5727 72.0375 51.1696 72.9953 50.2882C73.0357 50.2789 73.4692 49.4163 73.2373 48.985C72.9852 48.4975 72.5214 48.1787 71.987 48.0943C71.6644 48.0381 68.8916 49.4257 68.8311 49.4538C68.8311 49.4538 67.5607 49.9789 67.9741 50.7383C68.2967 51.3008 68.7807 51.7509 69.5269 51.6852ZM71.4426 38.7748C71.13 38.3435 70.8477 38.3904 70.6057 38.7467C70.1217 39.1873 69.6478 39.628 69.1639 40.0687C68.8916 40.3874 68.2867 40.7343 68.5186 41.0531C69.4462 42.2813 73.076 40.9875 71.4426 38.7748ZM73.7919 38.306C73.6003 37.781 73.3986 37.2559 73.1869 36.6934C72.8138 36.7965 71.7148 37.7435 71.9568 38.1091C72.4307 38.8123 72.5718 39.5811 72.4307 40.3968C71.3216 41.3906 70.1419 42.3188 68.9118 43.1814C68.6093 43.3877 68.5488 43.7815 68.8412 43.8846C69.4462 44.1002 75.3144 42.5439 73.7919 38.306ZM70.6561 54.1323C71.7249 54.2167 72.6727 53.8698 73.5196 53.2697C74.1952 52.9322 74.0238 51.6477 73.4894 51.2727C72.955 50.8977 69.4059 52.3134 69.4865 52.9603C69.5672 53.626 69.9402 54.0761 70.6561 54.1323Z" fill="#AAAAAA"/>
<path d="M34.6421 29.2954C34.6421 29.2954 33.9162 32.3238 36.1041 35.3522L36.4671 33.9739C36.4671 33.9739 37.9291 37.2836 40.1171 38.3805C40.0666 38.3055 36.8402 33.6833 36.8402 32.0425C36.8402 32.0425 36.1142 32.5957 35.7512 33.1489C35.7411 33.1489 35.0051 31.4987 34.6421 29.2954Z" fill="#AAAAAA"/>
<path d="M40.4278 20.3043C42.7166 20.6699 44.7634 21.57 46.6186 22.9107C47.032 23.2108 48.7058 24.9453 49.2301 24.6828C49.9863 24.2984 49.8451 23.4077 49.6031 22.6857C49.4821 22.3201 48.3932 21.1575 48.5747 20.6324C49.1192 21.0356 51.5693 24.364 53.6362 23.9608C54.1101 23.8671 54.7957 22.5263 55.0579 22.0951C55.4511 22.0107 55.0781 23.8014 55.2999 24.5046C55.6528 24.3546 57.6189 22.3576 58.0827 22.0576C58.2945 21.9263 58.4659 21.8419 58.6171 21.8138C58.6171 21.8138 58.6474 21.8044 58.6978 21.8044C58.9196 21.8044 59.5246 21.9825 59.938 23.8671L59.2927 23.0608C59.3532 24.0358 59.1213 25.4516 57.6391 26.3517C57.024 26.7267 56.9131 26.8298 57.1249 27.4393C57.7399 29.2488 57.5887 31.0677 56.9535 32.8397C56.4292 32.7553 56.2477 32.0146 55.7536 32.3334C55.441 32.5397 55.683 33.0647 55.7435 33.4304C56.0561 35.1555 55.7435 36.7213 54.4227 38.0433C52.1742 39.9184 49.462 38.9527 48.2218 36.5619C47.032 34.2648 46.7799 31.799 47.2337 29.3332C47.4757 28.0112 46.4271 28.0581 45.9027 28.1331C42.9586 27.9643 39.7321 26.7736 38.5423 21.8419C37.6147 22.1701 37.4131 23.6327 37.4131 23.6327C37.4131 23.6327 37.161 22.0013 37.4131 20.8387C37.6752 19.6761 40.4278 20.3043 40.4278 20.3043ZM46.1851 27.3736C47.4353 27.2424 47.7378 26.5954 47.0018 25.6391C46.6791 25.2078 45.7313 24.589 44.6525 23.989C44.5819 24.7109 44.3198 25.536 43.6543 26.3704C43.6543 26.3704 43.0392 26.9423 43.0392 25.2172C43.0392 25.2172 44.4407 24.364 43.1199 24.214C42.5351 24.1484 42.6964 23.6608 43.0493 23.1451C42.0209 22.6389 41.0832 22.2451 40.6496 22.1232C40.206 22.0013 39.964 22.2076 39.9942 22.5826C40.4278 26.6611 44.6122 27.533 46.1851 27.3736ZM51.3172 38.1745C53.6866 38.2964 55.5015 35.7462 54.2614 33.8992C53.8984 34.3586 53.1926 35.2587 53.1926 35.2587C51.4382 36.6744 49.7644 32.0521 49.6939 30.1207C49.6737 29.6144 53.4346 27.833 55.552 30.1582C55.8444 30.5145 56.1368 30.8708 56.4897 31.3021C57.0745 28.7425 56.1872 26.3517 54.2714 25.2641C51.6903 24.1202 49.7342 26.8861 50.0165 27.2799C46.7699 29.2863 47.8286 32.099 48.4134 34.8367C48.7058 36.4306 49.4115 38.0714 51.3172 38.1745ZM53.1422 33.2335C52.8296 32.3334 53.3741 29.8395 52.7994 29.7363C52.2851 29.6426 51.9827 29.9051 51.902 30.4489C51.6903 31.8646 52.0028 33.1772 52.5473 34.5086C53.2833 34.2179 53.3337 33.7679 53.1422 33.2335ZM56.9938 25.9766C58.2541 25.7985 58.8289 24.6546 58.3247 23.117C57.8508 23.3702 57.4677 23.6608 57.1249 23.9796C57.2156 24.364 57.2559 25.0297 56.7216 25.686C56.7216 25.686 56.4493 25.9391 56.4493 25.1703C56.4493 25.1703 57.0745 24.7953 56.4897 24.7203C56.4493 24.7203 56.4191 24.7109 56.3989 24.6921C56.3384 24.7484 56.288 24.8047 56.2275 24.8703C56.046 25.0578 55.8141 25.2359 56.0662 25.5547C56.3182 25.8547 56.5502 26.0423 56.9938 25.9766Z" fill="#AAAAAA"/>
<path d="M39.7757 17.1259C39.7757 17.1259 36.2367 16.3946 35.6519 19.3198C35.7023 19.2542 37.7491 16.4227 40.9554 18.2229C40.9554 18.2229 40.9554 17.4916 40.663 17.1259C40.663 17.1259 43.3148 17.4916 46.269 19.6855C46.269 19.6855 42.4376 15.6633 39.1909 16.3946C39.1808 16.3946 39.4833 16.3946 39.7757 17.1259Z" fill="#AAAAAA"/>
<path d="M61.6137 40.4052L78.0083 25.6383C78.21 25.8259 78.21 26.1446 78.0083 26.3321L61.4826 41.2865C61.3112 40.9959 61.3616 40.6302 61.6137 40.4052Z" fill="#AAAAAA"/>
<path d="M34.9431 46.5649C34.9431 46.5649 35.9917 48.2338 35.6187 51.0184L35.4674 52.6216L36.4354 49.7714V50.7465C36.4354 50.7465 37.1815 49.2182 37.2622 48.0369C37.2622 48.0369 37.7058 48.3182 37.7865 48.8713C37.7865 48.8713 37.9377 47.9713 37.1916 46.9212L37.0403 47.5493C37.0403 47.5493 36.7378 46.7805 36.143 46.3024C36.143 46.3024 36.3648 46.8555 36.143 48.0369C36.143 48.0275 35.7598 46.9774 34.9431 46.5649Z" fill="#AAAAAA"/>
<path d="M25.8698 56.1576C25.8698 56.1576 25.2447 57.7984 26.9386 59.186V58.4922C26.9386 58.4922 28.1888 59.7861 30.3365 60.0486C30.3365 60.0486 27.3016 58.661 27.2108 57.6296L26.5857 58.0609C26.5857 58.0609 25.6883 57.114 25.8698 56.1576Z" fill="#AAAAAA"/>
<path d="M50.886 54.6293C50.886 54.6293 50.1399 54.273 49.1114 54.2074C48.2846 54.048 47.115 54.0292 45.9858 54.6949L46.9336 54.8918C46.9336 54.8918 45.1187 55.5012 44.6044 57.3014C44.5641 57.4139 44.5238 57.9858 44.5439 58.2108L45.2195 57.7795C45.2094 57.967 45.2497 58.2671 45.2497 58.2671C45.3304 58.9328 45.6329 60.1985 46.8025 61.4923C46.8025 61.4923 46.6815 60.7048 47.4679 61.5767C47.4679 61.5767 46.0463 58.2577 46.9941 57.5264L45.9858 57.292C45.9858 57.292 46.7722 55.8575 48.7485 55.4731L48.2141 54.7605C48.2241 54.7605 48.6678 54.4043 50.886 54.6293Z" fill="#AAAAAA"/>
<path d="M57.0721 55.3505L57.8888 54.7599C57.8888 54.7599 56.5276 53.7566 54.5615 54.1598L54.7228 53.3066C54.7228 53.3066 53.2104 53.316 52.2424 54.2067C52.2424 54.2067 53.7548 52.4065 56.1646 52.7159L55.3882 53.2597C55.3882 53.2597 56.3259 53.2691 57.3544 53.7379C57.7779 53.8692 58.2215 54.1223 58.5845 54.563C58.6752 54.6473 58.9676 55.1536 59.0483 55.3693L58.2316 55.238C58.2316 55.238 59.1693 56.8506 58.4534 59.2321C58.4433 59.2227 58.2618 55.6506 57.0721 55.3505Z" fill="#AAAAAA"/>
<path d="M55.2797 27.5893C55.2797 27.5893 54.9773 26.3423 53.9387 26.2017C52.9002 26.0611 52.2952 26.483 52.5171 26.8955C52.7389 27.3081 54.0093 26.8205 55.2797 27.5893Z" fill="#AAAAAA"/>
<path d="M50.7127 35.2212C50.7127 35.2212 50.622 36.4963 51.5899 36.9088C52.5478 37.312 53.2536 37.0682 53.1628 36.6088C53.0721 36.1494 51.7008 36.2806 50.7127 35.2212Z" fill="#AAAAAA"/>
<path d="M38.3103 18.1762C38.3103 18.1762 39.5102 17.7543 41.1536 18.5137L41.3049 18.2606C41.3049 18.2606 43.0996 18.8513 44.0676 19.5169L41.3755 18.5887L41.1536 18.9263C41.1436 18.9357 39.8026 18.1012 38.3103 18.1762Z" fill="#AAAAAA"/>
<path d="M59.9899 21.2599C59.9899 21.2599 59.6269 20.0129 58.1951 20.6973L58.064 20.4723C58.064 20.4723 56.8541 21.1943 56.4004 22.235C56.4004 22.235 57.449 21.1193 57.9935 20.7723C58.0741 20.7255 58.185 21.0724 58.185 21.0724C58.185 21.0724 59.1631 20.1535 59.9899 21.2599Z" fill="#AAAAAA"/>
<path d="M45.3979 14.1067C45.3979 14.1067 47.1322 16.1694 48.9168 17.0226C50.7015 17.8852 50.7116 15.3818 50.7116 15.3818C50.7116 15.3818 52.7382 17.1257 52.839 18.5134C52.839 18.5134 52.7684 16.7788 52.7281 16.4319C52.6777 16.085 53.8876 17.4914 53.8876 17.4914C53.8876 17.4914 53.938 14.7349 52.1736 13.713C52.1736 13.713 52.0627 14.7349 51.3266 14.4068C50.5906 14.0786 49.1084 12.991 49.1084 12.991L49.4512 14.5755C49.4512 14.5755 47.8783 13.3942 46.6684 12.7566C46.6583 12.7566 48.7253 15.71 45.3979 14.1067Z" fill="#AAAAAA"/>
<path d="M52.8794 13.2626C52.8794 13.2626 54.6035 14.8659 54.3716 17.3598C54.3716 17.3598 54.9665 16.4598 54.5934 14.5096C54.6035 14.519 54.4523 14.8659 52.8794 13.2626Z" fill="#AAAAAA"/>
<path d="M37.7883 27.8228C37.7883 27.8228 40.4199 29.6323 42.5877 29.5948C44.7555 29.5667 43.0414 32.8857 43.2028 34.1702L42.5676 32.1825C42.5676 32.1825 42.1844 35.9985 43.1221 37.0861C43.1221 37.0861 41.2366 36.0547 40.7829 34.2921L40.7627 35.3422C40.7627 35.3422 38.9176 33.5795 39.2503 31.7794C39.5831 29.9886 38.595 29.4729 38.595 29.4729L39.6436 29.5011L37.7883 27.8228Z" fill="#AAAAAA"/>
<path d="M40.2676 28.583C40.2676 28.583 41.7901 29.3143 42.6471 29.1925C43.5041 29.0706 43.7764 30.4488 43.5041 31.8646C43.5041 31.8646 44.5628 29.1737 43.5747 28.658C42.5866 28.1424 41.9514 29.1456 40.2676 28.583Z" fill="#AAAAAA"/>
<path d="M30.6089 27.1673C30.6089 27.1673 29.1166 31.0582 30.2358 34.0491L30.6089 31.4801C30.6089 31.4801 30.9114 34.8179 31.5768 35.8586V32.4552C31.5768 32.4552 32.1717 35.8586 33.674 36.6931C33.674 36.6931 32.2524 32.8021 32.9279 30.1582C33.6035 27.5142 33.9765 26.5391 33.9765 26.5391L32.2524 29.3893L32.7767 25.9859L31.1332 29.3893L30.6089 27.1673Z" fill="#AAAAAA"/>
<path d="M27.5132 48.872C27.5132 48.872 25.3252 51.4879 25.547 54.0193L26.4747 52.1535C26.4747 52.1535 25.9201 54.76 26.2428 55.7069L27.0595 53.1192C27.0595 53.1192 26.7469 55.8476 27.7955 56.8226C27.7955 56.8226 27.9871 55.3132 29.1768 53.4568C30.3767 51.6004 30.4775 49.172 30.4775 49.172L28.3501 50.9441L29.6104 48.4782L27.4124 50.6909L27.5132 48.872Z" fill="#AAAAAA"/>
<path d="M59.9077 27.5897C59.9077 27.5897 61.1075 30.5056 58.9397 33.4308L59.3128 31.8276C59.3128 31.8276 57.5886 33.6371 57.5886 34.5372C57.5886 34.5372 57.8911 31.34 58.486 30.7869C59.0809 30.2337 59.3128 28.0773 59.3128 28.0773L59.6858 29.2586L59.9077 27.5897Z" fill="#AAAAAA"/>
<path d="M34.1165 58.5194C34.1165 58.5194 36.8086 57.9662 38.6739 59.2132C40.5392 60.4602 40.6904 61.229 40.6904 61.229L38.452 59.8413L39.6519 61.229C39.6519 61.229 38.079 60.0476 37.4135 60.4602C36.7481 60.8727 37.4135 61.5759 37.4135 61.5759C37.4135 61.5759 35.8406 60.3289 34.1165 60.6102C34.1165 60.6102 36.2137 59.2882 34.1165 58.5194Z" fill="#AAAAAA"/>
<path d="M29.2778 67.0335C29.5399 67.9617 29.8021 68.8805 30.0743 69.7993C29.1669 73.9246 28.2493 78.0406 27.3419 82.166C26.5151 81.8941 25.6883 81.594 24.8817 81.2846C25.3757 79.3813 25.8698 77.4874 26.3638 75.5842C25.5976 75.3966 24.8313 75.1998 24.0751 74.9841C23.5407 76.7561 22.9962 78.5188 22.4618 80.2908C21.6552 79.9345 20.8586 79.5689 20.0823 79.1751C21.2922 75.7717 22.5122 72.3683 23.7222 68.9742C23.5407 68.3273 23.3491 67.6804 23.1575 67.0335C24.2767 67.0335 25.3959 67.0335 26.505 67.0335C26.021 68.618 25.5371 70.2025 25.0531 71.787C24.9825 72.0026 24.9523 72.1151 24.8817 72.3308C25.6177 72.4714 26.3638 72.6027 27.11 72.7339C27.362 71.7776 27.604 70.8306 27.8561 69.8743C28.1082 68.9274 28.3502 67.9804 28.6022 67.0241C28.8644 67.0335 29.0055 67.0335 29.2778 67.0335Z" fill="#AAAAAA"/>
<path d="M29.0969 79.691C29.7926 76.2876 30.4883 72.8935 31.1841 69.4901C30.9219 68.665 30.6698 67.8306 30.4178 66.9962C31.547 66.9962 32.6763 66.9962 33.7955 66.9962C33.3922 69.387 32.9889 71.7684 32.5856 74.1593C32.2528 76.1094 31.9302 78.0596 31.5974 80.0097C32.4242 80.1785 33.2409 80.3473 34.0677 80.4973C34.6828 75.9969 35.2978 71.4965 35.9129 67.0055C36.1851 67.0055 36.3263 67.0055 36.6086 67.0055C36.9615 68.065 37.3245 69.1338 37.6975 70.1839C37.3043 73.8498 36.9211 77.5158 36.5279 81.1817C35.8322 82.1474 35.0962 83.0944 34.34 84.0226C32.9889 83.7413 31.6479 83.4225 30.3169 83.0756C29.9035 81.9505 29.4902 80.8254 29.0969 79.691Z" fill="#AAAAAA"/>
<path d="M44.4915 67.0145C44.9553 68.1302 45.4292 69.2272 45.9233 70.3335C45.9233 75.2746 45.9333 80.2156 45.9333 85.1566C45.0561 85.1566 44.1789 85.1379 43.3118 85.1004C43.3622 83.3659 43.4026 81.6313 43.453 79.9062C42.485 77.9935 41.5574 76.0621 40.6802 74.112C40.4584 77.6935 40.2265 81.2844 40.0047 84.866C39.1376 84.7816 38.2704 84.6691 37.4033 84.5472C37.857 79.6343 38.3108 74.7214 38.7544 69.8179C38.4116 68.8897 38.0688 67.9521 37.7361 67.0145C37.7461 67.0145 37.7461 67.0145 37.7461 67.0145C38.6032 67.0145 39.4602 67.0145 40.3072 67.0145C40.3273 67.0145 40.3475 67.0145 40.3677 67.0145C40.4786 67.3333 40.529 67.4927 40.6399 67.8114C41.5675 70.0429 42.5455 72.2462 43.5841 74.4307C43.6143 73.165 43.6546 71.8899 43.6849 70.6242C43.7151 69.4241 43.7454 68.2146 43.7857 67.0145C44.0781 67.0145 44.2193 67.0145 44.4915 67.0145Z" fill="#AAAAAA"/>
<path d="M49.6764 85.0352C49.4848 80.2254 49.2832 75.4156 49.0916 70.6058C48.3455 70.6152 47.9825 70.6246 47.2364 70.6246C46.6919 69.4245 46.1575 68.215 45.6433 66.9962C47.8918 66.9962 50.1402 66.9962 52.3887 66.9962C53.0239 68.1588 53.6692 69.312 54.3447 70.4558C53.4978 70.4839 52.6508 70.5215 51.814 70.5402C51.6123 70.5496 51.5014 70.5496 51.2997 70.5496C51.4711 73.0342 51.6426 75.5094 51.814 77.9939C51.8341 78.3034 51.8442 78.4534 51.8644 78.7628C52.0055 80.7692 52.1467 82.785 52.2778 84.7914C51.4207 84.9039 50.5536 84.9789 49.6764 85.0352Z" fill="#AAAAAA"/>
<path d="M62.2196 71.4129C61.4835 71.4973 60.7475 71.5723 60.0114 71.6379C59.9005 71.066 59.8501 70.7754 59.7392 70.2034C59.0133 70.2503 58.2873 70.2972 57.5613 70.3347C57.7327 71.441 57.9041 72.538 58.0756 73.6443C58.8418 73.56 59.6081 73.4756 60.3744 73.3724C60.5761 74.4225 60.7777 75.482 60.9693 76.5321C60.1728 76.6727 59.3863 76.8134 58.5898 76.9352C58.7612 78.0416 58.9326 79.1386 59.104 80.2449C59.9207 80.0761 60.7273 79.898 61.544 79.7105C61.4331 79.1386 61.3827 78.8479 61.2718 78.276C62.0683 78.0978 62.8548 77.9197 63.6513 77.7228C63.7925 78.3697 63.8731 78.6979 64.0143 79.3448C63.6412 80.4512 63.248 81.5669 62.8548 82.6732C60.9491 83.2358 59.0334 83.7046 57.0774 84.0983C56.4825 79.3261 55.8977 74.5538 55.3028 69.7815C54.7583 68.8815 54.2239 67.972 53.7097 67.0532C55.7565 67.0532 57.7932 67.0532 59.84 67.0532C60.4954 67.9908 61.1609 68.9096 61.8667 69.8097C61.9978 70.4378 62.0784 70.7566 62.2196 71.4129Z" fill="#AAAAAA"/>
<path d="M65.7867 81.6784C64.7886 77.5718 63.7904 73.4652 62.7922 69.3586C62.157 68.5898 61.552 67.8023 60.947 67.0053C63.014 67.0053 65.0709 67.0053 67.1378 67.0053C67.8638 67.7273 68.6099 68.4211 69.3863 69.1055C69.7089 69.9212 70.0316 70.7369 70.3441 71.5526C70.1727 72.087 70.082 72.3683 69.9005 72.9496C70.4349 73.3434 70.7071 73.5215 71.2516 73.8684C71.3726 74.1684 71.423 74.3091 71.544 74.6091C71.544 74.6091 71.544 74.6091 71.5339 74.6091C72.0381 75.8936 72.5422 77.178 73.0463 78.4532C72.27 78.8657 71.4734 79.2595 70.6769 79.6439C70.1122 77.9562 69.5476 76.2686 68.983 74.5903C68.2167 74.8153 67.4504 75.031 66.6841 75.2373C66.7849 75.5935 66.8353 75.7623 66.9362 76.1186C66.9362 76.1186 66.9362 76.1186 66.9261 76.1186C67.3597 77.6562 67.8033 79.1938 68.2369 80.7315C67.4302 81.0596 66.6135 81.3784 65.7867 81.6784ZM67.2891 69.5368C66.5631 69.6118 65.8372 69.6868 65.1112 69.7524C65.3734 70.6713 65.6355 71.5807 65.8977 72.4995C66.6438 72.3683 67.3899 72.2183 68.136 72.0682C67.8537 71.2151 67.5714 70.3712 67.2891 69.5368Z" fill="#AAAAAA"/>
<path d="M30.6016 69.5173C30.4302 68.9735 30.2588 68.4109 30.0874 67.839C30.2386 68.3641 30.4 68.936 30.5915 69.5735C30.6016 69.5548 30.6016 69.536 30.6016 69.5173Z" fill="#AAAAAA"/>
<path d="M65.8188 70.2026L66.3028 71.8808C66.6759 71.8152 67.049 71.7402 67.422 71.6652L66.8977 70.0901C66.5347 70.137 66.1818 70.1745 65.8188 70.2026Z" fill="#AAAAAA"/>
<path d="M38.1914 69.8844C38.0603 69.5188 37.9192 69.1531 37.7881 68.7875C37.9192 69.1719 38.0502 69.5563 38.1914 69.9313V69.8844Z" fill="#AAAAAA"/>
<path d="M28.9448 67.9055L27.5332 73.3434L27.0089 73.259C26.2628 73.1371 25.5066 72.9965 24.7705 72.8559L24.1756 72.7434L25.7586 67.5585H23.8832C24.0042 67.9523 24.1252 68.3836 24.2563 68.843L24.2966 68.993L20.7576 78.922C21.2012 79.1376 21.6549 79.3439 22.0986 79.5502L23.6917 74.3279L24.2361 74.4779C24.9822 74.6841 25.7485 74.8904 26.5047 75.0685L27.0391 75.1998L25.5368 80.9659C25.9905 81.1347 26.4543 81.3034 26.9181 81.4628L29.4892 69.8181C29.2876 69.1056 29.1061 68.4774 28.9448 67.9055Z" fill="#AAAAAA"/>
<path d="M37.12 70.2403C36.868 69.5183 36.6058 68.7776 36.3437 67.9807L34.5489 81.1162L33.9641 81.0037C33.1373 80.8536 32.3005 80.6849 31.4737 80.5161L30.9595 80.413L33.1373 67.5213H31.151C31.3426 68.1401 31.5241 68.7589 31.7157 69.3496L31.756 69.4714L31.7358 69.5933C31.0502 72.9499 30.3646 76.3064 29.679 79.6629C30.0117 80.5911 30.3646 81.5662 30.7679 82.6444C31.877 82.9351 32.9962 83.1976 34.1255 83.4414C34.7909 82.6163 35.4161 81.7912 36.0009 81.0037L37.12 70.2403Z" fill="#AAAAAA"/>
<path d="M44.33 68.0745L44.098 76.7658L43.0898 74.6469C42.0613 72.4998 41.0732 70.259 40.1355 67.9995L40.1254 67.9713C40.0649 67.7932 40.0246 67.6713 39.9742 67.5401H38.5223C38.7743 68.2432 39.0365 68.9464 39.2886 69.6496L39.3289 69.7527L39.2886 70.1653C38.8651 74.8157 38.4315 79.466 38.0081 84.107C38.492 84.1727 38.9861 84.2289 39.4801 84.2852L40.2666 71.8342L41.2043 73.9062C42.0916 75.8657 43.0192 77.8159 43.967 79.6817L44.0275 79.7942L43.8964 84.604C44.3905 84.6227 44.8845 84.6321 45.3886 84.6321L45.3786 70.4278C44.9853 69.5933 44.6526 68.8152 44.33 68.0745Z" fill="#AAAAAA"/>
<path d="M46.4673 67.5215C46.8403 68.3841 47.2235 69.256 47.6066 70.0998C48.1209 70.0998 48.4738 70.0905 49.0787 70.0811L49.6232 70.0717L50.208 84.4635C50.7021 84.426 51.1961 84.3791 51.6801 84.3323L50.692 70.0436L51.2768 70.0248C51.4784 70.0155 51.5893 70.0154 51.791 70.0154C52.3355 69.9967 52.8799 69.9779 53.4244 69.9592C52.9606 69.1529 52.4968 68.3372 52.0431 67.5121H46.4673V67.5215Z" fill="#AAAAAA"/>
<path d="M60.4746 71.0651C60.8376 71.0276 61.1905 70.9901 61.5535 70.9526L61.3418 70.0056C60.757 69.2556 60.1621 68.4586 59.5269 67.5585C57.8935 67.5585 56.26 67.5585 54.6367 67.5585C55.0199 68.2149 55.403 68.8712 55.7862 69.5087L55.8366 69.6025L57.5506 83.4505C59.1941 83.1036 60.7872 82.7004 62.4005 82.241C62.8038 81.1253 63.1264 80.1784 63.4289 79.3064L63.2172 78.3594C62.7836 78.4626 62.35 78.5657 61.9165 78.6595L62.1887 80.094L61.6846 80.2158C60.878 80.4034 60.0512 80.5815 59.2345 80.7503L58.6396 80.8722L57.964 76.5124L58.4984 76.428C59.1034 76.3343 59.7184 76.2311 60.3335 76.1186L59.9201 73.9622C59.3353 74.0372 58.7404 74.1028 58.1455 74.1685L57.6011 74.2247L56.9255 69.8556L57.5305 69.8181C58.2564 69.7806 58.9824 69.7337 59.7084 69.6869L60.2125 69.6494L60.4746 71.0651Z" fill="#AAAAAA"/>
<path d="M70.8287 74.3093L70.7884 74.1968C70.3347 73.9062 70.0523 73.7093 69.5583 73.353L69.2558 73.1374L69.3667 72.7998C69.528 72.2842 69.6188 72.0123 69.7599 71.5716L68.913 69.3964C68.2375 68.7964 67.572 68.187 66.9065 67.5213H62.0466C62.4096 67.9995 62.823 68.5151 63.2465 69.0308L63.3171 69.1245L66.1906 80.9662C66.6545 80.788 67.1183 80.6099 67.572 80.4224L66.2411 75.7626H66.2511L65.9991 74.8719L66.5234 74.7313C67.2594 74.5344 68.0358 74.3187 68.8122 74.0937L69.3466 73.9343L71.0102 78.9035C71.4639 78.6878 71.9076 78.4534 72.3512 78.2284L70.8287 74.3093ZM68.2576 72.5748C67.5115 72.7248 66.7553 72.8749 65.9991 73.0061L65.4849 73.0999L64.3959 69.2933L65.0513 69.2371C65.7672 69.1714 66.5032 69.0964 67.2191 69.0214L67.6829 68.9745L68.8424 72.4529L68.2576 72.5748Z" fill="#AAAAAA"/>
</svg>
