<svg width="80" height="75" viewBox="0 0 80 75" fill="none" xmlns="http://www.w3.org/2000/svg">
<path d="M75.7345 67.9357L73.9757 67.2919C66.3674 64.4871 57.5654 62.9182 51.525 62.0968C45.6278 61.2902 41.2108 61.0237 39.8181 60.9645L39.3247 60.9497L38.3219 60.9793V60.9497C36.7143 60.9571 33.2842 61.0311 28.8673 61.4974C21.2352 62.2966 14.2795 63.8433 8.19133 66.0856L6.54393 66.6924L7.88095 59.9877L4.26782 55.2292L9.16225 53.4309L10.1252 49.5753L10.5868 49.3977C10.6584 49.3681 12.4411 48.6725 15.5131 47.7992C18.0598 47.0814 21.9674 46.112 26.6708 45.4015C26.448 45.0981 26.2331 44.7873 26.0182 44.4765L11.1996 35.3962L11.7567 34.6339C11.8522 34.5081 13.8259 31.8292 17.1605 29.6535C16.1418 29.5499 15.6802 29.0022 15.529 28.7728C15.1231 28.1956 15.0276 27.5296 15.2425 26.8635L7.0294 19.2263C5.98684 18.8267 5.62871 18.1015 5.42975 17.1468C5.31833 16.6288 5.50934 16.0812 6.00276 15.5261C6.86227 14.5493 8.78821 13.4614 10.1809 13.4614C11.1359 13.4614 11.9079 13.9202 12.3058 14.7269C12.4252 14.9711 12.4968 15.2079 12.5287 15.4003L17.5902 19.8628C17.4629 18.5603 17.3674 17.2356 17.3196 15.911C17.3117 15.7111 17.3117 15.5113 17.3196 15.3855C17.3196 15.3485 17.3196 15.3115 17.3196 15.2893V14.6085L18.02 14.4161C19.0944 14.1201 20.1767 13.8462 21.2113 13.5872C22.7632 13.195 24.2514 12.8176 25.6999 12.381C25.7237 11.5447 25.867 10.9601 25.875 10.9305L26.1853 9.70943L28.9389 11.2635C31.2708 10.3533 33.5867 9.258 35.8309 8.19975C36.6507 7.80752 37.5022 7.4079 38.3458 7.02308C39.0143 6.71227 39.7624 6.50506 40.7095 7.03788C43.7177 8.74737 46.8215 10.1905 49.9333 11.3301L52.7903 9.71683L53.1007 10.9379C53.1087 10.9675 53.2599 11.5669 53.2758 12.4328C55.4883 13.0914 57.7564 13.6094 60.0246 13.9795C60.2633 14.0165 60.4782 14.0831 60.7169 14.1571C60.8363 14.1941 60.9716 14.2311 61.1228 14.2755L61.8948 14.4901L61.8232 15.2375C61.7436 16.0442 61.672 16.8656 61.6003 17.6648C61.4491 19.4335 61.2899 21.2614 61.0114 23.0597C60.7169 24.9542 60.3429 26.8043 59.9131 28.573C62.1495 29.6905 63.9242 31.1706 65.0622 32.2584C66.4231 33.5609 67.1792 34.6043 67.211 34.6413L67.7681 35.4036L66.1764 36.3804L66.3038 36.5284L66.1207 36.41L53.0132 44.4543C52.7665 44.8169 52.5198 45.1721 52.2651 45.5199C57.4221 46.3414 61.9266 47.481 64.9031 48.3247C68.4525 49.3385 70.6093 50.1452 70.6968 50.1748L71.1664 50.3524L75.7345 67.9357ZM64.1152 33.9531L64.9667 34.9448L65.0065 34.9226C64.7678 34.6487 64.4733 34.3157 64.1152 33.9531ZM9.70343 15.6741C9.71139 15.6815 9.71934 15.6889 9.7273 15.6963L10.1252 15.2819L9.70343 15.6741ZM9.55222 15.4447C9.57609 15.5261 9.62384 15.6001 9.68751 15.6593L10.1173 15.2893C10.1013 15.2893 10.0854 15.2893 10.0695 15.2967L9.55222 15.4447ZM23.6307 40.5395L21.6172 39.5996L23.4874 38.4451L23.8535 38.9558L24.0047 38.6746L23.8535 38.9558L24.5698 39.9622L23.6307 40.5395ZM54.8755 40.2434L54.4377 39.9696L55.528 38.4525L55.9658 38.7264L54.8755 40.2434ZM18.1871 33.9383L18.1075 33.8791L19.349 32.473L19.4286 32.5322L18.1871 33.9383Z" fill="#AAAAAA"/>
<path d="M18.2985 15.2895C18.2985 15.3931 18.2905 15.6374 18.2985 15.8816C18.5611 22.7935 19.8901 29.4909 22.5244 35.8996C25.8669 44.0401 31.0877 50.6338 38.7835 55.1258C39.3565 55.4589 39.7305 55.4219 40.2717 55.1036C45.9222 51.7957 50.3391 47.2814 53.6418 41.6645C57.064 35.8552 59.0217 29.5353 60.0563 22.9193C60.4542 20.344 60.6055 17.7317 60.8601 15.1415C60.3906 15.0157 60.128 14.9195 59.8574 14.8751C52.8699 13.7281 46.344 11.3081 40.2001 7.81515C39.6589 7.50433 39.3087 7.59313 38.7835 7.83735C35.3136 9.43583 31.8835 11.1749 28.3022 12.4922C25.1109 13.6615 21.7445 14.3497 18.2985 15.2895Z" fill="#AAAAAA"/>
<path d="M64.3222 34.862L55.4246 39.4798L52.7586 37.8295L53.3555 37.0895L51.1589 35.232L55.1461 37.0895L61.3935 32.3088C62.5315 33.0119 63.582 33.8629 64.3222 34.862Z" fill="#AAAAAA"/>
<path d="M60.1776 31.6232L54.9489 35.9821L50.8264 34.65L55.1478 29.6769C55.1478 29.6769 57.6547 30.306 60.1776 31.6232Z" fill="#AAAAAA"/>
<path d="M53.4331 27.6937C53.4888 28.1081 53.3456 28.3745 53.3456 28.3745L44.9733 37.4622L43.7796 35.0497L41.1851 36.3447V35.4197L39.5934 36.1597H39.3945L37.8028 35.4197V36.3447L35.2004 35.0497L34.0066 37.4622L25.6343 28.3745C25.6343 28.3745 25.4911 28.1081 25.5468 27.6937C27.6717 30.8092 31.054 33.0812 31.054 33.0812C30.7277 31.8971 30.6084 30.713 30.6322 29.5734L32.208 30.6168C34.9139 34.5242 39.4979 35.6861 39.4979 35.6861C39.4979 35.6861 44.074 34.5168 46.7878 30.6168L48.3636 29.5734C48.3875 30.713 48.2681 31.8971 47.9418 33.0812C47.9339 33.0812 51.3082 30.8092 53.4331 27.6937Z" fill="#AAAAAA"/>
<path d="M50.9981 22.2016L53.1788 24.2293C53.0992 24.4809 52.9957 24.7991 52.8604 25.1617C52.7251 25.5243 52.55 25.924 52.3352 26.3236C51.8656 27.2042 51.1891 28.0997 50.2262 28.6177C50.2262 28.6177 50.2023 28.5141 50.1545 28.3291C50.0272 27.8259 49.7168 26.7158 49.2234 25.3689C49.1359 25.1173 49.0324 24.8657 48.929 24.5993C49.5258 24.2071 50.3933 23.6668 50.9981 22.2016Z" fill="#AAAAAA"/>
<path d="M52.7804 40.8523L40.1902 47.3942V45.0631L46.5728 41.9105L40.1902 43.768V40.5045L46.7718 39.3204L50.3611 35.1836V40.0604L52.7804 40.8523Z" fill="#AAAAAA"/>
<path d="M39.4907 19.523L51.3806 12.389C51.3806 15.7784 48.6986 17.2067 48.6986 17.2067C44.0986 18.2797 39.4907 22.3796 39.4907 22.3796C39.4907 22.3796 34.8907 18.2797 30.2828 17.2067C30.2828 17.2067 27.6008 15.7784 27.6008 12.389L39.4907 19.523Z" fill="#AAAAAA"/>
<path d="M50.4276 21.3133C50.4276 21.6241 49.8784 23.6814 48.9234 24.5843C48.1833 22.7342 47.1407 20.6177 45.7639 19.1006C46.5677 18.6862 47.3636 18.3384 48.0878 18.1089C48.6369 18.7824 50.4276 21.0099 50.4276 21.3133Z" fill="#AAAAAA"/>
<path d="M48.0846 27.1086C47.8538 27.6414 47.4082 28.5886 46.7237 29.6099C46.2383 30.3351 45.6255 31.0974 44.8933 31.7634C46.2065 29.6247 47.2729 25.8727 47.2729 25.8727L46.3656 22.1725C47.0262 23.4972 47.7106 25.1993 48.0846 27.1086Z" fill="#AAAAAA"/>
<path d="M46.3073 14.4377L39.487 18.2785V14.7115C39.487 15.7846 38.532 16.1398 38.532 16.1398L38.0067 17.4422L32.6746 14.4377C33.0247 13.446 34.5846 10.0789 39.4949 10.0789C44.4053 10.0789 45.9492 13.4386 46.3073 14.4377Z" fill="#AAAAAA"/>
<path d="M44.5014 23.1698C44.4616 23.1772 42.2969 23.4658 41.3738 24.3317C41.3738 24.3317 42.3129 25.2049 43.252 24.6203C44.1751 24.0505 44.4855 23.1994 44.5014 23.1698ZM34.4818 23.1698C34.4897 23.1994 34.8081 24.0505 35.7312 24.6277C36.6703 25.2123 37.6094 24.3391 37.6094 24.3391C36.6783 23.4658 34.5216 23.1772 34.4818 23.1698ZM44.9551 22.378C44.9551 22.378 46.3796 23.7471 46.0692 24.6277C46.0692 24.6277 40.7451 26.6628 39.4956 26.6628C38.2461 26.6628 32.9219 24.6277 32.9219 24.6277C32.6115 23.7545 34.0361 22.3854 34.0361 22.378C36.153 23.0662 39.3682 24.3317 39.4956 25.7674C39.615 24.3391 42.8381 23.0662 44.9551 22.378Z" fill="#AAAAAA"/>
<path d="M36.4198 22.0228C36.3641 21.9932 34.5019 20.9423 34.3108 20.2393C34.2313 19.9433 34.1835 19.7361 34.1596 19.6029C36.8973 21.1348 39.4918 23.0959 39.4918 23.0959C39.4918 23.0959 42.0862 21.1348 44.8239 19.6029C44.8001 19.7435 44.7523 19.9433 44.6727 20.2393C44.4817 20.9423 42.6194 21.9932 42.5637 22.0228L45.5641 20.7055C45.6834 20.9053 45.8108 21.12 45.9381 21.3642C41.5212 22.2892 39.4838 24.5241 39.4838 24.5241C39.4838 24.5241 37.4544 22.2966 33.0295 21.3642C33.1648 21.1274 33.2842 20.9053 33.4036 20.7055L36.4198 22.0228Z" fill="#AAAAAA"/>
<path d="M46.3156 24.904C46.0768 25.9327 45.1218 29.6255 43.2436 31.6162C41.0551 33.9473 40.4264 33.9473 40.4264 33.9473H41.6758C41.6758 33.9473 40.4264 35.1092 39.4873 35.1092C38.5482 35.1092 37.2987 33.9473 37.2987 33.9473H38.5482C38.5482 33.9473 37.9195 33.9473 35.7309 31.6162C33.8607 29.6255 32.8977 25.9327 32.6589 24.904C34.4257 26.0141 39.4873 27.25 39.4873 27.25C39.4873 27.25 44.5488 26.0067 46.3156 24.904Z" fill="#AAAAAA"/>
<path d="M44.5053 23.1698C44.4974 23.1994 44.1791 24.0505 43.2559 24.6277C42.3168 25.2123 41.3777 24.3391 41.3777 24.3391C42.3009 23.4659 44.4576 23.1772 44.5053 23.1698Z" fill="#AAAAAA"/>
<path d="M38.7916 45.0631V47.3942L26.2014 40.8523L28.6208 40.0604V35.1836L32.21 39.3204L38.7916 40.5045V43.768L32.4169 41.9105L38.7916 45.0631Z" fill="#AAAAAA"/>
<path d="M37.6137 24.3318C37.6137 24.3318 36.6746 25.2051 35.7356 24.6205C34.8124 24.0432 34.494 23.1922 34.4861 23.1626C34.5259 23.1774 36.6826 23.466 37.6137 24.3318Z" fill="#AAAAAA"/>
<path d="M34.0959 31.7634C33.3637 31.0974 32.7509 30.3351 32.2654 29.6099C31.581 28.596 31.1353 27.6414 30.9045 27.1086C31.2706 25.1993 31.963 23.4972 32.6236 22.1725L31.7163 25.8727C31.7163 25.8727 32.7827 29.6173 34.0959 31.7634Z" fill="#AAAAAA"/>
<path d="M30.9006 18.1089C31.6248 18.3384 32.4206 18.6862 33.2244 19.1006C31.8476 20.6177 30.7971 22.7268 30.0649 24.5843C29.1099 23.674 28.5608 21.6241 28.5608 21.3133C28.5608 21.0099 30.3594 18.7824 30.9006 18.1089Z" fill="#AAAAAA"/>
<path d="M30.045 24.614C29.9415 24.873 29.846 25.132 29.7505 25.3762C29.2571 26.7157 28.9467 27.8331 28.8194 28.3364C28.7716 28.5214 28.7477 28.625 28.7477 28.625C27.7848 28.0995 27.1083 27.2115 26.6388 26.3309C26.4239 25.9312 26.2488 25.5316 26.1135 25.169C25.9782 24.8064 25.8748 24.4882 25.7952 24.2365L27.9758 22.2088C28.5965 23.6667 29.456 24.2069 30.045 24.614Z" fill="#AAAAAA"/>
<path d="M23.8405 29.6769L28.1619 34.65L24.0395 35.9821L18.8108 31.6232C21.3416 30.306 23.8405 29.6769 23.8405 29.6769Z" fill="#AAAAAA"/>
<path d="M27.8222 35.232L25.6256 37.0895L26.2225 37.8295L23.5565 39.4798L14.6589 34.862C15.3911 33.8629 16.4496 33.0119 17.5876 32.3088L23.835 37.0895L27.8222 35.232Z" fill="#AAAAAA"/>
<path d="M22.0981 26.5679L23.3476 28.048C21.9787 28.3144 20.7054 28.7806 19.5594 29.3579L19.5833 29.3431L18.3577 28.0998C18.3577 28.0998 18.5566 25.1323 21.748 26.2423L22.0981 26.5679Z" fill="#AAAAAA"/>
<path d="M18.9833 33.1079L17.9089 33.8776L23.7504 38.451L26.1777 37.3188L28.1753 35.0987L26.9577 35.3281L23.9414 36.6823L22.1906 35.0987L18.9833 33.1079Z" fill="#AAAAAA"/>
<path d="M18.1547 24.3849C18.2025 24.3775 20.3512 23.8373 20.9481 24.3849C21.545 24.9399 21.1471 25.31 21.1471 25.31C21.1471 25.31 18.9506 24.9399 18.3537 26.605C18.0353 27.4931 17.9398 27.8039 17.9239 27.9001C17.717 27.8631 16.4039 27.5893 16.953 26.05L8.03955 17.7616C8.34993 17.0881 9.05823 16.2445 10.6977 15.9633L19.0699 23.5709C18.7675 23.7485 18.4571 24.0149 18.1547 24.3849Z" fill="#AAAAAA"/>
<path d="M10.1736 14.9257C10.6511 15.0145 10.4681 15.5325 10.4681 15.5325C9.86322 15.6583 8.47049 16.0802 7.53935 17.4566C7.26081 17.3604 6.84697 17.1532 6.98226 16.7832C7.18918 16.2282 9.17879 14.7407 10.1736 14.9257Z" fill="#AAAAAA"/>
<path d="M24.6718 30.4013L23.3586 30.8528L26.8603 34.3309L25.1095 35.7814L28.5635 34.8342L24.6718 30.4013Z" fill="#AAAAAA"/>
<path d="M60.0384 33.1079L61.1128 33.8776L55.2713 38.451L52.836 37.3188L50.8464 35.0987L52.0641 35.3281L55.0803 36.6823L56.8312 35.0987L60.0384 33.1079Z" fill="#AAAAAA"/>
<path d="M54.3475 30.4013L55.6606 30.8528L52.1589 34.3309L53.9098 35.7814L50.4558 34.8342L54.3475 30.4013Z" fill="#AAAAAA"/>
<path d="M61.3499 32.2071L62.9575 34.0646L61.5489 35.1969L61.8354 35.6483L59.4558 37.5946L64.6129 35.0563V34.331L61.3499 32.2071Z" fill="#AAAAAA"/>
<path d="M55.0339 29.4901L58.5834 31.577L57.509 32.5687L57.7557 32.8425L56.5858 34.922L60.8197 31.5252L58.8221 30.7112L55.0339 29.4901Z" fill="#AAAAAA"/>
<path d="M45.8808 38.4511L50.059 35.2689L50.3136 34.6917L50.3694 35.0321L50.4569 34.9655L50.3773 35.0987L51.1891 39.9903L53.2742 40.7082L52.351 41.3002L50.4569 39.9903L49.5337 36.4677L47.4884 39.8053L42.2358 40.8932V42.2919L46.3583 41.981L42.2358 44.7414V45.4592L47.9261 43.5647L39.5061 48.1752V39.4871L45.8808 38.4511Z" fill="#AAAAAA"/>
<path d="M39.5064 27.2321L34.3493 26.2775L34.8825 28.135L36.9279 29.8075H35.368C35.368 29.8075 37.8033 33.5151 39.3552 33.5151H39.4984V35.3282L37.9386 34.6917L36.1877 33.0636L34.1902 29.9851L32.4871 25.419L32.6303 24.7826L34.3334 25.419L39.5064 27.2321Z" fill="#AAAAAA"/>
<path d="M39.3621 27.232L44.5191 26.2848L43.9859 28.1422L41.9406 29.8147H43.5004C43.5004 29.8147 41.0652 33.5223 39.5133 33.5223H39.3621V35.3354L40.9219 34.699L42.6728 33.0709L44.6703 29.9923L46.3734 25.4263L46.2302 24.7899L44.5271 25.4263L39.3621 27.232Z" fill="#AAAAAA"/>
<path d="M49.1927 38.3126L47.8319 40.3107L43.9402 41.1247V41.6576L47.9751 40.8879C47.9751 40.8953 49.1927 40.1553 49.1927 38.3126Z" fill="#AAAAAA"/>
<path d="M50.316 41.5758L46.5676 43.4703L45.1589 43.9217L46.9098 42.4787L49.7271 41.302L50.316 41.5758Z" fill="#AAAAAA"/>
<path d="M29.0496 32.5693L33.2357 35.5591L33.4744 35.1003L32.6468 33.1096L37.955 36.4175L35.5198 35.9661L34.1111 38.0456L29.0496 32.5693Z" fill="#AAAAAA"/>
<path d="M49.7742 32.5693L45.5961 35.5591L45.3493 35.1003L46.177 33.1096L40.8767 36.4175L43.304 35.9661L44.7206 38.0456L49.7742 32.5693Z" fill="#AAAAAA"/>
<path d="M17.6685 32.2071L16.0609 34.0646L17.4695 35.1969L17.1751 35.6483L19.5626 37.5946L14.4055 35.0563V34.331L17.6685 32.2071Z" fill="#AAAAAA"/>
<path d="M32.3607 18.4551L30.3631 21.4818V22.8435L29.7105 24.22L29.1932 23.7463L28.1746 26.1885L28.4213 28.6306L28.9067 28.9044L30.8963 23.1617L32.7507 20.1275L33.6738 19.0841L32.3607 18.4551Z" fill="#AAAAAA"/>
<path d="M23.9872 29.4901L20.4377 31.577L21.5121 32.5687L21.2654 32.8425L22.4353 34.922L18.2014 31.5252L20.191 30.7112L23.9872 29.4901Z" fill="#AAAAAA"/>
<path d="M31.4833 18.0928L29.0957 21.349L29.4857 24.0205L28.4193 22.3925L26.3739 24.3314L27.1061 27.4099L25.2996 24.2426L27.7826 21.756L28.7058 20.35L30.6078 17.6414L31.4833 18.0928Z" fill="#AAAAAA"/>
<path d="M46.7533 18.4551L48.7509 21.4818V22.8435L49.4035 24.22L49.9208 23.7463L50.9395 26.1885L50.6927 28.6306L50.2073 28.9044L48.2177 23.1617L46.3634 20.1275L45.4402 19.0841L46.7533 18.4551Z" fill="#AAAAAA"/>
<path d="M47.5808 18.0928L49.9683 21.349L49.5784 24.0205L50.6448 22.3925L52.6901 24.3314L51.9579 27.4099L53.7645 24.2426L51.2815 21.756L50.3583 20.35L48.4562 17.6414L47.5808 18.0928Z" fill="#AAAAAA"/>
<path d="M33.1384 38.4511L28.9602 35.2689L28.7056 34.6917L28.6498 35.0321L28.5623 34.9655L28.6419 35.0987L27.8301 39.9903L25.7371 40.7082L26.6682 41.3002L28.5623 39.9903L29.4855 36.4677L31.5308 39.8053L36.7834 40.8932V42.2919L32.6609 41.981L36.7834 44.7414V45.4592L31.0931 43.5647L39.5051 48.1752V39.4871L33.1384 38.4511Z" fill="#AAAAAA"/>
<path d="M39.5039 18.9534L28.3621 12.5743L30.0174 15.8305C30.0174 15.8305 34.689 17.3697 35.7077 18.4576L39.5039 21.3511L43.3 18.4576C44.3187 17.3697 48.9903 15.8305 48.9903 15.8305L50.6457 12.5743L39.5039 18.9534Z" fill="#AAAAAA"/>
<path d="M9.09239 16.5642L17.1304 24.157L18.1968 23.6611L17.6159 24.7934C17.6159 24.7934 18.7857 24.4308 19.3667 24.564C19.9477 24.6972 20.3376 25.4224 20.3376 25.4224L18.9768 26.0071L18.0058 28.1754L16.7404 27.9016L16.6449 26.3179L7.79517 17.6446L8.37613 16.9638L9.09239 16.5642Z" fill="#AAAAAA"/>
<path d="M8.22675 15.3344C8.22675 15.3344 8.61671 16.2372 8.91117 16.3778L7.68557 17.6877L6.9534 17.4583L6.65894 17.0512L7.39111 15.8302L8.22675 15.3344Z" fill="#AAAAAA"/>
<path d="M33.2371 14.8382C33.2371 14.8382 33.7225 12.6477 34.5502 12.2185C34.5502 12.2185 33.6748 14.9344 36.0066 16.4663C38.3384 17.9908 39.5083 18.7086 39.5083 18.7086L43.5432 16.1777C43.5432 16.1777 43.8377 15.3636 43.201 14.4608C43.201 14.4608 43.9332 14.4164 43.8854 13.6023C43.8377 12.7883 42.5723 11.5006 41.8401 11.2194C41.8401 11.2194 44.4187 11.3156 46.1218 14.8456L39.5083 19.1378L33.2371 14.8382Z" fill="#AAAAAA"/>
<path d="M35.5113 19.9298C35.5113 19.9298 35.4795 20.655 35.9331 21.0546C36.3868 21.4469 37.5964 22.5421 37.5964 22.5421L35.5034 21.8465L35.384 22.1721L32.6702 21.7799L32.7657 20.9288L33.9753 19.1379L35.5113 19.9298Z" fill="#AAAAAA"/>
<path d="M43.4472 19.9298C43.4472 19.9298 43.479 20.655 43.0254 21.0546C42.5717 21.4543 41.3621 22.5421 41.3621 22.5421L43.4551 21.8465L43.5825 22.1795L46.2963 21.7873L46.2008 20.9362L44.9831 19.1379L43.4472 19.9298Z" fill="#AAAAAA"/>
<path d="M19.3397 25.9159L21.8944 29.1277L19.7058 29.7641L18.0027 28.1804L18.6871 26.3229L19.3397 25.9159Z" fill="#AAAAAA"/>
<path d="M54.8471 27.9076C54.8471 27.9076 54.68 27.1823 54.1945 26.4275C54.4571 25.9243 54.68 25.4062 54.8391 24.8734C54.8391 24.8734 54.0751 23.4451 53.4942 23.4451C53.4942 23.4451 53.4862 23.4895 53.4623 23.5709L51.3374 21.4544C51.3534 21.41 51.3693 21.3582 51.3852 21.3138L48.7907 17.8652C53.3828 15.9855 52.1572 11.1531 52.1572 11.1531L47.2309 13.9282C44.8593 9.3622 39.4953 9.19199 39.4953 9.19199C39.4953 9.19199 34.1393 9.3696 31.7597 13.9282L26.8255 11.1457C26.8255 11.1457 25.5999 15.9781 30.1919 17.8578L27.5975 21.3064C27.6134 21.3582 27.6293 21.4026 27.6452 21.447L25.5203 23.5635C25.4964 23.4821 25.4885 23.4377 25.4885 23.4377C24.9155 23.4377 24.1435 24.866 24.1435 24.866C24.3027 25.3988 24.5255 25.9169 24.7881 26.4201C24.5016 26.8641 24.3265 27.3007 24.231 27.582L22.6871 25.9835C22.7349 25.4506 22.7428 24.8364 22.5359 24.5626C22.2653 24.1852 21.2466 23.1121 19.9972 23.2379L11.5931 15.8375C11.5931 15.8375 11.5692 14.3723 10.1765 14.3723C8.78374 14.3723 6.1893 16.0447 6.38826 16.9698C6.58722 17.8948 6.88964 18.2205 7.53427 18.4277L7.54223 18.4129L16.4159 26.6643C16.1373 27.0861 15.9304 27.6856 16.3602 28.285C16.3602 28.285 16.7581 29.025 18.3577 28.655L19.1456 29.5653C15.0629 31.741 12.5799 35.1452 12.5799 35.1452L39.5033 51.648L66.4266 35.1452C66.4107 35.1452 61.8266 28.84 54.8471 27.9076ZM55.1416 29.6763C55.1416 29.6763 57.6405 30.3127 60.1713 31.6226L54.9426 35.9814L50.8201 34.6493L55.1416 29.6763ZM53.1758 24.2296C53.0962 24.4812 52.9928 24.7994 52.8575 25.162C52.7222 25.5247 52.5471 25.9243 52.3322 26.3239C51.8627 27.2045 51.1862 28.1 50.2233 28.618C50.2233 28.618 50.1994 28.5144 50.1516 28.3294C50.0243 27.8262 49.7139 26.7161 49.2205 25.3692C49.133 25.1176 49.0295 24.866 48.926 24.5996C49.515 24.1926 50.3824 23.6598 50.9873 22.1871L53.1758 24.2296ZM50.4222 21.3138C50.4222 21.6246 49.881 23.682 48.9181 24.5848C48.1779 22.7347 47.1354 20.6182 45.7586 19.1011C46.5624 18.6867 47.3582 18.3389 48.0824 18.1095C48.6316 18.7829 50.4222 21.0104 50.4222 21.3138ZM41.6839 33.9463C41.6839 33.9463 40.4344 35.1082 39.4953 35.1082C38.5562 35.1082 37.3067 33.9463 37.3067 33.9463H38.5562C38.5562 33.9463 37.9275 33.9463 35.7389 31.6152C33.8687 29.6245 32.9057 25.9317 32.667 24.903C34.4337 26.0131 39.4953 27.2489 39.4953 27.2489C39.4953 27.2489 44.5569 26.0131 46.3236 24.903C46.0849 25.9317 45.1299 29.6245 43.2517 31.6152C41.0631 33.9463 40.4344 33.9463 40.4344 33.9463H41.6839ZM34.3064 20.2408C34.2268 19.9448 34.1791 19.7375 34.1552 19.6043C36.8929 21.1288 39.4873 23.0973 39.4873 23.0973C39.4873 23.0973 42.0818 21.1362 44.8195 19.6043C44.7956 19.7449 44.7479 19.9448 44.6683 20.2408C44.4773 20.9512 42.5593 22.0243 42.5593 22.0243L45.5676 20.707C45.687 20.9068 45.8143 21.1214 45.9416 21.3656C41.5247 22.2907 39.4873 24.5256 39.4873 24.5256C39.4873 24.5256 37.4579 22.2981 33.0331 21.3656C33.1604 21.1288 33.2877 20.9068 33.4071 20.707L36.4154 22.0243C36.4154 22.0243 34.4974 20.9512 34.3064 20.2408ZM46.061 24.6292C46.061 24.6292 40.7368 26.6643 39.4873 26.6643C38.2379 26.6643 32.9137 24.6292 32.9137 24.6292C32.6033 23.756 34.0279 22.3869 34.0279 22.3869C36.1448 23.0751 39.36 24.3406 39.4873 25.7763C39.6147 24.3406 42.8378 23.0751 44.9468 22.3869C44.9548 22.3795 46.3793 23.756 46.061 24.6292ZM31.712 25.8725C31.712 25.8725 32.7784 29.6245 34.0915 31.7632C33.3594 31.0971 32.7466 30.3349 32.2611 29.6097C31.5767 28.5958 31.131 27.6412 30.9002 27.1083C31.2663 25.199 31.9587 23.4969 32.6192 22.1723L31.712 25.8725ZM47.2627 25.8725L46.3634 22.1723C47.024 23.4969 47.7084 25.199 48.0824 27.1083C47.8516 27.6412 47.406 28.5884 46.7215 29.6097C46.2361 30.3349 45.6233 31.0971 44.8911 31.7632C46.1963 29.6171 47.2627 25.8725 47.2627 25.8725ZM39.4873 10.0726C44.3897 10.0726 45.9496 13.4398 46.3077 14.4315L39.4873 18.2723V14.7053C39.4873 15.7783 38.5244 16.1336 38.5244 16.1336L37.9991 17.436L32.667 14.4315C33.0251 13.4398 34.585 10.0726 39.4873 10.0726ZM27.5975 12.389L39.4873 19.5229L51.3772 12.389C51.3772 15.7783 48.6952 17.2066 48.6952 17.2066C44.0953 18.2797 39.4873 22.3795 39.4873 22.3795C39.4873 22.3795 34.8874 18.2797 30.2794 17.2066C30.2794 17.2066 27.5975 15.7783 27.5975 12.389ZM30.8922 18.1095C31.6165 18.3389 32.4123 18.6867 33.2161 19.1011C31.8393 20.6182 30.7888 22.7273 30.0566 24.5848C29.1016 23.6746 28.5525 21.6246 28.5525 21.3138C28.5525 21.0104 30.3511 18.7829 30.8922 18.1095ZM27.9795 22.2019C28.5923 23.6746 29.4518 24.2074 30.0407 24.6144C29.9372 24.8734 29.8417 25.1324 29.7462 25.384C29.2528 26.7235 28.9424 27.841 28.8151 28.3442C28.7673 28.5292 28.7435 28.6328 28.7435 28.6328C27.7805 28.1074 27.104 27.2193 26.6345 26.3387C26.4196 25.9391 26.2445 25.5395 26.1092 25.1768C25.9739 24.8142 25.8705 24.496 25.7909 24.2444L27.9795 22.2019ZM6.98514 16.7848C7.1841 16.2298 9.18166 14.7423 10.1765 14.9273C10.654 15.0161 10.4709 15.5341 10.4709 15.5341C9.86609 15.6599 8.47336 16.0818 7.54223 17.4582C7.25573 17.3694 6.84985 17.1622 6.98514 16.7848ZM17.92 27.9076C17.7131 27.8706 16.4 27.5968 16.9491 26.0575L8.03565 17.769C8.34603 17.0956 9.05433 16.252 10.6938 15.9707L19.066 23.5709C18.7636 23.756 18.4612 24.015 18.1508 24.385C18.1508 24.385 20.3473 23.83 20.9442 24.385C21.5411 24.94 21.1432 25.31 21.1432 25.31C21.1432 25.31 18.9466 24.94 18.3498 26.6051C18.0314 27.5006 17.9359 27.8114 17.92 27.9076ZM18.3498 28.1C18.3498 28.1 18.5487 25.1324 21.7401 26.2425L22.0902 26.5681L23.3397 28.0482C21.9709 28.3146 20.6975 28.7808 19.5435 29.3581L19.5674 29.3433L18.3498 28.1ZM23.8331 29.6763L28.1545 34.6493L24.0321 35.9814L18.8034 31.6226C21.3342 30.3053 23.8331 29.6763 23.8331 29.6763ZM14.6571 34.8639C15.3892 33.8649 16.4477 33.0138 17.5858 32.3108L23.8331 37.0915L27.8203 35.234L25.6238 37.0915L26.2206 37.8315L23.5546 39.4818L14.6571 34.8639ZM38.787 43.7666L32.4043 41.9091L38.787 45.0617V47.3854L26.1888 40.8509L28.6161 40.0516V35.1748L32.2054 39.3042L38.787 40.4956V43.7666ZM39.3918 36.1664L37.8002 35.4264V36.3514L35.1978 35.049L34.004 37.4615L25.6317 28.3738C25.6317 28.3738 25.4885 28.1074 25.5442 27.693C27.6691 30.8085 31.0514 33.0805 31.0514 33.0805C30.7251 31.8964 30.6057 30.7123 30.6296 29.5727L32.2054 30.6161C34.9113 34.5235 39.4953 35.6854 39.4953 35.6854C39.4953 35.6854 44.0714 34.5161 46.7852 30.6161L48.353 29.5727C48.3769 30.7123 48.2575 31.8964 47.9312 33.0805C47.9312 33.0805 51.3056 30.8085 53.4385 27.693C53.4942 28.1074 53.3509 28.3738 53.3509 28.3738L44.9707 37.4615L43.7769 35.049L41.1825 36.344V35.419L39.5908 36.159H39.3918V36.1664ZM40.1877 47.3928V45.0691L46.5703 41.9165L40.1877 43.774V40.5104L46.7693 39.319L50.3586 35.1896V40.0664L52.7859 40.8657L40.1877 47.3928ZM52.754 37.8315L53.3509 37.0915L51.1544 35.234L55.1416 37.0915L61.3889 32.3108C62.527 33.0138 63.5854 33.8649 64.3176 34.8639L55.4201 39.4818L52.754 37.8315Z" fill="#AAAAAA"/>
<path d="M29.8308 38.3126L31.1917 40.3107L35.0834 41.1247V41.6576L31.0484 40.8953C31.0484 40.8953 29.8308 40.1553 29.8308 38.3126Z" fill="#AAAAAA"/>
<path d="M28.7058 41.5758L32.4542 43.4703L33.8629 43.9217L32.112 42.4787L29.2947 41.302L28.7058 41.5758Z" fill="#AAAAAA"/>
<path d="M29.0452 13.8908L30.032 15.8297L32.6742 16.8065C32.6662 16.8065 29.1725 17.3319 29.0452 13.8908Z" fill="#AAAAAA"/>
<path d="M49.9799 13.8908L48.993 15.8297L46.3508 16.8065C46.3588 16.8065 49.8525 17.3319 49.9799 13.8908Z" fill="#AAAAAA"/>
<path d="M70.3186 51.0177C70.3186 51.0177 55.2771 45.349 39.3444 45.3416C39.3364 45.3416 39.3285 45.3416 39.3205 45.3416C39.3125 45.3416 39.3046 45.3416 39.2966 45.3416C23.3639 45.349 10.9567 50.2259 10.9567 50.2259L9.9937 54.0963L5.78369 55.643L8.91931 59.7724L7.82901 65.2191C22.6158 59.7724 38.3575 60.0092 39.3046 60.024C39.3046 60.024 39.3125 60.024 39.3285 60.024C39.3444 60.024 39.3523 60.024 39.3523 60.024C40.2994 60.0018 59.5588 60.9861 74.3455 66.4328L70.3186 51.0177Z" fill="#AAAAAA"/>
<path d="M13.1348 51.3303C12.8403 52.6476 12.5459 53.9574 12.2514 55.2747C11.2088 55.5929 10.1742 55.9259 9.13965 56.2738C9.68082 57.0138 10.23 57.7464 10.787 58.4791C11.1054 58.3829 11.2645 58.3311 11.5829 58.2349C11.2884 59.5521 10.994 60.862 10.6995 62.1793C11.5192 61.9351 12.3469 61.6908 13.1746 61.4614C13.4452 60.1516 13.7157 58.8491 13.9784 57.5392C14.7742 57.3172 15.578 57.11 16.3818 56.9102C16.1351 58.2127 15.8964 59.5077 15.6496 60.8102C16.4773 60.603 17.305 60.4106 18.1406 60.2256C18.7375 56.666 19.3424 53.1064 19.9392 49.5468C17.6631 50.0574 15.387 50.6569 13.1348 51.3303ZM16.9469 53.9796C16.159 54.1794 15.3791 54.3793 14.5991 54.5939C14.6628 54.2682 14.7344 53.9426 14.7981 53.617C15.5701 53.4024 16.35 53.2026 17.1299 53.0028C17.0662 53.3284 17.0105 53.654 16.9469 53.9796Z" fill="#AAAAAA"/>
<path d="M27.3019 51.0567C27.4053 50.0946 27.5008 49.14 27.6043 48.1779C25.2963 48.4961 22.9963 48.8884 20.7202 49.3694C20.3542 51.6339 19.9881 53.891 19.622 56.1555C21.2296 55.8151 22.8451 55.5117 24.4766 55.2527C24.4368 55.5709 24.397 55.8965 24.3572 56.2147C22.7178 56.4812 21.0863 56.7846 19.4708 57.125C19.3116 58.0944 19.1524 59.0639 19.0012 60.0333C21.4922 59.5079 23.9912 59.0713 26.514 58.7309C26.7448 56.4886 26.9835 54.2536 27.2143 52.0113C25.6226 52.2259 24.0469 52.4849 22.4631 52.7736C22.5109 52.4553 22.5586 52.1297 22.5984 51.8115C24.1583 51.5303 25.7261 51.2787 27.3019 51.0567Z" fill="#AAAAAA"/>
<path d="M36.0632 47.4525C36.0234 48.7253 35.9836 49.9982 35.9438 51.2637C35.6812 51.2711 35.4106 51.2859 35.1479 51.3007C34.8933 51.3155 34.6386 51.3303 34.3839 51.3451C34.3282 51.3451 34.2725 51.3525 34.2088 51.3525C34.0974 51.3599 33.994 51.3673 33.8825 51.3747C33.5085 51.3969 33.1345 51.4191 32.7604 51.4487C31.9646 51.5079 31.1687 51.5745 30.3729 51.6485C30.3968 51.3303 30.4206 51.012 30.4445 50.6938C32.0203 50.5384 33.596 50.4274 35.1798 50.346C35.2116 49.3914 35.2514 48.4367 35.2832 47.4821C32.9673 47.6005 30.6594 47.7929 28.3594 48.0815C28.1445 50.3164 27.9217 52.5513 27.7068 54.7936C29.3303 54.5938 30.9538 54.431 32.5853 54.3126C32.5694 54.6308 32.5455 54.9491 32.5296 55.2673C30.8822 55.3931 29.2428 55.5559 27.6113 55.7557C27.5158 56.7177 27.4283 57.6724 27.3328 58.6344C29.8397 58.3236 32.3625 58.109 34.8933 57.9832C34.941 56.7103 34.9888 55.4375 35.0365 54.172C35.3628 54.1572 35.522 54.1498 35.8483 54.135C35.8085 55.4079 35.7687 56.6807 35.7289 57.9462C36.5725 57.9166 37.4081 57.8944 38.2517 57.8796C38.2676 56.6067 38.2756 55.3413 38.2915 54.0684C39.1033 54.061 39.923 54.061 40.7348 54.0684C40.7507 55.3413 40.7586 56.6067 40.7745 57.8796C41.6181 57.8944 42.4538 57.9166 43.2974 57.9462C43.1939 54.4532 43.0825 50.9528 42.979 47.4599C40.679 47.3711 38.3711 47.371 36.0632 47.4525ZM38.3313 51.2045C38.3313 50.8862 38.3393 50.568 38.3393 50.2498C39.1272 50.2424 39.915 50.2424 40.7109 50.2498C40.7109 50.568 40.7188 50.8862 40.7188 51.2045C39.923 51.1971 39.1272 51.1971 38.3313 51.2045Z" fill="#AAAAAA"/>
<path d="M46.2898 51.4399C46.2739 51.1216 46.25 50.8034 46.2341 50.4852C47.8178 50.6036 49.3856 50.759 50.9614 50.9514C50.8659 49.9894 50.7784 49.0347 50.6829 48.0727C48.3829 47.7915 46.0749 47.5916 43.759 47.4732C43.8386 49.7008 43.9262 51.9209 44.0057 54.1484C45.6372 54.2298 47.2687 54.3482 48.8922 54.5036C48.9161 54.8218 48.94 55.14 48.9638 55.4583C47.3244 55.3029 45.685 55.1771 44.0376 55.0956C44.0694 56.0503 44.1092 57.0049 44.141 57.9596C46.6718 58.0854 49.1867 58.3 51.7015 58.6108C51.4867 56.3759 51.2638 54.141 51.0489 51.8987C49.4732 51.7211 47.8815 51.5657 46.2898 51.4399Z" fill="#AAAAAA"/>
<path d="M54.224 52.3665C54.1842 52.0483 54.1444 51.7227 54.1046 51.4045C55.6804 51.6635 57.2482 51.9521 58.8001 52.2777C58.641 51.3083 58.4818 50.3388 58.3306 49.3694C56.0545 48.8884 53.7624 48.4887 51.4465 48.1779C51.6773 50.4202 51.9161 52.6552 52.1469 54.8975C53.7784 55.1195 55.3939 55.3785 57.0095 55.6745C57.0572 55.9927 57.105 56.3184 57.1448 56.6366C55.5213 56.3332 53.8818 56.0741 52.2424 55.8521C52.3458 56.8142 52.4413 57.7688 52.5448 58.7309C55.0676 59.0713 57.5745 59.5079 60.0576 60.0333C59.6915 57.7688 59.3254 55.5117 58.9593 53.2472C57.3915 52.9216 55.8157 52.6256 54.224 52.3665Z" fill="#AAAAAA"/>
<path d="M59.0984 49.5395C59.6953 53.0991 60.3001 56.6587 60.897 60.2183C61.7326 60.4033 62.5603 60.6031 63.388 60.8029C62.7195 57.2285 62.051 53.6542 61.3745 50.0724C60.6184 49.8874 59.8624 49.7097 59.0984 49.5395Z" fill="#AAAAAA"/>
<path d="M71.5683 63.0445C70.5019 58.7374 69.9926 56.6061 68.9261 52.2991C68.178 52.0475 67.4299 51.8033 66.6739 51.5664C66.9763 52.8837 67.2787 54.201 67.5812 55.5183C65.6313 53.1279 64.5172 52.5729 62.1296 50.2048C62.9494 54.4378 63.395 56.7837 64.2147 61.0241C65.0424 61.2388 65.8701 61.4608 66.6978 61.6976C66.4192 60.3877 66.1407 59.0778 65.8621 57.768C68.56 60.0399 69.4753 60.5579 71.5683 63.0445Z" fill="#AAAAAA"/>
<path d="M68.6623 57.7298L68.4156 56.6641C68.145 56.5901 67.8744 56.5161 67.6118 56.4421L68.6623 57.7298Z" fill="#AAAAAA"/>
<path d="M11.016 57.8515C11.1353 57.8145 11.2547 57.7775 11.4139 57.7331L12.353 57.4519L11.4696 61.3963C11.8755 61.2779 12.2813 61.1595 12.6872 61.0485L13.499 57.1263L13.8332 57.0375C14.637 56.8154 15.4488 56.6082 16.2526 56.401L17.1201 56.1864L16.3879 60.0938C16.8097 59.9902 17.2315 59.894 17.6612 59.7978L18.5844 54.3363C15.8228 54.9209 12.9498 55.6684 10.0928 56.6156C10.3872 57.0153 10.6976 57.4371 11.016 57.8515Z" fill="#AAAAAA"/>
<path d="M20.3017 55.4737C21.6546 55.1999 23.0155 54.9483 24.3684 54.7336L25.1245 54.6078L24.8698 56.6725L24.448 56.7391C22.9598 56.9834 21.4477 57.2572 19.9674 57.568L19.6809 59.3515C21.766 58.9297 23.883 58.567 25.984 58.271L26.5331 52.9872C24.6549 53.224 22.6494 53.5348 20.5643 53.927L20.3017 55.4737Z" fill="#AAAAAA"/>
<path d="M39.4108 52.1741C39.4108 52.1741 39.4028 52.1741 39.3869 52.1741C39.371 52.1741 39.363 52.1741 39.363 52.1741C38.8855 52.1667 34.5641 52.1001 28.4839 52.7587L28.3486 54.187C29.7413 54.0242 31.1579 53.891 32.5506 53.7874L33.2032 53.7356L33.0838 55.7633L32.5824 55.8003C31.1101 55.9113 29.6139 56.0593 28.1416 56.2295L27.9666 58.0204C30.0835 57.7762 32.2164 57.5912 34.3413 57.4802L34.4845 53.6616L35.0098 53.6394C35.3361 53.6246 35.4952 53.6172 35.8295 53.6024L36.4423 53.5802L36.3229 57.3988C36.7765 57.384 37.2381 57.3692 37.6918 57.3618L37.7315 53.5432L38.2886 53.5358C39.1084 53.5284 39.936 53.5284 40.7478 53.5358L41.3049 53.5432L41.3447 57.3618C41.7983 57.3692 42.2599 57.384 42.7135 57.3988L42.5623 52.3591C40.7637 52.2111 39.6256 52.1667 39.4108 52.1741Z" fill="#AAAAAA"/>
<path d="M44.5565 53.6544C46.0208 53.7358 47.4932 53.8468 48.9495 53.9874L49.427 54.0318L49.5862 56.0669L48.9098 56.0003C47.4932 55.8597 46.0606 55.7561 44.6361 55.6747L44.6997 57.4656C46.8167 57.584 48.9575 57.7616 51.0744 58.0058L50.6049 53.1659C48.3049 52.8699 46.2357 52.6553 44.5247 52.4999L44.5565 53.6544Z" fill="#AAAAAA"/>
<path d="M52.6673 54.4306C54.1476 54.6379 55.6438 54.8821 57.1161 55.1559L57.514 55.2299L57.8085 57.3094L57.0285 57.1614C55.6517 56.9098 54.259 56.6804 52.8742 56.4805L53.0573 58.2714C55.1583 58.5675 57.2673 58.9301 59.3604 59.3519L58.5566 54.4232C56.4715 54.0384 54.45 53.7202 52.5559 53.4464L52.6673 54.4306Z" fill="#AAAAAA"/>
<path d="M61.4028 59.789C61.8246 59.8852 62.2464 59.9814 62.6761 60.085L61.7291 55.0453C61.3391 54.9639 60.9491 54.8825 60.5671 54.8085L61.4028 59.789Z" fill="#AAAAAA"/>
<path d="M69.4773 56.9701C69.1272 56.8665 68.769 56.7702 68.4189 56.6666L68.6656 57.7323L67.6151 56.4446C66.3178 56.0968 65.0206 55.7786 63.7234 55.4826C63.7234 55.4974 63.7314 55.5048 63.7314 55.5196C64.0258 57.0515 64.3282 58.6351 64.7102 60.6036C65.1241 60.7147 65.5379 60.8257 65.9438 60.9367L64.9649 56.2892L66.2462 57.3697C66.8511 57.8803 67.3683 58.3021 67.822 58.6795C68.8486 59.5232 69.6126 60.1448 70.4801 61.0255C70.1936 59.8488 69.9389 58.8128 69.6843 57.7989C69.6126 57.5177 69.549 57.2439 69.4773 56.9701Z" fill="#AAAAAA"/>
</svg>
