<svg width="150" height="48" viewBox="0 0 150 48" fill="none" xmlns="http://www.w3.org/2000/svg">
<path d="M43.27 18.8501H46.27V33.3001H43.27V18.8501Z" fill="#BCC6C9"/>
<path d="M47.9502 28.35C47.9502 27.3104 48.2589 26.2942 48.8371 25.4302C49.4153 24.5662 50.237 23.8933 51.1981 23.4968C52.1591 23.1004 53.2163 22.9982 54.2355 23.2032C55.2547 23.4082 56.1901 23.9112 56.9231 24.6484C57.6561 25.3857 58.1538 26.3239 58.3529 27.3443C58.5521 28.3647 58.4439 29.4212 58.0419 30.38C57.6399 31.3387 56.9624 32.1566 56.0951 32.7299C55.2278 33.3031 54.2098 33.606 53.1702 33.6C52.4806 33.6054 51.797 33.4731 51.1593 33.2108C50.5215 32.9485 49.9426 32.5615 49.4564 32.0725C48.9702 31.5835 48.5866 31.0024 48.3279 30.3631C48.0693 29.7239 47.9408 29.0395 47.9502 28.35ZM55.4702 28.35C55.4584 27.9018 55.3147 27.467 55.0571 27.1001C54.7995 26.7331 54.4394 26.4502 54.0219 26.2868C53.6044 26.1234 53.148 26.0867 52.7097 26.1814C52.2715 26.276 51.8709 26.4978 51.558 26.8189C51.2451 27.14 51.0338 27.5463 50.9506 27.9868C50.8674 28.4274 50.9159 28.8827 51.0901 29.2958C51.2643 29.709 51.5564 30.0616 51.9299 30.3095C52.3035 30.5575 52.7418 30.6899 53.1902 30.69C53.4954 30.696 53.7986 30.6389 54.0809 30.5223C54.3631 30.4058 54.6182 30.2323 54.8303 30.0127C55.0424 29.7931 55.2069 29.5321 55.3136 29.246C55.4202 28.9599 55.4667 28.6549 55.4502 28.35H55.4702Z" fill="#BCC6C9"/>
<path d="M70.26 23.4V32.81C70.26 36.13 67.66 37.54 65.03 37.54C64.1023 37.6161 63.1718 37.4318 62.3432 37.0078C61.5146 36.5838 60.8209 35.9369 60.34 35.14L62.87 33.68C63.075 34.0933 63.4011 34.4344 63.8049 34.6577C64.2086 34.881 64.6709 34.976 65.13 34.93C65.4225 34.966 65.7193 34.937 65.9992 34.8449C66.2791 34.7529 66.5353 34.6001 66.7493 34.3976C66.9633 34.195 67.13 33.9477 67.2373 33.6732C67.3445 33.3987 67.3899 33.104 67.37 32.81V31.9C67.0209 32.3232 66.5779 32.6593 66.0762 32.8815C65.5746 33.1037 65.028 33.2059 64.48 33.18C63.1539 33.18 61.8821 32.6532 60.9445 31.7155C60.0068 30.7778 59.48 29.506 59.48 28.18C59.48 26.8539 60.0068 25.5821 60.9445 24.6444C61.8821 23.7068 63.1539 23.18 64.48 23.18C65.028 23.154 65.5746 23.2562 66.0762 23.4784C66.5779 23.7006 67.0209 24.0367 67.37 24.46V23.46L70.26 23.4ZM67.37 28.15C67.3899 27.6715 67.2663 27.1981 67.015 26.7905C66.7637 26.3829 66.3962 26.0597 65.9598 25.8627C65.5234 25.6656 65.038 25.6036 64.5661 25.6846C64.0941 25.7656 63.6572 25.9859 63.3115 26.3172C62.9658 26.6485 62.7271 27.0757 62.6261 27.5437C62.5251 28.0118 62.5664 28.4994 62.7447 28.9438C62.9231 29.3882 63.2303 29.7691 63.6268 30.0375C64.0234 30.3059 64.4911 30.4495 64.97 30.45C65.2824 30.4725 65.5961 30.4292 65.8908 30.3229C66.1855 30.2167 66.4546 30.0498 66.6808 29.833C66.907 29.6163 67.0852 29.3545 67.2039 29.0646C67.3226 28.7747 67.3792 28.4631 67.37 28.15Z" fill="#BCC6C9"/>
<path d="M71.9501 28.3501C71.9501 27.3113 72.2582 26.2959 72.8355 25.4323C73.4129 24.5687 74.2334 23.8958 75.1933 23.4988C76.1532 23.1017 77.2093 22.9983 78.228 23.2017C79.2466 23.4051 80.1821 23.9061 80.9159 24.6413C81.6497 25.3766 82.149 26.313 82.3504 27.332C82.5518 28.3511 82.4464 29.407 82.0475 30.3661C81.6487 31.3253 80.9742 32.1445 80.1095 32.7202C79.2448 33.2958 78.2288 33.6021 77.1901 33.6001C76.4992 33.6068 75.814 33.4755 75.1746 33.2139C74.5351 32.9523 73.9544 32.5657 73.4663 32.0767C72.9783 31.5877 72.5928 31.0062 72.3324 30.3663C72.072 29.7264 71.942 29.0409 71.9501 28.3501ZM79.4701 28.3501C79.4582 27.9015 79.3143 27.4663 79.0563 27.0991C78.7982 26.732 78.4376 26.4491 78.0195 26.286C77.6014 26.1229 77.1444 26.0868 76.7059 26.1823C76.2674 26.2777 75.8668 26.5005 75.5544 26.8226C75.2419 27.1447 75.0314 27.5519 74.9493 27.9931C74.8672 28.4343 74.9172 28.8899 75.0929 29.3028C75.2686 29.7158 75.5623 30.0677 75.9371 30.3145C76.312 30.5612 76.7513 30.6919 77.2001 30.6901C77.5053 30.696 77.8085 30.639 78.0907 30.5224C78.3729 30.4059 78.6281 30.2324 78.8402 30.0128C79.0523 29.7931 79.2168 29.5321 79.3235 29.2461C79.4301 28.96 79.4766 28.655 79.4601 28.3501H79.4701Z" fill="#BCC6C9"/>
<path d="M83.8203 20.75C83.8203 20.3979 83.9247 20.0538 84.1203 19.7611C84.3159 19.4683 84.5939 19.2402 84.9191 19.1055C85.2444 18.9707 85.6023 18.9355 85.9476 19.0042C86.2929 19.0729 86.61 19.2424 86.859 19.4913C87.1079 19.7403 87.2774 20.0574 87.3461 20.4027C87.4148 20.748 87.3795 21.1059 87.2448 21.4311C87.1101 21.7564 86.8819 22.0344 86.5892 22.23C86.2965 22.4256 85.9524 22.53 85.6003 22.53C85.1298 22.5248 84.6801 22.3356 84.3474 22.0029C84.0147 21.6702 83.8255 21.2204 83.8203 20.75ZM84.1103 23.4H87.1103V33.3H84.1103V23.4Z" fill="#BCC6C9"/>
<path d="M99.9502 28.3499C99.9838 29.0084 99.8869 29.6669 99.665 30.2877C99.4431 30.9085 99.1007 31.4793 98.6573 31.9673C98.214 32.4552 97.6786 32.8507 97.0818 33.1309C96.485 33.4111 95.8388 33.5705 95.1802 33.5999C94.6213 33.6371 94.0612 33.5476 93.5418 33.3381C93.0223 33.1286 92.5569 32.8045 92.1802 32.3899V37.2799H89.1802V23.3999H92.1802V24.3299C92.5574 23.9166 93.0231 23.594 93.5427 23.3862C94.0622 23.1784 94.622 23.0908 95.1802 23.1299C95.8361 23.1595 96.4798 23.3179 97.0746 23.5963C97.6693 23.8746 98.2033 24.2673 98.6463 24.752C99.0892 25.2368 99.4324 25.804 99.6561 26.4213C99.8798 27.0386 99.9797 27.694 99.9502 28.3499ZM96.9502 28.3499C96.9384 27.8855 96.7897 27.4349 96.5229 27.0545C96.256 26.6742 95.8829 26.3811 95.4502 26.2119C95.0175 26.0428 94.5444 26.0051 94.0904 26.1037C93.6364 26.2022 93.2215 26.4326 92.8979 26.7659C92.5742 27.0992 92.3561 27.5206 92.2709 27.9773C92.1858 28.4341 92.2373 28.9058 92.4191 29.3333C92.6008 29.7609 92.9048 30.1253 93.2928 30.3809C93.6808 30.6364 94.1356 30.7718 94.6002 30.7699C94.9184 30.7834 95.2359 30.7295 95.5318 30.6117C95.8277 30.4939 96.0954 30.3149 96.3173 30.0864C96.5392 29.8579 96.7103 29.5851 96.8194 29.2858C96.9284 28.9866 96.973 28.6676 96.9502 28.3499Z" fill="#BCC6C9"/>
<path d="M109.08 30.3298C109.08 32.6098 107.08 33.5798 104.96 33.5798C104.096 33.6577 103.227 33.4744 102.468 33.0537C101.709 32.633 101.093 31.9942 100.7 31.2198L103.28 29.7598C103.382 30.1167 103.604 30.4276 103.908 30.6405C104.212 30.8535 104.58 30.9556 104.95 30.9298C105.66 30.9298 106.02 30.7098 106.02 30.3098C106.02 29.2198 101.15 29.7998 101.15 26.3698C101.15 24.2098 102.97 23.1298 105.03 23.1298C105.813 23.0948 106.591 23.2724 107.281 23.6439C107.972 24.0154 108.548 24.5669 108.95 25.2398L106.37 26.5998C106.256 26.3419 106.07 26.1224 105.834 25.968C105.598 25.8136 105.322 25.7309 105.04 25.7298C104.52 25.7298 104.21 25.9298 104.21 26.2798C104.21 27.4198 109.08 26.6698 109.08 30.3298Z" fill="#BCC6C9"/>
<path d="M119.95 23.3999V33.2999H116.95V32.3699C116.61 32.7816 116.177 33.1074 115.687 33.321C115.197 33.5347 114.664 33.6302 114.13 33.5999C112.13 33.5999 110.42 32.1699 110.42 29.4999V23.3999H113.42V29.0499C113.397 29.2861 113.425 29.5246 113.502 29.749C113.58 29.9733 113.705 30.1781 113.87 30.3493C114.034 30.5204 114.234 30.6538 114.455 30.7403C114.676 30.8267 114.913 30.8641 115.15 30.8499C116.23 30.8499 116.99 30.2099 116.99 28.8499V23.3999H119.95Z" fill="#BCC6C9"/>
<path d="M136.95 27.22V33.3001H133.95V27.4801C133.95 26.4801 133.48 25.86 132.53 25.86C131.58 25.86 130.98 26.55 130.98 27.72V33.3001H127.98V27.4801C127.98 26.4801 127.51 25.86 126.56 25.86C125.61 25.86 125.01 26.55 125.01 27.72V33.3001H122.01V23.4001H125.01V24.3101C125.321 23.908 125.727 23.5896 126.191 23.3836C126.655 23.1776 127.164 23.0905 127.67 23.13C128.178 23.1036 128.683 23.2095 129.137 23.4374C129.591 23.6653 129.978 24.0074 130.26 24.4301C130.59 23.9885 131.026 23.6377 131.528 23.4103C132.03 23.183 132.581 23.0865 133.13 23.13C135.47 23.13 136.95 24.75 136.95 27.22Z" fill="#BCC6C9"/>
<path d="M25.4 16.25V12H12V41.2H25.4V36.95C22.655 36.95 20.0224 35.8596 18.0814 33.9186C16.1404 31.9776 15.05 29.345 15.05 26.6C15.05 23.855 16.1404 21.2224 18.0814 19.2814C20.0224 17.3404 22.655 16.25 25.4 16.25Z" fill="#BCC6C9"/>
<path d="M25.4004 16.25V36.95C28.1454 36.95 30.7779 35.8596 32.7189 33.9186C34.6599 31.9776 35.7504 29.345 35.7504 26.6C35.7504 23.855 34.6599 21.2224 32.7189 19.2814C30.7779 17.3404 28.1454 16.25 25.4004 16.25Z" fill="#BCC6C9"/>
<path d="M139.47 23.3399C140.685 23.3399 141.67 22.355 141.67 21.1399C141.67 19.9249 140.685 18.9399 139.47 18.9399C138.255 18.9399 137.27 19.9249 137.27 21.1399C137.27 22.355 138.255 23.3399 139.47 23.3399Z" fill="#BCC6C9"/>
</svg>
