<svg width="80" height="76" viewBox="0 0 80 76" fill="none" xmlns="http://www.w3.org/2000/svg">
<path d="M75.7345 68.3845L73.9757 67.7406C66.3674 64.9359 57.5654 63.367 51.525 62.5456C45.6278 61.7389 41.2108 61.4725 39.8181 61.4133L39.3247 61.3985L38.3219 61.4281V61.3985C36.7143 61.4059 33.2842 61.4799 28.8673 61.9461C21.2352 62.7454 14.2795 64.2921 8.19133 66.5344L6.54393 67.1412L7.88095 60.4364L4.26782 55.678L9.16225 53.8797L10.1252 50.0241L10.5868 49.8465C10.6584 49.8169 12.4411 49.1212 15.5131 48.248C18.0598 47.5302 21.9674 46.5607 26.6708 45.8503C26.448 45.5469 26.2331 45.236 26.0182 44.9252L11.1996 35.8449L11.7567 35.0827C11.8522 34.9569 13.8259 32.278 17.1605 30.1022C16.1418 29.9986 15.6802 29.451 15.529 29.2216C15.1231 28.6444 15.0276 27.9783 15.2425 27.3123L7.0294 19.6751C5.98684 19.2755 5.62871 18.5502 5.42975 17.5956C5.31833 17.0776 5.50934 16.5299 6.00276 15.9749C6.86227 14.998 8.78821 13.9102 10.1809 13.9102C11.1359 13.9102 11.9079 14.369 12.3058 15.1757C12.4252 15.4199 12.4968 15.6567 12.5287 15.8491L17.5902 20.3115C17.4629 19.0091 17.3674 17.6844 17.3196 16.3597C17.3117 16.1599 17.3117 15.9601 17.3196 15.8343C17.3196 15.7973 17.3196 15.7603 17.3196 15.7381V15.0572L18.02 14.8648C19.0944 14.5688 20.1767 14.295 21.2113 14.036C22.7632 13.6438 24.2514 13.2664 25.6999 12.8297C25.7237 11.9935 25.867 11.4089 25.875 11.3793L26.1853 10.1582L28.9389 11.7123C31.2708 10.802 33.5867 9.70676 35.8309 8.64851C36.6507 8.25629 37.5022 7.85666 38.3458 7.47184C39.0143 7.16103 39.7624 6.95382 40.7095 7.48664C43.7177 9.19614 46.8215 10.6392 49.9333 11.7789L52.7903 10.1656L53.1007 11.3867C53.1087 11.4163 53.2599 12.0157 53.2758 12.8815C55.4883 13.5402 57.7564 14.0582 60.0246 14.4282C60.2633 14.4652 60.4782 14.5318 60.7169 14.6058C60.8363 14.6428 60.9716 14.6798 61.1228 14.7242L61.8948 14.9388L61.8232 15.6863C61.7436 16.4929 61.672 17.3144 61.6003 18.1136C61.4491 19.8823 61.2899 21.7102 61.0114 23.5085C60.7169 25.403 60.3429 27.2531 59.9131 29.0218C62.1495 30.1392 63.9242 31.6193 65.0622 32.7072C66.4231 34.0096 67.1792 35.0531 67.211 35.0901L67.7681 35.8523L66.1764 36.8292L66.3038 36.9772L66.1207 36.8588L53.0132 44.903C52.7665 45.2656 52.5198 45.6209 52.2651 45.9687C57.4221 46.7901 61.9266 47.9298 64.9031 48.7734C68.4525 49.7873 70.6093 50.5939 70.6968 50.6235L71.1664 50.8011L75.7345 68.3845ZM64.1152 34.4019L64.9667 35.3935L65.0065 35.3713C64.7678 35.0975 64.4733 34.7645 64.1152 34.4019ZM9.70343 16.1229C9.71139 16.1303 9.71934 16.1377 9.7273 16.1451L10.1252 15.7307L9.70343 16.1229ZM9.55222 15.8935C9.57609 15.9749 9.62384 16.0489 9.68751 16.1081L10.1173 15.7381C10.1013 15.7381 10.0854 15.7381 10.0695 15.7455L9.55222 15.8935ZM23.6307 40.9882L21.6172 40.0484L23.4874 38.8939L23.8535 39.4045L24.0047 39.1233L23.8535 39.4045L24.5698 40.411L23.6307 40.9882ZM54.8755 40.6922L54.4377 40.4184L55.528 38.9013L55.9658 39.1751L54.8755 40.6922ZM18.1871 34.3871L18.1075 34.3279L19.349 32.9218L19.4286 32.981L18.1871 34.3871Z" fill="#AAAAAA"/>
<path d="M18.2985 15.7383C18.2985 15.8419 18.2905 16.0861 18.2985 16.3303C18.5611 23.2423 19.8901 29.9397 22.5244 36.3484C25.8669 44.4888 31.0877 51.0826 38.7835 55.5746C39.3565 55.9076 39.7305 55.8706 40.2717 55.5524C45.9222 52.2444 50.3391 47.7302 53.6418 42.1133C57.064 36.304 59.0217 29.9841 60.0563 23.3681C60.4542 20.7928 60.6055 18.1804 60.8601 15.5903C60.3906 15.4645 60.128 15.3683 59.8574 15.3239C52.8699 14.1768 46.344 11.7569 40.2001 8.26391C39.6589 7.9531 39.3087 8.0419 38.7835 8.28612C35.3136 9.8846 31.8835 11.6237 28.3022 12.941C25.1109 14.1102 21.7445 14.7985 18.2985 15.7383Z" fill="#AAAAAA"/>
<path d="M64.3222 35.3107L55.4246 39.9286L52.7586 38.2783L53.3555 37.5382L51.1589 35.6807L55.1461 37.5382L61.3935 32.7576C62.5315 33.4606 63.582 34.3117 64.3222 35.3107Z" fill="#AAAAAA"/>
<path d="M60.1776 32.072L54.9489 36.4308L50.8264 35.0988L55.1478 30.1257C55.1478 30.1257 57.6547 30.7547 60.1776 32.072Z" fill="#AAAAAA"/>
<path d="M53.4331 28.1424C53.4888 28.5569 53.3456 28.8233 53.3456 28.8233L44.9733 37.911L43.7796 35.4984L41.1851 36.7935V35.8684L39.5934 36.6085H39.3945L37.8028 35.8684V36.7935L35.2004 35.4984L34.0066 37.911L25.6343 28.8233C25.6343 28.8233 25.4911 28.5569 25.5468 28.1424C27.6717 31.258 31.054 33.5299 31.054 33.5299C30.7277 32.3459 30.6084 31.1618 30.6322 30.0221L32.208 31.0656C34.9139 34.973 39.4979 36.1349 39.4979 36.1349C39.4979 36.1349 44.074 34.9656 46.7878 31.0656L48.3636 30.0221C48.3875 31.1618 48.2681 32.3459 47.9418 33.5299C47.9339 33.5299 51.3082 31.258 53.4331 28.1424Z" fill="#AAAAAA"/>
<path d="M50.9981 22.6503L53.1788 24.678C53.0992 24.9297 52.9957 25.2479 52.8604 25.6105C52.7251 25.9731 52.55 26.3727 52.3352 26.7723C51.8656 27.653 51.1891 28.5484 50.2262 29.0665C50.2262 29.0665 50.2023 28.9629 50.1545 28.7779C50.0272 28.2746 49.7168 27.1646 49.2234 25.8177C49.1359 25.5661 49.0324 25.3145 48.929 25.0481C49.5258 24.6558 50.3933 24.1156 50.9981 22.6503Z" fill="#AAAAAA"/>
<path d="M52.7804 41.301L40.1902 47.843V45.5119L46.5728 42.3593L40.1902 44.2168V40.9532L46.7718 39.7692L50.3611 35.6323V40.5092L52.7804 41.301Z" fill="#AAAAAA"/>
<path d="M39.4907 19.9718L51.3806 12.8378C51.3806 16.2272 48.6986 17.6554 48.6986 17.6554C44.0986 18.7285 39.4907 22.8283 39.4907 22.8283C39.4907 22.8283 34.8907 18.7285 30.2828 17.6554C30.2828 17.6554 27.6008 16.2272 27.6008 12.8378L39.4907 19.9718Z" fill="#AAAAAA"/>
<path d="M50.4276 21.7621C50.4276 22.0729 49.8784 24.1302 48.9234 25.0331C48.1833 23.183 47.1407 21.0664 45.7639 19.5494C46.5677 19.1349 47.3636 18.7871 48.0878 18.5577C48.6369 19.2311 50.4276 21.4587 50.4276 21.7621Z" fill="#AAAAAA"/>
<path d="M48.0846 27.5573C47.8538 28.0902 47.4082 29.0374 46.7237 30.0587C46.2383 30.7839 45.6255 31.5461 44.8933 32.2122C46.2065 30.0735 47.2729 26.3215 47.2729 26.3215L46.3656 22.6213C47.0262 23.9459 47.7106 25.648 48.0846 27.5573Z" fill="#AAAAAA"/>
<path d="M46.3073 14.8864L39.487 18.7273V15.1603C39.487 16.2333 38.532 16.5885 38.532 16.5885L38.0067 17.891L32.6746 14.8864C33.0247 13.8948 34.5846 10.5276 39.4949 10.5276C44.4053 10.5276 45.9492 13.8874 46.3073 14.8864Z" fill="#AAAAAA"/>
<path d="M44.5014 23.6186C44.4616 23.626 42.2969 23.9146 41.3738 24.7805C41.3738 24.7805 42.3129 25.6537 43.252 25.0691C44.1751 24.4992 44.4855 23.6482 44.5014 23.6186ZM34.4818 23.6186C34.4897 23.6482 34.8081 24.4992 35.7312 25.0765C36.6703 25.6611 37.6094 24.7879 37.6094 24.7879C36.6783 23.9146 34.5216 23.626 34.4818 23.6186ZM44.9551 22.8268C44.9551 22.8268 46.3796 24.1958 46.0692 25.0765C46.0692 25.0765 40.7451 27.1116 39.4956 27.1116C38.2461 27.1116 32.9219 25.0765 32.9219 25.0765C32.6115 24.2032 34.0361 22.8342 34.0361 22.8268C36.153 23.515 39.3682 24.7805 39.4956 26.2161C39.615 24.7879 42.8381 23.515 44.9551 22.8268Z" fill="#AAAAAA"/>
<path d="M36.4198 22.4716C36.3641 22.442 34.5019 21.3911 34.3108 20.6881C34.2313 20.3921 34.1835 20.1848 34.1596 20.0516C36.8973 21.5835 39.4918 23.5446 39.4918 23.5446C39.4918 23.5446 42.0862 21.5835 44.8239 20.0516C44.8001 20.1922 44.7523 20.3921 44.6727 20.6881C44.4817 21.3911 42.6194 22.442 42.5637 22.4716L45.5641 21.1543C45.6834 21.3541 45.8108 21.5687 45.9381 21.8129C41.5212 22.738 39.4838 24.9729 39.4838 24.9729C39.4838 24.9729 37.4544 22.7454 33.0295 21.8129C33.1648 21.5761 33.2842 21.3541 33.4036 21.1543L36.4198 22.4716Z" fill="#AAAAAA"/>
<path d="M46.3156 25.3528C46.0768 26.3814 45.1218 30.0742 43.2436 32.0649C41.0551 34.3961 40.4264 34.3961 40.4264 34.3961H41.6758C41.6758 34.3961 40.4264 35.5579 39.4873 35.5579C38.5482 35.5579 37.2987 34.3961 37.2987 34.3961H38.5482C38.5482 34.3961 37.9195 34.3961 35.7309 32.0649C33.8607 30.0742 32.8977 26.3814 32.6589 25.3528C34.4257 26.4628 39.4873 27.6987 39.4873 27.6987C39.4873 27.6987 44.5488 26.4554 46.3156 25.3528Z" fill="#AAAAAA"/>
<path d="M44.5053 23.6186C44.4974 23.6482 44.1791 24.4993 43.2559 25.0765C42.3168 25.6611 41.3777 24.7879 41.3777 24.7879C42.3009 23.9146 44.4576 23.626 44.5053 23.6186Z" fill="#AAAAAA"/>
<path d="M38.7916 45.5119V47.843L26.2014 41.301L28.6208 40.5092V35.6323L32.21 39.7692L38.7916 40.9532V44.2168L32.4169 42.3593L38.7916 45.5119Z" fill="#AAAAAA"/>
<path d="M37.6137 24.7806C37.6137 24.7806 36.6746 25.6538 35.7356 25.0692C34.8124 24.492 34.494 23.6409 34.4861 23.6113C34.5259 23.6261 36.6826 23.9148 37.6137 24.7806Z" fill="#AAAAAA"/>
<path d="M34.0959 32.2122C33.3637 31.5461 32.7509 30.7839 32.2654 30.0587C31.581 29.0448 31.1353 28.0902 30.9045 27.5573C31.2706 25.648 31.963 23.9459 32.6236 22.6213L31.7163 26.3215C31.7163 26.3215 32.7827 30.0661 34.0959 32.2122Z" fill="#AAAAAA"/>
<path d="M30.9006 18.5577C31.6248 18.7871 32.4206 19.1349 33.2244 19.5494C31.8476 21.0664 30.7971 23.1756 30.0649 25.0331C29.1099 24.1228 28.5608 22.0729 28.5608 21.7621C28.5608 21.4587 30.3594 19.2311 30.9006 18.5577Z" fill="#AAAAAA"/>
<path d="M30.045 25.0627C29.9415 25.3217 29.846 25.5807 29.7505 25.825C29.2571 27.1644 28.9467 28.2819 28.8194 28.7851C28.7716 28.9701 28.7477 29.0737 28.7477 29.0737C27.7848 28.5483 27.1083 27.6603 26.6388 26.7796C26.4239 26.38 26.2488 25.9804 26.1135 25.6177C25.9782 25.2551 25.8748 24.9369 25.7952 24.6853L27.9758 22.6576C28.5965 24.1155 29.456 24.6557 30.045 25.0627Z" fill="#AAAAAA"/>
<path d="M23.8405 30.1257L28.1619 35.0988L24.0395 36.4308L18.8108 32.072C21.3416 30.7547 23.8405 30.1257 23.8405 30.1257Z" fill="#AAAAAA"/>
<path d="M27.8222 35.6807L25.6256 37.5382L26.2225 38.2783L23.5565 39.9286L14.6589 35.3107C15.3911 34.3117 16.4496 33.4606 17.5876 32.7576L23.835 37.5382L27.8222 35.6807Z" fill="#AAAAAA"/>
<path d="M22.0981 27.0167L23.3476 28.4968C21.9787 28.7632 20.7054 29.2294 19.5594 29.8066L19.5833 29.7918L18.3577 28.5486C18.3577 28.5486 18.5566 25.581 21.748 26.6911L22.0981 27.0167Z" fill="#AAAAAA"/>
<path d="M18.9833 33.5567L17.9089 34.3264L23.7504 38.8998L26.1777 37.7675L28.1753 35.5474L26.9577 35.7768L23.9414 37.1311L22.1906 35.5474L18.9833 33.5567Z" fill="#AAAAAA"/>
<path d="M18.1547 24.8337C18.2025 24.8263 20.3512 24.286 20.9481 24.8337C21.545 25.3887 21.1471 25.7587 21.1471 25.7587C21.1471 25.7587 18.9506 25.3887 18.3537 27.0538C18.0353 27.9418 17.9398 28.2526 17.9239 28.3489C17.717 28.3119 16.4039 28.038 16.953 26.4988L8.03955 18.2103C8.34993 17.5369 9.05823 16.6932 10.6977 16.412L19.0699 24.0196C18.7675 24.1972 18.4571 24.4636 18.1547 24.8337Z" fill="#AAAAAA"/>
<path d="M10.1736 15.3745C10.6511 15.4633 10.4681 15.9813 10.4681 15.9813C9.86322 16.1071 8.47049 16.5289 7.53935 17.9054C7.26081 17.8092 6.84697 17.602 6.98226 17.232C7.18918 16.6769 9.17879 15.1895 10.1736 15.3745Z" fill="#AAAAAA"/>
<path d="M24.6718 30.8501L23.3586 31.3015L26.8603 34.7797L25.1095 36.2302L28.5635 35.2829L24.6718 30.8501Z" fill="#AAAAAA"/>
<path d="M60.0384 33.5567L61.1128 34.3264L55.2713 38.8998L52.836 37.7675L50.8464 35.5474L52.0641 35.7768L55.0803 37.1311L56.8312 35.5474L60.0384 33.5567Z" fill="#AAAAAA"/>
<path d="M54.3475 30.8501L55.6606 31.3015L52.1589 34.7797L53.9098 36.2302L50.4558 35.2829L54.3475 30.8501Z" fill="#AAAAAA"/>
<path d="M61.3499 32.6559L62.9575 34.5134L61.5489 35.6456L61.8354 36.0971L59.4558 38.0434L64.6129 35.505V34.7798L61.3499 32.6559Z" fill="#AAAAAA"/>
<path d="M55.0339 29.9389L58.5834 32.0258L57.509 33.0175L57.7557 33.2913L56.5858 35.3708L60.8197 31.974L58.8221 31.16L55.0339 29.9389Z" fill="#AAAAAA"/>
<path d="M45.8808 38.8998L50.059 35.7176L50.3136 35.1404L50.3694 35.4808L50.4569 35.4142L50.3773 35.5474L51.1891 40.4391L53.2742 41.1569L52.351 41.749L50.4569 40.4391L49.5337 36.9165L47.4884 40.2541L42.2358 41.3419V42.7406L46.3583 42.4298L42.2358 45.1901V45.908L47.9261 44.0135L39.5061 48.6239V39.9359L45.8808 38.8998Z" fill="#AAAAAA"/>
<path d="M39.5064 27.6809L34.3493 26.7262L34.8825 28.5837L36.9279 30.2562H35.368C35.368 30.2562 37.8033 33.9638 39.3552 33.9638H39.4984V35.7769L37.9386 35.1405L36.1877 33.5124L34.1902 30.4338L32.4871 25.8678L32.6303 25.2314L34.3334 25.8678L39.5064 27.6809Z" fill="#AAAAAA"/>
<path d="M39.3621 27.6808L44.5191 26.7335L43.9859 28.591L41.9406 30.2635H43.5004C43.5004 30.2635 41.0652 33.9711 39.5133 33.9711H39.3621V35.7842L40.9219 35.1478L42.6728 33.5197L44.6703 30.4411L46.3734 25.8751L46.2302 25.2386L44.5271 25.8751L39.3621 27.6808Z" fill="#AAAAAA"/>
<path d="M49.1927 38.7613L47.8319 40.7595L43.9402 41.5735V42.1063L47.9751 41.3367C47.9751 41.3441 49.1927 40.604 49.1927 38.7613Z" fill="#AAAAAA"/>
<path d="M50.316 42.0246L46.5676 43.9191L45.1589 44.3705L46.9098 42.9274L49.7271 41.7508L50.316 42.0246Z" fill="#AAAAAA"/>
<path d="M29.0496 33.0181L33.2357 36.0078L33.4744 35.549L32.6468 33.5583L37.955 36.8663L35.5198 36.4149L34.1111 38.4944L29.0496 33.0181Z" fill="#AAAAAA"/>
<path d="M49.7742 33.0181L45.5961 36.0078L45.3493 35.549L46.177 33.5583L40.8767 36.8663L43.304 36.4149L44.7206 38.4944L49.7742 33.0181Z" fill="#AAAAAA"/>
<path d="M17.6685 32.6559L16.0609 34.5134L17.4695 35.6456L17.1751 36.0971L19.5626 38.0434L14.4055 35.505V34.7798L17.6685 32.6559Z" fill="#AAAAAA"/>
<path d="M32.3607 18.9038L30.3631 21.9306V23.2922L29.7105 24.6687L29.1932 24.1951L28.1746 26.6372L28.4213 29.0794L28.9067 29.3532L30.8963 23.6105L32.7507 20.5763L33.6738 19.5328L32.3607 18.9038Z" fill="#AAAAAA"/>
<path d="M23.9872 29.9389L20.4377 32.0258L21.5121 33.0175L21.2654 33.2913L22.4353 35.3708L18.2014 31.974L20.191 31.16L23.9872 29.9389Z" fill="#AAAAAA"/>
<path d="M31.4833 18.5416L29.0957 21.7978L29.4857 24.4693L28.4193 22.8412L26.3739 24.7801L27.1061 27.8587L25.2996 24.6913L27.7826 22.2048L28.7058 20.7987L30.6078 18.0902L31.4833 18.5416Z" fill="#AAAAAA"/>
<path d="M46.7533 18.9038L48.7509 21.9306V23.2922L49.4035 24.6687L49.9208 24.1951L50.9395 26.6372L50.6927 29.0794L50.2073 29.3532L48.2177 23.6105L46.3634 20.5763L45.4402 19.5328L46.7533 18.9038Z" fill="#AAAAAA"/>
<path d="M47.5808 18.5416L49.9683 21.7978L49.5784 24.4693L50.6448 22.8412L52.6901 24.7801L51.9579 27.8587L53.7645 24.6913L51.2815 22.2048L50.3583 20.7987L48.4562 18.0902L47.5808 18.5416Z" fill="#AAAAAA"/>
<path d="M33.1384 38.8998L28.9602 35.7176L28.7056 35.1404L28.6498 35.4808L28.5623 35.4142L28.6419 35.5474L27.8301 40.4391L25.7371 41.1569L26.6682 41.749L28.5623 40.4391L29.4855 36.9165L31.5308 40.2541L36.7834 41.3419V42.7406L32.6609 42.4298L36.7834 45.1901V45.908L31.0931 44.0135L39.5051 48.6239V39.9359L33.1384 38.8998Z" fill="#AAAAAA"/>
<path d="M39.5039 19.4022L28.3621 13.023L30.0174 16.2792C30.0174 16.2792 34.689 17.8185 35.7077 18.9064L39.5039 21.7999L43.3 18.9064C44.3187 17.8185 48.9903 16.2792 48.9903 16.2792L50.6457 13.023L39.5039 19.4022Z" fill="#AAAAAA"/>
<path d="M9.09239 17.0129L17.1304 24.6057L18.1968 24.1099L17.6159 25.2422C17.6159 25.2422 18.7857 24.8795 19.3667 25.0127C19.9477 25.146 20.3376 25.8712 20.3376 25.8712L18.9768 26.4558L18.0058 28.6241L16.7404 28.3503L16.6449 26.7666L7.79517 18.0934L8.37613 17.4125L9.09239 17.0129Z" fill="#AAAAAA"/>
<path d="M8.22675 15.7831C8.22675 15.7831 8.61671 16.686 8.91117 16.8266L7.68557 18.1364L6.9534 17.907L6.65894 17.5L7.39111 16.2789L8.22675 15.7831Z" fill="#AAAAAA"/>
<path d="M33.2371 15.287C33.2371 15.287 33.7225 13.0965 34.5502 12.6672C34.5502 12.6672 33.6748 15.3832 36.0066 16.9151C38.3384 18.4395 39.5083 19.1574 39.5083 19.1574L43.5432 16.6264C43.5432 16.6264 43.8377 15.8124 43.201 14.9095C43.201 14.9095 43.9332 14.8651 43.8854 14.0511C43.8377 13.2371 42.5723 11.9494 41.8401 11.6682C41.8401 11.6682 44.4187 11.7644 46.1218 15.2944L39.5083 19.5866L33.2371 15.287Z" fill="#AAAAAA"/>
<path d="M35.5113 20.3785C35.5113 20.3785 35.4795 21.1038 35.9331 21.5034C36.3868 21.8956 37.5964 22.9909 37.5964 22.9909L35.5034 22.2952L35.384 22.6209L32.6702 22.2286L32.7657 21.3776L33.9753 19.5867L35.5113 20.3785Z" fill="#AAAAAA"/>
<path d="M43.4472 20.3785C43.4472 20.3785 43.479 21.1038 43.0254 21.5034C42.5717 21.903 41.3621 22.9909 41.3621 22.9909L43.4551 22.2952L43.5825 22.6283L46.2963 22.236L46.2008 21.385L44.9831 19.5867L43.4472 20.3785Z" fill="#AAAAAA"/>
<path d="M19.3397 26.3647L21.8944 29.5764L19.7058 30.2129L18.0027 28.6292L18.6871 26.7717L19.3397 26.3647Z" fill="#AAAAAA"/>
<path d="M54.8471 28.3563C54.8471 28.3563 54.68 27.6311 54.1945 26.8763C54.4571 26.373 54.68 25.855 54.8391 25.3222C54.8391 25.3222 54.0751 23.8939 53.4942 23.8939C53.4942 23.8939 53.4862 23.9383 53.4623 24.0197L51.3374 21.9032C51.3534 21.8588 51.3693 21.807 51.3852 21.7626L48.7907 18.314C53.3828 16.4343 52.1572 11.6018 52.1572 11.6018L47.2309 14.377C44.8593 9.81095 39.4953 9.64074 39.4953 9.64074C39.4953 9.64074 34.1393 9.81835 31.7597 14.377L26.8255 11.5944C26.8255 11.5944 25.5999 16.4269 30.1919 18.3066L27.5975 21.7552C27.6134 21.807 27.6293 21.8514 27.6452 21.8958L25.5203 24.0123C25.4964 23.9309 25.4885 23.8865 25.4885 23.8865C24.9155 23.8865 24.1435 25.3148 24.1435 25.3148C24.3027 25.8476 24.5255 26.3656 24.7881 26.8689C24.5016 27.3129 24.3265 27.7495 24.231 28.0307L22.6871 26.4322C22.7349 25.8994 22.7428 25.2852 22.5359 25.0114C22.2653 24.6339 21.2466 23.5609 19.9972 23.6867L11.5931 16.2863C11.5931 16.2863 11.5692 14.821 10.1765 14.821C8.78374 14.821 6.1893 16.4935 6.38826 17.4186C6.58722 18.3436 6.88964 18.6692 7.53427 18.8764L7.54223 18.8616L16.4159 27.1131C16.1373 27.5349 15.9304 28.1343 16.3602 28.7338C16.3602 28.7338 16.7581 29.4738 18.3577 29.1038L19.1456 30.014C15.0629 32.1897 12.5799 35.5939 12.5799 35.5939L39.5033 52.0968L66.4266 35.5939C66.4107 35.5939 61.8266 29.2888 54.8471 28.3563ZM55.1416 30.125C55.1416 30.125 57.6405 30.7615 60.1713 32.0713L54.9426 36.4302L50.8201 35.0981L55.1416 30.125ZM53.1758 24.6783C53.0962 24.9299 52.9928 25.2482 52.8575 25.6108C52.7222 25.9734 52.5471 26.373 52.3322 26.7726C51.8627 27.6533 51.1862 28.5487 50.2233 29.0668C50.2233 29.0668 50.1994 28.9632 50.1516 28.7782C50.0243 28.2749 49.7139 27.1649 49.2205 25.818C49.133 25.5664 49.0295 25.3148 48.926 25.0484C49.515 24.6413 50.3824 24.1085 50.9873 22.6358L53.1758 24.6783ZM50.4222 21.7626C50.4222 22.0734 49.881 24.1307 48.9181 25.0336C48.1779 23.1835 47.1354 21.0669 45.7586 19.5499C46.5624 19.1354 47.3582 18.7876 48.0824 18.5582C48.6316 19.2316 50.4222 21.4592 50.4222 21.7626ZM41.6839 34.3951C41.6839 34.3951 40.4344 35.5569 39.4953 35.5569C38.5562 35.5569 37.3067 34.3951 37.3067 34.3951H38.5562C38.5562 34.3951 37.9275 34.3951 35.7389 32.0639C33.8687 30.0732 32.9057 26.3804 32.667 25.3518C34.4337 26.4618 39.4953 27.6977 39.4953 27.6977C39.4953 27.6977 44.5569 26.4618 46.3236 25.3518C46.0849 26.3804 45.1299 30.0732 43.2517 32.0639C41.0631 34.3951 40.4344 34.3951 40.4344 34.3951H41.6839ZM34.3064 20.6895C34.2268 20.3935 34.1791 20.1863 34.1552 20.0531C36.8929 21.5776 39.4873 23.5461 39.4873 23.5461C39.4873 23.5461 42.0818 21.585 44.8195 20.0531C44.7956 20.1937 44.7479 20.3935 44.6683 20.6895C44.4773 21.4 42.5593 22.473 42.5593 22.473L45.5676 21.1558C45.687 21.3556 45.8143 21.5702 45.9416 21.8144C41.5247 22.7394 39.4873 24.9744 39.4873 24.9744C39.4873 24.9744 37.4579 22.7468 33.0331 21.8144C33.1604 21.5776 33.2877 21.3556 33.4071 21.1558L36.4154 22.473C36.4154 22.473 34.4974 21.4 34.3064 20.6895ZM46.061 25.078C46.061 25.078 40.7368 27.1131 39.4873 27.1131C38.2379 27.1131 32.9137 25.078 32.9137 25.078C32.6033 24.2047 34.0279 22.8356 34.0279 22.8356C36.1448 23.5239 39.36 24.7893 39.4873 26.225C39.6147 24.7893 42.8378 23.5239 44.9468 22.8356C44.9548 22.8282 46.3793 24.2047 46.061 25.078ZM31.712 26.3212C31.712 26.3212 32.7784 30.0732 34.0915 32.2119C33.3594 31.5459 32.7466 30.7837 32.2611 30.0584C31.5767 29.0446 31.131 28.0899 30.9002 27.5571C31.2663 25.6478 31.9587 23.9457 32.6192 22.621L31.712 26.3212ZM47.2627 26.3212L46.3634 22.621C47.024 23.9457 47.7084 25.6478 48.0824 27.5571C47.8516 28.0899 47.406 29.0372 46.7215 30.0584C46.2361 30.7837 45.6233 31.5459 44.8911 32.2119C46.1963 30.0658 47.2627 26.3212 47.2627 26.3212ZM39.4873 10.5214C44.3897 10.5214 45.9496 13.8886 46.3077 14.8802L39.4873 18.721V15.154C39.4873 16.2271 38.5244 16.5823 38.5244 16.5823L37.9991 17.8848L32.667 14.8802C33.0251 13.8886 34.585 10.5214 39.4873 10.5214ZM27.5975 12.8377L39.4873 19.9717L51.3772 12.8377C51.3772 16.2271 48.6952 17.6554 48.6952 17.6554C44.0953 18.7284 39.4873 22.8282 39.4873 22.8282C39.4873 22.8282 34.8874 18.7284 30.2794 17.6554C30.2794 17.6554 27.5975 16.2271 27.5975 12.8377ZM30.8922 18.5582C31.6165 18.7876 32.4123 19.1354 33.2161 19.5499C31.8393 21.0669 30.7888 23.1761 30.0566 25.0336C29.1016 24.1233 28.5525 22.0734 28.5525 21.7626C28.5525 21.4592 30.3511 19.2316 30.8922 18.5582ZM27.9795 22.6506C28.5923 24.1233 29.4518 24.6561 30.0407 25.0632C29.9372 25.3222 29.8417 25.5812 29.7462 25.8328C29.2528 27.1723 28.9424 28.2897 28.8151 28.793C28.7673 28.978 28.7435 29.0816 28.7435 29.0816C27.7805 28.5561 27.104 27.6681 26.6345 26.7874C26.4196 26.3878 26.2445 25.9882 26.1092 25.6256C25.9739 25.263 25.8705 24.9447 25.7909 24.6931L27.9795 22.6506ZM6.98514 17.2335C7.1841 16.6785 9.18166 15.191 10.1765 15.376C10.654 15.4648 10.4709 15.9829 10.4709 15.9829C9.86609 16.1087 8.47336 16.5305 7.54223 17.907C7.25573 17.8182 6.84985 17.611 6.98514 17.2335ZM17.92 28.3563C17.7131 28.3193 16.4 28.0455 16.9491 26.5062L8.03565 18.2178C8.34603 17.5444 9.05433 16.7007 10.6938 16.4195L19.066 24.0197C18.7636 24.2047 18.4612 24.4637 18.1508 24.8337C18.1508 24.8337 20.3473 24.2787 20.9442 24.8337C21.5411 25.3888 21.1432 25.7588 21.1432 25.7588C21.1432 25.7588 18.9466 25.3888 18.3498 27.0539C18.0314 27.9493 17.9359 28.2601 17.92 28.3563ZM18.3498 28.5487C18.3498 28.5487 18.5487 25.5812 21.7401 26.6912L22.0902 27.0169L23.3397 28.4969C21.9709 28.7634 20.6975 29.2296 19.5435 29.8068L19.5674 29.792L18.3498 28.5487ZM23.8331 30.125L28.1545 35.0981L24.0321 36.4302L18.8034 32.0713C21.3342 30.7541 23.8331 30.125 23.8331 30.125ZM14.6571 35.3127C15.3892 34.3136 16.4477 33.4626 17.5858 32.7596L23.8331 37.5402L27.8203 35.6827L25.6238 37.5402L26.2206 38.2803L23.5546 39.9305L14.6571 35.3127ZM38.787 44.2154L32.4043 42.3579L38.787 45.5104V47.8342L26.1888 41.2996L28.6161 40.5004V35.6235L32.2054 39.7529L38.787 40.9444V44.2154ZM39.3918 36.6152L37.8002 35.8751V36.8002L35.1978 35.4977L34.004 37.9102L25.6317 28.8226C25.6317 28.8226 25.4885 28.5561 25.5442 28.1417C27.6691 31.2573 31.0514 33.5292 31.0514 33.5292C30.7251 32.3451 30.6057 31.1611 30.6296 30.0214L32.2054 31.0649C34.9113 34.9723 39.4953 36.1341 39.4953 36.1341C39.4953 36.1341 44.0714 34.9649 46.7852 31.0649L48.353 30.0214C48.3769 31.1611 48.2575 32.3451 47.9312 33.5292C47.9312 33.5292 51.3056 31.2573 53.4385 28.1417C53.4942 28.5561 53.3509 28.8226 53.3509 28.8226L44.9707 37.9102L43.7769 35.4977L41.1825 36.7928V35.8677L39.5908 36.6078H39.3918V36.6152ZM40.1877 47.8416V45.5178L46.5703 42.3653L40.1877 44.2228V40.9592L46.7693 39.7677L50.3586 35.6383V40.5152L52.7859 41.3144L40.1877 47.8416ZM52.754 38.2803L53.3509 37.5402L51.1544 35.6827L55.1416 37.5402L61.3889 32.7596C62.527 33.4626 63.5854 34.3136 64.3176 35.3127L55.4201 39.9305L52.754 38.2803Z" fill="#AAAAAA"/>
<path d="M29.8308 38.7613L31.1917 40.7595L35.0834 41.5735V42.1063L31.0484 41.3441C31.0484 41.3441 29.8308 40.604 29.8308 38.7613Z" fill="#AAAAAA"/>
<path d="M28.7058 42.0246L32.4542 43.9191L33.8629 44.3705L32.112 42.9274L29.2947 41.7508L28.7058 42.0246Z" fill="#AAAAAA"/>
<path d="M29.0452 14.3395L30.032 16.2784L32.6742 17.2553C32.6662 17.2553 29.1725 17.7807 29.0452 14.3395Z" fill="#AAAAAA"/>
<path d="M49.9799 14.3395L48.993 16.2784L46.3508 17.2553C46.3588 17.2553 49.8525 17.7807 49.9799 14.3395Z" fill="#AAAAAA"/>
<path d="M70.3186 51.4665C70.3186 51.4665 55.2771 45.7978 39.3444 45.7904C39.3364 45.7904 39.3285 45.7904 39.3205 45.7904C39.3125 45.7904 39.3046 45.7904 39.2966 45.7904C23.3639 45.7978 10.9567 50.6747 10.9567 50.6747L9.9937 54.5451L5.78369 56.0918L8.91931 60.2212L7.82901 65.6679C22.6158 60.2212 38.3575 60.458 39.3046 60.4728C39.3046 60.4728 39.3125 60.4728 39.3285 60.4728C39.3444 60.4728 39.3523 60.4728 39.3523 60.4728C40.2994 60.4506 59.5588 61.4348 74.3455 66.8815L70.3186 51.4665Z" fill="#AAAAAA"/>
<path d="M13.1348 51.7791C12.8403 53.0963 12.5459 54.4062 12.2514 55.7235C11.2088 56.0417 10.1742 56.3747 9.13965 56.7225C9.68082 57.4626 10.23 58.1952 10.787 58.9278C11.1054 58.8316 11.2645 58.7798 11.5829 58.6836C11.2884 60.0009 10.994 61.3108 10.6995 62.628C11.5192 62.3838 12.3469 62.1396 13.1746 61.9102C13.4452 60.6003 13.7157 59.2979 13.9784 57.988C14.7742 57.766 15.578 57.5588 16.3818 57.3589C16.1351 58.6614 15.8964 59.9565 15.6496 61.259C16.4773 61.0517 17.305 60.8593 18.1406 60.6743C18.7375 57.1147 19.3424 53.5551 19.9392 49.9956C17.6631 50.5062 15.387 51.1056 13.1348 51.7791ZM16.9469 54.4284C16.159 54.6282 15.3791 54.828 14.5991 55.0426C14.6628 54.717 14.7344 54.3914 14.7981 54.0658C15.5701 53.8512 16.35 53.6513 17.1299 53.4515C17.0662 53.7772 17.0105 54.1028 16.9469 54.4284Z" fill="#AAAAAA"/>
<path d="M27.3019 51.5054C27.4053 50.5434 27.5008 49.5887 27.6043 48.6267C25.2963 48.9449 22.9963 49.3371 20.7202 49.8181C20.3542 52.0827 19.9881 54.3398 19.622 56.6043C21.2296 56.2639 22.8451 55.9605 24.4766 55.7015C24.4368 56.0197 24.397 56.3453 24.3572 56.6635C22.7178 56.9299 21.0863 57.2333 19.4708 57.5737C19.3116 58.5432 19.1524 59.5127 19.0012 60.4821C21.4922 59.9567 23.9912 59.5201 26.514 59.1796C26.7448 56.9373 26.9835 54.7024 27.2143 52.4601C25.6226 52.6747 24.0469 52.9337 22.4631 53.2223C22.5109 52.9041 22.5586 52.5785 22.5984 52.2603C24.1583 51.9791 25.7261 51.7274 27.3019 51.5054Z" fill="#AAAAAA"/>
<path d="M36.0632 47.9012C36.0234 49.1741 35.9836 50.4469 35.9438 51.7124C35.6812 51.7198 35.4106 51.7346 35.1479 51.7494C34.8933 51.7642 34.6386 51.779 34.3839 51.7938C34.3282 51.7938 34.2725 51.8012 34.2088 51.8012C34.0974 51.8086 33.994 51.816 33.8825 51.8234C33.5085 51.8456 33.1345 51.8678 32.7604 51.8974C31.9646 51.9566 31.1687 52.0232 30.3729 52.0972C30.3968 51.779 30.4206 51.4608 30.4445 51.1426C32.0203 50.9872 33.596 50.8762 35.1798 50.7948C35.2116 49.8401 35.2514 48.8855 35.2832 47.9308C32.9673 48.0492 30.6594 48.2416 28.3594 48.5302C28.1445 50.7652 27.9217 53.0001 27.7068 55.2424C29.3303 55.0426 30.9538 54.8798 32.5853 54.7614C32.5694 55.0796 32.5455 55.3978 32.5296 55.716C30.8822 55.8418 29.2428 56.0046 27.6113 56.2045C27.5158 57.1665 27.4283 58.1212 27.3328 59.0832C29.8397 58.7724 32.3625 58.5578 34.8933 58.432C34.941 57.1591 34.9888 55.8862 35.0365 54.6208C35.3628 54.606 35.522 54.5986 35.8483 54.5838C35.8085 55.8566 35.7687 57.1295 35.7289 58.395C36.5725 58.3654 37.4081 58.3432 38.2517 58.3284C38.2676 57.0555 38.2756 55.79 38.2915 54.5172C39.1033 54.5098 39.923 54.5098 40.7348 54.5172C40.7507 55.79 40.7586 57.0555 40.7745 58.3284C41.6181 58.3432 42.4538 58.3654 43.2974 58.395C43.1939 54.902 43.0825 51.4016 42.979 47.9086C40.679 47.8198 38.3711 47.8198 36.0632 47.9012ZM38.3313 51.6532C38.3313 51.335 38.3393 51.0168 38.3393 50.6986C39.1272 50.6912 39.915 50.6912 40.7109 50.6986C40.7109 51.0168 40.7188 51.335 40.7188 51.6532C39.923 51.6458 39.1272 51.6458 38.3313 51.6532Z" fill="#AAAAAA"/>
<path d="M46.2898 51.8886C46.2739 51.5704 46.25 51.2522 46.2341 50.934C47.8178 51.0524 49.3856 51.2078 50.9614 51.4002C50.8659 50.4381 50.7784 49.4835 50.6829 48.5214C48.3829 48.2402 46.0749 48.0404 43.759 47.922C43.8386 50.1495 43.9262 52.3696 44.0057 54.5972C45.6372 54.6786 47.2687 54.797 48.8922 54.9524C48.9161 55.2706 48.94 55.5888 48.9638 55.907C47.3244 55.7516 45.685 55.6258 44.0376 55.5444C44.0694 56.4991 44.1092 57.4537 44.141 58.4084C46.6718 58.5342 49.1867 58.7488 51.7015 59.0596C51.4867 56.8247 51.2638 54.5898 51.0489 52.3474C49.4732 52.1698 47.8815 52.0144 46.2898 51.8886Z" fill="#AAAAAA"/>
<path d="M54.224 52.8153C54.1842 52.4971 54.1444 52.1715 54.1046 51.8532C55.6804 52.1123 57.2482 52.4009 58.8001 52.7265C58.641 51.757 58.4818 50.7876 58.3306 49.8181C56.0545 49.3371 53.7624 48.9375 51.4465 48.6267C51.6773 50.869 51.9161 53.1039 52.1469 55.3462C53.7784 55.5682 55.3939 55.8273 57.0095 56.1233C57.0572 56.4415 57.105 56.7671 57.1448 57.0853C55.5213 56.7819 53.8818 56.5229 52.2424 56.3009C52.3458 57.2629 52.4413 58.2176 52.5448 59.1796C55.0676 59.5201 57.5745 59.9567 60.0576 60.4821C59.6915 58.2176 59.3254 55.9605 58.9593 53.6959C57.3915 53.3703 55.8157 53.0743 54.224 52.8153Z" fill="#AAAAAA"/>
<path d="M59.0984 49.9883C59.6953 53.5479 60.3001 57.1075 60.897 60.6671C61.7326 60.8521 62.5603 61.0519 63.388 61.2517C62.7195 57.6773 62.051 54.1029 61.3745 50.5211C60.6184 50.3361 59.8624 50.1585 59.0984 49.9883Z" fill="#AAAAAA"/>
<path d="M71.5683 63.4932C70.5019 59.1862 69.9926 57.0549 68.9261 52.7478C68.178 52.4962 67.4299 52.252 66.6739 52.0152C66.9763 53.3325 67.2787 54.6497 67.5812 55.967C65.6313 53.5767 64.5172 53.0217 62.1296 50.6535C62.9494 54.8866 63.395 57.2325 64.2147 61.4729C65.0424 61.6875 65.8701 61.9095 66.6978 62.1463C66.4192 60.8365 66.1407 59.5266 65.8621 58.2167C68.56 60.4887 69.4753 61.0067 71.5683 63.4932Z" fill="#AAAAAA"/>
<path d="M68.6623 58.1785L68.4156 57.1129C68.145 57.0389 67.8744 56.9649 67.6118 56.8909L68.6623 58.1785Z" fill="#AAAAAA"/>
<path d="M11.016 58.3003C11.1353 58.2632 11.2547 58.2262 11.4139 58.1818L12.353 57.9006L11.4696 61.845C11.8755 61.7266 12.2813 61.6082 12.6872 61.4972L13.499 57.575L13.8332 57.4862C14.637 57.2642 15.4488 57.057 16.2526 56.8498L17.1201 56.6352L16.3879 60.5426C16.8097 60.439 17.2315 60.3428 17.6612 60.2466L18.5844 54.7851C15.8228 55.3697 12.9498 56.1171 10.0928 57.0644C10.3872 57.464 10.6976 57.8858 11.016 58.3003Z" fill="#AAAAAA"/>
<path d="M20.3017 55.9224C21.6546 55.6486 23.0155 55.397 24.3684 55.1824L25.1245 55.0566L24.8698 57.1213L24.448 57.1879C22.9598 57.4321 21.4477 57.7059 19.9674 58.0168L19.6809 59.8002C21.766 59.3784 23.883 59.0158 25.984 58.7198L26.5331 53.4359C24.6549 53.6727 22.6494 53.9835 20.5643 54.3758L20.3017 55.9224Z" fill="#AAAAAA"/>
<path d="M39.4108 52.6229C39.4108 52.6229 39.4028 52.6229 39.3869 52.6229C39.371 52.6229 39.363 52.6229 39.363 52.6229C38.8855 52.6155 34.5641 52.5489 28.4839 53.2075L28.3486 54.6358C29.7413 54.473 31.1579 54.3398 32.5506 54.2362L33.2032 54.1844L33.0838 56.2121L32.5824 56.2491C31.1101 56.3601 29.6139 56.5081 28.1416 56.6783L27.9666 58.4692C30.0835 58.225 32.2164 58.04 34.3413 57.9289L34.4845 54.1103L35.0098 54.0881C35.3361 54.0733 35.4952 54.0659 35.8295 54.0511L36.4423 54.0289L36.3229 57.8475C36.7765 57.8327 37.2381 57.8179 37.6918 57.8105L37.7315 53.9919L38.2886 53.9845C39.1084 53.9771 39.936 53.9771 40.7478 53.9845L41.3049 53.9919L41.3447 57.8105C41.7983 57.8179 42.2599 57.8327 42.7135 57.8475L42.5623 52.8079C40.7637 52.6599 39.6256 52.6155 39.4108 52.6229Z" fill="#AAAAAA"/>
<path d="M44.5565 54.1031C46.0208 54.1845 47.4932 54.2955 48.9495 54.4361L49.427 54.4805L49.5862 56.5156L48.9098 56.449C47.4932 56.3084 46.0606 56.2048 44.6361 56.1234L44.6997 57.9143C46.8167 58.0327 48.9575 58.2103 51.0744 58.4545L50.6049 53.6147C48.3049 53.3187 46.2357 53.1041 44.5247 52.9487L44.5565 54.1031Z" fill="#AAAAAA"/>
<path d="M52.6673 54.8794C54.1476 55.0866 55.6438 55.3308 57.1161 55.6046L57.514 55.6786L57.8085 57.7581L57.0285 57.6101C55.6517 57.3585 54.259 57.1291 52.8742 56.9293L53.0573 58.7202C55.1583 59.0162 57.2673 59.3788 59.3604 59.8007L58.5566 54.872C56.4715 54.4872 54.45 54.169 52.5559 53.8951L52.6673 54.8794Z" fill="#AAAAAA"/>
<path d="M61.4028 60.2377C61.8246 60.3339 62.2464 60.4302 62.6761 60.5338L61.7291 55.4941C61.3391 55.4127 60.9491 55.3313 60.5671 55.2573L61.4028 60.2377Z" fill="#AAAAAA"/>
<path d="M69.4773 57.4188C69.1272 57.3152 68.769 57.219 68.4189 57.1154L68.6656 58.1811L67.6151 56.8934C66.3178 56.5456 65.0206 56.2274 63.7234 55.9313C63.7234 55.9461 63.7314 55.9535 63.7314 55.9683C64.0258 57.5002 64.3282 59.0839 64.7102 61.0524C65.1241 61.1634 65.5379 61.2744 65.9438 61.3854L64.9649 56.738L66.2462 57.8184C66.8511 58.3291 67.3683 58.7509 67.822 59.1283C68.8486 59.972 69.6126 60.5936 70.4801 61.4742C70.1936 60.2976 69.9389 59.2615 69.6843 58.2477C69.6126 57.9664 69.549 57.6926 69.4773 57.4188Z" fill="#AAAAAA"/>
</svg>
