<svg width="240" height="80" viewBox="0 0 240 80" fill="none" xmlns="http://www.w3.org/2000/svg">
<path d="M69.2314 31.4167H74.0314V55.5001H69.2314V31.4167Z" fill="#919495"/>
<path d="M76.7195 47.2501C76.7195 45.5174 77.2134 43.8237 78.1386 42.3837C79.0637 40.9437 80.3785 39.8223 81.9162 39.1615C83.4539 38.5007 85.1453 38.3304 86.776 38.6721C88.4067 39.0138 89.9034 39.8521 91.0762 41.0808C92.249 42.3095 93.0452 43.8733 93.3639 45.5739C93.6826 47.2745 93.5094 49.0354 92.8662 50.6334C92.2231 52.2313 91.139 53.5944 89.7513 54.5498C88.3636 55.5053 86.7349 56.01 85.0715 56.0001C83.9683 56.0091 82.8744 55.7885 81.854 55.3513C80.8337 54.9142 79.9074 54.2692 79.1295 53.4542C78.3516 52.6392 77.7377 51.6707 77.3239 50.6053C76.91 49.54 76.7046 48.3993 76.7195 47.2501ZM88.7515 47.2501C88.7326 46.5031 88.5027 45.7785 88.0906 45.1669C87.6784 44.5553 87.1023 44.0838 86.4343 43.8115C85.7663 43.5391 85.036 43.478 84.3348 43.6357C83.6336 43.7934 82.9926 44.163 82.492 44.6982C81.9913 45.2334 81.6533 45.9105 81.5202 46.6448C81.387 47.379 81.4646 48.1379 81.7434 48.8265C82.0221 49.515 82.4895 50.1027 83.0871 50.516C83.6848 50.9293 84.3861 51.1498 85.1035 51.1501C85.5919 51.16 86.0771 51.0649 86.5286 50.8706C86.9801 50.6764 87.3883 50.3872 87.7277 50.0212C88.067 49.6552 88.3303 49.2202 88.5009 48.7434C88.6716 48.2666 88.746 47.7582 88.7195 47.2501H88.7515Z" fill="#919495"/>
<path d="M112.417 38.9995V54.6828C112.417 60.2161 108.257 62.5661 104.049 62.5661C102.565 62.693 101.076 62.3858 99.7502 61.6791C98.4244 60.9725 97.3144 59.8943 96.5449 58.5661L100.593 56.1328C100.921 56.8217 101.443 57.3901 102.089 57.7623C102.735 58.1345 103.474 58.2928 104.209 58.2161C104.677 58.2762 105.152 58.2278 105.6 58.0744C106.048 57.921 106.457 57.6664 106.8 57.3288C107.142 56.9912 107.409 56.5789 107.581 56.1215C107.752 55.6641 107.825 55.1728 107.793 54.6828V53.1661C107.234 53.8716 106.526 54.4317 105.723 54.802C104.92 55.1723 104.046 55.3426 103.169 55.2995C101.047 55.2995 99.0124 54.4215 97.5121 52.8587C96.0118 51.2959 95.1689 49.1763 95.1689 46.9661C95.1689 44.756 96.0118 42.6364 97.5121 41.0736C99.0124 39.5108 101.047 38.6328 103.169 38.6328C104.046 38.5896 104.92 38.7599 105.723 39.1302C106.526 39.5005 107.234 40.0607 107.793 40.7661V39.0995L112.417 38.9995ZM107.793 46.9161C107.825 46.1187 107.627 45.3296 107.225 44.6503C106.823 43.9709 106.235 43.4324 105.537 43.1039C104.838 42.7755 104.062 42.6721 103.307 42.8071C102.552 42.9421 101.853 43.3093 101.299 43.8615C100.746 44.4137 100.364 45.1256 100.203 45.9058C100.041 46.6859 100.107 47.4985 100.393 48.2392C100.678 48.9798 101.169 49.6147 101.804 50.062C102.438 50.5094 103.187 50.7488 103.953 50.7494C104.453 50.787 104.955 50.7148 105.426 50.5377C105.898 50.3606 106.328 50.0824 106.69 49.7212C107.052 49.3599 107.337 48.9236 107.527 48.4405C107.717 47.9573 107.808 47.438 107.793 46.9161Z" fill="#919495"/>
<path d="M115.12 47.2502C115.12 45.5189 115.613 43.8266 116.536 42.3873C117.46 40.948 118.773 39.8265 120.309 39.1647C121.845 38.5029 123.534 38.3306 125.164 38.6696C126.794 39.0086 128.291 39.8436 129.465 41.069C130.639 42.2943 131.438 43.855 131.76 45.5534C132.083 47.2519 131.914 49.0117 131.276 50.6103C130.637 52.2088 129.558 53.5742 128.175 54.5337C126.791 55.4932 125.166 56.0035 123.504 56.0002C122.398 56.0114 121.302 55.7926 120.279 55.3566C119.256 54.9206 118.327 54.2763 117.546 53.4613C116.765 52.6463 116.148 51.6771 115.731 50.6106C115.315 49.5441 115.107 48.4016 115.12 47.2502ZM127.152 47.2502C127.133 46.5025 126.902 45.7773 126.49 45.1653C126.077 44.5534 125.5 44.0819 124.831 43.8101C124.162 43.5383 123.431 43.4781 122.729 43.6372C122.027 43.7963 121.387 44.1675 120.887 44.7044C120.387 45.2412 120.05 45.9198 119.919 46.6552C119.787 47.3905 119.867 48.1499 120.148 48.8381C120.429 49.5264 120.899 50.1129 121.499 50.5242C122.099 50.9355 122.802 51.1533 123.52 51.1502C124.008 51.1602 124.493 51.065 124.945 50.8708C125.396 50.6765 125.804 50.3874 126.144 50.0213C126.483 49.6553 126.746 49.2203 126.917 48.7435C127.088 48.2667 127.162 47.7584 127.136 47.2502H127.152Z" fill="#919495"/>
<path d="M134.112 34.5829C134.112 33.9961 134.279 33.4226 134.592 32.9347C134.905 32.4468 135.35 32.0666 135.87 31.842C136.391 31.6175 136.963 31.5587 137.516 31.6732C138.068 31.7877 138.576 32.0702 138.974 32.4851C139.372 32.9 139.644 33.4286 139.754 34.0041C139.863 34.5796 139.807 35.1761 139.592 35.7182C139.376 36.2603 139.011 36.7236 138.543 37.0496C138.074 37.3756 137.524 37.5495 136.96 37.5495C136.208 37.5409 135.488 37.2255 134.956 36.671C134.423 36.1166 134.121 35.367 134.112 34.5829ZM134.576 38.9995H139.376V55.4995H134.576V38.9995Z" fill="#919495"/>
<path d="M159.919 47.2503C159.973 48.3477 159.818 49.4452 159.463 50.4799C159.108 51.5146 158.56 52.4659 157.851 53.2792C157.142 54.0924 156.285 54.7515 155.33 55.2185C154.375 55.6855 153.341 55.9512 152.287 56.0003C151.393 56.0623 150.497 55.9131 149.666 55.5639C148.835 55.2147 148.09 54.6745 147.487 53.9837V62.1337H142.688V39.0003H147.487V40.5503C148.091 39.8615 148.836 39.3238 149.667 38.9774C150.499 38.6311 151.394 38.4851 152.287 38.5503C153.337 38.5995 154.367 38.8636 155.319 39.3275C156.27 39.7914 157.125 40.4459 157.833 41.2538C158.542 42.0617 159.091 43.007 159.449 44.0359C159.807 45.0648 159.967 46.1571 159.919 47.2503ZM155.119 47.2503C155.101 46.4762 154.863 45.7252 154.436 45.0913C154.009 44.4574 153.412 43.9689 152.719 43.687C152.027 43.4051 151.27 43.3423 150.544 43.5065C149.817 43.6707 149.154 44.0547 148.636 44.6102C148.118 45.1657 147.769 45.8681 147.633 46.6293C147.496 47.3905 147.579 48.1767 147.87 48.8893C148.161 49.6019 148.647 50.2092 149.268 50.6352C149.888 51.0611 150.616 51.2867 151.359 51.2836C151.869 51.3062 152.377 51.2163 152.85 51.02C153.324 50.8236 153.752 50.5253 154.107 50.1444C154.462 49.7636 154.736 49.3089 154.91 48.8101C155.085 48.3114 155.156 47.7798 155.119 47.2503Z" fill="#919495"/>
<path d="M174.528 50.5497C174.528 54.3497 171.328 55.9664 167.936 55.9664C166.553 56.0961 165.164 55.7906 163.949 55.0895C162.734 54.3883 161.748 53.3236 161.12 52.0331L165.248 49.5997C165.412 50.1944 165.766 50.7126 166.253 51.0676C166.739 51.4225 167.328 51.5927 167.92 51.5497C169.056 51.5497 169.632 51.1831 169.632 50.5164C169.632 48.6997 161.84 49.6664 161.84 43.9497C161.84 40.3497 164.752 38.5497 168.048 38.5497C169.301 38.4913 170.546 38.7874 171.65 39.4066C172.754 40.0257 173.677 40.9449 174.32 42.0664L170.192 44.3331C170.01 43.9031 169.712 43.5373 169.334 43.28C168.956 43.0227 168.515 42.8848 168.064 42.8831C167.232 42.8831 166.736 43.2164 166.736 43.7997C166.736 45.6997 174.528 44.4497 174.528 50.5497Z" fill="#919495"/>
<path d="M191.92 38.9998V55.4998H187.12V53.9498C186.575 54.6358 185.882 55.1788 185.098 55.5349C184.315 55.891 183.462 56.0502 182.608 55.9998C179.408 55.9998 176.672 53.6164 176.672 49.1664V38.9998H181.472V48.4164C181.434 48.8101 181.479 49.2076 181.603 49.5815C181.727 49.9554 181.928 50.2968 182.191 50.582C182.454 50.8673 182.774 51.0896 183.127 51.2337C183.481 51.3777 183.861 51.4401 184.24 51.4164C185.968 51.4164 187.184 50.3498 187.184 48.0831V38.9998H191.92Z" fill="#919495"/>
<path d="M219.12 45.3663V55.4997H214.32V45.7997C214.32 44.133 213.568 43.0997 212.048 43.0997C210.528 43.0997 209.568 44.2497 209.568 46.1997V55.4997H204.768V45.7997C204.768 44.133 204.016 43.0997 202.496 43.0997C200.976 43.0997 200.016 44.2497 200.016 46.1997V55.4997H195.216V38.9997H200.016V40.5163C200.513 39.8463 201.162 39.3156 201.905 38.9723C202.648 38.6289 203.461 38.4837 204.272 38.5497C205.084 38.5056 205.892 38.6821 206.619 39.062C207.345 39.4418 207.965 40.0119 208.416 40.7163C208.943 39.9804 209.641 39.3957 210.444 39.0168C211.247 38.6379 212.129 38.4772 213.008 38.5497C216.752 38.5497 219.12 41.2497 219.12 45.3663Z" fill="#919495"/>
<path d="M40.6402 27.0833V20H19.2002V68.6667H40.6402V61.5833C36.2482 61.5833 32.0361 59.7659 28.9305 56.5309C25.8249 53.2959 24.0802 48.9083 24.0802 44.3333C24.0802 39.7583 25.8249 35.3707 28.9305 32.1357C32.0361 28.9007 36.2482 27.0833 40.6402 27.0833Z" fill="#919495"/>
<path d="M40.6406 27.0833V61.5832C45.0326 61.5832 49.2447 59.7658 52.3503 56.5308C55.4559 53.2958 57.2006 48.9082 57.2006 44.3333C57.2006 39.7583 55.4559 35.3707 52.3503 32.1357C49.2447 28.9007 45.0326 27.0833 40.6406 27.0833Z" fill="#919495"/>
<path d="M223.151 38.9C225.095 38.9 226.671 37.2584 226.671 35.2333C226.671 33.2083 225.095 31.5667 223.151 31.5667C221.207 31.5667 219.631 33.2083 219.631 35.2333C219.631 37.2584 221.207 38.9 223.151 38.9Z" fill="#919495"/>
</svg>
