<svg width="240" height="80" viewBox="0 0 240 80" fill="none" xmlns="http://www.w3.org/2000/svg">
<path d="M76.7842 30.051H81.9202V51.7176H76.7842V30.051ZM83.9682 43.5676C83.9682 38.201 87.1682 34.9843 91.9682 34.9843C96.7682 34.9843 99.9682 38.201 99.9682 43.5676C99.9682 48.9343 96.8802 52.1843 91.9682 52.1843C87.0562 52.1843 83.9682 49.051 83.9682 43.5676ZM94.8802 43.5676C94.8802 40.6176 93.7762 38.8843 92.0162 38.8843C90.2562 38.8843 89.1682 40.551 89.1682 43.5676C89.1682 46.5843 90.2562 48.2343 92.0162 48.2343C93.7762 48.2343 94.9122 46.5843 94.9122 43.5843L94.8802 43.5676ZM102.016 52.8343H106.976C107.202 53.3905 107.596 53.8546 108.099 54.1555C108.602 54.4564 109.185 54.5778 109.76 54.501C111.728 54.501 112.752 53.401 112.752 51.7676V48.7676H112.768C112.344 49.7018 111.659 50.4804 110.802 51.001C109.945 51.5216 108.957 51.7598 107.968 51.6843C104.208 51.6843 101.712 48.701 101.712 43.5676C101.712 38.4343 104.096 35.2343 108.112 35.2343C109.127 35.1777 110.133 35.4503 110.993 36.0145C111.853 36.5786 112.523 37.4066 112.912 38.3843H112.768V35.3676H117.856V51.601C117.856 55.5176 114.528 57.9676 109.632 57.9676C105.184 57.951 102.336 55.8343 102.048 52.851L102.016 52.8343ZM112.768 43.5676C112.768 40.951 111.616 39.301 109.792 39.301C107.968 39.301 106.848 40.9676 106.848 43.5676C106.848 46.1676 107.952 47.701 109.792 47.701C111.632 47.701 112.768 46.2843 112.768 43.5676ZM119.888 43.5676C119.888 38.201 123.088 34.9843 127.888 34.9843C132.688 34.9843 135.888 38.201 135.888 43.5676C135.888 48.9343 132.784 52.1843 127.888 52.1843C122.992 52.1843 119.92 49.051 119.92 43.5676H119.888ZM130.8 43.5676C130.8 40.6176 129.68 38.8843 127.936 38.8843C126.192 38.8843 125.088 40.551 125.088 43.5676C125.088 46.5843 126.176 48.2343 127.936 48.2343C129.696 48.2343 130.832 46.5843 130.832 43.5843L130.8 43.5676ZM137.968 31.4176C137.946 30.8727 138.081 30.3332 138.355 29.8686C138.629 29.404 139.031 29.0356 139.508 28.8107C139.985 28.5858 140.516 28.5148 141.032 28.6067C141.548 28.6986 142.026 28.9493 142.404 29.3265C142.783 29.7037 143.044 30.1902 143.155 30.7233C143.265 31.2565 143.22 31.8119 143.025 32.3182C142.83 32.8245 142.495 33.2585 142.061 33.5643C141.627 33.8701 141.116 34.0338 140.592 34.0343C140.258 34.0431 139.925 33.9827 139.612 33.8564C139.3 33.7301 139.016 33.5405 138.774 33.2987C138.533 33.0568 138.341 32.7674 138.208 32.4474C138.075 32.1273 138.004 31.783 138 31.4343L137.968 31.4176ZM137.968 35.351H143.168V51.7843H138.048L137.968 35.351ZM161.872 43.5676C161.872 48.9176 159.568 52.0176 155.648 52.0176C154.645 52.0821 153.646 51.8242 152.788 51.2788C151.929 50.7333 151.252 49.9266 150.848 48.9676H150.752V57.0676H145.616V35.401H150.72V38.3343H150.816C151.207 37.3564 151.877 36.5277 152.736 35.961C153.595 35.3943 154.601 35.1173 155.616 35.1676C159.648 35.1343 161.968 38.2176 161.968 43.5843L161.872 43.5676ZM156.64 43.5676C156.64 40.9676 155.472 39.2843 153.664 39.2843C151.856 39.2843 150.72 40.951 150.704 43.5676C150.688 46.1843 151.856 47.8343 153.664 47.8343C155.472 47.8343 156.736 46.2843 156.736 43.5843L156.64 43.5676ZM170.64 34.9676C174.944 34.9676 177.616 37.0843 177.648 40.4843H172.96C172.96 39.301 172.016 38.5676 170.608 38.5676C169.2 38.5676 168.528 39.1343 168.528 39.9843C168.528 40.8343 169.12 41.101 170.304 41.351L173.6 42.051C176.8 42.751 178.08 44.0843 178.08 46.5676C178.08 49.901 175.12 52.1676 170.72 52.1676C166.32 52.1676 163.456 49.9676 163.248 46.6176H168.224C168.368 47.8343 169.296 48.551 170.8 48.551C172.304 48.551 173.008 48.051 173.008 47.1676C173.008 46.2843 172.528 46.1343 171.296 45.8676L168.32 45.2176C165.232 44.5343 163.616 42.851 163.616 40.3343C163.712 37.0676 166.4 34.9843 170.736 34.9843L170.64 34.9676ZM195.28 51.7676H190.304V48.6843H190.208C189.93 49.7127 189.323 50.6116 188.488 51.2327C187.653 51.8538 186.64 52.1601 185.616 52.101C184.843 52.1272 184.073 51.9828 183.357 51.6772C182.641 51.3716 181.995 50.9118 181.462 50.3279C180.928 49.744 180.52 49.0492 180.262 48.2891C180.005 47.5291 179.905 46.7209 179.968 45.9176V35.3676H185.104V44.7676C185.104 46.701 186.08 47.751 187.68 47.751C188.056 47.748 188.426 47.6612 188.766 47.4964C189.107 47.3316 189.409 47.0926 189.653 46.7956C189.898 46.4986 190.078 46.1505 190.182 45.7748C190.286 45.399 190.311 45.0044 190.256 44.6176V35.3676H195.376L195.28 51.7676ZM197.76 35.351H202.752V38.5176H202.864C203.14 37.5032 203.731 36.6127 204.544 35.9854C205.358 35.3581 206.348 35.0295 207.36 35.051C208.376 34.959 209.388 35.265 210.199 35.9092C211.01 36.5534 211.561 37.4894 211.744 38.5343H211.968C212.288 37.4838 212.932 36.5728 213.8 35.9429C214.668 35.313 215.711 34.9994 216.768 35.051C217.471 35.0231 218.171 35.1501 218.823 35.4236C219.475 35.697 220.064 36.1108 220.552 36.6379C221.04 37.165 221.415 37.7934 221.654 38.4821C221.892 39.1708 221.989 39.9042 221.936 40.6343V51.7843H216.768V42.001C216.768 40.3343 216.016 39.401 214.56 39.401C214.237 39.3954 213.917 39.4627 213.621 39.5982C213.326 39.7337 213.062 39.9341 212.847 40.1858C212.633 40.4376 212.474 40.7345 212.38 41.0565C212.286 41.3784 212.26 41.7177 212.304 42.051V51.7843H207.408V41.951C207.408 40.2843 206.624 39.401 205.216 39.401C204.89 39.3983 204.567 39.4683 204.269 39.6064C203.97 39.7444 203.704 39.9474 203.487 40.2015C203.271 40.4556 203.109 40.7551 203.012 41.0799C202.916 41.4046 202.887 41.7471 202.928 42.0843V51.7843H197.792L197.76 35.351Z" fill="#919495"/>
<path d="M66.6242 31.4675C66.6243 28.1503 65.6627 24.9104 63.8652 22.1722C62.0678 19.4339 59.5183 17.325 56.5507 16.1217C53.5831 14.9183 50.3359 14.6767 47.2342 15.4283C44.1325 16.18 41.3211 17.8899 39.1682 20.3341H19.2002V64.2341H61.3602V43.7175C63.0149 42.1757 64.339 40.2879 65.2461 38.1771C66.1531 36.0663 66.6227 33.7801 66.6242 31.4675ZM58.5122 31.4675C58.5154 33.057 58.0658 34.6118 57.2203 35.9351C56.3748 37.2584 55.1715 38.2906 53.7626 38.9012C52.3537 39.5118 50.8025 39.6732 49.3055 39.3651C47.8085 39.0571 46.4328 38.2933 45.3527 37.1705C44.2725 36.0476 43.5364 34.6163 43.2376 33.0575C42.9387 31.4987 43.0905 29.8826 43.6737 28.4138C44.2569 26.9449 45.2454 25.6893 46.514 24.8058C47.7826 23.9224 49.2742 23.4508 50.8002 23.4508C52.8428 23.4508 54.8019 24.2949 56.2478 25.7978C57.6936 27.3008 58.508 29.3398 58.5122 31.4675ZM53.2482 55.7841H27.3122V28.7841H35.2162C35.0635 29.6699 34.9832 30.5676 34.9762 31.4675C34.9804 35.8378 36.649 40.0278 39.6156 43.1181C42.5823 46.2083 46.6047 47.9464 50.8002 47.9508C51.6204 47.9463 52.439 47.8738 53.2482 47.7341V55.7841Z" fill="#919495"/>
</svg>
