<svg width="90" height="90" viewBox="0 0 90 90" fill="none" xmlns="http://www.w3.org/2000/svg">
<path d="M85.1998 81.8727L83.2211 81.0938C74.6619 77.7005 64.7596 75.8024 57.9641 74.8086C51.3297 73.8327 46.3607 73.5104 44.7939 73.4388L44.2388 73.4209L43.1107 73.4567V73.4209C41.3021 73.4298 37.4433 73.5194 32.4742 74.0834C23.8881 75.0504 16.063 76.9216 9.21375 79.6344L7.36043 80.3686L8.86457 72.257L4.7998 66.5L10.306 64.3244L11.3894 59.6598L11.9087 59.4449C11.9892 59.4091 13.9948 58.5675 17.4507 57.511C20.3158 56.6425 24.7118 55.4697 30.0031 54.6101C29.7525 54.2431 29.5107 53.867 29.269 53.491L12.5981 42.5054L13.2248 41.5832C13.3322 41.431 15.5526 38.1899 19.304 35.5577C18.158 35.4323 17.6387 34.7698 17.4686 34.4922C17.012 33.7939 16.9046 32.9881 17.1463 32.1823L7.90658 22.9426C6.7337 22.4591 6.33081 21.5817 6.10698 20.4267C5.98163 19.8 6.19651 19.1374 6.75161 18.466C7.71856 17.2841 9.88524 15.968 11.4521 15.968C12.5264 15.968 13.3949 16.5231 13.8426 17.499C13.9769 17.7945 14.0574 18.081 14.0933 18.3137L19.7875 23.7125C19.6443 22.1368 19.5368 20.5341 19.4831 18.9315C19.4741 18.6898 19.4741 18.448 19.4831 18.2958C19.4831 18.2511 19.4831 18.2063 19.4831 18.1794V17.3558L20.271 17.123C21.4797 16.7648 22.6973 16.4336 23.8612 16.1202C25.6071 15.6457 27.2814 15.1891 28.9109 14.6608C28.9377 13.6491 29.0989 12.9418 29.1078 12.906L29.457 11.4287L32.5548 13.3089C35.1781 12.2076 37.7835 10.8826 40.3083 9.60225C41.2305 9.12773 42.1885 8.64426 43.1375 8.17869C43.8896 7.80265 44.7312 7.55196 45.7966 8.1966C49.181 10.2648 52.6727 12.0107 56.1734 13.3895L59.3876 11.4377L59.7368 12.9149C59.7458 12.9508 59.9159 13.676 59.9338 14.7235C62.4228 15.5203 64.9745 16.1471 67.5261 16.5947C67.7947 16.6395 68.0365 16.7201 68.3051 16.8096C68.4394 16.8544 68.5916 16.8991 68.7617 16.9529L69.6301 17.2125L69.5496 18.1168C69.46 19.0927 69.3794 20.0865 69.2989 21.0534C69.1288 23.1933 68.9497 25.4047 68.6363 27.5803C68.3051 29.8724 67.8843 32.1107 67.4008 34.2505C69.9166 35.6024 71.9132 37.3931 73.1935 38.7092C74.7245 40.285 75.5751 41.5474 75.6109 41.5921L76.2376 42.5143L74.447 43.6962L74.5902 43.8752L74.3843 43.732L59.6383 53.4641C59.3608 53.9028 59.0832 54.3326 58.7967 54.7534C64.5984 55.7472 69.666 57.126 73.0145 58.1467C77.0076 59.3733 79.4339 60.3492 79.5324 60.385L80.0606 60.5998L85.1998 81.8727ZM72.1281 40.7595L73.0861 41.9592L73.1309 41.9324C72.8623 41.6011 72.531 41.1982 72.1281 40.7595ZM10.9149 18.645C10.9238 18.654 10.9328 18.6629 10.9417 18.6719L11.3894 18.1705L10.9149 18.645ZM10.7447 18.3675C10.7716 18.466 10.8253 18.5555 10.897 18.6271L11.3804 18.1794C11.3625 18.1794 11.3446 18.1794 11.3267 18.1884L10.7447 18.3675ZM26.583 48.7279L24.3178 47.5908L26.4219 46.1941L26.8337 46.8119L27.0038 46.4717L26.8337 46.8119L27.6395 48.0295L26.583 48.7279ZM61.7334 48.3697L61.241 48.0385L62.4676 46.2031L62.96 46.5343L61.7334 48.3697ZM20.459 40.7416L20.3695 40.67L21.7662 38.9688L21.8557 39.0405L20.459 40.7416Z" fill="#AAAAAA"/>
<path d="M20.5836 18.1794C20.5836 18.3047 20.5746 18.6002 20.5836 18.8956C20.879 27.258 22.3742 35.3606 25.3377 43.1141C29.0981 52.9627 34.9714 60.94 43.6292 66.3746C44.2738 66.7775 44.6946 66.7327 45.3034 66.3478C51.6602 62.3457 56.6293 56.8842 60.3449 50.0887C64.1948 43.0604 66.3972 35.4143 67.5612 27.4102C68.0088 24.2944 68.1789 21.1339 68.4654 18.0003C67.9372 17.8481 67.6417 17.7317 67.3373 17.678C59.4764 16.2902 52.1347 13.3625 45.2229 9.13661C44.614 8.76058 44.2201 8.86802 43.6292 9.16347C39.7256 11.0974 35.8667 13.2014 31.8378 14.7951C28.2475 16.2097 24.4603 17.0423 20.5836 18.1794Z" fill="#AAAAAA"/>
<path d="M72.3599 41.8606L62.3502 47.4474L59.3509 45.4508L60.0224 44.5555L57.5513 42.3083L62.0368 44.5555L69.0651 38.7717C70.3454 39.6223 71.5273 40.6519 72.3599 41.8606Z" fill="#AAAAAA"/>
<path d="M67.6968 37.9392L61.8145 43.2126L57.1768 41.601L62.0384 35.5845C62.0384 35.5845 64.8586 36.3455 67.6968 37.9392Z" fill="#AAAAAA"/>
<path d="M60.1131 33.1851C60.1758 33.6864 60.0147 34.0088 60.0147 34.0088L50.5959 45.0033L49.2529 42.0846L46.3341 43.6514V42.5322L44.5435 43.4276H44.3197L42.529 42.5322V43.6514L39.6013 42.0846L38.2583 45.0033L28.8395 34.0088C28.8395 34.0088 28.6784 33.6864 28.741 33.1851C31.1315 36.9544 34.9367 39.703 34.9367 39.703C34.5696 38.2705 34.4353 36.838 34.4621 35.4592L36.2349 36.7216C39.279 41.4489 44.436 42.8545 44.436 42.8545C44.436 42.8545 49.5842 41.4399 52.6372 36.7216L54.4099 35.4592C54.4368 36.838 54.3025 38.2705 53.9354 39.703C53.9265 39.703 57.7226 36.9544 60.1131 33.1851Z" fill="#AAAAAA"/>
<path d="M57.3723 26.5417L59.8255 28.9949C59.7359 29.2993 59.6195 29.6843 59.4673 30.123C59.3151 30.5617 59.1182 31.0452 58.8764 31.5287C58.3482 32.5941 57.5871 33.6775 56.5038 34.3042C56.5038 34.3042 56.4769 34.1789 56.4232 33.955C56.28 33.3462 55.9308 32.0032 55.3757 30.3737C55.2772 30.0693 55.1608 29.7649 55.0444 29.4426C55.7159 28.9681 56.6918 28.3145 57.3723 26.5417Z" fill="#AAAAAA"/>
<path d="M59.3789 49.1035L45.2148 57.0182V54.1979L52.3953 50.3839L45.2148 52.6311V48.6827L52.6192 47.2502L56.6571 42.2454V48.1455L59.3789 49.1035Z" fill="#AAAAAA"/>
<path d="M44.4264 23.3006L57.8025 14.6697C57.8025 18.7703 54.7853 20.4982 54.7853 20.4982C49.6103 21.7964 44.4264 26.7565 44.4264 26.7565C44.4264 26.7565 39.2514 21.7964 34.0675 20.4982C34.0675 20.4982 31.0503 18.7703 31.0503 14.6697L44.4264 23.3006Z" fill="#AAAAAA"/>
<path d="M56.728 25.4671C56.728 25.8431 56.1103 28.3321 55.0359 29.4244C54.2032 27.1861 53.0304 24.6255 51.4814 22.7901C52.3857 22.2887 53.281 21.8679 54.0958 21.5903C54.7136 22.4051 56.728 25.1 56.728 25.4671Z" fill="#AAAAAA"/>
<path d="M54.0961 32.4777C53.8365 33.1223 53.3351 34.2683 52.5651 35.5039C52.019 36.3813 51.3296 37.3035 50.5059 38.1092C51.9831 35.5218 53.1829 30.9825 53.1829 30.9825L52.1622 26.5059C52.9053 28.1085 53.6753 30.1677 54.0961 32.4777Z" fill="#AAAAAA"/>
<path d="M52.0988 17.1497L44.4259 21.7964V17.4809C44.4259 18.7792 43.3515 19.2089 43.3515 19.2089L42.7606 20.7847L36.762 17.1497C37.1559 15.9499 38.9107 11.8762 44.4349 11.8762C49.959 11.8762 51.696 15.941 52.0988 17.1497Z" fill="#AAAAAA"/>
<path d="M50.066 27.7143C50.0212 27.7233 47.5859 28.0725 46.5474 29.12C46.5474 29.12 47.6038 30.1765 48.6603 29.4692C49.6989 28.7798 50.0481 27.7502 50.066 27.7143ZM38.7939 27.7143C38.8028 27.7502 39.1609 28.7798 40.1995 29.4781C41.256 30.1854 42.3125 29.129 42.3125 29.129C41.2649 28.0725 38.8386 27.7233 38.7939 27.7143ZM50.5763 26.7563C50.5763 26.7563 52.1789 28.4127 51.8298 29.4781C51.8298 29.4781 45.8401 31.9403 44.4344 31.9403C43.0287 31.9403 37.039 29.4781 37.039 29.4781C36.6898 28.4216 38.2925 26.7653 38.2925 26.7563C40.674 27.589 44.2911 29.12 44.4344 30.8569C44.5687 29.129 48.1947 27.589 50.5763 26.7563Z" fill="#AAAAAA"/>
<path d="M40.9694 26.3269C40.9067 26.2911 38.8116 25.0197 38.5967 24.1691C38.5072 23.811 38.4535 23.5603 38.4266 23.3992C41.5065 25.2525 44.4253 27.6251 44.4253 27.6251C44.4253 27.6251 47.3441 25.2525 50.424 23.3992C50.3971 23.5693 50.3434 23.811 50.2539 24.1691C50.039 25.0197 47.9439 26.2911 47.8812 26.3269L51.2566 24.7332C51.3909 24.9749 51.5342 25.2346 51.6774 25.53C46.7084 26.6492 44.4163 29.3531 44.4163 29.3531C44.4163 29.3531 42.1333 26.6581 37.1553 25.53C37.3075 25.2435 37.4418 24.9749 37.5761 24.7332L40.9694 26.3269Z" fill="#AAAAAA"/>
<path d="M52.1081 29.8096C51.8395 31.0541 50.7651 35.5217 48.6522 37.9302C46.19 40.7504 45.4827 40.7504 45.4827 40.7504H46.8884C46.8884 40.7504 45.4827 42.1561 44.4263 42.1561C43.3698 42.1561 41.9641 40.7504 41.9641 40.7504H43.3698C43.3698 40.7504 42.6625 40.7504 40.2003 37.9302C38.0963 35.5217 37.013 31.0541 36.7444 29.8096C38.732 31.1526 44.4263 32.6477 44.4263 32.6477C44.4263 32.6477 50.1205 31.1436 52.1081 29.8096Z" fill="#AAAAAA"/>
<path d="M50.0672 27.7146C50.0583 27.7504 49.7001 28.78 48.6615 29.4784C47.6051 30.1857 46.5486 29.1292 46.5486 29.1292C47.5872 28.0727 50.0135 27.7236 50.0672 27.7146Z" fill="#AAAAAA"/>
<path d="M43.6376 54.1979V57.0182L29.4736 49.1035L32.1954 48.1455V42.2454L36.2333 47.2502L43.6376 48.6827V52.6311L36.4661 50.3839L43.6376 54.1979Z" fill="#AAAAAA"/>
<path d="M42.3131 29.1199C42.3131 29.1199 41.2566 30.1764 40.2001 29.4691C39.1615 28.7708 38.8034 27.7411 38.7944 27.7053C38.8392 27.7232 41.2655 28.0724 42.3131 29.1199Z" fill="#AAAAAA"/>
<path d="M38.3549 38.1092C37.5312 37.3035 36.8418 36.3813 36.2956 35.5039C35.5257 34.2773 35.0243 33.1223 34.7646 32.4777C35.1765 30.1677 35.9554 28.1085 36.6985 26.5059L35.6779 30.9825C35.6779 30.9825 36.8776 35.5128 38.3549 38.1092Z" fill="#AAAAAA"/>
<path d="M34.7568 21.5903C35.5715 21.8679 36.4668 22.2887 37.3711 22.7901C35.8222 24.6255 34.6404 27.1771 33.8167 29.4244C32.7423 28.3232 32.1245 25.8431 32.1245 25.4671C32.1245 25.1 34.1479 22.4051 34.7568 21.5903Z" fill="#AAAAAA"/>
<path d="M33.7976 29.4603C33.6812 29.7737 33.5738 30.0871 33.4664 30.3825C32.9113 32.0031 32.5621 33.355 32.4188 33.9638C32.3651 34.1876 32.3383 34.313 32.3383 34.313C31.2549 33.6773 30.4939 32.6029 29.9656 31.5375C29.7239 31.054 29.5269 30.5705 29.3747 30.1318C29.2225 29.6931 29.1061 29.3081 29.0166 29.0037L31.4698 26.5505C32.1681 28.3143 33.1351 28.9679 33.7976 29.4603Z" fill="#AAAAAA"/>
<path d="M26.8166 35.5845L31.6783 41.601L27.0405 43.2126L21.1582 37.9392C24.0053 36.3455 26.8166 35.5845 26.8166 35.5845Z" fill="#AAAAAA"/>
<path d="M31.3008 42.3083L28.8297 44.5555L29.5012 45.4508L26.5019 47.4474L16.4922 41.8606C17.3159 40.6519 18.5067 39.6223 19.787 38.7717L26.8153 44.5555L31.3008 42.3083Z" fill="#AAAAAA"/>
<path d="M24.8552 31.8241L26.2609 33.6147C24.7209 33.937 23.2884 34.5011 21.9992 35.1994L22.026 35.1815L20.6472 33.6774C20.6472 33.6774 20.871 30.0871 24.4613 31.4301L24.8552 31.8241Z" fill="#AAAAAA"/>
<path d="M21.3537 39.7388L20.145 40.6699L26.7167 46.203L29.4474 44.8332L31.6947 42.1472L30.3248 42.4247L26.9316 44.0632L24.9619 42.1472L21.3537 39.7388Z" fill="#AAAAAA"/>
<path d="M20.423 29.1829C20.4767 29.174 22.8941 28.5204 23.5656 29.1829C24.2371 29.8544 23.7894 30.3021 23.7894 30.3021C23.7894 30.3021 21.3183 29.8544 20.6468 31.8689C20.2887 32.9433 20.1813 33.3193 20.1634 33.4357C19.9306 33.3909 18.4533 33.0597 19.0711 31.1974L9.04346 21.1698C9.39263 20.355 10.1895 19.3344 12.0338 18.9941L21.4526 28.1981C21.1124 28.4129 20.7632 28.7353 20.423 29.1829Z" fill="#AAAAAA"/>
<path d="M11.4428 17.7406C11.98 17.848 11.774 18.4747 11.774 18.4747C11.0936 18.6269 9.52677 19.1373 8.47924 20.8026C8.16588 20.6862 7.70031 20.4355 7.85252 19.9878C8.0853 19.3163 10.3236 17.5167 11.4428 17.7406Z" fill="#AAAAAA"/>
<path d="M27.7551 36.4617L26.2778 37.0078L30.2173 41.2158L28.2475 42.9707L32.1332 41.8247L27.7551 36.4617Z" fill="#AAAAAA"/>
<path d="M67.5441 39.7388L68.7528 40.6699L62.1811 46.203L59.4414 44.8332L57.2031 42.1472L58.573 42.4247L61.9662 44.0632L63.936 42.1472L67.5441 39.7388Z" fill="#AAAAAA"/>
<path d="M61.1418 36.4617L62.6191 37.0078L58.6797 41.2158L60.6494 42.9707L56.7637 41.8247L61.1418 36.4617Z" fill="#AAAAAA"/>
<path d="M69.0195 38.6465L70.8281 40.8937L69.2434 42.2636L69.5657 42.8097L66.8887 45.1644L72.6904 42.0935V41.2161L69.0195 38.6465Z" fill="#AAAAAA"/>
<path d="M61.9131 35.3604L65.9062 37.8852L64.6975 39.0849L64.9751 39.4162L63.659 41.932L68.4221 37.8225L66.1748 36.8376L61.9131 35.3604Z" fill="#AAAAAA"/>
<path d="M51.6164 46.2028L56.3168 42.3529L56.6033 41.6545L56.666 42.0664L56.7645 41.9858L56.6749 42.147L57.5882 48.0651L59.9339 48.9335L58.8953 49.6498L56.7645 48.0651L55.7259 43.8033L53.4249 47.8412L47.5158 49.1573V50.8495L52.1536 50.4735L47.5158 53.813V54.6815L53.9173 52.3895L44.4448 57.9673V47.4562L51.6164 46.2028Z" fill="#AAAAAA"/>
<path d="M44.4446 32.63L38.6429 31.4751L39.2428 33.7223L41.5438 35.7457H39.7889C39.7889 35.7457 42.5286 40.2313 44.2745 40.2313H44.4356V42.4249L42.6808 41.6549L40.7111 39.6852L38.4638 35.9606L36.5479 30.4365L36.709 29.6665L38.625 30.4365L44.4446 32.63Z" fill="#AAAAAA"/>
<path d="M44.2832 32.6299L50.0849 31.4838L49.485 33.7311L47.184 35.7545H48.9389C48.9389 35.7545 46.1992 40.2401 44.4533 40.2401H44.2832V42.4336L46.038 41.6637L48.0077 39.694L50.255 35.9694L52.171 30.4453L52.0098 29.6753L50.0938 30.4453L44.2832 32.6299Z" fill="#AAAAAA"/>
<path d="M55.3405 46.033L53.8095 48.4503L49.4314 49.4352V50.0798L53.9707 49.1487C53.9707 49.1576 55.3405 48.2623 55.3405 46.033Z" fill="#AAAAAA"/>
<path d="M56.603 49.9809L52.386 52.273L50.8013 52.8191L52.771 51.0732L55.9404 49.6497L56.603 49.9809Z" fill="#AAAAAA"/>
<path d="M32.6807 39.0847L37.3901 42.7018L37.6587 42.1467L36.7275 39.7383L42.6993 43.7404L39.9596 43.1942L38.3749 45.7101L32.6807 39.0847Z" fill="#AAAAAA"/>
<path d="M55.9946 39.0847L51.2941 42.7018L51.0166 42.1467L51.9477 39.7383L45.9849 43.7404L48.7156 43.1942L50.3093 45.7101L55.9946 39.0847Z" fill="#AAAAAA"/>
<path d="M19.8764 38.6465L18.0678 40.8937L19.6526 42.2636L19.3213 42.8097L22.0073 45.1644L16.2056 42.0935V41.2161L19.8764 38.6465Z" fill="#AAAAAA"/>
<path d="M36.4045 22.011L34.1572 25.6729V27.3203L33.423 28.9856L32.8411 28.4125L31.6951 31.3671L31.9726 34.3217L32.5188 34.6529L34.7571 27.7052L36.8432 24.0344L37.8818 22.772L36.4045 22.011Z" fill="#AAAAAA"/>
<path d="M26.986 35.3604L22.9929 37.8852L24.2016 39.0849L23.924 39.4162L25.2402 41.932L20.4771 37.8225L22.7154 36.8376L26.986 35.3604Z" fill="#AAAAAA"/>
<path d="M35.4196 21.5728L32.7336 25.5122L33.1723 28.7443L31.9726 26.7746L29.6716 29.1203L30.4953 32.8449L28.4629 29.0129L31.2563 26.0046L32.2949 24.3035L34.4347 21.0266L35.4196 21.5728Z" fill="#AAAAAA"/>
<path d="M52.6006 22.011L54.8478 25.6729V27.3203L55.582 28.9856L56.164 28.4125L57.31 31.3671L57.0324 34.3217L56.4863 34.6529L54.248 27.7052L52.1619 24.0344L51.1233 22.772L52.6006 22.011Z" fill="#AAAAAA"/>
<path d="M53.5315 21.5728L56.2175 25.5122L55.7788 28.7443L56.9785 26.7746L59.2795 29.1203L58.4558 32.8449L60.4882 29.0129L57.6947 26.0046L56.6562 24.3035L54.5163 21.0266L53.5315 21.5728Z" fill="#AAAAAA"/>
<path d="M37.2816 46.2028L32.5811 42.3529L32.2946 41.6545L32.232 42.0664L32.1335 41.9858L32.223 42.147L31.3098 48.0651L28.9551 48.9335L30.0026 49.6498L32.1335 48.0651L33.1721 43.8033L35.473 47.8412L41.3822 49.1573V50.8495L36.7444 50.4735L41.3822 53.813V54.6815L34.9806 52.3895L44.4442 57.9673V47.4562L37.2816 46.2028Z" fill="#AAAAAA"/>
<path d="M44.4437 22.6112L31.9092 14.8936L33.7715 18.833C33.7715 18.833 39.027 20.6952 40.173 22.0114L44.4437 25.5121L48.7144 22.0114C49.8604 20.6952 55.116 18.833 55.116 18.833L56.9782 14.8936L44.4437 22.6112Z" fill="#AAAAAA"/>
<path d="M10.226 19.7192L19.2687 28.9053L20.4685 28.3054L19.8149 29.6752C19.8149 29.6752 21.131 29.2365 21.7846 29.3977C22.4382 29.5588 22.8769 30.4363 22.8769 30.4363L21.3459 31.1436L20.2536 33.7669L18.83 33.4356L18.7226 31.5196L8.7666 21.0264L9.42019 20.2027L10.226 19.7192Z" fill="#AAAAAA"/>
<path d="M9.25695 18.2332C9.25695 18.2332 9.69566 19.3254 10.0269 19.4956L8.64813 21.0803L7.82443 20.8027L7.49316 20.3103L8.31686 18.833L9.25695 18.2332Z" fill="#AAAAAA"/>
<path d="M37.3892 17.6333C37.3892 17.6333 37.9353 14.9831 38.8664 14.4638C38.8664 14.4638 37.8816 17.7496 40.5049 19.603C43.1282 21.4473 44.4443 22.3158 44.4443 22.3158L48.9836 19.2538C48.9836 19.2538 49.3149 18.2689 48.5986 17.1766C48.5986 17.1766 49.4223 17.1229 49.3686 16.1381C49.3149 15.1532 47.8913 13.5953 47.0676 13.2551C47.0676 13.2551 49.9684 13.3715 51.8844 17.6422L44.4443 22.8351L37.3892 17.6333Z" fill="#AAAAAA"/>
<path d="M39.9483 23.7927C39.9483 23.7927 39.9124 24.6701 40.4228 25.1536C40.9331 25.6281 42.294 26.9532 42.294 26.9532L39.9393 26.1116L39.805 26.5055L36.752 26.031L36.8594 25.0014L38.2203 22.8347L39.9483 23.7927Z" fill="#AAAAAA"/>
<path d="M48.8755 23.7927C48.8755 23.7927 48.9113 24.6701 48.401 25.1536C47.8907 25.6371 46.5298 26.9532 46.5298 26.9532L48.8845 26.1116L49.0277 26.5145L52.0808 26.04L51.9734 25.0104L50.6035 22.8347L48.8755 23.7927Z" fill="#AAAAAA"/>
<path d="M21.7571 31.0361L24.6311 34.9218L22.1689 35.6918L20.2529 33.7758L21.0229 31.5286L21.7571 31.0361Z" fill="#AAAAAA"/>
<path d="M61.7056 33.4447C61.7056 33.4447 61.5176 32.5673 60.9715 31.6541C61.2669 31.0453 61.5176 30.4185 61.6967 29.7739C61.6967 29.7739 60.8372 28.0459 60.1836 28.0459C60.1836 28.0459 60.1746 28.0996 60.1478 28.1981L57.7573 25.6375C57.7752 25.5838 57.7931 25.5211 57.811 25.4674L54.8922 21.2952C60.0582 19.0211 58.6794 13.1746 58.6794 13.1746L53.1374 16.5321C50.4693 11.0079 44.4349 10.802 44.4349 10.802C44.4349 10.802 38.4093 11.0169 35.7323 16.5321L30.1813 13.1657C30.1813 13.1657 28.8025 19.0121 33.9685 21.2862L31.0498 25.4584C31.0677 25.5211 31.0856 25.5748 31.1035 25.6286L28.713 28.1892C28.6861 28.0907 28.6772 28.037 28.6772 28.037C28.0325 28.037 27.1641 29.7649 27.1641 29.7649C27.3431 30.4096 27.5938 31.0363 27.8893 31.6451C27.567 32.1823 27.37 32.7106 27.2626 33.0508L25.5256 31.1169C25.5793 30.4722 25.5883 29.7291 25.3555 29.3979C25.0511 28.9412 23.9051 27.643 22.4994 27.7952L13.0448 18.842C13.0448 18.842 13.018 17.0693 11.4512 17.0693C9.88434 17.0693 6.96558 19.0927 7.18941 20.2118C7.41324 21.331 7.75347 21.7249 8.47868 21.9756L8.48763 21.9577L18.4705 31.9406C18.1571 32.4509 17.9243 33.1761 18.4078 33.9013C18.4078 33.9013 18.8555 34.7967 20.6551 34.349L21.5414 35.4502C16.9484 38.0825 14.155 42.201 14.155 42.201L44.4438 62.1667L74.7326 42.201C74.7147 42.201 69.5576 34.5728 61.7056 33.4447ZM62.0369 35.5845C62.0369 35.5845 64.8482 36.3545 67.6953 37.9392L61.8131 43.2127L57.1753 41.6011L62.0369 35.5845ZM59.8255 28.995C59.7359 29.2994 59.6195 29.6844 59.4673 30.1231C59.3151 30.5618 59.1181 31.0453 58.8764 31.5287C58.3482 32.5942 57.5871 33.6775 56.5038 34.3042C56.5038 34.3042 56.4769 34.1789 56.4232 33.9551C56.28 33.3462 55.9308 32.0033 55.3757 30.3738C55.2772 30.0694 55.1608 29.7649 55.0444 29.4426C55.707 28.9502 56.6829 28.3056 57.3633 26.5239L59.8255 28.995ZM56.7276 25.4674C56.7276 25.8434 56.1188 28.3324 55.0355 29.4247C54.2028 27.1864 53.03 24.6258 51.481 22.7904C52.3853 22.289 53.2806 21.8682 54.0954 21.5906C54.7132 22.4054 56.7276 25.1003 56.7276 25.4674ZM46.897 40.7506C46.897 40.7506 45.4913 42.1562 44.4349 42.1562C43.3784 42.1562 41.9727 40.7506 41.9727 40.7506H43.3784C43.3784 40.7506 42.6711 40.7506 40.2089 37.9303C38.1049 35.5219 37.0216 31.0542 36.753 29.8097C38.7406 31.1527 44.4349 32.6479 44.4349 32.6479C44.4349 32.6479 50.1291 31.1527 52.1167 29.8097C51.8481 31.0542 50.7737 35.5219 48.6608 37.9303C46.1986 40.7506 45.4913 40.7506 45.4913 40.7506H46.897ZM38.5973 24.1692C38.5078 23.811 38.4541 23.5604 38.4272 23.3992C41.5071 25.2436 44.4259 27.6251 44.4259 27.6251C44.4259 27.6251 47.3447 25.2525 50.4246 23.3992C50.3977 23.5693 50.344 23.811 50.2545 24.1692C50.0396 25.0287 47.8818 26.3269 47.8818 26.3269L51.2662 24.7332C51.4005 24.975 51.5437 25.2346 51.687 25.5301C46.7179 26.6492 44.4259 29.3531 44.4259 29.3531C44.4259 29.3531 42.1428 26.6582 37.1648 25.5301C37.3081 25.2436 37.4513 24.975 37.5856 24.7332L40.97 26.3269C40.97 26.3269 38.8122 25.0287 38.5973 24.1692ZM51.8213 29.4784C51.8213 29.4784 45.8316 31.9406 44.4259 31.9406C43.0202 31.9406 37.0305 29.4784 37.0305 29.4784C36.6814 28.422 38.284 26.7656 38.284 26.7656C40.6655 27.5983 44.2826 29.1293 44.4259 30.8662C44.5691 29.1293 48.1952 27.5983 50.5678 26.7656C50.5768 26.7567 52.1794 28.422 51.8213 29.4784ZM35.6786 30.9826C35.6786 30.9826 36.8783 35.5219 38.3556 38.1094C37.5319 37.3036 36.8425 36.3814 36.2964 35.504C35.5264 34.2774 35.025 33.1224 34.7654 32.4778C35.1772 30.1678 35.9561 28.1086 36.6993 26.506L35.6786 30.9826ZM53.1732 30.9826L52.1615 26.506C52.9046 28.1086 53.6746 30.1678 54.0954 32.4778C53.8357 33.1224 53.3344 34.2684 52.5644 35.504C52.0182 36.3814 51.3288 37.3036 50.5051 38.1094C51.9735 35.5129 53.1732 30.9826 53.1732 30.9826ZM44.4259 11.8674C49.9411 11.8674 51.6959 15.9412 52.0988 17.1409L44.4259 21.7876V17.4722C44.4259 18.7704 43.3426 19.2001 43.3426 19.2001L42.7516 20.7759L36.753 17.1409C37.1559 15.9412 38.9107 11.8674 44.4259 11.8674ZM31.0498 14.6698L44.4259 23.3007L57.802 14.6698C57.802 18.7704 54.7848 20.4984 54.7848 20.4984C49.6098 21.7966 44.4259 26.7567 44.4259 26.7567C44.4259 26.7567 39.2509 21.7966 34.067 20.4984C34.067 20.4984 31.0498 18.7704 31.0498 14.6698ZM34.7564 21.5906C35.5712 21.8682 36.4665 22.289 37.3708 22.7904C35.8218 24.6258 34.64 27.1775 33.8163 29.4247C32.7419 28.3235 32.1242 25.8434 32.1242 25.4674C32.1242 25.1003 34.1476 22.4054 34.7564 21.5906ZM31.4795 26.5418C32.1689 28.3235 33.1359 28.9681 33.7984 29.4605C33.682 29.7739 33.5746 30.0873 33.4671 30.3917C32.912 32.0122 32.5629 33.3641 32.4196 33.973C32.3659 34.1968 32.339 34.3221 32.339 34.3221C31.2557 33.6865 30.4947 32.6121 29.9664 31.5466C29.7247 31.0632 29.5277 30.5797 29.3755 30.141C29.2233 29.7023 29.1069 29.3173 29.0174 29.0129L31.4795 26.5418ZM7.86091 19.988C8.08474 19.3165 10.332 17.5169 11.4512 17.7408C11.9883 17.8482 11.7824 18.4749 11.7824 18.4749C11.102 18.6271 9.53516 19.1375 8.48763 20.8028C8.16532 20.6953 7.7087 20.4446 7.86091 19.988ZM20.1626 33.4447C19.9299 33.4 18.4526 33.0687 19.0703 31.2064L9.04273 21.1788C9.39191 20.3641 10.1887 19.3434 12.0331 19.0032L21.4519 28.1981C21.1117 28.422 20.7715 28.7353 20.4223 29.183C20.4223 29.183 22.8934 28.5115 23.5649 29.183C24.2364 29.8545 23.7887 30.3021 23.7887 30.3021C23.7887 30.3021 21.3176 29.8545 20.6461 31.869C20.288 32.9523 20.1806 33.3283 20.1626 33.4447ZM20.6461 33.6775C20.6461 33.6775 20.8699 30.0873 24.4602 31.4302L24.8541 31.8242L26.2598 33.6148C24.7198 33.9371 23.2873 34.5012 21.9891 35.1996L22.016 35.1816L20.6461 33.6775ZM26.8149 35.5845L31.6765 41.6011L27.0387 43.2127L21.1565 37.9392C24.0036 36.3456 26.8149 35.5845 26.8149 35.5845ZM16.4918 41.8608C17.3155 40.6521 18.5063 39.6225 19.7866 38.7719L26.8149 44.5557L31.3005 42.3084L28.8294 44.5557L29.5009 45.451L26.5015 47.4476L16.4918 41.8608ZM43.638 52.6315L36.4575 50.3842L43.638 54.1983V57.0096L29.465 49.1039L32.1958 48.137V42.2368L36.2337 47.2327L43.638 48.6742V52.6315ZM44.3185 43.4365L42.5278 42.5412V43.6604L39.6001 42.0846L38.2571 45.0033L28.8383 34.0088C28.8383 34.0088 28.6772 33.6865 28.7398 33.1851C31.1304 36.9544 34.9355 39.703 34.9355 39.703C34.5684 38.2705 34.4341 36.838 34.461 35.4592L36.2337 36.7216C39.2778 41.4489 44.4349 42.8546 44.4349 42.8546C44.4349 42.8546 49.583 41.44 52.636 36.7216L54.3998 35.4592C54.4267 36.838 54.2924 38.2705 53.9253 39.703C53.9253 39.703 57.7214 36.9544 60.1209 33.1851C60.1836 33.6865 60.0224 34.0088 60.0224 34.0088L50.5947 45.0033L49.2517 42.0846L46.3329 43.6514V42.5323L44.5423 43.4276H44.3185V43.4365ZM45.2138 57.0186V54.2073L52.3943 50.3932L45.2138 52.6404V48.6921L52.6181 47.2506L56.656 42.2547V48.1549L59.3867 49.1218L45.2138 57.0186ZM59.3509 45.451L60.0224 44.5557L57.5513 42.3084L62.0369 44.5557L69.0652 38.7719C70.3455 39.6225 71.5363 40.6521 72.36 41.8608L62.3503 47.4476L59.3509 45.451Z" fill="#AAAAAA"/>
<path d="M33.5571 46.033L35.0881 48.4503L39.4663 49.4352V50.0798L34.927 49.1576C34.927 49.1576 33.5571 48.2623 33.5571 46.033Z" fill="#AAAAAA"/>
<path d="M32.2949 49.9809L36.5119 52.273L38.0966 52.8191L36.1269 51.0732L32.9575 49.6497L32.2949 49.9809Z" fill="#AAAAAA"/>
<path d="M32.6719 16.4871L33.7821 18.8328L36.7545 20.0146C36.7456 20.0146 32.8151 20.6503 32.6719 16.4871Z" fill="#AAAAAA"/>
<path d="M56.2267 16.4871L55.1165 18.8328L52.144 20.0146C52.153 20.0146 56.0835 20.6503 56.2267 16.4871Z" fill="#AAAAAA"/>
<path d="M79.111 61.4055C79.111 61.4055 62.1894 54.5473 44.2651 54.5383C44.2561 54.5383 44.2472 54.5383 44.2382 54.5383C44.2292 54.5383 44.2203 54.5383 44.2113 54.5383C26.287 54.5473 12.3289 60.4475 12.3289 60.4475L11.2455 65.13L6.50928 67.0012L10.0369 71.9971L8.81026 78.5867C25.4454 71.9971 43.1549 72.2836 44.2203 72.3015C44.2203 72.3015 44.2292 72.3015 44.2472 72.3015C44.2651 72.3015 44.274 72.3015 44.274 72.3015C45.3394 72.2747 67.0063 73.4655 83.6414 80.055L79.111 61.4055Z" fill="#AAAAAA"/>
<path d="M14.7726 61.7818C14.4413 63.3754 14.1101 64.9601 13.7788 66.5538C12.6059 66.9388 11.442 67.3417 10.2781 67.7625C10.8869 68.6578 11.5047 69.5442 12.1314 70.4306C12.4895 70.3142 12.6686 70.2515 13.0267 70.1351C12.6954 71.7288 12.3642 73.3135 12.0329 74.9072C12.9551 74.6117 13.8862 74.3163 14.8174 74.0387C15.1218 72.454 15.4262 70.8782 15.7216 69.2935C16.617 69.0249 17.5212 68.7742 18.4255 68.5325C18.148 70.1083 17.8794 71.6751 17.6018 73.2508C18.533 73.0001 19.4641 72.7674 20.4042 72.5435C21.0757 68.237 21.7561 63.9305 22.4276 59.624C19.867 60.2418 17.3064 60.967 14.7726 61.7818ZM19.0612 64.987C18.1748 65.2287 17.2974 65.4705 16.42 65.7301C16.4916 65.3362 16.5722 64.9422 16.6438 64.5483C17.5123 64.2887 18.3897 64.0469 19.2671 63.8052C19.1955 64.1991 19.1328 64.5931 19.0612 64.987Z" fill="#AAAAAA"/>
<path d="M30.7093 61.4506C30.8257 60.2867 30.9331 59.1317 31.0495 57.9678C28.4531 58.3528 25.8656 58.8273 23.305 59.4092C22.8931 62.1489 22.4813 64.8797 22.0694 67.6194C23.878 67.2075 25.6955 66.8404 27.5309 66.5271C27.4861 66.912 27.4414 67.306 27.3966 67.691C25.5523 68.0133 23.7168 68.3804 21.8993 68.7922C21.7203 69.9651 21.5412 71.138 21.3711 72.3108C24.1735 71.6752 26.9848 71.1469 29.8229 70.7351C30.0826 68.0222 30.3512 65.3184 30.6108 62.6055C28.8202 62.8652 27.0474 63.1786 25.2657 63.5277C25.3195 63.1427 25.3732 62.7488 25.418 62.3638C27.1728 62.0236 28.9366 61.7192 30.7093 61.4506Z" fill="#AAAAAA"/>
<path d="M40.5663 57.0904C40.5216 58.6303 40.4768 60.1703 40.432 61.7013C40.1366 61.7102 39.8322 61.7281 39.5367 61.746C39.2502 61.7639 38.9637 61.7819 38.6772 61.7998C38.6145 61.7998 38.5518 61.8087 38.4802 61.8087C38.3549 61.8177 38.2385 61.8266 38.1131 61.8356C37.6923 61.8624 37.2715 61.8893 36.8507 61.9251C35.9554 61.9967 35.0601 62.0773 34.1648 62.1668C34.1916 61.7819 34.2185 61.3969 34.2453 61.0119C36.0181 60.8239 37.7908 60.6896 39.5725 60.5911C39.6083 59.4361 39.6531 58.2811 39.6889 57.1262C37.0835 57.2694 34.4871 57.5022 31.8996 57.8514C31.6579 60.5553 31.4072 63.2591 31.1654 65.972C32.9919 65.7302 34.8183 65.5333 36.6538 65.39C36.6359 65.775 36.609 66.16 36.5911 66.545C34.7378 66.6972 32.8934 66.8941 31.058 67.1359C30.9506 68.2998 30.8521 69.4548 30.7446 70.6187C33.5649 70.2427 36.4031 69.983 39.2502 69.8308C39.3039 68.2909 39.3576 66.7509 39.4114 65.2199C39.7784 65.202 39.9575 65.193 40.3246 65.1751C40.2798 66.7151 40.2351 68.255 40.1903 69.786C41.1393 69.7502 42.0794 69.7234 43.0285 69.7055C43.0464 68.1655 43.0553 66.6345 43.0732 65.0945C43.9865 65.0856 44.9086 65.0856 45.8219 65.0945C45.8398 66.6345 45.8487 68.1655 45.8666 69.7055C46.8157 69.7234 47.7558 69.7502 48.7048 69.786C48.5884 65.5601 48.4631 61.3252 48.3467 57.0993C45.7592 56.9919 43.1628 56.9919 40.5663 57.0904ZM43.118 61.6296C43.118 61.2447 43.1269 60.8597 43.1269 60.4747C44.0133 60.4657 44.8997 60.4657 45.795 60.4747C45.795 60.8597 45.804 61.2447 45.804 61.6296C44.9086 61.6207 44.0133 61.6207 43.118 61.6296Z" fill="#AAAAAA"/>
<path d="M52.0717 61.9161C52.0538 61.5311 52.027 61.1461 52.0091 60.7611C53.7908 60.9044 55.5545 61.0924 57.3273 61.3252C57.2198 60.1613 57.1214 59.0063 57.0139 57.8424C54.4264 57.5022 51.83 57.2604 49.2246 57.1172C49.3141 59.8121 49.4126 62.4981 49.5022 65.193C51.3376 65.2915 53.173 65.4347 54.9994 65.6228C55.0263 66.0077 55.0532 66.3927 55.08 66.7777C53.2357 66.5897 51.3913 66.4375 49.538 66.339C49.5738 67.494 49.6186 68.6489 49.6544 69.8039C52.5015 69.9561 55.3307 70.2158 58.1599 70.5918C57.9182 67.8879 57.6675 65.184 57.4258 62.4712C55.653 62.2563 53.8624 62.0683 52.0717 61.9161Z" fill="#AAAAAA"/>
<path d="M60.9987 63.0353C60.9539 62.6503 60.9092 62.2564 60.8644 61.8714C62.6371 62.1847 64.4009 62.5339 66.1468 62.9279C65.9677 61.755 65.7887 60.5821 65.6186 59.4092C63.0579 58.8273 60.4794 58.3438 57.874 57.9678C58.1337 60.6806 58.4023 63.3845 58.6619 66.0973C60.4973 66.3659 62.3148 66.6793 64.1323 67.0374C64.1861 67.4224 64.2398 67.8163 64.2845 68.2013C62.4581 67.8342 60.6137 67.5209 58.7693 67.2523C58.8857 68.4162 58.9932 69.5712 59.1096 70.7351C61.9477 71.1469 64.768 71.6752 67.5614 72.3108C67.1496 69.5712 66.7377 66.8404 66.3259 64.1007C64.5621 63.7068 62.7893 63.3487 60.9987 63.0353Z" fill="#AAAAAA"/>
<path d="M66.4775 59.6152C67.149 63.9217 67.8295 68.2282 68.501 72.5347C69.4411 72.7586 70.3722 73.0003 71.3033 73.242C70.5513 68.9176 69.7992 64.5932 69.0382 60.2599C68.1876 60.036 67.337 59.8212 66.4775 59.6152Z" fill="#AAAAAA"/>
<path d="M80.5084 75.9548C79.3087 70.744 78.7357 68.1654 77.536 62.9547C76.6943 62.6503 75.8527 62.3548 75.0022 62.0683C75.3424 63.662 75.6826 65.2556 76.0229 66.8493C73.8293 63.9574 72.5759 63.2859 69.8899 60.4209C70.8121 65.5421 71.3135 68.3803 72.2356 73.5105C73.1668 73.7702 74.0979 74.0388 75.029 74.3253C74.7157 72.7405 74.4023 71.1558 74.089 69.5711C77.1241 72.3197 78.1537 72.9465 80.5084 75.9548Z" fill="#AAAAAA"/>
<path d="M77.2477 69.5264L76.9702 68.2371C76.6658 68.1476 76.3614 68.058 76.0659 67.9685L77.2477 69.5264Z" fill="#AAAAAA"/>
<path d="M12.3916 69.6698C12.5259 69.625 12.6602 69.5802 12.8393 69.5265L13.8957 69.1863L12.9019 73.9584C13.3586 73.8151 13.8152 73.6719 14.2718 73.5376L15.185 68.7924L15.561 68.6849C16.4653 68.4163 17.3786 68.1656 18.2828 67.9149L19.2587 67.6553L18.435 72.3826C18.9096 72.2573 19.3841 72.1409 19.8676 72.0245L20.9061 65.417C17.7994 66.1243 14.5672 67.0286 11.353 68.1746C11.6843 68.6581 12.0335 69.1684 12.3916 69.6698Z" fill="#AAAAAA"/>
<path d="M22.84 66.7959C24.362 66.4646 25.893 66.1602 27.4151 65.9006L28.2656 65.7484L27.9791 68.2463L27.5046 68.3269C25.8303 68.6223 24.1292 68.9536 22.4639 69.3296L22.1416 71.4874C24.4873 70.977 26.8689 70.5383 29.2326 70.1802L29.8503 63.7876C27.7374 64.0741 25.4812 64.4501 23.1354 64.9247L22.84 66.7959Z" fill="#AAAAAA"/>
<path d="M44.3371 62.8025C44.3371 62.8025 44.3282 62.8025 44.3103 62.8025C44.2924 62.8025 44.2834 62.8025 44.2834 62.8025C43.7462 62.7936 38.8846 62.713 32.0444 63.5098L31.8922 65.2378C33.459 65.0408 35.0526 64.8797 36.6195 64.7543L37.3536 64.6916L37.2193 67.1448L36.6553 67.1896C34.9989 67.3239 33.3157 67.503 31.6594 67.7089L31.4624 69.8756C33.844 69.5801 36.2434 69.3563 38.6339 69.222L38.7951 64.6021L39.386 64.5753C39.7531 64.5574 39.9322 64.5484 40.3082 64.5305L40.9976 64.5036L40.8633 69.1235C41.3736 69.1056 41.8929 69.0877 42.4033 69.0787L42.448 64.4589L43.0747 64.4499C43.9969 64.441 44.9281 64.441 45.8413 64.4499L46.468 64.4589L46.5128 69.0787C47.0231 69.0877 47.5424 69.1056 48.0527 69.1235L47.8826 63.0263C45.8592 62.8473 44.5789 62.7936 44.3371 62.8025Z" fill="#AAAAAA"/>
<path d="M50.1288 64.593C51.7762 64.6915 53.4326 64.8258 55.071 64.9959L55.6082 65.0496L55.7873 67.5117L55.0262 67.4312C53.4326 67.2611 51.821 67.1357 50.2184 67.0372L50.29 69.2039C52.6715 69.3472 55.08 69.562 57.4615 69.8575L56.9333 64.0021C54.3458 63.644 52.018 63.3843 50.093 63.1963L50.1288 64.593Z" fill="#AAAAAA"/>
<path d="M59.2513 65.5331C60.9166 65.7838 62.5998 66.0792 64.2562 66.4105L64.7038 66.5L65.0351 69.0159L64.1577 68.8368C62.6088 68.5324 61.042 68.2548 59.4841 68.0131L59.69 70.1798C62.0537 70.5379 64.4263 70.9766 66.781 71.487L65.8767 65.5241C63.531 65.0585 61.2568 64.6736 59.126 64.3423L59.2513 65.5331Z" fill="#AAAAAA"/>
<path d="M69.0749 72.0153C69.5494 72.1317 70.0239 72.2481 70.5074 72.3734L69.4419 66.2763C69.0032 66.1778 68.5645 66.0793 68.1348 65.9897L69.0749 72.0153Z" fill="#AAAAAA"/>
<path d="M78.1609 68.604C77.767 68.4787 77.3641 68.3623 76.9701 68.237L77.2477 69.5262L76.0659 67.9684C74.6065 67.5476 73.1471 67.1626 71.6877 66.8044C71.6877 66.8223 71.6967 66.8313 71.6967 66.8492C72.028 68.7025 72.3682 70.6185 72.7979 73.0001C73.2635 73.1344 73.7291 73.2687 74.1857 73.403L73.0845 67.7803L74.5259 69.0875C75.2064 69.7053 75.7883 70.2156 76.2987 70.6722C77.4536 71.6929 78.3131 72.445 79.289 73.5104C78.9667 72.0869 78.6802 70.8334 78.3937 69.6068C78.3131 69.2666 78.2415 68.9353 78.1609 68.604Z" fill="#AAAAAA"/>
</svg>
