<svg width="240" height="80" viewBox="0 0 240 80" fill="none" xmlns="http://www.w3.org/2000/svg">
<path d="M43.7577 37.838C43.1514 38.4735 42.687 39.2404 42.3978 40.0842C42.1085 40.928 42.0014 41.8278 42.0841 42.7197L42.0553 42.6897C42.1404 43.7394 42.0045 44.7959 41.6572 45.7853C41.3098 46.7747 40.7594 47.6732 40.0442 48.4181C39.3291 49.163 38.4665 49.7364 37.5167 50.0982C36.5669 50.4601 35.5527 50.6016 34.5449 50.513L34.5737 50.543C33.3683 50.4261 32.1575 50.6994 31.1066 51.3255C30.0557 51.9517 29.2157 52.9002 28.7013 54.0418C28.1868 55.1834 28.0229 56.4626 28.2319 57.7048C28.4409 58.947 29.0126 60.0918 29.8691 60.9831C30.7255 61.8745 31.8251 62.469 33.0178 62.6856C34.2105 62.9021 35.4383 62.7302 36.5338 62.1933C37.6292 61.6564 38.5391 60.7806 39.1392 59.6853C39.7394 58.59 40.0006 57.3286 39.8873 56.073L39.9177 56.103C39.8327 55.0533 39.9686 53.9968 40.3159 53.0074C40.6633 52.018 41.2137 51.1195 41.9288 50.3746C42.644 49.6296 43.5065 49.0562 44.4564 48.6944C45.4062 48.3326 46.4204 48.1911 47.4281 48.2797L47.3977 48.2497C48.3825 48.3419 49.3736 48.1737 50.2793 47.7607C51.185 47.3477 51.976 46.7032 52.5789 45.887C53.1818 45.0708 53.5772 44.1092 53.7284 43.0914C53.8795 42.0737 53.7816 41.0326 53.4437 40.0647C53.1058 39.0969 52.5388 38.2335 51.7952 37.5547C51.0517 36.8759 50.1557 36.4036 49.1903 36.1815C48.2248 35.9595 47.2212 35.9948 46.2724 36.2844C45.3236 36.574 44.4603 37.1084 43.7625 37.838H43.7577Z" fill="#919495"/>
<path d="M31.9545 46.6129L31.9241 46.5829C32.7807 46.6728 33.6457 46.5633 34.4566 46.2623C35.2675 45.9613 36.0041 45.4763 36.613 44.8425C37.222 44.2087 37.6881 43.4418 37.9777 42.5973C38.2672 41.7528 38.373 40.8518 38.2873 39.9596L38.3177 39.9896C38.2327 38.9398 38.3686 37.8834 38.7159 36.894C39.0633 35.9046 39.6137 35.006 40.3288 34.2611C41.044 33.5162 41.9065 32.9428 42.8564 32.581C43.8062 32.2192 44.8204 32.0776 45.8282 32.1662L45.7977 32.1362C47.0033 32.2542 48.2145 31.9818 49.266 31.3564C50.3175 30.731 51.1582 29.7829 51.6735 28.6414C52.1887 27.5 52.3534 26.2207 52.145 24.9782C51.9366 23.7357 51.3654 22.5904 50.5092 21.6985C49.6529 20.8066 48.5534 20.2116 47.3606 19.9945C46.1678 19.7775 44.9398 19.949 43.844 20.4857C42.7482 21.0224 41.838 21.8981 41.2376 22.9935C40.6372 24.0888 40.3757 25.3504 40.4889 26.6062L40.4601 26.5746C40.5455 27.6244 40.4098 28.6809 40.0626 29.6705C39.7153 30.66 39.1649 31.5587 38.4497 32.3037C37.7345 33.0486 36.8718 33.622 35.9218 33.9837C34.9719 34.3455 33.9576 34.4868 32.9498 34.3979L32.9785 34.4296C32.122 34.3397 31.257 34.4492 30.4461 34.7502C29.6352 35.0511 28.8986 35.5361 28.2897 36.17C27.6807 36.8038 27.2146 37.5707 26.925 38.4152C26.6355 39.2596 26.5297 40.1606 26.6153 41.0529L26.5865 41.0229C26.6713 42.0726 26.5353 43.1289 26.1878 44.1182C25.8404 45.1074 25.2899 46.0058 24.5748 46.7507C23.8598 47.4956 22.9973 48.0689 22.0476 48.4309C21.0979 48.7928 20.0838 48.9345 19.0761 48.8462L19.1049 48.8762C17.8994 48.7583 16.6882 49.0306 15.6367 49.6561C14.5852 50.2815 13.7445 51.2296 13.2292 52.371C12.714 53.5125 12.5493 54.7917 12.7577 56.0342C12.9661 57.2767 13.5373 58.422 14.3935 59.3139C15.2498 60.2058 16.3493 60.8009 17.5421 61.0179C18.7349 61.235 19.9629 61.0635 21.0587 60.5268C22.1545 59.9901 23.0647 59.1143 23.6651 58.019C24.2655 56.9236 24.527 55.662 24.4137 54.4062L24.4441 54.4362C24.3591 53.3865 24.495 52.33 24.8423 51.3406C25.1897 50.3512 25.7401 49.4527 26.4552 48.7078C27.1704 47.9629 28.033 47.3895 28.9828 47.0276C29.9326 46.6658 30.9468 46.5243 31.9545 46.6129Z" fill="#919495"/>
<path d="M21.232 43.2685C21.8385 42.6331 22.3028 41.8661 22.5918 41.0223C22.8808 40.1784 22.9874 39.2785 22.904 38.3868L22.9344 38.4168C22.8493 37.3667 22.9852 36.31 23.3328 35.3203C23.6803 34.3307 24.2311 33.432 24.9465 32.687C25.662 31.942 26.525 31.3687 27.4752 31.0071C28.4255 30.6455 29.44 30.5043 30.448 30.5934L30.4176 30.5635C31.6228 30.6811 32.8334 30.4086 33.8845 29.7832C34.9355 29.1578 35.7758 28.2099 36.2907 27.0688C36.8056 25.9277 36.9701 24.649 36.7618 23.4069C36.5534 22.1649 35.9823 21.02 35.1264 20.1284C34.2705 19.2369 33.1715 18.642 31.9791 18.425C30.7867 18.2079 29.5591 18.3793 28.4637 18.9157C27.3682 19.452 26.4583 20.3273 25.8579 21.4222C25.2575 22.517 24.9959 23.7781 25.1088 25.0335L25.08 25.0034C25.1651 26.0532 25.0292 27.1096 24.6819 28.099C24.3345 29.0885 23.7841 29.987 23.0689 30.7319C22.3538 31.4768 21.4912 32.0502 20.5414 32.412C19.5916 32.7739 18.5774 32.9154 17.5696 32.8268L17.5984 32.8568C16.6137 32.7648 15.6227 32.9332 14.7171 33.3464C13.8116 33.7596 13.0208 34.4042 12.418 35.2205C11.8153 36.0368 11.4201 36.9984 11.2691 38.0162C11.1181 39.0339 11.2162 40.0749 11.5542 41.0427C11.8923 42.0104 12.4593 42.8737 13.2029 43.5523C13.9465 44.231 14.8425 44.7032 15.8079 44.9252C16.7733 45.1472 17.7768 45.1117 18.7256 44.8221C19.6743 44.5325 20.5375 43.9981 21.2352 43.2685H21.232Z" fill="#919495"/>
<path d="M70.7949 26.6448H75.5469V50.7331H70.7949V26.6448Z" fill="#919495"/>
<path d="M78.2375 42.4851C78.2309 40.754 78.7176 39.0598 79.636 37.6171C80.5544 36.1744 81.8633 35.0481 83.3967 34.3808C84.9301 33.7136 86.6191 33.5354 88.2499 33.8689C89.8806 34.2023 91.3796 35.0324 92.5571 36.254C93.7345 37.4757 94.5374 39.0338 94.8641 40.7311C95.1907 42.4284 95.0265 44.1885 94.392 45.7885C93.7576 47.3885 92.6816 48.7563 91.3003 49.7188C89.919 50.6813 88.2946 51.1951 86.6327 51.1951C85.5296 51.2082 84.435 50.9921 83.413 50.5595C82.391 50.1268 81.462 49.4863 80.6803 48.6753C79.8987 47.8644 79.2801 46.8993 78.8606 45.8364C78.4412 44.7735 78.2294 43.6342 78.2375 42.4851ZM90.2759 42.4851C90.2561 41.7389 90.0256 41.0154 89.6132 40.405C89.2007 39.7945 88.6247 39.3243 87.9571 39.053C87.2895 38.7817 86.56 38.7215 85.8597 38.8797C85.1594 39.038 84.5194 39.4078 84.0198 39.9429C83.5202 40.478 83.183 41.1546 83.0505 41.8882C82.9181 42.6218 82.9961 43.3798 83.2749 44.0674C83.5538 44.755 84.021 45.3417 84.6182 45.7543C85.2154 46.1668 85.9161 46.3868 86.6327 46.3867C87.1235 46.4004 87.6116 46.308 88.0664 46.1153C88.5211 45.9227 88.9326 45.6339 89.2749 45.2674C89.6172 44.9008 89.8829 44.4643 90.0552 43.9854C90.2275 43.5066 90.3026 42.9957 90.2759 42.4851Z" fill="#919495"/>
<path d="M113.967 34.2349V49.9016C113.967 55.4449 109.817 57.7883 105.604 57.7883C104.12 57.9039 102.635 57.5918 101.311 56.8862C99.9868 56.1806 98.8746 55.1088 98.0966 53.7883L102.151 51.3466C102.478 52.0349 102.999 52.6028 103.644 52.9742C104.29 53.3457 105.029 53.5029 105.762 53.4249C106.231 53.4926 106.708 53.4496 107.159 53.2991C107.61 53.1486 108.022 52.8945 108.366 52.5556C108.71 52.2166 108.976 51.8015 109.144 51.341C109.313 50.8804 109.381 50.3862 109.341 49.8949V48.3866C108.785 49.0958 108.077 49.6593 107.273 50.0318C106.47 50.4043 105.594 50.5755 104.716 50.5316C102.626 50.4629 100.644 49.5499 99.1886 47.9856C97.7335 46.4214 96.9199 44.3288 96.9199 42.1508C96.9199 39.9727 97.7335 37.8801 99.1886 36.3159C100.644 34.7516 102.626 33.8386 104.716 33.7699C105.594 33.726 106.47 33.8972 107.273 34.2697C108.077 34.6422 108.785 35.2057 109.341 35.9149V34.2316L113.967 34.2349ZM109.343 42.1533C109.375 41.3555 109.177 40.5661 108.775 39.8865C108.372 39.207 107.784 38.6685 107.085 38.3402C106.386 38.012 105.609 37.9091 104.854 38.0448C104.098 38.1804 103.399 38.5485 102.847 39.1015C102.294 39.6546 101.912 40.3673 101.752 41.148C101.591 41.9287 101.658 42.7416 101.945 43.4821C102.231 44.2226 102.724 44.8569 103.36 45.3032C103.995 45.7496 104.744 45.9876 105.511 45.9866C106.01 46.0229 106.511 45.9499 106.982 45.7722C107.452 45.5945 107.882 45.3162 108.243 44.955C108.604 44.5939 108.888 44.158 109.078 43.6755C109.267 43.1929 109.358 42.6744 109.343 42.1533Z" fill="#919495"/>
<path d="M116.659 42.4851C116.653 40.754 117.139 39.0598 118.058 37.6171C118.976 36.1744 120.285 35.0481 121.819 34.3808C123.352 33.7136 125.041 33.5354 126.672 33.8689C128.302 34.2023 129.801 35.0324 130.979 36.254C132.156 37.4757 132.959 39.0338 133.286 40.7311C133.613 42.4284 133.448 44.1885 132.814 45.7885C132.18 47.3885 131.104 48.7563 129.722 49.7188C128.341 50.6813 126.716 51.1951 125.055 51.1951C123.951 51.2082 122.857 50.9921 121.835 50.5595C120.813 50.1268 119.884 49.4863 119.102 48.6753C118.321 47.8644 117.702 46.8993 117.283 45.8364C116.863 44.7735 116.651 43.6342 116.659 42.4851ZM128.698 42.4851C128.678 41.7389 128.447 41.0154 128.035 40.405C127.623 39.7945 127.047 39.3243 126.379 39.053C125.711 38.7817 124.982 38.7215 124.282 38.8797C123.581 39.038 122.941 39.4078 122.442 39.9429C121.942 40.478 121.605 41.1546 121.472 41.8882C121.34 42.6218 121.418 43.3798 121.697 44.0674C121.976 44.755 122.443 45.3417 123.04 45.7543C123.637 46.1668 124.338 46.3868 125.055 46.3867C125.545 46.4004 126.034 46.308 126.488 46.1153C126.943 45.9227 127.355 45.6339 127.697 45.2674C128.039 44.9008 128.305 44.4643 128.477 43.9854C128.649 43.5066 128.724 42.9957 128.698 42.4851Z" fill="#919495"/>
<path d="M135.666 29.8133C135.666 29.2259 135.833 28.6516 136.147 28.1632C136.46 27.6748 136.905 27.2941 137.426 27.0693C137.947 26.8445 138.52 26.7857 139.073 26.9003C139.627 27.0149 140.135 27.2978 140.533 27.7132C140.932 28.1285 141.204 28.6577 141.314 29.2338C141.424 29.81 141.367 30.4071 141.151 30.9498C140.936 31.4925 140.57 31.9564 140.101 32.2827C139.632 32.6091 139.081 32.7833 138.517 32.7833C137.763 32.7755 137.042 32.46 136.509 31.9047C135.976 31.3494 135.674 30.5985 135.666 29.8133ZM136.146 34.2349H140.9V50.7349H136.14L136.146 34.2349Z" fill="#919495"/>
<path d="M161.419 42.4845C161.473 43.575 161.321 44.666 160.97 45.6949C160.618 46.7237 160.075 47.67 159.372 48.4795C158.668 49.2889 157.818 49.9455 156.87 50.4115C155.922 50.8774 154.894 51.1435 153.847 51.1945C152.967 51.2446 152.086 51.0899 151.27 50.7417C150.454 50.3934 149.723 49.8604 149.129 49.1812V57.3329H144.377V34.2345H149.129V35.7845C149.723 35.1058 150.455 34.5732 151.271 34.2253C152.087 33.8774 152.967 33.7228 153.847 33.7729C154.895 33.8236 155.922 34.0897 156.87 34.5557C157.819 35.0216 158.669 35.6784 159.373 36.488C160.076 37.2977 160.619 38.2443 160.971 39.2735C161.322 40.3026 161.474 41.3939 161.419 42.4845ZM156.667 42.4845C156.648 41.7123 156.411 40.963 155.986 40.3303C155.56 39.6976 154.965 39.2096 154.275 38.9275C153.585 38.6453 152.83 38.5816 152.105 38.7441C151.38 38.9067 150.717 39.2884 150.199 39.8414C149.682 40.3945 149.332 41.0943 149.194 41.8533C149.056 42.6123 149.137 43.3968 149.425 44.1085C149.713 44.8203 150.196 45.4277 150.814 45.8548C151.432 46.2819 152.157 46.5096 152.899 46.5095C153.408 46.5331 153.916 46.4444 154.39 46.2491C154.864 46.0538 155.292 45.7564 155.648 45.3763C156.004 44.9963 156.279 44.5422 156.454 44.0438C156.63 43.5455 156.702 43.0141 156.667 42.4845Z" fill="#919495"/>
<path d="M176.081 45.7834C176.081 49.5784 172.915 51.195 169.494 51.195C168.112 51.3255 166.724 51.021 165.509 50.321C164.295 49.6209 163.311 48.5576 162.683 47.2684L166.799 44.8267C166.966 45.4226 167.324 45.941 167.813 46.2953C168.302 46.6496 168.893 46.8183 169.487 46.7734C170.627 46.7734 171.198 46.4101 171.198 45.7517C171.198 43.9351 163.404 44.8934 163.404 39.1851C163.404 35.5867 166.319 33.7734 169.614 33.7734C170.852 33.7326 172.079 34.0385 173.165 34.6594C174.251 35.2803 175.158 36.1934 175.79 37.3034L171.735 39.5801C171.558 39.1479 171.262 38.7797 170.884 38.5216C170.507 38.2635 170.065 38.1267 169.614 38.1284C168.79 38.1284 168.283 38.4617 168.283 39.0517C168.289 40.9334 176.081 39.6784 176.081 45.7834Z" fill="#919495"/>
<path d="M193.44 34.2351V50.7351H188.688V49.1834C188.14 49.8681 187.444 50.4076 186.657 50.7576C185.87 51.1076 185.014 51.2581 184.16 51.1968C180.96 51.1968 178.24 48.8218 178.24 44.3634V34.2351H182.992V43.6384C182.952 44.0314 182.995 44.4287 183.118 44.8026C183.241 45.1766 183.44 45.5182 183.702 45.8037C183.964 46.0893 184.283 46.3118 184.636 46.456C184.99 46.6001 185.369 46.6624 185.747 46.6384C187.49 46.6384 188.693 45.5834 188.693 43.2401V34.2401L193.44 34.2351Z" fill="#919495"/>
<path d="M220.688 40.6029V50.733H215.936V41.0313C215.936 39.3813 215.176 38.3263 213.656 38.3263C212.072 38.3263 211.184 39.4813 211.184 41.428V50.733H206.434V41.0313C206.434 39.3813 205.674 38.3263 204.152 38.3263C202.568 38.3263 201.682 39.4813 201.682 41.428V50.733H196.93V34.2329H201.682V35.7496C202.174 35.0768 202.821 34.5432 203.562 34.1976C204.304 33.852 205.117 33.7054 205.926 33.7713C206.74 33.7299 207.549 33.9086 208.276 34.29C209.003 34.6715 209.623 35.2427 210.075 35.9479C210.602 35.2102 211.299 34.6235 212.103 34.2428C212.906 33.8622 213.789 33.6999 214.669 33.7713C218.306 33.7729 220.688 36.4779 220.688 40.6029Z" fill="#919495"/>
<path d="M224.708 34.133C226.656 34.133 228.234 32.4884 228.234 30.4597C228.234 28.431 226.656 26.7864 224.708 26.7864C222.76 26.7864 221.182 28.431 221.182 30.4597C221.182 32.4884 222.76 34.133 224.708 34.133Z" fill="#919495"/>
</svg>
