<svg width="1169" height="140" viewBox="0 0 1169 140" fill="none" xmlns="http://www.w3.org/2000/svg">
<rect width="1169" height="140" fill="white" fill-opacity="0.05"/>
<path d="M127.786 56.152H130.89V77.7554H140.202V80.8594H127.786V56.152ZM149.871 56.152C151.712 56.152 153.513 56.6981 155.044 57.7213C156.575 58.7445 157.769 60.1988 158.474 61.9003C159.179 63.6018 159.363 65.4741 159.004 67.2805C158.644 69.0868 157.757 70.746 156.455 72.0483C155.153 73.3506 153.494 74.2374 151.687 74.5967C149.881 74.956 148.009 74.7716 146.307 74.0668C144.606 73.362 143.151 72.1685 142.128 70.6372C141.105 69.1059 140.559 67.3055 140.559 65.4638C140.559 64.241 140.8 63.0301 141.268 61.9003C141.736 60.7705 142.422 59.744 143.286 58.8793C144.151 58.0146 145.177 57.3287 146.307 56.8608C147.437 56.3928 148.648 56.152 149.871 56.152ZM149.871 71.6717C151.099 71.6717 152.299 71.3076 153.32 70.6255C154.341 69.9433 155.136 68.9738 155.606 67.8395C156.076 66.7051 156.199 65.4569 155.959 64.2527C155.72 63.0485 155.129 61.9423 154.26 61.0742C153.392 60.206 152.286 59.6147 151.082 59.3752C149.878 59.1357 148.629 59.2586 147.495 59.7285C146.361 60.1983 145.391 60.994 144.709 62.0149C144.027 63.0358 143.663 64.236 143.663 65.4638C143.671 67.1049 144.329 68.6759 145.492 69.8334C146.655 70.9909 148.23 71.6407 149.871 71.6407V71.6717ZM143.663 77.7865H156.079V80.8904H143.663V77.7865ZM183.393 80.8904H180.289V78.6711C178.288 80.0723 175.904 80.8252 173.461 80.8284C171.377 80.8423 169.324 80.3317 167.489 79.3435C165.655 78.3554 164.099 76.9215 162.964 75.1739C161.83 73.4264 161.153 71.4214 160.997 69.3437C160.841 67.266 161.21 65.1824 162.07 63.2848C162.931 61.3873 164.255 59.7368 165.921 58.4855C167.587 57.2341 169.541 56.4222 171.603 56.1245C173.666 55.8267 175.77 56.0527 177.721 56.7817C179.673 57.5107 181.41 58.7191 182.773 60.2957L180.491 62.3288C179.455 61.1705 178.146 60.2899 176.682 59.7672C175.219 59.2446 173.647 59.0966 172.112 59.3367C170.577 59.5767 169.126 60.1973 167.892 61.1417C166.657 62.0862 165.679 63.3245 165.046 64.7438C164.413 66.1631 164.145 67.7183 164.267 69.2675C164.389 70.8168 164.897 72.3109 165.744 73.6137C166.592 74.9165 167.752 75.9865 169.118 76.7262C170.485 77.4658 172.015 77.8517 173.569 77.8486C174.859 77.8512 176.134 77.5753 177.307 77.0395C178.481 76.5038 179.524 75.721 180.367 74.7446H171.986V71.6407H183.424L183.393 80.8904ZM194.816 56.214C196.658 56.214 198.458 56.7602 199.989 57.7834C201.521 58.8066 202.714 60.2609 203.419 61.9624C204.124 63.6639 204.308 65.5362 203.949 67.3425C203.59 69.1489 202.703 70.8081 201.4 72.1104C200.098 73.4126 198.439 74.2995 196.633 74.6588C194.826 75.0181 192.954 74.8337 191.252 74.1289C189.551 73.4241 188.097 72.2306 187.073 70.6993C186.05 69.1679 185.504 67.3676 185.504 65.5259C185.496 64.2952 185.732 63.0751 186.198 61.9361C186.664 60.7971 187.352 59.7619 188.22 58.8902C189.089 58.0185 190.122 57.3277 191.26 56.8577C192.397 56.3877 193.616 56.1478 194.847 56.152L194.816 56.214ZM194.816 71.7338C196.044 71.7338 197.244 71.3697 198.265 70.6876C199.286 70.0054 200.081 69.0359 200.551 67.9015C201.021 66.7672 201.144 65.519 200.905 64.3148C200.665 63.1106 200.074 62.0044 199.206 61.1362C198.337 60.268 197.231 59.6768 196.027 59.4373C194.823 59.1977 193.575 59.3207 192.44 59.7905C191.306 60.2604 190.336 61.0561 189.654 62.077C188.972 63.0978 188.608 64.2981 188.608 65.5259C188.633 67.1615 189.302 68.7214 190.47 69.8664C191.638 71.0114 193.211 71.649 194.847 71.6407L194.816 71.7338ZM188.608 77.8486H201.024V80.9525H188.608V77.8486ZM207.433 56.152H210.537V80.8284H207.433V56.152ZM214.836 56.152H217.94C218.1 56.135 218.262 56.135 218.421 56.152C219.721 56.0109 221.036 56.1453 222.281 56.5462C223.526 56.9471 224.672 57.6057 225.645 58.479C226.618 59.3523 227.397 60.4208 227.929 61.6149C228.462 62.809 228.738 64.1019 228.738 65.4095C228.738 66.7171 228.462 68.01 227.929 69.2041C227.397 70.3982 226.618 71.4666 225.645 72.34C224.672 73.2133 223.526 73.8718 222.281 74.2728C221.036 74.6737 219.721 74.808 218.421 74.667H217.94V80.8749H214.836V56.152ZM217.94 59.2559V71.532H218.421C219.298 71.6488 220.19 71.5768 221.036 71.321C221.883 71.0652 222.665 70.6315 223.331 70.0488C223.996 69.4662 224.529 68.7481 224.895 67.9426C225.26 67.1371 225.449 66.2629 225.449 65.3784C225.449 64.494 225.26 63.6198 224.895 62.8143C224.529 62.0088 223.996 61.2907 223.331 60.7081C222.665 60.1254 221.883 59.6916 221.036 59.4359C220.19 59.1801 219.298 59.1081 218.421 59.2249C218.252 59.2425 218.086 59.2789 217.925 59.3335L217.94 59.2559ZM240.304 57.9367L238.007 59.7525C237.611 59.3385 237.105 59.0461 236.548 58.9098C235.991 58.7735 235.407 58.799 234.865 58.9832C234.322 59.1673 233.843 59.5026 233.484 59.9495C233.126 60.3965 232.902 60.9365 232.839 61.5063V61.7546C232.839 63.1203 233.786 64.036 235.633 64.1601C242.741 64.5947 246 67.9314 246 72.3391V72.6184C245.817 74.3629 245.136 76.0179 244.039 77.3867C242.942 78.7555 241.475 79.7804 239.812 80.3395C238.15 80.8986 236.361 80.9684 234.66 80.5405C232.959 80.1127 231.417 79.2053 230.216 77.9262L232.591 76.0948C233.144 76.6872 233.819 77.1522 234.569 77.4577C235.319 77.7632 236.127 77.9019 236.937 77.8641C238.431 77.9429 239.899 77.4411 241.032 76.4637C242.166 75.4862 242.878 74.1085 243.02 72.6184V72.4011C243.02 68.2574 238.954 67.4969 235.431 67.1555C232.172 66.8451 229.828 64.812 229.828 61.8787V61.7546C229.943 60.2275 230.64 58.8028 231.775 57.7746C232.91 56.7465 234.397 56.1934 235.928 56.2296C236.739 56.2056 237.546 56.3521 238.298 56.6595C239.049 56.9669 239.727 57.4285 240.289 58.0143L240.304 57.9367ZM258.152 77.6778C262.016 77.6778 265.074 73.503 265.074 68.366V55.9502H268.178V68.366C268.178 75.1947 263.708 80.7042 258.214 80.7042C252.72 80.7042 248.25 75.1947 248.25 68.366V55.9502H251.354V68.366C251.23 73.5806 254.288 77.7554 258.137 77.7554L258.152 77.6778ZM292.001 80.7818H288.897V65.4172L281.742 74.7291L274.587 65.4172V80.8284H271.484V56.152L281.727 69.6386L291.97 56.152L292.001 80.7818Z" fill="#919495"/>
<path d="M112.885 52.4427C112.885 50.2036 111.996 48.0561 110.413 46.4728C108.829 44.8895 106.682 44 104.443 44C102.204 44 100.056 44.8895 98.4728 46.4728C96.8895 48.0561 96 50.2036 96 52.4427V77.9727L102.953 82.9546V95.091H105.933V82.9546L112.885 77.9727V52.4427ZM109.906 66.7209L105.933 70.694V66.9692L109.906 62.9962V66.7209ZM99.0419 62.9962L103.015 66.9692V70.694L99.0419 66.7209V62.9962ZM109.906 58.7748L104.443 64.2377L98.9798 58.6506V54.9259L104.443 60.3889L109.906 54.9259V58.7748ZM104.443 46.9798C105.644 46.9851 106.811 47.3841 107.764 48.1157C108.717 48.8473 109.404 49.8712 109.719 51.0304L104.443 56.2916L99.166 51.0304C99.4701 49.8596 100.152 48.8219 101.106 48.0783C102.06 47.3347 103.233 46.9267 104.443 46.9177V46.9798ZM98.9798 76.4673V70.8802L102.953 74.8533V79.2919L98.9798 76.4673ZM105.933 79.3074V74.8533L109.906 70.8802V76.4518L105.933 79.3074Z" fill="#919495"/>
<path d="M507.758 67.838C507.151 68.4735 506.687 69.2404 506.398 70.0842C506.108 70.928 506.001 71.8278 506.084 72.7197L506.055 72.6897C506.14 73.7394 506.005 74.7959 505.657 75.7853C505.31 76.7747 504.759 77.6732 504.044 78.4181C503.329 79.163 502.467 79.7364 501.517 80.0982C500.567 80.4601 499.553 80.6016 498.545 80.513L498.574 80.543C497.368 80.4261 496.158 80.6994 495.107 81.3255C494.056 81.9517 493.216 82.9002 492.701 84.0418C492.187 85.1834 492.023 86.4626 492.232 87.7048C492.441 88.947 493.013 90.0918 493.869 90.9831C494.726 91.8745 495.825 92.469 497.018 92.6856C498.21 92.9021 499.438 92.7302 500.534 92.1933C501.629 91.6564 502.539 90.7806 503.139 89.6853C503.739 88.59 504.001 87.3286 503.887 86.073L503.918 86.103C503.833 85.0533 503.969 83.9968 504.316 83.0074C504.663 82.018 505.214 81.1195 505.929 80.3746C506.644 79.6296 507.507 79.0562 508.456 78.6944C509.406 78.3326 510.42 78.1911 511.428 78.2797L511.398 78.2497C512.382 78.3419 513.374 78.1737 514.279 77.7607C515.185 77.3477 515.976 76.7032 516.579 75.887C517.182 75.0708 517.577 74.1092 517.728 73.0914C517.88 72.0737 517.782 71.0326 517.444 70.0647C517.106 69.0969 516.539 68.2335 515.795 67.5547C515.052 66.8759 514.156 66.4036 513.19 66.1815C512.225 65.9595 511.221 65.9948 510.272 66.2844C509.324 66.574 508.46 67.1084 507.763 67.838H507.758Z" fill="#919495"/>
<path d="M495.955 76.6129L495.924 76.5829C496.781 76.6728 497.646 76.5633 498.457 76.2623C499.268 75.9613 500.004 75.4763 500.613 74.8425C501.222 74.2087 501.688 73.4418 501.978 72.5973C502.267 71.7528 502.373 70.8518 502.287 69.9596L502.318 69.9896C502.233 68.9398 502.369 67.8834 502.716 66.894C503.063 65.9046 503.614 65.006 504.329 64.2611C505.044 63.5162 505.907 62.9428 506.856 62.581C507.806 62.2192 508.82 62.0776 509.828 62.1662L509.798 62.1362C511.003 62.2542 512.214 61.9818 513.266 61.3564C514.318 60.731 515.158 59.7829 515.673 58.6414C516.189 57.5 516.353 56.2207 516.145 54.9782C515.937 53.7357 515.365 52.5904 514.509 51.6985C513.653 50.8066 512.553 50.2116 511.361 49.9945C510.168 49.7775 508.94 49.949 507.844 50.4857C506.748 51.0224 505.838 51.8981 505.238 52.9935C504.637 54.0888 504.376 55.3504 504.489 56.6062L504.46 56.5746C504.546 57.6244 504.41 58.6809 504.063 59.6705C503.715 60.66 503.165 61.5587 502.45 62.3037C501.734 63.0486 500.872 63.622 499.922 63.9837C498.972 64.3455 497.958 64.4868 496.95 64.3979L496.979 64.4296C496.122 64.3397 495.257 64.4492 494.446 64.7502C493.635 65.0511 492.899 65.5361 492.29 66.17C491.681 66.8038 491.215 67.5707 490.925 68.4152C490.635 69.2596 490.53 70.1606 490.615 71.0529L490.587 71.0229C490.671 72.0726 490.535 73.1289 490.188 74.1182C489.84 75.1074 489.29 76.0058 488.575 76.7507C487.86 77.4956 486.997 78.0689 486.048 78.4309C485.098 78.7928 484.084 78.9345 483.076 78.8462L483.105 78.8762C481.899 78.7583 480.688 79.0306 479.637 79.6561C478.585 80.2815 477.744 81.2296 477.229 82.371C476.714 83.5125 476.549 84.7917 476.758 86.0342C476.966 87.2767 477.537 88.422 478.394 89.3139C479.25 90.2058 480.349 90.8009 481.542 91.0179C482.735 91.235 483.963 91.0635 485.059 90.5268C486.155 89.9901 487.065 89.1143 487.665 88.019C488.266 86.9236 488.527 85.662 488.414 84.4062L488.444 84.4362C488.359 83.3865 488.495 82.33 488.842 81.3406C489.19 80.3512 489.74 79.4527 490.455 78.7078C491.17 77.9629 492.033 77.3895 492.983 77.0276C493.933 76.6658 494.947 76.5243 495.955 76.6129Z" fill="#919495"/>
<path d="M485.232 73.2685C485.838 72.6331 486.303 71.8661 486.592 71.0223C486.881 70.1784 486.987 69.2785 486.904 68.3868L486.934 68.4168C486.849 67.3667 486.985 66.31 487.333 65.3203C487.68 64.3307 488.231 63.432 488.947 62.687C489.662 61.942 490.525 61.3687 491.475 61.0071C492.425 60.6455 493.44 60.5043 494.448 60.5934L494.418 60.5635C495.623 60.6811 496.833 60.4086 497.884 59.7832C498.936 59.1578 499.776 58.2099 500.291 57.0688C500.806 55.9277 500.97 54.649 500.762 53.4069C500.553 52.1649 499.982 51.02 499.126 50.1284C498.271 49.2369 497.171 48.642 495.979 48.425C494.787 48.2079 493.559 48.3793 492.464 48.9157C491.368 49.452 490.458 50.3273 489.858 51.4222C489.258 52.517 488.996 53.7781 489.109 55.0335L489.08 55.0034C489.165 56.0532 489.029 57.1096 488.682 58.099C488.335 59.0885 487.784 59.987 487.069 60.7319C486.354 61.4768 485.491 62.0502 484.541 62.412C483.592 62.7739 482.577 62.9154 481.57 62.8268L481.598 62.8568C480.614 62.7648 479.623 62.9332 478.717 63.3464C477.812 63.7596 477.021 64.4042 476.418 65.2205C475.815 66.0368 475.42 66.9984 475.269 68.0162C475.118 69.0339 475.216 70.0749 475.554 71.0427C475.892 72.0104 476.459 72.8737 477.203 73.5523C477.946 74.231 478.842 74.7032 479.808 74.9252C480.773 75.1472 481.777 75.1117 482.726 74.8221C483.674 74.5325 484.538 73.9981 485.235 73.2685H485.232Z" fill="#919495"/>
<path d="M534.795 56.6448H539.547V80.7331H534.795V56.6448Z" fill="#919495"/>
<path d="M542.238 72.4851C542.231 70.754 542.718 69.0598 543.636 67.6171C544.554 66.1744 545.863 65.0481 547.397 64.3808C548.93 63.7136 550.619 63.5354 552.25 63.8689C553.881 64.2023 555.38 65.0324 556.557 66.254C557.735 67.4757 558.537 69.0338 558.864 70.7311C559.191 72.4284 559.026 74.1885 558.392 75.7885C557.758 77.3885 556.682 78.7563 555.3 79.7188C553.919 80.6813 552.295 81.1951 550.633 81.1951C549.53 81.2082 548.435 80.9921 547.413 80.5595C546.391 80.1268 545.462 79.4863 544.68 78.6753C543.899 77.8644 543.28 76.8993 542.861 75.8364C542.441 74.7735 542.229 73.6342 542.238 72.4851ZM554.276 72.4851C554.256 71.7389 554.026 71.0154 553.613 70.405C553.201 69.7945 552.625 69.3243 551.957 69.053C551.29 68.7817 550.56 68.7215 549.86 68.8797C549.159 69.038 548.519 69.4078 548.02 69.9429C547.52 70.478 547.183 71.1546 547.051 71.8882C546.918 72.6218 546.996 73.3798 547.275 74.0674C547.554 74.755 548.021 75.3417 548.618 75.7543C549.215 76.1668 549.916 76.3868 550.633 76.3867C551.123 76.4004 551.612 76.308 552.066 76.1153C552.521 75.9227 552.933 75.6339 553.275 75.2674C553.617 74.9008 553.883 74.4643 554.055 73.9854C554.227 73.5066 554.303 72.9957 554.276 72.4851Z" fill="#919495"/>
<path d="M577.967 64.2349V79.9016C577.967 85.4449 573.817 87.7883 569.604 87.7883C568.12 87.9039 566.635 87.5918 565.311 86.8862C563.987 86.1806 562.875 85.1088 562.097 83.7883L566.151 81.3466C566.478 82.0349 566.999 82.6028 567.644 82.9742C568.29 83.3457 569.029 83.5029 569.762 83.4249C570.231 83.4926 570.708 83.4496 571.159 83.2991C571.61 83.1486 572.022 82.8945 572.366 82.5556C572.71 82.2166 572.976 81.8015 573.144 81.341C573.313 80.8804 573.381 80.3862 573.341 79.8949V78.3866C572.785 79.0958 572.077 79.6593 571.273 80.0318C570.47 80.4043 569.594 80.5755 568.716 80.5316C566.626 80.4629 564.644 79.5499 563.189 77.9856C561.734 76.4214 560.92 74.3288 560.92 72.1508C560.92 69.9727 561.734 67.8801 563.189 66.3159C564.644 64.7516 566.626 63.8386 568.716 63.7699C569.594 63.726 570.47 63.8972 571.273 64.2697C572.077 64.6422 572.785 65.2057 573.341 65.9149V64.2316L577.967 64.2349ZM573.343 72.1533C573.375 71.3555 573.177 70.5661 572.775 69.8865C572.372 69.207 571.784 68.6685 571.085 68.3402C570.386 68.012 569.609 67.9091 568.854 68.0448C568.098 68.1804 567.399 68.5485 566.847 69.1015C566.294 69.6546 565.912 70.3673 565.752 71.148C565.591 71.9287 565.658 72.7416 565.945 73.4821C566.231 74.2226 566.724 74.8569 567.36 75.3032C567.995 75.7496 568.744 75.9876 569.511 75.9866C570.01 76.0229 570.511 75.9499 570.982 75.7722C571.452 75.5945 571.882 75.3162 572.243 74.955C572.604 74.5939 572.888 74.158 573.078 73.6755C573.267 73.1929 573.358 72.6744 573.343 72.1533Z" fill="#919495"/>
<path d="M580.659 72.4851C580.653 70.754 581.139 69.0598 582.058 67.6171C582.976 66.1744 584.285 65.0481 585.819 64.3808C587.352 63.7136 589.041 63.5354 590.672 63.8689C592.302 64.2023 593.801 65.0324 594.979 66.254C596.156 67.4757 596.959 69.0338 597.286 70.7311C597.613 72.4284 597.448 74.1885 596.814 75.7885C596.18 77.3885 595.104 78.7563 593.722 79.7188C592.341 80.6813 590.716 81.1951 589.055 81.1951C587.951 81.2082 586.857 80.9921 585.835 80.5595C584.813 80.1268 583.884 79.4863 583.102 78.6753C582.321 77.8644 581.702 76.8993 581.283 75.8364C580.863 74.7735 580.651 73.6342 580.659 72.4851ZM592.698 72.4851C592.678 71.7389 592.447 71.0154 592.035 70.405C591.623 69.7945 591.047 69.3243 590.379 69.053C589.711 68.7817 588.982 68.7215 588.282 68.8797C587.581 69.038 586.941 69.4078 586.442 69.9429C585.942 70.478 585.605 71.1546 585.472 71.8882C585.34 72.6218 585.418 73.3798 585.697 74.0674C585.976 74.755 586.443 75.3417 587.04 75.7543C587.637 76.1668 588.338 76.3868 589.055 76.3867C589.545 76.4004 590.034 76.308 590.488 76.1153C590.943 75.9227 591.355 75.6339 591.697 75.2674C592.039 74.9008 592.305 74.4643 592.477 73.9854C592.649 73.5066 592.724 72.9957 592.698 72.4851Z" fill="#919495"/>
<path d="M599.666 59.8133C599.666 59.2259 599.833 58.6516 600.147 58.1632C600.46 57.6748 600.905 57.2941 601.426 57.0693C601.947 56.8445 602.52 56.7857 603.073 56.9003C603.627 57.0149 604.135 57.2978 604.533 57.7132C604.932 58.1285 605.204 58.6577 605.314 59.2338C605.424 59.81 605.367 60.4071 605.151 60.9498C604.936 61.4925 604.57 61.9564 604.101 62.2827C603.632 62.6091 603.081 62.7833 602.517 62.7833C601.763 62.7755 601.042 62.46 600.509 61.9047C599.976 61.3494 599.674 60.5985 599.666 59.8133ZM600.146 64.2349H604.9V80.7349H600.14L600.146 64.2349Z" fill="#919495"/>
<path d="M625.419 72.4845C625.473 73.575 625.321 74.666 624.97 75.6949C624.618 76.7237 624.075 77.67 623.372 78.4795C622.668 79.2889 621.818 79.9455 620.87 80.4115C619.922 80.8774 618.894 81.1435 617.847 81.1945C616.967 81.2446 616.086 81.0899 615.27 80.7417C614.454 80.3934 613.723 79.8604 613.129 79.1812V87.3329H608.377V64.2345H613.129V65.7845C613.723 65.1058 614.455 64.5732 615.271 64.2253C616.087 63.8774 616.967 63.7228 617.847 63.7729C618.895 63.8236 619.922 64.0897 620.87 64.5557C621.819 65.0216 622.669 65.6784 623.373 66.488C624.076 67.2977 624.619 68.2443 624.971 69.2735C625.322 70.3026 625.474 71.3939 625.419 72.4845ZM620.667 72.4845C620.648 71.7123 620.411 70.963 619.986 70.3303C619.56 69.6976 618.965 69.2096 618.275 68.9275C617.585 68.6453 616.83 68.5816 616.105 68.7441C615.38 68.9067 614.717 69.2884 614.199 69.8414C613.682 70.3945 613.332 71.0943 613.194 71.8533C613.056 72.6123 613.137 73.3968 613.425 74.1085C613.713 74.8203 614.196 75.4277 614.814 75.8548C615.432 76.2819 616.157 76.5096 616.899 76.5095C617.408 76.5331 617.916 76.4444 618.39 76.2491C618.864 76.0538 619.292 75.7564 619.648 75.3763C620.004 74.9963 620.279 74.5422 620.454 74.0438C620.63 73.5455 620.702 73.0141 620.667 72.4845Z" fill="#919495"/>
<path d="M640.081 75.7834C640.081 79.5784 636.915 81.195 633.494 81.195C632.112 81.3255 630.724 81.021 629.509 80.321C628.295 79.6209 627.311 78.5576 626.683 77.2684L630.799 74.8267C630.966 75.4226 631.324 75.941 631.813 76.2953C632.302 76.6496 632.893 76.8183 633.487 76.7734C634.627 76.7734 635.198 76.4101 635.198 75.7517C635.198 73.9351 627.404 74.8934 627.404 69.1851C627.404 65.5867 630.319 63.7734 633.614 63.7734C634.852 63.7326 636.079 64.0385 637.165 64.6594C638.251 65.2803 639.158 66.1934 639.79 67.3034L635.735 69.5801C635.558 69.1479 635.262 68.7797 634.884 68.5216C634.507 68.2635 634.065 68.1267 633.614 68.1284C632.79 68.1284 632.283 68.4617 632.283 69.0517C632.289 70.9334 640.081 69.6784 640.081 75.7834Z" fill="#919495"/>
<path d="M657.44 64.2351V80.7351H652.688V79.1834C652.14 79.8681 651.444 80.4076 650.657 80.7576C649.87 81.1076 649.014 81.2581 648.16 81.1968C644.96 81.1968 642.24 78.8218 642.24 74.3634V64.2351H646.992V73.6384C646.952 74.0314 646.995 74.4287 647.118 74.8026C647.241 75.1766 647.44 75.5182 647.702 75.8037C647.964 76.0893 648.283 76.3118 648.636 76.456C648.99 76.6001 649.369 76.6624 649.747 76.6384C651.49 76.6384 652.693 75.5834 652.693 73.2401V64.2401L657.44 64.2351Z" fill="#919495"/>
<path d="M684.688 70.6029V80.733H679.936V71.0313C679.936 69.3813 679.176 68.3263 677.656 68.3263C676.072 68.3263 675.184 69.4813 675.184 71.428V80.733H670.434V71.0313C670.434 69.3813 669.674 68.3263 668.152 68.3263C666.568 68.3263 665.682 69.4813 665.682 71.428V80.733H660.93V64.2329H665.682V65.7496C666.174 65.0768 666.821 64.5432 667.562 64.1976C668.304 63.852 669.117 63.7054 669.926 63.7713C670.74 63.7299 671.549 63.9086 672.276 64.29C673.003 64.6715 673.623 65.2427 674.075 65.9479C674.602 65.2102 675.299 64.6235 676.103 64.2428C676.906 63.8622 677.789 63.6999 678.669 63.7713C682.306 63.7729 684.688 66.4779 684.688 70.6029Z" fill="#919495"/>
<path d="M688.708 64.133C690.656 64.133 692.234 62.4884 692.234 60.4597C692.234 58.431 690.656 56.7864 688.708 56.7864C686.76 56.7864 685.182 58.431 685.182 60.4597C685.182 62.4884 686.76 64.133 688.708 64.133Z" fill="#919495"/>
<path d="M930.784 60.051H935.92V81.7176H930.784V60.051ZM937.968 73.5676C937.968 68.201 941.168 64.9843 945.968 64.9843C950.768 64.9843 953.968 68.201 953.968 73.5676C953.968 78.9343 950.88 82.1843 945.968 82.1843C941.056 82.1843 937.968 79.051 937.968 73.5676ZM948.88 73.5676C948.88 70.6176 947.776 68.8843 946.016 68.8843C944.256 68.8843 943.168 70.551 943.168 73.5676C943.168 76.5843 944.256 78.2343 946.016 78.2343C947.776 78.2343 948.912 76.5843 948.912 73.5843L948.88 73.5676ZM956.016 82.8343H960.976C961.202 83.3905 961.596 83.8546 962.099 84.1555C962.602 84.4564 963.185 84.5778 963.76 84.501C965.728 84.501 966.752 83.401 966.752 81.7676V78.7676H966.768C966.344 79.7018 965.659 80.4804 964.802 81.001C963.945 81.5216 962.957 81.7598 961.968 81.6843C958.208 81.6843 955.712 78.701 955.712 73.5676C955.712 68.4343 958.096 65.2343 962.112 65.2343C963.127 65.1777 964.133 65.4503 964.993 66.0145C965.853 66.5786 966.523 67.4066 966.912 68.3843H966.768V65.3676H971.856V81.601C971.856 85.5176 968.528 87.9676 963.632 87.9676C959.184 87.951 956.336 85.8343 956.048 82.851L956.016 82.8343ZM966.768 73.5676C966.768 70.951 965.616 69.301 963.792 69.301C961.968 69.301 960.848 70.9676 960.848 73.5676C960.848 76.1676 961.952 77.701 963.792 77.701C965.632 77.701 966.768 76.2843 966.768 73.5676ZM973.888 73.5676C973.888 68.201 977.088 64.9843 981.888 64.9843C986.688 64.9843 989.888 68.201 989.888 73.5676C989.888 78.9343 986.784 82.1843 981.888 82.1843C976.992 82.1843 973.92 79.051 973.92 73.5676H973.888ZM984.8 73.5676C984.8 70.6176 983.68 68.8843 981.936 68.8843C980.192 68.8843 979.088 70.551 979.088 73.5676C979.088 76.5843 980.176 78.2343 981.936 78.2343C983.696 78.2343 984.832 76.5843 984.832 73.5843L984.8 73.5676ZM991.968 61.4176C991.946 60.8727 992.081 60.3332 992.355 59.8686C992.629 59.404 993.031 59.0356 993.508 58.8107C993.985 58.5858 994.516 58.5148 995.032 58.6067C995.548 58.6986 996.026 58.9493 996.404 59.3265C996.783 59.7037 997.044 60.1902 997.155 60.7233C997.265 61.2565 997.22 61.8119 997.025 62.3182C996.83 62.8245 996.495 63.2585 996.061 63.5643C995.627 63.8701 995.116 64.0338 994.592 64.0343C994.258 64.0431 993.925 63.9827 993.612 63.8564C993.3 63.7301 993.016 63.5405 992.774 63.2987C992.533 63.0568 992.341 62.7674 992.208 62.4474C992.075 62.1273 992.004 61.783 992 61.4343L991.968 61.4176ZM991.968 65.351H997.168V81.7843H992.048L991.968 65.351ZM1015.87 73.5676C1015.87 78.9176 1013.57 82.0176 1009.65 82.0176C1008.64 82.0821 1007.65 81.8242 1006.79 81.2788C1005.93 80.7333 1005.25 79.9266 1004.85 78.9676H1004.75V87.0676H999.616V65.401H1004.72V68.3343H1004.82C1005.21 67.3564 1005.88 66.5277 1006.74 65.961C1007.59 65.3943 1008.6 65.1173 1009.62 65.1676C1013.65 65.1343 1015.97 68.2176 1015.97 73.5843L1015.87 73.5676ZM1010.64 73.5676C1010.64 70.9676 1009.47 69.2843 1007.66 69.2843C1005.86 69.2843 1004.72 70.951 1004.7 73.5676C1004.69 76.1843 1005.86 77.8343 1007.66 77.8343C1009.47 77.8343 1010.74 76.2843 1010.74 73.5843L1010.64 73.5676ZM1024.64 64.9676C1028.94 64.9676 1031.62 67.0843 1031.65 70.4843H1026.96C1026.96 69.301 1026.02 68.5676 1024.61 68.5676C1023.2 68.5676 1022.53 69.1343 1022.53 69.9843C1022.53 70.8343 1023.12 71.101 1024.3 71.351L1027.6 72.051C1030.8 72.751 1032.08 74.0843 1032.08 76.5676C1032.08 79.901 1029.12 82.1676 1024.72 82.1676C1020.32 82.1676 1017.46 79.9676 1017.25 76.6176H1022.22C1022.37 77.8343 1023.3 78.551 1024.8 78.551C1026.3 78.551 1027.01 78.051 1027.01 77.1676C1027.01 76.2843 1026.53 76.1343 1025.3 75.8676L1022.32 75.2176C1019.23 74.5343 1017.62 72.851 1017.62 70.3343C1017.71 67.0676 1020.4 64.9843 1024.74 64.9843L1024.64 64.9676ZM1049.28 81.7676H1044.3V78.6843H1044.21C1043.93 79.7127 1043.32 80.6116 1042.49 81.2327C1041.65 81.8538 1040.64 82.1601 1039.62 82.101C1038.84 82.1272 1038.07 81.9828 1037.36 81.6772C1036.64 81.3716 1036 80.9118 1035.46 80.3279C1034.93 79.744 1034.52 79.0492 1034.26 78.2891C1034 77.5291 1033.9 76.7209 1033.97 75.9176V65.3676H1039.1V74.7676C1039.1 76.701 1040.08 77.751 1041.68 77.751C1042.06 77.748 1042.43 77.6612 1042.77 77.4964C1043.11 77.3316 1043.41 77.0926 1043.65 76.7956C1043.9 76.4986 1044.08 76.1505 1044.18 75.7748C1044.29 75.399 1044.31 75.0044 1044.26 74.6176V65.3676H1049.38L1049.28 81.7676ZM1051.76 65.351H1056.75V68.5176H1056.86C1057.14 67.5032 1057.73 66.6127 1058.54 65.9854C1059.36 65.3581 1060.35 65.0295 1061.36 65.051C1062.38 64.959 1063.39 65.265 1064.2 65.9092C1065.01 66.5534 1065.56 67.4894 1065.74 68.5343H1065.97C1066.29 67.4838 1066.93 66.5728 1067.8 65.9429C1068.67 65.313 1069.71 64.9994 1070.77 65.051C1071.47 65.0231 1072.17 65.1501 1072.82 65.4236C1073.47 65.697 1074.06 66.1108 1074.55 66.6379C1075.04 67.165 1075.42 67.7934 1075.65 68.4821C1075.89 69.1708 1075.99 69.9042 1075.94 70.6343V81.7843H1070.77V72.001C1070.77 70.3343 1070.02 69.401 1068.56 69.401C1068.24 69.3954 1067.92 69.4627 1067.62 69.5982C1067.33 69.7337 1067.06 69.9341 1066.85 70.1858C1066.63 70.4376 1066.47 70.7345 1066.38 71.0565C1066.29 71.3784 1066.26 71.7177 1066.3 72.051V81.7843H1061.41V71.951C1061.41 70.2843 1060.62 69.401 1059.22 69.401C1058.89 69.3983 1058.57 69.4683 1058.27 69.6064C1057.97 69.7444 1057.7 69.9474 1057.49 70.2015C1057.27 70.4556 1057.11 70.7551 1057.01 71.0799C1056.92 71.4046 1056.89 71.7471 1056.93 72.0843V81.7843H1051.79L1051.76 65.351Z" fill="#919495"/>
<path d="M920.624 61.4675C920.624 58.1503 919.663 54.9104 917.865 52.1722C916.068 49.4339 913.518 47.325 910.551 46.1217C907.583 44.9183 904.336 44.6767 901.234 45.4283C898.133 46.18 895.321 47.8899 893.168 50.3341H873.2V94.2341H915.36V73.7175C917.015 72.1757 918.339 70.2879 919.246 68.1771C920.153 66.0663 920.623 63.7801 920.624 61.4675ZM912.512 61.4675C912.515 63.057 912.066 64.6118 911.22 65.9351C910.375 67.2584 909.171 68.2906 907.763 68.9012C906.354 69.5118 904.803 69.6732 903.305 69.3651C901.808 69.0571 900.433 68.2933 899.353 67.1705C898.273 66.0476 897.536 64.6163 897.238 63.0575C896.939 61.4987 897.09 59.8826 897.674 58.4138C898.257 56.9449 899.245 55.6893 900.514 54.8058C901.783 53.9224 903.274 53.4508 904.8 53.4508C906.843 53.4508 908.802 54.2949 910.248 55.7978C911.694 57.3008 912.508 59.3398 912.512 61.4675ZM907.248 85.7841H881.312V58.7841H889.216C889.064 59.6699 888.983 60.5676 888.976 61.4675C888.98 65.8378 890.649 70.0278 893.616 73.1181C896.582 76.2083 900.605 77.9464 904.8 77.9508C905.62 77.9463 906.439 77.8738 907.248 77.7341V85.7841Z" fill="#919495"/>
</svg>
