<svg width="70" height="70" viewBox="0 0 70 70" fill="none" xmlns="http://www.w3.org/2000/svg">
<path d="M53.8687 15L16.132 15.0096C15.5066 15.0096 15 15.5161 15 16.1423C15 16.7677 15.5074 17.2736 16.132 17.2736L23.6024 17.2714V53.681C23.6024 54.0938 23.848 54.4662 24.2285 54.6305C24.6083 54.7925 25.0475 54.7126 25.3466 54.4289L35.4652 44.781L45.5838 54.4289C45.7796 54.6144 46.0347 54.7133 46.2957 54.7133C46.4328 54.7133 46.5706 54.6862 46.7019 54.6313C47.0817 54.467 47.3266 54.0953 47.3266 53.6818V17.267L53.8687 17.2655C54.4934 17.2655 55 16.7589 55 16.1328C55.0007 15.5067 54.4934 15 53.8687 15ZM45.2641 51.2725L36.1779 42.6086C35.9792 42.4179 35.7218 42.3233 35.4659 42.3233C35.2093 42.3233 34.9534 42.4179 34.754 42.6086L25.667 51.2725V17.5668H34.3332L34.3339 34.0208C34.3339 34.6462 34.8413 35.1529 35.4659 35.1529C36.0913 35.1529 36.598 34.6462 36.598 34.0208L36.5972 17.5668H45.2641V51.2725Z" fill="white"/>
<circle cx="35" cy="35" r="34" stroke="#5079FF" stroke-width="2"/>
</svg>
