<svg width="266" height="490" viewBox="0 0 266 490" fill="none" xmlns="http://www.w3.org/2000/svg">
<g opacity="0.1">
<mask id="mask0_1_8551" style="mask-type:alpha" maskUnits="userSpaceOnUse" x="0" y="0" width="266" height="490">
<rect width="266" height="489.979" transform="matrix(1 0 -1.21576e-07 -1 0 490)" fill="#C4C4C4"/>
</mask>
<g mask="url(#mask0_1_8551)">
<rect width="95.2055" height="416.205" transform="matrix(0.880367 -0.474293 -0.526155 -0.850389 293.261 528.507)" fill="url(#paint0_linear_1_8551)"/>
<rect width="144.312" height="271.848" transform="matrix(0.880367 -0.474293 -0.526155 -0.850389 223.976 197.876)" fill="url(#paint1_linear_1_8551)"/>
<rect width="144.312" height="271.848" transform="matrix(0.880367 -0.474293 -0.526155 -0.850389 376.743 444.785)" fill="#466CE8"/>
<rect width="95.2056" height="210.722" transform="matrix(0.880367 -0.474293 -0.526155 -0.850389 65.8086 160.891)" fill="url(#paint2_linear_1_8551)"/>
<rect width="1.00216" height="201.071" transform="matrix(0.880367 -0.474293 -0.526155 -0.850389 183.903 372.674)" fill="#B6C7FF"/>
<rect width="1.00216" height="297.584" transform="matrix(0.880367 -0.474293 -0.526155 -0.850389 286.247 317.536)" fill="#B6C7FF"/>
</g>
</g>
<defs>
<linearGradient id="paint0_linear_1_8551" x1="47.6028" y1="0" x2="53.4689" y2="393.669" gradientUnits="userSpaceOnUse">
<stop stop-color="#466CE8"/>
<stop offset="1" stop-color="#466CE8" stop-opacity="0"/>
</linearGradient>
<linearGradient id="paint1_linear_1_8551" x1="78.4559" y1="-49.2686" x2="76.05" y2="199.197" gradientUnits="userSpaceOnUse">
<stop stop-color="#466CE8"/>
<stop offset="1" stop-color="#466CE8" stop-opacity="0"/>
</linearGradient>
<linearGradient id="paint2_linear_1_8551" x1="42.034" y1="-110.989" x2="44.6063" y2="121.234" gradientUnits="userSpaceOnUse">
<stop stop-color="#466CE8"/>
<stop offset="1" stop-color="#466CE8" stop-opacity="0"/>
</linearGradient>
</defs>
</svg>
