<svg width="236" height="356" viewBox="0 0 236 356" fill="none" xmlns="http://www.w3.org/2000/svg">
<g opacity="0.2">
<mask id="mask0_1_4936" style="mask-type:alpha" maskUnits="userSpaceOnUse" x="0" y="0" width="236" height="356">
<rect width="236" height="355.662" transform="matrix(1 0 -1.20925e-10 -1 0 355.666)" fill="#C4C4C4"/>
</mask>
<g mask="url(#mask0_1_4936)">
<rect width="81.266" height="322.107" transform="matrix(0.915055 -0.403329 -0.603186 -0.7976 260.189 383.616)" fill="url(#paint0_linear_1_4936)"/>
<rect width="123.182" height="210.386" transform="matrix(0.915055 -0.403329 -0.603186 -0.7976 198.718 143.62)" fill="url(#paint1_linear_1_4936)"/>
<rect width="123.182" height="210.386" transform="matrix(0.915055 -0.403329 -0.603186 -0.7976 334.256 322.845)" fill="#466CE8"/>
<rect width="81.266" height="163.081" transform="matrix(0.915055 -0.403329 -0.603186 -0.7976 58.3898 116.771)" fill="url(#paint2_linear_1_4936)"/>
<rect width="0.855432" height="155.611" transform="matrix(0.915055 -0.403329 -0.603186 -0.7976 163.164 270.502)" fill="#B6C7FF"/>
<rect width="0.855432" height="230.305" transform="matrix(0.915055 -0.403329 -0.603186 -0.7976 253.966 230.48)" fill="#B6C7FF"/>
</g>
</g>
<defs>
<linearGradient id="paint0_linear_1_4936" x1="40.633" y1="0" x2="44.7494" y2="304.678" gradientUnits="userSpaceOnUse">
<stop stop-color="#466CE8"/>
<stop offset="1" stop-color="#466CE8" stop-opacity="0"/>
</linearGradient>
<linearGradient id="paint1_linear_1_4936" x1="66.9689" y1="-38.1297" x2="65.2807" y2="154.164" gradientUnits="userSpaceOnUse">
<stop stop-color="#466CE8"/>
<stop offset="1" stop-color="#466CE8" stop-opacity="0"/>
</linearGradient>
<linearGradient id="paint2_linear_1_4936" x1="35.8796" y1="-85.8957" x2="37.6846" y2="93.8288" gradientUnits="userSpaceOnUse">
<stop stop-color="#466CE8"/>
<stop offset="1" stop-color="#466CE8" stop-opacity="0"/>
</linearGradient>
</defs>
</svg>
