<svg width="273" height="446" viewBox="0 0 273 446" fill="none" xmlns="http://www.w3.org/2000/svg">
<g opacity="0.2">
<mask id="mask0_1_4914" style="mask-type:alpha" maskUnits="userSpaceOnUse" x="0" y="0" width="273" height="446">
<rect width="273" height="445.113" transform="matrix(1 0 0 -1 0 445.113)" fill="#C4C4C4"/>
</mask>
<g mask="url(#mask0_1_4914)">
<rect width="95.3015" height="392.291" transform="matrix(0.902624 -0.430429 -0.572919 -0.819612 300.979 480.094)" fill="url(#paint0_linear_1_4914)"/>
<rect width="144.457" height="256.228" transform="matrix(0.902624 -0.430429 -0.572919 -0.819612 229.872 179.742)" fill="url(#paint1_linear_1_4914)"/>
<rect width="144.457" height="256.228" transform="matrix(0.902624 -0.430429 -0.572919 -0.819612 386.659 404.04)" fill="#466CE8"/>
<rect width="95.3015" height="198.615" transform="matrix(0.902624 -0.430429 -0.572919 -0.819612 67.543 146.139)" fill="url(#paint2_linear_1_4914)"/>
<rect width="1.00317" height="189.518" transform="matrix(0.902624 -0.430429 -0.572919 -0.819612 188.744 338.531)" fill="#B6C7FF"/>
<rect width="1.00317" height="280.486" transform="matrix(0.902624 -0.430429 -0.572919 -0.819612 293.781 288.442)" fill="#B6C7FF"/>
</g>
</g>
<defs>
<linearGradient id="paint0_linear_1_4914" x1="47.6508" y1="0" x2="52.8571" y2="371.059" gradientUnits="userSpaceOnUse">
<stop stop-color="#466CE8"/>
<stop offset="1" stop-color="#466CE8" stop-opacity="0"/>
</linearGradient>
<linearGradient id="paint1_linear_1_4914" x1="78.5351" y1="-46.4378" x2="76.3998" y2="187.754" gradientUnits="userSpaceOnUse">
<stop stop-color="#466CE8"/>
<stop offset="1" stop-color="#466CE8" stop-opacity="0"/>
</linearGradient>
<linearGradient id="paint2_linear_1_4914" x1="42.0764" y1="-104.612" x2="44.3593" y2="114.272" gradientUnits="userSpaceOnUse">
<stop stop-color="#466CE8"/>
<stop offset="1" stop-color="#466CE8" stop-opacity="0"/>
</linearGradient>
</defs>
</svg>
