<svg width="266" height="461" viewBox="0 0 266 461" fill="none" xmlns="http://www.w3.org/2000/svg">
<g opacity="0.1">
<mask id="mask0_1_377" style="mask-type:alpha" maskUnits="userSpaceOnUse" x="0" y="0" width="266" height="461">
<rect width="266" height="460.248" transform="matrix(1 0 -1.29429e-07 -1 0 460.249)" fill="#C4C4C4"/>
</mask>
<g mask="url(#mask0_1_377)">
<rect width="93.937" height="398.103" transform="matrix(0.892256 -0.45153 -0.55008 -0.835112 293.264 496.419)" fill="url(#paint0_linear_1_377)"/>
<rect width="142.389" height="260.024" transform="matrix(0.892256 -0.45153 -0.55008 -0.835112 223.976 185.85)" fill="url(#paint1_linear_1_377)"/>
<rect width="142.389" height="260.024" transform="matrix(0.892256 -0.45153 -0.55008 -0.835112 376.744 417.777)" fill="#466CE8"/>
<rect width="93.937" height="201.557" transform="matrix(0.892256 -0.45153 -0.55008 -0.835112 65.8081 151.11)" fill="url(#paint2_linear_1_377)"/>
<rect width="0.988811" height="192.325" transform="matrix(0.892256 -0.45153 -0.55008 -0.835112 183.904 350.042)" fill="#B6C7FF"/>
<rect width="0.988811" height="284.641" transform="matrix(0.892256 -0.45153 -0.55008 -0.835112 286.248 298.249)" fill="#B6C7FF"/>
</g>
</g>
<defs>
<linearGradient id="paint0_linear_1_377" x1="46.9685" y1="0" x2="52.408" y2="376.552" gradientUnits="userSpaceOnUse">
<stop stop-color="#466CE8"/>
<stop offset="1" stop-color="#466CE8" stop-opacity="0"/>
</linearGradient>
<linearGradient id="paint1_linear_1_377" x1="77.4106" y1="-47.1258" x2="75.1797" y2="190.534" gradientUnits="userSpaceOnUse">
<stop stop-color="#466CE8"/>
<stop offset="1" stop-color="#466CE8" stop-opacity="0"/>
</linearGradient>
<linearGradient id="paint2_linear_1_377" x1="41.4739" y1="-106.161" x2="43.8592" y2="115.963" gradientUnits="userSpaceOnUse">
<stop stop-color="#466CE8"/>
<stop offset="1" stop-color="#466CE8" stop-opacity="0"/>
</linearGradient>
</defs>
</svg>
