<svg width="12" height="14" viewBox="0 0 12 14" fill="none" xmlns="http://www.w3.org/2000/svg">
<path d="M11.3165 13.713L10.4835 9.55724C10.4835 9.55549 10.4818 9.55375 10.4805 9.55175C10.4778 9.53577 10.469 9.52178 10.4628 9.50705C10.4558 9.49232 10.4508 9.47734 10.4411 9.4641C10.4401 9.4626 10.4403 9.46086 10.4393 9.45861L3.85098 0.881633C3.85048 0.880884 3.85048 0.880882 3.85048 0.880882C3.18103 0.0144199 2.07785 -0.259999 1.39292 0.270116L0.522213 0.942309C-0.162716 1.47192 -0.17545 2.60731 0.493249 3.47378L7.08136 12.0513C7.08261 12.0532 7.0851 12.0543 7.0866 12.0565C7.09584 12.068 7.10833 12.076 7.11956 12.0855C7.1333 12.0972 7.14453 12.1077 7.15976 12.1159C7.16226 12.1172 7.16351 12.1199 7.16651 12.1207L10.9769 13.9754C11.0007 13.9867 11.0254 13.9947 11.0511 13.9982C11.1133 14.0059 11.177 13.9889 11.2281 13.9495C11.3006 13.8938 11.3348 13.8019 11.3165 13.713ZM0.816611 1.32186L1.68657 0.64966C2.11481 0.318307 2.80548 0.480112 3.31037 0.995495L0.740452 2.98062C0.369147 2.36311 0.387375 1.65321 0.816611 1.32186ZM1.01962 3.37165L3.61651 1.36456L8.01599 7.09269L5.4563 9.14898L1.01962 3.37165ZM5.73098 9.50605L8.29041 7.44977L9.91296 9.56173L7.31508 11.5686L5.73098 9.50605ZM7.72384 11.8587L10.0893 10.0307L10.7512 13.332L7.72384 11.8587Z" fill="white"/>
</svg>
