<svg width="14" height="10" viewBox="0 0 14 10" fill="none" xmlns="http://www.w3.org/2000/svg">
<path d="M13.9227 2.55865C13.859 2.48285 13.7652 2.43881 13.6662 2.43881H12.6664V0.33373C12.6664 0.149701 12.5172 0 12.333 0H1.66612C1.48256 0 1.33311 0.149701 1.33311 0.33373V1.28039H0.333148C0.235567 1.28039 0.14296 1.32327 0.0799589 1.39717C0.016484 1.4713 -0.0112287 1.56984 0.00416631 1.66576L1.33761 9.5764C1.36319 9.73841 1.50246 9.85777 1.66635 9.85777H12.3332C12.494 9.85777 12.6319 9.74268 12.6615 9.5847L13.9949 2.83221C14.012 2.73487 13.9857 2.63491 13.9227 2.55865ZM1.99983 0.6672H11.9995V2.43881H5.4405L3.85647 1.3401C3.80082 1.30102 3.7345 1.28039 3.66629 1.28039H1.99983V0.6672ZM12.0556 9.1913H1.95128L0.723466 1.94736H3.56207L5.1461 3.04584C5.20176 3.08468 5.26831 3.10554 5.33629 3.10554H13.2657L12.0556 9.1913Z" fill="white"/>
</svg>
