<svg width="14" height="14" viewBox="0 0 14 14" fill="none" xmlns="http://www.w3.org/2000/svg">
<path d="M13.604 0L0.396209 0.00335175C0.177319 0.00335175 0 0.180651 0 0.399798C0 0.618688 0.177575 0.795774 0.396209 0.795774L3.01083 0.794991V13.5384C3.01083 13.6828 3.0968 13.8132 3.22998 13.8707C3.3629 13.9274 3.51662 13.8994 3.62131 13.8001L7.16282 10.4233L10.7043 13.8001C10.7728 13.865 10.8621 13.8997 10.9535 13.8997C11.0015 13.8997 11.0497 13.8902 11.0957 13.8709C11.2286 13.8135 11.3143 13.6833 11.3143 13.5386V0.793456L13.604 0.792923C13.8227 0.792923 14 0.615624 14 0.396477C14.0003 0.17733 13.8227 0 13.604 0ZM10.5924 12.6954L7.41225 9.66299C7.34271 9.59628 7.25263 9.56316 7.16308 9.56316C7.07326 9.56316 6.9837 9.59628 6.91391 9.66299L3.73345 12.6954V0.898394H6.76661L6.76687 6.65729C6.76687 6.87618 6.94444 7.05352 7.16308 7.05352C7.38197 7.05352 7.55929 6.87618 7.55929 6.65729L7.55903 0.898394H10.5924V12.6954Z" fill="white"/>
</svg>
