<svg width="14" height="12" viewBox="0 0 14 12" fill="none" xmlns="http://www.w3.org/2000/svg">
<path d="M13.9781 8.09595L10.8315 0.194687C10.7961 0.105333 10.7206 0.0373012 10.6274 0.0111896C10.5343 -0.0144429 10.4346 0.00447384 10.3575 0.0626859L1.47473 6.78462L0.279348 6.90057C0.182807 6.90943 0.0960863 6.96406 0.0453005 7.04694C-0.0052458 7.13007 -0.0141111 7.23164 0.0218223 7.32219L1.19708 10.2728C1.2335 10.3643 1.31135 10.4326 1.40646 10.4575C1.50156 10.4822 1.60289 10.4606 1.67931 10.3983L2.55441 9.6878C2.57717 9.68445 2.59945 9.6787 2.62125 9.66983C2.64592 9.66001 2.6682 9.64683 2.6888 9.63198L4.45145 9.45424C4.45289 9.4576 4.45361 9.46071 4.45505 9.4643C4.7255 10.096 5.22498 10.5897 5.86172 10.8552C6.49917 11.1206 7.20299 11.1266 7.84332 10.8714C8.67482 10.5401 9.27107 9.81764 9.44619 8.94973L13.7218 8.51781C13.7503 8.51469 13.7786 8.50799 13.8049 8.49745C13.8667 8.47278 13.9197 8.4287 13.9546 8.37073C14.0054 8.28784 14.014 8.1865 13.9781 8.09595ZM1.61607 9.65355L0.749116 7.47598L1.38993 7.41442L2.11913 9.2451L1.61607 9.65355ZM7.61479 10.297C6.66974 10.6736 5.58359 10.2668 5.1052 9.38859L8.79268 9.01585C8.61637 9.5951 8.189 10.0684 7.61479 10.297ZM9.19465 8.35348C9.16136 8.3518 9.12926 8.3554 9.09835 8.3633L2.69167 9.01034L1.96606 7.18852L6.96319 3.40712C6.96559 3.43635 6.96799 3.4663 6.97925 3.49529L7.75133 5.43401C7.8141 5.59211 7.99352 5.6695 8.15187 5.60649C8.30974 5.54325 8.38711 5.36406 8.32411 5.20619L7.55202 3.26699C7.51872 3.18363 7.45285 3.12493 7.37523 3.09522L8.09677 2.54951L9.60957 6.34816C9.67257 6.50627 9.85176 6.5834 10.0099 6.52063C10.1682 6.45739 10.2451 6.2782 10.1823 6.1201L8.63817 2.24217C8.62763 2.21582 8.60966 2.19521 8.59313 2.17365L9.38391 1.575L11.9718 8.0732L9.19465 8.35348ZM12.6117 8.00851L9.8956 1.18788L10.4075 0.800522L13.2523 7.94336L12.6117 8.00851Z" fill="white"/>
</svg>
