<svg width="12" height="18" viewBox="0 0 12 18" fill="none" xmlns="http://www.w3.org/2000/svg">
<path d="M0.588752 17.6668C0.506931 17.6668 0.42512 17.6492 0.349593 17.611C0.164551 17.52 0.0474809 17.3324 0.0470613 17.1268L0.000489406 0.876292C6.98104e-05 0.67027 0.117128 0.481044 0.301331 0.389573C0.486372 0.29852 0.707499 0.319502 0.871142 0.444122L11.528 8.5918C11.6619 8.69419 11.7416 8.85323 11.7416 9.02274C11.7416 9.19058 11.6623 9.35003 11.528 9.45199L0.916881 17.5556C0.820794 17.6299 0.705819 17.6668 0.588752 17.6668ZM1.08724 1.97355L1.12668 16.0329L10.3074 9.02231L1.08724 1.97355Z" fill="#828282"/>
</svg>
