<svg width="18" height="18" viewBox="0 0 18 18" fill="none" xmlns="http://www.w3.org/2000/svg">
<path d="M16.667 0.666626H1.33366C0.964909 0.666626 0.666992 0.964543 0.666992 1.33329V16.6666C0.666992 17.0354 0.964909 17.3333 1.33366 17.3333H16.667C17.0357 17.3333 17.3337 17.0354 17.3337 16.6666V1.33329C17.3337 0.964543 17.0357 0.666626 16.667 0.666626ZM13.4857 6.70204C13.492 6.79996 13.492 6.90204 13.492 7.00204C13.492 10.0604 11.1628 13.5833 6.90657 13.5833C5.59407 13.5833 4.37741 13.202 3.35241 12.5458C3.53991 12.5666 3.71908 12.575 3.91074 12.575C4.99408 12.575 5.98991 12.2083 6.78366 11.5875C5.76699 11.5666 4.91282 10.9 4.62116 9.98329C4.97741 10.0354 5.29824 10.0354 5.66491 9.94162C5.14142 9.83527 4.6709 9.55096 4.33328 9.13701C3.99565 8.72305 3.81176 8.20497 3.81282 7.67079V7.64162C4.11908 7.81454 4.47949 7.92079 4.85658 7.93537C4.53958 7.72411 4.27961 7.4379 4.09972 7.1021C3.91983 6.76631 3.82558 6.39132 3.82533 6.01038C3.82533 5.57913 3.93783 5.18538 4.13991 4.84371C4.72096 5.55899 5.44601 6.144 6.26796 6.56072C7.0899 6.97744 7.99034 7.21653 8.91074 7.26246C8.58366 5.68954 9.75866 4.41663 11.1712 4.41663C11.8378 4.41663 12.4378 4.69579 12.8607 5.14579C13.3837 5.04788 13.8837 4.85204 14.3295 4.58954C14.1566 5.12496 13.7941 5.57704 13.3128 5.86246C13.7795 5.81246 14.2295 5.68329 14.6462 5.50204C14.3316 5.96454 13.9378 6.37496 13.4857 6.70204Z" fill="white"/>
</svg>
