<svg width="12" height="18" viewBox="0 0 12 18" fill="none" xmlns="http://www.w3.org/2000/svg">
<path d="M0.588752 17.6668C0.506931 17.6668 0.42512 17.6492 0.349593 17.611C0.164551 17.5199 0.0474809 17.3324 0.0470613 17.1268L0.000489406 0.876261C6.98104e-05 0.67024 0.117128 0.481014 0.301331 0.389542C0.486372 0.29849 0.707499 0.319472 0.871142 0.444091L11.528 8.59177C11.6619 8.69415 11.7416 8.8532 11.7416 9.02271C11.7416 9.19055 11.6623 9.35 11.528 9.45196L0.916881 17.5556C0.820794 17.6299 0.705819 17.6668 0.588752 17.6668ZM1.08724 1.97352L1.12668 16.0329L10.3074 9.02228L1.08724 1.97352Z" fill="#5079FF"/>
</svg>
