<svg width="18" height="18" viewBox="0 0 18 18" fill="none" xmlns="http://www.w3.org/2000/svg">
<path d="M16.667 0.666626H1.33366C0.964909 0.666626 0.666992 0.964543 0.666992 1.33329V16.6666C0.666992 17.0354 0.964909 17.3333 1.33366 17.3333H16.667C17.0357 17.3333 17.3337 17.0354 17.3337 16.6666V1.33329C17.3337 0.964543 17.0357 0.666626 16.667 0.666626ZM14.742 5.53121H13.4107C12.367 5.53121 12.1649 6.02704 12.1649 6.75621V8.36246H14.6566L14.3316 10.877H12.1649V17.3333H9.56699V10.8791H7.39407V8.36246H9.56699V6.50829C9.56699 4.35621 10.8816 3.18329 12.8024 3.18329C13.7232 3.18329 14.5128 3.25204 14.7441 3.28329V5.53121H14.742Z" fill="white"/>
</svg>
