<svg width="18" height="18" viewBox="0 0 18 18" fill="none" xmlns="http://www.w3.org/2000/svg">
<path d="M8.99824 6.221C7.46804 6.221 6.21928 7.46976 6.21928 8.99996C6.21928 10.5302 7.46804 11.7789 8.99824 11.7789C10.5284 11.7789 11.7772 10.5302 11.7772 8.99996C11.7772 7.46976 10.5284 6.221 8.99824 6.221ZM17.333 8.99996C17.333 7.84918 17.3435 6.70883 17.2788 5.56013C17.2142 4.2259 16.9098 3.04177 15.9342 2.06611C14.9564 1.08836 13.7744 0.786076 12.4401 0.721449C11.2894 0.656822 10.149 0.667246 9.00032 0.667246C7.84955 0.667246 6.70919 0.656822 5.5605 0.721449C4.22627 0.786076 3.04213 1.09045 2.06647 2.06611C1.08873 3.04385 0.786443 4.2259 0.721816 5.56013C0.657189 6.71091 0.667612 7.85127 0.667612 8.99996C0.667612 10.1487 0.657189 11.2911 0.721816 12.4398C0.786443 13.774 1.09081 14.9581 2.06647 15.9338C3.04422 16.9116 4.22627 17.2138 5.5605 17.2785C6.71128 17.3431 7.85163 17.3327 9.00032 17.3327C10.1511 17.3327 11.2915 17.3431 12.4401 17.2785C13.7744 17.2138 14.9585 16.9095 15.9342 15.9338C16.9119 14.9561 17.2142 13.774 17.2788 12.4398C17.3455 11.2911 17.333 10.1507 17.333 8.99996ZM8.99824 13.2758C6.63206 13.2758 4.72243 11.3661 4.72243 8.99996C4.72243 6.63378 6.63206 4.72415 8.99824 4.72415C11.3644 4.72415 13.274 6.63378 13.274 8.99996C13.274 11.3661 11.3644 13.2758 8.99824 13.2758ZM13.4492 5.54763C12.8967 5.54763 12.4506 5.10149 12.4506 4.54903C12.4506 3.99658 12.8967 3.55044 13.4492 3.55044C14.0016 3.55044 14.4478 3.99658 14.4478 4.54903C14.4479 4.68022 14.4222 4.81014 14.3721 4.93137C14.322 5.0526 14.2484 5.16275 14.1556 5.25551C14.0629 5.34827 13.9527 5.42182 13.8315 5.47195C13.7103 5.52207 13.5803 5.54779 13.4492 5.54763Z" fill="white"/>
</svg>
