<svg width="18" height="13" viewBox="0 0 18 13" fill="none" xmlns="http://www.w3.org/2000/svg">
<path d="M16.9858 2.11925C16.8909 1.74115 16.7049 1.39633 16.4464 1.11932C16.1878 0.842317 15.8658 0.642831 15.5126 0.54083C14.2124 0.166626 9.00032 0.166626 9.00032 0.166626C9.00032 0.166626 3.78827 0.166626 2.48805 0.538839C2.13466 0.640509 1.8125 0.839885 1.55391 1.11694C1.29532 1.394 1.1094 1.73899 1.01483 2.11726C0.666992 3.51058 0.666992 6.41663 0.666992 6.41663C0.666992 6.41663 0.666992 9.32268 1.01483 10.714C1.20643 11.4823 1.7719 12.0874 2.48805 12.2924C3.78827 12.6666 9.00032 12.6666 9.00032 12.6666C9.00032 12.6666 14.2124 12.6666 15.5126 12.2924C16.2306 12.0874 16.7942 11.4823 16.9858 10.714C17.3337 9.32268 17.3337 6.41663 17.3337 6.41663C17.3337 6.41663 17.3337 3.51058 16.9858 2.11925ZM7.34482 9.08382V3.74943L11.6603 6.39672L7.34482 9.08382Z" fill="white"/>
</svg>
